<svg height="216.88" viewBox="0 0 394.402 216.88" width="394.402" xmlns="http://www.w3.org/2000/svg"><path d="m758.945 2323.57s1.549 12.28 32.77 15.82c17.713 2.01 23.051-.62 32.634-3.1 13.617-3.54 27.919-2.48 40.268-.86 29.644 3.88 34.185-4.24 53.658-11.86 3.859-1.51 16.212 9.77 50.989.75 15.194-3.94 23.729-19.06 23.729-19.06s23.857-4.69 32.067-26.01c8.73-22.7-.39-29.4-.39-29.4s11.84-16.72 9.99-41.54c-1.87-25.16-22.87-22.51-22.87-22.51s-17.107-32.33-34.755-43.03c-8.817-5.34-45.34-26.3-82.962-13.52-34.355 11.67-66.743-11.76-69.727 9.32-.506 3.58 1.67 3.1-1.537 0-17.932-17.31-49.629-5.06-49.629-5.06.037-.19-40.919-23.89-84.091 1.44-34.3 20.12-21.674 51.89-21.674 51.89s-34.118 17.03-25.595 66.72c5.337 31.12 42.545 33.85 42.545 33.85s2.037 19.56 21.942 33.96c15.831 11.46 30.783 9.12 30.783 9.12" fill="#fff" fill-rule="evenodd" transform="translate(-640.438 -2123.25)"/></svg>