<svg height="383" viewBox="0 0 233 383" width="233" xmlns="http://www.w3.org/2000/svg" xmlns:xlink="http://www.w3.org/1999/xlink"><filter id="a" height="115%" width="125.6%" x="-12.8%" y="-7.5%"><feOffset dx="0" dy="-8" in="SourceAlpha" result="shadowOffsetOuter1"/><feGaussianBlur in="shadowOffsetOuter1" result="shadowBlurOuter1" stdDeviation="6"/><feColorMatrix in="shadowBlurOuter1" result="shadowMatrixOuter1" type="matrix" values="0 0 0 0 0   0 0 0 0 0   0 0 0 0 0  0 0 0 0.101873868 0"/><feMerge><feMergeNode in="shadowMatrixOuter1"/><feMergeNode in="SourceGraphic"/></feMerge></filter><g fill="#fff" fill-rule="evenodd" filter="url(#a)" transform="translate(11.591981 20.229287)"><path d="m107.6728 356.096651c-24.2086183 6.052155-57.4755179 2.764797-80.2600999-8.271485-6.0521545-2.848073-11.7483-8.188209-16.3764182-15.6644-9.61224553-15.308391-12.81632736-35.2449-8.54421825-52.689346 4.6281182-17.444445 16.73242735-33.464854 32.39682745-42.365082 9.2562364-4.984127 20.2925183-8.544218 33.8208638-10.324263h1.0680273c3.9161-.712019 7.8322-1.068028 10.6802727-2.848073 1.7800455-1.068027 3.2040819-3.560091 3.2040819-4.628118 0 0 0-.356009-.7120182-.712019-1.4240364-.712018-3.5600909-.712018-5.3401364-.712018-2.1360546 0-4.2721091 0-6.4081637-.712018-5.6961455-1.424036-11.3922909-4.272109-16.0204091-8.188209-10.3242637-7.8322-16.3764183-18.868482-17.4444456-30.616782-.7120182-11.392291 3.2040819-23.140591 11.7483001-32.396827 8.1882091-9.256237 19.5805001-14.596373 30.6167819-14.952382 1.0680273 0 2.1360546-1.068028 2.4920637-1.424037 1.0680273-1.424036 1.4240364-3.204082.7120182-4.628118-1.0680273-3.560091-5.3401364-5.696145-8.5442182-6.408164-3.560091-.712018-7.1201819-.712018-11.0362819-.356009-1.0680273 0-1.7800455 0-2.8480728 0-19.5805001.712018-35.9569183-5.696145-44.8571456-17.444445-3.560091-4.6281184-6.4081637-10.680273-8.18820916-17.8004549-4.62811821-17.4444455-2.49206365-36.6689365 4.98412726-53.0453548 3.9161001-8.1882091 11.0362819-19.5805001 23.1405911-24.92063645 4.9841273-2.13605456 10.6802727-3.56009093 18.1564637-4.27210911 22.0725637-1.78004547 44.8571456 2.84807274 64.0816369 13.52834556 4.984127 2.8480727 11.392291 6.7641727 15.308391 12.8163273 3.204082 4.9841273 4.628118 11.0362819 5.340136 15.308391 1.780046 10.3242637 4.272109 36.3129274-13.172336 52.3333366-2.136055 1.7800455-3.9161 3.2040818-6.052155 4.9841273-3.204082 2.4920635-6.408164 4.6281185-8.544218 7.8322005-1.780046 2.492063-2.848073 6.052154-2.136055 8.900227.356009 1.780045 1.068028 2.848073 2.492064 3.560091 2.136055 1.424036 4.984127.712018 8.544218.356009 1.424037-.356009 2.848073-.356009 4.272109-.712018 16.732428-1.424037 29.904764 12.460318 35.956919 24.920636 8.188209 16.732428 8.900227 35.2449 1.780045 49.485264-8.188209 16.732427-27.4127 25.988664-43.789118 21.716555-.356009 0-1.068028.356009-1.424037.356009-.712018.712018-1.424036 1.780045-1.424036 2.492063 0 2.492064 2.492064 4.27211 4.628118 5.340137 2.136055 1.068027 4.984128 1.424036 7.476191 2.136054.712018 0 1.780046.356009 2.492064.356009 14.970297 3.097303 36.720457 14.786343 38.354014 16.592375 4.620574 5.108427 43.27429 2.330716 42.484429 7.159403-.667206 4.078854-14.016946 9.102021-20.090449 12.735327-3.467275 2.074202-6.234689 15.36258-10.61176 28.853363-4.734516 14.592485-13.257912 32.06254-15.099553 33.904181-4.324144 4.324144-11.360595 12.047071-23.032 17.924642-14.273247 7.187826-32.851164 12.145286-34.2752 12.501295z"/></g></svg>