<svg height="232" viewBox="0 0 119 232" width="119" xmlns="http://www.w3.org/2000/svg" xmlns:xlink="http://www.w3.org/1999/xlink"><filter id="a" height="114.2%" width="129.5%" x="-14.8%" y="-7.1%"><feOffset dx="0" dy="-4" in="SourceAlpha" result="shadowOffsetOuter1"/><feGaussianBlur in="shadowOffsetOuter1" result="shadowBlurOuter1" stdDeviation="3.5"/><feColorMatrix in="shadowBlurOuter1" result="shadowMatrixOuter1" type="matrix" values="0 0 0 0 0   0 0 0 0 0   0 0 0 0 0  0 0 0 0.171280571 0"/><feMerge><feMergeNode in="shadowMatrixOuter1"/><feMergeNode in="SourceGraphic"/></feMerge></filter><g fill="#fff" fill-rule="evenodd" filter="url(#a)" transform="matrix(-1 0 0 1 112.179561 11.034661)"><path d="m90.3871461 217.848023c-2.0826531 0-3.7487756-1.041326-4.9983675-2.082653-1.4578572-1.041326-2.7074491-2.082653-4.1653063-3.332245-3.7487756-3.123979-7.2892859-6.039694-11.6628575-6.456224-2.9157144-.416531-5.8314288.41653-8.7471432 1.249591-.624796.208266-1.2495919.416531-2.0826531.624796-14.1620414 3.540511-29.3654093 2.082653-42.6943893-4.373571-3.5405104-1.666123-6.8727554-4.790102-9.58020448-9.163674-5.62316346-8.955409-7.49755129-20.618266-4.99836752-30.823266 2.70744907-10.205001 9.7884697-19.57694 18.9521435-24.783573 5.4148982-2.915714 11.8711229-4.998367 19.7852048-6.039694h.624796c2.2909184-.416531 4.5818369-.624796 6.2479594-1.666122 1.0413266-.624796 1.8743878-2.082654 1.8743878-2.707449 0 0 0-.208266-.4165306-.416531-.8330613-.416531-2.0826532-.416531-3.1239797-.416531-1.2495919 0-2.4991838 0-3.7487757-.41653-3.332245-.833062-6.66449-2.499184-9.3719391-4.790103-6.0396941-4.581836-9.5802044-11.038061-10.2050004-17.910817-.4165306-6.6644896 1.8743879-13.5372449 6.8727554-18.9521431 4.7901022-5.4148982 11.4545923-8.5388779 17.910817-8.7471432.6247959 0 1.2495919-.6247959 1.4578572-.8330612.6247959-.8330613.8330612-1.8743879.4165306-2.7074491-.6247959-2.0826531-3.1239797-3.332245-4.9983675-3.7487757-2.0826532-.4165306-4.1653063-.4165306-6.4562248-.2082653-.6247959 0-1.0413265 0-1.6661225 0-11.4545922.4165307-21.0347966-3.332245-26.24142949-10.2050003-2.08265313-2.7074491-3.74877564-6.2479594-4.79010221-10.4132657-2.70744908-10.2050004-1.4578572-21.4513273 2.91571439-31.0315318 2.29091845-4.7901022 6.45622471-11.45459221 13.53724541-14.57857192 2.9157144-1.24959188 6.2479594-2.08265313 10.621531-2.49918376 12.9124494-1.04132657 26.2414295 1.66612251 37.4877564 7.91408192 2.9157144 1.66612251 6.6644901 3.95704096 8.9554085 7.49755126 1.8743878 2.9157144 2.7074491 6.4562248 3.1239797 8.9554085 1.0413266 6.0396941 2.4991838 21.243062-7.7058166 30.6150011-1.2495919 1.0413266-2.2909184 1.8743879-3.5405103 2.9157144-1.8743878 1.4578572-3.7487757 2.7074491-4.9983675 4.5818369-1.0413266 1.4578572-1.6661225 3.5405104-1.2495919 5.2066329.2082653 1.0413265.6247959 1.6661225 1.4578572 2.0826531 1.2495919.8330613 2.9157144.4165306 4.9983675.2082653.8330613-.2082653 1.6661225-.2082653 2.4991838-.4165306 9.7884697-.8330613 17.4942863 7.289286 21.0347966 14.5785719 4.7901023 9.7884698 5.2066329 20.6182664 1.0413266 28.9488784-4.7901022 9.78847-16.0364291 15.203368-25.6166336 12.704184-.2082653 0-.6247959.208266-.8330612.208266-.4165306.41653-.8330613 1.041326-.8330613 1.457857 0 1.457857 1.4578572 2.499184 2.7074491 3.12398s2.9157144.833061 4.3735716 1.249591c.4165306 0 1.0413266.208266 1.4578572.208266 12.0793882 2.499184 22.4926539 11.454592 26.4496945 22.700919 4.165307 11.662858 1.457858 25.408368-7.0810203 33.947246-5.6231635 5.623164-6.4562248 15.411633-1.8743879 22.076123.8330613 1.041327.8330613 2.499184.2082653 3.748776-.6247959 1.457857-2.0826531 2.499184-3.5405103 2.707449.8330613.208265.624796.208265.2082653.208265z"/></g></svg>