<svg height="118" viewBox="0 0 202 118" width="202" xmlns="http://www.w3.org/2000/svg" xmlns:xlink="http://www.w3.org/1999/xlink"><defs><path id="a" d="m164.216152 1223.33309c-.53447 0-.962046-.21379-1.175834-.42758-.641364-.64136-.748258-1.60341-.213788-3.31371.213788-.96205.641364-1.7103.641364-1.8172l.748258-1.7103c.320682-.74826.641364-1.49652.962046-2.24477.106894-.21379.213788-.42758.320682-.74826.213788-.32068.641363-1.28273.855151-1.92409-1.710303-.32069-3.099925-1.8172-3.527501-4.16887v-.10689c-.213788-1.06894-.641364-2.56546-1.282727-3.20682-.106894 0-.213788 0-.427576 0-.320682.10689-.748258.10689-1.175834.10689-.748258-.10689-1.60341-.64136-1.817197-.74826-1.175834-.64136-2.030986-1.81719-2.458562-3.09992-.53447-1.49652-.53447-2.99303-.427576-4.16887 0-.21378 0-.32068 0-.42757-.53447-.1069-1.282727 0-2.030985.10689-.427576 0-.748258.1069-1.175834.1069l-5.024017.32068c-12.93417.74826-25.975235 1.49651-38.802511 2.03098h-.641364c-12.5065948.64137-25.3338714 1.17584-38.0542541 1.60341-3.634395.1069-5.9860624-1.06894-6.4136383-3.31371 0-.32068-.2137879-.53447-.4275759-.64136-.7482578-.42758-2.2447734-.53447-3.9550769-.21379-1.7103036.32068-4.061971.10689-5.4515926-1.06894-.7482578-.64137-1.0689397-1.49652-.9620457-2.45856 0-.1069 0-.21379-.213788-.42758-.4275759-.42757-1.3896216-.64136-2.1378794-.53447-.3206819 0-.5344699.1069-.8551518.1069-1.3896216.21378-3.0999252.53447-4.4895468-.53447-1.8171975-1.38963-1.4965156-4.06198-1.2827277-5.23781l2.3516674-17.85129c.3206819-2.56546.8551518-5.3447 2.9930312-6.94811 1.1758337-.96205 2.6723493-1.28273 4.0619709-1.60341.5344699-.10689.9620458-.21379 1.4965156-.32068 1.3896217-.42758 2.7792433-1.49652 2.6723493-2.67235-.2137879-2.13788 1.7103036-3.74129 3.741289-4.16887.6413639-.10689 1.2827277-.21378 1.9240915-.21378.8551518-.1069 1.7103036-.1069 2.4585614-.42758 1.1758337-.42758 2.0309855-1.60341 2.5654553-3.20682.106894-.32068.213788-.74826.213788-1.28273.2137879-1.38962.5344698-3.4206 2.6723493-3.95507 1.0689397-.21379 2.2447734-.21379 3.3137131-.1069h1.2827276l115.6592776-1.60341c1.282728 0 2.886137 0 4.275759.74826.855152.53447 1.603409 1.38962 1.817197 2.35167.213788.85515.106894 1.60341-.320682 2.35166 0 0-.106894.21379 0 .64137.213788.53447.962046.96204 1.60341 1.06894.748258.10689 1.496516 0 2.351667-.21379.748258-.10689 1.496516-.32068 2.244774-.32068 1.389621 0 2.779243.64136 3.527501 1.60341.641364.74826.855152 1.60341.641364 2.45856-.106894.32068 0 .74826.320682 1.06894.427575.64136 1.389621 1.06894 2.244773 1.28273.855152.10689 1.817197 0 2.779243-.1069.855152-.10689 1.710304-.21378 2.565456-.10689 2.351667.10689 4.917122 1.60341 5.024016 4.06197.213788 3.5275.427576 7.1619.641364 10.79629.213788 3.42061.427576 6.73432.641364 10.15493.106894 1.7103.213788 3.74129-.748258 5.55848-.641364 1.17584-1.710303 2.03099-2.993031 2.35167-.962046.21379-2.030986.1069-2.779243-.42757-.320682 0-.855152.96204-.855152 1.81719 0 1.71031.106894 4.27576-2.13788 5.02402-.855151.21379-1.710303.10689-2.458561 0-.320682 0-.748258-.10689-.962046-.10689-.427576 3.63439-4.382653 5.77227-10.475609 5.77227-2.672349 0-5.451592.1069-8.123942.1069-2.672349 0-5.451592 0-8.123942.10689-1.389621 0-3.420607.42757-3.420607 1.49651-.427576 9.19289-5.558486 17.8513-13.254852 22.76842l-.320682.10689c.213788 0 0 .1069-.213788.1069z"/><filter id="b" height="144.7%" width="120.8%" x="-10.4%" y="-23.6%"><feOffset dx="0" dy="-1" in="SourceAlpha" result="shadowOffsetOuter1"/><feGaussianBlur in="shadowOffsetOuter1" result="shadowBlurOuter1" stdDeviation="6"/><feColorMatrix in="shadowBlurOuter1" type="matrix" values="0 0 0 0 0   0 0 0 0 0   0 0 0 0 0  0 0 0 0.132246377 0"/></filter></defs><g fill="none" fill-rule="evenodd" transform="matrix(-.98480775 .17364818 .17364818 .98480775 27.030375 -1124.989511)"><use fill="#000" filter="url(#b)" xlink:href="#a"/><use fill="#fff" fill-rule="evenodd" xlink:href="#a"/></g></svg>