<svg height="192.13" viewBox="0 0 480.192 192.13" width="480.192" xmlns="http://www.w3.org/2000/svg"><path d="m1271.48 1274.09s37.93-3.64 48.16-23.99c10.89-21.66.48-28.5.48-28.5s5.6-15.99 4.23-40.11c-1.38-24.45-26.91-31.38-26.91-31.38s-10.32-20.26-30.53-31.3c-10.09-5.51-47.08-17.26-93.29-15.55-41.85 1.55-35.22 8.43-50.88 8.07-23.69-.54-46.48-6.59-65.59-6.2-29.01.6-49.27 7.23-49.27 7.23.05-.18-45.814-17.74-96.884 5.16-40.57 18.19-42.177 52.93-42.177 52.93s-21.8 19.36-16.72 46.9c1.814 9.83 6.4 17.09 10 23.55 7.792 13.99-23.469 20.93-16.671 24.11 13.91 6.51 37.1-6.84 37.1-6.84s5.45 19.31 32.507 27.35c25.45 7.56 71.39 9.68 71.39 9.68s8.5-.21 8.575-.2c1.218.22 8 0 8 0s7.85.26 10 0c.63-.08 7.82-.35 7.82-.35s25.28-1.29 53.77-1.3c20.76-.01 40.92-7.88 65.52-8.94 16.35-.71 32.23 6.39 46.73 6.17 28.7-.43 47.28-1.79 52.41-2.93 17.61-3.91 32.23-13.56 32.23-13.56z" fill="#fff" fill-rule="evenodd" transform="translate(-844.438 -1103.06)"/></svg>