<svg height="50.5" viewBox="0 0 29.844 50.5" width="29.844" xmlns="http://www.w3.org/2000/svg"><g fill-rule="evenodd" transform="translate(-31.094 -1266.75)"><path d="m32.44 1288.96a4.2 4.2 0 0 1 5.912-.29l21.469 21.3a4.38 4.38 0 0 1 -6.142 6.2s-5.627-5.57-11.517-11.42c-4.711-4.67-9.951-9.88-9.951-9.88a4.188 4.188 0 0 1 .229-5.91z" fill="#fff"/><path d="m32.44 1295.04a4.2 4.2 0 0 0 5.912.29s5.425-6.39 10.821-11.74c5.338-5.3 10.648-9.56 10.648-9.56a4.38 4.38 0 0 0 -6.142-6.2s-8.613 7.55-14.772 13.66a68.089 68.089 0 0 0 -6.7 7.64 4.188 4.188 0 0 0 .233 5.91z" fill="#fff"/><g fill="#eb2929"><path d="m57.459 1314.34a2.125 2.125 0 0 1 -3.005.01 38.586 38.586 0 0 1 -4.605-4.26c-1.553-1.71-2.6-3.73-4.541-5.66-5.474-5.42-11.376-10.43-11.376-10.43a2.122 2.122 0 1 1 2.992-3.01 47.882 47.882 0 0 1 6.16 5.25c3.072 3.05 6.73 6.9 9.586 9.95 2.764 2.94 4.776 5.14 4.776 5.14a2.131 2.131 0 0 1 .013 3.01z"/><path d="m57.459 1269.66a2.125 2.125 0 0 0 -3.005-.01 38.586 38.586 0 0 0 -4.605 4.26c-1.553 1.71-2.6 3.73-4.541 5.66-5.474 5.42-11.376 10.43-11.376 10.43a2.122 2.122 0 1 0 2.992 3.01 47.882 47.882 0 0 0 6.16-5.25c3.072-3.05 6.73-6.9 9.586-9.95 2.764-2.94 4.776-5.14 4.776-5.14a2.131 2.131 0 0 0 .013-3.01z"/></g></g></svg>