<svg height="279" preserveAspectRatio="xMidYMid" viewBox="0 0 328.969 279" width="328.969" xmlns="http://www.w3.org/2000/svg"><path d="m317.413 129.322s5.328 5.883.225 25.818c-4.792 18.721-17.669 31.86-17.669 31.86s-15.157 12.657-23.916 16.724c-3.577 1.661-5.259 2.367-6.023 2.635-.233-.069-.368-.086-.368-.086s-.67.45.368.086c1.536.455 7.451 3.266 8.764 19.695 2.613 32.692-47.688 52.946-47.688 52.946s29.89-13.991 27.863-42c-1.619-22.365-19.996-22.461-19.996-22.461s-14.64 16.167-37.315 16.046c-11.353-.061-24.851-7.478-39.545-9.929-7.018-1.172-18.553 7.914-26.029 8.098-9.265.227-14.57-8.254-24.234-8.098-12.066.193.083 4.779-22.439 6-10.891.59-13.34-4.733-23.336-5.4-20.199-1.346-14.74.377-28.697-10.951-17.466-14.174-8.947-23.006-11.668-24.295-13.689-6.479-8.078-13.497-8.078-13.497s-15.458-20.876-17.293-48.462c-1.725-25.936 3.418-48.439 3.177-48.221 0 0 .236-31.499 20.267-49.171 25.214-22.245 16.555-7.707 16.533-7.538 0 0 5.953-7.177 30.05-10.811 9.909-1.495 9.922-4.902 22.66-7.212 22.346-4.053 12.044 13.096 26.029 6.749 15.15-6.877 21.59-2.756 37.697 1.349 12.919 3.293 33.078-9.077 44.697-9.196 27.465-.284 27.137 14.78 40.57 7.847 21.22-10.953 41.469 19.78 52.058 29.694 10.231 9.579 15.811 27.426 15.811 27.426s17.915 5.222 19.009 27.321c1.079 21.799-11.484 37.034-11.484 37.034zm-37.981-98.752c-6.889-6.176-15.463-7.07-15.463-7.07 0-.829-.672-1.5-1.5-1.5-.829 0-1.5.671-1.5 1.5 0 0 10.605 3.818 18.026 10.471 7.07 6.339 10.974 15.529 10.974 15.529 0 .828.671 1.5 1.5 1.5.828 0 1.5-.672 1.5-1.5 0 0-5.959-12.136-13.537-18.93z" fill="#fff" fill-rule="evenodd"/></svg>