<svg height="143" preserveAspectRatio="xMidYMid" viewBox="0 0 338 143" width="338" xmlns="http://www.w3.org/2000/svg" xmlns:xlink="http://www.w3.org/1999/xlink"><filter id="a" filterUnits="userSpaceOnUse"><feOffset dx=".523" dy="9.986" in="SourceAlpha"/><feGaussianBlur result="dropBlur" stdDeviation="6.164"/><feFlood flood-color="#aa393e" flood-opacity=".53"/><feComposite in2="dropBlur" operator="in" result="dropShadowComp"/><feComposite in="SourceGraphic" result="shadowed"/></filter><path d="m63.031 39.953s12.007-2 30.333-2c17.055 0 39.584 2.167 63 2.404 13.441.136 29.175-1.813 42.334-1.815 43.274-.008 94.333.411 94.333.411 2.761 0 5 2.238 5 5 0 0 2 7.345 2 16.666 0 16.187-2 38.334-2 38.334 0 2.761-2.239 5-5 5 0 0-31.885 0-55 0-11.004 0-23.647 1.032-36.995 1.084-17.056.067-35.263-1.91-52.672-1.911-15.395-.001-30.166 1.209-42.964 1.486-6.191.135-7.921.281-13.036.281-7.819 0-8.826.048-11.004.063-2.166.014-4.837.028-9.997.028-7.779 0-8.332-.031-8.332-.031-2.762 0-5-7.239-5-10 0 0-7.545-8.206-20-8-1.289.021 18.685-9.19 18.518-12.287-.296-5.479-.518-6.369-.518-11.713 0-9.945 2-18 2-18 0-2.762 2.238-5 5-5z" fill="#e81a22" fill-rule="evenodd" filter="url(#a)"/></svg>