<svg height="3" preserveAspectRatio="xMidYMid" viewBox="0 0 381 3" width="381" xmlns="http://www.w3.org/2000/svg"><path d="m379.5 3h-2c-.828 0-1.5-.672-1.5-1.5s.672-1.5 1.5-1.5h2c.828 0 1.5.672 1.5 1.5s-.672 1.5-1.5 1.5zm-10 0c-.828 0-1.5-.672-1.5-1.5s.672-1.5 1.5-1.5h2c.828 0 1.5.672 1.5 1.5s-.672 1.5-1.5 1.5zm-8 0c-.828 0-1.5-.672-1.5-1.5s.672-1.5 1.5-1.5h2c.828 0 1.5.672 1.5 1.5s-.672 1.5-1.5 1.5zm-8 0c-.828 0-1.5-.672-1.5-1.5s.672-1.5 1.5-1.5h2c.828 0 1.5.672 1.5 1.5s-.672 1.5-1.5 1.5zm-8 0c-.828 0-1.5-.672-1.5-1.5s.672-1.5 1.5-1.5h2c.828 0 1.5.672 1.5 1.5s-.672 1.5-1.5 1.5zm-8 0c-.828 0-1.5-.672-1.5-1.5s.672-1.5 1.5-1.5h2c.828 0 1.5.672 1.5 1.5s-.672 1.5-1.5 1.5zm-8 0c-.828 0-1.5-.672-1.5-1.5s.672-1.5 1.5-1.5h2c.828 0 1.5.672 1.5 1.5s-.672 1.5-1.5 1.5zm-8 0c-.828 0-1.5-.672-1.5-1.5s.672-1.5 1.5-1.5h2c.828 0 1.5.672 1.5 1.5s-.672 1.5-1.5 1.5zm-8 0c-.828 0-1.5-.672-1.5-1.5s.672-1.5 1.5-1.5h2c.828 0 1.5.672 1.5 1.5s-.672 1.5-1.5 1.5zm-8 0c-.828 0-1.5-.672-1.5-1.5s.672-1.5 1.5-1.5h2c.828 0 1.5.672 1.5 1.5s-.672 1.5-1.5 1.5zm-8 0c-.828 0-1.5-.672-1.5-1.5s.672-1.5 1.5-1.5h2c.828 0 1.5.672 1.5 1.5s-.672 1.5-1.5 1.5zm-8 0c-.828 0-1.5-.672-1.5-1.5s.672-1.5 1.5-1.5h2c.828 0 1.5.672 1.5 1.5s-.672 1.5-1.5 1.5zm-8 0c-.828 0-1.5-.672-1.5-1.5s.672-1.5 1.5-1.5h2c.828 0 1.5.672 1.5 1.5s-.672 1.5-1.5 1.5zm-8 0c-.828 0-1.5-.672-1.5-1.5s.672-1.5 1.5-1.5h2c.828 0 1.5.672 1.5 1.5s-.672 1.5-1.5 1.5zm-8 0c-.828 0-1.5-.672-1.5-1.5s.672-1.5 1.5-1.5h2c.828 0 1.5.672 1.5 1.5s-.672 1.5-1.5 1.5zm-8 0c-.828 0-1.5-.672-1.5-1.5s.672-1.5 1.5-1.5h2c.828 0 1.5.672 1.5 1.5s-.672 1.5-1.5 1.5zm-8 0c-.828 0-1.5-.672-1.5-1.5s.672-1.5 1.5-1.5h2c.828 0 1.5.672 1.5 1.5s-.672 1.5-1.5 1.5zm-8 0c-.828 0-1.5-.672-1.5-1.5s.672-1.5 1.5-1.5h2c.828 0 1.5.672 1.5 1.5s-.672 1.5-1.5 1.5zm-8 0c-.828 0-1.5-.672-1.5-1.5s.672-1.5 1.5-1.5h2c.828 0 1.5.672 1.5 1.5s-.672 1.5-1.5 1.5zm-8 0c-.828 0-1.5-.672-1.5-1.5s.672-1.5 1.5-1.5h2c.828 0 1.5.672 1.5 1.5s-.672 1.5-1.5 1.5zm-8 0c-.828 0-1.5-.672-1.5-1.5s.672-1.5 1.5-1.5h2c.828 0 1.5.672 1.5 1.5s-.672 1.5-1.5 1.5zm-8 0c-.828 0-1.5-.672-1.5-1.5s.672-1.5 1.5-1.5h2c.828 0 1.5.672 1.5 1.5s-.672 1.5-1.5 1.5zm-8 0c-.828 0-1.5-.672-1.5-1.5s.672-1.5 1.5-1.5h2c.828 0 1.5.672 1.5 1.5s-.672 1.5-1.5 1.5zm-8 0c-.828 0-1.5-.672-1.5-1.5s.672-1.5 1.5-1.5h2c.828 0 1.5.672 1.5 1.5s-.672 1.5-1.5 1.5zm-8 0c-.828 0-1.5-.672-1.5-1.5s.672-1.5 1.5-1.5h2c.828 0 1.5.672 1.5 1.5s-.672 1.5-1.5 1.5zm-8 0c-.828 0-1.5-.672-1.5-1.5s.672-1.5 1.5-1.5h2c.828 0 1.5.672 1.5 1.5s-.672 1.5-1.5 1.5zm-8 0c-.828 0-1.5-.672-1.5-1.5s.672-1.5 1.5-1.5h2c.828 0 1.5.672 1.5 1.5s-.672 1.5-1.5 1.5zm-8 0c-.828 0-1.5-.672-1.5-1.5s.672-1.5 1.5-1.5h2c.828 0 1.5.672 1.5 1.5s-.672 1.5-1.5 1.5zm-8 0c-.828 0-1.5-.672-1.5-1.5s.672-1.5 1.5-1.5h2c.828 0 1.5.672 1.5 1.5s-.672 1.5-1.5 1.5zm-8 0c-.828 0-1.5-.672-1.5-1.5s.672-1.5 1.5-1.5h2c.828 0 1.5.672 1.5 1.5s-.672 1.5-1.5 1.5zm-8 0c-.828 0-1.5-.672-1.5-1.5s.672-1.5 1.5-1.5h2c.828 0 1.5.672 1.5 1.5s-.672 1.5-1.5 1.5zm-8 0c-.828 0-1.5-.672-1.5-1.5s.672-1.5 1.5-1.5h2c.828 0 1.5.672 1.5 1.5s-.672 1.5-1.5 1.5zm-8 0c-.828 0-1.5-.672-1.5-1.5s.672-1.5 1.5-1.5h2c.828 0 1.5.672 1.5 1.5s-.672 1.5-1.5 1.5zm-8 0c-.828 0-1.5-.672-1.5-1.5s.672-1.5 1.5-1.5h2c.828 0 1.5.672 1.5 1.5s-.672 1.5-1.5 1.5zm-8 0c-.828 0-1.5-.672-1.5-1.5s.672-1.5 1.5-1.5h2c.828 0 1.5.672 1.5 1.5s-.672 1.5-1.5 1.5zm-8 0c-.828 0-1.5-.672-1.5-1.5s.672-1.5 1.5-1.5h2c.828 0 1.5.672 1.5 1.5s-.672 1.5-1.5 1.5zm-8 0c-.828 0-1.5-.672-1.5-1.5s.672-1.5 1.5-1.5h2c.828 0 1.5.672 1.5 1.5s-.672 1.5-1.5 1.5zm-8 0c-.828 0-1.5-.672-1.5-1.5s.672-1.5 1.5-1.5h2c.828 0 1.5.672 1.5 1.5s-.672 1.5-1.5 1.5zm-8 0c-.828 0-1.5-.672-1.5-1.5s.672-1.5 1.5-1.5h2c.828 0 1.5.672 1.5 1.5s-.672 1.5-1.5 1.5zm-8 0c-.828 0-1.5-.672-1.5-1.5s.672-1.5 1.5-1.5h2c.828 0 1.5.672 1.5 1.5s-.672 1.5-1.5 1.5zm-8 0c-.828 0-1.5-.672-1.5-1.5s.672-1.5 1.5-1.5h2c.828 0 1.5.672 1.5 1.5s-.672 1.5-1.5 1.5zm-8 0c-.828 0-1.5-.672-1.5-1.5s.672-1.5 1.5-1.5h2c.828 0 1.5.672 1.5 1.5s-.672 1.5-1.5 1.5zm-8 0c-.828 0-1.5-.672-1.5-1.5s.672-1.5 1.5-1.5h2c.828 0 1.5.672 1.5 1.5s-.672 1.5-1.5 1.5zm-8 0c-.828 0-1.5-.672-1.5-1.5s.672-1.5 1.5-1.5h2c.828 0 1.5.672 1.5 1.5s-.672 1.5-1.5 1.5zm-8 0c-.828 0-1.5-.672-1.5-1.5s.672-1.5 1.5-1.5h2c.828 0 1.5.672 1.5 1.5s-.672 1.5-1.5 1.5zm-8 0c-.828 0-1.5-.672-1.5-1.5s.672-1.5 1.5-1.5h2c.828 0 1.5.672 1.5 1.5s-.672 1.5-1.5 1.5zm-8 0c-.828 0-1.5-.672-1.5-1.5s.672-1.5 1.5-1.5h2c.828 0 1.5.672 1.5 1.5s-.672 1.5-1.5 1.5zm-8 0c-.828 0-1.5-.672-1.5-1.5s.672-1.5 1.5-1.5h2c.828 0 1.5.672 1.5 1.5s-.672 1.5-1.5 1.5z" fill="#e81a22" fill-rule="evenodd"/></svg>