<svg height="164" preserveAspectRatio="xMidYMid" viewBox="0 0 319 164" width="319" xmlns="http://www.w3.org/2000/svg" xmlns:xlink="http://www.w3.org/1999/xlink"><filter id="a" filterUnits="userSpaceOnUse"><feOffset dx=".523" dy="9.986" in="SourceAlpha"/><feGaussianBlur result="dropBlur" stdDeviation="6.164"/><feFlood flood-color="#aa393e" flood-opacity=".53"/><feComposite in2="dropBlur" operator="in" result="dropShadowComp"/><feComposite in="SourceGraphic" result="shadowed"/></filter><path d="m44.5 102.505s12.007 1.997 30.333 1.997c17.055 0 39.582 1.599 62.999 1.599 12.417 0 22.625 20.399 21.668 20.399-.425 0 7.449-18.586 20.667-18.586 43.274 0 94.333-4.41 94.333-4.41 2.761 0 5-2.236 5-4.993 0 0 2-7.335 2-16.645 0-16.164-2-38.28-2-38.28 0-2.758-2.239-4.993-5-4.993 0 0-31.885-.001-55-.001-11.004 0-23.647-1.03-36.995-1.082-17.056-.067-35.263 1.907-52.672 1.908-15.395.002-30.166-1.207-42.964-1.484-6.191-.135-7.921-.28-13.036-.28-7.819 0-8.826-.048-11.004-.063-2.166-.015-4.837-.029-9.997-.029-7.779 0-8.332.032-8.332.032-2.762 0-5 7.228-5 9.986 0 0 .794 9.989 0 9.989-.711 0-1.315 7.178-1.482 10.27-.296 5.472-.518 6.36-.518 11.697 0 9.932 2 17.976 2 17.976 0 2.757 2.238 4.993 5 4.993z" fill="#e81a22" fill-rule="evenodd" filter="url(#a)"/></svg>