<?xml version="1.0" encoding="UTF-8"?>
<svg xmlns="http://www.w3.org/2000/svg" xmlns:xlink="http://www.w3.org/1999/xlink" version="1.2" >
<font id="Out of Line BB">
<font-face  font-family="Out of Line BB" units-per-em="1000" ascent="713" descent="-287" font-style="normal" font-weight="400" font-stretch="normal" cap-height="582" x-height="595" underline-position="-75" underline-thickness="50" />
<missing-glyph  horiz-adv-x="578" d="M72 -22 L505 -22 L505 580 L72 580 L72 -22 Z M180 535 L397 535 L397 21 L180 21 L180 535 Z " />
<glyph glyph-name="NULL" d="" />
<glyph glyph-name="CR" unicode="&#xd;" horiz-adv-x="250" d="" />
<glyph glyph-name="space" unicode="&#x20;" horiz-adv-x="311" d="" />
<glyph glyph-name="exclam" unicode="&#x21;" horiz-adv-x="323" d="M117 2 C105 1 88 -4 75 1 C59 6 40 11 38 29 C41 58 98 91 125 91 C139 91 154 89 167 88 C179 88 194 88 206 81 C222 75 227 63 227 50 C227 14 136 3 117 2 L117 2 Z M275 557 C260 575 252 587 241 587 C233 587 225 584 216 579 C164 550 167 487 146 434 C127 389 127 389 109 343 C98 318 75 207 94 190 C120 168 123 151 141 167 C156 182 178 234 188 252 C202 276 217 321 228 347 C253 408 266 423 287 487 C297 516 299 525 275 557 L275 557 Z " />
<glyph glyph-name="quotedbl" unicode="&#x22;" horiz-adv-x="399" d="M162 574 C167 566 170 556 170 546 C170 529 166 512 165 497 C162 456 158 415 154 375 C150 347 128 306 96 318 C81 323 64 353 59 367 C58 376 59 391 58 399 C58 413 56 425 56 438 C55 459 54 478 54 496 C54 516 55 535 59 556 C62 565 62 578 64 587 C70 602 87 605 98 610 C106 614 117 619 127 618 C139 617 155 589 162 574 L162 574 Z M325 614 C314 633 308 630 291 629 C282 629 274 628 264 627 C253 625 243 622 236 614 C229 604 230 589 229 574 C229 555 228 535 227 516 C225 493 225 472 223 449 C223 429 225 413 230 392 C235 379 242 359 251 349 C265 332 282 342 293 347 C307 354 321 361 327 377 C329 385 338 457 339 465 C342 489 344 513 344 539 C344 547 343 556 343 564 C343 585 335 594 325 614 L325 614 Z " />
<glyph glyph-name="numbersign" unicode="&#x23;" horiz-adv-x="640" d="M549 362 C569 363 587 362 598 377 C607 392 610 399 596 414 C569 441 513 437 477 440 C479 455 480 470 479 486 C476 513 463 558 425 561 C388 563 389 528 383 504 C378 481 376 452 372 428 C339 426 302 423 272 420 C268 451 280 494 238 507 C188 523 177 462 176 409 C168 409 159 409 150 409 C137 409 125 410 112 410 C100 410 88 409 78 404 C59 394 48 384 58 360 C61 352 66 347 75 341 C98 325 141 331 175 333 C174 314 172 250 170 231 C135 231 100 233 66 235 C43 236 27 221 35 201 C40 192 44 183 51 174 C64 163 147 151 166 151 C166 138 165 127 165 117 C165 78 170 28 205 28 C212 28 222 30 233 36 C257 49 257 56 255 84 C255 107 257 128 258 150 C265 150 275 150 283 150 C306 151 352 150 376 150 C377 125 371 90 383 64 C393 42 402 44 416 44 C428 44 441 50 451 58 C476 79 478 119 476 160 C494 162 511 166 528 171 C544 176 569 181 578 194 C582 201 586 211 586 219 C586 230 586 229 573 236 C553 245 546 240 524 243 C510 245 489 243 467 241 C467 265 467 334 469 356 C494 359 519 360 549 362 L549 362 Z M371 233 C365 233 357 233 350 232 C339 231 303 230 292 230 C284 230 276 231 268 231 C269 251 272 319 273 340 C296 342 360 341 374 347 C371 335 371 276 371 263 C371 253 371 243 371 233 L371 233 Z " />
<glyph glyph-name="dollar" unicode="&#x24;" horiz-adv-x="515" d="M436 453 C429 489 374 512 347 530 C348 542 349 555 349 567 C349 579 348 589 346 600 C345 610 345 619 336 627 C327 634 315 641 305 646 C282 657 270 651 258 636 C246 624 251 601 247 584 C245 570 245 557 243 542 C208 540 175 529 150 510 C117 483 97 457 82 415 C76 397 68 375 72 353 C75 335 88 319 100 302 C123 269 163 241 201 240 C210 239 218 239 228 239 C258 239 287 242 316 244 C331 245 371 251 387 247 C381 189 286 151 224 151 C201 151 178 155 161 160 C138 166 123 177 104 194 C95 200 82 213 73 217 C64 223 57 219 49 216 C36 211 31 199 31 184 C31 162 43 150 58 132 C93 92 111 87 166 70 C183 65 189 66 202 65 C202 57 202 49 201 41 C200 30 199 20 199 10 C198 -5 207 -31 224 -42 C236 -49 246 -52 256 -52 C265 -52 274 -49 282 -45 C292 -41 297 -38 300 -31 C305 -17 306 0 307 15 C308 29 308 43 308 66 C313 68 319 69 324 70 C347 77 369 85 390 94 C414 104 437 117 449 138 C462 162 473 193 473 224 C473 234 472 245 469 255 C462 288 414 319 381 332 C368 337 354 339 339 339 C314 339 291 334 268 330 C252 329 235 328 218 328 C204 328 189 329 174 330 C166 374 222 428 251 449 C263 458 285 472 303 466 C322 458 345 446 364 435 C380 425 392 406 410 406 C419 406 427 404 433 413 C439 422 438 440 436 453 L436 453 Z " />
<glyph glyph-name="percent" unicode="&#x25;" horiz-adv-x="595" d="M555 520 C540 541 512 573 487 569 C463 567 442 544 418 537 C398 532 377 529 354 529 C345 529 336 530 326 531 C286 536 265 565 234 585 C220 594 210 605 195 608 C176 614 157 605 140 602 C105 597 88 575 72 544 C59 517 47 483 40 453 C38 444 37 434 37 425 C37 402 44 378 66 358 C77 347 98 328 110 322 C123 316 140 318 152 318 C218 313 263 336 300 383 C312 398 328 438 336 459 C354 459 399 468 416 465 C373 420 309 327 270 278 C250 252 228 231 211 204 C194 177 173 154 154 132 C139 114 128 93 116 73 C109 57 105 46 105 35 C105 23 100 11 109 -8 C116 -20 122 -21 137 -21 C151 -21 166 -16 178 -4 C210 28 241 62 269 98 C263 81 269 58 269 41 C269 22 272 2 280 -19 C290 -43 297 -45 320 -53 C336 -58 351 -63 367 -65 C439 -66 504 -8 542 39 C551 49 554 63 554 77 C554 89 551 103 548 117 C544 137 534 155 516 170 C503 181 483 184 469 189 C448 197 418 211 395 214 C375 216 336 191 321 181 C376 237 416 302 467 360 C492 390 520 416 541 449 C548 459 561 472 564 483 C568 495 564 506 555 520 L555 520 Z M142 421 C135 431 146 480 179 514 C192 504 223 472 240 466 C225 423 176 423 142 421 L142 421 Z M462 105 C463 86 427 53 409 43 C391 36 375 21 351 31 C355 43 363 62 368 68 C371 77 378 81 384 88 C406 110 434 121 462 105 L462 105 Z " />
<glyph glyph-name="ampersand" unicode="&#x26;" horiz-adv-x="684" d="M661 225 C661 240 666 234 651 249 C638 261 626 270 608 273 C597 274 586 274 575 274 C540 274 507 268 476 260 C459 256 444 251 425 250 C413 249 391 247 386 236 C375 216 383 207 405 183 C410 179 439 169 439 164 C439 77 419 83 352 52 C333 43 309 44 286 44 C268 44 248 47 229 49 C204 55 183 66 159 76 C138 133 174 245 228 262 C260 274 304 281 343 285 C378 290 393 308 382 341 C379 353 346 361 332 365 C312 373 264 367 244 381 C226 394 200 409 185 424 C208 477 317 509 383 491 C428 448 435 429 461 431 C473 433 491 434 497 444 C504 456 506 472 497 487 C484 511 461 527 438 544 C412 563 378 571 344 580 C337 580 328 581 320 581 C305 581 291 580 278 579 C229 574 177 560 132 532 C116 522 105 507 96 491 C91 481 88 469 88 457 C88 439 93 421 105 403 C118 380 140 365 157 346 C136 338 114 322 98 308 C65 278 42 234 38 188 C36 166 42 139 49 116 C59 80 87 41 119 16 C139 2 161 -12 182 -19 C218 -32 257 -36 292 -41 C310 -44 326 -45 343 -45 C355 -45 369 -44 384 -41 C473 -25 555 19 551 109 C554 127 556 166 559 182 C569 185 577 187 585 189 C603 193 623 195 641 200 C655 206 661 208 661 225 L661 225 Z " />
<glyph glyph-name="quotesingle" unicode="&#x27;" horiz-adv-x="233" d="M161 614 C150 633 144 630 128 629 C119 629 110 628 101 627 C90 625 80 622 73 614 C65 604 67 589 66 574 C65 555 64 535 63 516 C62 493 62 472 60 449 C59 429 62 413 67 392 C72 379 79 359 88 349 C102 332 119 342 130 347 C143 354 158 361 164 377 C165 385 175 457 176 465 C179 489 181 513 181 539 C181 547 180 556 180 564 C180 585 171 594 161 614 L161 614 Z " />
<glyph glyph-name="parenleft" unicode="&#x28;" horiz-adv-x="361" d="M130 557 C108 529 93 506 80 474 C54 415 37 347 36 275 C35 211 45 143 77 75 C103 25 140 -7 188 -36 C216 -54 229 -61 255 -51 C287 -39 285 -10 263 7 C256 15 227 23 217 30 C195 48 153 103 143 128 C107 217 151 409 207 481 C236 520 254 544 295 570 C303 575 320 580 324 590 C327 599 343 619 334 628 C320 643 275 651 258 648 C204 633 162 596 130 557 L130 557 Z " />
<glyph glyph-name="parenright" unicode="&#x29;" horiz-adv-x="394" d="M331 404 C319 447 298 486 285 527 C275 560 244 596 218 618 C202 633 183 655 162 653 C123 650 124 627 131 592 C137 558 190 557 215 507 C242 438 252 361 253 291 C253 258 240 211 232 183 C224 158 215 130 197 113 C183 98 169 80 152 70 C134 59 115 47 96 39 C88 36 52 27 47 24 C36 14 31 -15 35 -32 C41 -52 48 -50 64 -61 C72 -66 81 -68 89 -68 C103 -68 116 -63 128 -61 C158 -53 178 -39 204 -24 C236 -5 267 16 290 47 C313 78 323 120 336 157 C347 188 353 229 349 267 C344 313 344 357 331 404 L331 404 Z " />
<glyph glyph-name="asterisk" unicode="&#x2a;" horiz-adv-x="505" d="M386 417 C409 421 443 417 458 434 C466 442 460 460 455 472 C448 489 424 497 403 500 C393 501 386 497 378 495 C356 490 333 486 311 481 C315 510 312 551 317 581 C317 589 320 595 317 602 C309 615 279 639 262 639 C245 637 227 613 224 595 C221 566 216 537 211 508 C198 520 184 532 172 545 C149 566 86 607 74 578 C70 573 69 565 69 559 C69 551 75 542 81 533 C91 515 113 495 130 479 C136 473 160 456 167 450 C149 449 72 430 60 419 C56 415 50 403 51 397 C52 390 49 387 54 381 C79 355 160 370 196 381 C194 364 191 325 191 302 C191 290 193 279 200 267 C205 260 208 253 216 250 C225 247 233 251 240 251 C250 252 258 253 266 255 C273 256 273 258 276 263 C288 282 293 308 297 335 C301 331 304 329 307 326 C326 311 346 295 365 281 C381 269 390 275 399 284 C404 289 407 294 410 301 C414 308 410 313 406 324 C396 343 385 359 367 376 C357 385 345 401 335 410 C351 413 369 415 386 417 L386 417 Z " />
<glyph glyph-name="plus" unicode="&#x2b;" horiz-adv-x="475" d="M438 284 C441 302 445 314 423 325 C404 333 380 333 360 336 C348 338 336 339 325 339 C314 339 297 338 286 337 C286 344 286 365 286 374 C285 393 287 421 268 442 C254 455 232 478 213 483 C194 488 188 463 185 452 C180 442 183 427 183 415 C183 398 184 381 184 363 C184 354 184 332 183 323 C161 322 132 319 110 314 C83 308 58 318 43 295 C35 282 41 263 50 250 C57 240 63 242 72 240 C94 236 108 235 132 240 C146 242 167 243 183 245 C183 225 185 195 188 176 C191 159 191 138 214 123 C222 117 234 104 244 104 C262 100 278 115 282 127 C285 137 283 150 282 161 C282 186 283 219 283 251 C323 252 381 253 412 262 C429 267 437 264 438 284 L438 284 Z " />
<glyph glyph-name="comma" unicode="&#x2c;" horiz-adv-x="243" d="M44 10 C31 -9 28 -22 46 -38 C61 -50 95 -56 108 -52 C123 -48 140 -31 148 -19 C176 16 185 54 202 96 C207 107 218 125 215 138 C213 145 210 157 201 163 C192 171 162 190 153 190 C140 189 110 172 105 159 C66 54 63 39 44 10 L44 10 Z " />
<glyph glyph-name="hyphen" unicode="&#x2d;" horiz-adv-x="384" d="M182 304 C158 300 56 298 44 268 C41 261 42 255 43 245 C45 236 47 235 53 228 C65 205 95 213 117 216 C152 223 188 227 224 228 C240 228 353 224 354 257 C355 274 353 285 336 295 C320 304 311 302 296 305 C286 307 277 308 268 308 C240 308 207 308 182 304 L182 304 Z " />
<glyph glyph-name="period" unicode="&#x2e;" horiz-adv-x="263" d="M218 85 C207 100 158 91 137 91 C119 91 102 88 93 83 C79 76 74 60 65 50 C57 39 52 35 61 22 C67 14 77 1 86 -2 C102 -8 128 -1 142 1 C154 2 191 16 199 21 C215 32 228 44 228 60 C228 67 225 76 218 85 L218 85 Z " />
<glyph glyph-name="slash" unicode="&#x2f;" horiz-adv-x="501" d="M267 437 C229 386 197 331 163 278 C146 254 127 233 113 206 C101 184 88 161 74 141 C57 114 27 86 24 50 C21 34 27 -10 47 -24 C58 -32 79 -29 91 -17 C102 -5 107 12 116 25 C131 46 146 64 161 83 C200 132 235 183 262 240 C286 292 315 336 351 380 C385 421 408 472 443 512 C459 531 481 566 475 580 C467 596 465 602 450 608 C439 613 429 614 421 614 C385 614 368 585 351 561 C321 520 297 477 267 437 L267 437 Z " />
<glyph glyph-name="zero" unicode="0" horiz-adv-x="597" d="M528 438 C511 460 484 476 463 494 C438 517 354 537 320 545 C310 546 301 547 291 547 C244 547 202 526 170 501 C122 465 98 415 67 367 C42 328 30 287 31 238 C32 199 41 147 63 108 C83 70 142 50 179 34 C203 23 227 19 252 19 C345 19 441 85 487 134 C511 159 540 189 554 220 C565 245 569 262 569 291 C568 337 560 394 528 438 L528 438 Z M470 311 C467 292 462 273 452 257 C443 240 428 227 416 211 C394 180 354 146 317 130 C300 121 280 115 261 109 C253 108 244 107 235 107 C214 107 145 123 145 123 C120 160 110 218 131 262 C138 278 144 296 153 310 C167 333 187 353 204 375 C229 405 283 442 331 444 C353 445 373 441 394 433 C411 428 475 393 475 393 C473 364 473 337 470 311 L470 311 Z " />
<glyph glyph-name="one" unicode="1" horiz-adv-x="304" d="M246 301 C250 341 261 375 266 415 C269 443 274 464 273 493 C272 523 270 544 239 550 C204 557 195 562 174 545 C150 525 103 491 76 473 C65 466 35 454 31 445 C20 421 10 417 38 403 C48 398 56 397 65 397 C95 397 123 415 150 415 C148 396 144 319 143 298 C140 282 135 267 134 251 C132 226 130 201 130 177 C130 166 130 156 131 146 C134 104 136 3 190 3 C198 3 207 5 217 10 C235 19 240 36 240 55 C240 64 239 72 238 81 C236 103 236 123 236 145 C236 197 241 250 246 301 L246 301 Z " />
<glyph glyph-name="two" unicode="2" horiz-adv-x="525" d="M198 546 C156 535 29 483 57 423 C62 411 60 406 67 396 C84 374 143 404 152 414 C163 427 176 431 189 443 C218 466 273 466 319 466 C334 466 375 459 390 457 C382 446 372 430 361 421 C320 387 282 356 240 326 C190 292 154 258 115 214 C99 195 82 176 69 153 C59 137 45 118 41 98 C37 82 41 68 52 51 C63 35 79 7 100 6 C109 5 118 7 127 7 C139 7 152 7 165 7 C197 7 229 -2 262 0 C320 0 321 13 375 22 C394 25 412 29 432 31 C450 34 474 35 484 48 C507 78 496 92 465 104 C441 114 419 116 397 116 C361 116 327 106 297 97 C271 89 256 86 240 86 C224 86 200 90 173 92 C197 121 227 172 257 200 C303 245 335 274 392 307 C414 320 433 336 451 356 C465 371 481 389 485 411 C490 443 443 506 413 532 C397 546 374 550 358 553 C334 557 310 563 288 563 C256 565 225 555 198 546 L198 546 Z " />
<glyph glyph-name="three" unicode="3" horiz-adv-x="549" d="M161 559 C113 549 11 508 39 462 C54 438 73 430 93 430 C121 430 150 460 167 461 C200 473 235 479 265 479 C294 479 344 467 371 463 C356 454 310 421 292 411 C247 387 203 359 153 341 C148 339 104 317 99 313 C92 307 88 296 88 287 C88 275 93 263 102 256 C112 246 121 234 136 230 C151 228 151 229 166 229 C206 229 259 243 301 243 C326 243 403 242 422 229 C412 172 360 138 338 130 C313 121 259 91 182 84 C151 80 74 112 59 73 C54 53 56 29 79 14 C100 2 130 -4 155 -5 C208 -5 269 1 317 15 C402 41 488 57 516 162 C518 172 520 183 520 194 C520 261 455 296 389 307 C371 309 354 310 320 319 C342 339 369 343 393 358 C431 381 473 408 487 454 C501 497 437 540 404 551 C380 558 356 558 331 560 C312 562 292 563 273 563 C249 563 225 562 199 562 C184 562 172 561 161 559 L161 559 Z " />
<glyph glyph-name="four" unicode="4" horiz-adv-x="544" d="M518 248 C511 257 503 251 482 251 C467 252 445 247 431 246 C431 258 431 297 432 307 C438 379 436 421 439 491 C439 501 442 519 436 527 C428 541 415 544 399 563 C372 589 361 595 340 592 C304 587 255 552 240 523 C185 419 89 341 54 251 C47 234 39 216 32 199 C23 172 84 117 113 119 C137 115 146 118 165 125 C174 129 184 133 195 138 C211 143 251 148 268 150 C282 153 311 159 326 162 C326 143 325 123 325 103 C325 91 326 81 326 70 C331 44 326 7 354 -12 C378 -27 413 -11 426 6 C436 18 431 37 429 54 C428 64 428 74 428 84 C428 98 428 111 429 124 C429 139 429 157 429 176 C443 177 456 179 467 182 C486 185 503 183 516 194 C523 199 529 212 530 220 C533 232 528 236 518 248 L518 248 Z M167 229 C187 279 291 424 332 465 C326 414 326 335 325 290 C325 283 325 249 325 241 C288 240 199 237 167 229 L167 229 Z " />
<glyph glyph-name="five" unicode="5" horiz-adv-x="545" d="M76 422 C73 398 70 372 64 351 C59 335 48 319 50 301 C53 274 65 274 89 257 C99 250 110 243 121 240 C134 235 137 240 149 244 C190 255 231 264 276 268 C287 268 297 268 308 268 C322 268 337 268 351 268 C364 267 411 261 411 261 C426 210 393 144 348 128 C303 111 256 94 202 94 C180 93 143 89 119 101 C98 112 72 133 53 125 C37 118 34 117 34 103 C34 81 50 54 76 36 C125 3 183 2 231 2 C259 2 286 10 312 14 C338 19 369 24 393 35 C441 55 476 92 501 137 C511 155 519 183 519 211 C519 229 516 247 508 262 C496 283 485 298 467 316 C450 331 422 341 401 346 C387 348 370 350 354 350 C331 350 310 347 291 346 C256 342 214 336 178 337 C178 357 182 379 185 397 C188 410 196 463 196 463 C196 463 252 461 268 460 C295 457 320 461 344 466 C365 469 394 471 414 479 C467 486 467 522 435 554 C423 565 411 568 399 568 C390 568 381 566 371 564 C353 561 335 553 315 550 C293 546 269 544 246 544 C217 542 170 563 135 563 C124 563 115 562 107 556 C93 546 89 517 86 499 C81 474 79 448 76 422 L76 422 Z " />
<glyph glyph-name="six" unicode="6" horiz-adv-x="526" d="M427 553 C408 563 369 568 349 568 C292 569 215 550 175 516 C159 500 142 483 126 466 C89 428 66 380 53 327 C44 294 41 260 41 224 C41 211 41 197 42 184 C45 136 76 89 115 52 C154 15 199 -11 247 -12 C257 -12 268 -12 277 -12 C293 -12 309 -11 325 -8 C355 0 387 11 414 23 C434 31 454 49 463 66 C475 87 483 109 488 131 C490 141 491 152 491 163 C491 193 483 224 463 254 C436 292 397 324 359 326 C341 327 308 330 290 330 C240 330 204 319 163 311 C160 354 230 438 258 461 C297 494 315 491 343 497 C371 503 412 470 443 479 C461 485 470 486 464 509 C461 527 444 544 427 553 L427 553 Z M335 252 C352 252 379 239 393 225 C393 210 378 158 372 146 C363 131 353 108 340 98 C314 77 249 68 212 71 C177 75 147 146 154 200 C189 236 292 252 335 252 L335 252 Z " />
<glyph glyph-name="seven" unicode="7" horiz-adv-x="467" d="M273 183 C290 217 302 251 320 279 C348 324 368 369 393 415 C403 434 417 456 437 483 C447 496 453 502 450 522 C447 557 416 578 380 585 C337 594 301 574 264 562 C212 545 156 542 96 542 C57 542 43 540 28 507 C17 489 17 474 26 458 C41 427 126 447 152 449 C201 453 260 470 306 479 C284 434 246 374 227 329 C206 279 181 229 152 183 C139 161 129 138 122 114 C116 98 105 69 108 52 C110 34 122 22 134 7 C147 -7 150 -11 166 -14 C195 -18 204 19 212 39 C218 53 223 66 229 78 C247 111 255 150 273 183 L273 183 Z " />
<glyph glyph-name="eight" unicode="8" horiz-adv-x="530" d="M435 557 C398 580 346 574 308 574 C234 574 167 558 112 523 C77 500 54 464 50 417 C46 362 135 310 178 298 C144 257 93 233 62 191 C46 172 31 143 31 114 C31 95 37 75 54 56 C98 3 151 -18 209 -21 C271 -23 334 -8 381 16 C433 41 490 104 490 172 C490 200 480 228 458 256 C438 283 422 298 391 313 C460 387 505 423 505 481 C505 512 476 529 435 557 L435 557 Z M282 87 C263 79 226 64 194 64 C173 64 156 70 144 86 C166 166 242 197 292 245 C292 245 344 245 381 211 C374 157 328 109 282 87 L282 87 Z M265 361 C250 367 237 371 225 377 C214 382 179 398 171 411 C173 445 220 463 246 472 C271 482 367 498 398 488 C366 444 319 395 265 361 L265 361 Z " />
<glyph glyph-name="nine" unicode="9" horiz-adv-x="469" d="M429 483 C421 500 394 516 376 522 C358 528 348 540 330 551 C312 561 292 569 274 574 C258 579 243 580 228 580 C206 580 185 576 168 568 C152 561 136 555 121 546 C88 529 68 491 53 457 C41 431 32 397 32 362 C32 320 45 277 83 244 C107 225 145 217 184 217 C223 217 277 226 302 240 C299 232 296 222 294 215 C289 198 285 187 280 169 C270 132 265 121 258 83 C254 68 248 51 252 33 C254 13 272 6 292 -4 C328 -22 351 31 358 54 C376 104 381 127 399 176 C407 201 411 229 415 257 C421 288 431 316 433 347 C435 372 443 400 443 428 C443 447 440 464 429 483 L429 483 Z M331 403 C330 390 318 343 315 330 C260 302 207 311 149 311 C139 311 122 313 113 318 C117 337 128 374 137 390 C151 422 184 465 212 478 C224 483 263 498 280 488 C295 478 315 464 331 465 C328 465 332 408 331 403 L331 403 Z " />
<glyph glyph-name="colon" unicode="&#x3a;" horiz-adv-x="238" d="M184 418 C176 428 152 431 137 431 C126 431 114 428 107 428 C82 424 68 411 58 395 C51 387 46 381 52 370 C57 363 71 347 80 345 C96 338 116 350 126 353 C141 358 171 361 182 368 C189 374 194 382 194 393 C194 401 191 411 184 418 L184 418 Z M194 255 C182 268 151 272 131 272 C112 272 96 269 86 265 C73 258 68 245 58 234 C50 226 45 223 54 211 C59 204 69 192 79 190 C94 184 121 191 135 192 C147 194 166 194 175 199 C190 208 204 219 204 233 C204 240 200 246 194 255 L194 255 Z " />
<glyph glyph-name="semicolon" unicode="&#x3b;" horiz-adv-x="253" d="M187 334 C178 344 155 347 140 347 C128 347 116 344 110 344 C85 340 71 327 60 311 C54 302 48 296 55 285 C59 279 74 262 82 261 C99 254 119 266 129 269 C144 274 173 277 184 284 C192 290 197 298 197 308 C197 317 194 327 187 334 L187 334 Z M44 31 C31 12 28 -1 46 -17 C61 -29 81 -31 94 -27 C109 -23 126 -6 134 6 C162 41 185 75 202 117 C207 128 218 146 215 159 C213 166 210 178 201 184 C192 192 162 211 153 211 C140 210 110 193 105 180 C66 75 63 60 44 31 L44 31 Z " />
<glyph glyph-name="less" unicode="&#x3c;" horiz-adv-x="510" d="M332 519 C313 496 292 474 271 455 C237 424 200 396 160 372 C133 357 103 353 78 336 C59 324 37 315 35 290 C35 265 55 243 80 227 C92 220 106 217 118 210 C133 200 148 185 161 173 C188 151 207 125 228 98 C248 75 264 49 282 24 C295 6 314 -28 335 -37 C360 -48 371 -40 381 -21 C391 2 371 39 354 64 C330 101 312 138 277 169 C248 194 195 242 173 266 C194 286 251 315 278 335 C305 354 326 378 351 398 C377 420 404 442 426 466 C437 478 446 485 452 500 C457 509 466 524 469 534 C472 550 461 558 446 570 C438 578 426 585 419 585 C379 590 351 541 332 519 L332 519 Z " />
<glyph glyph-name="equal" unicode="&#x3d;" horiz-adv-x="401" d="M369 378 C369 392 367 408 349 415 C334 422 319 427 302 430 C293 431 285 432 276 432 C249 432 222 425 195 422 C168 418 136 420 107 412 C87 406 67 405 58 387 C54 381 55 377 58 370 C59 363 62 351 67 344 C73 336 95 331 109 331 C116 331 125 334 132 336 C167 340 202 343 239 344 C270 346 322 346 350 353 C363 357 369 363 369 378 L369 378 Z M308 270 C297 272 286 268 275 268 C253 265 233 261 211 260 C184 260 156 257 130 254 C109 252 87 249 67 245 C54 240 36 238 36 222 C36 216 37 201 41 194 C49 181 74 169 88 167 C98 166 108 169 117 170 C139 172 161 173 183 176 C224 179 266 181 306 185 C324 188 348 189 355 205 C358 210 360 220 360 229 C360 235 360 242 356 247 C349 261 320 268 308 270 L308 270 Z " />
<glyph glyph-name="greater" unicode="&#x3e;" horiz-adv-x="492" d="M233 82 C268 113 287 128 320 154 C346 176 389 200 416 221 C438 240 458 245 462 278 C466 309 449 328 421 342 C387 360 339 410 307 432 C272 458 242 478 212 510 C201 522 186 534 176 549 C169 560 166 570 151 576 C126 588 91 574 82 551 C75 529 99 494 103 489 C119 463 152 444 177 424 C200 406 227 392 252 376 C271 362 314 321 332 303 C304 274 274 247 259 235 C228 214 205 196 177 171 C149 144 111 117 88 87 C71 67 36 58 36 29 C35 5 40 -36 67 -42 C79 -44 107 -38 117 -32 C138 -16 155 -3 172 16 C195 40 209 61 233 82 L233 82 Z " />
<glyph glyph-name="question" unicode="&#x3f;" horiz-adv-x="549" d="M222 75 C213 80 155 74 143 73 C120 71 55 35 55 6 C54 -1 68 -15 73 -18 C89 -29 174 -5 196 -6 C203 -7 217 -7 225 -2 C231 2 247 36 249 42 C253 54 233 71 222 75 L222 75 Z M245 263 C384 322 511 403 513 473 C526 510 494 534 482 546 C459 569 424 591 409 601 C374 626 288 625 229 613 C171 602 34 512 70 446 C78 434 108 425 120 432 C136 441 145 448 156 464 C169 476 230 506 240 509 C291 522 338 540 415 515 C365 440 321 420 254 384 C186 349 150 354 89 293 C66 270 61 243 69 212 C69 212 82 155 116 149 C116 149 136 153 144 165 C154 181 148 188 154 202 C172 234 211 248 245 263 L245 263 Z " />
<glyph glyph-name="at" unicode="&#x40;" horiz-adv-x="723" d="M495 354 C503 373 500 391 488 410 C478 427 477 429 464 432 C447 434 426 436 411 434 C353 427 272 376 233 330 C215 309 204 285 197 264 C191 250 187 233 186 217 C184 199 187 182 195 169 C220 132 254 124 284 129 C317 135 347 151 375 165 C384 168 406 183 406 183 C406 183 419 164 425 159 C441 147 456 145 472 151 C482 155 490 159 499 165 C529 183 572 217 600 240 C639 270 685 353 686 405 C688 430 687 449 674 472 C659 500 638 517 614 534 C601 542 575 559 561 566 C524 585 484 583 446 585 C380 587 322 565 265 541 C253 536 196 500 189 495 C167 478 142 459 127 434 C102 393 81 354 63 308 C56 293 54 274 52 252 C50 226 51 197 55 172 C57 151 62 126 71 107 C77 89 90 61 103 47 C117 31 138 13 156 5 C176 -6 202 -8 225 -13 C254 -21 280 -21 309 -21 C324 -21 339 -21 352 -21 C367 -21 381 -21 394 -19 C426 -12 454 -10 483 2 C520 15 555 38 589 60 C604 68 617 81 629 92 C652 111 672 131 686 159 C694 172 691 189 680 204 C664 224 612 156 571 122 C554 109 514 92 491 81 C430 54 357 49 298 49 C287 49 255 53 244 53 C211 58 141 104 141 104 C135 142 132 178 135 215 C138 253 154 298 170 325 C186 352 210 381 230 401 C273 449 347 483 408 501 C427 506 445 508 464 508 C490 508 518 504 544 497 C562 493 615 451 615 451 C615 451 586 353 561 326 C550 316 511 278 499 271 C491 266 457 240 447 248 C457 278 482 325 495 354 L495 354 Z M375 269 C375 269 367 240 362 240 C332 227 306 211 282 200 C273 238 289 290 329 323 C348 338 379 353 402 358 C392 339 378 289 375 269 L375 269 Z " />
<glyph glyph-name="A" unicode="A" horiz-adv-x="572" d="M439 528 C425 553 389 591 359 585 C343 583 322 574 310 566 C300 558 287 551 277 545 C258 531 244 507 228 491 C172 443 133 381 103 319 C94 299 88 277 76 257 C53 211 32 127 33 80 C33 53 42 37 71 14 C83 2 90 5 99 13 C122 30 127 66 133 89 C138 104 141 122 145 138 C167 142 186 149 207 155 C243 163 337 182 376 186 C395 189 413 189 429 189 C431 177 433 166 435 155 C437 143 439 131 442 121 C445 105 454 63 462 48 C469 36 480 9 495 2 C507 -4 521 6 527 14 C536 25 544 36 545 50 C546 66 539 104 538 122 C538 159 525 201 516 234 C510 257 501 281 496 304 C488 346 477 387 468 429 C466 447 463 462 458 481 C453 495 447 513 439 528 L439 528 Z M390 275 C381 276 372 277 363 277 C343 277 306 268 286 264 C270 262 201 247 184 245 C197 285 228 334 254 367 C275 393 337 462 368 481 C383 441 414 305 414 272 C401 274 402 275 390 275 L390 275 Z " />
<glyph glyph-name="B" unicode="B" horiz-adv-x="618" d="M373 334 C412 360 444 391 465 429 C472 444 475 474 469 493 C461 517 440 533 419 546 C391 564 361 567 332 574 C302 580 277 583 249 580 C200 576 139 573 98 557 C72 546 54 534 54 502 C54 469 70 419 71 386 C71 375 71 363 71 352 C68 301 53 234 55 182 C57 137 60 93 73 48 C78 28 85 2 106 -6 C128 -15 152 -18 171 -14 C255 9 332 47 417 65 C453 75 485 92 514 112 C549 137 589 168 587 217 C587 226 564 266 556 275 C508 337 411 317 373 334 L373 334 Z M164 364 C164 393 176 453 167 478 C167 478 213 484 227 487 C247 492 270 492 292 493 C309 493 357 487 373 483 C367 447 322 401 297 379 C275 359 229 349 199 336 C189 330 170 326 159 321 C163 334 163 350 164 364 L164 364 Z M373 148 C325 133 280 112 234 96 C212 90 180 85 162 75 C159 119 160 177 164 218 C203 233 258 235 302 241 C360 248 422 225 479 228 C458 190 405 159 373 148 L373 148 Z " />
<glyph glyph-name="C" unicode="C" horiz-adv-x="653" d="M621 438 C627 466 607 512 584 539 C576 546 565 556 553 563 C542 569 533 574 525 577 C502 586 477 591 453 587 C287 557 171 467 87 309 C61 262 49 228 49 197 C49 185 46 166 47 153 C53 115 75 87 89 68 C132 10 219 -2 293 -1 C332 1 394 11 430 25 C457 36 520 72 544 91 C558 101 581 121 582 137 C583 157 559 176 539 177 C516 177 504 174 485 163 C442 138 345 82 291 82 C264 82 167 103 144 115 C144 115 144 155 147 169 C152 189 161 216 165 229 C195 316 329 421 403 465 C419 475 490 504 490 504 C490 504 539 449 555 430 C569 412 582 405 601 411 C613 415 619 425 621 438 L621 438 Z " />
<glyph glyph-name="D" unicode="D" horiz-adv-x="619" d="M571 463 C537 495 445 553 399 559 C359 565 308 560 268 562 C258 563 249 563 240 563 C215 563 190 560 166 557 C131 551 60 547 46 510 C43 500 41 492 41 484 C41 454 62 429 68 389 C70 374 71 357 71 341 C71 297 65 253 64 214 C64 190 61 170 63 147 C65 111 65 75 77 43 C81 30 96 19 105 9 C166 -48 212 26 261 57 C323 96 389 128 447 171 C497 207 513 233 558 313 C581 353 610 427 571 463 L571 463 Z M383 241 C362 227 342 217 322 203 C302 189 281 178 261 167 C252 162 178 121 177 121 C171 136 170 152 170 168 C170 186 172 205 172 224 C172 268 178 306 176 346 C174 377 175 433 162 467 C179 478 201 479 218 481 C264 489 327 487 367 481 C391 477 491 451 491 451 C482 384 434 278 383 241 L383 241 Z " />
<glyph glyph-name="E" unicode="E" horiz-adv-x="549" d="M65 407 C65 380 66 354 66 328 C66 268 56 212 59 152 C59 130 61 106 61 83 C61 72 60 59 60 47 C60 38 60 30 64 20 C73 -9 96 -15 120 -15 C139 -15 159 -10 169 -7 C261 20 326 30 405 35 C428 36 454 32 466 48 C475 61 479 63 468 89 C457 116 437 108 413 111 C399 113 384 114 370 114 C321 114 294 104 249 99 C217 97 190 92 162 84 C163 103 163 121 164 140 C166 148 166 199 166 199 C166 199 182 204 195 208 C248 224 284 231 332 236 C361 239 453 230 474 244 C486 252 488 257 489 274 C491 291 474 318 451 325 C428 330 408 332 386 330 C313 328 241 318 175 300 C177 314 179 429 179 429 C179 429 232 444 243 449 C295 469 343 483 406 483 C434 483 532 470 532 499 C532 528 513 562 478 566 C449 569 430 574 404 573 C298 577 226 542 128 514 C107 508 84 503 71 486 C65 476 62 466 62 453 C62 438 66 423 65 407 L65 407 Z " />
<glyph glyph-name="F" unicode="F" horiz-adv-x="526" d="M503 538 C497 557 467 563 447 570 C422 578 397 580 373 580 C331 580 260 569 219 561 C187 555 158 542 129 532 C112 526 88 526 77 512 C65 493 65 463 61 440 C59 417 57 394 57 370 C57 361 57 351 58 342 C59 317 60 291 60 267 C60 230 58 194 53 160 C50 148 48 127 48 105 C48 57 63 0 116 -7 C142 -10 150 30 150 51 C150 71 152 92 156 111 C160 139 164 166 166 194 C184 199 207 207 224 214 C265 226 343 237 388 241 C409 243 436 241 449 256 C461 268 481 286 465 308 C452 328 420 325 403 325 C372 326 337 319 306 319 C276 316 209 312 181 305 C175 304 169 302 164 300 C163 308 164 316 164 324 C165 337 165 370 167 383 C168 394 173 444 173 444 C173 444 230 463 247 467 C276 473 334 485 364 488 C375 489 387 489 433 489 C456 478 511 509 503 538 L503 538 Z " />
<glyph glyph-name="G" unicode="G" horiz-adv-x="711" d="M512 599 C420 601 298 565 264 540 C236 523 207 500 182 479 C148 451 136 436 116 410 C83 368 60 323 43 275 C37 262 41 238 41 224 C41 198 48 155 62 123 C97 52 206 -16 278 -16 C346 -16 386 -23 449 4 C493 22 515 42 553 67 C591 97 677 209 677 255 C677 289 660 330 634 345 C615 356 595 360 576 363 C552 363 489 365 464 364 C411 363 353 335 305 301 C294 293 269 266 271 228 C272 202 345 193 386 239 C405 263 458 284 509 284 C527 284 557 279 572 274 C558 219 474 122 456 112 C436 102 417 90 394 83 C342 67 261 67 200 91 C171 100 143 190 143 218 C143 318 267 414 355 463 C363 468 484 514 542 517 C563 498 617 465 643 460 C653 457 666 458 675 464 C685 472 691 481 687 493 C678 522 639 551 615 564 C582 578 546 600 512 599 L512 599 Z " />
<glyph glyph-name="H" unicode="H" horiz-adv-x="566" d="M517 468 C514 493 510 519 500 545 C490 565 474 574 454 575 C405 579 412 530 408 495 C405 464 399 430 400 397 C400 390 399 383 399 376 C366 379 283 357 264 351 C243 343 205 338 183 335 C184 361 186 388 185 415 C185 425 185 435 185 447 C185 457 179 512 178 523 C177 534 150 552 141 554 C103 559 77 517 77 487 C74 436 74 385 65 337 C57 292 49 240 52 192 C54 144 57 93 72 46 C79 23 91 6 116 -4 C141 -13 145 -3 162 12 C168 19 171 30 171 43 C171 57 168 71 167 84 C167 116 163 149 166 179 C167 190 167 230 167 242 C173 240 179 240 183 240 C217 242 262 260 292 268 C309 273 368 276 386 281 C385 228 392 141 419 86 C429 65 437 44 458 32 C473 25 493 19 509 32 C517 38 530 47 533 57 C537 69 527 89 522 102 C502 150 499 196 500 240 C502 284 507 315 507 355 C508 393 519 428 517 468 L517 468 Z " />
<glyph glyph-name="I" unicode="I" horiz-adv-x="538" d="M517 515 C514 529 491 546 478 549 C453 554 424 556 398 556 C381 556 365 555 353 554 C305 549 262 536 213 534 C194 533 174 532 155 532 C139 531 123 530 107 530 C91 531 71 528 59 519 C48 507 39 514 49 495 C55 484 63 478 73 468 C82 459 88 460 100 458 C116 457 131 456 146 456 C168 456 181 457 201 459 C200 438 197 387 197 365 C197 343 195 322 197 301 C198 279 201 259 201 239 C197 202 185 138 190 99 C164 96 146 92 121 86 C103 81 84 78 67 73 C58 71 31 54 35 42 C39 28 57 18 67 9 C82 -4 99 -8 117 -8 C144 -8 171 1 189 5 C210 11 231 18 253 24 C293 36 336 39 378 43 C399 45 422 46 444 48 C453 48 467 47 476 50 C487 53 487 55 487 70 C487 83 477 92 466 102 C450 113 433 117 417 121 C405 123 393 125 380 125 C354 125 322 120 297 118 C300 133 299 175 299 189 C299 209 304 227 304 245 C307 283 312 318 314 355 C317 383 314 438 309 467 C348 471 398 474 437 480 C451 482 519 493 517 515 L517 515 Z " />
<glyph glyph-name="J" unicode="J" horiz-adv-x="561" d="M462 494 C485 495 562 489 529 536 C513 559 497 570 470 575 C456 578 443 579 431 579 C386 579 345 567 305 562 C267 557 230 547 193 544 C165 540 140 551 122 530 C112 519 102 505 98 490 C94 478 99 472 107 461 C122 437 209 459 234 463 C255 467 288 469 311 472 C310 466 310 459 310 452 C310 426 318 370 318 343 C318 321 323 259 326 235 C328 188 324 159 321 114 C279 94 257 81 192 73 C179 71 147 67 147 67 C147 67 149 128 149 148 C149 176 156 205 122 224 C110 231 100 234 90 234 C81 234 72 230 65 224 C53 212 54 186 51 168 C48 146 48 122 46 98 C44 81 49 57 59 38 C64 30 93 -4 102 -10 C117 -19 161 -16 175 -13 C232 -2 274 -2 323 10 C343 15 362 20 382 25 C404 31 409 37 415 58 C420 76 426 103 422 123 C421 132 421 142 421 151 C421 167 421 181 420 197 C419 219 420 216 420 238 C420 272 422 373 422 407 C422 435 420 463 416 491 C429 491 444 491 462 494 L462 494 Z " />
<glyph glyph-name="K" unicode="K" horiz-adv-x="520" d="M485 504 C484 520 484 531 468 541 C451 552 413 529 405 521 C387 503 365 486 348 469 C324 445 297 424 271 401 C231 367 182 325 162 314 C162 326 164 349 165 360 C167 385 173 448 170 473 C168 497 161 525 144 546 C134 561 133 566 116 568 C97 570 79 566 69 551 C60 537 67 513 63 496 C61 483 62 468 61 454 C59 427 59 401 59 375 C60 320 59 267 60 213 C61 200 62 188 63 175 C68 120 65 59 111 10 C131 -10 145 5 156 15 C168 25 173 36 173 54 C173 81 166 109 164 138 C164 143 163 202 163 202 C163 202 196 224 209 232 C213 233 222 239 230 244 C244 233 255 221 268 207 C315 157 346 106 382 73 C399 58 423 27 447 18 C490 0 498 45 483 80 C465 124 427 153 388 190 C365 215 341 267 306 300 C363 331 412 377 462 419 C484 438 490 460 485 504 L485 504 Z " />
<glyph glyph-name="L" unicode="L" horiz-adv-x="480" d="M60 270 C55 234 54 197 54 161 C54 122 55 83 59 44 C60 11 98 -28 132 -14 C153 -5 174 3 196 10 C230 19 264 29 298 37 C335 47 372 55 410 60 C430 64 452 65 453 91 C455 133 413 135 377 133 C340 131 298 131 263 122 C229 113 203 106 165 98 C167 123 164 132 164 157 C164 186 164 243 167 272 C172 336 181 399 195 462 C198 477 201 490 201 502 C201 519 196 533 181 550 C173 558 148 568 136 568 C113 566 103 545 97 526 C88 501 82 474 77 449 C66 390 66 329 60 270 L60 270 Z " />
<glyph glyph-name="M" unicode="M" horiz-adv-x="763" d="M683 442 C672 480 671 522 640 551 C627 568 587 595 563 585 C525 564 499 512 482 472 C440 376 395 303 364 200 C345 243 326 332 321 379 C320 387 320 395 320 404 C320 422 321 442 316 461 C313 480 298 506 283 521 C270 534 257 551 240 546 C191 534 172 478 149 433 C133 408 124 372 111 331 C97 292 85 257 73 216 C68 199 58 142 55 123 C54 107 43 85 43 65 C43 53 47 41 58 31 C70 19 66 17 81 11 C95 4 105 0 116 7 C134 19 141 53 146 75 C154 109 173 179 183 211 C191 235 209 309 218 334 C222 345 227 356 232 368 C236 350 241 331 247 314 C264 266 287 163 304 115 C316 73 307 75 326 45 C336 30 360 -3 377 -4 C405 -7 417 -11 429 18 C429 19 444 70 445 71 C474 138 474 186 508 251 C530 291 576 391 603 429 C610 385 621 316 623 268 C628 217 623 175 631 115 C632 105 631 92 631 81 C631 70 632 59 635 52 C643 31 661 2 679 0 C692 -2 689 -5 698 2 C718 19 727 72 727 119 C727 143 724 166 721 180 C711 222 714 258 709 302 C705 350 695 395 683 442 L683 442 Z " />
<glyph glyph-name="N" unicode="N" horiz-adv-x="572" d="M71 302 C64 245 64 186 56 131 C54 103 60 68 69 39 C76 16 82 -2 108 -13 C121 -19 127 -20 135 -16 C144 -12 153 -9 159 -4 C168 2 170 12 170 22 C170 31 168 41 168 48 C167 70 169 90 171 111 C172 165 173 260 178 313 C219 234 287 183 341 117 C358 95 371 74 389 53 C402 36 418 14 438 7 C465 1 485 14 498 29 C513 44 513 57 513 78 C513 98 517 119 518 139 C518 171 517 200 517 230 C516 295 523 358 525 422 C526 438 528 454 528 469 C528 481 527 493 524 506 C520 522 508 555 493 568 C479 581 438 591 424 583 C419 580 411 563 408 557 C404 548 405 542 406 531 C411 497 413 461 413 426 C413 404 412 383 411 361 C409 319 411 276 411 231 C411 214 409 190 406 171 C360 237 287 289 251 362 C240 386 227 410 219 434 C211 455 196 476 186 496 C176 517 170 531 141 539 C117 544 102 541 86 527 C76 517 74 506 74 494 C74 485 75 476 75 466 C75 438 76 410 76 381 C76 356 74 328 71 302 L71 302 Z " />
<glyph glyph-name="O" unicode="O" horiz-adv-x="693" d="M451 574 C439 577 424 578 411 578 C389 578 323 560 304 551 C272 540 238 534 210 519 C173 500 136 479 113 444 C83 397 45 341 45 274 C45 264 46 254 48 243 C56 204 70 166 91 129 C124 73 183 24 242 2 C258 -3 270 -4 283 -4 C296 -4 338 -4 353 1 C407 14 428 21 475 51 C526 82 562 131 596 179 C630 225 661 287 662 352 C665 478 546 563 451 574 L451 574 Z M345 108 C301 89 246 101 196 101 C196 101 132 153 167 300 C181 362 220 394 275 423 C329 448 440 493 498 482 C537 474 567 406 567 406 C546 280 461 160 345 108 L345 108 Z " />
<glyph glyph-name="P" unicode="P" horiz-adv-x="538" d="M484 474 C466 490 445 506 425 517 C372 549 316 571 262 567 C210 563 158 546 110 532 C77 520 69 513 72 486 C74 472 72 459 72 445 C72 390 69 336 61 283 C57 257 56 233 56 210 C56 182 58 155 60 124 C62 91 79 13 99 -7 C115 -20 134 -21 150 -15 C162 -11 167 10 169 22 C171 36 174 57 170 73 C164 92 163 111 162 131 C161 154 166 160 169 181 C276 194 400 244 469 315 C485 330 502 351 507 374 C513 404 507 454 484 474 L484 474 Z M347 344 C304 320 248 306 201 291 C188 288 179 284 168 279 C167 300 173 331 173 352 C176 359 177 454 178 454 C212 450 248 472 281 475 C299 477 320 474 341 472 C364 471 387 468 407 463 C412 421 377 364 347 344 L347 344 Z " />
<glyph glyph-name="Q" unicode="Q" horiz-adv-x="699" d="M593 514 C549 538 491 564 443 573 C422 577 403 579 383 576 C366 574 350 573 335 568 C312 562 238 541 217 532 C204 527 192 519 179 513 C159 499 136 488 119 473 C76 437 53 370 43 320 C39 298 42 277 46 254 C52 217 61 175 85 138 C99 118 120 88 140 73 C251 -15 355 22 471 76 C482 61 493 47 502 36 C511 22 526 4 538 -11 C551 -25 561 -35 579 -34 C595 -32 605 -34 606 -16 C606 -7 607 2 605 10 C602 18 599 30 592 39 C572 68 560 96 539 119 C558 139 612 183 623 203 C642 237 642 227 655 275 C660 294 666 351 666 377 C666 415 626 496 593 514 L593 514 Z M583 411 C583 411 565 337 560 325 C553 308 542 294 531 279 C515 260 479 225 464 211 C452 223 415 274 404 287 C389 303 383 310 365 321 C358 325 349 326 339 326 C302 326 294 323 298 290 C302 267 315 261 331 242 C345 226 382 180 397 166 C387 158 352 140 339 135 C320 126 239 110 239 110 C239 110 164 148 151 177 C140 200 136 224 136 247 C136 263 136 294 141 309 C156 361 261 426 315 450 C333 458 350 467 372 470 C394 472 423 474 446 470 C491 462 553 442 583 411 L583 411 Z " />
<glyph glyph-name="R" unicode="R" horiz-adv-x="584" d="M541 471 C534 481 522 491 511 500 C486 523 460 538 429 552 C394 568 356 575 321 575 C285 575 243 574 211 567 C175 558 167 563 131 553 C110 551 87 543 72 517 C67 507 59 485 60 473 C60 461 64 446 65 434 C69 408 70 382 69 358 C68 329 70 299 69 270 C68 241 65 211 60 184 C55 158 42 131 41 101 C41 90 42 46 45 34 C57 2 64 -5 103 -12 C127 -16 136 -2 141 19 C151 56 167 161 167 161 L214 168 L267 171 C267 171 336 127 387 78 C404 62 439 27 462 11 C473 4 485 -6 499 -7 C514 -9 520 -7 529 4 C547 43 524 62 499 91 C480 110 468 127 447 146 C421 170 402 194 372 212 C411 224 493 291 513 319 C536 353 553 387 553 420 C554 437 551 454 541 471 L541 471 Z M398 353 C384 336 363 324 343 312 C321 300 299 288 275 279 C237 268 199 261 172 261 C172 275 172 299 172 314 C172 339 174 364 174 389 C174 406 174 444 173 464 C190 459 215 465 231 466 C251 470 269 474 289 476 C314 478 343 483 370 483 C418 483 429 468 451 463 C456 424 418 380 398 353 L398 353 Z " />
<glyph glyph-name="S" unicode="S" horiz-adv-x="572" d="M388 597 C378 599 369 599 359 599 C232 599 59 477 59 342 C59 318 56 303 69 276 C87 240 133 212 168 202 C185 198 201 195 218 195 C280 195 364 226 420 240 C423 231 417 190 416 177 C411 149 407 137 402 124 C391 98 319 75 297 73 C270 70 246 65 219 66 C150 68 122 124 71 158 C58 166 56 163 47 157 C37 149 32 141 32 128 C32 121 34 112 37 101 C52 48 88 28 130 -1 C167 -27 219 -31 263 -31 C320 -31 356 -21 394 -12 C416 -7 438 4 456 17 C516 53 518 124 518 182 C518 202 513 239 508 254 C484 304 439 331 393 337 C305 347 241 270 148 300 C182 420 276 475 383 514 C383 514 425 492 445 469 C455 460 469 438 481 430 C495 421 499 421 511 427 C527 438 531 461 525 479 C511 535 441 588 388 597 L388 597 Z " />
<glyph glyph-name="T" unicode="T" horiz-adv-x="496" d="M406 477 C434 485 496 484 465 547 C458 560 438 566 428 567 C417 568 408 564 399 562 C384 559 369 556 354 553 C319 544 280 542 244 535 C211 528 177 522 142 520 C129 519 116 517 101 516 C84 514 71 517 61 517 C48 517 40 512 30 487 C25 472 16 452 30 437 C71 389 135 449 184 437 C170 366 164 272 164 190 C164 180 164 170 164 160 C166 138 167 87 170 64 C169 30 195 -10 239 -11 C257 -11 270 14 275 29 C279 38 274 47 273 57 C270 70 269 84 269 99 C269 129 273 162 273 194 C273 236 276 279 284 322 C289 354 290 418 292 455 C326 463 373 467 406 477 L406 477 Z " />
<glyph glyph-name="U" unicode="U" horiz-adv-x="584" d="M64 447 C61 432 62 418 61 403 C59 375 59 345 59 316 C59 260 55 211 59 159 C65 118 67 83 98 46 C109 32 123 22 139 13 C152 7 184 3 197 7 C281 13 445 23 520 61 C531 74 533 149 532 166 C523 274 517 387 513 492 C512 521 520 579 468 585 C452 588 422 580 413 569 C403 556 403 527 400 510 C400 501 400 493 400 484 C400 448 404 410 405 372 C409 329 416 232 420 189 C422 174 428 152 423 139 C418 127 400 120 389 114 C371 105 281 98 263 98 C250 98 236 99 224 99 C211 99 192 98 179 95 C173 143 170 195 170 242 C170 267 170 315 172 340 C174 374 172 409 181 439 C185 451 187 463 187 474 C187 495 180 516 160 536 C145 551 129 551 113 553 C87 557 77 536 74 516 C70 494 65 471 64 447 L64 447 Z " />
<glyph glyph-name="V" unicode="V" horiz-adv-x="555" d="M525 497 C525 512 530 524 517 540 C502 559 496 569 474 566 C433 559 428 500 411 470 C389 429 352 345 338 300 C325 258 315 250 297 211 C295 208 287 191 279 174 C265 205 240 256 228 290 C214 329 201 359 187 397 C179 421 167 444 152 466 C135 492 128 522 100 545 C90 551 89 556 75 556 C60 556 45 551 40 542 C26 517 55 454 77 411 C85 394 94 376 102 359 C118 327 132 295 141 263 C151 234 162 204 171 173 C180 145 187 116 196 87 C202 70 203 44 219 30 C237 14 266 9 284 7 C317 7 340 45 352 69 C360 83 369 108 376 123 C384 141 395 157 403 175 C417 211 428 250 445 286 C461 321 498 399 511 437 C518 456 524 476 525 497 L525 497 Z " />
<glyph glyph-name="W" unicode="W" horiz-adv-x="699" d="M672 534 C664 553 662 555 644 569 C630 584 604 577 589 568 C560 551 545 494 536 461 C528 421 512 367 501 326 C490 289 483 268 468 234 C466 226 462 219 456 211 C430 259 408 297 395 347 C382 400 366 455 350 508 C345 528 342 549 323 561 C294 576 285 549 274 538 C252 517 254 486 247 455 C240 420 234 383 225 347 C218 325 196 274 181 229 C175 247 161 297 156 313 C150 336 145 363 141 384 C137 413 132 431 131 459 C131 477 128 512 110 527 C90 545 81 540 69 531 C54 520 42 506 36 486 C29 467 40 438 45 415 C60 357 72 298 89 240 C98 211 101 182 107 154 C112 128 117 103 122 78 C126 58 126 43 141 24 C152 9 189 -9 205 -7 C218 -4 235 9 238 21 C244 43 250 65 255 87 C264 132 276 177 289 221 C296 243 308 259 316 279 C341 250 354 208 370 172 C383 142 399 112 413 82 C420 66 428 43 439 30 C445 23 457 15 466 11 C477 7 502 -2 511 2 C526 8 538 47 543 64 C551 81 553 101 557 120 C570 174 588 226 604 277 C615 319 625 362 638 403 C644 426 650 449 658 471 C662 488 677 514 672 534 L672 534 Z " />
<glyph glyph-name="X" unicode="X" horiz-adv-x="520" d="M435 400 C449 417 503 511 489 533 C484 542 468 570 455 574 C433 580 400 560 390 547 C376 528 361 507 346 488 C333 472 323 455 309 439 C289 415 268 393 249 369 C229 403 207 437 190 471 C170 510 163 536 122 554 C105 561 72 554 63 542 C54 533 60 530 60 521 C60 514 63 506 68 496 C78 473 93 450 104 428 C128 382 156 338 181 294 C144 267 54 163 44 115 C41 98 26 70 40 52 C47 41 63 30 75 26 C99 21 124 38 133 53 C161 96 209 155 246 192 C271 136 308 87 347 41 C364 22 430 -12 438 36 C441 58 430 73 414 95 C396 119 379 143 366 170 C350 197 326 234 309 262 C316 269 324 277 332 285 C367 322 405 359 435 400 L435 400 Z " />
<glyph glyph-name="Y" unicode="Y" horiz-adv-x="491" d="M469 534 C466 551 454 571 434 580 C413 588 395 588 381 578 C370 568 360 553 353 540 C327 487 288 441 260 382 C245 399 235 407 214 428 C173 459 151 505 113 539 C95 555 86 568 66 568 C45 568 37 546 37 526 C37 517 38 506 42 500 C48 484 60 468 71 454 C113 393 182 360 221 290 C216 279 187 222 182 211 C164 171 127 106 131 55 C134 36 132 36 145 18 C161 -4 189 -4 203 3 C220 13 225 26 230 45 C240 75 257 103 267 133 C280 171 299 205 315 240 C330 270 347 302 361 333 C377 365 391 398 412 425 C428 444 445 461 457 483 C465 499 474 512 469 534 L469 534 Z " />
<glyph glyph-name="Z" unicode="Z" horiz-adv-x="520" d="M162 549 C106 547 70 541 58 481 C52 450 76 452 107 452 C180 452 278 484 349 484 C326 445 250 382 223 346 C190 299 144 246 116 197 C104 175 90 155 76 134 C59 110 43 76 43 43 C43 26 48 10 58 -3 C75 -21 85 -24 105 -20 C128 -16 150 -10 172 -7 C197 -4 224 -3 250 -2 C274 0 332 1 354 2 C381 3 404 8 428 14 C446 19 468 31 477 47 C487 65 479 77 462 93 C445 112 422 105 401 99 C377 93 352 89 327 89 C316 89 258 88 247 88 C226 88 197 88 175 83 C196 115 223 163 250 199 C311 281 372 332 430 409 C440 421 451 429 460 441 C473 456 483 477 483 500 C483 512 479 525 473 538 C464 552 452 569 436 575 C415 584 387 574 366 572 C329 569 257 564 221 558 C202 553 183 550 162 549 L162 549 Z " />
<glyph glyph-name="bracketleft" unicode="&#x5b;" horiz-adv-x="376" d="M66 306 C66 267 65 227 65 184 C64 148 71 109 71 73 C73 37 71 0 79 -38 C82 -56 91 -109 110 -119 C130 -130 164 -133 186 -136 C197 -139 209 -140 220 -140 C240 -140 259 -136 278 -134 C302 -129 304 -127 326 -120 C348 -113 353 -91 349 -66 C346 -42 334 -50 307 -44 C286 -40 284 -53 265 -55 C255 -57 246 -57 236 -57 C224 -57 195 -56 181 -54 C178 4 173 92 173 153 C173 165 173 177 173 188 C173 234 175 279 175 325 C175 346 175 366 173 387 C173 417 172 448 171 478 C170 506 175 553 173 580 C173 591 173 625 173 625 C173 625 214 625 222 625 C243 626 269 628 287 635 C305 641 313 642 312 661 C309 685 294 698 269 706 C261 710 253 710 244 710 C229 710 213 707 198 706 C183 705 167 706 151 706 C141 706 133 706 123 705 C96 704 71 704 65 678 C60 666 59 657 59 646 C59 636 60 627 62 615 C67 594 69 574 69 553 C69 538 68 522 66 505 C66 490 69 478 69 463 C70 427 67 390 66 355 C66 338 66 322 66 306 L66 306 Z " />
<glyph glyph-name="backslash" unicode="&#x5c;" horiz-adv-x="468" d="M243 348 C232 376 218 404 205 431 C198 446 191 460 183 474 C159 510 150 549 131 584 C121 602 107 620 87 630 C69 636 52 649 38 638 C30 632 26 619 26 605 C26 596 28 587 32 580 C45 559 57 537 68 516 C102 455 129 391 157 328 C174 288 187 248 204 207 C220 172 242 136 262 102 C280 70 305 41 328 11 C344 -11 363 -39 386 -56 C399 -66 426 -75 437 -63 C448 -50 444 -41 444 -28 C444 -10 426 8 415 24 C410 32 403 39 397 47 C383 66 370 84 359 104 C347 122 336 141 327 160 C321 177 315 197 305 213 C295 232 283 251 274 268 C259 293 254 322 243 348 L243 348 Z " />
<glyph glyph-name="bracketright" unicode="&#x5d;" horiz-adv-x="372" d="M307 307 C306 331 308 355 309 379 C311 420 319 459 321 501 C324 534 325 568 327 601 C328 614 332 633 332 650 C332 659 331 667 327 675 C316 694 286 710 266 720 C255 725 243 727 232 727 C221 727 211 725 200 723 C175 716 153 705 128 699 C111 695 95 692 78 690 C69 689 53 691 47 686 C40 681 36 672 36 663 C36 637 59 625 85 617 C104 612 125 619 141 621 C161 623 191 625 211 626 C206 598 206 547 206 517 C206 502 206 486 206 471 C206 451 205 432 204 413 C203 403 203 392 203 381 C203 347 206 311 207 274 C208 235 205 196 202 158 C200 138 200 117 200 97 C200 86 200 75 200 65 C200 35 199 -18 193 -48 C172 -52 138 -51 116 -51 C104 -51 93 -52 82 -53 C72 -53 59 -49 51 -53 C41 -58 37 -67 37 -78 C37 -87 40 -94 43 -104 C49 -121 66 -119 86 -126 C111 -135 133 -138 159 -140 C172 -140 184 -141 195 -141 C206 -141 217 -140 229 -138 C250 -131 272 -129 289 -118 C298 -111 300 -97 300 -84 C300 -72 299 -61 299 -51 C299 -9 306 30 308 73 C310 104 308 136 308 168 C308 178 308 189 308 199 C309 212 309 225 309 238 C309 260 308 281 307 307 L307 307 Z " />
<glyph glyph-name="asciicircum" unicode="&#x5e;" horiz-adv-x="312" d="M264 671 C258 678 252 683 246 690 C236 702 227 716 218 728 C213 735 207 748 201 753 C195 759 182 760 175 760 C162 760 157 755 150 750 C142 741 134 734 125 727 C111 715 100 700 85 687 C66 673 47 660 37 638 C37 621 46 614 60 610 C81 602 107 614 120 624 C132 633 141 642 152 652 C162 659 168 671 179 675 C189 666 195 659 203 649 C220 631 236 621 260 618 C265 617 274 623 277 627 C281 632 285 638 282 647 C279 656 270 663 264 671 L264 671 Z " />
<glyph glyph-name="underscore" unicode="&#x5f;" horiz-adv-x="541" d="M197 101 C156 94 117 85 75 80 C45 77 30 79 29 47 C29 25 25 28 46 11 C68 -4 104 0 122 4 C150 10 156 14 184 17 C235 21 287 23 336 34 C367 40 486 44 504 66 C511 75 519 93 512 109 C501 128 460 122 445 125 C433 126 421 128 409 128 C387 128 364 125 340 120 C292 111 244 109 197 101 L197 101 Z " />
<glyph glyph-name="grave" unicode="&#x60;" horiz-adv-x="254" d="M127 732 C115 738 103 742 92 750 C84 755 78 761 70 761 C59 762 44 755 38 749 C34 744 37 723 42 716 C48 708 58 701 65 694 C74 687 83 682 93 676 C113 665 149 651 178 647 C191 644 202 643 211 646 C222 650 224 661 222 671 C222 676 218 686 213 689 C209 693 200 696 195 699 C188 704 182 705 174 709 C158 716 143 724 127 732 L127 732 Z " />
<glyph glyph-name="a" unicode="a" horiz-adv-x="566" d="M364 579 C344 579 311 563 295 552 C276 540 261 524 246 506 C212 462 168 415 142 364 C105 291 74 231 59 153 C54 127 48 112 40 87 C35 69 25 41 31 21 C40 -5 59 -14 82 -14 C124 -14 163 120 168 148 C218 155 263 153 314 163 C335 167 401 172 423 174 C428 153 432 115 433 92 C437 73 436 43 445 29 C453 16 477 2 488 0 C533 -9 528 29 526 70 C524 132 530 180 513 243 C496 303 477 387 458 449 C443 501 424 580 364 579 L364 579 Z M319 254 C286 247 236 234 204 234 C221 274 263 333 286 370 C303 397 343 445 360 464 C370 441 386 381 395 353 C405 325 406 303 411 270 C394 272 337 258 319 254 L319 254 Z " />
<glyph glyph-name="b" unicode="b" horiz-adv-x="641" d="M585 263 C537 335 459 319 406 336 C419 358 469 382 482 406 C491 424 508 449 508 477 C508 487 506 495 501 505 C477 543 411 568 372 571 C340 574 319 575 296 575 C278 575 259 574 236 571 C183 561 158 563 112 541 C97 533 74 530 64 517 C53 504 59 478 57 460 C56 428 64 381 64 348 C65 323 60 300 60 274 C63 227 58 183 62 136 C65 75 55 29 95 -4 C108 -15 123 -19 139 -19 C164 -19 180 -18 195 -10 C276 19 372 40 449 64 C502 79 605 142 615 192 C616 210 603 234 585 263 L585 263 Z M162 370 C163 387 167 457 167 457 C167 457 200 471 222 476 C265 484 304 495 350 494 C358 492 393 490 399 486 C384 437 338 393 303 371 C262 346 205 347 163 325 C161 342 162 361 162 370 L162 370 Z M229 98 C218 90 168 76 168 76 C168 131 169 172 170 222 C251 255 343 268 440 250 C452 248 495 234 508 229 C438 138 340 137 229 98 L229 98 Z " />
<glyph glyph-name="c" unicode="c" horiz-adv-x="665" d="M589 519 C530 558 465 588 357 549 C307 531 275 527 209 470 C113 387 35 305 35 181 C35 168 36 157 40 146 C49 113 76 73 100 46 C132 12 199 -13 218 -18 C307 -38 404 -16 475 22 C509 40 529 58 558 79 C575 92 610 128 608 149 C608 171 586 185 558 181 C536 178 528 171 510 158 C457 121 416 85 359 71 C308 59 185 71 185 71 C185 71 155 98 142 134 C111 221 264 365 305 398 C340 427 490 483 490 483 C491 485 526 466 558 443 C596 415 613 414 626 431 C642 449 620 499 589 519 L589 519 Z " />
<glyph glyph-name="d" unicode="d" horiz-adv-x="647" d="M615 481 C578 532 470 567 413 585 C398 589 381 591 360 591 C307 591 207 562 173 555 C150 551 121 545 100 537 C57 524 71 466 66 429 C60 396 54 366 54 335 C54 311 56 286 59 261 C60 249 60 236 60 224 C60 190 57 158 57 124 C57 107 58 88 61 70 C63 52 62 24 74 7 C86 -5 127 -19 142 -20 C189 -22 215 -2 246 22 C264 36 286 51 304 63 C371 99 443 145 494 206 C516 233 552 267 562 297 C571 324 599 355 608 396 C612 415 627 464 615 481 L615 481 Z M496 398 C479 353 459 330 444 304 C417 260 336 216 296 185 C271 166 244 149 218 132 C201 120 161 92 161 92 C161 92 161 137 161 148 C162 203 166 256 168 311 C169 350 173 403 172 442 C172 451 173 459 173 459 C173 459 207 468 220 470 C242 472 354 498 377 495 C420 493 455 487 498 477 C508 457 496 416 496 398 L496 398 Z " />
<glyph glyph-name="e" unicode="e" horiz-adv-x="613" d="M586 520 C589 540 568 548 546 557 C500 580 472 583 427 583 C390 584 259 575 224 568 C192 561 143 542 111 535 C60 523 71 499 61 447 C58 426 54 404 54 381 C54 372 55 363 56 354 C59 315 66 268 66 230 C67 187 56 161 58 119 C59 101 54 81 54 62 C54 44 57 36 71 21 C80 10 98 -2 110 -7 C117 -10 134 -11 143 -10 C159 -10 175 -7 184 1 C270 51 373 29 471 57 C489 58 520 75 508 91 C487 129 420 137 389 135 C311 132 250 115 173 96 C170 105 169 115 169 125 C169 150 172 190 174 211 C197 222 208 226 233 234 C275 247 365 249 411 248 C427 248 440 245 455 241 C469 237 488 235 496 244 C508 251 516 260 522 274 C525 285 529 279 519 291 C500 320 474 329 448 332 C426 336 399 336 372 337 C315 338 280 342 216 326 C206 324 181 318 172 314 C170 326 171 339 170 349 C169 367 177 452 177 452 C177 452 206 461 219 468 C274 491 427 495 485 490 C502 489 537 477 549 477 C570 477 581 480 586 520 L586 520 Z " />
<glyph glyph-name="f" unicode="f" horiz-adv-x="503" d="M478 510 C482 525 465 545 451 557 C433 574 408 584 388 584 C327 585 257 577 203 563 C176 556 153 534 123 529 C103 526 79 523 73 502 C69 488 73 475 73 457 C73 444 74 431 74 418 C75 401 71 384 70 367 C67 329 60 293 61 251 C60 236 59 220 57 205 C56 177 55 179 53 152 C53 142 52 133 52 125 C52 111 53 99 56 81 C60 68 62 36 69 25 C82 7 94 -1 122 -4 C134 -6 147 7 152 18 C158 28 156 45 155 58 C154 75 151 102 152 118 C155 149 159 166 161 202 C234 223 324 246 400 242 C412 245 446 252 446 277 C446 285 444 303 433 310 C417 320 400 328 384 329 C365 330 334 329 317 326 C286 322 231 308 201 302 C190 300 178 296 166 294 C166 302 166 309 167 318 C168 344 174 420 176 448 C218 450 270 480 311 486 C355 493 400 488 445 479 C461 483 474 495 478 510 L478 510 Z " />
<glyph glyph-name="g" unicode="g" horiz-adv-x="769" d="M648 552 C624 568 572 585 546 586 C480 590 391 578 335 545 C218 489 48 349 40 213 C37 166 59 108 99 73 C137 39 200 0 244 -5 C273 -9 290 -15 319 -15 C360 -12 397 -7 436 2 C478 7 571 49 600 70 C651 109 707 150 723 214 C726 228 711 268 702 281 C690 301 677 315 660 323 C644 330 625 336 609 340 C578 346 547 349 519 349 C461 349 406 337 353 311 C338 303 304 277 299 256 C295 241 299 234 310 217 C320 203 339 200 352 204 C369 208 391 220 406 232 C429 254 445 258 477 262 C488 262 500 263 511 263 C540 263 587 256 610 236 C570 149 419 92 338 76 C281 65 173 87 156 149 C152 159 151 172 151 183 C151 200 153 216 158 228 C168 251 229 335 246 350 C304 409 383 444 455 471 C479 480 573 499 573 499 C573 499 624 471 642 459 C664 444 679 440 698 440 C710 440 711 438 719 451 C731 466 721 484 709 503 C695 521 667 539 648 552 L648 552 Z " />
<glyph glyph-name="h" unicode="h" horiz-adv-x="554" d="M510 514 C510 529 508 543 498 556 C484 577 466 587 447 587 C437 587 405 542 400 530 C394 511 394 469 392 449 C388 423 384 379 381 346 C367 353 345 353 327 353 C305 353 285 350 264 348 C243 345 203 340 180 334 C180 354 179 371 179 391 C179 409 184 424 188 440 C192 459 201 482 197 500 C195 519 175 546 157 555 C133 567 118 556 105 541 C77 511 79 461 69 421 C62 397 61 371 61 346 C61 328 62 310 61 292 C66 253 54 209 58 171 C60 150 59 107 61 87 C62 72 70 53 76 38 C81 26 89 7 105 1 C119 -5 133 4 142 13 C154 24 162 32 162 49 C164 71 167 105 167 127 C166 153 169 213 172 238 C186 242 198 246 203 247 C237 253 292 257 327 262 C342 264 356 266 371 267 C371 243 366 216 366 176 C366 164 366 138 367 125 C369 92 367 55 379 20 C383 9 403 -3 415 -10 C427 -17 436 -24 447 -16 C458 -5 462 7 466 22 C470 44 472 66 473 88 C479 141 479 195 482 249 C483 278 488 304 490 333 C490 356 492 380 497 403 C504 424 510 491 510 514 L510 514 Z " />
<glyph glyph-name="i" unicode="i" horiz-adv-x="228" d="M66 336 C62 293 53 251 56 206 C58 172 54 97 60 61 C65 41 71 20 88 7 C107 -9 150 5 161 45 C167 66 161 93 162 116 C162 147 165 195 165 227 C165 269 170 312 173 354 C176 398 187 462 195 505 C199 524 183 550 161 554 C150 555 152 556 142 554 C131 551 110 540 103 529 C88 507 83 483 81 454 C76 420 68 369 66 336 L66 336 Z " />
<glyph glyph-name="j" unicode="j" horiz-adv-x="607" d="M581 512 C587 526 587 524 576 540 C553 576 484 571 453 574 C412 579 350 564 308 557 C265 548 225 534 183 523 C159 516 150 506 148 482 C146 457 217 449 237 449 C254 449 284 450 296 455 C316 461 331 472 355 475 C355 421 367 301 372 244 C375 205 380 164 381 122 C346 100 244 59 204 58 C191 56 157 51 146 56 C142 97 163 218 86 232 C50 237 37 208 37 179 C37 149 39 120 39 87 C39 52 72 23 103 3 C124 -11 154 -25 180 -24 C233 -24 289 -15 342 -7 C378 -2 427 21 461 38 C480 47 482 61 483 81 C482 144 480 162 475 242 C474 286 466 398 462 449 C461 461 458 474 456 487 C477 487 499 491 527 491 C553 491 570 491 581 512 L581 512 Z " />
<glyph glyph-name="k" unicode="k" horiz-adv-x="595" d="M530 491 C537 519 548 531 493 550 C471 554 451 553 438 544 C424 532 410 519 395 507 C365 478 330 447 297 416 C267 389 206 338 176 316 C179 365 185 469 168 517 C162 534 138 546 112 551 C101 553 89 551 83 546 C66 536 66 516 68 493 C69 478 71 462 71 451 C68 395 59 340 55 281 C54 249 53 217 55 183 C58 146 63 107 77 68 C85 50 84 27 101 11 C111 2 128 2 139 2 C147 2 156 4 162 7 C175 12 186 24 183 39 C179 69 172 95 169 124 C168 132 165 160 166 169 C189 188 226 211 252 231 C343 184 367 124 468 53 C474 44 519 11 529 11 C538 11 551 12 559 16 C576 24 567 37 564 55 C559 72 552 90 537 106 C517 136 474 169 443 193 C408 219 365 271 328 301 C346 316 366 332 373 337 C417 369 460 409 496 447 C508 459 525 474 530 491 L530 491 Z " />
<glyph glyph-name="l" unicode="l" horiz-adv-x="486" d="M71 353 C60 302 54 214 53 161 C51 138 50 116 51 92 C51 74 53 52 55 36 C59 21 72 -2 85 -11 C94 -17 101 -19 109 -19 C117 -19 126 -16 135 -15 C173 -7 206 12 244 21 C292 31 347 46 398 50 C412 51 435 50 447 59 C453 64 456 78 456 91 C456 126 374 127 354 123 C297 110 212 114 158 96 C154 114 159 135 161 153 C164 207 172 309 182 366 C188 397 196 425 196 457 C196 497 207 523 179 557 C169 569 145 577 133 577 C91 577 90 558 93 523 C93 517 94 510 94 502 C94 449 82 403 71 353 L71 353 Z " />
<glyph glyph-name="m" unicode="m" horiz-adv-x="734" d="M60 177 C49 155 26 54 37 30 C52 0 90 -23 112 -15 C145 -4 156 105 166 138 C173 164 182 190 190 217 C201 253 207 287 228 317 C252 251 279 185 292 113 C295 94 298 55 305 36 C311 16 311 15 331 4 C340 0 352 -3 363 -3 C372 -3 391 -10 398 -5 C414 5 418 22 424 39 C462 149 488 238 543 345 C557 298 571 252 586 193 C592 172 599 154 610 90 C613 71 614 19 632 5 C644 -5 655 -17 670 -15 C693 -13 699 20 699 55 C699 83 696 111 692 124 C676 182 665 257 643 315 C615 391 617 447 581 532 C572 550 535 577 514 578 C465 554 454 444 429 381 C411 333 374 249 354 204 C343 271 326 334 313 396 C311 415 308 440 303 459 C302 469 298 483 293 492 C289 499 281 506 275 512 C257 530 235 537 215 534 C179 529 149 438 137 405 C119 354 104 300 87 250 C77 226 70 201 60 177 L60 177 Z " />
<glyph glyph-name="n" unicode="n" horiz-adv-x="555" d="M66 254 C66 211 50 172 50 126 C50 116 51 106 53 95 C58 71 71 -5 105 -14 C117 -17 150 -12 156 -3 C165 8 164 34 164 48 C166 116 175 231 175 307 C175 321 176 335 179 347 C236 264 303 158 347 70 C354 56 363 35 377 22 C437 -18 460 7 475 55 C490 101 497 160 497 215 C497 298 503 396 519 483 C519 490 520 500 520 508 C520 517 519 526 519 534 C518 551 496 571 482 582 C465 596 449 595 432 587 C399 568 395 500 395 455 C395 447 395 438 395 429 C397 361 387 258 372 206 C326 264 303 306 269 366 C258 386 248 405 238 425 C233 435 182 525 173 533 C162 544 131 550 117 551 C101 551 81 537 72 526 C63 513 65 498 66 483 C67 460 66 438 68 415 C71 399 67 385 67 370 C67 342 66 316 66 254 L66 254 Z " />
<glyph glyph-name="o" unicode="o" horiz-adv-x="705" d="M667 391 C661 411 650 438 638 455 C625 473 613 490 596 507 C583 523 565 545 547 556 C541 563 529 564 519 569 C510 575 502 581 492 582 C452 586 422 580 387 569 C362 563 342 547 320 537 C283 522 249 501 221 476 C208 462 195 452 183 439 C166 421 148 405 134 387 C122 370 110 357 100 342 C78 309 52 279 44 241 C38 217 36 189 40 160 C42 146 46 132 52 119 C68 78 80 51 112 25 C130 13 149 7 167 -2 C202 -14 321 -21 353 -10 C374 -4 396 2 416 13 C436 24 457 35 477 43 C499 55 518 69 538 82 C574 103 603 143 621 178 C628 189 631 200 637 211 C652 241 671 267 678 302 C681 312 680 325 680 336 C680 354 672 372 667 391 L667 391 Z M570 301 C557 265 532 212 503 190 C490 179 473 162 457 153 C402 126 355 89 296 82 C277 79 182 80 182 80 C182 80 112 161 156 229 C167 247 173 265 187 282 C209 312 250 359 277 379 C300 401 317 415 340 428 C366 444 396 453 423 463 C437 469 490 483 490 483 C490 483 525 460 532 455 C588 410 584 364 570 301 L570 301 Z " />
<glyph glyph-name="p" unicode="p" horiz-adv-x="549" d="M496 500 C483 511 471 523 458 532 C433 547 380 577 354 579 C329 579 318 578 295 577 C268 576 229 573 203 569 C155 564 148 563 106 539 C93 531 77 523 66 514 C59 507 59 502 58 492 C55 462 54 421 54 393 C54 366 54 339 55 311 C57 285 52 260 54 236 C55 217 57 198 58 179 C59 165 60 145 60 126 C60 106 59 87 58 74 C55 56 64 7 85 -8 C91 -10 99 -10 106 -10 C126 -13 144 5 149 19 C165 63 167 100 167 134 C166 155 167 166 170 185 C196 186 243 194 271 200 C312 210 354 227 389 245 C437 275 490 318 511 373 C518 391 524 412 524 431 C524 454 516 486 496 500 L496 500 Z M303 302 C279 294 266 285 241 279 C230 277 205 277 193 275 C182 274 175 269 166 264 C164 274 163 284 163 293 C163 324 166 365 166 393 C166 400 168 465 168 465 C168 465 289 490 301 490 C329 492 328 491 356 490 C382 489 390 475 415 472 C424 392 369 329 303 302 L303 302 Z " />
<glyph glyph-name="q" unicode="q" horiz-adv-x="723" d="M628 481 C577 546 547 553 468 559 C459 560 451 561 442 561 C422 561 403 558 384 556 C356 551 326 551 299 545 C274 537 254 526 234 511 C196 483 160 457 126 424 C85 385 60 330 50 274 C46 251 41 234 41 213 C41 205 42 197 43 187 C54 130 118 55 181 38 C217 27 217 24 254 18 C327 -1 413 43 468 59 C475 47 481 33 486 21 C493 6 535 -50 547 -50 C562 -50 566 -47 571 -36 C575 -26 579 -13 576 -1 C566 37 550 71 534 107 C580 135 634 163 658 216 C677 260 683 306 685 359 C683 404 658 442 628 481 L628 481 Z M558 263 C544 235 518 208 486 201 C459 244 439 259 400 285 C390 291 388 295 377 295 C366 294 352 291 343 286 C307 266 354 230 363 217 C379 188 394 183 408 157 C385 142 336 126 316 125 C284 122 139 104 139 162 C138 185 152 262 162 279 C183 315 236 388 275 412 C311 433 363 466 410 470 C420 472 431 472 442 472 C451 472 462 472 472 470 C510 466 561 453 584 421 C584 376 573 295 558 263 L558 263 Z " />
<glyph glyph-name="r" unicode="r" horiz-adv-x="589" d="M553 473 C540 496 530 514 513 532 C496 549 477 557 457 565 C401 591 315 585 261 574 C217 568 178 557 135 539 C119 531 99 523 86 510 C81 504 77 498 77 489 C74 475 71 462 66 448 C53 381 58 308 55 240 C54 217 54 189 53 159 C53 105 55 47 86 9 C107 -17 168 7 170 36 C172 58 158 115 159 138 C159 153 159 176 159 176 L256 196 C256 196 309 143 337 116 C351 101 403 44 419 31 C442 11 443 -7 472 -12 C486 -15 508 -15 515 -7 C523 2 523 13 520 25 C517 39 516 47 509 60 C483 102 449 139 409 185 C389 204 385 207 354 239 C430 271 486 303 534 364 C547 381 557 398 561 419 C566 440 567 450 553 473 L553 473 Z M324 334 C271 314 219 294 167 290 C167 345 183 398 179 447 C200 449 234 474 254 478 C298 489 395 492 434 486 C438 485 447 482 456 481 C455 428 374 355 324 334 L324 334 Z " />
<glyph glyph-name="s" unicode="s" horiz-adv-x="636" d="M600 473 C606 488 584 524 568 538 C536 571 511 580 469 594 C442 603 417 608 392 608 C377 608 361 606 347 602 C296 586 181 529 148 483 C134 468 117 451 105 432 C89 410 77 388 71 358 C65 342 63 337 63 323 C63 310 65 296 78 279 C87 268 111 248 126 240 C146 228 185 216 207 214 C217 213 228 211 236 211 C274 211 275 219 310 226 C343 234 394 251 431 251 C441 251 461 244 473 242 C468 29 199 63 199 63 C199 63 130 99 82 149 C60 159 43 152 29 138 C19 125 32 91 40 77 C60 40 126 0 167 -8 C203 -15 212 -19 247 -19 C345 -22 450 -4 515 53 C559 92 586 147 581 224 C576 267 572 292 524 318 C496 333 464 347 435 347 C355 347 320 304 235 304 C224 304 187 331 179 336 C211 410 250 434 323 487 C345 504 435 528 435 528 C445 518 547 455 565 453 C589 453 592 454 600 473 L600 473 Z " />
<glyph glyph-name="t" unicode="t" horiz-adv-x="503" d="M406 484 C440 489 491 478 483 524 C479 544 456 558 440 566 C432 569 423 570 413 570 C399 570 383 568 372 566 C343 562 313 559 285 554 C251 547 217 546 183 542 C140 537 54 536 32 489 C27 479 33 471 38 461 C54 426 67 432 95 439 C117 444 131 449 152 453 C164 455 177 457 188 459 C183 434 181 386 179 360 C174 315 168 271 168 226 C168 182 168 126 173 81 C174 66 174 44 181 30 C191 12 207 2 224 2 C236 2 247 9 258 18 C263 20 268 25 271 30 C282 52 282 70 281 92 C279 132 280 173 280 227 C280 258 277 290 281 323 C288 364 293 432 304 472 C314 474 329 474 339 477 C361 479 383 482 406 484 L406 484 Z " />
<glyph glyph-name="u" unicode="u" horiz-adv-x="538" d="M303 95 C264 81 179 84 179 84 L172 137 C169 167 166 229 166 265 C166 334 175 419 183 496 C187 517 166 532 148 545 C138 551 124 558 112 551 C72 533 74 467 68 426 C64 397 62 370 62 341 C62 324 63 308 64 290 C69 216 62 135 87 58 C99 18 147 -6 184 -7 C230 -9 263 1 305 8 C318 11 330 12 341 12 C375 12 451 17 476 47 C485 59 489 79 489 103 C489 151 475 215 474 244 C473 271 468 313 467 340 C466 367 472 393 474 420 C475 443 475 465 479 488 C482 505 489 526 485 542 C477 570 456 580 434 580 C417 580 410 574 398 566 C373 551 371 516 371 483 C371 472 371 461 371 451 C370 409 370 366 370 324 C370 309 369 281 369 268 C369 226 369 158 374 117 C374 117 332 107 303 95 L303 95 Z " />
<glyph glyph-name="v" unicode="v" horiz-adv-x="520" d="M94 200 C109 155 131 110 147 65 C153 47 162 27 174 10 C186 -6 222 -20 240 -21 C261 -21 306 79 315 99 C324 118 332 137 340 155 C365 206 379 261 404 313 C428 362 462 441 482 491 C486 501 501 526 497 539 C495 551 462 574 451 574 C434 577 419 574 409 564 C394 553 376 539 368 522 C351 483 333 408 315 369 C299 335 286 296 270 262 C254 230 232 167 212 146 C197 169 185 210 176 242 C168 269 163 298 157 327 C149 376 134 427 134 474 C136 492 135 528 122 545 C110 557 97 556 80 557 C63 554 50 550 41 534 C31 518 43 476 45 456 C48 430 51 402 54 375 C63 316 76 257 94 200 L94 200 Z " />
<glyph glyph-name="w" unicode="w" horiz-adv-x="734" d="M78 390 C94 342 109 293 123 245 C129 221 138 173 142 150 C146 126 146 101 151 77 C156 57 166 41 186 26 C199 17 205 19 218 14 C252 1 258 30 269 66 C275 90 279 112 286 136 C303 193 335 246 359 303 C393 255 415 133 445 83 C468 45 469 53 517 27 C547 13 567 61 577 117 C586 166 597 212 612 257 C630 309 644 361 671 407 C687 433 705 470 705 505 C705 515 703 524 700 534 C693 554 677 576 654 574 C644 574 633 568 626 564 C604 551 590 518 581 492 C570 466 557 441 547 415 C524 361 506 276 486 220 C456 253 439 334 426 385 C415 432 415 466 394 529 C388 547 371 571 351 574 C327 577 292 562 284 545 C277 526 281 502 278 483 C274 461 269 413 263 392 C247 345 238 291 212 251 C197 300 180 376 161 440 C145 483 142 541 86 557 C65 563 43 539 33 525 C21 508 41 488 49 467 C60 442 70 415 78 390 L78 390 Z " />
<glyph glyph-name="x" unicode="x" horiz-adv-x="526" d="M484 495 C491 504 503 520 503 540 C503 563 486 574 465 584 C456 588 451 592 445 592 C433 592 428 597 417 592 C395 583 382 557 368 535 C334 488 291 431 255 383 C247 398 236 421 230 436 C212 472 201 511 183 547 C173 557 161 562 149 562 C139 562 140 561 133 555 C118 545 105 531 109 510 C122 439 153 367 192 304 C187 295 183 287 177 279 C133 225 75 162 40 98 C32 83 25 64 31 43 C37 25 43 16 60 7 C68 2 79 2 90 2 C138 2 131 17 152 53 C184 109 207 138 258 208 C263 201 273 183 277 177 C307 132 341 89 385 58 C406 44 423 26 447 20 C464 15 478 18 482 34 C492 75 451 103 422 138 C400 166 376 195 354 224 C341 240 326 271 313 290 C360 336 394 385 435 436 C452 454 468 476 484 495 L484 495 Z " />
<glyph glyph-name="y" unicode="y" horiz-adv-x="497" d="M469 486 C473 495 474 504 474 512 C474 528 469 542 458 555 C451 565 428 576 417 580 C405 583 375 576 370 568 C359 552 355 537 350 524 C337 485 339 478 326 449 C311 415 287 364 266 330 C228 377 201 404 173 449 C156 478 149 488 126 522 C118 533 99 551 86 551 C58 554 28 547 35 511 C40 485 41 481 55 456 C74 424 89 410 109 381 C119 367 154 339 166 324 C184 299 204 274 226 243 C217 225 179 158 169 139 C154 104 133 70 142 29 C145 13 151 -4 167 -13 C174 -15 185 -17 196 -17 C207 -17 217 -15 222 -12 C234 -4 235 17 241 30 C250 46 259 64 268 79 C280 99 290 121 300 142 C312 165 324 182 336 205 C350 231 361 245 377 275 C384 290 394 319 401 335 C422 387 450 434 469 486 L469 486 Z " />
<glyph glyph-name="z" unicode="z" horiz-adv-x="514" d="M198 561 C170 559 93 542 78 515 C72 501 69 490 70 474 C72 453 79 455 100 451 C120 449 186 467 203 473 C231 484 267 483 303 483 C314 483 325 487 337 484 C249 398 199 292 117 205 C99 185 80 165 66 141 C57 123 35 98 40 75 C44 56 70 22 84 8 C99 -6 123 -9 141 -10 C204 -18 277 26 343 30 C380 32 379 21 409 25 C432 27 439 36 454 49 C468 61 465 67 462 80 C460 97 453 98 437 104 C408 116 383 121 359 121 C341 121 324 118 303 115 C266 109 196 104 159 91 C223 200 320 285 395 388 C411 405 442 439 459 455 C473 466 475 478 477 496 C478 519 452 555 430 563 C388 579 357 573 317 573 C308 573 301 572 292 571 C261 569 229 565 198 561 L198 561 Z " />
<glyph glyph-name="braceleft" unicode="&#x7b;" horiz-adv-x="503" d="M209 226 C184 223 160 216 134 214 C96 211 58 212 38 244 C21 271 48 287 75 300 C99 308 145 306 176 309 C195 311 217 314 236 315 C258 317 320 308 339 294 C350 285 356 264 351 256 C341 240 317 232 295 231 C266 229 237 228 209 226 L209 226 Z M296 533 C265 559 215 580 177 581 C156 581 149 573 149 559 C149 544 164 532 176 516 C190 497 207 489 227 478 C253 466 276 446 302 430 C335 410 356 388 390 384 C407 381 422 381 433 393 C436 398 435 401 433 408 C423 469 339 497 296 533 L296 533 Z M276 104 C249 68 216 68 195 16 C189 2 193 -9 207 -25 C214 -33 223 -44 232 -48 C249 -56 265 -47 276 -42 C293 -36 355 9 364 21 C378 43 390 65 403 88 C409 100 407 124 388 139 C377 148 372 156 361 156 C347 156 285 115 276 104 L276 104 Z " />
<glyph glyph-name="bar" unicode="&#x7c;" horiz-adv-x="216" d="M173 404 C174 414 174 423 174 432 C174 444 174 454 174 465 C174 474 174 483 175 492 C177 516 184 545 181 566 C181 587 177 608 162 627 C150 642 123 671 105 670 C89 670 71 648 71 630 C72 605 73 580 74 558 C75 491 67 427 63 362 C59 321 51 283 47 241 C46 228 45 215 45 200 C45 176 47 150 48 126 C50 91 59 53 65 18 C69 -9 72 -42 84 -68 C92 -83 112 -106 127 -102 C141 -100 171 -77 173 -63 C173 -56 168 -41 167 -32 C167 -22 164 -13 162 -3 C159 19 156 41 155 64 C154 75 154 87 154 98 C154 145 158 192 158 240 C158 293 171 351 173 404 L173 404 Z " />
<glyph glyph-name="braceright" unicode="&#x7d;" horiz-adv-x="497" d="M100 374 C109 366 123 370 133 370 C156 368 174 377 193 388 C202 393 210 399 218 404 C241 418 261 432 281 448 C298 461 310 472 327 485 C334 491 338 496 340 506 C342 515 352 523 348 532 C344 537 324 554 319 558 C310 564 301 567 292 567 C280 567 268 563 258 560 C236 555 215 545 198 531 C188 523 179 515 168 506 C144 483 111 462 96 430 C93 423 89 411 89 399 C89 390 91 381 100 374 L100 374 Z M456 302 C449 310 423 319 412 321 C397 325 383 326 369 325 C342 322 315 317 290 313 C241 302 181 306 175 257 C174 244 187 236 204 228 C224 217 235 218 252 222 C283 228 317 226 349 229 C383 234 424 240 447 257 C456 263 465 291 456 302 L456 302 Z M257 41 C219 70 195 88 157 117 C142 129 123 147 106 142 C93 139 82 134 83 120 C84 97 94 71 112 52 C135 26 145 20 174 2 C202 -17 233 -47 264 -56 C277 -59 310 -56 318 -46 C327 -33 310 -8 298 6 C287 19 270 30 257 41 L257 41 Z " />
<glyph glyph-name="asciitilde" unicode="&#x7e;" horiz-adv-x="480" d="M103 367 C83 354 65 335 49 316 C39 303 25 277 31 255 C37 234 54 221 74 216 C92 210 99 217 110 228 C123 243 192 299 209 268 C226 239 229 204 247 173 C257 157 268 146 283 142 C298 138 312 137 327 138 C371 143 377 152 407 181 C437 208 450 241 450 288 C450 304 447 320 439 336 C435 343 433 351 427 356 C415 370 394 385 381 370 C372 360 372 345 368 332 C365 318 322 240 297 255 C283 263 273 298 267 313 C261 323 257 333 252 342 C246 351 241 358 235 365 C218 393 190 404 165 404 C137 404 129 385 103 367 L103 367 Z " />
<glyph glyph-name="exclamdown" unicode="&#xa1;" horiz-adv-x="341" d="M223 585 C204 585 113 574 113 538 C113 525 118 513 134 506 C146 500 161 500 173 500 C186 499 201 497 215 497 C230 497 245 500 255 511 C268 521 302 535 302 559 C300 577 281 582 265 587 C252 592 235 587 223 585 L223 585 Z M65 31 C80 13 88 1 99 1 C107 1 115 4 124 9 C176 38 173 101 194 154 C213 199 213 199 231 245 C242 270 278 377 258 394 C233 416 217 437 199 421 C184 406 160 365 150 347 C135 324 123 267 112 241 C87 180 74 165 53 101 C43 72 41 63 65 31 L65 31 Z " />
<glyph glyph-name="cent" unicode="&#xa2;" horiz-adv-x="466" d="M394 358 C394 370 381 401 373 411 C358 431 337 447 317 464 C313 466 309 469 305 472 C306 488 311 541 310 557 C309 581 304 598 277 614 C251 632 237 614 229 596 C219 574 212 512 210 486 C186 482 165 472 150 459 C92 406 36 303 36 220 C36 194 41 167 57 145 C78 112 102 92 135 70 C156 57 194 47 223 44 C223 25 218 7 218 -15 C218 -27 218 -38 225 -48 C243 -72 268 -79 288 -67 C305 -58 314 3 315 24 C315 34 315 44 315 53 C358 64 394 86 428 107 C443 115 445 128 435 147 C424 168 408 173 388 177 C380 178 371 179 362 179 C348 179 333 177 320 173 L270 159 C257 157 245 155 215 157 C199 158 161 164 144 167 C140 221 176 376 261 376 C273 376 287 370 304 358 C327 342 351 322 370 327 C385 330 394 342 394 358 L394 358 Z " />
<glyph glyph-name="sterling" unicode="&#xa3;" horiz-adv-x="544" d="M450 418 C454 426 456 436 456 447 C456 456 455 466 451 473 C445 489 433 508 422 517 C406 531 388 540 370 550 C351 560 335 568 315 576 C288 587 258 600 229 600 C218 600 206 597 195 591 C183 581 161 565 154 551 C149 540 147 527 147 513 C147 482 152 452 156 417 C160 392 156 364 156 338 C156 330 156 321 157 313 C141 304 120 313 101 312 C71 308 62 281 63 249 C63 234 93 220 106 219 C114 222 145 228 152 229 C148 209 135 161 123 141 C104 141 73 143 58 125 C43 109 37 87 34 64 C30 40 36 47 54 25 C71 6 88 2 110 1 C144 -4 172 14 190 36 C215 29 232 9 257 -2 C273 -9 291 -15 308 -20 C316 -22 325 -23 334 -23 C365 -23 400 -10 427 0 C461 11 502 35 504 61 C505 79 513 97 496 109 C485 115 472 120 460 120 C450 120 441 117 436 111 C413 84 401 75 360 70 C351 68 341 66 330 66 C320 66 311 67 303 70 C281 75 237 104 216 117 C216 117 252 219 257 239 C278 240 311 239 333 237 C350 236 378 234 389 248 C395 257 409 272 408 285 C407 303 377 323 363 325 C343 329 320 329 300 330 C291 330 269 331 261 330 C261 358 261 387 260 408 C259 435 253 473 261 499 C296 504 348 471 374 449 C388 436 392 415 413 414 C430 414 445 404 450 418 L450 418 Z " />
<glyph glyph-name="currency" unicode="&#xa4;" horiz-adv-x="541" d="M297 467 C280 467 253 463 239 458 C234 456 230 454 226 453 C213 483 202 516 188 546 C178 555 166 560 154 560 C145 560 149 558 141 552 C127 542 114 529 117 507 C123 474 133 443 146 410 C138 403 130 395 124 387 C105 356 79 318 79 274 C79 267 80 260 81 253 C86 228 98 196 111 175 C88 147 67 118 51 89 C43 74 36 54 43 34 C49 16 57 1 75 -9 C82 -13 77 -8 88 -8 C136 -8 127 8 151 43 C164 63 179 81 190 99 C191 98 194 98 195 98 C205 95 230 87 237 87 C247 87 255 89 265 91 C289 97 313 100 334 109 C352 89 371 70 393 56 C414 41 431 24 455 18 C473 13 495 17 499 33 C509 75 457 92 428 126 L402 158 C412 172 431 197 441 211 C464 242 491 281 491 325 C492 361 458 398 430 421 L436 427 C453 445 469 466 485 486 C510 523 502 568 474 581 C464 585 457 586 449 586 C434 586 412 572 406 561 C402 551 397 542 392 534 C376 510 358 488 340 465 C332 468 305 467 297 467 L297 467 Z M381 314 L355 262 C351 253 344 245 337 235 C331 229 326 222 320 213 C305 199 287 189 269 179 C250 171 202 164 187 176 C174 185 152 216 158 234 C160 240 171 267 173 272 C189 305 216 336 248 352 C260 358 342 376 351 373 C373 370 386 355 390 339 C388 329 383 322 381 314 L381 314 Z " />
<glyph glyph-name="yen" unicode="&#xa5;" horiz-adv-x="466" d="M422 537 C418 551 416 563 402 573 C388 583 383 590 369 587 C331 581 326 550 310 512 C306 501 303 489 299 478 C283 444 271 410 249 370 C238 352 222 325 212 305 C207 310 194 328 190 334 C168 368 155 407 139 443 C127 470 122 501 105 527 C96 540 88 554 72 560 C56 568 58 562 48 554 C33 542 28 524 28 505 C28 490 37 466 42 452 C51 427 59 410 69 385 C81 358 103 333 116 306 C119 299 122 293 126 285 C115 284 86 279 74 277 C65 274 48 273 41 268 C32 262 21 228 27 219 C37 202 57 204 69 204 C82 204 93 206 104 207 C122 209 139 211 156 211 C156 197 156 162 156 149 C129 146 103 141 74 142 C42 143 34 131 35 105 C36 88 68 70 86 70 C111 70 137 77 167 79 C169 64 170 22 175 7 C184 -19 217 -43 241 -38 C255 -36 275 -31 282 -20 C290 -9 286 3 282 16 C279 30 275 70 275 82 C295 82 321 81 342 81 C358 81 376 90 385 99 C394 109 399 112 388 126 C377 141 351 154 336 153 C326 152 316 152 306 152 C296 152 280 152 271 152 C271 160 271 189 271 198 C275 204 280 209 284 214 C311 214 345 212 374 209 C389 206 415 207 426 216 C440 226 443 223 443 240 C443 265 437 267 416 279 C399 289 358 293 337 295 C367 342 381 394 411 451 C420 467 426 487 426 507 C426 517 425 527 422 537 L422 537 Z " />
<glyph glyph-name="brokenbar" unicode="&#xa6;" horiz-adv-x="190" d="M150 461 C147 489 153 521 147 551 C142 572 143 591 122 603 C115 608 109 607 100 607 C91 606 76 605 69 601 C59 596 59 591 56 585 C54 577 50 568 49 562 C48 554 52 545 52 538 C54 502 55 466 52 430 C49 398 43 347 51 319 C54 304 61 298 79 296 C95 293 114 293 125 309 C135 324 144 338 147 353 C150 363 152 371 153 380 C156 408 151 436 150 461 L150 461 Z M36 -22 C37 -30 49 -40 56 -47 C71 -63 100 -61 117 -50 C128 -44 134 -35 139 -23 C144 -4 140 19 141 41 C143 64 142 89 142 113 C142 129 143 143 139 161 C134 177 129 208 120 221 C108 240 82 239 65 230 C51 223 41 216 37 200 C33 174 33 138 33 115 C34 82 35 52 34 22 C33 13 33 4 34 -5 C33 -10 33 -15 36 -22 L36 -22 Z " />
<glyph glyph-name="section" unicode="&#xa7;" horiz-adv-x="436" d="M388 546 C382 559 377 568 365 575 C337 595 309 599 277 608 C258 613 240 615 222 615 C189 615 157 608 126 599 C93 588 61 555 54 523 C45 490 63 449 93 420 C110 403 133 386 152 376 C133 357 92 331 98 298 C104 260 117 243 147 211 C174 182 228 162 258 142 C270 134 291 128 290 116 C287 87 248 68 224 65 C216 64 207 63 200 63 C192 63 185 64 176 68 C161 73 150 81 140 91 C129 103 123 112 117 124 C110 143 103 161 81 170 C42 183 20 145 31 113 C47 75 66 45 96 20 C118 1 144 -13 171 -22 C186 -27 206 -31 222 -32 C236 -34 275 -31 287 -27 C333 -16 358 -9 385 26 C397 40 399 59 403 75 C406 90 404 111 395 127 C385 150 360 184 335 196 C379 234 387 245 392 256 C398 269 398 281 394 297 C390 316 385 326 373 342 C348 379 316 392 279 410 C248 426 208 438 183 461 C178 465 169 472 167 477 C163 485 170 499 174 505 C189 517 212 521 233 521 C246 521 260 519 271 517 C288 515 301 510 316 496 C329 485 331 476 348 474 C363 473 375 476 385 483 C394 490 397 500 398 512 C398 523 394 534 388 546 L388 546 Z " />
<glyph glyph-name="dieresis" unicode="&#xa8;" horiz-adv-x="385" d="M147 735 C158 721 164 708 164 693 C164 685 162 676 157 668 C154 663 144 661 139 659 C130 656 77 648 68 648 C61 646 57 645 50 650 C37 661 29 677 25 692 C20 716 48 728 65 733 C71 736 123 744 130 744 C136 744 141 741 147 735 L147 735 Z M357 741 C350 750 335 758 326 763 C312 771 258 757 251 750 C241 743 232 736 224 728 C218 724 217 719 217 710 C217 700 221 683 232 675 C241 668 255 662 264 662 C280 663 337 685 348 693 C360 703 365 731 357 741 L357 741 Z " />
<glyph glyph-name="copyright" unicode="&#xa9;" horiz-adv-x="688" d="M614 456 C604 477 591 485 574 499 C543 525 513 554 474 566 C459 573 441 579 425 583 C395 590 366 594 338 594 C314 594 290 591 266 584 C218 568 181 549 150 510 C114 464 76 420 67 359 C64 333 54 308 53 282 C51 257 54 230 59 205 C73 118 151 22 243 12 C266 10 289 11 313 7 C334 5 359 13 380 19 C426 35 474 64 509 98 C528 115 549 133 563 156 C581 183 595 214 610 244 C622 270 632 296 638 326 C643 350 638 371 633 396 C629 417 623 437 614 456 L614 456 Z M540 355 C540 313 524 268 501 234 C487 215 475 193 459 175 C445 158 425 143 405 132 C371 115 331 102 289 102 C251 102 213 114 182 145 C168 160 159 172 154 191 C148 213 148 234 146 256 C143 307 161 349 185 390 C210 428 237 467 274 487 C282 492 346 519 353 520 C366 521 384 511 397 506 C411 501 426 496 440 487 C461 473 479 457 501 442 C513 432 529 422 536 406 C542 392 540 370 540 355 L540 355 Z M421 415 C426 409 434 388 434 381 C435 370 429 364 419 361 C396 356 362 405 339 393 C332 387 322 377 316 369 C309 359 287 331 283 319 C274 297 263 257 270 234 C280 233 291 228 303 226 C318 223 329 226 343 230 C365 235 387 244 411 239 C425 236 434 234 441 220 C448 207 447 200 438 194 C411 179 386 165 355 158 C342 155 328 155 314 154 C288 152 250 168 231 184 C219 194 211 205 202 218 C192 233 188 249 188 265 C188 287 195 309 200 326 C206 347 237 388 249 404 C259 418 266 433 280 444 C295 459 322 465 346 465 C358 465 375 457 386 449 C399 438 411 427 421 415 L421 415 Z " />
<glyph glyph-name="ordfeminine" unicode="&#xaa;" horiz-adv-x="439" d="M371 549 C354 569 327 574 307 574 C281 574 247 573 224 565 C192 556 161 544 135 524 C93 488 54 444 54 380 C53 354 69 301 100 284 C119 275 139 272 157 272 C174 272 192 274 207 277 C240 282 270 292 297 303 C309 283 324 238 356 244 C389 250 386 282 385 313 C384 324 383 336 383 347 C381 384 372 422 375 457 C377 472 383 487 382 501 C381 516 381 535 371 549 L371 549 Z M268 466 C270 455 270 386 270 386 C240 370 197 347 162 355 C151 404 223 490 264 490 C264 482 266 475 268 466 L268 466 Z " />
<glyph glyph-name="guillemotleft" unicode="&#xab;" horiz-adv-x="739" d="M688 457 C680 479 671 483 647 492 C607 503 586 468 567 448 C551 431 552 435 537 420 C505 387 470 358 429 332 C410 319 394 303 373 292 C354 279 345 270 341 245 C339 229 353 200 371 191 C390 182 412 177 431 171 C474 156 506 111 539 79 C558 59 564 53 589 50 C615 48 618 56 622 78 C629 118 582 163 548 190 C534 201 493 223 481 238 C518 273 565 305 603 339 C628 363 655 371 679 396 C689 407 695 416 695 429 C695 437 693 446 688 457 L688 457 Z M291 158 C258 188 206 210 172 238 C177 251 246 302 264 320 C295 353 331 386 360 417 C366 425 371 433 371 443 C371 452 366 461 357 473 C348 486 340 491 326 495 C288 505 269 465 252 446 C224 412 212 417 182 386 C146 348 94 327 52 296 C36 285 29 265 34 241 C36 232 41 217 48 209 C55 199 64 197 75 192 C99 180 124 169 149 157 C173 145 205 131 225 112 C244 97 260 71 280 57 C287 51 296 49 304 49 C346 49 348 72 337 104 C327 128 311 139 291 158 L291 158 Z " />
<glyph glyph-name="logicalnot" unicode="&#xac;" horiz-adv-x="645" d="M147 532 C139 532 128 532 118 532 C76 532 25 526 16 468 C9 434 59 436 84 438 C113 439 143 443 171 443 C248 443 297 433 369 423 C384 420 398 415 413 412 C432 407 484 407 484 407 C484 407 490 325 493 306 C495 289 490 223 486 200 C484 177 474 157 481 138 C487 118 508 115 529 115 C553 115 568 129 585 156 C594 171 609 268 606 293 C603 320 611 347 606 375 C602 398 603 398 598 421 C589 482 576 497 511 494 C475 491 445 503 412 508 C375 515 359 516 320 519 C281 523 249 532 207 530 C188 530 168 533 147 532 L147 532 Z " />
<glyph glyph-name="uni00AD" unicode="&#xad;" horiz-adv-x="382" d="M177 304 C150 299 117 302 88 291 C68 284 48 292 39 268 C36 261 37 255 38 245 C40 236 42 235 48 228 C60 205 90 213 112 216 C147 223 183 227 219 228 C251 228 303 228 331 239 C344 244 349 238 349 257 C350 274 348 285 331 295 C315 304 300 311 285 313 C275 315 266 316 258 316 C229 316 202 308 177 304 L177 304 Z " />
<glyph glyph-name="registered" unicode="&#xae;" horiz-adv-x="711" d="M578 531 C541 555 492 574 449 585 C427 590 405 593 383 592 C357 591 338 585 314 579 C291 574 270 571 247 562 C218 551 188 539 165 517 C125 483 99 440 77 392 C62 357 54 316 54 274 C54 225 66 175 89 132 C111 93 150 61 186 36 C225 8 279 -3 329 -3 C349 -3 368 -1 386 2 C406 6 439 9 473 27 C557 73 614 124 641 213 C651 245 661 293 661 342 C661 415 641 492 578 531 L578 531 Z M564 315 C559 286 558 253 544 228 C508 159 484 137 419 104 C399 94 374 93 353 89 C340 87 328 86 317 86 C304 86 293 87 280 88 C233 92 197 127 174 166 C153 197 145 236 145 273 C145 286 145 297 148 309 C152 336 157 362 170 385 C184 406 193 429 216 444 C231 457 265 482 280 488 C304 499 329 500 354 507 C362 510 369 515 378 517 C391 519 400 513 412 510 C425 505 437 499 450 495 C473 488 495 483 517 473 C531 467 548 456 556 443 C567 422 570 399 570 376 C570 355 567 334 564 315 L564 315 Z M417 439 C400 447 385 449 371 449 C344 449 320 438 297 426 C281 418 262 404 261 386 C259 365 257 345 255 323 C251 288 245 254 245 217 C244 209 243 200 243 191 C243 175 247 159 263 147 C274 139 296 138 303 147 C309 154 308 175 310 185 C313 199 317 213 320 227 C332 222 352 205 361 193 C372 181 382 161 395 150 C403 144 411 142 418 142 C438 142 452 160 445 183 C433 211 416 243 388 261 C400 264 416 265 428 269 C458 279 478 291 497 313 C505 326 507 336 499 354 C485 391 456 424 417 439 L417 439 Z M387 328 C368 322 348 317 330 313 C333 326 333 347 340 357 C345 363 359 366 367 370 C387 376 403 370 426 367 C429 351 399 332 387 328 L387 328 Z " />
<glyph glyph-name="macron" unicode="&#xaf;" horiz-adv-x="365" d="M310 755 C303 758 296 755 288 754 C275 751 262 748 247 748 C229 746 113 734 96 731 C82 729 68 727 55 721 C48 720 35 716 36 703 C36 697 36 685 39 678 C44 667 61 657 69 656 C75 653 82 657 88 658 C102 660 116 661 131 662 C157 665 282 677 309 682 C320 683 337 685 341 698 C343 706 346 725 342 736 C337 749 319 754 310 755 L310 755 Z " />
<glyph glyph-name="degree" unicode="&#xb0;" horiz-adv-x="343" d="M285 557 C272 573 258 579 243 591 C233 602 220 609 208 616 C188 629 169 633 150 633 C128 633 110 619 95 611 C80 602 69 585 59 569 C53 557 48 543 44 530 C39 516 37 504 37 492 C37 481 39 470 40 457 C42 447 43 440 48 430 C54 420 60 406 70 399 C81 389 95 379 107 374 C123 369 135 367 149 370 C178 373 192 376 219 387 C243 397 261 410 278 427 C285 435 295 443 297 454 C302 472 302 493 302 512 C302 525 297 543 285 557 L285 557 Z M188 472 C173 458 147 446 123 446 C125 473 129 497 144 517 C150 527 160 538 173 542 C184 546 206 528 219 525 C217 505 201 483 188 472 L188 472 Z " />
<glyph glyph-name="plusminus" unicode="&#xb1;" horiz-adv-x="577" d="M530 445 C533 465 533 474 507 487 C485 496 461 504 438 507 C424 510 410 511 397 511 C384 511 356 510 343 508 C343 517 343 527 343 536 C341 559 344 606 321 630 C305 646 287 674 265 680 C243 685 228 656 224 642 C218 630 221 613 222 599 C222 578 223 544 223 523 C223 513 223 502 222 491 C196 490 169 488 144 482 C112 473 82 485 65 458 C49 429 66 401 99 395 C123 389 144 388 169 395 C186 397 203 398 221 401 C221 378 224 341 227 318 C231 298 231 273 258 256 C268 248 289 234 301 233 C323 229 333 246 338 261 C341 272 339 287 338 301 C338 330 339 371 339 408 C386 409 462 411 499 421 C519 426 528 422 530 445 L530 445 Z M277 121 C244 116 207 118 173 109 C148 103 125 102 114 81 C111 75 112 69 113 61 C116 53 118 41 124 34 C131 24 136 26 145 24 C154 22 164 19 174 19 C182 19 192 23 201 24 C242 29 283 32 327 34 C363 35 425 35 458 44 C473 48 479 54 479 71 C481 87 478 104 459 112 C439 121 421 126 403 129 C392 130 381 131 371 131 C338 131 307 124 277 121 L277 121 Z " />
<glyph glyph-name="acute" unicode="&#xb4;" horiz-adv-x="291" d="M194 743 C155 731 99 691 64 670 C56 665 40 658 35 648 C34 645 36 636 38 632 C44 623 54 614 67 613 C78 612 91 614 103 619 C129 626 184 652 202 665 C212 674 253 693 255 710 C255 716 245 734 236 738 C226 742 204 745 194 743 L194 743 Z " />
<glyph glyph-name="mu" unicode="&#xb5;" horiz-adv-x="474" d="M59 495 C64 461 68 426 65 390 C65 372 68 354 68 337 C68 325 69 313 69 300 C69 287 68 275 67 262 C65 241 65 222 65 202 C65 183 65 164 63 145 C61 133 60 113 60 93 C60 72 61 51 64 39 C65 27 70 9 80 2 C93 -4 113 2 128 14 C168 45 157 98 161 134 C165 176 167 228 168 266 C213 223 263 195 326 222 C326 210 322 177 329 166 C336 149 343 142 366 138 C386 136 394 138 404 148 C414 159 419 183 420 197 C423 223 426 256 426 287 C426 300 425 313 424 325 C427 350 428 376 428 400 C428 422 427 445 425 466 C423 487 422 511 417 528 C413 541 410 559 400 569 C394 576 384 580 374 580 C355 580 344 569 330 546 C322 534 320 523 320 512 C317 488 326 465 326 444 C326 376 322 305 247 309 C243 309 172 358 167 358 C167 369 167 393 167 404 C167 415 167 427 167 438 C168 473 161 506 158 541 C157 559 157 574 140 580 C129 585 122 588 105 585 C88 580 71 558 65 542 C57 527 57 508 59 495 L59 495 Z " />
<glyph glyph-name="paragraph" unicode="&#xb6;" horiz-adv-x="807" d="M747 504 C785 514 788 545 761 567 C752 574 742 585 733 589 C722 592 709 590 700 589 C683 588 666 587 650 587 C620 587 589 589 559 590 C490 594 422 592 349 598 C339 598 329 599 319 600 C308 602 297 602 287 602 C261 602 232 598 205 595 C150 590 66 557 38 505 C33 495 32 486 32 476 C32 455 38 433 43 411 C49 384 65 358 92 340 C118 321 138 315 171 313 C184 312 197 311 211 311 C239 311 268 313 300 313 C297 296 292 287 292 274 C292 262 292 253 291 240 C290 233 289 224 289 216 C289 193 292 168 293 145 C296 112 304 -5 359 -20 C376 -24 386 -17 395 -7 C406 6 403 21 403 41 C402 69 400 98 400 125 C400 138 401 151 402 165 C406 202 404 231 407 269 C411 296 416 332 417 359 C420 396 432 458 432 498 C441 498 462 498 470 497 C496 494 524 493 551 493 C550 483 550 472 550 463 C550 454 550 424 550 415 C550 398 550 381 550 363 C550 349 550 335 549 320 C545 249 540 177 528 103 C525 90 528 66 530 53 C533 19 572 -11 599 -11 C612 -11 607 -4 612 10 C632 68 649 126 651 191 C654 240 658 289 658 338 C658 384 655 451 649 498 C660 502 689 503 704 503 C718 503 733 502 747 504 L747 504 Z M307 394 C305 394 161 380 161 431 C161 482 302 543 309 512 C315 482 309 394 307 394 L307 394 Z " />
<glyph glyph-name="periodcentered" unicode="&#xb7;" horiz-adv-x="250" d="M204 302 C192 320 172 326 151 326 C133 326 96 324 87 318 C73 309 68 290 59 277 C50 265 45 260 54 243 C59 234 70 218 79 215 C95 207 122 216 135 218 C160 222 214 246 214 272 C214 281 211 291 204 302 L204 302 Z " />
<glyph glyph-name="cedilla" unicode="&#xb8;" horiz-adv-x="268" d="M176 0 C147 23 121 39 84 30 C73 26 59 9 65 -5 C69 -16 88 -18 97 -23 C110 -31 122 -38 134 -48 C139 -53 157 -72 157 -72 C157 -72 127 -72 122 -72 C107 -70 83 -66 68 -70 C54 -75 36 -93 32 -109 C28 -127 62 -140 82 -147 C98 -152 112 -154 127 -154 C145 -154 161 -151 179 -146 C206 -136 224 -116 236 -90 C243 -72 225 -53 213 -37 C203 -23 190 -11 176 0 L176 0 Z " />
<glyph glyph-name="ordmasculine" unicode="&#xba;" horiz-adv-x="422" d="M353 488 C338 506 320 515 303 530 C290 544 275 551 259 561 C236 578 212 581 188 581 C162 581 139 565 121 554 C103 542 89 522 78 503 C69 489 64 472 59 454 C53 438 50 423 50 409 C50 395 53 381 54 366 C56 354 57 343 64 332 C70 319 79 304 90 294 C104 283 120 269 135 264 C155 257 169 256 187 258 C223 262 241 268 274 279 C303 292 324 307 345 329 C353 338 366 349 368 362 C373 384 373 409 373 432 C373 449 367 472 353 488 L353 488 Z M235 386 C214 365 178 349 144 349 C147 387 152 421 173 449 C184 462 196 478 214 485 C230 491 260 463 280 461 C276 432 254 402 235 386 L235 386 Z " />
<glyph glyph-name="guillemotright" unicode="&#xbb;" horiz-adv-x="747" d="M698 294 C703 272 695 250 679 239 C636 209 585 188 548 150 C529 128 502 114 479 94 C452 74 442 29 396 41 C382 45 363 60 353 73 C343 85 339 94 339 103 C339 113 343 120 351 129 C367 148 367 141 386 158 C409 181 441 197 462 221 C480 239 547 284 552 295 C518 324 459 346 428 375 C408 395 357 435 348 458 C339 484 341 485 360 496 C368 501 379 505 392 505 C400 505 409 504 416 499 C436 482 487 439 507 423 C527 404 558 391 581 379 C608 368 632 356 657 344 C668 339 677 337 683 327 C690 318 696 303 698 294 L698 294 Z M356 251 C377 262 385 272 389 297 C391 314 377 342 358 352 C339 360 317 365 298 371 C255 386 200 444 168 477 C149 497 143 502 116 505 C92 507 88 500 84 479 C76 440 146 381 181 355 C195 342 225 322 236 309 C200 273 167 244 128 210 C104 188 105 188 80 162 C69 151 65 142 65 131 C65 123 66 114 71 103 C80 79 82 81 105 74 C146 62 167 97 187 119 C229 163 251 179 300 210 C320 223 337 239 356 251 L356 251 Z " />
<glyph glyph-name="questiondown" unicode="&#xbf;" horiz-adv-x="536" d="M318 519 C327 514 385 520 397 521 C420 523 485 559 485 588 C486 595 472 609 467 612 C451 623 366 599 344 600 C337 601 323 601 315 596 C309 592 293 558 291 552 C287 540 307 523 318 519 L318 519 Z M295 331 C156 272 29 191 27 121 C14 84 46 60 58 48 C81 25 116 3 131 -7 C166 -32 252 -31 311 -19 C369 -8 506 82 470 148 C462 160 432 169 420 162 C404 153 395 146 384 130 C371 118 310 88 300 85 C249 72 202 54 125 79 C175 154 220 158 287 194 C355 229 390 240 451 301 C474 324 479 351 471 382 C471 382 458 439 424 445 C424 445 404 441 396 429 C386 413 392 406 386 392 C368 360 329 346 295 331 L295 331 Z " />
<glyph glyph-name="Agrave" unicode="&#xc0;" horiz-adv-x="585" d="M439 528 C425 553 389 591 359 585 C343 583 322 574 310 566 C300 558 287 551 277 545 C258 531 244 507 228 491 C172 443 133 381 103 319 C94 299 88 277 76 257 C53 211 32 127 33 80 C33 53 42 37 71 14 C83 2 90 5 99 13 C122 30 127 66 133 89 C138 104 141 122 145 138 C167 142 186 149 207 155 C243 163 337 182 376 186 C395 189 413 189 429 189 C431 177 433 166 435 155 C437 143 439 131 442 121 C445 105 454 63 462 48 C469 36 480 9 495 2 C507 -4 521 6 527 14 C536 25 544 36 545 50 C546 66 539 104 538 122 C538 159 525 201 516 234 C510 257 501 281 496 304 C488 346 477 387 468 429 C466 447 463 462 458 481 C453 495 447 513 439 528 L439 528 Z M390 275 C381 276 372 277 363 277 C343 277 306 268 286 264 C270 262 201 247 184 245 C197 285 228 334 254 367 C275 393 337 462 368 481 C383 441 414 305 414 272 C401 274 402 275 390 275 L390 275 Z M378 709 C366 715 354 719 343 727 C335 732 329 738 321 738 C310 739 295 732 289 726 C285 721 288 700 293 693 C299 685 309 678 316 671 C325 664 334 659 344 653 C364 642 400 628 429 624 C442 621 453 620 462 623 C473 627 475 638 473 648 C473 653 469 663 464 666 C460 670 451 673 446 676 C439 681 433 682 425 686 C409 693 394 701 378 709 L378 709 Z " />
<glyph glyph-name="Aacute" unicode="&#xc1;" horiz-adv-x="572" d="M439 528 C425 553 389 591 359 585 C343 583 322 574 310 566 C300 558 287 551 277 545 C258 531 244 507 228 491 C172 443 133 381 103 319 C94 299 88 277 76 257 C53 211 32 127 33 80 C33 53 42 37 71 14 C83 2 90 5 99 13 C122 30 127 66 133 89 C138 104 141 122 145 138 C167 142 186 149 207 155 C243 163 337 182 376 186 C395 189 413 189 429 189 C431 177 433 166 435 155 C437 143 439 131 442 121 C445 105 454 63 462 48 C469 36 480 9 495 2 C507 -4 521 6 527 14 C536 25 544 36 545 50 C546 66 539 104 538 122 C538 159 525 201 516 234 C510 257 501 281 496 304 C488 346 477 387 468 429 C466 447 463 462 458 481 C453 495 447 513 439 528 L439 528 Z M390 275 C381 276 372 277 363 277 C343 277 306 268 286 264 C270 262 201 247 184 245 C197 285 228 334 254 367 C275 393 337 462 368 481 C383 441 414 305 414 272 C401 274 402 275 390 275 L390 275 Z M469 745 C430 733 374 693 339 672 C331 667 315 660 310 650 C309 647 311 638 313 634 C319 625 329 616 342 615 C353 614 366 616 378 621 C404 628 459 654 477 667 C487 676 528 695 530 712 C530 718 520 736 511 740 C501 744 479 747 469 745 L469 745 Z " />
<glyph glyph-name="Acircumflex" unicode="&#xc2;" horiz-adv-x="572" d="M439 528 C425 553 389 591 359 585 C343 583 322 574 310 566 C300 558 287 551 277 545 C258 531 244 507 228 491 C172 443 133 381 103 319 C94 299 88 277 76 257 C53 211 32 127 33 80 C33 53 42 37 71 14 C83 2 90 5 99 13 C122 30 127 66 133 89 C138 104 141 122 145 138 C167 142 186 149 207 155 C243 163 337 182 376 186 C395 189 413 189 429 189 C431 177 433 166 435 155 C437 143 439 131 442 121 C445 105 454 63 462 48 C469 36 480 9 495 2 C507 -4 521 6 527 14 C536 25 544 36 545 50 C546 66 539 104 538 122 C538 159 525 201 516 234 C510 257 501 281 496 304 C488 346 477 387 468 429 C466 447 463 462 458 481 C453 495 447 513 439 528 L439 528 Z M390 275 C381 276 372 277 363 277 C343 277 306 268 286 264 C270 262 201 247 184 245 C197 285 228 334 254 367 C275 393 337 462 368 481 C383 441 414 305 414 272 C401 274 402 275 390 275 L390 275 Z M480 673 C474 680 468 685 462 692 C452 704 443 718 434 730 C429 737 423 750 417 755 C411 761 398 762 391 762 C378 762 373 757 366 752 C358 743 350 736 341 729 C327 717 316 702 301 689 C282 675 263 662 253 640 C253 623 262 616 276 612 C297 604 323 616 336 626 C348 635 357 644 368 654 C378 661 384 673 395 677 C405 668 411 661 419 651 C436 633 452 623 476 620 C481 619 490 625 493 629 C497 634 501 640 498 649 C495 658 486 665 480 673 L480 673 Z " />
<glyph glyph-name="Atilde" unicode="&#xc3;" horiz-adv-x="578" d="M439 528 C425 553 389 591 359 585 C343 583 322 574 310 566 C300 558 287 551 277 545 C258 531 244 507 228 491 C172 443 133 381 103 319 C94 299 88 277 76 257 C53 211 32 127 33 80 C33 53 42 37 71 14 C83 2 90 5 99 13 C122 30 127 66 133 89 C138 104 141 122 145 138 C167 142 186 149 207 155 C243 163 337 182 376 186 C395 189 413 189 429 189 C431 177 433 166 435 155 C437 143 439 131 442 121 C445 105 454 63 462 48 C469 36 480 9 495 2 C507 -4 521 6 527 14 C536 25 544 36 545 50 C546 66 539 104 538 122 C538 159 525 201 516 234 C510 257 501 281 496 304 C488 346 477 387 468 429 C466 447 463 462 458 481 C453 495 447 513 439 528 L439 528 Z M390 275 C381 276 372 277 363 277 C343 277 306 268 286 264 C270 262 201 247 184 245 C197 285 228 334 254 367 C275 393 337 462 368 481 C383 441 414 305 414 272 C401 274 402 275 390 275 L390 275 Z M295 769 C277 760 260 746 241 727 C234 720 225 703 227 690 C232 677 245 669 259 665 C272 663 277 667 284 674 C294 682 304 690 317 697 C328 702 338 711 346 698 C358 680 362 658 374 640 C380 630 388 623 400 620 C411 618 420 617 431 618 C463 621 478 626 499 644 C518 658 535 689 535 715 C535 724 533 733 529 740 C527 744 526 748 522 752 C516 756 510 757 505 759 C493 765 485 767 478 760 C472 754 472 745 469 737 C465 726 447 680 427 690 C412 698 405 728 395 744 C392 749 387 753 385 757 C367 782 332 787 313 777 C307 775 303 771 295 769 L295 769 Z " />
<glyph glyph-name="Adieresis" unicode="&#xc4;" horiz-adv-x="565" d="M439 528 C425 553 389 591 359 585 C343 583 322 574 310 566 C300 558 287 551 277 545 C258 531 244 507 228 491 C172 443 133 381 103 319 C94 299 88 277 76 257 C53 211 32 127 33 80 C33 53 42 37 71 14 C83 2 90 5 99 13 C122 30 127 66 133 89 C138 104 141 122 145 138 C167 142 186 149 207 155 C243 163 337 182 376 186 C395 189 413 189 429 189 C431 177 433 166 435 155 C437 143 439 131 442 121 C445 105 454 63 462 48 C469 36 480 9 495 2 C507 -4 521 6 527 14 C536 25 544 36 545 50 C546 66 539 104 538 122 C538 159 525 201 516 234 C510 257 501 281 496 304 C488 346 477 387 468 429 C466 447 463 462 458 481 C453 495 447 513 439 528 L439 528 Z M390 275 C381 276 372 277 363 277 C343 277 306 268 286 264 C270 262 201 247 184 245 C197 285 228 334 254 367 C275 393 337 462 368 481 C383 441 414 305 414 272 C401 274 402 275 390 275 L390 275 Z M302 691 C313 677 319 664 319 649 C319 641 317 632 312 624 C309 619 299 617 294 615 C285 612 232 604 223 604 C216 602 212 601 205 606 C192 617 184 633 180 648 C175 672 203 684 220 689 C226 692 278 700 285 700 C291 700 296 697 302 691 L302 691 Z M512 697 C505 706 490 714 481 719 C467 727 413 713 406 706 C396 699 387 692 379 684 C373 680 372 675 372 666 C372 656 376 639 387 631 C396 624 410 618 419 618 C435 619 492 641 503 649 C515 659 520 687 512 697 L512 697 Z " />
<glyph glyph-name="Aring" unicode="&#xc5;" horiz-adv-x="565" d="M446 662 C438 677 427 692 411 701 C394 711 377 717 360 721 C342 726 324 733 307 730 C288 727 280 712 270 699 C256 682 237 653 249 626 C258 604 279 575 303 565 C293 557 280 551 271 545 C252 531 238 507 222 491 C166 443 127 381 97 319 C88 299 82 277 70 257 C47 211 26 127 27 80 C27 53 36 37 65 14 C77 2 84 5 93 13 C116 30 121 66 127 89 C132 104 135 122 139 138 C161 142 180 149 201 155 C237 163 331 182 370 186 C389 189 407 189 423 189 C425 177 427 166 429 155 C431 143 433 131 436 121 C439 105 448 63 456 48 C463 36 474 9 489 2 C501 -4 515 6 521 14 C530 25 538 36 539 50 C540 66 533 104 532 122 C532 159 519 201 510 234 C504 257 495 281 490 304 C482 346 471 387 462 429 C460 447 457 462 452 481 C447 495 441 513 433 528 C424 542 409 562 391 574 C397 577 403 580 409 585 C427 595 441 607 450 625 C456 636 452 648 446 662 L446 662 Z M384 275 C375 276 366 277 357 277 C337 277 300 268 280 264 C264 262 195 247 178 245 C191 285 222 334 248 367 C269 393 331 462 362 481 C377 441 408 305 408 272 C395 274 396 275 384 275 L384 275 Z M360 629 C346 624 331 627 317 626 C316 636 315 642 320 648 C326 655 332 661 337 668 C352 665 369 658 383 651 C377 642 371 633 360 629 L360 629 Z " />
<glyph glyph-name="AE" unicode="&#xc6;" horiz-adv-x="866" d="M830 525 C783 546 728 546 681 547 C646 547 540 544 504 539 C483 534 461 529 441 525 C432 537 423 547 409 557 C397 565 398 567 383 567 C370 567 357 565 346 563 C285 551 231 506 194 465 C129 393 75 318 48 218 C40 184 31 151 29 113 C27 90 8 65 28 41 C46 17 56 11 78 15 C103 20 107 56 109 79 C111 99 115 133 120 152 C145 161 171 169 196 176 C243 189 316 195 357 195 C355 179 353 149 353 132 C354 116 350 98 350 79 C350 64 353 48 366 34 C375 23 394 13 407 9 C415 6 424 5 433 5 C449 5 464 8 472 14 C506 36 559 41 597 49 C655 61 685 70 753 81 C767 83 787 81 794 93 C802 104 807 123 797 138 C776 172 725 159 694 158 C652 157 587 141 545 136 C519 132 494 123 464 117 C461 126 460 135 460 144 C460 166 466 205 469 223 C492 234 511 239 534 245 C577 256 659 267 705 265 C721 265 734 263 749 259 C763 256 782 255 792 261 C803 268 812 279 817 292 C822 302 824 309 815 323 C795 347 753 340 727 342 C697 345 662 346 629 346 C568 346 522 337 466 316 C464 325 461 347 460 357 C460 372 464 427 464 427 C464 427 500 433 513 438 C555 455 655 449 704 453 C715 454 727 455 739 455 C748 455 755 454 764 454 C783 453 805 450 822 450 C837 452 846 469 847 483 C851 501 852 515 830 525 L830 525 Z M359 287 C330 291 257 272 227 270 C210 269 193 268 177 266 C208 343 299 424 359 463 C360 448 358 410 358 398 C358 376 357 356 357 336 C357 320 358 305 359 287 L359 287 Z " />
<glyph glyph-name="Ccedilla" unicode="&#xc7;" horiz-adv-x="626" d="M603 438 C609 466 589 512 566 539 C558 546 547 556 535 563 C524 569 515 574 507 577 C484 586 459 591 435 587 C269 557 153 467 69 309 C43 262 31 228 31 197 C31 185 28 166 29 153 C35 115 57 87 71 68 C110 15 186 1 256 -1 C260 -2 263 -4 267 -5 C280 -13 292 -21 304 -30 C309 -35 327 -54 327 -54 L292 -54 C277 -52 253 -48 238 -52 C224 -57 206 -75 202 -91 C198 -109 232 -123 252 -129 C268 -134 282 -136 297 -136 C315 -136 331 -133 349 -128 C376 -118 394 -98 406 -72 C413 -54 395 -35 383 -19 C376 -9 366 1 356 10 C377 14 397 19 412 25 C439 36 502 72 526 91 C540 101 563 121 564 137 C565 157 541 176 521 177 C498 177 486 174 467 163 C424 138 327 82 273 82 C246 82 149 103 126 115 C126 115 126 155 129 169 C134 189 143 216 147 229 C177 316 311 421 385 465 C401 475 472 504 472 504 C472 504 521 449 537 430 C551 412 564 405 583 411 C595 415 601 425 603 438 L603 438 Z " />
<glyph glyph-name="Egrave" unicode="&#xc8;" horiz-adv-x="567" d="M64 407 C64 380 65 354 65 328 C65 268 55 212 58 152 C58 130 60 106 60 83 C60 72 59 59 59 47 C59 38 59 30 63 20 C72 -9 95 -15 119 -15 C138 -15 158 -10 168 -7 C260 20 325 30 404 35 C427 36 453 32 465 48 C474 61 478 63 467 89 C456 116 436 108 412 111 C398 113 383 114 369 114 C320 114 293 104 248 99 C216 97 189 92 161 84 C162 103 162 121 163 140 C165 148 165 199 165 199 C165 199 181 204 194 208 C247 224 283 231 331 236 C360 239 452 230 473 244 C485 252 487 257 488 274 C490 291 473 318 450 325 C427 330 407 332 385 330 C312 328 240 318 174 300 C176 314 178 429 178 429 C178 429 231 444 242 449 C294 469 342 483 405 483 C433 483 531 470 531 499 C531 528 512 562 477 566 C448 569 429 574 403 573 C297 577 225 542 127 514 C106 508 83 503 70 486 C64 476 61 466 61 453 C61 438 65 423 64 407 L64 407 Z M313 696 C301 702 289 706 278 714 C270 719 264 725 256 725 C245 726 230 719 224 713 C220 708 223 687 228 680 C234 672 244 665 251 658 C260 651 269 646 279 640 C299 629 335 615 364 611 C377 608 388 607 397 610 C408 614 410 625 408 635 C408 640 404 650 399 653 C395 657 386 660 381 663 C374 668 368 669 360 673 C344 680 329 688 313 696 L313 696 Z " />
<glyph glyph-name="Eacute" unicode="&#xc9;" horiz-adv-x="555" d="M65 407 C65 380 66 354 66 328 C66 268 56 212 59 152 C59 130 61 106 61 83 C61 72 60 59 60 47 C60 38 60 30 64 20 C73 -9 96 -15 120 -15 C139 -15 159 -10 169 -7 C261 20 326 30 405 35 C428 36 454 32 466 48 C475 61 479 63 468 89 C457 116 437 108 413 111 C399 113 384 114 370 114 C321 114 294 104 249 99 C217 97 190 92 162 84 C163 103 163 121 164 140 C166 148 166 199 166 199 C166 199 182 204 195 208 C248 224 284 231 332 236 C361 239 453 230 474 244 C486 252 488 257 489 274 C491 291 474 318 451 325 C428 330 408 332 386 330 C313 328 241 318 175 300 C177 314 179 429 179 429 C179 429 232 444 243 449 C295 469 343 483 406 483 C434 483 532 470 532 499 C532 528 513 562 478 566 C449 569 430 574 404 573 C298 577 226 542 128 514 C107 508 84 503 71 486 C65 476 62 466 62 453 C62 438 66 423 65 407 L65 407 Z M424 732 C385 720 329 680 294 659 C286 654 270 647 265 637 C264 634 266 625 268 621 C274 612 284 603 297 602 C308 601 321 603 333 608 C359 615 414 641 432 654 C442 663 483 682 485 699 C485 705 475 723 466 727 C456 731 434 734 424 732 L424 732 Z " />
<glyph glyph-name="Ecircumflex" unicode="&#xca;" horiz-adv-x="553" d="M65 407 C65 380 66 354 66 328 C66 268 56 212 59 152 C59 130 61 106 61 83 C61 72 60 59 60 47 C60 38 60 30 64 20 C73 -9 96 -15 120 -15 C139 -15 159 -10 169 -7 C261 20 326 30 405 35 C428 36 454 32 466 48 C475 61 479 63 468 89 C457 116 437 108 413 111 C399 113 384 114 370 114 C321 114 294 104 249 99 C217 97 190 92 162 84 C163 103 163 121 164 140 C166 148 166 199 166 199 C166 199 182 204 195 208 C248 224 284 231 332 236 C361 239 453 230 474 244 C486 252 488 257 489 274 C491 291 474 318 451 325 C428 330 408 332 386 330 C313 328 241 318 175 300 C177 314 179 429 179 429 C179 429 232 444 243 449 C295 469 343 483 406 483 C434 483 532 470 532 499 C532 528 513 562 478 566 C449 569 430 574 404 573 C298 577 226 542 128 514 C107 508 84 503 71 486 C65 476 62 466 62 453 C62 438 66 423 65 407 L65 407 Z M448 698 C442 705 436 710 430 717 C420 729 411 743 402 755 C397 762 391 775 385 780 C379 786 366 787 359 787 C346 787 341 782 334 777 C326 768 318 761 309 754 C295 742 284 727 269 714 C250 700 231 687 221 665 C221 648 230 641 244 637 C265 629 291 641 304 651 C316 660 325 669 336 679 C346 686 352 698 363 702 C373 693 379 686 387 676 C404 658 420 648 444 645 C449 644 458 650 461 654 C465 659 469 665 466 674 C463 683 454 690 448 698 L448 698 Z " />
<glyph glyph-name="Edieresis" unicode="&#xcb;" horiz-adv-x="560" d="M65 407 C65 380 66 354 66 328 C66 268 56 212 59 152 C59 130 61 106 61 83 C61 72 60 59 60 47 C60 38 60 30 64 20 C73 -9 96 -15 120 -15 C139 -15 159 -10 169 -7 C261 20 326 30 405 35 C428 36 454 32 466 48 C475 61 479 63 468 89 C457 116 437 108 413 111 C399 113 384 114 370 114 C321 114 294 104 249 99 C217 97 190 92 162 84 C163 103 163 121 164 140 C166 148 166 199 166 199 C166 199 182 204 195 208 C248 224 284 231 332 236 C361 239 453 230 474 244 C486 252 488 257 489 274 C491 291 474 318 451 325 C428 330 408 332 386 330 C313 328 241 318 175 300 C177 314 179 429 179 429 C179 429 232 444 243 449 C295 469 343 483 406 483 C434 483 532 470 532 499 C532 528 513 562 478 566 C449 569 430 574 404 573 C298 577 226 542 128 514 C107 508 84 503 71 486 C65 476 62 466 62 453 C62 438 66 423 65 407 L65 407 Z M271 679 C282 665 288 652 288 637 C288 629 286 620 281 612 C278 607 268 605 263 603 C254 600 201 592 192 592 C185 590 181 589 174 594 C161 605 153 621 149 636 C144 660 172 672 189 677 C195 680 247 688 254 688 C260 688 265 685 271 679 L271 679 Z M481 685 C474 694 459 702 450 707 C436 715 382 701 375 694 C365 687 356 680 348 672 C342 668 341 663 341 654 C341 644 345 627 356 619 C365 612 379 606 388 606 C404 607 461 629 472 637 C484 647 489 675 481 685 L481 685 Z " />
<glyph glyph-name="Igrave" unicode="&#xcc;" horiz-adv-x="547" d="M517 515 C519 493 451 482 437 480 C398 474 348 471 309 467 C314 438 317 383 314 355 C312 318 307 283 304 245 C304 227 299 209 299 189 C299 175 300 133 297 118 C322 120 354 125 380 125 C393 125 405 123 417 121 C433 117 450 113 466 102 C477 92 487 83 487 70 C487 55 487 53 476 50 C467 47 453 48 444 48 C422 46 399 45 378 43 C336 39 293 36 253 24 C231 18 210 11 189 5 C171 1 144 -8 117 -8 C99 -8 82 -4 67 9 C57 18 39 28 35 42 C31 54 58 71 67 73 C84 78 103 81 121 86 C146 92 164 96 190 99 C185 138 197 202 201 239 C201 259 198 279 197 301 C195 322 197 343 197 365 C197 387 200 438 201 459 C181 457 168 456 146 456 C131 456 116 457 100 458 C88 460 82 459 73 468 C63 478 55 484 49 495 C39 514 48 507 59 519 C71 528 91 531 107 530 C123 530 139 531 155 532 C174 532 194 533 213 534 C262 536 305 549 353 554 C365 555 381 556 398 556 C424 556 453 554 478 549 C491 546 514 529 517 515 L517 515 Z M267 660 C255 666 243 670 232 678 C224 683 218 689 210 689 C199 690 184 683 178 677 C174 672 177 651 182 644 C188 636 198 629 205 622 C214 615 223 610 233 604 C253 593 289 579 318 575 C331 572 342 571 351 574 C362 578 364 589 362 599 C362 604 358 614 353 617 C349 621 340 624 335 627 C328 632 322 633 314 637 C298 644 283 652 267 660 L267 660 Z " />
<glyph glyph-name="Iacute" unicode="&#xcd;" horiz-adv-x="541" d="M517 515 C514 529 491 546 478 549 C453 554 424 556 398 556 C381 556 365 555 353 554 C305 549 262 536 213 534 C194 533 174 532 155 532 C139 531 123 530 107 530 C91 531 71 528 59 519 C48 507 39 514 49 495 C55 484 63 478 73 468 C82 459 88 460 100 458 C116 457 131 456 146 456 C168 456 181 457 201 459 C200 438 197 387 197 365 C197 343 195 322 197 301 C198 279 201 259 201 239 C197 202 185 138 190 99 C164 96 146 92 121 86 C103 81 84 78 67 73 C58 71 31 54 35 42 C39 28 57 18 67 9 C82 -4 99 -8 117 -8 C144 -8 171 1 189 5 C210 11 231 18 253 24 C293 36 336 39 378 43 C399 45 422 46 444 48 C453 48 467 47 476 50 C487 53 487 55 487 70 C487 83 477 92 466 102 C450 113 433 117 417 121 C405 123 393 125 380 125 C354 125 322 120 297 118 C300 133 299 175 299 189 C299 209 304 227 304 245 C307 283 312 318 314 355 C317 383 314 438 309 467 C348 471 398 474 437 480 C451 482 519 493 517 515 L517 515 Z M392 698 C353 686 297 646 262 625 C254 620 238 613 233 603 C232 600 234 591 236 587 C242 578 252 569 265 568 C276 567 289 569 301 574 C327 581 382 607 400 620 C410 629 451 648 453 665 C453 671 443 689 434 693 C424 697 402 700 392 698 L392 698 Z " />
<glyph glyph-name="Icircumflex" unicode="&#xce;" horiz-adv-x="547" d="M517 515 C519 493 451 482 437 480 C398 474 348 471 309 467 C314 438 317 383 314 355 C312 318 307 283 304 245 C304 227 299 209 299 189 C299 175 300 133 297 118 C322 120 354 125 380 125 C393 125 405 123 417 121 C433 117 450 113 466 102 C477 92 487 83 487 70 C487 55 487 53 476 50 C467 47 453 48 444 48 C422 46 399 45 378 43 C336 39 293 36 253 24 C231 18 210 11 189 5 C171 1 144 -8 117 -8 C99 -8 82 -4 67 9 C57 18 39 28 35 42 C31 54 58 71 67 73 C84 78 103 81 121 86 C146 92 164 96 190 99 C185 138 197 202 201 239 C201 259 198 279 197 301 C195 322 197 343 197 365 C197 387 200 438 201 459 C181 457 168 456 146 456 C131 456 116 457 100 458 C88 460 82 459 73 468 C63 478 55 484 49 495 C39 514 48 507 59 519 C71 528 91 531 107 530 C123 530 139 531 155 532 C174 532 194 533 213 534 C262 536 305 549 353 554 C365 555 381 556 398 556 C424 556 453 554 478 549 C491 546 514 529 517 515 L517 515 Z M413 655 C407 662 401 667 395 674 C385 686 376 700 367 712 C362 719 356 732 350 737 C344 743 331 744 324 744 C311 744 306 739 299 734 C291 725 283 718 274 711 C260 699 249 684 234 671 C215 657 196 644 186 622 C186 605 195 598 209 594 C230 586 256 598 269 608 C281 617 290 626 301 636 C311 643 317 655 328 659 C338 650 344 643 352 633 C369 615 385 605 409 602 C414 601 423 607 426 611 C430 616 434 622 431 631 C428 640 419 647 413 655 L413 655 Z " />
<glyph glyph-name="Idieresis" unicode="&#xcf;" horiz-adv-x="541" d="M517 515 C519 493 451 482 437 480 C398 474 348 471 309 467 C314 438 317 383 314 355 C312 318 307 283 304 245 C304 227 299 209 299 189 C299 175 300 133 297 118 C322 120 354 125 380 125 C393 125 405 123 417 121 C433 117 450 113 466 102 C477 92 487 83 487 70 C487 55 487 53 476 50 C467 47 453 48 444 48 C422 46 399 45 378 43 C336 39 293 36 253 24 C231 18 210 11 189 5 C171 1 144 -8 117 -8 C99 -8 82 -4 67 9 C57 18 39 28 35 42 C31 54 58 71 67 73 C84 78 103 81 121 86 C146 92 164 96 190 99 C185 138 197 202 201 239 C201 259 198 279 197 301 C195 322 197 343 197 365 C197 387 200 438 201 459 C181 457 168 456 146 456 C131 456 116 457 100 458 C88 460 82 459 73 468 C63 478 55 484 49 495 C39 514 48 507 59 519 C71 528 91 531 107 530 C123 530 139 531 155 532 C174 532 194 533 213 534 C262 536 305 549 353 554 C365 555 381 556 398 556 C424 556 453 554 478 549 C491 546 514 529 517 515 L517 515 Z M232 671 C243 657 249 644 249 629 C249 621 247 612 242 604 C239 599 229 597 224 595 C215 592 162 584 153 584 C146 582 142 581 135 586 C122 597 114 613 110 628 C105 652 133 664 150 669 C156 672 208 680 215 680 C221 680 226 677 232 671 L232 671 Z M442 677 C435 686 420 694 411 699 C397 707 343 693 336 686 C326 679 317 672 309 664 C303 660 302 655 302 646 C302 636 306 619 317 611 C326 604 340 598 349 598 C365 599 422 621 433 629 C445 639 450 667 442 677 L442 677 Z " />
<glyph glyph-name="Eth" unicode="&#xd0;" horiz-adv-x="658" d="M614 463 C580 495 488 553 441 559 C401 565 350 560 310 562 C301 563 292 563 282 563 C258 563 233 560 208 557 C173 551 103 547 88 510 C85 500 83 492 83 484 C83 454 105 429 110 389 C112 374 113 357 113 341 C93 339 71 336 53 331 C40 327 21 325 21 308 C21 302 23 288 26 281 C35 268 59 256 73 254 C83 253 93 256 103 257 C105 257 106 257 108 257 C107 242 106 228 106 214 C106 190 104 170 105 147 C107 111 107 75 120 43 C123 30 139 19 148 9 C208 -48 254 26 303 57 C365 96 432 128 490 171 C540 207 555 233 600 313 C623 353 653 427 614 463 L614 463 Z M293 357 C282 359 271 354 261 354 L218 348 C216 380 217 434 204 467 C221 478 243 479 261 481 C307 489 370 487 410 481 C433 477 534 451 534 451 C524 384 476 278 425 241 C405 227 384 217 365 203 C344 189 324 178 303 167 C294 162 220 121 219 121 C213 136 212 152 212 168 C212 186 214 205 214 224 C214 239 214 252 215 266 C241 268 267 269 292 272 C309 274 334 275 341 291 C343 296 346 307 346 316 C346 322 345 329 342 334 C335 347 306 354 293 357 L293 357 Z " />
<glyph glyph-name="Ntilde" unicode="&#xd1;" horiz-adv-x="567" d="M66 302 C59 245 59 186 51 131 C49 103 55 68 64 39 C71 16 77 -2 103 -13 C116 -19 122 -20 130 -16 C139 -12 148 -9 154 -4 C163 2 165 12 165 22 C165 31 163 41 163 48 C162 70 164 90 166 111 C167 165 168 260 173 313 C214 234 282 183 336 117 C353 95 366 74 384 53 C397 36 413 14 433 7 C460 1 480 14 493 29 C508 44 508 57 508 78 C508 98 512 119 513 139 C513 171 512 200 512 230 C511 295 518 358 520 422 C521 438 523 454 523 469 C523 481 522 493 519 506 C515 522 503 555 488 568 C474 581 433 591 419 583 C414 580 406 563 403 557 C399 548 400 542 401 531 C406 497 408 461 408 426 C408 404 407 383 406 361 C404 319 406 276 406 231 C406 214 404 190 401 171 C355 237 282 289 246 362 C235 386 222 410 214 434 C206 455 191 476 181 496 C171 517 165 531 136 539 C112 544 97 541 81 527 C71 517 69 506 69 494 C69 485 70 476 70 466 C70 438 71 410 71 381 C71 356 69 328 66 302 L66 302 Z M189 726 C171 717 154 703 135 684 C128 677 119 660 121 647 C126 634 139 626 153 622 C166 620 171 624 178 631 C188 639 198 647 211 654 C222 659 232 668 240 655 C252 637 256 615 268 597 C274 587 282 580 294 577 C305 575 314 574 325 575 C357 578 372 583 393 601 C412 615 429 646 429 672 C429 681 427 690 423 697 C421 701 420 705 416 709 C410 713 404 714 399 716 C387 722 379 724 372 717 C366 711 366 702 363 694 C359 683 341 637 321 647 C306 655 299 685 289 701 C286 706 281 710 279 714 C261 739 226 744 207 734 C201 732 197 728 189 726 L189 726 Z " />
<glyph glyph-name="Ograve" unicode="&#xd2;" horiz-adv-x="694" d="M451 574 C439 577 424 578 411 578 C389 578 323 560 304 551 C272 540 238 534 210 519 C173 500 136 479 113 444 C83 397 45 341 45 274 C45 264 46 254 48 243 C56 204 70 166 91 129 C124 73 183 24 242 2 C258 -3 270 -4 283 -4 C296 -4 338 -4 353 1 C407 14 428 21 475 51 C526 82 562 131 596 179 C630 225 661 287 662 352 C665 478 546 563 451 574 L451 574 Z M345 108 C301 89 246 101 196 101 C196 101 132 153 167 300 C181 362 220 394 275 423 C329 448 440 493 498 482 C537 474 567 406 567 406 C546 280 461 160 345 108 L345 108 Z M398 704 C386 710 374 714 363 722 C355 727 349 733 341 733 C330 734 315 727 309 721 C305 716 308 695 313 688 C319 680 329 673 336 666 C345 659 354 654 364 648 C384 637 420 623 449 619 C462 616 473 615 482 618 C493 622 495 633 493 643 C493 648 489 658 484 661 C480 665 471 668 466 671 C459 676 453 677 445 681 C429 688 414 696 398 704 L398 704 Z " />
<glyph glyph-name="Oacute" unicode="&#xd3;" horiz-adv-x="694" d="M445 574 C433 577 418 578 405 578 C383 578 317 560 298 551 C266 540 232 534 204 519 C167 500 130 479 107 444 C77 397 39 341 39 274 C39 264 40 254 42 243 C50 204 64 166 85 129 C118 73 177 24 236 2 C252 -3 264 -4 277 -4 C290 -4 332 -4 347 1 C401 14 422 21 469 51 C520 82 556 131 590 179 C624 225 655 287 656 352 C659 478 540 563 445 574 L445 574 Z M339 108 C295 89 240 101 190 101 C190 101 126 153 161 300 C175 362 214 394 269 423 C323 448 434 493 492 482 C531 474 561 406 561 406 C540 280 455 160 339 108 L339 108 Z M509 732 C470 720 414 680 379 659 C371 654 355 647 350 637 C349 634 351 625 353 621 C359 612 369 603 382 602 C393 601 406 603 418 608 C444 615 499 641 517 654 C527 663 568 682 570 699 C570 705 560 723 551 727 C541 731 519 734 509 732 L509 732 Z " />
<glyph glyph-name="Ocircumflex" unicode="&#xd4;" horiz-adv-x="693" d="M451 574 C439 577 424 578 411 578 C389 578 323 560 304 551 C272 540 238 534 210 519 C173 500 136 479 113 444 C83 397 45 341 45 274 C45 264 46 254 48 243 C56 204 70 166 91 129 C124 73 183 24 242 2 C258 -3 270 -4 283 -4 C296 -4 338 -4 353 1 C407 14 428 21 475 51 C526 82 562 131 596 179 C630 225 661 287 662 352 C665 478 546 563 451 574 L451 574 Z M345 108 C301 89 246 101 196 101 C196 101 132 153 167 300 C181 362 220 394 275 423 C329 448 440 493 498 482 C537 474 567 406 567 406 C546 280 461 160 345 108 L345 108 Z M521 669 C515 676 509 681 503 688 C493 700 484 714 475 726 C470 733 464 746 458 751 C452 757 439 758 432 758 C419 758 414 753 407 748 C399 739 391 732 382 725 C368 713 357 698 342 685 C323 671 304 658 294 636 C294 619 303 612 317 608 C338 600 364 612 377 622 C389 631 398 640 409 650 C419 657 425 669 436 673 C446 664 452 657 460 647 C477 629 493 619 517 616 C522 615 531 621 534 625 C538 630 542 636 539 645 C536 654 527 661 521 669 L521 669 Z " />
<glyph glyph-name="Otilde" unicode="&#xd5;" horiz-adv-x="688" d="M439 574 C427 577 412 578 399 578 C377 578 311 560 292 551 C260 540 226 534 198 519 C161 500 124 479 101 444 C71 397 33 341 33 274 C33 264 34 254 36 243 C44 204 58 166 79 129 C112 73 171 24 230 2 C246 -3 258 -4 271 -4 C284 -4 326 -4 341 1 C395 14 416 21 463 51 C514 82 550 131 584 179 C618 225 649 287 650 352 C653 478 534 563 439 574 L439 574 Z M333 108 C289 89 234 101 184 101 C184 101 120 153 155 300 C169 362 208 394 263 423 C317 448 428 493 486 482 C525 474 555 406 555 406 C534 280 449 160 333 108 L333 108 Z M337 748 C319 739 302 725 283 706 C276 699 267 682 269 669 C274 656 287 648 301 644 C314 642 319 646 326 653 C336 661 346 669 359 676 C370 681 380 690 388 677 C400 659 404 637 416 619 C422 609 430 602 442 599 C453 597 462 596 473 597 C505 600 520 605 541 623 C560 637 577 668 577 694 C577 703 575 712 571 719 C569 723 568 727 564 731 C558 735 552 736 547 738 C535 744 527 746 520 739 C514 733 514 724 511 716 C507 705 489 659 469 669 C454 677 447 707 437 723 C434 728 429 732 427 736 C409 761 374 766 355 756 C349 754 345 750 337 748 L337 748 Z " />
<glyph glyph-name="Odieresis" unicode="&#xd6;" horiz-adv-x="688" d="M445 574 C433 577 418 578 405 578 C383 578 317 560 298 551 C266 540 232 534 204 519 C167 500 130 479 107 444 C77 397 39 341 39 274 C39 264 40 254 42 243 C50 204 64 166 85 129 C118 73 177 24 236 2 C252 -3 264 -4 277 -4 C290 -4 332 -4 347 1 C401 14 422 21 469 51 C520 82 556 131 590 179 C624 225 655 287 656 352 C659 478 540 563 445 574 L445 574 Z M339 108 C295 89 240 101 190 101 C190 101 126 153 161 300 C175 362 214 394 269 423 C323 448 434 493 492 482 C531 474 561 406 561 406 C540 280 455 160 339 108 L339 108 Z M360 677 C371 663 377 650 377 635 C377 627 375 618 370 610 C367 605 357 603 352 601 C343 598 290 590 281 590 C274 588 270 587 263 592 C250 603 242 619 238 634 C233 658 261 670 278 675 C284 678 336 686 343 686 C349 686 354 683 360 677 L360 677 Z M570 683 C563 692 548 700 539 705 C525 713 471 699 464 692 C454 685 445 678 437 670 C431 666 430 661 430 652 C430 642 434 625 445 617 C454 610 468 604 477 604 C493 605 550 627 561 635 C573 645 578 673 570 683 L570 683 Z " />
<glyph glyph-name="multiply" unicode="&#xd7;" horiz-adv-x="348" d="M314 364 C312 379 315 396 302 410 C294 418 282 419 271 417 C261 415 252 413 246 410 C234 406 225 396 217 387 C205 377 193 366 180 354 C174 363 168 370 161 378 C141 398 130 417 99 425 C91 427 84 426 76 424 C67 421 54 418 47 411 C36 403 48 380 53 370 C57 362 65 355 70 348 C82 331 95 315 106 298 C102 294 97 290 92 285 C75 269 57 253 41 234 C32 223 16 210 25 188 C29 178 37 160 44 153 C59 141 78 152 91 157 C101 162 110 171 117 179 C130 190 144 200 158 211 C173 189 199 153 213 137 C225 125 236 121 258 121 C276 122 296 125 297 143 C297 158 296 174 292 189 C283 216 255 251 237 274 C252 285 266 298 280 310 C294 323 316 339 314 364 L314 364 Z " />
<glyph glyph-name="Oslash" unicode="&#xd8;" horiz-adv-x="687" d="M439 574 C427 577 412 578 399 578 C377 578 311 560 292 551 C260 540 226 534 198 519 C161 500 124 479 101 444 C71 397 33 341 33 274 C33 264 34 254 36 243 C44 204 58 166 79 129 C90 109 105 91 122 74 C116 64 112 53 111 41 C109 25 115 -18 134 -32 C145 -41 167 -38 178 -26 C189 -15 194 2 202 15 C212 10 221 6 230 2 C246 -3 258 -4 271 -4 C284 -4 326 -4 341 1 C395 14 416 21 463 51 C514 82 541 134 575 182 C609 228 649 287 650 352 C652 429 607 492 550 531 C559 546 566 563 563 572 C555 587 552 594 538 600 C526 604 517 606 508 606 C482 606 466 590 452 572 L439 574 Z M492 249 C458 180 392 142 327 113 C313 107 298 104 285 104 L271 104 C300 143 327 185 349 231 C373 284 403 328 439 371 C464 402 483 438 506 471 C535 453 555 406 555 406 C541 327 529 320 492 249 L492 249 Z M354 428 C316 377 285 323 251 269 C234 245 215 224 201 198 C189 176 176 153 161 132 L161 132 C144 164 126 221 147 309 C161 371 200 403 255 432 C280 444 341 465 387 475 C377 459 365 444 354 428 L354 428 Z " />
<glyph glyph-name="Ugrave" unicode="&#xd9;" horiz-adv-x="579" d="M56 447 C53 432 54 418 53 403 C51 375 51 345 51 316 C51 260 47 211 51 159 C57 118 59 83 90 46 C101 32 115 22 131 13 C144 7 176 3 189 7 C273 13 437 23 512 61 C523 74 525 149 524 166 C515 274 509 387 505 492 C504 521 512 579 460 585 C444 588 414 580 405 569 C395 556 395 527 392 510 C392 501 392 493 392 484 C392 448 396 410 397 372 C401 329 408 232 412 189 C414 174 420 152 415 139 C410 127 392 120 381 114 C363 105 273 98 255 98 C242 98 228 99 216 99 C203 99 184 98 171 95 C165 143 162 195 162 242 C162 267 162 315 164 340 C166 374 164 409 173 439 C177 451 179 463 179 474 C179 495 172 516 152 536 C137 551 121 551 105 553 C79 557 69 536 66 516 C62 494 57 471 56 447 L56 447 Z M265 647 C253 653 241 657 230 665 C222 670 216 676 208 676 C197 677 182 670 176 664 C172 659 175 638 180 631 C186 623 196 616 203 609 C212 602 221 597 231 591 C251 580 287 566 316 562 C329 559 340 558 349 561 C360 565 362 576 360 586 C360 591 356 601 351 604 C347 608 338 611 333 614 C326 619 320 620 312 624 C296 631 281 639 265 647 L265 647 Z " />
<glyph glyph-name="Uacute" unicode="&#xda;" horiz-adv-x="585" d="M61 447 C58 432 59 418 58 403 C56 375 56 345 56 316 C56 260 52 211 56 159 C62 118 64 83 95 46 C106 32 120 22 136 13 C149 7 181 3 194 7 C278 13 442 23 517 61 C528 74 530 149 529 166 C520 274 514 387 510 492 C509 521 517 579 465 585 C449 588 419 580 410 569 C400 556 400 527 397 510 C397 501 397 493 397 484 C397 448 401 410 402 372 C406 329 413 232 417 189 C419 174 425 152 420 139 C415 127 397 120 386 114 C368 105 278 98 260 98 C247 98 233 99 221 99 C208 99 189 98 176 95 C170 143 167 195 167 242 C167 267 167 315 169 340 C171 374 169 409 178 439 C182 451 184 463 184 474 C184 495 177 516 157 536 C142 551 126 551 110 553 C84 557 74 536 71 516 C67 494 62 471 61 447 L61 447 Z M400 707 C361 695 305 655 270 634 C262 629 246 622 241 612 C240 609 242 600 244 596 C250 587 260 578 273 577 C284 576 297 578 309 583 C335 590 390 616 408 629 C418 638 459 657 461 674 C461 680 451 698 442 702 C432 706 410 709 400 707 L400 707 Z " />
<glyph glyph-name="Ucircumflex" unicode="&#xdb;" horiz-adv-x="572" d="M54 447 C51 432 52 418 51 403 C49 375 49 345 49 316 C49 260 45 211 49 159 C55 118 57 83 88 46 C99 32 113 22 129 13 C142 7 174 3 187 7 C271 13 435 23 510 61 C521 74 523 149 522 166 C513 274 507 387 503 492 C502 521 510 579 458 585 C442 588 412 580 403 569 C393 556 393 527 390 510 C390 501 390 493 390 484 C390 448 394 410 395 372 C399 329 406 232 410 189 C412 174 418 152 413 139 C408 127 390 120 379 114 C361 105 271 98 253 98 C240 98 226 99 214 99 C201 99 182 98 169 95 C163 143 160 195 160 242 C160 267 160 315 162 340 C164 374 162 409 171 439 C175 451 177 463 177 474 C177 495 170 516 150 536 C135 551 119 551 103 553 C77 557 67 536 64 516 C60 494 55 471 54 447 L54 447 Z M403 673 C397 680 391 685 385 692 C375 704 366 718 357 730 C352 737 346 750 340 755 C334 761 321 762 314 762 C301 762 296 757 289 752 C281 743 273 736 264 729 C250 717 239 702 224 689 C205 675 186 662 176 640 C176 623 185 616 199 612 C220 604 246 616 259 626 C271 635 280 644 291 654 C301 661 307 673 318 677 C328 668 334 661 342 651 C359 633 375 623 399 620 C404 619 413 625 416 629 C420 634 424 640 421 649 C418 658 409 665 403 673 L403 673 Z " />
<glyph glyph-name="Udieresis" unicode="&#xdc;" horiz-adv-x="595" d="M73 447 C70 432 71 418 70 403 C68 375 68 345 68 316 C68 260 64 211 68 159 C74 118 76 83 107 46 C118 32 132 22 148 13 C161 7 193 3 206 7 C290 13 454 23 529 61 C540 74 542 149 541 166 C532 274 526 387 522 492 C521 521 529 579 477 585 C461 588 431 580 422 569 C412 556 412 527 409 510 C409 501 409 493 409 484 C409 448 413 410 414 372 C418 329 425 232 429 189 C431 174 437 152 432 139 C427 127 409 120 398 114 C380 105 290 98 272 98 C259 98 245 99 233 99 C220 99 201 98 188 95 C182 143 179 195 179 242 C179 267 179 315 181 340 C183 374 181 409 190 439 C194 451 196 463 196 474 C196 495 189 516 169 536 C154 551 138 551 122 553 C96 557 86 536 83 516 C79 494 74 471 73 447 L73 447 Z M286 683 C297 669 303 656 303 641 C303 633 301 624 296 616 C293 611 283 609 278 607 C269 604 216 596 207 596 C200 594 196 593 189 598 C176 609 168 625 164 640 C159 664 187 676 204 681 C210 684 262 692 269 692 C275 692 280 689 286 683 L286 683 Z M496 689 C489 698 474 706 465 711 C451 719 397 705 390 698 C380 691 371 684 363 676 C357 672 356 667 356 658 C356 648 360 631 371 623 C380 616 394 610 403 610 C419 611 476 633 487 641 C499 651 504 679 496 689 L496 689 Z " />
<glyph glyph-name="Yacute" unicode="&#xdd;" horiz-adv-x="486" d="M457 534 C454 551 442 571 422 580 C401 588 383 588 369 578 C358 568 348 553 341 540 C315 487 276 441 248 382 C233 399 223 407 202 428 C161 459 139 505 101 539 C83 555 74 568 54 568 C33 568 25 546 25 526 C25 517 26 506 30 500 C36 484 48 468 59 454 C101 393 170 360 209 290 C204 279 175 222 170 211 C152 171 115 106 119 55 C122 36 120 36 133 18 C149 -4 177 -4 191 3 C208 13 213 26 218 45 C228 75 245 103 255 133 C268 171 287 205 303 240 C318 270 335 302 349 333 C365 365 379 398 400 425 C416 444 433 461 445 483 C453 499 462 512 457 534 L457 534 Z M356 711 C317 699 261 659 226 638 C218 633 202 626 197 616 C196 613 198 604 200 600 C206 591 216 582 229 581 C240 580 253 582 265 587 C291 594 346 620 364 633 C374 642 415 661 417 678 C417 684 407 702 398 706 C388 710 366 713 356 711 L356 711 Z " />
<glyph glyph-name="Thorn" unicode="&#xde;" horiz-adv-x="521" d="M418 449 C397 459 363 462 336 462 C326 462 317 462 309 461 C283 458 197 449 169 444 C173 472 174 523 178 546 C182 566 165 591 144 593 C133 594 118 592 109 589 C97 585 88 573 82 561 C67 539 68 468 65 438 C62 404 57 371 54 336 C50 292 42 249 45 204 C48 167 50 92 58 57 C62 37 59 11 72 -4 C88 -21 122 -42 137 -24 C150 -10 150 11 155 30 C158 44 158 74 158 99 C179 94 187 95 207 95 C225 95 256 99 285 98 C365 98 444 157 476 223 C484 240 490 268 490 296 C490 354 470 421 418 449 L418 449 Z M310 181 C285 175 238 171 202 171 C185 171 170 172 158 174 C158 183 158 193 158 202 C158 231 159 323 161 353 C175 357 187 360 192 362 C219 367 275 371 317 371 C339 371 372 370 387 369 C399 323 345 190 310 181 L310 181 Z " />
<glyph glyph-name="germandbls" unicode="&#xdf;" horiz-adv-x="650" d="M102 147 C75 152 54 146 42 125 C34 109 35 100 47 82 C59 60 81 39 98 20 C117 2 136 -12 157 -5 C190 2 205 34 205 66 C205 100 207 134 207 171 C205 195 204 222 204 248 C204 274 205 299 207 325 C209 349 210 401 212 425 C214 446 224 457 238 469 C257 485 290 485 316 488 C331 489 344 490 359 490 C378 490 423 490 444 489 C421 459 379 399 345 379 C319 361 261 363 258 323 C256 303 262 303 276 287 C293 268 322 282 342 283 C394 285 462 262 513 256 C511 195 432 149 398 141 C382 138 297 138 286 126 C277 117 268 95 268 73 C268 58 314 49 344 49 C374 49 404 58 428 64 C460 74 490 86 519 99 C545 111 572 121 591 142 C609 161 625 192 625 225 C625 245 618 268 602 288 C586 308 569 321 548 330 C525 341 491 351 469 356 C497 384 518 405 530 449 C535 461 537 472 537 486 C537 495 536 503 534 512 C528 529 513 542 496 554 C461 575 426 583 392 583 C381 583 370 581 360 580 C305 574 252 559 205 540 C168 524 127 496 116 458 C101 415 107 360 104 313 C103 297 103 282 103 266 C103 237 104 207 103 176 L102 147 Z " />
<glyph glyph-name="agrave" unicode="&#xe0;" horiz-adv-x="567" d="M370 579 C350 579 317 563 301 552 C282 540 267 524 252 506 C218 462 174 415 148 364 C111 291 80 231 65 153 C60 127 54 112 46 87 C41 69 31 41 37 21 C46 -5 65 -14 88 -14 C130 -14 169 120 174 148 C224 155 269 153 320 163 C341 167 407 172 429 174 C434 153 438 115 439 92 C443 73 442 43 451 29 C459 16 483 2 494 0 C539 -9 534 29 532 70 C530 132 536 180 519 243 C502 303 483 387 464 449 C449 501 430 580 370 579 L370 579 Z M325 254 C292 247 242 234 210 234 C227 274 269 333 292 370 C309 397 349 445 366 464 C376 441 392 381 401 353 C411 325 412 303 417 270 C400 272 343 258 325 254 L325 254 Z M350 702 C338 708 326 712 315 720 C307 725 301 731 293 731 C282 732 267 725 261 719 C257 714 260 693 265 686 C271 678 281 671 288 664 C297 657 306 652 316 646 C336 635 372 621 401 617 C414 614 425 613 434 616 C445 620 447 631 445 641 C445 646 441 656 436 659 C432 663 423 666 418 669 C411 674 405 675 397 679 C381 686 366 694 350 702 L350 702 Z " />
<glyph glyph-name="aacute" unicode="&#xe1;" horiz-adv-x="566" d="M376 579 C356 579 323 563 307 552 C288 540 273 524 258 506 C224 462 180 415 154 364 C117 291 86 231 71 153 C66 127 60 112 52 87 C47 69 37 41 43 21 C52 -5 71 -14 94 -14 C136 -14 175 120 180 148 C230 155 275 153 326 163 C347 167 413 172 435 174 C440 153 444 115 445 92 C449 73 448 43 457 29 C465 16 489 2 500 0 C545 -9 540 29 538 70 C536 132 542 180 525 243 C508 303 489 387 470 449 C455 501 436 580 376 579 L376 579 Z M331 254 C298 247 248 234 216 234 C233 274 275 333 298 370 C315 397 355 445 372 464 C382 441 398 381 407 353 C417 325 418 303 423 270 C406 272 349 258 331 254 L331 254 Z M468 743 C429 731 373 691 338 670 C330 665 314 658 309 648 C308 645 310 636 312 632 C318 623 328 614 341 613 C352 612 365 614 377 619 C403 626 458 652 476 665 C486 674 527 693 529 710 C529 716 519 734 510 738 C500 742 478 745 468 743 L468 743 Z " />
<glyph glyph-name="acircumflex" unicode="&#xe2;" horiz-adv-x="572" d="M370 579 C350 579 317 563 301 552 C282 540 267 524 252 506 C218 462 174 415 148 364 C111 291 80 231 65 153 C60 127 54 112 46 87 C41 69 31 41 37 21 C46 -5 65 -14 88 -14 C130 -14 169 120 174 148 C224 155 269 153 320 163 C341 167 407 172 429 174 C434 153 438 115 439 92 C443 73 442 43 451 29 C459 16 483 2 494 0 C539 -9 534 29 532 70 C530 132 536 180 519 243 C502 303 483 387 464 449 C449 501 430 580 370 579 L370 579 Z M325 254 C292 247 242 234 210 234 C227 274 269 333 292 370 C309 397 349 445 366 464 C376 441 392 381 401 353 C411 325 412 303 417 270 C400 272 343 258 325 254 L325 254 Z M474 664 C468 671 462 676 456 683 C446 695 437 709 428 721 C423 728 417 741 411 746 C405 752 392 753 385 753 C372 753 367 748 360 743 C352 734 344 727 335 720 C321 708 310 693 295 680 C276 666 257 653 247 631 C247 614 256 607 270 603 C291 595 317 607 330 617 C342 626 351 635 362 645 C372 652 378 664 389 668 C399 659 405 652 413 642 C430 624 446 614 470 611 C475 610 484 616 487 620 C491 625 495 631 492 640 C489 649 480 656 474 664 L474 664 Z " />
<glyph glyph-name="atilde" unicode="&#xe3;" horiz-adv-x="568" d="M364 579 C344 579 311 563 295 552 C276 540 261 524 246 506 C212 462 168 415 142 364 C105 291 74 231 59 153 C54 127 48 112 40 87 C35 69 25 41 31 21 C40 -5 59 -14 82 -14 C124 -14 163 120 168 148 C218 155 263 153 314 163 C335 167 401 172 423 174 C428 153 432 115 433 92 C437 73 436 43 445 29 C453 16 477 2 488 0 C533 -9 528 29 526 70 C524 132 530 180 513 243 C496 303 477 387 458 449 C443 501 424 580 364 579 L364 579 Z M319 254 C286 247 236 234 204 234 C221 274 263 333 286 370 C303 397 343 445 360 464 C370 441 386 381 395 353 C405 325 406 303 411 270 C394 272 337 258 319 254 L319 254 Z M269 754 C251 745 234 731 215 712 C208 705 199 688 201 675 C206 662 219 654 233 650 C246 648 251 652 258 659 C268 667 278 675 291 682 C302 687 312 696 320 683 C332 665 336 643 348 625 C354 615 362 608 374 605 C385 603 394 602 405 603 C437 606 452 611 473 629 C492 643 509 674 509 700 C509 709 507 718 503 725 C501 729 500 733 496 737 C490 741 484 742 479 744 C467 750 459 752 452 745 C446 739 446 730 443 722 C439 711 421 665 401 675 C386 683 379 713 369 729 C366 734 361 738 359 742 C341 767 306 772 287 762 C281 760 277 756 269 754 L269 754 Z " />
<glyph glyph-name="adieresis" unicode="&#xe4;" horiz-adv-x="563" d="M364 579 C344 579 311 563 295 552 C276 540 261 524 246 506 C212 462 168 415 142 364 C105 291 74 231 59 153 C54 127 48 112 40 87 C35 69 25 41 31 21 C40 -5 59 -14 82 -14 C124 -14 163 120 168 148 C218 155 263 153 314 163 C335 167 401 172 423 174 C428 153 432 115 433 92 C437 73 436 43 445 29 C453 16 477 2 488 0 C533 -9 528 29 526 70 C524 132 530 180 513 243 C496 303 477 387 458 449 C443 501 424 580 364 579 L364 579 Z M319 254 C286 247 236 234 204 234 C221 274 263 333 286 370 C303 397 343 445 360 464 C370 441 386 381 395 353 C405 325 406 303 411 270 C394 272 337 258 319 254 L319 254 Z M322 672 C333 658 339 645 339 630 C339 622 337 613 332 605 C329 600 319 598 314 596 C305 593 252 585 243 585 C236 583 232 582 225 587 C212 598 204 614 200 629 C195 653 223 665 240 670 C246 673 298 681 305 681 C311 681 316 678 322 672 L322 672 Z M532 678 C525 687 510 695 501 700 C487 708 433 694 426 687 C416 680 407 673 399 665 C393 661 392 656 392 647 C392 637 396 620 407 612 C416 605 430 599 439 599 C455 600 512 622 523 630 C535 640 540 668 532 678 L532 678 Z " />
<glyph glyph-name="aring" unicode="&#xe5;" horiz-adv-x="558" d="M448 656 C439 671 428 686 413 695 C396 705 379 711 361 716 C343 720 326 727 309 724 C290 721 282 706 272 693 C258 676 239 648 251 620 C261 598 281 568 305 558 L295 552 C276 540 261 524 246 506 C212 462 168 415 142 364 C105 291 74 231 59 153 C54 127 48 112 40 87 C35 69 25 41 31 21 C40 -5 59 -14 82 -14 C124 -14 163 120 168 148 C218 155 263 153 314 163 C335 167 401 172 423 174 C428 153 432 115 433 92 C437 73 436 43 445 29 C453 16 477 2 488 0 C533 -9 528 29 526 70 C524 132 530 180 513 243 C496 303 477 387 458 449 C446 490 432 548 396 569 C401 572 405 575 411 579 C428 589 443 601 452 619 C458 630 454 642 448 656 L448 656 Z M319 254 C286 247 236 234 204 234 C221 274 263 333 286 370 C303 397 343 445 360 464 C370 441 386 381 395 353 C405 325 406 303 411 270 C394 272 337 258 319 254 L319 254 Z M361 623 C348 618 333 621 319 620 C318 630 317 636 322 642 C327 649 334 655 338 662 C354 659 371 652 385 645 C379 636 372 627 361 623 L361 623 Z " />
<glyph glyph-name="ae" unicode="&#xe6;" horiz-adv-x="868" d="M840 537 C830 551 811 562 799 569 C785 576 770 574 756 576 C732 580 707 581 681 581 C599 581 512 565 443 542 C415 580 372 586 331 582 C279 577 288 551 250 522 C225 500 204 469 182 443 C158 410 138 370 116 336 C89 295 58 205 45 158 C38 129 -6 34 20 -1 C29 -11 46 -14 58 -18 C128 -42 111 98 149 133 C215 157 267 173 345 188 C345 160 337 146 337 126 C337 101 340 77 343 51 C345 36 350 24 362 11 C369 2 392 -10 402 -13 C408 -15 420 -12 425 -10 C450 -3 473 3 496 13 C516 20 558 36 580 40 C605 45 684 69 709 74 C728 79 749 82 768 87 C779 90 790 93 796 104 C800 112 805 123 797 132 C777 160 746 161 722 161 C690 160 601 145 572 137 C535 126 478 109 444 100 C444 109 451 210 451 210 C451 210 522 234 549 240 C575 248 680 264 707 268 C715 268 723 269 732 269 C743 269 753 268 763 268 C776 268 789 269 800 273 C816 285 824 302 810 318 C772 355 724 357 686 359 C651 359 529 340 497 330 C486 327 476 322 466 318 C466 325 466 330 466 337 C466 364 473 431 473 458 C485 459 486 461 496 463 C508 466 586 488 598 489 C624 493 649 495 675 495 C704 495 733 493 761 493 C780 493 799 494 817 495 C836 500 855 517 840 537 L840 537 Z M182 241 C233 335 284 403 360 478 C365 427 355 370 355 321 C355 316 350 295 350 290 C312 255 231 255 182 241 L182 241 Z " />
<glyph glyph-name="ccedilla" unicode="&#xe7;" horiz-adv-x="670" d="M596 519 C537 558 472 588 364 549 C314 531 282 527 216 470 C120 387 42 305 42 181 C42 168 43 157 47 146 C56 113 83 73 107 46 C139 12 206 -13 225 -18 C256 -25 288 -27 320 -25 C330 -31 339 -37 349 -44 C354 -49 372 -68 372 -68 L337 -68 C321 -66 298 -62 282 -66 C268 -72 250 -89 247 -106 C242 -123 276 -137 296 -144 C312 -149 327 -151 342 -151 C360 -151 376 -147 394 -142 C420 -133 439 -112 451 -87 C457 -68 440 -49 428 -33 C421 -25 413 -16 406 -10 C433 -1 458 10 482 22 C516 40 536 58 565 79 C582 92 617 128 615 149 C615 171 593 185 565 181 C543 178 535 171 517 158 C464 121 423 85 366 71 C315 59 192 71 192 71 C192 71 162 98 149 134 C118 221 271 365 312 398 C347 427 497 483 497 483 C498 485 533 466 565 443 C603 415 620 414 633 431 C649 449 627 499 596 519 L596 519 Z " />
<glyph glyph-name="egrave" unicode="&#xe8;" horiz-adv-x="624" d="M592 520 C587 480 576 477 555 477 C543 477 508 489 491 490 C433 495 280 491 225 468 C212 461 183 452 183 452 C183 452 175 367 176 349 C177 339 176 326 178 314 C187 318 212 324 222 326 C286 342 321 338 378 337 C405 336 432 336 454 332 C480 329 506 320 525 291 C535 279 531 285 528 274 C522 260 514 251 502 244 C494 235 475 237 461 241 C446 245 433 248 417 248 C371 249 281 247 239 234 C214 226 203 222 180 211 C178 190 175 150 175 125 C175 115 176 105 179 96 C256 115 317 132 395 135 C426 137 493 129 514 91 C526 75 495 58 477 57 C379 29 276 51 190 1 C181 -7 165 -10 149 -10 C140 -11 123 -10 116 -7 C104 -2 86 10 77 21 C63 36 60 44 60 62 C60 81 65 101 64 119 C62 161 73 187 72 230 C72 268 65 315 62 354 C61 363 60 372 60 381 C60 404 64 426 67 447 C77 499 66 523 117 535 C149 542 198 561 230 568 C265 575 396 584 433 583 C478 583 506 580 552 557 C574 548 595 540 592 520 L592 520 Z M324 701 C312 707 300 711 289 719 C281 724 275 730 267 730 C256 731 241 724 235 718 C231 713 234 692 239 685 C245 677 255 670 262 663 C271 656 280 651 290 645 C310 634 346 620 375 616 C388 613 399 612 408 615 C419 619 421 630 419 640 C419 645 415 655 410 658 C406 662 397 665 392 668 C385 673 379 674 371 678 C355 685 340 693 324 701 L324 701 Z " />
<glyph glyph-name="eacute" unicode="&#xe9;" horiz-adv-x="613" d="M592 520 C595 540 574 548 552 557 C506 580 478 583 433 583 C396 584 265 575 230 568 C198 561 149 542 117 535 C66 523 77 499 67 447 C64 426 60 404 60 381 C60 372 61 363 62 354 C65 315 72 268 72 230 C73 187 62 161 64 119 C65 101 60 81 60 62 C60 44 63 36 77 21 C86 10 104 -2 116 -7 C123 -10 140 -11 149 -10 C165 -10 181 -7 190 1 C276 51 379 29 477 57 C495 58 526 75 514 91 C493 129 426 137 395 135 C317 132 256 115 179 96 C176 105 175 115 175 125 C175 150 178 190 180 211 C203 222 214 226 239 234 C281 247 371 249 417 248 C433 248 446 245 461 241 C475 237 494 235 502 244 C514 251 522 260 528 274 C531 285 535 279 525 291 C506 320 480 329 454 332 C432 336 405 336 378 337 C321 338 286 342 222 326 C212 324 187 318 178 314 C176 326 177 339 176 349 C175 367 183 452 183 452 C183 452 212 461 225 468 C280 491 433 495 491 490 C508 489 543 477 555 477 C576 477 587 480 592 520 L592 520 Z M437 752 C398 740 342 700 307 679 C299 674 283 667 278 657 C277 654 279 645 281 641 C287 632 297 623 310 622 C321 621 334 623 346 628 C372 635 427 661 445 674 C455 683 496 702 498 719 C498 725 488 743 479 747 C469 751 447 754 437 752 L437 752 Z " />
<glyph glyph-name="ecircumflex" unicode="&#xea;" horiz-adv-x="630" d="M591 520 C586 480 575 477 554 477 C542 477 507 489 490 490 C432 495 279 491 224 468 C211 461 182 452 182 452 C182 452 174 367 175 349 C176 339 175 326 177 314 C186 318 211 324 221 326 C285 342 320 338 377 337 C404 336 431 336 453 332 C479 329 505 320 524 291 C534 279 530 285 527 274 C521 260 513 251 501 244 C493 235 474 237 460 241 C445 245 432 248 416 248 C370 249 280 247 238 234 C213 226 202 222 179 211 C177 190 174 150 174 125 C174 115 175 105 178 96 C255 115 316 132 394 135 C425 137 492 129 513 91 C525 75 494 58 476 57 C378 29 275 51 189 1 C180 -7 164 -10 148 -10 C139 -11 122 -10 115 -7 C103 -2 85 10 76 21 C62 36 59 44 59 62 C59 81 64 101 63 119 C61 161 72 187 71 230 C71 268 64 315 61 354 C60 363 59 372 59 381 C59 404 63 426 66 447 C76 499 65 523 116 535 C148 542 197 561 229 568 C264 575 395 584 432 583 C477 583 505 580 551 557 C573 548 594 540 591 520 L591 520 Z M471 677 C465 684 459 689 453 696 C443 708 434 722 425 734 C420 741 414 754 408 759 C402 765 389 766 382 766 C369 766 364 761 357 756 C349 747 341 740 332 733 C318 721 307 706 292 693 C273 679 254 666 244 644 C244 627 253 620 267 616 C288 608 314 620 327 630 C339 639 348 648 359 658 C369 665 375 677 386 681 C396 672 402 665 410 655 C427 637 443 627 467 624 C472 623 481 629 484 633 C488 638 492 644 489 653 C486 662 477 669 471 677 L471 677 Z " />
<glyph glyph-name="edieresis" unicode="&#xeb;" horiz-adv-x="619" d="M592 520 C587 480 576 477 555 477 C543 477 508 489 491 490 C433 495 280 491 225 468 C212 461 183 452 183 452 C183 452 175 367 176 349 C177 339 176 326 178 314 C187 318 212 324 222 326 C286 342 321 338 378 337 C405 336 432 336 454 332 C480 329 506 320 525 291 C535 279 531 285 528 274 C522 260 514 251 502 244 C494 235 475 237 461 241 C446 245 433 248 417 248 C371 249 281 247 239 234 C214 226 203 222 180 211 C178 190 175 150 175 125 C175 115 176 105 179 96 C256 115 317 132 395 135 C426 137 493 129 514 91 C526 75 495 58 477 57 C379 29 276 51 190 1 C181 -7 165 -10 149 -10 C140 -11 123 -10 116 -7 C104 -2 86 10 77 21 C63 36 60 44 60 62 C60 81 65 101 64 119 C62 161 73 187 72 230 C72 268 65 315 62 354 C61 363 60 372 60 381 C60 404 64 426 67 447 C77 499 66 523 117 535 C149 542 198 561 230 568 C265 575 396 584 433 583 C478 583 506 580 552 557 C574 548 595 540 592 520 L592 520 Z M313 687 C324 673 330 660 330 645 C330 637 328 628 323 620 C320 615 310 613 305 611 C296 608 243 600 234 600 C227 598 223 597 216 602 C203 613 195 629 191 644 C186 668 214 680 231 685 C237 688 289 696 296 696 C302 696 307 693 313 687 L313 687 Z M523 693 C516 702 501 710 492 715 C478 723 424 709 417 702 C407 695 398 688 390 680 C384 676 383 671 383 662 C383 652 387 635 398 627 C407 620 421 614 430 614 C446 615 503 637 514 645 C526 655 531 683 523 693 L523 693 Z " />
<glyph glyph-name="igrave" unicode="&#xec;" horiz-adv-x="258" d="M75 279 C74 248 74 220 74 194 C74 158 74 138 70 97 C69 77 67 60 83 41 C97 24 116 21 133 25 C175 36 184 85 184 124 C184 160 181 157 182 193 C183 211 183 229 183 247 C183 268 183 290 181 312 C179 347 184 405 188 439 C191 455 195 470 195 486 C195 494 193 502 191 511 C181 540 158 561 123 560 C84 541 84 496 82 458 C77 409 78 329 75 279 L75 279 Z M107 691 C95 697 83 701 72 709 C64 714 58 720 50 720 C39 721 24 714 18 708 C14 703 17 682 22 675 C28 667 38 660 45 653 C54 646 63 641 73 635 C93 624 129 610 158 606 C171 603 182 602 191 605 C202 609 204 620 202 630 C202 635 198 645 193 648 C189 652 180 655 175 658 C168 663 162 664 154 668 C138 675 123 683 107 691 L107 691 Z " />
<glyph glyph-name="iacute" unicode="&#xed;" horiz-adv-x="271" d="M75 279 C74 248 74 220 74 194 C74 158 74 138 70 97 C69 77 67 60 83 41 C97 24 116 21 133 25 C175 36 184 85 184 124 C184 160 181 157 182 193 C183 211 183 229 183 247 C183 268 183 290 181 312 C179 347 184 405 188 439 C191 455 195 470 195 486 C195 494 193 502 191 511 C181 540 158 561 123 560 C84 541 84 496 82 458 C77 409 78 329 75 279 L75 279 Z M221 724 C182 712 126 672 91 651 C83 646 67 639 62 629 C61 626 63 617 65 613 C71 604 81 595 94 594 C105 593 118 595 130 600 C156 607 211 633 229 646 C239 655 280 674 282 691 C282 697 272 715 263 719 C253 723 231 726 221 724 L221 724 Z " />
<glyph glyph-name="icircumflex" unicode="&#xee;" horiz-adv-x="276" d="M75 279 C74 248 74 220 74 194 C74 158 74 138 70 97 C69 77 67 60 83 41 C97 24 116 21 133 25 C175 36 184 85 184 124 C184 160 181 157 182 193 C183 211 183 229 183 247 C183 268 183 290 181 312 C179 347 184 405 188 439 C191 455 195 470 195 486 C195 494 193 502 191 511 C181 540 158 561 123 560 C84 541 84 496 82 458 C77 409 78 329 75 279 L75 279 Z M227 655 C221 662 215 667 209 674 C199 686 190 700 181 712 C176 719 170 732 164 737 C158 743 145 744 138 744 C125 744 120 739 113 734 C105 725 97 718 88 711 C74 699 63 684 48 671 C29 657 10 644 0 622 C0 605 9 598 23 594 C44 586 70 598 83 608 C95 617 104 626 115 636 C125 643 131 655 142 659 C152 650 158 643 166 633 C183 615 199 605 223 602 C228 601 237 607 240 611 C244 616 248 622 245 631 C242 640 233 647 227 655 L227 655 Z " />
<glyph glyph-name="idieresis" unicode="&#xef;" horiz-adv-x="271" d="M80 279 C79 248 79 220 79 194 C79 158 79 138 75 97 C74 77 72 60 88 41 C102 24 121 21 138 25 C180 36 189 85 189 124 C189 160 186 157 187 193 C188 211 188 229 188 247 C188 268 188 290 186 312 C184 347 189 405 193 439 C196 455 200 470 200 486 C200 494 198 502 196 511 C186 540 163 561 128 560 C89 541 89 496 87 458 C82 409 83 329 80 279 L80 279 Z M116 684 C127 670 133 657 133 642 C133 634 131 625 126 617 C123 612 113 610 108 608 C99 605 46 597 37 597 C30 595 26 594 19 599 C6 610 -2 626 -6 641 C-11 665 17 677 34 682 C40 685 92 693 99 693 C105 693 110 690 116 684 L116 684 Z M326 690 C319 699 304 707 295 712 C281 720 227 706 220 699 C210 692 201 685 193 677 C187 673 186 668 186 659 C186 649 190 632 201 624 C210 617 224 611 233 611 C249 612 306 634 317 642 C329 652 334 680 326 690 L326 690 Z " />
<glyph glyph-name="eth" unicode="&#xf0;" horiz-adv-x="693" d="M662 481 C626 532 518 567 461 585 C445 589 428 591 407 591 C354 591 255 562 220 555 C197 551 168 545 148 537 C105 524 118 466 113 429 C107 396 102 366 102 335 L102 328 C85 326 69 324 54 320 C42 316 23 313 23 297 C23 291 25 277 28 270 C37 257 61 245 75 243 C85 242 95 245 105 245 L107 245 C108 239 108 231 108 224 C108 190 105 158 105 124 C105 107 105 88 109 70 C110 52 110 24 122 7 C133 -5 174 -19 190 -20 C236 -22 263 -2 293 22 C312 36 333 51 352 63 C418 99 490 145 541 206 C564 233 599 267 609 297 C619 324 647 355 655 396 C660 415 674 464 662 481 L662 481 Z M543 398 C526 353 507 330 491 304 C464 260 383 216 343 185 C319 166 292 149 265 132 C248 120 208 92 208 92 L208 148 C208 183 211 219 212 254 C240 256 267 257 293 261 C311 263 336 264 343 280 C345 285 348 296 348 305 C348 311 347 318 343 323 C337 336 308 343 295 346 C284 347 273 343 263 343 C246 342 232 338 217 336 C218 371 220 410 219 442 C219 451 220 459 220 459 C220 459 255 468 268 470 C290 472 401 498 425 495 C467 493 502 487 546 477 C556 457 544 416 543 398 L543 398 Z " />
<glyph glyph-name="ntilde" unicode="&#xf1;" horiz-adv-x="572" d="M78 254 C78 211 62 172 62 126 C62 116 63 106 65 95 C70 71 83 -5 117 -14 C129 -17 162 -12 168 -3 C177 8 176 34 176 48 C178 116 187 231 187 307 C187 321 188 335 191 347 C248 264 315 158 359 70 C366 56 375 35 389 22 C449 -18 472 7 487 55 C502 101 509 160 509 215 C509 298 515 396 531 483 C531 490 532 500 532 508 C532 517 531 526 531 534 C530 551 508 571 494 582 C477 596 461 595 444 587 C411 568 407 500 407 455 C407 447 407 438 407 429 C409 361 399 258 384 206 C338 264 315 306 281 366 C270 386 260 405 250 425 C245 435 194 525 185 533 C174 544 143 550 129 551 C113 551 93 537 84 526 C75 513 77 498 78 483 C79 460 78 438 80 415 C83 399 79 385 79 370 C79 342 78 316 78 254 L78 254 Z M212 730 C194 721 177 707 158 688 C151 681 142 664 144 651 C149 638 162 630 176 626 C189 624 194 628 201 635 C211 643 221 651 234 658 C245 663 255 672 263 659 C275 641 279 619 291 601 C297 591 305 584 317 581 C328 579 337 578 348 579 C380 582 395 587 416 605 C435 619 452 650 452 676 C452 685 450 694 446 701 C444 705 443 709 439 713 C433 717 427 718 422 720 C410 726 402 728 395 721 C389 715 389 706 386 698 C382 687 364 641 344 651 C329 659 322 689 312 705 C309 710 304 714 302 718 C284 743 249 748 230 738 C224 736 220 732 212 730 L212 730 Z " />
<glyph glyph-name="ograve" unicode="&#xf2;" horiz-adv-x="711" d="M661 391 C655 411 644 438 632 455 C619 473 607 490 590 507 C577 523 559 545 541 556 C535 563 523 564 513 569 C504 575 496 581 486 582 C446 586 416 580 381 569 C356 563 336 547 314 537 C277 522 243 501 215 476 C202 462 189 452 177 439 C160 421 142 405 128 387 C116 370 104 357 94 342 C72 309 46 279 38 241 C32 217 30 189 34 160 C36 146 40 132 46 119 C62 78 74 51 106 25 C124 13 143 7 161 -2 C196 -14 315 -21 347 -10 C368 -4 390 2 410 13 C430 24 451 35 471 43 C493 55 512 69 532 82 C568 103 597 143 615 178 C622 189 625 200 631 211 C646 241 665 267 672 302 C675 312 674 325 674 336 C674 354 666 372 661 391 L661 391 Z M564 301 C551 265 526 212 497 190 C484 179 467 162 451 153 C396 126 349 89 290 82 C271 79 176 80 176 80 C176 80 106 161 150 229 C161 247 167 265 181 282 C203 312 244 359 271 379 C294 401 311 415 334 428 C360 444 390 453 417 463 C431 469 484 483 484 483 C484 483 519 460 526 455 C582 410 578 364 564 301 L564 301 Z M398 707 C386 713 374 717 363 725 C355 730 349 736 341 736 C330 737 315 730 309 724 C305 719 308 698 313 691 C319 683 329 676 336 669 C345 662 354 657 364 651 C384 640 420 626 449 622 C462 619 473 618 482 621 C493 625 495 636 493 646 C493 651 489 661 484 664 C480 668 471 671 466 674 C459 679 453 680 445 684 C429 691 414 699 398 707 L398 707 Z " />
<glyph glyph-name="oacute" unicode="&#xf3;" horiz-adv-x="711" d="M667 391 C661 411 650 438 638 455 C625 473 613 490 596 507 C583 523 565 545 547 556 C541 563 529 564 519 569 C510 575 502 581 492 582 C452 586 422 580 387 569 C362 563 342 547 320 537 C283 522 249 501 221 476 C208 462 195 452 183 439 C166 421 148 405 134 387 C122 370 110 357 100 342 C78 309 52 279 44 241 C38 217 36 189 40 160 C42 146 46 132 52 119 C68 78 80 51 112 25 C130 13 149 7 167 -2 C202 -14 321 -21 353 -10 C374 -4 396 2 416 13 C436 24 457 35 477 43 C499 55 518 69 538 82 C574 103 603 143 621 178 C628 189 631 200 637 211 C652 241 671 267 678 302 C681 312 680 325 680 336 C680 354 672 372 667 391 L667 391 Z M570 301 C557 265 532 212 503 190 C490 179 473 162 457 153 C402 126 355 89 296 82 C277 79 182 80 182 80 C182 80 112 161 156 229 C167 247 173 265 187 282 C209 312 250 359 277 379 C300 401 317 415 340 428 C366 444 396 453 423 463 C437 469 490 483 490 483 C490 483 525 460 532 455 C588 410 584 364 570 301 L570 301 Z M522 746 C483 734 427 694 392 673 C384 668 368 661 363 651 C362 648 364 639 366 635 C372 626 382 617 395 616 C406 615 419 617 431 622 C457 629 512 655 530 668 C540 677 581 696 583 713 C583 719 573 737 564 741 C554 745 532 748 522 746 L522 746 Z " />
<glyph glyph-name="ocircumflex" unicode="&#xf4;" horiz-adv-x="711" d="M673 391 C667 411 656 438 644 455 C631 473 619 490 602 507 C589 523 571 545 553 556 C547 563 535 564 525 569 C516 575 508 581 498 582 C458 586 428 580 393 569 C368 563 348 547 326 537 C289 522 255 501 227 476 C214 462 201 452 189 439 C172 421 154 405 140 387 C128 370 116 357 106 342 C84 309 58 279 50 241 C44 217 42 189 46 160 C48 146 52 132 58 119 C74 78 86 51 118 25 C136 13 155 7 173 -2 C208 -14 327 -21 359 -10 C380 -4 402 2 422 13 C442 24 463 35 483 43 C505 55 524 69 544 82 C580 103 609 143 627 178 C634 189 637 200 643 211 C658 241 677 267 684 302 C687 312 686 325 686 336 C686 354 678 372 673 391 L673 391 Z M576 301 C563 265 538 212 509 190 C496 179 479 162 463 153 C408 126 361 89 302 82 C283 79 188 80 188 80 C188 80 118 161 162 229 C173 247 179 265 193 282 C215 312 256 359 283 379 C306 401 323 415 346 428 C372 444 402 453 429 463 C443 469 496 483 496 483 C496 483 531 460 538 455 C594 410 590 364 576 301 L576 301 Z M558 665 C552 672 546 677 540 684 C530 696 521 710 512 722 C507 729 501 742 495 747 C489 753 476 754 469 754 C456 754 451 749 444 744 C436 735 428 728 419 721 C405 709 394 694 379 681 C360 667 341 654 331 632 C331 615 340 608 354 604 C375 596 401 608 414 618 C426 627 435 636 446 646 C456 653 462 665 473 669 C483 660 489 653 497 643 C514 625 530 615 554 612 C559 611 568 617 571 621 C575 626 579 632 576 641 C573 650 564 657 558 665 L558 665 Z " />
<glyph glyph-name="otilde" unicode="&#xf5;" horiz-adv-x="717" d="M673 391 C667 411 656 438 644 455 C631 473 619 490 602 507 C589 523 571 545 553 556 C547 563 535 564 525 569 C516 575 508 581 498 582 C458 586 428 580 393 569 C368 563 348 547 326 537 C289 522 255 501 227 476 C214 462 201 452 189 439 C172 421 154 405 140 387 C128 370 116 357 106 342 C84 309 58 279 50 241 C44 217 42 189 46 160 C48 146 52 132 58 119 C74 78 86 51 118 25 C136 13 155 7 173 -2 C208 -14 327 -21 359 -10 C380 -4 402 2 422 13 C442 24 463 35 483 43 C505 55 524 69 544 82 C580 103 609 143 627 178 C634 189 637 200 643 211 C658 241 677 267 684 302 C687 312 686 325 686 336 C686 354 678 372 673 391 L673 391 Z M576 301 C563 265 538 212 509 190 C496 179 479 162 463 153 C408 126 361 89 302 82 C283 79 188 80 188 80 C188 80 118 161 162 229 C173 247 179 265 193 282 C215 312 256 359 283 379 C306 401 323 415 346 428 C372 444 402 453 429 463 C443 469 496 483 496 483 C496 483 531 460 538 455 C594 410 590 364 576 301 L576 301 Z M328 765 C310 756 293 742 274 723 C267 716 258 699 260 686 C265 673 278 665 292 661 C305 659 310 663 317 670 C327 678 337 686 350 693 C361 698 371 707 379 694 C391 676 395 654 407 636 C413 626 421 619 433 616 C444 614 453 613 464 614 C496 617 511 622 532 640 C551 654 568 685 568 711 C568 720 566 729 562 736 C560 740 559 744 555 748 C549 752 543 753 538 755 C526 761 518 763 511 756 C505 750 505 741 502 733 C498 722 480 676 460 686 C445 694 438 724 428 740 C425 745 420 749 418 753 C400 778 365 783 346 773 C340 771 336 767 328 765 L328 765 Z " />
<glyph glyph-name="odieresis" unicode="&#xf6;" horiz-adv-x="717" d="M667 391 C661 411 650 438 638 455 C625 473 613 490 596 507 C583 523 565 545 547 556 C541 563 529 564 519 569 C510 575 502 581 492 582 C452 586 422 580 387 569 C362 563 342 547 320 537 C283 522 249 501 221 476 C208 462 195 452 183 439 C166 421 148 405 134 387 C122 370 110 357 100 342 C78 309 52 279 44 241 C38 217 36 189 40 160 C42 146 46 132 52 119 C68 78 80 51 112 25 C130 13 149 7 167 -2 C202 -14 321 -21 353 -10 C374 -4 396 2 416 13 C436 24 457 35 477 43 C499 55 518 69 538 82 C574 103 603 143 621 178 C628 189 631 200 637 211 C652 241 671 267 678 302 C681 312 680 325 680 336 C680 354 672 372 667 391 L667 391 Z M570 301 C557 265 532 212 503 190 C490 179 473 162 457 153 C402 126 355 89 296 82 C277 79 182 80 182 80 C182 80 112 161 156 229 C167 247 173 265 187 282 C209 312 250 359 277 379 C300 401 317 415 340 428 C366 444 396 453 423 463 C437 469 490 483 490 483 C490 483 525 460 532 455 C588 410 584 364 570 301 L570 301 Z M419 692 C430 678 436 665 436 650 C436 642 434 633 429 625 C426 620 416 618 411 616 C402 613 349 605 340 605 C333 603 329 602 322 607 C309 618 301 634 297 649 C292 673 320 685 337 690 C343 693 395 701 402 701 C408 701 413 698 419 692 L419 692 Z M629 698 C622 707 607 715 598 720 C584 728 530 714 523 707 C513 700 504 693 496 685 C490 681 489 676 489 667 C489 657 493 640 504 632 C513 625 527 619 536 619 C552 620 609 642 620 650 C632 660 637 688 629 698 L629 698 Z " />
<glyph glyph-name="divide" unicode="&#xf7;" horiz-adv-x="439" d="M205 336 C233 339 263 346 294 346 C303 346 314 345 325 344 C342 341 359 336 376 327 C395 319 397 302 396 287 C396 270 390 263 376 260 C344 251 286 251 252 251 C212 249 172 245 133 240 C126 239 116 235 108 235 C99 235 90 239 81 240 C73 241 68 241 62 251 C56 257 53 268 51 277 C50 285 48 290 53 296 C63 317 84 318 107 325 C138 333 175 331 205 336 L205 336 Z M280 481 C269 494 221 494 201 494 C182 494 160 480 150 476 C137 470 132 455 122 446 C115 438 110 434 119 421 C124 415 134 404 144 402 C159 396 212 406 225 408 C238 410 247 409 255 414 C270 424 284 434 284 449 C284 455 287 472 280 481 L280 481 Z M296 185 C284 198 253 202 233 202 C214 202 198 200 189 195 C175 189 155 163 146 153 C138 144 133 142 142 129 C147 122 157 110 167 109 C182 103 209 109 223 110 C235 113 254 112 263 117 C278 126 291 138 291 151 C291 158 303 177 296 185 L296 185 Z " />
<glyph glyph-name="oslash" unicode="&#xf8;" horiz-adv-x="705" d="M667 391 C661 411 650 438 638 455 C625 473 613 490 592 512 C611 535 633 570 627 585 C620 600 617 607 603 613 C591 617 581 619 573 619 C542 619 525 597 510 575 C504 579 499 581 492 582 C452 586 422 580 387 569 C362 563 342 547 320 537 C283 522 249 501 221 476 C208 462 195 452 183 439 C166 421 148 405 134 387 C122 370 110 357 100 342 C78 309 52 279 44 241 C38 217 36 189 40 160 C42 146 46 132 52 119 C68 78 80 51 112 25 C122 19 133 13 144 8 C142 4 141 0 141 -4 C139 -21 145 -64 164 -78 C175 -87 196 -83 208 -72 C219 -60 224 -43 234 -29 L244 -14 C287 -17 335 -16 353 -10 C374 -4 396 2 416 13 C436 24 457 35 477 43 C499 55 518 69 538 82 C574 103 603 143 621 178 C628 189 631 200 637 211 C652 241 671 267 678 302 C681 312 680 325 680 336 C680 354 672 372 667 391 L667 391 Z M419 441 C381 390 349 336 315 282 C298 258 280 237 265 211 C253 189 241 166 226 145 C218 132 200 107 182 80 C182 80 112 161 156 229 C167 247 173 265 187 282 C209 312 250 359 277 379 C300 401 317 415 340 428 C366 444 396 453 423 463 C427 464 432 466 439 468 C432 459 426 449 419 441 L419 441 Z M570 301 C557 265 532 212 503 190 C490 179 473 162 457 153 C407 128 363 96 312 85 L314 87 C352 136 387 187 414 244 C438 296 468 341 503 384 C519 402 531 422 544 444 C587 402 582 359 570 301 L570 301 Z " />
<glyph glyph-name="ugrave" unicode="&#xf9;" horiz-adv-x="532" d="M298 95 C327 107 369 117 369 117 C364 158 364 226 364 268 C364 281 365 309 365 324 C365 366 365 409 366 451 C366 461 366 472 366 483 C366 516 368 551 393 566 C405 574 412 580 429 580 C451 580 472 570 480 542 C484 526 477 505 474 488 C470 465 470 443 469 420 C467 393 461 367 462 340 C463 313 468 271 469 244 C470 215 484 151 484 103 C484 79 480 59 471 47 C446 17 370 12 336 12 C325 12 313 11 300 8 C258 1 225 -9 179 -7 C142 -6 94 18 82 58 C57 135 64 216 59 290 C58 308 57 324 57 341 C57 370 59 397 63 426 C69 467 67 533 107 551 C119 558 133 551 143 545 C161 532 182 517 178 496 C170 419 161 334 161 265 C161 229 164 167 167 137 L174 84 C174 84 259 81 298 95 L298 95 Z M260 671 C248 677 236 681 225 689 C217 694 211 700 203 700 C192 701 177 694 171 688 C167 683 170 662 175 655 C181 647 191 640 198 633 C207 626 216 621 226 615 C246 604 282 590 311 586 C324 583 335 582 344 585 C355 589 357 600 355 610 C355 615 351 625 346 628 C342 632 333 635 328 638 C321 643 315 644 307 648 C291 655 276 663 260 671 L260 671 Z " />
<glyph glyph-name="uacute" unicode="&#xfa;" horiz-adv-x="537" d="M304 95 C265 81 180 84 180 84 L173 137 C170 167 167 229 167 265 C167 334 176 419 184 496 C188 517 167 532 149 545 C139 551 125 558 113 551 C73 533 75 467 69 426 C65 397 63 370 63 341 C63 324 64 308 65 290 C70 216 63 135 88 58 C100 18 148 -6 185 -7 C231 -9 264 1 306 8 C319 11 331 12 342 12 C376 12 452 17 477 47 C486 59 490 79 490 103 C490 151 476 215 475 244 C474 271 469 313 468 340 C467 367 473 393 475 420 C476 443 476 465 480 488 C483 505 490 526 486 542 C478 570 457 580 435 580 C418 580 411 574 399 566 C374 551 372 516 372 483 C372 472 372 461 372 451 C371 409 371 366 371 324 C371 309 370 281 370 268 C370 226 370 158 375 117 C375 117 333 107 304 95 L304 95 Z M392 702 C353 690 297 650 262 629 C254 624 238 617 233 607 C232 604 234 595 236 591 C242 582 252 573 265 572 C276 571 289 573 301 578 C327 585 382 611 400 624 C410 633 451 652 453 669 C453 675 443 693 434 697 C424 701 402 704 392 702 L392 702 Z " />
<glyph glyph-name="ucircumflex" unicode="&#xfb;" horiz-adv-x="537" d="M304 95 C333 107 375 117 375 117 C370 158 370 226 370 268 C370 281 371 309 371 324 C371 366 371 409 372 451 C372 461 372 472 372 483 C372 516 374 551 399 566 C411 574 418 580 435 580 C457 580 478 570 486 542 C490 526 483 505 480 488 C476 465 476 443 475 420 C473 393 467 367 468 340 C469 313 474 271 475 244 C476 215 490 151 490 103 C490 79 486 59 477 47 C452 17 376 12 342 12 C331 12 319 11 306 8 C264 1 231 -9 185 -7 C148 -6 100 18 88 58 C63 135 70 216 65 290 C64 308 63 324 63 341 C63 370 65 397 69 426 C75 467 73 533 113 551 C125 558 139 551 149 545 C167 532 188 517 184 496 C176 419 167 334 167 265 C167 229 170 167 173 137 L180 84 C180 84 265 81 304 95 L304 95 Z M403 671 C397 678 391 683 385 690 C375 702 366 716 357 728 C352 735 346 748 340 753 C334 759 321 760 314 760 C301 760 296 755 289 750 C281 741 273 734 264 727 C250 715 239 700 224 687 C205 673 186 660 176 638 C176 621 185 614 199 610 C220 602 246 614 259 624 C271 633 280 642 291 652 C301 659 307 671 318 675 C328 666 334 659 342 649 C359 631 375 621 399 618 C404 617 413 623 416 627 C420 632 424 638 421 647 C418 656 409 663 403 671 L403 671 Z " />
<glyph glyph-name="udieresis" unicode="&#xfc;" horiz-adv-x="544" d="M303 95 C332 107 374 117 374 117 C369 158 369 226 369 268 C369 281 370 309 370 324 C370 366 370 409 371 451 C371 461 371 472 371 483 C371 516 373 551 398 566 C410 574 417 580 434 580 C456 580 477 570 485 542 C489 526 482 505 479 488 C475 465 475 443 474 420 C472 393 466 367 467 340 C468 313 473 271 474 244 C475 215 489 151 489 103 C489 79 485 59 476 47 C451 17 375 12 341 12 C330 12 318 11 305 8 C263 1 230 -9 184 -7 C147 -6 99 18 87 58 C62 135 69 216 64 290 C63 308 62 324 62 341 C62 370 64 397 68 426 C74 467 72 533 112 551 C124 558 138 551 148 545 C166 532 187 517 183 496 C175 419 166 334 166 265 C166 229 169 167 172 137 L179 84 C179 84 264 81 303 95 L303 95 Z M254 676 C265 662 271 649 271 634 C271 626 269 617 264 609 C261 604 251 602 246 600 C237 597 184 589 175 589 C168 587 164 586 157 591 C144 602 136 618 132 633 C127 657 155 669 172 674 C178 677 230 685 237 685 C243 685 248 682 254 676 L254 676 Z M464 682 C457 691 442 699 433 704 C419 712 365 698 358 691 C348 684 339 677 331 669 C325 665 324 660 324 651 C324 641 328 624 339 616 C348 609 362 603 371 603 C387 604 444 626 455 634 C467 644 472 672 464 682 L464 682 Z " />
<glyph glyph-name="yacute" unicode="&#xfd;" horiz-adv-x="484" d="M458 486 C462 495 463 504 463 512 C463 528 458 542 447 555 C440 565 417 576 406 580 C394 583 364 576 359 568 C348 552 344 537 339 524 C326 485 328 478 315 449 C300 415 276 364 255 330 C217 377 190 404 162 449 C145 478 138 488 115 522 C107 533 88 551 75 551 C47 554 17 547 24 511 C29 485 30 481 44 456 C63 424 78 410 98 381 C108 367 143 339 155 324 C173 299 193 274 215 243 C206 225 168 158 158 139 C143 104 122 70 131 29 C134 13 140 -4 156 -13 C163 -15 174 -17 185 -17 C196 -17 206 -15 211 -12 C223 -4 224 17 230 30 C239 46 248 64 257 79 C269 99 279 121 289 142 C301 165 313 182 325 205 C339 231 350 245 366 275 C373 290 383 319 390 335 C411 387 439 434 458 486 L458 486 Z M346 692 C307 680 251 640 216 619 C208 614 192 607 187 597 C186 594 188 585 190 581 C196 572 206 563 219 562 C230 561 243 563 255 568 C281 575 336 601 354 614 C364 623 405 642 407 659 C407 665 397 683 388 687 C378 691 356 694 346 692 L346 692 Z " />
<glyph glyph-name="thorn" unicode="&#xfe;" horiz-adv-x="542" d="M472 380 C438 421 400 430 358 430 C347 430 336 430 324 429 C280 427 226 420 184 415 C186 432 188 449 190 466 C191 490 192 532 180 557 C169 578 157 589 133 589 C111 589 88 587 83 565 C82 557 81 547 81 538 C81 519 83 500 81 483 C76 456 71 430 68 404 C64 345 53 290 49 231 C49 224 48 211 48 195 C48 116 59 -47 131 -31 C150 -27 158 -17 161 2 C161 26 157 51 156 77 C156 87 156 98 156 109 C187 102 232 98 262 98 C274 98 286 98 297 99 C344 103 389 116 426 139 C455 158 486 176 499 210 C506 229 510 251 510 274 C510 308 500 347 472 380 L472 380 Z M397 287 C382 222 317 181 248 181 C224 181 184 183 161 187 C161 220 169 305 175 332 C195 331 215 332 234 333 C263 334 304 328 331 332 C354 336 378 334 402 336 C401 328 399 294 397 287 L397 287 Z " />
<glyph glyph-name="ydieresis" unicode="&#xff;" horiz-adv-x="491" d="M458 486 C439 434 411 387 390 335 C383 319 373 290 366 275 C350 245 339 231 325 205 C313 182 301 165 289 142 C279 121 269 99 257 79 C248 64 239 46 230 30 C224 17 223 -4 211 -12 C206 -15 196 -17 185 -17 C174 -17 163 -15 156 -13 C140 -4 134 13 131 29 C122 70 143 104 158 139 C168 158 206 225 215 243 C193 274 173 299 155 324 C143 339 108 367 98 381 C78 410 63 424 44 456 C30 481 29 485 24 511 C17 547 47 554 75 551 C88 551 107 533 115 522 C138 488 145 478 162 449 C190 404 217 377 255 330 C276 364 300 415 315 449 C328 478 326 485 339 524 C344 537 348 552 359 568 C364 576 394 583 406 580 C417 576 440 565 447 555 C458 542 463 528 463 512 C463 504 462 495 458 486 L458 486 Z M219 681 C230 667 236 654 236 639 C236 631 234 622 229 614 C226 609 216 607 211 605 C202 602 149 594 140 594 C133 592 129 591 122 596 C109 607 101 623 97 638 C92 662 120 674 137 679 C143 682 195 690 202 690 C208 690 213 687 219 681 L219 681 Z M429 687 C422 696 407 704 398 709 C384 717 330 703 323 696 C313 689 304 682 296 674 C290 670 289 665 289 656 C289 646 293 629 304 621 C313 614 327 608 336 608 C352 609 409 631 420 639 C432 649 437 677 429 687 L429 687 Z " />
<glyph glyph-name="Amacron" unicode="&#x100;" horiz-adv-x="579" d="M445 528 C431 553 395 591 365 585 C349 583 328 574 316 566 C306 558 293 551 283 545 C264 531 250 507 234 491 C178 443 139 381 109 319 C100 299 94 277 82 257 C59 211 38 127 39 80 C39 53 48 37 77 14 C89 2 96 5 105 13 C128 30 133 66 139 89 C144 104 147 122 151 138 C173 142 192 149 213 155 C249 163 343 182 382 186 C401 189 419 189 435 189 C437 177 439 166 441 155 C443 143 445 131 448 121 C451 105 460 63 468 48 C475 36 486 9 501 2 C513 -4 527 6 533 14 C542 25 550 36 551 50 C552 66 545 104 544 122 C544 159 531 201 522 234 C516 257 507 281 502 304 C494 346 483 387 474 429 C472 447 469 462 464 481 C459 495 453 513 445 528 L445 528 Z M396 275 C387 276 378 277 369 277 C349 277 312 268 292 264 C276 262 207 247 190 245 C203 285 234 334 260 367 C281 393 343 462 374 481 C389 441 420 305 420 272 C407 274 408 275 396 275 L396 275 Z M476 713 C469 716 462 713 454 712 C441 709 428 706 413 706 C395 704 279 692 262 689 C248 687 234 685 221 679 C214 678 201 674 202 661 C202 655 202 643 205 636 C210 625 227 615 235 614 C241 611 248 615 254 616 C268 618 282 619 297 620 C323 623 448 635 475 640 C486 641 503 643 507 656 C509 664 512 683 508 694 C503 707 485 712 476 713 L476 713 Z " />
<glyph glyph-name="amacron" unicode="&#x101;" horiz-adv-x="572" d="M370 579 C350 579 317 563 301 552 C282 540 267 524 252 506 C218 462 174 415 148 364 C111 291 80 231 65 153 C60 127 54 112 46 87 C41 69 31 41 37 21 C46 -5 65 -14 88 -14 C130 -14 169 120 174 148 C224 155 269 153 320 163 C341 167 407 172 429 174 C434 153 438 115 439 92 C443 73 442 43 451 29 C459 16 483 2 494 0 C539 -9 534 29 532 70 C530 132 536 180 519 243 C502 303 483 387 464 449 C449 501 430 580 370 579 L370 579 Z M325 254 C292 247 242 234 210 234 C227 274 269 333 292 370 C309 397 349 445 366 464 C376 441 392 381 401 353 C411 325 412 303 417 270 C400 272 343 258 325 254 L325 254 Z M458 705 C451 708 444 705 436 704 C423 701 410 698 395 698 C377 696 261 684 244 681 C230 679 216 677 203 671 C196 670 183 666 184 653 C184 647 184 635 187 628 C192 617 209 607 217 606 C223 603 230 607 236 608 C250 610 264 611 279 612 C305 615 430 627 457 632 C468 633 485 635 489 648 C491 656 494 675 490 686 C485 699 467 704 458 705 L458 705 Z " />
<glyph glyph-name="Abreve" unicode="&#x102;" horiz-adv-x="579" d="M439 528 C425 553 389 591 359 585 C343 583 322 574 310 566 C300 558 287 551 277 545 C258 531 244 507 228 491 C172 443 133 381 103 319 C94 299 88 277 76 257 C53 211 32 127 33 80 C33 53 42 37 71 14 C83 2 90 5 99 13 C122 30 127 66 133 89 C138 104 141 122 145 138 C167 142 186 149 207 155 C243 163 337 182 376 186 C395 189 413 189 429 189 C431 177 433 166 435 155 C437 143 439 131 442 121 C445 105 454 63 462 48 C469 36 480 9 495 2 C507 -4 521 6 527 14 C536 25 544 36 545 50 C546 66 539 104 538 122 C538 159 525 201 516 234 C510 257 501 281 496 304 C488 346 477 387 468 429 C466 447 463 462 458 481 C453 495 447 513 439 528 L439 528 Z M390 275 C381 276 372 277 363 277 C343 277 306 268 286 264 C270 262 201 247 184 245 C197 285 228 334 254 367 C275 393 337 462 368 481 C383 441 414 305 414 272 C401 274 402 275 390 275 L390 275 Z M271 697 C273 685 277 669 286 657 C298 644 314 638 330 632 C353 623 379 619 402 619 C412 619 425 622 435 624 C475 632 506 667 514 705 C516 718 524 742 514 752 C506 760 494 765 482 765 C469 765 459 768 452 758 C442 744 441 725 432 711 C423 698 414 686 398 683 C382 680 364 680 346 682 C346 705 366 745 360 758 C358 769 339 775 330 776 C314 780 300 776 291 769 C275 757 266 715 271 697 L271 697 Z " />
<glyph glyph-name="abreve" unicode="&#x103;" horiz-adv-x="566" d="M364 579 C344 579 311 563 295 552 C276 540 261 524 246 506 C212 462 168 415 142 364 C105 291 74 231 59 153 C54 127 48 112 40 87 C35 69 25 41 31 21 C40 -5 59 -14 82 -14 C124 -14 163 120 168 148 C218 155 263 153 314 163 C335 167 401 172 423 174 C428 153 432 115 433 92 C437 73 436 43 445 29 C453 16 477 2 488 0 C533 -9 528 29 526 70 C524 132 530 180 513 243 C496 303 477 387 458 449 C443 501 424 580 364 579 L364 579 Z M319 254 C286 247 236 234 204 234 C221 274 263 333 286 370 C303 397 343 445 360 464 C370 441 386 381 395 353 C405 325 406 303 411 270 C394 272 337 258 319 254 L319 254 Z M275 673 C277 661 281 645 290 633 C302 620 318 614 334 608 C357 599 383 595 406 595 C416 595 429 598 439 600 C479 608 510 643 518 681 C520 694 528 718 518 728 C510 736 498 741 486 741 C473 741 463 744 456 734 C446 720 445 701 436 687 C427 674 418 662 402 659 C386 656 368 656 350 658 C350 681 370 721 364 734 C362 745 343 751 334 752 C318 756 304 752 295 745 C279 733 270 691 275 673 L275 673 Z " />
<glyph glyph-name="Aogonek" unicode="&#x104;" horiz-adv-x="571" d="M431 75 C411 75 396 47 392 29 C388 16 386 -1 387 -16 C388 -43 392 -71 415 -89 C433 -104 454 -123 475 -129 C499 -133 536 -120 552 -109 C562 -102 576 -89 579 -75 C582 -43 543 -26 516 -40 C497 -49 484 -67 462 -66 C452 -44 474 -17 489 2 C501 -4 515 6 521 14 C530 25 538 36 539 50 C540 66 533 104 532 122 C532 159 519 201 510 234 C504 257 495 281 490 304 C482 346 471 387 462 429 C460 447 457 462 452 481 C447 495 441 513 433 528 C419 553 383 591 353 585 C337 583 316 574 304 566 C294 558 281 551 271 545 C252 531 238 507 222 491 C166 443 127 381 97 319 C88 299 82 277 70 257 C47 211 26 127 27 80 C27 53 36 37 65 14 C77 2 84 5 93 13 C116 30 121 66 127 89 C132 104 135 122 139 138 C161 142 180 149 201 155 C237 163 331 182 370 186 C389 189 407 189 423 189 C425 177 427 166 429 155 C431 143 433 131 436 121 C438 112 441 94 445 78 C440 78 435 77 431 75 L431 75 Z M384 275 C375 276 366 277 357 277 C337 277 300 268 280 264 C264 262 195 247 178 245 C191 285 222 334 248 367 C269 393 331 462 362 481 C377 441 408 305 408 272 C395 274 396 275 384 275 L384 275 Z " />
<glyph glyph-name="aogonek" unicode="&#x105;" horiz-adv-x="558" d="M411 70 C390 70 376 41 371 23 C368 10 365 -7 366 -22 C367 -49 371 -77 394 -95 C413 -110 433 -129 455 -134 C479 -139 516 -126 531 -115 C541 -108 556 -95 558 -81 C562 -49 523 -19 496 -33 C477 -42 469 -57 447 -55 C436 -31 462 -14 473 5 C479 2 484 1 488 0 C533 -9 528 29 526 70 C524 132 530 180 513 243 C496 303 477 387 458 449 C443 501 424 580 364 579 C344 579 311 563 295 552 C276 540 261 524 246 506 C212 462 168 415 142 364 C105 291 74 231 59 153 C54 127 48 112 40 87 C35 69 25 41 31 21 C40 -5 59 -14 82 -14 C124 -14 163 120 168 148 C218 155 263 153 314 163 C335 167 401 172 423 174 C428 153 432 115 433 92 L436 72 C428 73 419 72 411 70 L411 70 Z M319 254 C286 247 236 234 204 234 C221 274 263 333 286 370 C303 397 343 445 360 464 C370 441 386 381 395 353 C405 325 406 303 411 270 C394 272 337 258 319 254 L319 254 Z " />
<glyph glyph-name="Cacute" unicode="&#x106;" horiz-adv-x="654" d="M615 438 C621 466 601 512 578 539 C570 546 559 556 547 563 C536 569 527 574 519 577 C496 586 471 591 447 587 C281 557 165 467 81 309 C55 262 43 228 43 197 C43 185 40 166 41 153 C47 115 69 87 83 68 C126 10 213 -2 287 -1 C326 1 388 11 424 25 C451 36 514 72 538 91 C552 101 575 121 576 137 C577 157 553 176 533 177 C510 177 498 174 479 163 C436 138 339 82 285 82 C258 82 161 103 138 115 C138 115 138 155 141 169 C146 189 155 216 159 229 C189 316 323 421 397 465 C413 475 484 504 484 504 C484 504 533 449 549 430 C563 412 576 405 595 411 C607 415 613 425 615 438 L615 438 Z M495 746 C456 734 400 694 365 673 C357 668 341 661 336 651 C335 648 337 639 339 635 C345 626 355 617 368 616 C379 615 392 617 404 622 C430 629 485 655 503 668 C513 677 554 696 556 713 C556 719 546 737 537 741 C527 745 505 748 495 746 L495 746 Z " />
<glyph glyph-name="cacute" unicode="&#x107;" horiz-adv-x="676" d="M595 519 C536 558 471 588 363 549 C313 531 281 527 215 470 C119 387 41 305 41 181 C41 168 42 157 46 146 C55 113 82 73 106 46 C138 12 205 -13 224 -18 C313 -38 410 -16 481 22 C515 40 535 58 564 79 C581 92 616 128 614 149 C614 171 592 185 564 181 C542 178 534 171 516 158 C463 121 422 85 365 71 C314 59 191 71 191 71 C191 71 161 98 148 134 C117 221 270 365 311 398 C346 427 496 483 496 483 C497 485 532 466 564 443 C602 415 619 414 632 431 C648 449 626 499 595 519 L595 519 Z M538 713 C499 701 443 661 408 640 C400 635 384 628 379 618 C378 615 380 606 382 602 C388 593 398 584 411 583 C422 582 435 584 447 589 C473 596 528 622 546 635 C556 644 597 663 599 680 C599 686 589 704 580 708 C570 712 548 715 538 713 L538 713 Z " />
<glyph glyph-name="Ccircumflex" unicode="&#x108;" horiz-adv-x="654" d="M616 438 C614 425 608 415 596 411 C577 405 564 412 550 430 C534 449 485 504 485 504 C485 504 414 475 398 465 C324 421 190 316 160 229 C156 216 147 189 142 169 C139 155 139 115 139 115 C162 103 259 82 286 82 C340 82 437 138 480 163 C499 174 511 177 534 177 C554 176 578 157 577 137 C576 121 553 101 539 91 C515 72 452 36 425 25 C389 11 327 1 288 -1 C214 -2 127 10 84 68 C70 87 48 115 42 153 C41 166 44 185 44 197 C44 228 56 262 82 309 C166 467 282 557 448 587 C472 591 497 586 520 577 C528 574 537 569 548 563 C560 556 571 546 579 539 C602 512 622 466 616 438 L616 438 Z M562 676 C556 683 550 688 544 695 C534 707 525 721 516 733 C511 740 505 753 499 758 C493 764 480 765 473 765 C460 765 455 760 448 755 C440 746 432 739 423 732 C409 720 398 705 383 692 C364 678 345 665 335 643 C335 626 344 619 358 615 C379 607 405 619 418 629 C430 638 439 647 450 657 C460 664 466 676 477 680 C487 671 493 664 501 654 C518 636 534 626 558 623 C563 622 572 628 575 632 C579 637 583 643 580 652 C577 661 568 668 562 676 L562 676 Z " />
<glyph glyph-name="ccircumflex" unicode="&#x109;" horiz-adv-x="673" d="M597 519 C538 558 473 588 365 549 C315 531 283 527 217 470 C121 387 43 305 43 181 C43 168 44 157 48 146 C57 113 84 73 108 46 C140 12 207 -13 226 -18 C315 -38 412 -16 483 22 C517 40 537 58 566 79 C583 92 618 128 616 149 C616 171 594 185 566 181 C544 178 536 171 518 158 C465 121 424 85 367 71 C316 59 193 71 193 71 C193 71 163 98 150 134 C119 221 272 365 313 398 C348 427 498 483 498 483 C499 485 534 466 566 443 C604 415 621 414 634 431 C650 449 628 499 597 519 L597 519 Z M520 664 C514 671 508 676 502 683 C492 695 483 709 474 721 C469 728 463 741 457 746 C451 752 438 753 431 753 C418 753 413 748 406 743 C398 734 390 727 381 720 C367 708 356 693 341 680 C322 666 303 653 293 631 C293 614 302 607 316 603 C337 595 363 607 376 617 C388 626 397 635 408 645 C418 652 424 664 435 668 C445 659 451 652 459 642 C476 624 492 614 516 611 C521 610 530 616 533 620 C537 625 541 631 538 640 C535 649 526 656 520 664 L520 664 Z " />
<glyph glyph-name="Cdotaccent" unicode="&#x10a;" horiz-adv-x="647" d="M622 438 C628 466 608 512 585 539 C577 546 566 556 554 563 C543 569 534 574 526 577 C503 586 478 591 454 587 C288 557 172 467 88 309 C62 262 50 228 50 197 C50 185 47 166 48 153 C54 115 76 87 90 68 C133 10 220 -2 294 -1 C333 1 395 11 431 25 C458 36 521 72 545 91 C559 101 582 121 583 137 C584 157 560 176 540 177 C517 177 505 174 486 163 C443 138 346 82 292 82 C265 82 168 103 145 115 C145 115 145 155 148 169 C153 189 162 216 166 229 C196 316 330 421 404 465 C420 475 491 504 491 504 C491 504 540 449 556 430 C570 412 583 405 602 411 C614 415 620 425 622 438 L622 438 Z M433 710 C427 716 422 719 416 719 C409 719 400 719 394 716 C377 711 349 698 354 674 C358 660 366 644 379 633 C386 628 390 628 397 630 C406 631 416 631 424 634 C430 636 440 638 443 643 C448 651 450 660 450 668 C450 683 444 696 433 710 L433 710 Z " />
<glyph glyph-name="cdotaccent" unicode="&#x10b;" horiz-adv-x="679" d="M603 519 C544 558 479 588 371 549 C321 531 289 527 223 470 C127 387 49 305 49 181 C49 168 50 157 54 146 C63 113 90 73 114 46 C146 12 213 -13 232 -18 C321 -38 418 -16 489 22 C523 40 543 58 572 79 C589 92 624 128 622 149 C622 171 600 185 572 181 C550 178 542 171 524 158 C471 121 430 85 373 71 C322 59 199 71 199 71 C199 71 169 98 156 134 C125 221 278 365 319 398 C354 427 504 483 504 483 C505 485 540 466 572 443 C610 415 627 414 640 431 C656 449 634 499 603 519 L603 519 Z M478 670 C472 676 467 679 461 679 C454 679 445 679 439 676 C422 671 394 658 399 634 C403 620 411 604 424 593 C431 588 435 588 442 590 C451 591 461 591 469 594 C475 596 485 598 488 603 C493 611 495 620 495 628 C495 643 489 656 478 670 L478 670 Z " />
<glyph glyph-name="Ccaron" unicode="&#x10c;" horiz-adv-x="653" d="M615 438 C613 425 607 415 595 411 C576 405 563 412 549 430 C533 449 484 504 484 504 C484 504 413 475 397 465 C323 421 189 316 159 229 C155 216 146 189 141 169 C138 155 138 115 138 115 C161 103 258 82 285 82 C339 82 436 138 479 163 C498 174 510 177 533 177 C553 176 577 157 576 137 C575 121 552 101 538 91 C514 72 451 36 424 25 C388 11 326 1 287 -1 C213 -2 126 10 83 68 C69 87 47 115 41 153 C40 166 43 185 43 197 C43 228 55 262 81 309 C165 467 281 557 447 587 C471 591 496 586 519 577 C527 574 536 569 547 563 C559 556 570 546 578 539 C601 512 621 466 615 438 L615 438 Z M341 695 C352 684 360 670 370 657 C376 650 380 639 386 632 C393 627 406 626 413 626 C424 626 431 630 438 637 C461 656 480 679 502 698 C519 710 544 727 549 747 C556 762 538 772 528 775 C506 784 481 772 467 762 C455 753 447 744 434 734 C426 727 418 713 408 711 C398 719 393 727 384 737 C368 755 349 767 326 768 C321 768 313 762 311 758 C307 753 302 747 306 739 C312 721 330 709 341 695 L341 695 Z " />
<glyph glyph-name="ccaron" unicode="&#x10d;" horiz-adv-x="688" d="M596 519 C537 558 472 588 364 549 C314 531 282 527 216 470 C120 387 42 305 42 181 C42 168 43 157 47 146 C56 113 83 73 107 46 C139 12 206 -13 225 -18 C314 -38 411 -16 482 22 C516 40 536 58 565 79 C582 92 617 128 615 149 C615 171 593 185 565 181 C543 178 535 171 517 158 C464 121 423 85 366 71 C315 59 192 71 192 71 C192 71 162 98 149 134 C118 221 271 365 312 398 C347 427 497 483 497 483 C498 485 533 466 565 443 C603 415 620 414 633 431 C649 449 627 499 596 519 L596 519 Z M395 669 C406 658 414 644 424 631 C430 624 434 613 440 606 C447 601 460 600 467 600 C478 600 485 604 492 611 C515 630 534 653 556 672 C573 684 598 701 603 721 C610 736 592 746 582 749 C560 758 535 746 521 736 C509 727 501 718 488 708 C480 701 472 687 462 685 C452 693 447 701 438 711 C422 729 403 741 380 742 C375 742 367 736 365 732 C361 727 356 721 360 713 C366 695 384 683 395 669 L395 669 Z " />
<glyph glyph-name="Dcaron" unicode="&#x10e;" horiz-adv-x="610" d="M565 463 C531 495 439 553 393 559 C353 565 302 560 262 562 C252 563 243 563 234 563 C209 563 184 560 160 557 C125 551 54 547 40 510 C37 500 35 492 35 484 C35 454 56 429 62 389 C64 374 65 357 65 341 C65 297 59 253 58 214 C58 190 55 170 57 147 C59 111 59 75 71 43 C75 30 90 19 99 9 C160 -48 206 26 255 57 C317 96 383 128 441 171 C491 207 507 233 552 313 C575 353 604 427 565 463 L565 463 Z M377 241 C356 227 336 217 316 203 C296 189 275 178 255 167 C246 162 172 121 171 121 C165 136 164 152 164 168 C164 186 166 205 166 224 C166 268 172 306 170 346 C168 377 169 433 156 467 C173 478 195 479 212 481 C258 489 321 487 361 481 C385 477 485 451 485 451 C476 384 428 278 377 241 L377 241 Z M243 682 C254 671 262 657 272 644 C278 637 282 626 288 619 C295 614 308 613 315 613 C326 613 333 617 340 624 C363 643 382 666 404 685 C421 697 446 714 451 734 C458 749 440 759 430 762 C408 771 383 759 369 749 C357 740 349 731 336 721 C328 714 320 700 310 698 C300 706 295 714 286 724 C270 742 251 754 228 755 C223 755 215 749 213 745 C209 740 204 734 208 726 C214 708 232 696 243 682 L243 682 Z " />
<glyph glyph-name="dcaron" unicode="&#x10f;" horiz-adv-x="653" d="M241 686 C253 675 261 660 270 648 C277 641 281 629 287 623 C294 618 307 615 314 615 C325 615 332 619 338 627 C361 647 381 669 404 687 C420 700 445 716 450 737 C457 753 439 762 428 765 C406 774 382 762 368 751 C356 744 348 734 336 725 C326 716 319 703 309 701 C298 710 293 716 285 727 C269 745 250 757 227 759 C222 759 214 753 212 749 C207 744 203 737 207 729 C213 711 230 699 241 686 L241 686 Z M615 481 C578 532 470 567 413 585 C398 589 381 591 360 591 C307 591 207 562 173 555 C150 551 121 545 100 537 C57 524 71 466 66 429 C60 396 54 366 54 335 C54 311 56 286 59 261 C60 249 60 236 60 224 C60 190 57 158 57 124 C57 107 58 88 61 70 C63 52 62 24 74 7 C86 -5 127 -19 142 -20 C189 -22 215 -2 246 22 C264 36 286 51 304 63 C371 99 443 145 494 206 C516 233 552 267 562 297 C571 324 599 355 608 396 C612 415 627 464 615 481 L615 481 Z M496 398 C479 353 459 330 444 304 C417 260 336 216 296 185 C271 166 244 149 218 132 C201 120 161 92 161 92 C161 92 161 137 161 148 C162 203 166 256 168 311 C169 350 173 403 172 442 C172 451 173 459 173 459 C173 459 207 468 220 470 C242 472 354 498 377 495 C420 493 455 487 498 477 C508 457 496 416 496 398 L496 398 Z " />
<glyph glyph-name="Dcroat" unicode="&#x110;" horiz-adv-x="656" d="M614 463 C580 495 488 553 441 559 C401 565 350 560 310 562 C301 563 292 563 282 563 C258 563 233 560 208 557 C173 551 103 547 88 510 C85 500 83 492 83 484 C83 454 105 429 110 389 C112 374 113 357 113 341 C93 339 71 336 53 331 C40 327 21 325 21 308 C21 302 23 288 26 281 C35 268 59 256 73 254 C83 253 93 256 103 257 C105 257 106 257 108 257 C107 242 106 228 106 214 C106 190 104 170 105 147 C107 111 107 75 120 43 C123 30 139 19 148 9 C208 -48 254 26 303 57 C365 96 432 128 490 171 C540 207 555 233 600 313 C623 353 653 427 614 463 L614 463 Z M293 357 C282 359 271 354 261 354 L218 348 C216 380 217 434 204 467 C221 478 243 479 261 481 C307 489 370 487 410 481 C433 477 534 451 534 451 C524 384 476 278 425 241 C405 227 384 217 365 203 C344 189 324 178 303 167 C294 162 220 121 219 121 C213 136 212 152 212 168 C212 186 214 205 214 224 C214 239 214 252 215 266 C241 268 267 269 292 272 C309 274 334 275 341 291 C343 296 346 307 346 316 C346 322 345 329 342 334 C335 347 306 354 293 357 L293 357 Z " />
<glyph glyph-name="dcroat" unicode="&#x111;" horiz-adv-x="697" d="M662 481 C626 532 518 567 461 585 C445 589 428 591 407 591 C354 591 255 562 220 555 C197 551 168 545 148 537 C105 524 118 466 113 429 C107 396 102 366 102 335 L102 328 C85 326 69 324 54 320 C42 316 23 313 23 297 C23 291 25 277 28 270 C37 257 61 245 75 243 C85 242 95 245 105 245 L107 245 C108 239 108 231 108 224 C108 190 105 158 105 124 C105 107 105 88 109 70 C110 52 110 24 122 7 C133 -5 174 -19 190 -20 C236 -22 263 -2 293 22 C312 36 333 51 352 63 C418 99 490 145 541 206 C564 233 599 267 609 297 C619 324 647 355 655 396 C660 415 674 464 662 481 L662 481 Z M543 398 C526 353 507 330 491 304 C464 260 383 216 343 185 C319 166 292 149 265 132 C248 120 208 92 208 92 L208 148 C208 183 211 219 212 254 C240 256 267 257 293 261 C311 263 336 264 343 280 C345 285 348 296 348 305 C348 311 347 318 343 323 C337 336 308 343 295 346 C284 347 273 343 263 343 C246 342 232 338 217 336 C218 371 220 410 219 442 C219 451 220 459 220 459 C220 459 255 468 268 470 C290 472 401 498 425 495 C467 493 502 487 546 477 C556 457 544 416 543 398 L543 398 Z " />
<glyph glyph-name="Emacron" unicode="&#x112;" horiz-adv-x="560" d="M66 407 C66 380 67 354 67 328 C67 268 57 212 60 152 C60 130 62 106 62 83 C62 72 61 59 61 47 C61 38 61 30 65 20 C74 -9 97 -15 121 -15 C140 -15 160 -10 170 -7 C262 20 327 30 406 35 C429 36 455 32 467 48 C476 61 480 63 469 89 C458 116 438 108 414 111 C400 113 385 114 371 114 C322 114 295 104 250 99 C218 97 191 92 163 84 C164 103 164 121 165 140 C167 148 167 199 167 199 C167 199 183 204 196 208 C249 224 285 231 333 236 C362 239 454 230 475 244 C487 252 489 257 490 274 C492 291 475 318 452 325 C429 330 409 332 387 330 C314 328 242 318 176 300 C178 314 180 429 180 429 C180 429 233 444 244 449 C296 469 344 483 407 483 C435 483 533 470 533 499 C533 528 514 562 479 566 C450 569 431 574 405 573 C299 577 227 542 129 514 C108 508 85 503 72 486 C66 476 63 466 63 453 C63 438 67 423 66 407 L66 407 Z M450 703 C443 706 436 703 428 702 C415 699 402 696 387 696 C369 694 253 682 236 679 C222 677 208 675 195 669 C188 668 175 664 176 651 C176 645 176 633 179 626 C184 615 201 605 209 604 C215 601 222 605 228 606 C242 608 256 609 271 610 C297 613 422 625 449 630 C460 631 477 633 481 646 C483 654 486 673 482 684 C477 697 459 702 450 703 L450 703 Z " />
<glyph glyph-name="emacron" unicode="&#x113;" horiz-adv-x="604" d="M586 520 C581 480 570 477 549 477 C537 477 502 489 485 490 C427 495 274 491 219 468 C206 461 177 452 177 452 C177 452 169 367 170 349 C171 339 170 326 172 314 C181 318 206 324 216 326 C280 342 315 338 372 337 C399 336 426 336 448 332 C474 329 500 320 519 291 C529 279 525 285 522 274 C516 260 508 251 496 244 C488 235 469 237 455 241 C440 245 427 248 411 248 C365 249 275 247 233 234 C208 226 197 222 174 211 C172 190 169 150 169 125 C169 115 170 105 173 96 C250 115 311 132 389 135 C420 137 487 129 508 91 C520 75 489 58 471 57 C373 29 270 51 184 1 C175 -7 159 -10 143 -10 C134 -11 117 -10 110 -7 C98 -2 80 10 71 21 C57 36 54 44 54 62 C54 81 59 101 58 119 C56 161 67 187 66 230 C66 268 59 315 56 354 C55 363 54 372 54 381 C54 404 58 426 61 447 C71 499 60 523 111 535 C143 542 192 561 224 568 C259 575 390 584 427 583 C472 583 500 580 546 557 C568 548 589 540 586 520 L586 520 Z M459 723 C452 726 445 723 437 722 C424 719 411 716 396 716 C378 714 262 702 245 699 C231 697 217 695 204 689 C197 688 184 684 185 671 C185 665 185 653 188 646 C193 635 210 625 218 624 C224 621 231 625 237 626 C251 628 265 629 280 630 C306 633 431 645 458 650 C469 651 486 653 490 666 C492 674 495 693 491 704 C486 717 468 722 459 723 L459 723 Z " />
<glyph glyph-name="Eogonek" unicode="&#x118;" horiz-adv-x="546" d="M53 407 C53 380 54 354 54 328 C54 268 44 212 47 152 C47 130 49 106 49 83 C49 72 48 59 48 47 C48 38 48 30 52 20 C61 -9 84 -15 108 -15 C127 -15 147 -10 157 -7 C172 -3 185 2 199 5 C198 0 198 -5 199 -10 C200 -37 204 -65 227 -83 C246 -98 266 -117 287 -123 C311 -127 348 -114 364 -103 C374 -96 388 -83 391 -69 C394 -37 355 -7 328 -21 C309 -30 302 -45 280 -44 C268 -17 297 0 309 20 L312 27 C338 30 365 33 393 35 C416 36 442 32 454 48 C463 61 467 63 456 89 C445 116 425 108 401 111 C387 113 372 114 358 114 C309 114 282 104 237 99 C205 97 178 92 150 84 C151 103 151 121 152 140 C154 148 154 199 154 199 C154 199 170 204 183 208 C236 224 272 231 320 236 C349 239 441 230 462 244 C474 252 476 257 477 274 C479 291 462 318 439 325 C416 330 396 332 374 330 C301 328 229 318 163 300 C165 314 167 429 167 429 C167 429 220 444 231 449 C283 469 331 483 394 483 C422 483 520 470 520 499 C520 528 501 562 466 566 C437 569 418 574 392 573 C286 577 214 542 116 514 C95 508 72 503 59 486 C53 476 50 466 50 453 C50 438 54 423 53 407 L53 407 Z " />
<glyph glyph-name="eogonek" unicode="&#x119;" horiz-adv-x="618" d="M592 520 C595 540 574 548 552 557 C506 580 478 583 433 583 C396 584 265 575 230 568 C198 561 149 542 117 535 C66 523 77 499 67 447 C64 426 60 404 60 381 C60 372 61 363 62 354 C65 315 72 268 72 230 C73 187 62 161 64 119 C65 101 60 81 60 62 C60 44 63 36 77 21 C86 10 104 -2 116 -7 C123 -10 140 -11 149 -10 C165 -10 181 -7 190 1 C207 11 225 18 242 23 C242 16 242 9 242 2 C243 -24 247 -52 270 -71 C289 -85 310 -105 331 -110 C355 -114 392 -101 407 -90 C417 -83 432 -71 434 -56 C438 -24 399 6 372 -9 C353 -17 345 -32 323 -31 C311 -4 341 13 352 33 L355 40 C395 42 436 46 477 57 C495 58 526 75 514 91 C493 129 426 137 395 135 C317 132 256 115 179 96 C176 105 175 115 175 125 C175 150 178 190 180 211 C203 222 214 226 239 234 C281 247 371 249 417 248 C433 248 446 245 461 241 C475 237 494 235 502 244 C514 251 522 260 528 274 C531 285 535 279 525 291 C506 320 480 329 454 332 C432 336 405 336 378 337 C321 338 286 342 222 326 C212 324 187 318 178 314 C176 326 177 339 176 349 C175 367 183 452 183 452 C183 452 212 461 225 468 C280 491 433 495 491 490 C508 489 543 477 555 477 C576 477 587 480 592 520 L592 520 Z " />
<glyph glyph-name="Ecaron" unicode="&#x11a;" horiz-adv-x="554" d="M53 407 C53 380 54 354 54 328 C54 268 44 212 47 152 C47 130 49 106 49 83 C49 72 48 59 48 47 C48 38 48 30 52 20 C61 -9 84 -15 108 -15 C127 -15 147 -10 157 -7 C249 20 314 30 393 35 C416 36 442 32 454 48 C463 61 467 63 456 89 C445 116 425 108 401 111 C387 113 372 114 358 114 C309 114 282 104 237 99 C205 97 178 92 150 84 C151 103 151 121 152 140 C154 148 154 199 154 199 C154 199 170 204 183 208 C236 224 272 231 320 236 C349 239 441 230 462 244 C474 252 476 257 477 274 C479 291 462 318 439 325 C416 330 396 332 374 330 C301 328 229 318 163 300 C165 314 167 429 167 429 C167 429 220 444 231 449 C283 469 331 483 394 483 C422 483 520 470 520 499 C520 528 501 562 466 566 C437 569 418 574 392 573 C286 577 214 542 116 514 C95 508 72 503 59 486 C53 476 50 466 50 453 C50 438 54 423 53 407 L53 407 Z M252 678 C263 667 271 653 281 640 C287 633 291 622 297 615 C304 610 317 609 324 609 C335 609 342 613 349 620 C372 639 391 662 413 681 C430 693 455 710 460 730 C467 745 449 755 439 758 C417 767 392 755 378 745 C366 736 358 727 345 717 C337 710 329 696 319 694 C309 702 304 710 295 720 C279 738 260 750 237 751 C232 751 224 745 222 741 C218 736 213 730 217 722 C223 704 241 692 252 678 L252 678 Z " />
<glyph glyph-name="ecaron" unicode="&#x11b;" horiz-adv-x="619" d="M586 520 C581 480 570 477 549 477 C537 477 502 489 485 490 C427 495 274 491 219 468 C206 461 177 452 177 452 C177 452 169 367 170 349 C171 339 170 326 172 314 C181 318 206 324 216 326 C280 342 315 338 372 337 C399 336 426 336 448 332 C474 329 500 320 519 291 C529 279 525 285 522 274 C516 260 508 251 496 244 C488 235 469 237 455 241 C440 245 427 248 411 248 C365 249 275 247 233 234 C208 226 197 222 174 211 C172 190 169 150 169 125 C169 115 170 105 173 96 C250 115 311 132 389 135 C420 137 487 129 508 91 C520 75 489 58 471 57 C373 29 270 51 184 1 C175 -7 159 -10 143 -10 C134 -11 117 -10 110 -7 C98 -2 80 10 71 21 C57 36 54 44 54 62 C54 81 59 101 58 119 C56 161 67 187 66 230 C66 268 59 315 56 354 C55 363 54 372 54 381 C54 404 58 426 61 447 C71 499 60 523 111 535 C143 542 192 561 224 568 C259 575 390 584 427 583 C472 583 500 580 546 557 C568 548 589 540 586 520 L586 520 Z M266 682 C277 671 285 657 295 644 C301 637 305 626 311 619 C318 614 331 613 338 613 C349 613 356 617 363 624 C386 643 405 666 427 685 C444 697 469 714 474 734 C481 749 463 759 453 762 C431 771 406 759 392 749 C380 740 372 731 359 721 C351 714 343 700 333 698 C323 706 318 714 309 724 C293 742 274 754 251 755 C246 755 238 749 236 745 C232 740 227 734 231 726 C237 708 255 696 266 682 L266 682 Z " />
<glyph glyph-name="Gcircumflex" unicode="&#x11c;" horiz-adv-x="723" d="M513 599 C421 601 299 565 265 540 C237 523 208 500 183 479 C149 451 137 436 117 410 C84 368 61 323 44 275 C38 262 42 238 42 224 C42 198 49 155 63 123 C98 52 207 -16 279 -16 C347 -16 387 -23 450 4 C494 22 516 42 554 67 C592 97 678 209 678 255 C678 289 661 330 635 345 C616 356 596 360 577 363 C553 363 490 365 465 364 C412 363 354 335 306 301 C295 293 270 266 272 228 C273 202 346 193 387 239 C406 263 459 284 510 284 C528 284 558 279 573 274 C559 219 475 122 457 112 C437 102 418 90 395 83 C343 67 262 67 201 91 C172 100 144 190 144 218 C144 318 268 414 356 463 C364 468 485 514 543 517 C564 498 618 465 644 460 C654 457 667 458 676 464 C686 472 692 481 688 493 C679 522 640 551 616 564 C583 578 547 600 513 599 L513 599 Z M551 707 C545 714 539 719 533 726 C523 738 514 752 505 764 C500 771 494 784 488 789 C482 795 469 796 462 796 C449 796 444 791 437 786 C429 777 421 770 412 763 C398 751 387 736 372 723 C353 709 334 696 324 674 C324 657 333 650 347 646 C368 638 394 650 407 660 C419 669 428 678 439 688 C449 695 455 707 466 711 C476 702 482 695 490 685 C507 667 523 657 547 654 C552 653 561 659 564 663 C568 668 572 674 569 683 C566 692 557 699 551 707 L551 707 Z " />
<glyph glyph-name="gcircumflex" unicode="&#x11d;" horiz-adv-x="767" d="M642 552 C618 568 566 585 540 586 C474 590 385 578 329 545 C212 489 42 349 34 213 C31 166 53 108 93 73 C131 39 194 0 238 -5 C267 -9 284 -15 313 -15 C354 -12 391 -7 430 2 C472 7 565 49 594 70 C645 109 701 150 717 214 C720 228 705 268 696 281 C684 301 671 315 654 323 C638 330 619 336 603 340 C572 346 541 349 513 349 C455 349 400 337 347 311 C332 303 298 277 293 256 C289 241 293 234 304 217 C314 203 333 200 346 204 C363 208 385 220 400 232 C423 254 439 258 471 262 C482 262 494 263 505 263 C534 263 581 256 604 236 C564 149 413 92 332 76 C275 65 167 87 150 149 C146 159 145 172 145 183 C145 200 147 216 152 228 C162 251 223 335 240 350 C298 409 377 444 449 471 C473 480 567 499 567 499 C567 499 618 471 636 459 C658 444 673 440 692 440 C704 440 705 438 713 451 C725 466 715 484 703 503 C689 521 661 539 642 552 L642 552 Z M587 678 C581 685 575 690 569 697 C559 709 550 723 541 735 C536 742 530 755 524 760 C518 766 505 767 498 767 C485 767 480 762 473 757 C465 748 457 741 448 734 C434 722 423 707 408 694 C389 680 370 667 360 645 C360 628 369 621 383 617 C404 609 430 621 443 631 C455 640 464 649 475 659 C485 666 491 678 502 682 C512 673 518 666 526 656 C543 638 559 628 583 625 C588 624 597 630 600 634 C604 639 608 645 605 654 C602 663 593 670 587 678 L587 678 Z " />
<glyph glyph-name="Gbreve" unicode="&#x11e;" horiz-adv-x="717" d="M500 599 C408 601 286 565 252 540 C224 523 195 500 170 479 C136 451 124 436 104 410 C71 368 48 323 31 275 C25 262 29 238 29 224 C29 198 36 155 50 123 C85 52 194 -16 266 -16 C334 -16 374 -23 437 4 C481 22 503 42 541 67 C579 97 665 209 665 255 C665 289 648 330 622 345 C603 356 583 360 564 363 C540 363 477 365 452 364 C399 363 341 335 293 301 C282 293 257 266 259 228 C260 202 333 193 374 239 C393 263 446 284 497 284 C515 284 545 279 560 274 C546 219 462 122 444 112 C424 102 405 90 382 83 C330 67 249 67 188 91 C159 100 131 190 131 218 C131 318 255 414 343 463 C351 468 472 514 530 517 C551 498 605 465 631 460 C641 457 654 458 663 464 C673 472 679 481 675 493 C666 522 627 551 603 564 C570 578 534 600 500 599 L500 599 Z M285 726 C287 714 291 698 300 686 C312 673 328 667 344 661 C367 652 393 648 416 648 C426 648 439 651 449 653 C489 661 520 696 528 734 C530 747 538 771 528 781 C520 789 508 794 496 794 C483 794 473 797 466 787 C456 773 455 754 446 740 C437 727 428 715 412 712 C396 709 378 709 360 711 C360 734 380 774 374 787 C372 798 353 804 344 805 C328 809 314 805 305 798 C289 786 280 744 285 726 L285 726 Z " />
<glyph glyph-name="gbreve" unicode="&#x11f;" horiz-adv-x="774" d="M654 552 C630 568 578 585 552 586 C486 590 397 578 341 545 C224 489 54 349 46 213 C43 166 65 108 105 73 C143 39 206 0 250 -5 C279 -9 296 -15 325 -15 C366 -12 403 -7 442 2 C484 7 577 49 606 70 C657 109 713 150 729 214 C732 228 717 268 708 281 C696 301 683 315 666 323 C650 330 631 336 615 340 C584 346 553 349 525 349 C467 349 412 337 359 311 C344 303 310 277 305 256 C301 241 305 234 316 217 C326 203 345 200 358 204 C375 208 397 220 412 232 C435 254 451 258 483 262 C494 262 506 263 517 263 C546 263 593 256 616 236 C576 149 425 92 344 76 C287 65 179 87 162 149 C158 159 157 172 157 183 C157 200 159 216 164 228 C174 251 235 335 252 350 C310 409 389 444 461 471 C485 480 579 499 579 499 C579 499 630 471 648 459 C670 444 685 440 704 440 C716 440 717 438 725 451 C737 466 727 484 715 503 C701 521 673 539 654 552 L654 552 Z M349 694 C351 682 355 666 364 654 C376 641 392 635 408 629 C431 620 457 616 480 616 C490 616 503 619 513 621 C553 629 584 664 592 702 C594 715 602 739 592 749 C584 757 572 762 560 762 C547 762 537 765 530 755 C520 741 519 722 510 708 C501 695 492 683 476 680 C460 677 442 677 424 679 C424 702 444 742 438 755 C436 766 417 772 408 773 C392 777 378 773 369 766 C353 754 344 712 349 694 L349 694 Z " />
<glyph glyph-name="Gdotaccent" unicode="&#x120;" horiz-adv-x="717" d="M512 599 C420 601 298 565 264 540 C236 523 207 500 182 479 C148 451 136 436 116 410 C83 368 60 323 43 275 C37 262 41 238 41 224 C41 198 48 155 62 123 C97 52 206 -16 278 -16 C346 -16 386 -23 449 4 C493 22 515 42 553 67 C591 97 677 209 677 255 C677 289 660 330 634 345 C615 356 595 360 576 363 C552 363 489 365 464 364 C411 363 353 335 305 301 C294 293 269 266 271 228 C272 202 345 193 386 239 C405 263 458 284 509 284 C527 284 557 279 572 274 C558 219 474 122 456 112 C436 102 417 90 394 83 C342 67 261 67 200 91 C171 100 143 190 143 218 C143 318 267 414 355 463 C363 468 484 514 542 517 C563 498 617 465 643 460 C653 457 666 458 675 464 C685 472 691 481 687 493 C678 522 639 551 615 564 C582 578 546 600 512 599 L512 599 Z M470 722 C464 728 459 731 453 731 C446 731 437 731 431 728 C414 723 386 710 391 686 C395 672 403 656 416 645 C423 640 427 640 434 642 C443 643 453 643 461 646 C467 648 477 650 480 655 C485 663 487 672 487 680 C487 695 481 708 470 722 L470 722 Z " />
<glyph glyph-name="gdotaccent" unicode="&#x121;" horiz-adv-x="774" d="M655 552 C631 568 579 585 553 586 C487 590 398 578 342 545 C225 489 55 349 47 213 C44 166 66 108 106 73 C144 39 207 0 251 -5 C280 -9 297 -15 326 -15 C367 -12 404 -7 443 2 C485 7 578 49 607 70 C658 109 714 150 730 214 C733 228 718 268 709 281 C697 301 684 315 667 323 C651 330 632 336 616 340 C585 346 554 349 526 349 C468 349 413 337 360 311 C345 303 311 277 306 256 C302 241 306 234 317 217 C327 203 346 200 359 204 C376 208 398 220 413 232 C436 254 452 258 484 262 C495 262 507 263 518 263 C547 263 594 256 617 236 C577 149 426 92 345 76 C288 65 180 87 163 149 C159 159 158 172 158 183 C158 200 160 216 165 228 C175 251 236 335 253 350 C311 409 390 444 462 471 C486 480 580 499 580 499 C580 499 631 471 649 459 C671 444 686 440 705 440 C717 440 718 438 726 451 C738 466 728 484 716 503 C702 521 674 539 655 552 L655 552 Z M514 697 C508 703 503 706 497 706 C490 706 481 706 475 703 C458 698 430 685 435 661 C439 647 447 631 460 620 C467 615 471 615 478 617 C487 618 497 618 505 621 C511 623 521 625 524 630 C529 638 531 647 531 655 C531 670 525 683 514 697 L514 697 Z " />
<glyph glyph-name="Hcircumflex" unicode="&#x124;" horiz-adv-x="554" d="M499 468 C501 428 490 393 489 355 C489 315 484 284 482 240 C481 196 484 150 504 102 C509 89 519 69 515 57 C512 47 499 38 491 32 C475 19 455 25 440 32 C419 44 411 65 401 86 C374 141 367 228 368 281 C350 276 291 273 274 268 C244 260 199 242 165 240 C161 240 155 240 149 242 C149 230 149 190 148 179 C145 149 149 116 149 84 C150 71 153 57 153 43 C153 30 150 19 144 12 C127 -3 123 -13 98 -4 C73 6 61 23 54 46 C39 93 36 144 34 192 C31 240 39 292 47 337 C56 385 56 436 59 487 C59 517 85 559 123 554 C132 552 159 534 160 523 C161 512 167 457 167 447 C167 435 167 425 167 415 C168 388 166 361 165 335 C187 338 225 343 246 351 C265 357 348 379 381 376 C381 383 382 390 382 397 C381 430 387 464 390 495 C394 530 387 579 436 575 C456 574 472 565 482 545 C492 519 496 493 499 468 L499 468 Z M389 675 C383 682 377 687 371 694 C361 706 352 720 343 732 C338 739 332 752 326 757 C320 763 307 764 300 764 C287 764 282 759 275 754 C267 745 259 738 250 731 C236 719 225 704 210 691 C191 677 172 664 162 642 C162 625 171 618 185 614 C206 606 232 618 245 628 C257 637 266 646 277 656 C287 663 293 675 304 679 C314 670 320 663 328 653 C345 635 361 625 385 622 C390 621 399 627 402 631 C406 636 410 642 407 651 C404 660 395 667 389 675 L389 675 Z " />
</font>
</svg>
