<?xml version="1.0" encoding="UTF-8"?>
<svg xmlns="http://www.w3.org/2000/svg" xmlns:xlink="http://www.w3.org/1999/xlink" version="1.2" >
<font id="Out of Line BB Bold Italic">
<font-face  font-family="Out of Line BB" units-per-em="1000" ascent="713" descent="-287" font-style="italic" font-weight="700" font-stretch="normal" slope="-20" cap-height="634" x-height="634" underline-position="-75" underline-thickness="50" />
<missing-glyph  horiz-adv-x="748" d="M18 0 L577 0 L880 848 L320 848 L18 0 Z M441 795 L722 795 L455 51 L175 51 L441 795 Z " />
<glyph glyph-name="NULL" d="" />
<glyph glyph-name="CR" unicode="&#xd;" horiz-adv-x="250" d="" />
<glyph glyph-name="space" unicode="&#x20;" horiz-adv-x="338" d="" />
<glyph glyph-name="exclam" unicode="&#x21;" horiz-adv-x="435" d="M194 -32 C170 -50 85 -58 66 -59 C51 -61 26 -67 11 -61 C-7 -55 -13 -13 -8 8 C1 36 52 53 71 65 C90 78 110 81 130 81 C147 81 166 79 184 78 C199 78 218 78 230 70 C249 62 250 48 244 33 C237 10 209 -18 194 -32 L194 -32 Z M540 601 C529 623 518 632 503 632 C493 632 453 627 438 621 C359 587 341 513 293 451 C250 398 251 396 216 343 C195 311 128 222 146 202 C170 176 196 148 227 167 C251 184 300 232 321 253 C350 281 374 315 398 345 C458 417 481 435 535 510 C560 544 559 564 540 601 L540 601 Z " />
<glyph glyph-name="quotedbl" unicode="&#x22;" horiz-adv-x="535" d="M404 617 C408 607 407 595 403 583 C396 564 382 543 375 526 C354 478 329 430 307 382 C290 349 241 301 199 315 C179 321 166 356 166 373 C167 384 174 401 176 411 C182 427 185 441 190 457 C198 481 205 503 212 525 C221 548 230 571 245 595 C253 606 258 621 265 632 C280 650 307 653 326 659 C338 663 356 669 370 668 C388 667 398 634 404 617 L404 617 Z M658 663 C650 686 639 682 616 681 C603 681 588 680 574 679 C558 676 541 673 528 663 C515 652 510 634 503 617 C492 594 482 571 473 548 C461 521 452 496 440 469 C431 446 427 427 427 402 C429 387 430 364 439 352 C452 332 482 344 499 350 C522 358 548 366 563 385 C569 394 612 479 616 488 C630 516 645 545 656 575 C659 585 661 595 664 605 C673 629 664 640 658 663 L658 663 Z " />
<glyph glyph-name="numbersign" unicode="&#x23;" horiz-adv-x="828" d="M779 335 C804 336 828 335 848 353 C866 370 862 389 850 406 C827 438 781 452 736 456 C745 474 754 491 758 510 C766 542 768 595 719 598 C672 601 637 566 619 538 C603 511 583 475 569 447 C525 444 507 439 466 435 C474 472 498 522 449 538 C391 556 338 485 314 422 C304 422 292 422 281 422 C263 422 261 423 244 423 C229 423 213 422 198 416 C170 405 152 393 154 365 C154 355 152 339 161 331 C193 299 225 299 270 301 C261 279 249 256 239 234 C194 234 163 236 120 239 C90 240 63 222 65 199 C67 188 75 167 80 156 C87 145 109 137 123 131 C148 121 163 119 193 119 C187 104 182 91 177 79 C161 33 146 -26 192 -26 C202 -26 228 -23 244 -16 C280 -1 294 7 304 40 C313 67 324 92 334 118 C344 118 356 118 367 118 C398 119 417 118 448 118 C439 88 433 58 438 28 C441 2 466 -7 485 -7 C501 -7 519 0 536 10 C576 34 595 81 610 130 C635 132 658 136 682 142 C705 148 740 154 757 170 C766 178 773 189 778 199 C782 212 780 224 765 232 C744 242 743 245 716 248 C697 250 670 248 641 246 C651 274 661 302 673 328 C706 332 739 333 779 335 L779 335 Z M485 236 C459 235 440 233 421 233 C410 233 400 234 389 234 C400 258 413 284 422 309 C453 312 497 310 517 318 C502 292 494 263 485 236 L485 236 Z " />
<glyph glyph-name="dollar" unicode="&#x24;" horiz-adv-x="658" d="M681 474 C686 516 625 543 597 565 C605 579 612 594 616 608 C621 622 625 634 626 647 C629 659 632 669 624 679 C616 687 604 695 593 701 C568 714 534 705 512 688 C492 673 488 646 477 626 C468 610 461 594 454 577 C407 574 375 564 335 541 C280 510 243 479 207 430 C191 408 172 382 167 356 C164 335 174 316 183 297 C199 258 239 225 286 223 C298 222 309 222 321 222 C360 222 372 226 411 228 C430 229 455 234 472 230 C441 162 366 137 286 137 C255 137 229 141 209 147 C180 154 166 168 147 187 C140 195 129 210 119 215 C109 221 98 217 87 213 C67 207 55 193 50 176 C40 150 45 118 56 97 C85 50 107 44 170 24 C190 18 198 19 216 18 C211 8 208 -1 202 -10 C197 -23 191 -35 187 -47 C180 -65 182 -95 199 -108 C211 -117 223 -120 235 -120 C248 -120 274 -115 286 -110 C300 -105 308 -101 315 -93 C327 -77 336 -57 343 -39 C351 -23 356 -6 366 21 C374 23 381 24 388 25 C421 34 439 41 471 52 C506 64 540 79 565 104 C593 132 618 168 631 205 C636 217 639 229 640 241 C645 280 604 325 568 341 C552 347 535 349 516 349 C484 349 451 343 420 339 C399 337 400 336 378 336 C360 336 340 337 322 339 C329 390 373 430 420 455 C440 465 473 481 494 474 C516 465 540 451 560 438 C576 426 599 413 623 413 C635 413 648 417 659 427 C671 438 678 459 681 474 L681 474 Z " />
<glyph glyph-name="percent" unicode="&#x25;" horiz-adv-x="788" d="M869 553 C858 578 835 615 802 611 C770 608 733 581 698 573 C670 567 641 564 613 564 C601 564 590 565 576 566 C528 572 513 606 480 629 C466 640 458 653 441 657 C418 663 389 653 366 650 C319 644 288 618 254 581 C226 550 196 510 174 474 C168 463 163 452 158 441 C150 414 148 386 168 362 C177 349 196 327 210 320 C224 313 246 315 262 315 C345 310 414 336 481 392 C503 410 525 433 543 457 C568 457 592 457 612 453 C537 400 459 326 387 268 C350 238 312 213 279 181 C246 150 210 122 175 96 C147 75 127 51 102 27 C86 8 75 -5 70 -18 C66 -32 66 -46 69 -68 C74 -82 89 -90 109 -90 C128 -90 148 -84 169 -69 C224 -32 278 8 330 50 C316 30 304 10 297 -11 C288 -33 285 -56 287 -81 C289 -109 297 -112 324 -121 C342 -127 360 -133 380 -135 C472 -136 581 -68 650 -13 C665 -1 675 15 681 32 C686 46 687 62 691 79 C693 102 687 124 671 141 C659 154 634 158 618 164 C594 173 571 184 542 187 C517 189 483 177 460 165 C495 193 542 225 573 259 C607 298 653 327 696 359 C741 394 789 425 831 464 C843 475 866 491 875 503 C883 518 876 537 869 553 L869 553 Z M293 436 C299 453 322 484 351 510 C363 498 381 488 399 481 C371 456 338 439 293 436 L293 436 Z M557 58 C551 40 504 10 482 1 C462 -6 441 -19 420 -10 C428 1 442 18 450 24 C455 32 464 36 473 42 C503 63 533 72 557 58 L557 58 Z " />
<glyph glyph-name="ampersand" unicode="&#x26;" horiz-adv-x="893" d="M880 182 C887 200 899 217 886 234 C873 248 862 259 839 262 C825 263 813 264 798 264 C752 264 706 257 663 247 C640 242 618 236 593 235 C577 234 548 232 537 219 C514 195 513 161 531 133 C536 128 570 116 568 110 C563 98 555 65 544 56 C522 41 452 38 425 33 C396 28 365 24 335 24 C302 24 266 31 233 48 C227 53 221 58 216 65 C211 73 212 83 216 94 C234 146 309 226 355 238 C385 246 396 250 418 256 C441 262 471 263 494 265 C541 270 568 309 569 347 C569 361 540 378 524 383 C501 392 484 390 463 407 C446 422 429 438 417 456 C439 473 461 486 488 492 C509 498 551 507 584 507 C603 507 618 503 626 495 C643 473 681 448 715 448 C732 451 757 452 769 464 C782 478 791 497 787 514 C780 542 756 561 734 581 C708 604 668 613 627 623 C600 627 572 624 541 622 C475 617 403 600 332 567 C308 555 287 538 269 519 C258 507 249 493 244 479 C237 458 235 436 243 415 C251 388 273 371 287 348 C256 339 221 320 194 303 C140 268 91 216 67 162 C54 136 52 105 51 78 C48 35 67 -11 99 -40 C118 -57 141 -73 166 -81 C208 -96 255 -101 298 -107 C321 -110 342 -112 363 -112 C380 -112 397 -111 418 -107 C451 -102 485 -99 518 -92 C565 -81 626 -65 659 -34 C687 -6 701 38 716 74 C728 96 738 117 749 136 C778 144 810 145 844 153 C865 159 873 162 880 182 L880 182 Z " />
<glyph glyph-name="quotesingle" unicode="&#x27;" horiz-adv-x="289" d="M406 663 C397 686 386 682 364 681 C351 681 334 680 321 679 C306 676 288 673 276 663 C261 652 257 634 250 617 C239 594 230 571 221 548 C208 521 199 496 188 469 C178 446 174 427 175 402 C176 387 177 364 186 352 C199 332 229 344 246 350 C269 358 295 366 310 385 C317 394 360 479 364 488 C384 525 399 566 413 605 C421 629 411 640 406 663 L406 663 Z " />
<glyph glyph-name="parenleft" unicode="&#x28;" horiz-adv-x="468" d="M318 596 C278 564 250 537 218 499 C161 429 110 350 77 265 C50 189 34 110 47 30 C59 -29 94 -67 143 -101 C173 -122 187 -131 224 -119 C248 -112 271 -81 274 -56 C275 -47 275 -24 269 -17 C263 -8 248 -8 238 1 C216 22 194 61 191 91 C187 130 196 167 209 205 C218 229 229 253 241 278 C258 316 283 361 307 396 C332 434 355 461 392 491 C447 537 480 565 543 596 C557 602 580 607 588 619 C597 630 619 669 612 680 C601 698 543 722 519 718 C443 701 376 642 318 596 L318 596 Z " />
<glyph glyph-name="parenright" unicode="&#x29;" horiz-adv-x="504" d="M536 417 C538 467 527 513 527 561 C528 600 503 642 479 668 C464 686 449 712 421 710 C395 708 358 690 344 665 C339 656 326 635 324 625 C323 611 333 608 340 600 C363 576 372 552 374 516 C380 435 385 362 356 280 C342 241 326 211 302 178 C282 148 257 115 228 95 C202 78 177 56 151 44 C123 32 94 18 66 8 C55 5 4 -6 -2 -10 C-21 -21 -40 -55 -42 -76 C-43 -99 -21 -118 -6 -131 C2 -137 12 -139 23 -139 C41 -139 61 -133 77 -130 C119 -121 151 -105 190 -87 C240 -65 288 -40 331 -4 C374 33 405 82 438 126 C464 162 491 211 501 255 C513 309 531 361 536 417 L536 417 Z " />
<glyph glyph-name="asterisk" unicode="&#x2a;" horiz-adv-x="586" d="M577 424 C608 428 652 424 679 444 C691 453 693 482 691 496 C690 510 683 528 665 533 C657 537 645 541 635 542 C624 544 612 539 602 537 C571 531 539 526 508 520 C526 554 539 589 558 625 C561 634 569 641 566 650 C562 665 533 693 510 693 C488 691 454 662 444 641 C428 607 408 573 391 539 C378 553 366 567 355 582 C335 607 271 655 242 621 C235 615 231 606 229 599 C224 589 229 579 232 568 C238 547 249 516 264 498 C269 491 276 485 283 478 C257 476 233 474 213 461 C206 456 194 442 193 435 C191 427 183 408 187 402 C195 390 224 379 239 373 C258 366 289 372 313 379 C309 367 306 355 300 343 C293 327 284 312 277 296 C273 282 271 269 275 255 C278 247 279 239 288 235 C299 232 310 236 320 236 C333 238 344 239 355 241 C364 242 366 245 372 251 C395 273 413 303 429 335 C432 331 436 328 439 325 C457 307 475 288 495 272 C509 258 524 265 540 275 C549 281 554 287 561 295 C569 303 566 310 565 322 C560 345 553 364 537 383 C527 394 518 405 508 415 C530 419 554 422 577 424 L577 424 Z " />
<glyph glyph-name="plus" unicode="&#x2b;" horiz-adv-x="586" d="M601 275 C612 296 620 319 596 331 C575 341 551 348 527 352 C513 354 497 355 483 355 C469 355 452 354 438 353 C440 361 444 371 448 381 C453 404 469 436 452 461 C440 476 416 504 394 510 C371 515 344 486 335 473 C324 461 321 444 317 429 C310 409 304 389 297 368 C293 358 289 347 284 336 C255 335 224 332 195 326 C156 318 122 315 95 288 C79 273 74 240 80 224 C85 213 94 215 105 212 C117 210 129 206 141 206 C154 206 168 210 182 212 C201 215 220 216 241 218 C232 195 228 171 222 148 C220 128 211 103 234 86 C243 79 261 64 274 63 C296 59 328 76 339 91 C345 102 349 118 353 131 C363 160 374 188 387 225 C440 227 509 228 554 239 C577 244 591 252 601 275 L601 275 Z " />
<glyph glyph-name="comma" unicode="&#x2c;" horiz-adv-x="320" d="M105 115 C95 105 69 82 58 72 C37 53 20 32 -1 13 C-17 0 -24 -15 -34 -33 C-45 -53 -46 -65 -31 -84 C-15 -98 12 -115 31 -110 C51 -106 80 -86 97 -72 C147 -31 215 26 254 75 C264 88 272 96 274 111 C275 120 261 149 252 156 C243 165 218 165 206 165 C189 164 170 161 152 156 C130 149 121 130 105 115 L105 115 Z " />
<glyph glyph-name="hyphen" unicode="&#x2d;" horiz-adv-x="497" d="M295 310 C257 304 217 307 175 295 C145 286 120 285 98 257 C90 248 90 241 87 230 C85 219 82 202 86 193 C89 181 95 182 102 179 C113 177 122 173 132 173 C142 173 155 178 164 179 C212 187 261 192 308 193 C349 194 416 194 457 206 C476 212 486 221 494 244 C503 264 508 287 491 299 C474 310 458 318 439 321 C427 323 415 324 404 324 C367 324 330 315 295 310 L295 310 Z " />
<glyph glyph-name="period" unicode="&#x2e;" horiz-adv-x="284" d="M200 61 C193 82 168 89 142 89 C118 89 95 84 80 77 C58 67 44 44 26 29 C12 15 3 9 7 -11 C11 -21 18 -40 28 -44 C44 -53 82 -43 101 -40 C118 -38 129 -39 143 -31 C168 -15 191 2 200 25 C204 36 204 48 200 61 L200 61 Z " />
<glyph glyph-name="slash" unicode="&#x2f;" horiz-adv-x="649" d="M429 452 C358 392 309 332 242 269 C210 241 190 215 161 184 C136 158 110 131 82 107 C50 75 0 42 -20 0 C-30 -19 -40 -70 -21 -87 C-14 -93 -4 -95 5 -95 C26 -95 76 -87 88 -79 C106 -65 121 -45 138 -29 C166 -5 193 16 221 39 C291 96 351 158 411 225 C464 287 503 337 566 388 C628 436 680 496 741 544 C770 566 782 573 785 585 C789 593 789 604 787 624 C783 642 783 650 767 657 C752 662 713 662 702 662 C656 662 622 627 590 599 C534 551 484 499 429 452 L429 452 Z " />
<glyph glyph-name="zero" unicode="0" horiz-adv-x="772" d="M796 457 C784 482 757 501 737 522 C714 550 613 573 573 582 C561 584 549 585 536 585 C475 585 413 560 361 531 C284 488 231 430 170 373 C122 327 89 279 69 221 C55 175 44 114 56 68 C66 23 134 0 176 -19 C202 -32 231 -36 263 -36 C384 -36 536 41 616 99 C658 128 707 164 739 200 C763 229 777 250 788 284 C806 338 821 405 796 457 L796 457 Z M637 331 C622 303 569 233 546 213 C503 177 449 144 394 125 C367 115 356 107 328 101 C317 99 305 98 293 98 C267 98 237 103 222 119 C209 127 205 156 212 171 C222 191 232 213 248 232 C264 250 279 272 298 288 C358 348 433 444 519 448 C547 450 572 445 596 436 C616 430 654 412 655 394 C657 386 655 376 652 366 C648 353 641 341 637 331 L637 331 Z " />
<glyph glyph-name="one" unicode="1" horiz-adv-x="447" d="M418 295 C441 342 470 382 493 429 C509 462 532 499 543 533 C554 568 515 600 477 607 C436 616 409 581 376 561 C335 538 295 519 253 498 C233 488 215 476 194 470 C178 465 156 468 143 455 C119 427 127 384 157 367 C167 362 177 360 189 360 C228 360 256 381 291 382 C280 359 260 316 249 292 C239 273 226 255 218 236 C205 207 192 178 182 149 C178 137 173 125 170 113 C157 64 136 -55 206 -55 C216 -55 244 -53 258 -47 C287 -36 299 -17 307 6 C311 16 313 26 316 36 C323 62 331 86 341 112 C363 173 391 235 418 295 L418 295 Z " />
<glyph glyph-name="two" unicode="2" horiz-adv-x="676" d="M416 584 C356 571 170 509 182 439 C183 425 185 396 189 384 C197 368 224 366 240 367 C266 367 279 381 298 395 C318 411 339 425 361 439 C409 467 434 476 493 476 C513 476 533 474 551 472 C537 459 521 443 502 432 C480 419 461 406 438 393 C406 374 372 355 339 338 C261 298 221 257 152 205 C123 183 94 160 67 133 C47 114 21 92 7 68 C-3 50 11 21 19 1 C25 -18 35 -50 62 -52 C73 -53 86 -50 97 -50 C113 -50 130 -50 146 -50 C188 -50 226 -61 268 -59 C344 -59 351 -44 425 -33 C450 -29 475 -25 502 -22 C527 -19 558 -18 577 -2 C588 7 601 24 607 41 C614 61 612 80 588 90 C561 101 533 104 505 104 C459 104 410 92 367 81 C331 72 331 68 310 68 C290 68 261 73 228 75 C246 90 270 103 284 116 C309 139 335 155 363 174 C398 197 429 217 466 239 C501 262 526 284 565 302 C601 318 632 337 663 360 C687 378 716 399 730 425 C750 462 715 536 689 567 C673 584 645 588 626 592 C596 596 569 604 540 604 C498 606 454 594 416 584 L416 584 Z " />
<glyph glyph-name="three" unicode="3" horiz-adv-x="722" d="M380 599 C313 587 164 539 180 485 C189 456 211 447 238 447 C273 447 313 463 338 465 C378 470 378 479 417 479 C454 479 486 471 519 466 C495 455 472 440 447 425 C381 384 356 361 283 339 C264 334 231 337 213 332 C196 327 184 314 168 304 C155 296 146 284 143 273 C137 259 139 245 146 236 C156 225 170 194 189 190 C208 187 208 189 227 189 C278 189 339 202 393 202 C426 202 493 193 512 178 C474 143 436 115 405 105 C369 95 323 76 221 68 C189 64 162 80 129 76 C92 73 67 61 43 27 C36 17 21 -4 24 -13 C26 -23 38 -34 48 -39 C71 -53 102 -64 134 -65 C204 -65 284 -58 352 -41 C473 -11 591 8 672 132 C680 144 685 156 691 170 C697 188 700 207 696 222 C689 250 689 256 657 270 C630 281 604 296 569 302 C546 305 543 304 504 315 C540 338 558 345 594 362 C654 390 719 421 757 475 C793 526 728 576 690 589 C662 598 631 598 601 600 C575 602 551 603 526 603 C495 603 463 602 429 602 C410 602 394 601 380 599 L380 599 Z " />
<glyph glyph-name="four" unicode="4" horiz-adv-x="730" d="M726 235 C711 261 687 263 660 264 C641 265 623 265 603 264 C608 278 613 291 618 302 C656 387 671 436 704 519 C708 531 721 552 716 561 C712 578 701 605 680 608 C653 615 631 625 603 622 C554 616 453 561 421 527 C307 404 189 342 105 236 C89 216 71 195 55 175 C35 152 32 128 44 102 C56 78 87 74 114 75 C142 71 168 80 196 88 C210 93 224 98 240 103 C263 110 317 115 340 118 C360 121 372 126 392 130 C385 108 374 84 367 60 C361 46 358 34 355 22 C349 -9 339 -53 369 -75 C393 -92 460 -72 484 -52 C502 -38 504 -15 508 5 C512 17 516 28 519 40 C526 56 531 72 538 87 C544 105 551 126 560 148 C577 150 595 152 612 155 C637 159 679 159 700 171 C711 177 724 193 729 202 C738 216 735 222 726 235 L726 235 Z M293 236 C340 294 422 363 493 411 C463 351 452 332 432 279 C430 271 426 264 423 255 C376 253 338 245 293 236 L293 236 Z " />
<glyph glyph-name="five" unicode="5" horiz-adv-x="710" d="M206 438 C191 410 176 379 159 354 C146 335 125 316 121 295 C112 263 122 248 147 228 C156 219 168 211 180 207 C196 202 201 208 219 212 C276 225 308 236 369 240 C383 241 396 241 410 241 C428 241 447 241 466 240 C481 239 533 235 533 235 C530 175 463 126 397 107 C333 87 292 70 223 70 C194 69 167 67 142 81 C119 94 91 113 63 103 C40 95 22 79 16 62 C7 36 16 5 43 -16 C92 -55 166 -57 229 -56 C265 -56 302 -47 339 -42 C375 -36 417 -30 452 -18 C524 6 584 50 635 102 C656 124 678 156 690 190 C697 211 701 232 697 250 C691 274 683 292 665 313 C651 331 623 353 597 359 C580 362 559 364 539 364 C509 364 481 361 454 359 C408 354 377 348 330 349 C339 372 349 387 361 408 C370 424 396 465 396 465 C396 465 441 463 461 461 C495 458 529 463 563 468 C592 472 630 474 659 484 C684 491 705 495 723 515 C743 539 744 568 725 593 C715 606 701 610 685 610 C673 610 660 607 646 605 C621 601 595 592 569 588 C538 584 505 581 476 581 C438 579 386 604 341 604 C327 604 313 602 301 595 C278 583 262 549 250 528 C233 499 220 468 206 438 L206 438 Z " />
<glyph glyph-name="six" unicode="6" horiz-adv-x="678" d="M665 594 C646 605 608 604 583 605 C509 606 433 588 367 548 C340 530 311 509 283 490 C220 445 169 388 130 326 C106 287 87 247 71 205 C66 189 59 173 57 158 C40 101 61 46 96 2 C130 -41 177 -72 240 -73 C253 -73 266 -73 278 -73 C299 -73 320 -72 341 -68 C384 -59 430 -46 470 -32 C499 -22 532 -1 551 19 C576 44 595 70 610 95 C618 107 624 120 629 133 C641 168 643 205 630 240 C612 285 574 322 526 325 C471 327 415 329 362 320 C335 315 318 308 293 304 C307 355 432 436 479 464 C559 512 571 485 661 508 C689 515 700 516 702 543 C706 564 684 583 665 594 L665 594 Z M433 206 C455 206 476 201 488 185 C482 167 459 142 447 128 C428 110 411 98 390 86 C348 62 329 55 283 59 C239 64 216 104 219 148 C275 172 374 206 433 206 L433 206 Z " />
<glyph glyph-name="seven" unicode="7" horiz-adv-x="659" d="M403 152 C439 192 469 232 505 265 C560 318 612 371 663 425 C684 448 707 469 732 488 C750 504 774 516 780 539 C790 581 748 621 704 629 C652 640 597 616 544 602 C471 582 396 579 319 579 C268 579 209 577 175 538 C167 530 161 524 157 513 C155 504 158 491 161 482 C163 467 189 453 205 446 C227 436 315 450 345 451 C396 455 410 455 459 466 C471 469 480 470 490 472 C470 448 443 426 421 402 C398 374 373 347 350 319 C301 260 263 216 206 161 C181 136 172 117 152 89 C139 71 125 35 123 15 C118 -6 117 -33 127 -51 C137 -67 163 -76 182 -79 C217 -84 245 -40 264 -17 C276 -1 289 15 301 29 C340 68 366 114 403 152 L403 152 Z " />
<glyph glyph-name="eight" unicode="8" horiz-adv-x="713" d="M769 598 C745 615 693 618 645 618 C618 618 595 617 576 617 C481 617 388 598 301 556 C246 530 201 487 177 432 C148 367 232 307 283 293 C248 265 204 242 166 219 C139 201 125 190 97 166 C68 143 36 110 24 75 C16 53 15 29 30 7 C64 -55 124 -80 198 -84 C277 -86 365 -68 436 -40 C514 -10 614 63 642 144 C654 177 654 210 637 242 C621 274 607 292 574 310 C682 358 782 427 806 495 C820 531 810 566 769 598 L769 598 Z M355 70 C328 62 301 50 263 50 C239 50 219 56 211 72 C234 101 256 109 288 131 C313 148 340 164 440 224 C440 224 451 228 482 196 C456 143 418 91 355 70 L355 70 Z M535 438 C507 420 462 394 418 377 C400 382 385 385 370 390 C358 394 354 403 347 414 C360 442 419 467 454 474 C491 482 554 494 591 486 C580 469 568 459 535 438 L535 438 Z " />
<glyph glyph-name="nine" unicode="9" horiz-adv-x="607" d="M690 509 C686 530 659 548 637 555 C616 562 609 577 590 589 C571 601 549 611 527 617 C509 622 491 624 471 624 C442 624 414 619 388 610 C364 601 341 594 318 584 C268 564 226 519 191 479 C165 448 140 408 125 367 C108 318 107 267 142 228 C165 206 210 196 260 196 C310 196 348 205 386 222 C379 212 370 200 365 192 C352 172 342 159 329 138 C300 95 269 52 243 7 C233 -11 218 -31 214 -52 C210 -75 233 -81 256 -92 C294 -114 380 -52 398 -25 C441 33 477 91 521 148 C543 178 560 211 576 244 C597 280 621 313 637 350 C651 379 673 412 684 445 C693 467 696 487 690 509 L690 509 Z M471 411 C464 396 455 384 446 369 C400 360 359 327 314 327 C302 327 290 328 281 333 C294 356 310 381 327 400 C352 431 405 521 454 488 C468 477 480 463 501 464 C497 464 475 417 471 411 L471 411 Z " />
<glyph glyph-name="colon" unicode="&#x3a;" horiz-adv-x="278" d="M319 447 C313 462 298 467 279 467 C264 467 246 463 238 462 C204 456 177 434 154 408 C141 395 131 385 133 367 C135 356 144 331 154 326 C172 316 205 335 220 341 C241 348 268 353 286 365 C299 373 311 388 317 405 C322 419 323 435 319 447 L319 447 Z M253 229 C245 250 221 257 195 257 C170 257 148 252 134 245 C112 235 98 212 80 196 C64 183 55 177 61 156 C64 147 69 127 80 124 C97 115 136 125 154 127 C170 130 182 128 196 137 C222 153 245 170 254 193 C257 204 257 216 253 229 L253 229 Z " />
<glyph glyph-name="semicolon" unicode="&#x3b;" horiz-adv-x="328" d="M110 115 C100 105 76 82 64 72 C43 53 25 32 4 13 C-11 0 -19 -15 -29 -33 C-37 -53 -40 -65 -24 -84 C-10 -98 16 -117 34 -112 C55 -108 84 -88 100 -74 C151 -33 219 24 259 73 C269 86 275 94 277 109 C279 118 266 149 258 156 C250 165 224 165 212 165 C195 164 176 161 158 156 C135 149 127 130 110 115 L110 115 Z M309 355 C302 376 277 383 251 383 C227 383 205 378 189 371 C168 361 154 338 136 322 C121 309 112 303 118 282 C121 273 127 253 137 250 C154 241 191 251 210 253 C228 256 240 255 252 263 C278 279 301 296 310 319 C313 330 315 342 309 355 L309 355 Z " />
<glyph glyph-name="less" unicode="&#x3c;" horiz-adv-x="644" d="M566 552 C532 525 496 499 461 476 C404 440 343 407 283 379 C241 361 200 356 161 337 C132 322 99 312 87 282 C76 253 92 227 118 208 C131 200 147 196 159 188 C175 176 188 159 200 145 C227 119 240 88 255 57 C271 29 282 -1 294 -30 C302 -52 313 -92 337 -102 C365 -115 399 -91 420 -68 C443 -41 436 -6 425 24 C409 67 389 99 358 136 C330 166 307 200 289 228 C323 252 389 279 433 302 C476 325 514 353 554 377 C597 402 641 428 681 457 C698 470 714 479 728 496 C738 507 757 525 764 537 C774 555 750 598 736 612 C728 621 716 629 706 629 C657 635 601 578 566 552 L566 552 Z " />
<glyph glyph-name="equal" unicode="&#x3d;" horiz-adv-x="519" d="M560 366 C568 387 574 412 555 424 C540 435 522 442 503 447 C492 449 482 450 471 450 C436 450 396 440 361 435 C323 429 283 432 241 419 C211 410 185 408 163 379 C155 371 154 364 153 352 C151 341 147 322 151 312 C153 298 179 292 197 292 C207 292 220 296 229 298 C277 305 324 310 373 312 C414 314 481 314 521 326 C540 332 551 341 560 366 L560 366 Z M438 244 C425 247 408 241 394 240 C364 236 335 230 307 229 C272 228 234 225 199 219 C170 216 140 211 112 204 C94 198 67 194 58 168 C55 158 50 136 50 125 C53 104 78 85 95 82 C107 80 122 85 134 86 C165 90 193 92 222 95 C277 101 333 103 387 110 C411 114 444 115 462 141 C469 149 477 165 483 180 C486 190 488 200 487 208 C486 230 452 240 438 244 L438 244 Z " />
<glyph glyph-name="greater" unicode="&#x3e;" horiz-adv-x="637" d="M268 38 C327 74 358 92 411 122 C454 148 520 177 564 201 C599 223 628 230 647 268 C665 305 651 327 620 344 C584 365 543 423 512 450 C477 480 447 503 421 541 C411 555 398 570 391 587 C387 600 386 612 371 619 C342 633 294 616 271 589 C261 577 268 579 265 567 C258 549 258 531 265 511 C276 481 310 458 334 435 C356 414 385 397 410 378 C430 362 441 343 456 322 C407 287 362 261 339 247 C289 222 252 201 205 171 C157 140 106 110 63 74 C32 51 -3 17 -15 -18 C-26 -46 -30 -101 1 -108 C16 -110 55 -103 70 -96 C103 -78 131 -62 162 -40 C201 -12 229 13 268 38 L268 38 Z " />
<glyph glyph-name="question" unicode="&#x3f;" horiz-adv-x="621" d="M208 25 C200 31 128 24 114 23 C86 20 -11 -34 -24 -69 C-28 -77 -17 -94 -12 -97 C1 -111 64 -103 90 -104 C98 -105 163 -84 174 -78 C183 -74 222 -21 226 -14 C236 0 220 20 208 25 L208 25 Z M305 215 C495 285 681 382 715 465 C734 511 718 537 709 552 C647 678 480 658 332 630 C258 617 131 533 145 455 C150 441 181 430 199 438 C222 449 235 457 255 476 C311 505 435 559 551 521 C460 432 427 429 333 386 C237 345 218 350 120 278 C83 251 63 191 74 155 C74 155 90 113 127 106 C127 106 172 106 186 120 C205 139 201 147 214 164 C249 202 258 198 305 215 L305 215 Z " />
<glyph glyph-name="at" unicode="&#x40;" horiz-adv-x="1043" d="M793 362 C811 384 812 405 800 428 C790 447 768 455 747 458 C724 461 693 463 669 461 C582 453 446 392 374 338 C340 314 315 285 298 261 C287 244 275 224 269 206 C261 184 260 164 268 149 C295 105 343 96 389 102 C440 109 490 128 536 144 C549 148 566 150 566 150 C566 150 582 138 590 132 C608 118 634 115 658 122 C675 127 704 137 721 144 C771 166 846 206 893 232 C960 268 1054 366 1071 427 C1081 456 1086 478 1074 505 C1059 538 1033 559 1002 578 C987 588 952 608 934 616 C883 638 823 636 767 638 C670 641 576 615 484 587 C464 581 370 539 358 532 C319 512 277 490 246 461 C197 412 154 367 113 313 C100 295 89 272 80 247 C69 216 63 182 59 152 C57 128 59 98 64 76 C69 55 80 22 95 5 C111 -13 137 -34 161 -44 C188 -57 226 -59 258 -65 C299 -74 338 -74 381 -74 C404 -74 426 -75 447 -75 C468 -75 488 -74 508 -72 C560 -64 601 -61 647 -48 C706 -32 767 -5 825 21 C847 30 870 45 893 58 C933 81 967 104 998 137 C1013 152 1020 187 1007 205 C991 221 954 206 936 202 C910 196 815 141 789 126 C757 108 724 92 687 81 C588 52 490 37 402 37 C385 37 369 38 352 39 C305 44 227 50 197 91 C187 107 182 133 182 152 C182 165 185 179 190 194 C206 239 244 292 276 324 C307 355 352 389 387 413 C468 469 562 491 660 512 C689 518 716 520 745 520 C783 520 823 515 860 507 C886 502 950 480 949 453 C953 400 877 347 831 316 C813 304 794 293 774 285 C760 279 715 259 703 269 C726 304 765 328 793 362 L793 362 Z M558 258 C558 258 543 252 536 251 C486 236 444 232 405 219 C430 245 458 268 491 287 C522 305 579 338 614 343 C594 321 566 281 558 258 L558 258 Z " />
<glyph glyph-name="A" unicode="A" horiz-adv-x="723" d="M617 623 C592 623 541 604 517 592 C487 578 461 559 435 537 C372 486 313 430 257 370 C179 284 113 213 62 121 C45 91 30 73 9 44 C-6 22 -29 -10 -30 -34 C-29 -65 30 -77 60 -77 C115 -77 187 35 205 68 C274 77 316 93 386 105 C416 110 476 118 506 120 C504 95 499 68 492 41 C488 19 475 -16 481 -33 C486 -48 503 -67 517 -69 C571 -79 616 -25 631 24 C656 97 682 153 687 227 C691 298 682 398 684 470 C686 532 695 624 617 623 L617 623 Z M424 233 C378 225 355 211 313 211 C352 257 391 299 435 342 C468 374 502 403 530 425 C533 398 533 372 533 338 C533 305 537 279 531 245 C508 247 448 238 424 233 L424 233 Z " />
<glyph glyph-name="B" unicode="B" horiz-adv-x="771" d="M561 327 C623 358 651 401 695 446 C711 463 729 499 730 521 C730 549 711 568 690 584 C661 605 624 608 588 617 C553 624 522 627 485 624 C419 619 339 615 278 596 C241 584 212 569 197 532 C182 493 179 434 165 395 C161 382 156 368 150 355 C123 295 74 217 53 155 C34 102 20 51 15 -2 C13 -26 10 -56 33 -66 C57 -77 88 -80 113 -75 C233 -48 351 -3 469 18 C519 29 568 49 615 73 C671 102 737 139 758 196 C761 207 749 254 744 265 C710 338 602 307 561 327 L561 327 Z M327 374 C338 403 374 463 373 487 C373 487 407 493 422 496 C447 501 473 501 497 502 C515 502 564 503 581 498 C560 463 495 410 458 388 C426 368 383 359 345 345 C332 340 318 336 305 331 C313 344 320 360 327 374 L327 374 Z M433 141 C376 126 333 112 277 96 C252 90 224 85 200 75 C213 119 234 163 254 205 C302 218 340 211 388 217 C421 221 458 217 490 215 C520 213 548 206 579 204 C541 176 472 151 433 141 L433 141 Z " />
<glyph glyph-name="C" unicode="C" horiz-adv-x="787" d="M810 453 C828 487 822 540 804 572 C796 581 785 592 773 601 C761 608 752 613 743 617 C718 628 687 634 654 629 C515 607 322 515 222 407 C177 358 146 326 110 275 C79 228 61 194 47 158 C42 144 38 131 34 116 C30 89 37 48 47 26 C79 -42 175 -61 271 -60 C322 -58 406 -46 459 -29 C498 -16 595 26 634 48 C656 60 694 83 702 102 C713 126 693 165 668 166 C638 167 621 163 592 150 C526 121 381 78 310 78 C297 78 283 78 270 81 C258 83 237 91 233 100 C226 113 229 129 234 146 C241 163 250 181 261 197 C304 265 326 288 386 350 C460 409 570 470 665 478 C688 467 695 463 708 440 C718 419 732 411 760 418 C777 423 801 438 810 453 L810 453 Z " />
<glyph glyph-name="D" unicode="D" horiz-adv-x="778" d="M811 480 C781 518 713 576 654 583 C605 590 558 600 507 602 C495 603 483 603 471 603 C439 603 406 600 373 596 C326 590 233 585 198 541 C190 530 184 520 180 511 C168 475 185 446 176 399 C172 381 166 361 159 342 C141 291 114 239 97 193 C87 165 75 141 67 114 C55 72 40 30 43 -8 C42 -23 45 -44 54 -55 C66 -70 110 -92 127 -80 C274 16 430 64 575 142 C656 185 751 225 802 312 C812 328 821 345 826 361 C842 405 839 445 811 480 L811 480 Z M660 364 C619 313 564 288 516 263 C488 249 460 235 432 222 C405 209 376 197 349 186 C337 181 261 152 260 152 C259 188 272 193 284 225 C299 270 320 310 332 350 C341 381 356 426 353 459 C423 485 495 465 561 456 C586 452 679 428 679 404 C678 388 668 380 660 364 L660 364 Z " />
<glyph glyph-name="E" unicode="E" horiz-adv-x="713" d="M838 554 C850 577 858 595 834 607 C784 633 713 634 654 633 C607 633 469 627 420 618 C375 610 331 599 286 590 C271 587 253 588 241 575 C215 550 201 514 185 485 C170 460 157 434 147 407 C144 397 141 386 139 376 C125 330 119 284 103 239 C86 188 55 141 40 91 C33 70 18 46 9 23 C2 2 0 -18 10 -36 C18 -48 36 -62 50 -68 C58 -71 68 -73 79 -73 C100 -73 123 -67 137 -59 C190 -30 263 -22 315 -11 C394 5 438 17 529 33 C548 35 573 34 588 50 C605 64 620 88 613 108 C601 152 537 153 496 150 C402 146 310 119 213 96 C213 137 244 178 263 215 C297 229 313 234 348 244 C408 260 494 270 554 270 C574 270 590 268 607 263 C625 258 649 257 663 267 C681 276 697 291 711 307 C719 321 727 330 721 345 C707 378 656 382 623 385 C595 388 561 390 527 390 C464 390 408 386 346 363 C332 358 319 353 306 349 C314 391 326 422 344 462 C423 498 545 496 632 498 C659 502 686 503 713 502 C735 501 751 498 767 498 C794 498 815 507 838 554 L838 554 Z " />
<glyph glyph-name="F" unicode="F" horiz-adv-x="616" d="M757 572 C758 595 721 602 698 610 C669 619 638 622 607 622 C552 622 497 611 441 601 C397 594 354 579 312 567 C287 560 255 560 237 543 C212 521 199 486 186 459 C173 432 161 405 151 377 C146 366 143 354 140 343 C131 314 121 284 110 255 C95 212 78 170 57 130 C48 115 37 91 29 65 C8 8 -1 -59 64 -67 C87 -70 128 -60 148 -46 C167 -34 167 -22 173 -3 C182 21 193 46 205 68 C223 101 235 151 250 184 C275 189 276 185 301 193 C360 207 416 201 475 206 C503 208 530 217 553 234 C573 248 607 278 595 303 C587 327 559 326 538 327 C498 328 459 337 418 336 C378 333 357 328 317 320 C309 319 301 317 293 314 C295 324 300 333 303 342 C309 358 316 374 324 390 C330 403 350 439 350 439 C350 439 405 464 430 469 C470 476 508 488 548 491 C563 492 577 492 592 492 C607 492 621 492 637 492 C671 488 681 490 717 514 C738 528 756 547 757 572 L757 572 Z " />
<glyph glyph-name="G" unicode="G" horiz-adv-x="920" d="M781 640 C722 637 544 611 490 582 C447 562 399 549 358 524 C302 491 280 472 243 442 C183 393 133 339 91 283 C79 268 69 251 63 234 C53 204 53 159 57 121 C66 36 189 -13 257 -43 C277 -52 298 -54 320 -54 C337 -54 354 -53 371 -51 C418 -43 463 -34 508 -19 C573 2 609 26 669 55 C743 95 811 162 871 214 C883 225 893 241 899 257 C913 296 909 345 882 362 C861 375 837 380 814 383 C783 384 702 386 670 385 C599 383 514 351 438 311 C420 301 375 269 363 225 C360 209 380 185 389 177 C418 153 477 184 506 210 C540 238 585 258 651 258 C674 258 697 256 715 250 C691 230 586 143 559 131 C530 119 499 105 468 97 C440 90 424 85 395 80 C365 75 348 78 322 88 C289 99 237 124 229 154 C227 163 229 191 235 207 C241 224 259 247 265 254 C290 288 327 324 362 350 C433 405 486 434 567 471 C592 482 723 517 749 519 C775 521 799 511 822 504 C837 498 849 484 865 481 C876 477 913 487 927 494 C944 504 950 526 950 541 C950 575 917 597 891 612 C856 629 825 641 781 640 L781 640 Z " />
<glyph glyph-name="H" unicode="H" horiz-adv-x="676" d="M752 492 C760 521 766 552 763 582 C759 606 720 616 693 618 C632 622 621 565 601 524 C583 487 561 447 548 408 C545 400 541 392 538 383 C498 387 438 361 411 354 C381 345 352 339 321 335 C334 366 349 398 359 429 C363 441 368 453 372 467 C377 479 381 492 384 505 C390 524 381 536 374 553 C368 568 357 590 337 593 C290 599 237 554 222 519 C198 459 176 399 144 343 C116 290 84 229 66 172 C48 116 32 56 31 0 C31 -27 38 -47 68 -58 C96 -69 130 -62 159 -45 C171 -36 178 -23 184 -8 C189 8 193 25 196 40 C210 78 218 116 235 152 C240 165 245 178 251 192 C258 190 264 190 270 190 C315 192 339 213 381 222 C405 228 445 232 470 238 C446 175 430 107 443 42 C447 18 448 -7 471 -21 C484 -28 495 -32 505 -32 C517 -32 544 -28 560 -21 C573 -15 592 -4 601 8 C612 22 606 46 605 61 C601 118 615 172 635 224 C656 275 675 312 693 359 C711 404 739 445 752 492 L752 492 Z " />
<glyph glyph-name="I" unicode="I" horiz-adv-x="696" d="M817 547 C820 564 796 583 781 587 C750 593 714 595 680 595 C658 595 638 594 620 593 C558 587 496 572 432 570 C406 568 381 567 355 567 C335 566 313 565 293 565 C273 566 245 562 227 552 C208 538 188 519 194 497 C197 484 201 469 211 458 C219 447 227 448 242 446 C261 445 280 444 300 444 C329 444 340 445 368 447 C357 422 344 396 335 371 C326 345 315 320 308 295 C301 270 296 246 286 222 C267 179 235 133 225 88 C190 84 169 79 134 72 C110 67 84 63 59 57 C48 55 42 52 33 45 C21 34 -1 16 -2 -1 C-2 -18 12 -38 22 -48 C35 -63 56 -68 80 -68 C116 -68 153 -58 178 -53 C208 -46 238 -38 269 -30 C326 -17 383 -13 439 -8 C468 -6 496 -5 526 -2 C538 -2 554 -4 569 0 C584 4 606 19 612 36 C618 52 598 80 587 91 C573 104 552 109 532 113 C517 116 503 118 486 118 C453 118 432 112 400 110 C409 128 416 147 421 164 C430 187 443 208 452 230 C471 274 492 315 510 359 C526 392 532 423 538 457 C592 461 634 465 686 472 C714 475 747 480 771 495 C788 504 816 530 817 547 L817 547 Z " />
<glyph glyph-name="J" unicode="J" horiz-adv-x="710" d="M807 507 C832 516 833 553 825 572 C815 600 799 612 766 618 C749 621 732 622 716 622 C658 622 601 608 547 602 C495 596 443 585 394 581 C356 577 329 589 297 565 C279 552 260 535 248 518 C239 504 243 497 248 484 C255 462 278 442 305 438 C335 433 371 447 400 451 C429 456 436 458 467 462 C463 455 460 446 457 438 C446 407 446 377 434 345 C407 267 400 184 350 118 C286 104 278 88 227 77 C210 74 169 70 169 70 C169 70 187 112 195 135 C207 168 210 200 176 223 C163 231 151 236 137 236 C125 236 113 232 100 225 C80 211 71 180 59 159 C46 133 36 105 23 77 C13 56 0 22 5 0 C8 -10 18 -26 26 -33 C43 -44 123 -63 141 -63 C211 -63 262 -40 330 -26 C358 -20 419 0 446 6 C479 13 488 21 505 46 C539 95 541 174 565 241 C580 281 605 345 619 385 C631 418 641 451 648 484 C664 484 683 484 707 487 C725 491 794 501 807 507 L807 507 Z " />
<glyph glyph-name="K" unicode="K" horiz-adv-x="696" d="M792 510 C794 528 788 550 772 562 C757 575 723 579 707 569 C674 548 638 528 606 508 C562 480 516 455 470 428 C400 388 358 367 327 355 C333 369 343 390 350 403 C367 432 387 468 396 498 C406 526 400 558 390 583 C384 600 360 607 339 610 C316 612 290 607 269 590 C251 573 246 545 232 525 C222 509 216 492 207 475 C190 444 175 413 162 382 C134 318 103 255 77 192 C71 177 65 162 59 147 C36 82 21 11 54 -47 C68 -70 113 -53 131 -41 C153 -29 164 -17 175 5 C188 36 195 70 208 103 C211 109 231 155 231 155 C231 155 261 175 282 184 C287 185 301 192 315 198 C327 185 334 171 344 155 C378 96 402 60 431 21 C444 3 460 -33 485 -44 C525 -62 554 -30 566 4 C571 15 572 26 572 35 C572 87 538 121 509 165 C492 194 477 217 450 256 C541 293 621 347 707 396 C747 419 789 468 792 510 L792 510 Z " />
<glyph glyph-name="L" unicode="L" horiz-adv-x="598" d="M108 259 C87 217 69 173 54 131 C37 85 23 39 11 -7 C0 -46 32 -92 81 -75 C112 -65 144 -55 175 -47 C223 -36 271 -25 319 -15 C370 -4 421 6 472 12 C501 16 529 18 541 48 C561 98 520 133 472 131 C424 128 369 128 320 118 C272 107 274 109 221 100 C233 129 230 130 240 159 C252 193 264 227 280 261 C314 337 352 411 396 485 C407 502 416 518 421 532 C428 552 427 568 416 588 C410 598 348 610 332 610 C301 607 279 582 263 560 C242 531 223 499 206 469 C166 400 141 328 108 259 L108 259 Z " />
<glyph glyph-name="M" unicode="M" horiz-adv-x="1004" d="M1027 548 C1030 566 1031 589 1025 606 C1016 623 991 623 972 624 C950 625 921 625 899 617 C840 592 811 574 772 528 C715 459 694 424 633 369 C591 333 521 246 485 204 C479 254 493 328 505 383 C508 393 512 402 515 412 C522 434 531 457 535 480 C538 502 529 532 517 550 C506 566 487 584 463 578 C439 573 439 573 366 527 C340 509 317 480 289 451 C257 421 231 379 198 331 C163 285 132 244 99 195 C86 175 48 108 37 86 C29 67 5 41 -1 18 C-7 4 -7 -10 2 -22 C12 -36 28 -44 43 -51 C59 -59 90 -64 107 -56 C137 -41 160 -1 175 24 C199 64 253 147 280 184 C303 218 324 258 350 290 C348 269 349 270 349 250 C351 193 353 133 356 76 C363 44 351 2 363 -34 C369 -51 380 -62 400 -63 C435 -67 480 -57 509 -23 C509 -22 551 30 552 32 C618 110 628 139 701 215 C746 263 786 314 838 359 C829 307 823 279 805 223 C791 163 776 141 761 70 C758 59 751 44 747 30 C741 17 739 5 740 -4 C741 -28 773 -53 795 -56 C811 -58 842 -65 856 -56 C889 -36 922 26 942 81 C952 109 958 136 960 153 C965 202 985 245 996 296 C1011 353 1018 406 1021 461 C1022 491 1026 518 1027 548 L1027 548 Z " />
<glyph glyph-name="N" unicode="N" horiz-adv-x="671" d="M127 297 C94 229 69 160 36 95 C21 62 13 21 13 -13 C13 -40 18 -61 47 -74 C61 -81 69 -82 81 -78 C95 -73 126 -69 136 -63 C150 -57 157 -45 161 -33 C165 -22 166 -11 170 -2 C176 23 188 47 200 72 C224 135 243 172 271 234 C299 183 319 119 345 67 C359 41 366 16 381 -8 C392 -28 426 -42 448 -50 C481 -58 503 -42 527 -25 C551 -7 558 8 566 33 C574 57 588 81 598 105 C612 142 623 177 636 212 C661 288 696 362 727 438 C735 457 744 475 750 493 C755 507 759 521 760 536 C762 555 760 594 747 610 C734 625 669 654 648 644 C640 640 623 621 616 614 C607 603 605 596 602 583 C594 543 582 500 568 459 C531 365 491 266 453 169 C424 201 385 325 378 367 C374 395 367 424 367 452 C365 476 355 501 351 525 C346 550 345 566 310 575 C280 581 267 578 241 561 C223 550 217 537 211 522 C208 512 205 501 201 490 C189 457 178 423 166 390 C156 360 142 327 127 297 L127 297 Z " />
<glyph glyph-name="O" unicode="O" horiz-adv-x="880" d="M678 601 C663 604 645 605 628 605 C598 605 568 600 538 590 C493 576 447 570 404 552 C349 530 291 505 246 464 C187 408 116 342 87 264 C84 252 80 240 77 227 C71 181 74 136 86 93 C105 27 161 -30 228 -56 C245 -62 262 -64 278 -64 C363 -64 471 -36 550 1 C629 38 686 99 750 155 C814 210 889 279 919 355 C975 503 796 588 678 601 L678 601 Z M599 199 C582 185 564 167 547 154 C504 124 455 102 407 85 C386 78 374 74 357 74 C319 74 306 91 274 122 C252 143 225 205 254 240 C262 252 292 283 301 294 C361 359 403 401 484 434 C531 452 559 462 607 462 C635 462 661 458 688 452 C733 444 750 417 747 379 C701 307 656 242 599 199 L599 199 Z " />
<glyph glyph-name="P" unicode="P" horiz-adv-x="667" d="M735 499 C718 518 698 536 676 550 C621 587 559 613 486 608 C418 604 343 583 275 567 C257 562 232 555 218 543 C212 536 209 521 207 513 C204 497 196 481 190 465 C166 400 140 337 107 274 C91 244 79 215 70 188 C58 155 48 123 40 87 C32 64 26 40 29 17 C32 -7 32 -34 48 -55 C64 -70 109 -84 133 -76 C149 -72 165 -47 173 -33 C181 -16 194 8 195 27 C196 50 200 51 205 74 C214 101 224 109 236 133 C381 149 523 208 642 292 C668 310 705 354 722 381 C743 416 756 475 735 499 L735 499 Z M494 355 C424 321 364 301 290 281 C295 304 314 341 323 362 C328 370 357 452 358 452 C396 448 409 470 448 474 C470 476 494 473 516 470 C542 469 568 467 588 461 C579 418 535 375 494 355 L494 355 Z " />
<glyph glyph-name="Q" unicode="Q" horiz-adv-x="849" d="M904 421 C899 468 869 504 827 530 C780 558 728 584 671 595 C645 600 620 602 594 599 C571 596 550 595 528 589 C497 582 454 570 422 559 C403 553 384 544 365 536 C332 520 299 507 272 490 C200 447 142 368 108 309 C94 284 89 259 85 232 C77 188 69 147 85 103 C94 80 105 55 122 36 C140 17 167 2 189 -11 C216 -27 244 -33 273 -33 C310 -33 346 -23 384 -12 C432 1 483 18 531 40 C540 22 548 6 554 -7 C561 -23 572 -45 582 -62 C593 -79 609 -82 632 -81 C654 -79 683 -67 692 -46 C696 -36 701 -25 702 -16 C701 -6 702 8 696 18 C684 53 679 86 662 113 C695 136 729 164 752 188 C790 227 810 255 846 295 C866 316 888 344 899 375 C904 390 906 405 904 421 L904 421 Z M709 348 C684 317 616 256 586 236 C576 250 569 263 560 279 C548 298 527 315 508 328 C501 332 490 334 477 334 C460 334 440 331 428 327 C414 324 393 296 389 284 C385 257 408 233 420 211 C432 192 449 175 463 158 C447 149 430 142 411 136 C382 126 364 125 332 123 C298 121 247 124 242 159 C238 186 243 214 253 241 C259 260 268 279 281 297 C323 358 373 401 453 430 C480 439 506 450 536 453 C564 456 593 453 620 448 C651 444 659 433 688 428 C748 409 734 377 709 348 L709 348 Z " />
<glyph glyph-name="R" unicode="R" horiz-adv-x="749" d="M812 498 C806 510 794 522 784 533 C761 560 733 577 698 594 C658 613 613 621 568 621 C520 621 472 613 428 604 C378 594 366 595 318 589 C290 587 251 583 222 552 C212 541 193 515 190 501 C186 486 185 469 183 455 C177 424 168 394 157 365 C145 331 136 296 124 262 C112 228 97 193 79 161 C64 130 36 98 23 63 C19 50 16 36 16 22 C20 -16 24 -62 71 -70 C101 -75 140 -59 154 -35 C182 9 211 98 241 126 C258 137 291 141 291 141 L363 150 C363 150 418 92 452 38 C465 17 496 -36 519 -55 C531 -63 554 -68 571 -69 C591 -71 613 -57 628 -44 C642 -30 646 -10 650 7 C657 29 637 41 624 60 C607 83 601 101 582 123 C557 151 546 184 514 205 C569 219 681 286 718 320 C759 359 794 399 809 438 C816 458 817 478 812 498 L812 498 Z M569 377 C546 360 532 348 504 336 C471 324 439 312 405 303 C351 291 332 283 296 283 C301 297 306 313 312 328 C316 342 322 357 328 371 C332 382 336 393 339 404 C345 421 352 441 357 461 C377 456 380 463 402 465 C427 468 453 473 479 474 C512 476 530 481 564 480 C577 480 589 480 602 480 C616 480 625 479 636 479 C630 439 605 405 569 377 L569 377 Z " />
<glyph glyph-name="S" unicode="S" horiz-adv-x="752" d="M726 617 C714 619 701 619 687 619 C641 619 565 606 521 600 C380 582 197 474 151 344 C140 315 130 298 135 266 C143 234 158 207 182 191 C212 172 219 168 232 164 C254 159 275 156 298 156 C380 156 440 179 522 195 C522 185 519 172 513 157 C507 137 494 113 482 98 C455 68 395 54 364 51 C327 47 293 42 257 43 C232 46 198 44 174 55 C150 66 142 95 122 114 C113 122 101 131 91 138 C78 147 74 144 58 137 C43 128 32 118 26 103 C24 94 22 84 22 71 C20 9 58 -26 101 -60 C141 -90 209 -95 268 -95 C344 -95 397 -83 451 -73 C483 -67 516 -54 547 -39 C642 4 675 87 700 155 C708 179 714 201 713 219 C708 247 704 277 690 301 C676 326 628 334 604 337 C563 341 531 335 491 328 C454 321 408 295 352 295 C337 295 324 298 311 301 C368 391 416 438 526 465 C555 473 618 483 648 487 C680 492 685 465 707 447 C718 436 732 428 744 418 C758 407 763 408 782 415 C809 428 823 454 824 476 C827 542 794 606 726 617 L726 617 Z " />
<glyph glyph-name="T" unicode="T" horiz-adv-x="641" d="M759 535 C766 550 770 571 762 585 C755 598 735 607 723 608 C710 610 696 605 684 602 C663 599 641 595 620 592 C572 581 521 579 471 571 C426 562 378 555 333 553 C316 552 297 549 278 548 C255 546 241 550 228 550 C211 550 198 544 174 514 C161 497 142 473 153 455 C178 412 221 404 265 404 C288 404 302 404 327 408 C279 325 250 261 216 165 C211 153 207 141 202 130 C195 103 190 77 184 50 C168 10 179 -70 235 -72 C258 -72 314 -46 327 -29 C335 -18 333 -7 336 4 C339 20 343 36 350 54 C362 89 381 128 394 166 C411 215 433 265 462 316 C482 354 496 391 516 435 C563 444 596 453 643 464 C671 470 700 478 725 492 C741 501 751 516 759 535 L759 535 Z " />
<glyph glyph-name="U" unicode="U" horiz-adv-x="647" d="M183 467 C173 450 168 433 161 415 C145 382 133 347 121 313 C105 268 75 202 61 162 C54 142 47 122 45 104 C37 56 25 15 48 -29 C57 -45 71 -57 89 -67 C103 -74 142 -79 161 -75 C272 -67 419 -62 531 -17 C551 -2 585 86 591 107 C624 233 673 390 712 514 C723 548 758 616 694 624 C674 627 597 618 581 605 C563 589 551 555 540 535 C535 525 532 515 528 505 C512 462 502 417 488 373 C475 322 446 218 433 167 C415 104 372 67 322 67 C305 67 289 68 273 68 C256 68 237 67 219 63 C232 120 257 198 275 253 C286 282 297 312 310 341 C327 381 338 422 363 458 C375 472 381 486 386 499 C394 524 394 548 377 572 C365 589 311 589 291 592 C258 596 237 572 224 548 C210 522 195 495 183 467 L183 467 Z " />
<glyph glyph-name="V" unicode="V" horiz-adv-x="704" d="M816 526 C822 543 834 558 824 576 C812 599 754 604 726 600 C668 592 649 536 614 501 C569 453 486 354 448 301 C414 252 357 196 357 196 C357 196 346 197 344 282 C343 328 339 364 337 408 C337 436 330 464 321 490 C310 520 312 555 286 582 C276 590 258 595 240 595 C220 595 199 590 189 579 C161 549 172 475 182 425 C185 405 188 384 193 364 C200 326 204 288 202 251 C202 216 205 181 204 145 C204 112 200 78 199 44 C199 23 190 -7 206 -24 C222 -42 276 -48 298 -50 C341 -50 387 -6 413 22 C428 39 451 68 466 86 C484 107 506 126 522 147 C557 190 587 235 624 278 C659 319 740 411 772 455 C790 478 805 501 816 526 L816 526 Z " />
<glyph glyph-name="W" unicode="W" horiz-adv-x="894" d="M999 526 C998 549 991 572 975 589 C961 606 921 596 897 585 C853 566 834 514 810 476 C781 428 748 379 717 331 C690 291 666 250 624 206 C609 262 607 301 611 359 C616 422 618 486 620 549 C622 572 605 588 586 602 C576 608 557 601 548 601 C537 601 526 597 513 588 C476 564 457 513 435 476 C410 435 387 392 361 350 C343 324 334 315 296 263 C296 284 300 308 300 327 C301 353 306 385 311 410 C315 431 331 544 315 561 C305 572 290 577 276 577 C263 577 249 573 235 566 C211 553 189 536 174 513 C157 491 159 457 156 430 C151 361 142 292 140 223 C139 189 131 155 127 122 C122 92 118 62 113 33 C111 10 105 -8 117 -30 C124 -48 164 -69 186 -67 C204 -64 231 -48 240 -34 C257 -8 274 18 290 44 C321 97 355 150 391 201 C408 227 430 246 450 270 C458 256 462 235 462 219 C466 194 471 168 474 143 C479 108 486 73 493 38 C494 19 495 -8 503 -24 C508 -32 521 -41 530 -46 C543 -51 571 -46 585 -41 C607 -34 641 -28 656 -8 C672 12 683 35 696 57 C736 121 781 182 823 242 C855 291 886 342 920 390 C938 417 956 444 975 470 C987 490 999 503 999 526 L999 526 Z " />
<glyph glyph-name="X" unicode="X" horiz-adv-x="662" d="M763 515 C777 533 785 548 777 568 C774 579 765 612 750 616 C724 624 664 629 648 614 C620 591 593 567 565 544 C542 526 521 505 496 487 C461 459 424 432 389 403 C377 443 371 454 363 494 C354 540 349 566 303 587 C284 595 254 601 238 587 C223 576 214 566 209 555 C207 547 206 537 209 526 C213 499 221 472 227 446 C238 392 250 362 265 310 C204 278 52 155 19 98 C8 79 -15 24 -6 2 C-1 -10 23 -51 37 -55 C67 -61 107 -41 125 -23 C178 27 250 93 313 137 C322 113 330 104 341 81 C356 52 369 22 386 -6 C397 -24 415 -48 438 -51 C472 -53 489 -47 503 -21 C517 5 516 31 505 57 C479 113 468 172 441 228 C454 237 477 262 490 272 C552 315 604 354 660 402 C701 436 735 475 763 515 L763 515 Z " />
<glyph glyph-name="Y" unicode="Y" horiz-adv-x="628" d="M727 520 C736 531 741 541 746 551 C751 569 751 586 743 601 C737 613 707 643 695 647 C681 651 626 653 616 644 C594 625 584 607 572 592 C539 546 538 537 509 504 C475 463 428 419 386 380 C357 435 356 433 338 485 C328 520 323 531 307 571 C303 584 285 605 269 606 C234 609 187 585 180 542 C176 512 175 507 184 478 C194 440 208 423 221 390 C229 373 250 349 258 331 C273 302 273 304 288 267 C269 246 192 167 172 145 C137 104 96 63 89 15 C87 -4 114 -64 131 -74 C139 -77 153 -79 166 -79 C180 -79 194 -77 202 -73 C221 -63 232 -39 245 -23 C263 -5 283 16 300 34 C323 58 346 84 369 108 C393 135 416 155 441 182 C471 213 491 230 524 265 C539 282 564 316 580 335 C628 396 681 459 727 520 L727 520 Z " />
<glyph glyph-name="Z" unicode="Z" horiz-adv-x="592" d="M353 606 C279 604 171 586 152 515 C141 475 206 467 246 467 C262 467 281 472 290 473 C358 479 352 485 419 494 C372 447 337 406 286 363 C225 308 181 257 124 199 C100 173 74 149 46 125 C14 97 0 49 -13 11 C-20 -9 -21 -28 -13 -44 C0 -65 12 -68 40 -64 C70 -59 101 -52 131 -48 C165 -45 201 -44 234 -42 C266 -40 297 -39 327 -38 C362 -36 394 -30 428 -23 C453 -18 486 -4 505 15 C526 36 519 75 505 93 C492 116 479 112 450 105 C416 98 382 93 350 93 C305 93 290 94 244 87 C258 99 270 116 284 130 C303 148 322 171 341 190 C379 231 407 266 450 305 C497 351 541 395 596 441 C614 455 631 465 649 479 C671 497 693 521 703 548 C707 562 710 578 706 593 C701 610 692 629 674 636 C650 647 609 635 582 633 C532 629 481 623 432 616 C405 611 380 607 353 606 L353 606 Z " />
<glyph glyph-name="bracketleft" unicode="&#x5b;" horiz-adv-x="464" d="M128 301 C111 255 92 208 75 158 C58 115 51 70 36 27 C24 -15 4 -59 0 -103 C-3 -125 -13 -187 5 -199 C28 -212 70 -215 97 -219 C110 -222 125 -223 140 -223 C165 -223 191 -219 217 -216 C250 -211 254 -208 286 -200 C316 -192 332 -166 337 -136 C343 -108 335 -87 304 -80 C277 -75 269 -90 244 -93 C231 -95 219 -95 207 -95 C190 -95 191 -94 174 -91 C194 -23 215 50 240 121 C245 135 250 149 255 162 C274 216 295 269 315 324 C324 348 331 372 338 396 C350 432 362 468 373 503 C384 536 402 567 411 599 C414 612 429 651 429 651 C429 651 444 652 454 652 C483 653 516 655 543 663 C569 670 588 696 595 719 C602 747 587 762 558 772 C550 776 539 777 528 777 C508 777 486 773 466 772 C447 771 426 772 405 772 C393 772 382 772 370 771 C334 770 302 770 283 739 C272 725 265 714 261 701 C257 690 254 679 253 665 C250 640 244 617 235 592 C229 574 221 555 211 535 C205 518 204 503 197 486 C184 444 164 400 148 359 C142 339 133 320 128 301 L128 301 Z " />
<glyph glyph-name="backslash" unicode="&#x5c;" horiz-adv-x="573" d="M391 353 C387 385 381 418 375 450 C373 468 370 484 365 501 C350 543 354 589 344 630 C339 652 329 673 306 684 C286 692 245 705 222 692 C210 685 199 669 193 653 C189 642 189 632 190 624 C199 599 205 573 210 548 C229 476 237 401 246 327 C252 280 252 233 256 185 C263 144 275 101 287 61 C297 24 318 -11 334 -46 C346 -72 359 -105 382 -125 C394 -137 425 -147 444 -133 C464 -118 475 -103 481 -88 C487 -67 484 -47 476 -29 C473 -19 468 -11 463 -1 C453 21 443 42 437 65 C429 87 424 109 420 132 C419 152 420 175 414 194 C408 216 402 238 396 259 C388 288 394 322 391 353 L391 353 Z " />
<glyph glyph-name="bracketright" unicode="&#x5d;" horiz-adv-x="482" d="M461 302 C471 331 484 359 495 387 C515 435 540 481 562 531 C579 570 594 610 612 648 C618 664 631 686 639 706 C642 717 645 726 642 735 C636 758 605 777 582 788 C570 794 555 796 541 796 C527 796 513 794 498 792 C463 784 430 771 395 764 C372 759 350 755 327 753 C315 752 295 754 284 748 C273 742 265 732 261 721 C251 691 264 650 295 641 C319 635 348 644 370 646 C396 648 405 650 432 652 C413 619 401 585 389 550 C382 532 376 513 369 495 C361 472 351 450 343 427 C337 415 333 402 328 390 C314 349 302 307 289 264 C273 218 252 172 233 127 C222 103 213 79 204 55 C200 42 195 30 191 18 C178 -18 163 -56 143 -91 C114 -96 100 -95 71 -95 C57 -95 43 -96 29 -97 C15 -97 0 -92 -11 -97 C-26 -103 -35 -114 -40 -126 C-43 -137 -44 -149 -44 -161 C-44 -181 -28 -199 -6 -207 C22 -218 50 -221 82 -223 C99 -224 113 -225 128 -225 C143 -225 156 -224 173 -221 C204 -213 233 -211 260 -198 C275 -189 283 -173 288 -158 C293 -144 297 -130 301 -119 C319 -69 344 -23 365 27 C381 63 391 101 404 139 C408 151 413 163 418 175 C425 191 430 206 436 221 C444 247 453 272 461 302 L461 302 Z " />
<glyph glyph-name="asciicircum" unicode="&#x5e;" horiz-adv-x="387" d="M555 731 C552 739 546 745 540 753 C532 767 527 783 520 798 C516 806 515 821 508 827 C503 834 487 835 479 835 C462 835 453 830 441 823 C428 813 414 805 399 796 C376 782 355 765 331 750 C300 733 271 718 249 692 C241 672 250 664 266 659 C290 650 329 663 350 675 C369 686 385 696 404 708 C418 716 432 731 447 735 C457 725 461 716 469 705 C483 684 499 672 529 668 C535 667 548 674 554 679 C561 685 569 692 570 702 C569 713 560 721 555 731 L555 731 Z " />
<glyph glyph-name="underscore" unicode="&#x5f;" horiz-adv-x="700" d="M238 95 C182 87 128 76 70 70 C31 67 4 51 -11 13 C-20 -12 -23 -24 -3 -44 C19 -62 32 -62 58 -57 C96 -50 134 -42 173 -39 C240 -34 309 -32 376 -19 C419 -12 575 -7 607 19 C620 30 649 79 646 97 C640 120 586 120 569 123 C554 125 538 127 522 127 C494 127 463 123 430 117 C365 107 301 105 238 95 L238 95 Z " />
<glyph glyph-name="grave" unicode="&#x60;" horiz-adv-x="329" d="M418 801 C405 809 391 816 381 825 C373 832 367 839 356 841 C343 844 318 839 308 832 C298 828 293 805 295 796 C298 787 308 778 315 770 C322 761 332 754 342 746 C363 733 405 712 442 703 C458 698 472 696 486 697 C503 700 510 712 514 723 C517 728 517 739 513 744 C509 749 498 753 493 757 C485 762 477 765 471 770 C452 779 436 791 418 801 L418 801 Z " />
<glyph glyph-name="a" unicode="a" horiz-adv-x="732" d="M704 562 C696 592 667 636 625 630 C603 627 573 617 553 607 C537 598 518 590 502 582 C471 566 443 538 416 519 C377 488 290 433 257 399 C232 373 205 343 182 316 C161 293 144 267 120 244 C71 190 24 125 4 69 C-7 38 -15 -15 11 -42 C23 -56 83 -51 98 -42 C135 -22 157 21 176 48 C187 65 199 85 211 103 C240 108 273 122 302 128 C354 138 404 150 454 155 C481 158 505 159 526 159 C522 144 520 131 518 118 C516 105 515 92 514 80 C512 62 505 12 508 -5 C514 -19 539 -48 555 -56 C570 -63 591 -52 602 -42 C618 -29 634 -17 640 0 C648 19 656 64 662 85 C678 128 679 178 681 217 C682 244 680 272 684 299 C691 348 694 396 701 446 C705 467 708 485 710 507 C708 524 708 545 704 562 L704 562 Z M508 269 C497 270 486 271 474 271 C449 271 422 268 396 264 C374 261 351 254 327 252 C361 298 409 339 457 378 C495 409 507 416 555 438 C552 375 552 304 538 265 C522 267 524 269 508 269 L508 269 Z " />
<glyph glyph-name="b" unicode="b" horiz-adv-x="799" d="M767 248 C739 330 682 310 619 331 C647 355 675 384 702 411 C722 432 754 461 765 492 C769 503 770 513 768 524 C755 567 721 595 672 599 C634 602 607 604 579 604 C557 604 532 603 502 599 C431 588 364 590 298 565 C275 556 244 553 226 537 C207 523 202 493 193 472 C177 436 166 383 151 345 C141 316 125 290 116 261 C97 207 71 156 55 103 C32 34 0 -19 35 -56 C47 -69 65 -73 85 -73 C117 -73 136 -72 158 -64 C274 -30 402 -6 509 21 C583 38 740 110 773 167 C783 187 778 215 767 248 L767 248 Z M324 361 C332 378 359 438 359 438 C359 438 387 451 413 456 C465 465 496 470 548 468 C555 467 563 468 569 465 C533 429 502 392 453 370 C398 345 363 339 309 318 C312 335 321 353 324 361 L324 361 Z M406 127 C353 116 267 86 225 86 C236 122 251 162 268 196 C370 225 434 237 539 221 C551 219 566 218 578 213 C530 169 468 142 406 127 L406 127 Z " />
<glyph glyph-name="c" unicode="c" horiz-adv-x="828" d="M814 581 C789 595 761 602 732 602 C682 602 594 582 536 555 C466 524 406 495 348 453 C272 399 141 315 94 247 C77 223 61 194 51 165 C45 150 41 137 41 124 C38 85 52 38 69 6 C91 -34 191 -53 212 -59 C251 -69 286 -75 323 -75 C345 -75 367 -73 394 -68 C457 -56 483 -50 544 -22 C592 -1 658 27 700 52 C725 67 755 91 759 115 C765 145 756 190 721 185 C694 182 651 158 624 148 C554 124 509 91 437 75 C380 63 362 58 336 58 C306 58 287 63 271 69 C250 76 215 105 218 130 C227 201 405 317 467 355 C520 389 624 430 681 452 C714 464 745 462 768 433 C785 410 803 398 823 398 C837 398 854 405 872 419 C887 431 891 450 889 466 C882 498 839 567 814 581 L814 581 Z " />
<glyph glyph-name="d" unicode="d" horiz-adv-x="772" d="M837 476 C811 536 710 589 642 610 C625 615 604 617 576 617 C508 617 420 602 372 594 C341 589 310 582 280 573 C219 558 212 490 190 446 C168 407 150 372 136 335 C127 307 118 278 111 248 C107 234 102 219 98 205 C84 165 65 127 51 87 C44 67 37 45 34 23 C29 2 15 -30 24 -50 C34 -65 71 -81 90 -82 C151 -85 193 -61 242 -33 C273 -16 306 1 335 15 C437 58 569 115 661 187 C701 218 741 255 768 291 C791 322 822 362 831 400 C836 422 845 456 837 476 L837 476 Z M585 313 C538 268 445 232 388 200 C356 182 263 138 239 138 C239 138 250 168 254 179 C275 236 288 259 311 316 C327 356 346 398 359 438 C363 448 366 456 366 456 C366 456 403 461 418 463 C444 465 513 475 540 473 C587 470 625 464 669 453 C682 388 623 350 585 313 L585 313 Z " />
<glyph glyph-name="e" unicode="e" horiz-adv-x="725" d="M169 420 C158 388 150 358 139 327 C113 257 77 191 55 120 C45 94 38 66 29 39 C24 26 16 11 12 -3 C8 -14 5 -24 5 -35 C5 -69 33 -77 64 -77 C89 -77 117 -71 131 -67 C261 -35 375 -24 480 -18 C509 -17 542 -21 564 -2 C577 9 587 20 593 33 C595 42 595 51 594 63 C591 95 562 95 532 99 C515 101 496 102 477 102 C415 102 349 90 288 85 C245 82 238 79 198 69 C206 87 232 150 242 177 C318 205 402 213 471 219 C506 222 542 225 577 227 C604 228 632 216 657 228 C676 238 690 267 697 287 C707 308 697 339 671 347 C643 354 617 356 588 354 C493 351 397 341 305 320 C313 337 345 421 345 421 C345 421 393 437 408 442 C484 466 615 490 696 490 C712 490 725 489 736 487 C766 482 785 471 812 490 C826 500 834 513 839 528 C851 562 840 602 798 607 C761 611 739 617 705 615 C569 620 436 579 296 546 C267 539 235 533 211 513 C199 501 191 489 186 474 C179 457 177 439 169 420 L169 420 Z " />
<glyph glyph-name="f" unicode="f" horiz-adv-x="616" d="M747 541 C759 559 745 582 732 597 C715 616 679 613 652 613 C575 615 490 606 414 589 C376 581 337 569 296 564 C268 560 244 560 228 535 C216 518 208 500 201 479 C195 463 191 448 186 433 C179 413 167 393 158 373 C140 328 116 286 99 237 C91 219 82 200 74 182 C61 149 61 152 46 120 C42 108 37 98 34 88 C28 72 24 58 21 36 C20 21 20 3 24 -9 C33 -31 34 -60 70 -64 C85 -66 149 -51 161 -38 C173 -26 176 -6 181 9 C186 29 195 61 203 80 C218 114 216 102 230 136 C241 162 241 159 251 185 C315 202 351 206 419 216 C449 220 508 222 536 232 C553 236 608 268 618 297 C623 307 620 317 609 325 C593 337 557 342 537 343 C513 345 483 343 460 340 C418 335 396 334 353 326 C338 324 321 320 305 317 C308 326 311 335 316 345 C329 376 351 415 365 448 C420 451 454 472 512 479 C540 483 570 480 601 483 C628 485 656 482 684 485 C706 489 735 523 747 541 L747 541 Z " />
<glyph glyph-name="g" unicode="g" horiz-adv-x="980" d="M905 556 C881 574 846 590 812 591 C729 595 570 575 483 536 C440 518 366 489 330 457 C220 367 112 298 62 179 C37 124 38 68 76 27 C111 -13 176 -59 231 -65 C266 -69 286 -76 323 -76 C378 -73 428 -67 482 -57 C539 -50 676 -1 724 24 C805 69 895 118 942 193 C953 210 949 256 944 272 C937 295 925 312 906 321 C889 330 867 336 848 341 C811 348 772 352 735 352 C660 352 585 338 504 307 C483 298 428 267 411 242 C400 225 399 193 407 172 C413 156 441 155 458 154 C477 153 513 176 536 190 C550 199 568 211 584 217 C607 224 617 223 641 225 C656 226 672 227 686 227 C724 227 728 223 763 219 C668 130 510 74 399 56 C382 53 369 52 354 52 C329 52 214 76 216 104 C215 116 218 131 224 145 C230 164 240 183 252 198 C273 222 282 244 317 274 C360 313 385 330 403 341 C428 359 461 379 486 395 C524 418 568 436 605 447 C640 458 721 466 761 468 C790 469 824 451 842 437 C865 419 888 403 912 403 C927 403 944 409 961 425 C982 443 971 476 964 498 C954 519 925 540 905 556 L905 556 Z " />
<glyph glyph-name="h" unicode="h" horiz-adv-x="683" d="M785 524 C791 541 795 558 788 573 C778 598 741 610 717 610 C701 610 685 605 667 596 C645 585 635 561 621 543 C607 520 590 493 579 469 C563 439 539 383 520 344 C506 353 477 353 454 353 C425 353 416 349 388 347 C360 343 347 337 315 330 C324 354 329 378 338 401 C346 422 359 440 371 459 C385 481 405 508 409 530 C413 552 399 583 380 594 C353 608 306 595 283 578 C233 542 216 484 185 436 C166 408 154 378 144 348 C136 327 130 306 121 285 C111 239 77 187 66 142 C59 118 51 93 45 69 C41 52 42 30 44 12 C45 -2 48 -24 65 -32 C81 -39 127 -28 143 -18 C162 -5 175 5 184 25 C195 51 209 76 217 102 C227 132 240 161 254 190 C274 195 292 200 299 201 C345 208 358 213 406 218 C425 221 445 223 465 224 C459 208 450 195 443 177 C436 162 432 148 426 133 C421 119 415 103 411 88 C400 50 382 6 382 -35 C384 -48 421 -62 435 -70 C447 -79 465 -87 483 -78 C502 -65 513 -50 524 -33 C538 -7 550 19 561 45 C590 107 613 171 640 234 C653 268 671 299 685 333 C696 360 708 388 724 415 C743 440 776 497 785 524 L785 524 Z " />
<glyph glyph-name="i" unicode="i" horiz-adv-x="317" d="M146 336 C123 286 92 236 79 184 C66 143 48 78 42 36 C40 13 37 -24 48 -42 C62 -64 103 -81 130 -61 C152 -47 174 -27 188 -6 C204 19 208 51 219 78 C232 114 255 171 268 208 C287 258 311 308 332 358 C355 410 396 485 424 535 C438 558 428 588 401 593 C388 594 335 595 321 593 C306 590 288 576 275 564 C246 538 230 509 215 475 C195 435 163 375 146 336 L146 336 Z " />
<glyph glyph-name="j" unicode="j" horiz-adv-x="743" d="M847 492 C860 508 864 543 856 562 C840 604 749 598 711 601 C660 607 574 590 516 581 C457 571 398 554 340 541 C306 533 290 522 277 493 C267 469 283 448 298 428 C316 421 345 417 375 417 C397 417 419 419 437 424 C465 432 481 445 512 448 C489 385 473 324 456 257 C452 243 448 229 442 215 C437 201 432 186 427 171 C416 144 413 118 405 91 C354 81 289 69 237 67 C219 65 186 61 174 67 C186 115 237 229 143 245 C98 251 80 219 68 185 C63 168 58 152 52 138 C43 119 30 97 21 74 C7 33 18 -12 51 -35 C71 -52 151 -57 184 -56 C205 -56 235 -57 263 -57 C276 -57 289 -57 299 -56 C348 -50 448 -41 498 -22 C527 -11 536 6 546 29 C566 75 570 125 586 173 C596 200 608 228 616 255 C632 307 650 358 667 417 C671 432 671 447 674 462 C702 462 733 467 769 467 C802 467 824 467 847 492 L847 492 Z " />
<glyph glyph-name="k" unicode="k" horiz-adv-x="772" d="M869 561 C871 582 847 608 829 613 C803 618 772 607 750 596 C726 582 700 567 676 553 C621 519 561 482 501 446 C450 414 393 381 342 355 C360 389 369 406 386 457 C394 478 400 497 401 512 C403 533 390 584 359 589 C346 592 296 589 285 584 C258 572 249 548 239 521 C232 503 227 485 221 472 C188 406 147 341 113 272 C95 234 77 196 63 156 C47 113 34 67 33 21 C33 0 45 -25 59 -44 C68 -55 79 -59 92 -59 C103 -59 136 -57 145 -53 C164 -48 185 -33 188 -16 C198 19 203 50 215 84 C218 94 222 104 228 115 C268 137 288 153 331 176 C425 121 452 71 546 -13 C549 -23 592 -62 604 -62 C616 -62 632 -61 645 -56 C671 -46 681 -25 686 -4 C690 16 689 37 679 56 C667 91 608 143 580 171 C548 202 513 229 481 264 C512 282 530 295 543 301 C615 338 692 385 759 430 C780 444 807 463 824 482 C851 512 866 528 869 561 L869 561 Z " />
<glyph glyph-name="l" unicode="l" horiz-adv-x="612" d="M162 356 C128 296 81 193 58 131 C46 103 36 78 28 50 C20 28 12 2 9 -16 C8 -34 15 -61 28 -72 C36 -79 45 -81 55 -81 C66 -81 78 -78 91 -76 C143 -67 194 -45 248 -34 C313 -22 391 -5 459 0 C477 1 507 0 526 11 C536 17 544 33 550 48 C555 62 558 75 554 81 C540 119 473 125 432 118 C353 103 294 111 217 90 C219 111 235 136 244 157 C271 221 313 308 350 375 C370 411 392 444 405 482 C424 529 415 564 393 603 C384 618 351 621 335 621 C280 621 274 598 262 556 C260 549 257 541 254 532 C232 470 198 415 162 356 L162 356 Z " />
<glyph glyph-name="m" unicode="m" horiz-adv-x="992" d="M75 148 C50 120 24 79 13 38 C4 18 -1 4 -4 -18 C-8 -44 11 -67 30 -75 C48 -80 87 -81 107 -76 C158 -62 198 49 223 88 C262 141 313 228 365 273 C368 203 361 132 350 58 C345 36 335 -10 335 -33 C337 -56 360 -65 381 -78 C393 -83 408 -86 422 -86 C436 -86 449 -84 459 -79 C485 -67 498 -47 514 -27 C612 103 683 222 804 348 C803 293 795 238 790 168 C790 144 792 122 780 47 C777 25 756 -36 774 -53 C788 -65 824 -73 845 -70 C877 -68 899 -29 914 12 C925 45 933 78 933 93 C935 161 952 250 947 318 C941 407 973 484 957 584 C954 605 930 622 902 623 C838 629 824 622 785 584 C735 533 698 472 654 417 C610 361 553 281 506 228 C508 251 509 247 513 272 C522 332 520 348 532 407 C539 430 543 459 546 481 C548 493 548 509 546 520 C542 528 535 537 529 544 C512 565 497 566 468 562 C438 559 426 552 404 531 C364 493 312 462 276 416 C230 356 187 292 142 233 C119 205 98 176 75 148 L75 148 Z " />
<glyph glyph-name="n" unicode="n" horiz-adv-x="696" d="M118 240 C99 189 62 143 43 90 C38 78 35 66 33 53 C30 25 14 -65 54 -75 C69 -79 141 -75 153 -64 C168 -51 178 -21 184 -4 C203 44 225 90 245 136 C267 187 280 221 305 273 C344 193 357 112 372 23 C376 6 378 -19 392 -34 C406 -47 437 -55 458 -57 C507 -63 522 -32 547 6 C581 61 619 130 642 194 C678 292 721 383 778 486 C781 494 787 505 790 515 C802 554 806 567 771 602 C756 618 736 619 711 610 C672 594 631 565 611 532 C603 520 599 507 595 494 C591 484 587 473 584 463 C573 430 555 399 539 367 C514 322 501 264 465 225 C432 286 438 309 418 372 C413 395 408 418 403 441 C400 453 372 559 363 568 C354 581 326 588 308 589 C288 590 255 573 240 560 C222 545 219 527 213 509 C205 482 195 456 187 429 C184 411 174 394 167 376 C156 344 143 313 118 240 L118 240 Z " />
<glyph glyph-name="o" unicode="o" horiz-adv-x="848" d="M890 516 C860 545 816 559 773 571 C724 587 683 601 627 594 C602 590 577 593 553 589 C525 585 497 576 471 568 C421 556 385 536 345 508 C300 478 258 444 213 411 C146 359 95 298 70 229 C57 194 52 156 55 116 C59 78 79 5 112 -23 C139 -45 211 -51 250 -51 C267 -51 284 -51 301 -51 C353 -51 404 -48 455 -25 C552 17 649 69 728 137 C768 172 803 217 835 258 C862 295 891 327 905 367 C924 424 936 472 890 516 L890 516 Z M634 274 C563 208 524 159 430 122 C391 107 369 98 327 88 C255 72 230 128 225 185 C253 229 285 269 326 302 C383 363 441 405 516 442 C536 451 556 444 576 447 C594 450 611 456 633 458 C678 462 707 444 745 430 C734 379 672 309 634 274 L634 274 Z " />
<glyph glyph-name="p" unicode="p" horiz-adv-x="692" d="M758 499 C746 512 736 527 724 538 C698 558 643 596 610 599 C579 601 564 601 535 601 C501 602 449 600 415 598 C351 594 352 593 288 567 C269 559 245 550 228 541 C216 533 213 527 207 515 C191 480 178 445 166 413 C155 381 143 349 133 316 C124 286 107 257 100 228 C94 205 87 183 80 161 C77 144 69 121 62 98 C53 75 44 52 36 36 C25 15 15 -42 36 -61 C43 -65 53 -64 63 -65 C86 -70 142 -50 154 -33 C193 17 213 62 226 102 C234 126 240 139 252 162 C285 161 313 168 351 173 C407 182 469 199 520 219 C594 251 680 298 729 362 C746 383 761 407 769 429 C779 456 778 481 758 499 L758 499 Z M435 320 C404 312 385 303 354 298 C333 297 317 293 298 287 C308 333 328 375 344 416 C346 423 358 453 358 453 C358 453 471 473 485 473 C518 473 496 472 528 469 C557 467 583 464 609 459 C582 392 504 340 435 320 L435 320 Z " />
<glyph glyph-name="q" unicode="q" horiz-adv-x="920" d="M964 492 C927 562 842 591 758 597 C747 598 736 599 725 599 C699 599 673 596 648 593 C611 588 572 588 534 580 C497 572 468 559 436 542 C375 511 319 469 262 432 C194 388 139 326 103 263 C88 237 75 217 66 193 C63 184 61 175 59 164 C50 99 102 15 177 -5 C219 -17 229 -22 275 -30 C298 -35 323 -36 349 -36 C393 -36 439 -30 483 -23 C504 -19 525 -18 543 -15 C544 -18 543 -22 546 -27 C549 -36 550 -47 552 -58 C554 -80 563 -104 582 -116 C593 -125 610 -131 627 -131 C646 -131 652 -127 663 -114 C672 -103 683 -88 684 -75 C685 -61 684 -45 684 -29 C682 -4 678 22 673 47 C739 96 814 137 866 196 C909 246 941 302 975 355 C1004 399 987 448 964 492 L964 492 Z M640 179 C629 208 619 228 594 255 C585 263 561 284 551 291 C541 298 540 302 526 302 C510 301 492 298 477 292 C461 285 457 261 451 245 C446 230 447 219 451 205 C454 195 461 188 465 179 C475 167 479 153 486 141 C491 131 495 121 501 113 C472 107 443 103 418 102 C403 101 391 101 380 101 C344 101 339 107 292 132 C277 139 244 170 250 189 C258 215 287 268 305 286 C348 328 399 365 459 392 C515 416 570 448 632 453 C646 455 661 456 675 456 C687 456 700 455 713 453 C760 448 795 422 811 385 C764 309 714 235 640 179 L640 179 Z " />
<glyph glyph-name="r" unicode="r" horiz-adv-x="747" d="M812 458 C804 486 800 508 785 531 C771 552 750 564 729 575 C669 610 579 628 506 622 C448 618 394 610 333 592 C309 584 280 577 258 562 C250 556 243 549 239 539 C229 522 219 508 208 491 C163 415 139 328 107 247 C96 221 82 188 69 153 C47 90 29 21 47 -28 C57 -55 86 -57 117 -45 C143 -35 189 -9 196 19 C203 46 211 93 222 121 C227 138 237 165 237 165 C237 165 317 189 331 174 C371 142 375 107 399 72 C421 37 458 -53 496 -63 C513 -68 558 -68 571 -58 C584 -48 588 -36 591 -21 C592 -4 594 5 591 21 C576 74 568 92 537 150 C520 173 516 178 490 218 C599 249 656 264 741 332 C765 349 784 368 799 393 C814 418 820 430 812 458 L812 458 Z M471 338 C404 321 361 299 300 299 C322 358 358 406 372 458 C397 459 417 480 442 482 C469 486 494 486 520 485 C571 482 584 478 630 469 C643 411 537 356 471 338 L471 338 Z " />
<glyph glyph-name="s" unicode="s" horiz-adv-x="812" d="M879 471 C892 488 880 531 867 547 C840 586 813 596 769 613 C739 624 710 630 679 630 C660 630 640 627 620 622 C551 604 383 564 322 510 C299 492 271 472 249 450 C218 423 194 398 173 362 C161 343 152 327 146 310 C141 295 137 278 146 258 C152 245 174 222 188 212 C209 199 252 184 276 182 C289 181 301 179 313 179 C359 179 400 188 448 196 C490 205 509 216 553 216 C566 216 579 215 593 212 C582 194 577 175 561 155 C528 114 469 86 415 75 C364 67 282 62 229 63 C131 67 141 97 100 116 C76 128 54 120 30 103 C11 88 14 48 18 32 C26 -12 91 -59 140 -68 C180 -76 190 -81 233 -81 C267 -82 312 -80 350 -74 C431 -61 463 -61 542 -33 C595 -15 681 32 712 74 C729 96 773 173 782 205 C796 255 805 297 757 327 C728 345 697 351 662 351 C635 351 605 347 572 343 C542 339 494 331 463 327 C442 325 417 310 380 310 C366 310 353 313 345 319 C414 387 417 394 455 421 C485 443 624 495 668 501 C686 504 735 485 750 476 C770 464 789 437 814 436 C844 436 861 448 879 471 L879 471 Z " />
<glyph glyph-name="t" unicode="t" horiz-adv-x="625" d="M625 481 C669 486 741 504 751 558 C754 581 730 598 713 607 C704 611 693 612 680 612 C661 612 640 609 625 607 C585 602 546 599 507 593 C460 585 416 583 370 579 C312 573 219 575 172 520 C161 508 152 496 148 484 C144 474 144 464 150 455 C159 440 178 423 202 428 C232 433 248 441 276 445 C293 447 310 450 325 452 C308 423 296 396 282 366 C258 313 230 261 211 208 C193 155 171 93 156 37 C152 20 143 -6 146 -22 C151 -44 180 -55 202 -55 C219 -55 249 -50 265 -40 C273 -37 281 -31 288 -25 C311 0 319 21 328 47 C336 80 358 132 368 165 C372 178 377 192 382 206 C386 219 392 234 396 248 C403 272 412 296 423 319 C451 368 475 418 506 464 C519 467 534 469 549 472 C578 475 594 478 625 481 L625 481 Z " />
<glyph glyph-name="u" unicode="u" horiz-adv-x="687" d="M365 83 C309 66 227 70 227 70 L240 132 C249 168 268 227 283 269 C312 350 354 434 397 525 C411 550 389 567 372 582 C362 589 321 598 302 590 C243 568 200 491 175 442 C157 408 143 376 131 342 C124 322 119 303 112 282 C88 195 41 95 40 4 C38 -43 109 -71 156 -72 C216 -74 262 -63 319 -54 C337 -51 353 -50 367 -50 C411 -50 539 -44 583 -8 C601 6 613 29 624 57 C643 114 662 210 673 244 C684 276 689 309 698 341 C708 373 727 404 743 435 C752 462 762 488 778 515 C788 535 805 560 806 579 C809 612 785 623 757 623 C735 623 678 616 660 607 C622 589 603 548 590 509 C585 496 580 484 577 472 C557 422 540 372 522 322 C515 305 509 288 503 272 C486 223 459 157 448 109 C448 109 409 97 365 83 L365 83 Z " />
<glyph glyph-name="v" unicode="v" horiz-adv-x="654" d="M129 176 C129 123 139 71 141 18 C140 -4 144 -27 153 -47 C161 -66 197 -64 220 -65 C244 -66 264 -58 284 -42 C319 -14 349 20 378 54 C397 76 416 98 433 119 C487 180 529 244 583 305 C635 363 686 419 733 478 C743 490 771 519 772 534 C774 548 756 586 741 587 C722 590 671 585 653 574 C630 561 601 544 583 524 C544 478 513 427 472 381 C438 341 408 295 374 255 C340 218 334 200 298 175 C290 202 291 197 292 235 C294 267 300 301 304 335 C313 392 317 431 337 486 C347 507 358 547 347 567 C337 581 322 604 300 605 C276 602 219 588 200 569 C182 551 179 501 173 478 C166 447 157 414 151 382 C136 313 129 244 129 176 L129 176 Z " />
<glyph glyph-name="w" unicode="w" horiz-adv-x="966" d="M185 400 C186 343 184 286 183 229 C180 201 180 172 176 145 C172 116 161 87 157 59 C156 35 156 2 176 -16 C188 -27 206 -33 222 -38 C242 -45 276 -33 300 -13 C313 -1 316 18 326 33 C343 61 358 87 378 115 C396 142 416 165 439 189 C452 202 488 239 512 267 C535 210 530 144 549 85 C561 40 558 -41 632 -36 C658 -35 698 -15 712 4 C726 24 734 47 747 69 C778 126 812 181 850 234 C895 295 936 356 989 410 C1021 441 1059 484 1075 525 C1079 537 1080 548 1080 559 C1080 583 1061 607 1031 605 C1018 604 996 606 985 601 C949 585 919 547 895 516 C871 485 843 456 818 425 C768 362 738 323 688 257 C663 296 674 333 679 393 C685 448 702 503 686 559 C679 579 659 606 634 610 C604 613 551 598 533 578 C517 556 513 528 499 505 C485 480 469 455 452 430 C411 375 388 333 338 286 C340 344 341 384 342 459 C340 509 349 572 283 590 C258 598 202 575 184 559 C161 539 178 515 180 491 C183 461 185 429 185 400 L185 400 Z " />
<glyph glyph-name="x" unicode="x" horiz-adv-x="662" d="M754 494 C766 504 781 527 788 550 C795 568 793 600 789 608 C786 615 728 651 726 651 C710 651 696 647 678 641 C661 635 652 633 639 619 C630 609 619 598 609 588 C544 532 477 479 411 423 C380 507 388 578 367 588 C358 599 344 605 328 605 C316 605 304 602 292 595 C269 583 247 567 242 542 C230 459 255 406 279 332 C269 321 261 312 250 303 C169 239 65 156 -6 81 C-23 63 -28 16 -29 -8 C-28 -29 -21 -56 -3 -67 C4 -72 18 -73 32 -73 C94 -73 89 -53 134 -12 C207 51 267 101 337 170 C340 162 343 156 345 149 C366 97 392 46 436 10 C457 -7 472 -28 501 -35 C520 -41 551 -36 563 -17 C594 32 552 64 529 105 C513 138 494 173 477 207 C468 225 468 232 459 254 C493 282 530 310 562 338 C596 368 629 394 666 424 C696 445 727 471 754 494 L754 494 Z " />
<glyph glyph-name="y" unicode="y" horiz-adv-x="647" d="M769 552 C772 571 759 614 738 624 C713 634 668 648 645 636 C626 625 606 607 592 592 C537 529 468 474 407 405 C394 425 396 419 378 444 C362 465 353 496 342 521 C332 545 327 559 308 581 C291 600 258 599 232 599 C206 599 198 593 190 569 C186 558 183 546 186 538 C187 520 197 501 203 484 C225 429 242 417 271 366 C282 346 295 323 303 301 C292 289 244 219 232 206 C193 159 130 110 115 50 C110 28 118 -27 128 -48 C139 -73 179 -82 201 -73 C228 -62 240 -46 254 -24 C279 12 312 44 339 80 C371 124 410 164 446 205 C477 241 513 278 544 315 C579 353 610 392 649 423 C678 446 706 465 732 491 C749 510 767 525 769 552 L769 552 Z " />
<glyph glyph-name="z" unicode="z" horiz-adv-x="671" d="M435 601 C397 599 290 579 260 547 C246 531 234 509 229 490 C223 465 251 445 277 441 C301 439 337 452 362 459 C403 472 402 477 448 477 C464 477 480 476 494 473 C458 442 437 426 408 405 C371 379 338 349 298 321 C236 275 206 238 142 192 C110 169 78 145 50 117 C30 96 8 57 4 30 C2 8 21 -32 34 -48 C47 -65 77 -68 100 -70 C178 -79 311 -28 399 -23 C448 -21 441 -34 482 -29 C513 -27 525 -17 550 -1 C574 13 581 44 583 59 C586 79 579 81 560 88 C528 102 497 107 466 107 C442 107 419 104 391 101 C341 93 307 91 254 75 C370 190 508 276 634 384 C662 404 695 424 724 442 C746 455 757 471 768 493 C779 520 766 575 740 584 C693 603 645 615 593 615 C582 615 572 614 561 613 C519 611 475 606 435 601 L435 601 Z " />
<glyph glyph-name="braceleft" unicode="&#x7b;" horiz-adv-x="646" d="M296 199 C262 194 227 183 193 181 C142 177 94 179 85 227 C78 268 121 293 163 312 C198 326 257 322 299 327 C326 330 354 335 381 336 C408 338 484 326 502 303 C512 290 507 258 496 245 C475 222 439 208 410 207 C372 205 333 202 296 199 L296 199 Z M540 568 C512 599 455 624 407 625 C381 625 366 615 361 599 C354 581 359 556 367 537 C378 515 397 505 418 493 C447 478 468 455 494 436 C528 412 547 387 590 382 C610 379 629 378 648 392 C654 398 665 413 665 421 C679 493 581 526 540 568 L540 568 Z M411 113 C381 108 352 91 326 75 C274 45 231 48 185 -40 C175 -58 179 -69 191 -88 C197 -98 213 -122 222 -127 C241 -137 266 -126 282 -120 C307 -113 406 -60 423 -46 C450 -20 490 -17 517 10 C530 24 513 87 495 105 C484 115 470 119 455 119 C441 119 425 115 411 113 L411 113 Z " />
<glyph glyph-name="bar" unicode="&#x7c;" horiz-adv-x="313" d="M358 417 C363 428 367 439 371 450 C376 463 380 475 384 488 C389 499 392 509 398 520 C410 548 432 582 436 607 C445 632 448 657 435 679 C424 697 380 731 354 730 C330 730 294 703 287 682 C278 653 269 624 261 598 C234 519 197 444 163 367 C140 319 112 274 89 225 C82 210 76 194 69 177 C59 148 51 118 43 90 C30 48 26 4 20 -38 C15 -69 7 -108 13 -139 C18 -156 37 -183 62 -179 C118 -171 156 -144 165 -97 C169 -85 169 -74 171 -62 C175 -36 180 -10 187 16 C192 30 196 43 201 57 C220 112 246 167 266 223 C289 286 331 354 358 417 L358 417 Z " />
<glyph glyph-name="braceright" unicode="&#x7d;" horiz-adv-x="604" d="M198 381 C207 372 229 361 241 361 C269 359 297 370 327 383 C340 389 353 396 365 402 C400 418 433 435 466 453 C493 468 514 482 541 497 C552 504 560 510 566 522 C572 532 587 556 586 567 C584 573 564 593 560 598 C551 605 528 621 516 621 C501 621 483 616 469 613 C440 607 408 595 380 579 C363 569 348 560 331 549 C289 522 238 498 206 460 C198 452 188 438 183 424 C178 413 190 389 198 381 L198 381 Z M627 291 C623 303 593 316 582 321 C564 327 546 328 527 326 C491 322 454 314 418 307 C349 292 274 297 239 221 C230 200 243 188 260 175 C279 158 295 161 318 166 C362 175 406 173 448 178 C495 184 552 194 591 221 C605 230 634 274 627 291 L627 291 Z M278 -1 C241 33 208 70 172 104 C157 118 141 139 117 133 C98 130 65 114 61 97 C52 70 55 40 69 17 C88 -13 109 -35 137 -57 C166 -79 194 -114 231 -125 C246 -128 290 -125 305 -113 C322 -98 327 -58 318 -42 C308 -27 291 -13 278 -1 L278 -1 Z " />
<glyph glyph-name="asciitilde" unicode="&#x7e;" horiz-adv-x="759" d="M250 373 C215 358 179 335 147 313 C127 298 95 267 95 241 C94 217 116 201 142 195 C167 188 180 196 202 210 C228 227 339 293 351 257 C364 222 353 181 369 145 C375 126 387 113 409 108 C431 103 451 102 474 103 C543 109 568 107 626 141 C683 173 743 225 761 280 C769 299 771 318 766 337 C763 345 762 354 755 360 C744 376 697 394 671 376 C653 365 647 347 636 332 C625 315 548 224 517 241 C499 251 498 292 495 309 C491 321 488 333 484 344 C480 354 474 362 470 371 C457 404 417 417 380 417 C337 417 296 394 250 373 L250 373 Z " />
<glyph glyph-name="exclamdown" unicode="&#xa1;" horiz-adv-x="435" d="M364 602 C349 589 322 561 315 538 C308 522 310 509 329 501 C340 493 359 493 375 493 C393 492 411 490 429 490 C449 490 469 493 486 505 C506 518 557 535 565 562 C573 584 565 625 547 632 C532 638 508 632 493 630 C474 629 388 621 364 602 L364 602 Z M19 -30 C30 -52 41 -61 56 -61 C66 -61 99 -57 113 -51 C191 -17 216 57 265 119 C308 172 300 166 343 219 C368 250 430 349 411 368 C388 395 362 423 332 404 C308 387 258 339 238 318 C209 290 185 256 159 225 C100 154 78 136 23 61 C-1 27 0 7 19 -30 L19 -30 Z " />
<glyph glyph-name="cent" unicode="&#xa2;" horiz-adv-x="603" d="M592 362 C596 376 593 413 587 425 C575 448 554 467 537 487 C532 490 529 493 525 497 C532 515 561 578 566 596 C576 625 576 645 548 664 C521 685 496 663 477 642 C457 617 421 543 407 513 C375 508 343 497 318 481 C221 419 105 298 70 200 C59 170 54 138 66 112 C79 73 102 50 135 24 C157 8 201 -4 238 -7 C230 -29 216 -50 207 -76 C201 -90 198 -103 202 -115 C216 -144 244 -152 276 -138 C301 -127 340 -55 350 -30 C353 -19 358 -7 362 4 C421 17 476 42 530 67 C552 76 562 92 557 114 C551 139 532 145 508 149 C498 151 486 152 475 152 C457 152 437 149 418 145 L348 128 C330 126 330 124 293 126 C272 127 251 137 230 141 C249 204 339 372 449 372 C464 372 477 362 493 347 C516 328 521 320 548 326 C569 330 585 343 592 362 L592 362 Z " />
<glyph glyph-name="sterling" unicode="&#xa3;" horiz-adv-x="704" d="M689 433 C696 442 704 454 708 467 C713 478 714 489 713 498 C712 516 704 539 694 550 C679 566 659 576 639 588 C619 600 603 610 580 619 C550 632 516 647 480 647 C464 647 448 644 431 636 C410 625 376 606 361 589 C350 577 342 561 335 545 C322 508 317 473 308 432 C301 402 285 370 273 339 C269 329 267 319 265 309 C240 299 217 310 191 308 C152 303 129 272 116 234 C108 211 120 205 137 192 C151 178 161 171 180 173 C190 176 201 177 210 179 C197 155 173 131 148 107 C123 107 85 110 57 88 C32 69 15 44 1 17 C-14 -12 -10 -21 3 -46 C19 -69 38 -73 67 -75 C109 -80 152 -59 186 -33 C215 -42 228 -65 255 -78 C273 -86 294 -93 313 -99 C323 -102 334 -103 346 -103 C387 -103 438 -88 476 -76 C525 -63 594 -48 616 -2 C624 19 635 55 617 69 C606 77 591 82 575 82 C562 82 550 79 541 72 C499 40 481 32 426 23 C382 16 330 27 310 79 C310 79 377 181 393 204 C420 205 427 204 454 202 C476 201 512 199 531 215 C542 225 573 261 577 276 C584 298 554 321 537 324 C513 328 503 328 479 330 C467 330 454 331 443 330 C454 362 467 396 474 421 C484 453 482 473 503 503 C550 509 566 470 592 444 C605 429 606 411 634 410 C656 410 675 416 689 433 L689 433 Z " />
<glyph glyph-name="currency" unicode="&#xa4;" horiz-adv-x="676" d="M539 561 C528 562 517 564 507 564 C485 564 464 560 444 554 C438 552 432 549 427 548 C421 584 422 622 416 657 C407 668 393 674 377 674 C366 674 353 671 341 664 C318 652 296 636 291 611 C285 572 284 535 288 496 C274 488 261 479 250 469 C211 433 163 388 144 336 C141 328 139 320 137 312 C133 282 134 253 142 228 C100 195 62 161 29 127 C12 109 -6 86 -4 62 C-4 41 0 15 20 4 C26 -1 42 -2 56 -2 C118 -2 112 17 157 58 C184 81 210 102 233 124 C233 122 237 122 238 122 C250 119 260 116 269 116 C282 116 294 119 308 121 C341 128 373 132 405 142 C419 119 436 97 458 80 C480 63 494 42 522 35 C543 29 574 34 586 53 C617 102 575 135 553 176 L532 213 C551 229 566 246 586 263 C629 299 681 345 698 396 C715 439 701 474 674 501 L685 508 C715 530 745 555 772 578 C785 588 799 612 806 634 C813 652 816 670 812 679 C806 691 795 692 783 698 C773 703 763 704 754 704 C738 704 725 700 707 695 C690 688 680 686 668 673 C659 662 648 651 638 641 C607 613 574 587 541 560 C540 560 540 561 539 561 L539 561 Z M512 375 L483 339 C476 330 467 322 458 314 C449 308 443 301 435 293 C417 280 396 270 377 262 C366 258 361 257 354 257 C337 257 325 265 313 279 C303 288 292 316 303 333 C306 339 313 343 316 348 C340 378 375 407 411 422 C427 430 449 434 469 434 C481 434 492 433 503 430 C522 427 530 413 529 398 C524 389 518 382 512 375 L512 375 Z " />
<glyph glyph-name="yen" unicode="&#xa5;" horiz-adv-x="603" d="M725 573 C726 590 718 601 703 612 C689 624 675 635 656 632 C605 625 585 588 548 544 C538 531 528 516 519 504 C484 464 454 423 409 376 C387 355 380 347 360 324 C356 330 351 338 348 345 C335 385 334 431 328 473 C324 505 331 542 319 572 C313 587 308 604 291 611 C273 620 242 602 226 593 C202 579 188 558 179 535 C174 518 169 499 169 482 C169 452 167 422 169 392 C174 360 179 331 185 299 C186 291 188 284 189 275 C174 273 159 270 143 267 C130 263 109 262 97 256 C84 250 55 210 58 199 C58 189 68 178 75 171 C84 161 84 156 97 156 C113 156 129 159 144 160 C167 162 191 164 213 164 C208 148 202 132 196 116 C159 113 123 107 87 108 C46 110 20 65 10 35 C3 15 37 -7 61 -7 C95 -6 130 2 169 4 C166 -13 161 -33 161 -50 C162 -81 201 -109 235 -104 C254 -101 283 -95 296 -82 C310 -69 311 -55 311 -40 C312 -24 313 -7 318 8 C344 8 371 6 397 6 C418 6 444 17 461 28 C476 39 494 73 487 90 C479 107 450 122 430 121 C417 120 405 120 392 120 C378 120 366 120 354 120 C358 130 361 139 364 149 C372 156 380 162 387 168 C422 168 459 166 494 162 C513 159 547 160 564 170 C587 182 598 204 605 224 C616 253 608 255 587 269 C569 281 540 286 513 288 C572 343 612 405 675 472 C693 491 710 514 717 538 C722 549 725 561 725 573 L725 573 Z " />
<glyph glyph-name="brokenbar" unicode="&#xa6;" horiz-adv-x="271" d="M357 484 C365 517 387 554 389 589 C391 614 401 637 375 651 C366 656 357 655 344 655 C331 654 294 653 280 648 C263 642 263 637 255 630 C249 620 240 610 235 602 C230 593 232 582 229 574 C217 532 204 490 184 447 C167 410 136 350 135 316 C134 299 141 292 167 290 C190 286 233 286 256 305 C277 322 295 339 307 357 C315 368 321 378 326 388 C342 421 347 454 357 484 L357 484 Z M-30 -85 C-30 -94 -17 -106 -10 -114 C3 -133 63 -130 93 -118 C113 -111 125 -100 136 -86 C151 -64 157 -36 167 -10 C179 16 189 46 199 74 C205 93 212 110 213 131 C214 150 220 186 211 201 C201 224 146 222 118 212 C96 203 77 195 65 176 C48 146 33 103 23 76 C11 38 0 2 -13 -33 C-19 -44 -22 -54 -25 -65 C-28 -71 -30 -77 -30 -85 L-30 -85 Z " />
<glyph glyph-name="section" unicode="&#xa7;" horiz-adv-x="564" d="M660 584 C658 599 656 610 641 618 C614 641 580 646 542 657 C520 662 497 665 474 665 C431 665 387 657 342 646 C296 633 241 594 217 556 C193 518 198 470 224 435 C240 415 262 395 283 383 C250 361 186 331 179 292 C172 247 182 227 207 189 C230 155 290 132 322 108 C334 99 358 92 352 78 C337 44 277 21 245 18 C234 17 222 15 212 15 C202 15 195 17 184 21 C167 27 156 36 147 48 C139 62 134 73 132 87 C131 110 129 131 103 141 C59 156 15 112 15 74 C20 30 33 -6 61 -35 C81 -58 109 -74 140 -85 C157 -90 182 -95 201 -97 C219 -99 272 -95 288 -91 C352 -78 387 -69 437 -28 C459 -12 469 11 481 30 C492 47 497 72 493 91 C490 118 472 158 443 172 C517 216 531 229 542 242 C555 258 561 272 563 291 C565 313 563 325 554 344 C538 387 502 402 461 424 C428 442 382 456 359 484 C354 488 345 496 344 502 C343 512 358 528 365 535 C389 550 421 554 449 554 C466 554 483 552 496 550 C517 547 531 541 546 525 C558 512 557 501 579 499 C596 498 613 501 629 510 C643 518 652 530 658 543 C662 556 663 570 660 584 L660 584 Z " />
<glyph glyph-name="dieresis" unicode="&#xa8;" horiz-adv-x="414" d="M404 806 C413 790 415 774 408 757 C405 747 399 737 388 727 C382 721 370 719 361 716 C349 713 337 713 323 712 C315 710 308 709 301 715 C290 728 286 747 286 764 C289 792 331 807 356 813 C365 816 377 817 385 816 C393 816 398 813 404 806 L404 806 Z M614 804 C609 815 593 824 583 830 C569 839 555 832 543 823 C529 815 514 807 499 798 C492 793 487 787 484 777 C480 765 477 745 488 735 C496 727 513 720 525 720 C544 721 565 738 582 748 C602 759 619 792 614 804 L614 804 Z " />
<glyph glyph-name="copyright" unicode="&#xa9;" horiz-adv-x="857" d="M897 478 C892 502 879 512 862 528 C834 559 806 593 762 607 C746 615 725 622 705 627 C670 635 635 640 597 640 C566 640 533 636 501 628 C431 610 375 587 319 541 C253 487 185 435 148 364 C133 333 111 304 97 273 C85 244 78 212 73 182 C55 80 116 -33 230 -45 C258 -47 289 -46 318 -50 C345 -53 380 -44 410 -36 C476 -18 551 17 610 56 C641 76 678 98 704 125 C738 156 770 193 802 228 C829 259 854 290 872 325 C889 353 892 378 897 407 C900 432 901 455 897 478 L897 478 Z M758 359 C740 309 701 257 657 217 C631 194 606 168 579 147 C552 127 520 109 490 97 C438 76 382 61 328 61 C278 61 233 75 207 112 C195 130 188 143 190 166 C191 192 200 217 207 242 C224 302 265 352 315 400 C362 445 414 491 470 514 C483 520 576 552 585 553 C604 554 623 542 637 537 C653 531 670 525 684 514 C706 498 723 479 745 461 C757 450 772 438 774 419 C777 402 765 377 758 359 L758 359 Z M629 429 C634 422 636 398 632 390 C629 377 619 370 605 366 C573 360 550 418 515 404 C502 396 486 385 475 375 C461 364 421 331 410 316 C389 291 359 244 358 217 C371 215 383 210 397 207 C416 204 431 207 451 212 C482 218 514 228 543 222 C560 219 571 216 574 200 C577 185 573 176 559 170 C518 152 480 135 437 127 C418 124 400 124 381 122 C348 120 305 139 287 158 C276 170 269 182 263 198 C257 215 258 234 265 253 C274 279 293 305 306 325 C322 349 381 398 403 416 C421 433 437 451 459 464 C485 481 522 488 553 488 C569 488 587 479 598 469 C610 456 621 444 629 429 L629 429 Z " />
<glyph glyph-name="ordfeminine" unicode="&#xaa;" horiz-adv-x="552" d="M635 587 C620 611 588 617 562 616 C528 616 484 615 452 606 C406 595 361 581 319 558 C249 515 180 463 154 388 C141 358 140 295 173 275 C194 265 218 261 242 261 C264 261 288 264 309 267 C353 273 396 285 436 298 C443 274 443 221 487 228 C532 235 542 273 553 309 C558 322 560 336 564 349 C579 393 582 438 602 479 C609 496 624 514 628 531 C634 548 641 571 635 587 L635 587 Z M459 469 C457 456 442 417 442 417 C398 399 332 371 291 381 C320 427 410 497 463 497 C461 487 461 479 459 469 L459 469 Z " />
<glyph glyph-name="guillemotleft" unicode="&#xab;" horiz-adv-x="957" d="M393 149 C363 184 315 199 283 231 C295 247 385 293 416 315 C454 343 495 367 536 393 C566 413 593 435 623 457 C635 466 643 475 648 486 C651 497 650 509 643 522 C637 538 609 563 593 568 C549 579 508 542 479 520 C464 508 448 496 434 486 C397 463 355 446 320 420 C258 377 181 351 114 316 C89 303 78 261 75 233 C73 222 74 205 79 195 C84 183 95 181 107 175 C133 161 161 148 187 133 C215 120 249 103 267 81 C285 63 296 33 315 16 C322 9 333 7 344 7 C360 7 376 11 388 17 C418 32 424 45 424 74 C422 103 412 127 393 149 L393 149 Z M1012 479 C1010 505 987 527 959 537 C912 550 871 509 837 485 C810 465 813 470 787 452 C732 413 674 379 611 349 C580 333 552 315 522 302 C491 287 475 276 459 246 C451 228 469 176 488 166 C509 155 536 149 558 142 C608 125 629 72 659 34 C676 11 681 4 712 0 C745 -2 767 18 781 44 C807 91 766 144 733 176 C718 189 694 205 684 222 C747 263 813 302 876 342 C919 370 933 378 974 407 C991 420 1003 431 1009 446 C1012 455 1012 466 1012 479 L1012 479 Z " />
<glyph glyph-name="logicalnot" unicode="&#xac;" horiz-adv-x="835" d="M334 567 C323 567 310 567 297 567 C243 567 174 560 139 492 C120 458 125 459 143 439 C153 425 180 434 202 435 C240 437 280 441 317 441 C417 441 475 430 564 418 C583 414 598 408 617 405 C639 399 691 399 691 399 C691 399 674 324 671 301 C665 281 627 208 613 181 C601 154 601 126 602 103 C601 80 627 76 653 76 C685 76 710 93 744 125 C761 142 821 256 828 286 C836 318 858 350 862 382 C867 410 868 410 872 436 C886 508 876 526 790 522 C743 519 708 533 668 539 C623 547 602 548 554 552 C505 556 466 567 413 565 C387 565 363 568 334 567 L334 567 Z " />
<glyph glyph-name="uni00AD" unicode="&#xad;" horiz-adv-x="495" d="M295 310 C257 304 217 307 175 295 C145 286 120 285 98 257 C90 248 90 241 87 230 C85 219 82 202 86 193 C89 181 95 182 102 179 C113 177 122 173 132 173 C142 173 155 178 164 179 C212 187 261 192 308 193 C349 194 416 194 457 206 C476 212 486 221 494 244 C503 264 508 287 491 299 C474 310 458 318 439 321 C427 323 415 324 404 324 C367 324 330 315 295 310 L295 310 Z " />
<glyph glyph-name="registered" unicode="&#xae;" horiz-adv-x="878" d="M876 566 C837 594 782 617 730 629 C704 635 676 639 648 638 C614 636 586 629 553 622 C521 616 493 613 459 602 C417 589 374 575 334 550 C268 510 217 459 168 402 C134 361 106 313 88 263 C68 206 62 147 75 97 C87 51 123 13 161 -16 C199 -49 264 -62 329 -62 C355 -62 380 -60 405 -56 C431 -52 475 -48 527 -27 C654 27 750 87 823 192 C849 230 882 286 902 343 C933 429 941 520 876 566 L876 566 Z M766 312 C747 278 732 239 704 210 C627 128 587 102 491 64 C460 52 427 51 398 46 C381 44 364 42 350 42 C333 42 320 44 302 45 C244 50 212 91 198 136 C185 173 190 219 206 262 C211 278 217 291 226 305 C242 337 260 367 286 394 C312 419 334 446 370 464 C395 479 450 508 471 515 C506 528 540 530 575 538 C586 541 597 547 610 549 C628 552 638 545 651 541 C667 535 679 528 694 524 C721 515 747 509 772 498 C788 491 805 478 810 462 C815 438 810 411 800 384 C791 359 778 334 766 312 L766 312 Z M628 458 C609 467 591 470 572 470 C537 470 502 457 466 442 C443 433 413 417 404 395 C393 371 381 347 370 321 C350 280 328 240 311 196 C307 187 302 177 299 166 C291 147 289 128 306 114 C317 105 345 104 358 114 C367 122 375 147 382 159 C393 175 404 192 413 208 C427 202 446 182 452 168 C462 154 465 131 479 118 C486 111 495 108 505 108 C530 108 557 130 555 156 C552 190 543 227 515 248 C533 252 553 253 571 258 C614 269 645 284 679 309 C694 325 701 336 698 358 C696 401 672 440 628 458 L628 458 Z M542 327 C516 320 487 314 462 310 C472 325 481 349 494 361 C503 368 522 372 535 376 C562 383 581 376 609 373 C607 354 560 332 542 327 L542 327 Z " />
<glyph glyph-name="macron" unicode="&#xaf;" horiz-adv-x="473" d="M692 830 C683 833 673 829 662 828 C645 825 626 821 607 821 C582 819 428 805 405 801 C386 799 366 796 348 790 C337 788 319 784 315 768 C312 761 307 747 308 739 C310 726 328 714 338 713 C344 710 355 714 364 715 C383 718 402 719 420 720 C455 724 623 738 660 743 C674 745 696 747 707 762 C714 772 725 794 724 807 C723 822 702 828 692 830 L692 830 Z " />
<glyph glyph-name="degree" unicode="&#xb0;" horiz-adv-x="422" d="M530 587 C521 604 507 611 495 624 C487 636 474 644 463 651 C443 665 422 669 399 669 C374 669 349 655 327 645 C305 635 286 617 268 601 C255 588 245 572 234 558 C223 543 217 530 212 517 C208 505 206 493 202 480 C200 469 199 461 201 450 C204 439 207 425 216 417 C224 406 237 395 250 390 C266 384 279 383 297 385 C333 389 352 393 387 404 C420 415 446 428 472 447 C483 456 498 464 506 476 C518 496 526 518 533 538 C539 553 539 572 530 587 L530 587 Z M381 499 C360 486 328 474 302 474 C315 501 327 524 349 543 C361 553 374 564 389 568 C404 572 420 554 433 552 C425 532 399 510 381 499 L381 499 Z " />
<glyph glyph-name="plusminus" unicode="&#xb1;" horiz-adv-x="602" d="M652 445 C663 465 671 488 647 501 C626 510 603 518 579 521 C564 524 549 525 535 525 C520 525 504 524 488 522 C492 531 495 541 498 550 C505 573 519 606 503 630 C491 646 468 674 446 680 C422 685 396 656 386 642 C375 630 373 613 369 599 C361 578 355 558 348 537 C344 527 340 516 335 505 C306 504 276 502 246 496 C208 487 174 485 145 458 C130 442 125 410 132 394 C136 383 144 384 156 382 C168 379 180 376 193 376 C206 376 220 379 233 382 C252 384 272 385 293 388 C284 365 278 341 274 318 C271 298 262 273 286 256 C294 248 312 234 324 233 C348 229 380 246 389 261 C397 272 400 287 404 301 C415 330 426 358 439 395 C491 396 561 398 605 408 C629 413 642 422 652 445 L652 445 Z M262 132 C224 126 184 128 142 116 C112 108 86 107 64 79 C57 70 56 63 53 52 C53 41 48 24 52 15 C55 2 62 4 70 1 C79 -1 89 -5 100 -5 C109 -5 122 0 132 1 C179 8 227 13 275 15 C316 16 384 16 425 28 C443 34 452 42 461 65 C471 86 475 109 459 121 C440 132 424 139 405 143 C394 145 382 146 371 146 C334 146 297 137 262 132 L262 132 Z " />
<glyph glyph-name="acute" unicode="&#xb4;" horiz-adv-x="338" d="M420 788 C400 781 382 773 359 768 C346 764 322 761 309 752 C308 748 302 737 302 732 C302 720 307 707 321 701 C332 697 349 695 365 696 C400 698 442 707 473 718 C490 724 524 739 537 757 C542 764 544 788 537 794 C527 803 506 813 492 814 C473 813 443 795 420 788 L420 788 Z " />
<glyph glyph-name="mu" unicode="&#xb5;" horiz-adv-x="583" d="M173 524 C165 484 156 442 137 400 C130 379 125 358 119 338 C113 323 109 309 105 294 C99 279 92 265 86 250 C75 225 67 202 58 179 C51 156 43 134 31 112 C24 98 13 74 5 51 C-3 26 -10 1 -11 -13 C-14 -27 -17 -48 -6 -56 C8 -63 58 -50 83 -35 C148 1 171 57 189 99 C212 148 231 194 250 239 C286 193 272 182 341 172 C349 171 373 183 387 187 C382 173 369 150 372 136 C374 116 381 108 409 103 C433 101 472 103 487 115 C506 128 522 156 529 173 C544 204 562 242 575 279 C580 294 584 309 588 324 C602 353 613 383 624 412 C633 438 642 465 649 490 C655 514 664 542 664 562 C665 578 668 599 661 611 C654 619 644 624 631 624 C607 624 562 611 532 583 C518 570 510 556 505 543 C492 515 494 488 486 464 C457 384 440 316 344 321 C339 321 304 378 297 378 C301 391 306 404 311 417 C316 430 320 443 326 456 C342 498 347 537 358 578 C364 599 370 616 351 624 C339 630 294 633 269 629 C248 624 215 598 200 579 C184 561 176 539 173 524 L173 524 Z " />
<glyph glyph-name="paragraph" unicode="&#xb6;" horiz-adv-x="1045" d="M1153 549 C1165 575 1171 587 1151 608 C1143 617 1134 630 1124 634 C1112 638 1093 635 1081 634 C1059 633 1037 632 1016 632 C978 632 938 634 900 635 C812 640 723 638 631 645 C618 645 605 646 593 647 C580 650 566 650 553 650 C519 650 480 645 443 641 C370 635 248 596 189 535 C179 524 174 513 169 501 C161 476 159 451 157 425 C153 393 162 362 189 341 C216 319 239 312 280 309 C298 308 313 307 331 307 C367 307 406 309 448 310 C437 290 427 279 421 263 C416 250 411 239 405 224 C400 215 396 205 393 195 C383 168 377 139 369 112 C358 73 319 -65 384 -82 C404 -87 451 -79 467 -67 C487 -52 488 -34 497 -11 C508 22 518 56 529 88 C534 104 541 119 547 135 C569 179 578 213 598 258 C614 290 636 332 651 364 C669 407 700 455 718 502 C730 502 742 502 752 501 C785 497 805 496 839 496 C834 484 829 472 825 461 C822 450 817 440 814 430 C806 409 800 389 792 368 C787 352 780 335 773 318 C738 234 701 150 654 62 C646 47 639 19 636 4 C626 -36 663 -72 698 -72 C715 -72 750 -64 762 -47 C811 21 858 90 888 166 C913 223 939 281 960 339 C978 393 995 447 1006 502 C1022 507 1023 508 1042 508 C1060 508 1078 507 1098 509 C1127 514 1143 525 1153 549 L1153 549 Z " />
<glyph glyph-name="periodcentered" unicode="&#xb7;" horiz-adv-x="309" d="M298 299 C290 320 266 327 240 327 C216 327 193 322 178 315 C157 305 142 282 124 267 C109 253 100 247 105 227 C108 217 114 198 125 194 C143 185 180 195 199 198 C216 200 227 199 241 207 C266 223 290 240 298 263 C302 274 302 286 298 299 L298 299 Z " />
<glyph glyph-name="cedilla" unicode="&#xb8;" horiz-adv-x="346" d="M176 -59 C148 -32 121 -13 70 -24 C55 -28 30 -48 31 -65 C31 -78 55 -80 65 -86 C79 -95 91 -104 102 -115 C107 -121 122 -143 122 -143 C122 -143 84 -143 77 -143 C58 -141 29 -136 8 -141 C-13 -147 -44 -168 -54 -187 C-67 -208 -30 -224 -8 -232 C11 -238 30 -240 50 -240 C73 -240 95 -236 120 -230 C157 -219 190 -195 217 -165 C233 -143 218 -121 209 -102 C202 -86 190 -72 176 -59 L176 -59 Z " />
<glyph glyph-name="ordmasculine" unicode="&#xba;" horiz-adv-x="516" d="M582 515 C570 537 551 547 536 565 C525 581 508 590 492 601 C469 621 439 625 408 625 C375 625 339 606 310 593 C282 579 255 555 233 533 C216 516 201 496 187 475 C173 457 164 439 157 422 C152 406 150 390 145 372 C142 358 139 345 143 332 C145 316 151 299 161 287 C174 274 189 258 207 252 C229 244 248 242 272 245 C319 250 344 256 393 270 C436 285 469 302 506 328 C519 339 540 352 549 367 C565 393 575 422 585 450 C592 469 594 496 582 515 L582 515 Z M382 398 C354 379 311 364 277 364 C294 399 310 430 340 456 C355 469 374 484 394 490 C413 496 435 470 453 468 C440 441 407 413 382 398 L382 398 Z " />
<glyph glyph-name="guillemotright" unicode="&#xbb;" horiz-adv-x="967" d="M991 328 C989 302 970 276 944 263 C876 228 818 190 755 145 C720 119 680 102 642 79 C625 70 612 58 598 47 C567 25 526 -24 481 -12 C465 -8 430 24 422 39 C415 53 414 64 417 75 C421 86 430 95 443 105 C472 127 499 148 530 168 C570 195 612 218 649 246 C680 267 759 312 770 325 C738 358 687 372 659 407 C642 430 631 455 629 482 C629 513 648 531 678 544 C691 550 706 555 723 555 C734 555 745 553 752 547 C770 528 780 499 799 480 C817 458 850 442 877 428 C906 415 933 401 960 387 C972 381 982 379 987 367 C992 356 993 339 991 328 L991 328 Z M531 278 C562 291 577 302 594 332 C603 352 596 385 576 396 C555 406 529 412 507 419 C458 436 435 490 407 528 C391 552 385 558 352 561 C321 564 299 543 285 518 C257 472 300 418 334 387 C348 372 349 372 358 357 C295 314 243 282 179 242 C137 215 124 207 81 177 C62 163 54 106 54 84 C56 56 64 51 91 42 C140 28 182 69 217 95 C289 147 365 193 442 230 C472 245 501 263 531 278 L531 278 Z " />
<glyph glyph-name="questiondown" unicode="&#xbf;" horiz-adv-x="690" d="M543 524 C551 518 623 525 637 526 C665 529 762 583 775 618 C779 626 768 643 763 646 C750 660 687 652 661 653 C653 654 588 633 577 627 C568 623 529 570 525 563 C515 549 531 529 543 524 L543 524 Z M446 334 C256 264 70 167 36 84 C17 38 33 12 42 -3 C104 -129 271 -109 419 -81 C493 -68 620 16 606 94 C601 108 570 119 552 111 C529 100 516 92 496 73 C440 44 316 -10 200 28 C291 117 324 120 418 163 C514 204 533 199 631 271 C668 298 688 358 677 394 C677 394 661 436 624 443 C624 443 579 443 565 429 C546 410 550 402 537 385 C502 347 493 351 446 334 L446 334 Z " />
<glyph glyph-name="Agrave" unicode="&#xc0;" horiz-adv-x="721" d="M629 623 C604 623 553 604 529 592 C499 578 473 559 447 537 C384 486 325 430 269 370 C191 284 125 213 74 121 C57 91 42 73 21 44 C6 22 -17 -10 -18 -34 C-17 -65 42 -77 72 -77 C127 -77 199 35 217 68 C286 77 328 93 398 105 C428 110 488 118 518 120 C516 95 511 68 504 41 C500 19 487 -16 493 -33 C498 -48 515 -67 529 -69 C583 -79 628 -25 643 24 C668 97 694 153 699 227 C703 298 694 398 696 470 C698 532 707 624 629 623 L629 623 Z M436 233 C390 225 367 211 325 211 C364 257 403 299 447 342 C480 374 514 403 542 425 C545 398 545 372 545 338 C545 305 549 279 543 245 C520 247 460 238 436 233 L436 233 Z M686 768 C673 776 659 783 649 792 C641 799 635 806 624 808 C611 811 586 806 576 799 C566 795 561 772 563 763 C566 754 576 745 583 737 C590 728 600 721 610 713 C631 700 673 679 710 670 C726 665 740 663 754 664 C771 667 778 679 782 690 C785 695 785 706 781 711 C777 716 766 720 761 724 C753 729 745 732 739 737 C720 746 704 758 686 768 L686 768 Z " />
<glyph glyph-name="Aacute" unicode="&#xc1;" horiz-adv-x="702" d="M617 623 C592 623 541 604 517 592 C487 578 461 559 435 537 C372 486 313 430 257 370 C179 284 113 213 62 121 C45 91 30 73 9 44 C-6 22 -29 -10 -30 -34 C-29 -65 30 -77 60 -77 C115 -77 187 35 205 68 C274 77 316 93 386 105 C416 110 476 118 506 120 C504 95 499 68 492 41 C488 19 475 -16 481 -33 C486 -48 503 -67 517 -69 C571 -79 616 -25 631 24 C656 97 682 153 687 227 C691 298 682 398 684 470 C686 532 695 624 617 623 L617 623 Z M424 233 C378 225 355 211 313 211 C352 257 391 299 435 342 C468 374 502 403 530 425 C533 398 533 372 533 338 C533 305 537 279 531 245 C508 247 448 238 424 233 L424 233 Z M632 751 C612 744 594 736 571 731 C558 727 534 724 521 715 C520 711 514 700 514 695 C514 683 519 670 533 664 C544 660 561 658 577 659 C612 661 654 670 685 681 C702 687 736 702 749 720 C754 727 756 751 749 757 C739 766 718 776 704 777 C685 776 655 758 632 751 L632 751 Z " />
<glyph glyph-name="Acircumflex" unicode="&#xc2;" horiz-adv-x="708" d="M628 623 C603 623 552 604 528 592 C498 578 472 559 446 537 C383 486 324 430 268 370 C190 284 124 213 73 121 C56 91 41 73 20 44 C5 22 -18 -10 -19 -34 C-18 -65 41 -77 71 -77 C126 -77 198 35 216 68 C285 77 327 93 397 105 C427 110 487 118 517 120 C515 95 510 68 503 41 C499 19 486 -16 492 -33 C497 -48 514 -67 528 -69 C582 -79 627 -25 642 24 C667 97 693 153 698 227 C702 298 693 398 695 470 C697 532 706 624 628 623 L628 623 Z M435 233 C389 225 366 211 324 211 C363 257 402 299 446 342 C479 374 513 403 541 425 C544 398 544 372 544 338 C544 305 548 279 542 245 C519 247 459 238 435 233 L435 233 Z M770 725 C767 733 761 739 755 747 C747 761 742 777 735 792 C731 800 730 815 723 821 C718 828 702 829 694 829 C677 829 668 824 656 817 C643 807 629 799 614 790 C591 776 570 759 546 744 C515 727 486 712 464 686 C456 666 465 658 481 653 C505 644 544 657 565 669 C584 680 600 690 619 702 C633 710 647 725 662 729 C672 719 676 710 684 699 C698 678 714 666 744 662 C750 661 763 668 769 673 C776 679 784 686 785 696 C784 707 775 715 770 725 L770 725 Z " />
<glyph glyph-name="Atilde" unicode="&#xc3;" horiz-adv-x="716" d="M628 623 C603 623 552 604 528 592 C498 578 472 559 446 537 C383 486 324 430 268 370 C190 284 124 213 73 121 C56 91 41 73 20 44 C5 22 -18 -10 -19 -34 C-18 -65 41 -77 71 -77 C126 -77 198 35 216 68 C285 77 327 93 397 105 C427 110 487 118 517 120 C515 95 510 68 503 41 C499 19 486 -16 492 -33 C497 -48 514 -67 528 -69 C582 -79 627 -25 642 24 C667 97 693 153 698 227 C702 298 693 398 695 470 C697 532 706 624 628 623 L628 623 Z M435 233 C389 225 366 211 324 211 C363 257 402 299 446 342 C479 374 513 403 541 425 C544 398 544 372 544 338 C544 305 548 279 542 245 C519 247 459 238 435 233 L435 233 Z M607 838 C578 828 550 811 519 789 C506 781 488 761 484 745 C484 730 500 721 515 716 C531 713 539 718 552 726 C567 736 584 745 603 753 C620 759 636 770 643 755 C650 733 645 708 653 687 C658 675 665 667 679 663 C692 661 703 659 718 661 C761 664 783 670 818 691 C847 708 883 744 894 775 C897 785 899 796 896 804 C895 809 895 813 891 818 C887 823 878 824 873 827 C860 833 851 836 839 828 C829 821 824 810 818 801 C807 788 764 733 743 745 C728 755 731 790 724 809 C722 815 718 819 717 824 C703 853 661 859 633 848 C624 845 617 840 607 838 L607 838 Z " />
<glyph glyph-name="Adieresis" unicode="&#xc4;" horiz-adv-x="702" d="M617 623 C592 623 541 604 517 592 C487 578 461 559 435 537 C372 486 313 430 257 370 C179 284 113 213 62 121 C45 91 30 73 9 44 C-6 22 -29 -10 -30 -34 C-29 -65 30 -77 60 -77 C115 -77 187 35 205 68 C274 77 316 93 386 105 C416 110 476 118 506 120 C504 95 499 68 492 41 C488 19 475 -16 481 -33 C486 -48 503 -67 517 -69 C571 -79 616 -25 631 24 C656 97 682 153 687 227 C691 298 682 398 684 470 C686 532 695 624 617 623 L617 623 Z M424 233 C378 225 355 211 313 211 C352 257 391 299 435 342 C468 374 502 403 530 425 C533 398 533 372 533 338 C533 305 537 279 531 245 C508 247 448 238 424 233 L424 233 Z M543 763 C552 747 554 731 547 714 C544 704 538 694 527 684 C521 678 509 676 500 673 C488 670 476 670 462 669 C454 667 447 666 440 672 C429 685 425 704 425 721 C428 749 470 764 495 770 C504 773 516 774 524 773 C532 773 537 770 543 763 L543 763 Z M753 761 C748 772 732 781 722 787 C708 796 694 789 682 780 C668 772 653 764 638 755 C631 750 626 744 623 734 C619 722 616 702 627 692 C635 684 652 677 664 677 C683 678 704 695 721 705 C741 716 758 749 753 761 L753 761 Z " />
<glyph glyph-name="Aring" unicode="&#xc5;" horiz-adv-x="739" d="M760 718 C756 736 747 753 730 764 C714 776 693 783 672 788 C651 793 630 801 608 798 C582 794 565 777 547 761 C520 741 485 708 490 675 C494 650 507 613 536 602 C537 601 538 601 539 601 L498 582 C468 566 440 538 413 519 C374 488 287 433 254 399 C230 373 202 343 178 316 C158 293 141 267 118 244 C68 190 21 125 2 69 C-8 38 -18 -15 9 -42 C20 -56 56 -51 70 -42 C107 -22 156 24 174 51 C186 68 197 88 210 106 C238 111 233 115 262 121 C312 131 400 150 452 155 C479 158 502 159 522 159 L516 118 C514 105 512 92 510 80 C509 62 502 12 506 -5 C510 -19 537 -48 552 -56 C566 -63 587 -52 599 -42 C615 -29 630 -17 637 0 C646 19 652 64 659 85 C674 128 675 178 678 217 C680 244 678 272 682 299 C687 348 691 396 697 446 C702 467 705 485 706 507 C706 524 705 545 701 562 C696 581 683 605 663 619 L679 627 C706 639 729 652 748 674 C761 686 761 701 760 718 L760 718 Z M506 269 C494 270 483 271 471 271 C446 271 419 268 393 264 C371 261 344 251 321 249 C355 295 382 316 430 355 C469 386 501 407 549 429 C551 382 549 304 535 265 C519 267 521 269 506 269 L506 269 Z M634 679 C614 673 596 676 577 675 C580 686 582 693 591 702 C601 709 612 716 620 725 C639 721 658 713 673 704 C661 695 650 684 634 679 L634 679 Z " />
<glyph glyph-name="AE" unicode="&#xc6;" horiz-adv-x="1162" d="M1255 559 C1203 583 1132 584 1072 585 C1026 585 887 581 838 575 C810 570 780 564 751 559 C746 573 738 585 724 596 C711 606 691 608 672 608 C656 608 637 606 623 604 C538 589 450 536 384 488 C271 404 168 315 92 198 C67 158 42 119 23 74 C11 47 -1 18 13 -11 C26 -39 98 -46 127 -41 C163 -35 182 7 194 34 C206 58 219 82 233 104 C270 115 283 124 318 132 C384 147 446 155 498 155 C490 136 480 116 473 97 C468 78 454 56 447 34 C440 16 438 -2 448 -19 C455 -32 475 -44 491 -48 C499 -52 510 -53 522 -53 C542 -53 564 -49 577 -42 C630 -17 701 -10 754 -1 C834 13 876 23 968 36 C988 39 1012 36 1026 51 C1042 64 1056 86 1049 104 C1036 144 971 145 931 144 C876 143 785 124 729 118 C693 113 686 103 644 96 C644 106 646 117 649 128 C659 154 677 182 689 204 C723 216 722 222 755 229 C814 242 925 255 985 253 C1004 253 1021 251 1038 246 C1055 242 1079 241 1094 248 C1112 257 1127 270 1140 285 C1151 297 1157 305 1151 321 C1135 350 1082 355 1050 358 C1012 361 967 362 924 362 C894 362 869 356 842 354 C803 351 765 334 729 327 C730 338 731 350 734 361 C740 379 764 432 764 432 C764 432 784 439 804 445 C865 464 992 457 1057 462 C1071 463 1088 464 1103 464 C1114 464 1124 463 1135 463 C1159 462 1187 459 1209 459 C1229 461 1252 493 1259 509 C1272 531 1279 547 1255 559 L1255 559 Z M546 279 C509 284 476 276 436 274 C413 273 391 272 369 269 C442 342 510 398 604 444 C599 426 595 424 590 409 C581 384 571 360 563 337 C557 318 551 300 546 279 L546 279 Z " />
<glyph glyph-name="Ccedilla" unicode="&#xc7;" horiz-adv-x="755" d="M802 457 C821 491 814 544 795 576 C788 585 778 596 766 605 C754 612 745 617 735 621 C710 632 679 638 647 633 C507 611 338 525 238 417 C193 368 161 336 125 285 C94 238 75 204 63 168 C57 154 54 141 50 126 C44 99 53 58 63 36 C95 -32 190 -51 286 -50 C290 -50 296 -50 301 -48 C312 -56 321 -64 330 -73 L351 -101 L306 -101 C286 -98 258 -93 235 -98 C215 -104 185 -126 173 -144 C159 -166 198 -182 221 -189 C241 -195 258 -198 278 -198 C300 -198 323 -194 348 -188 C387 -177 419 -153 444 -122 C461 -101 447 -79 438 -59 C433 -50 429 -40 420 -33 C440 -28 459 -24 474 -19 C514 -6 610 36 649 58 C671 70 708 93 716 112 C727 136 708 175 682 176 C653 177 636 173 607 160 C541 131 398 88 328 88 C314 88 300 88 287 91 C274 93 254 101 251 110 C243 123 245 139 252 156 C257 173 267 191 277 207 C320 275 338 290 399 352 C451 404 510 455 579 486 C604 498 628 501 648 498 C670 487 687 467 700 444 C711 423 724 415 751 422 C769 427 793 442 802 457 L802 457 Z " />
<glyph glyph-name="Egrave" unicode="&#xc8;" horiz-adv-x="713" d="M838 554 C815 507 794 498 767 498 C751 498 735 501 713 502 C686 503 659 502 632 498 C545 496 423 498 344 462 C326 422 314 391 306 349 C319 353 332 358 346 363 C408 386 464 390 527 390 C561 390 595 388 623 385 C656 382 707 378 721 345 C727 330 719 321 711 307 C697 291 681 276 663 267 C649 257 625 258 607 263 C590 268 574 270 554 270 C494 270 408 260 348 244 C313 234 297 229 263 215 C244 178 213 137 213 96 C310 119 402 146 496 150 C537 153 601 152 613 108 C620 88 605 64 588 50 C573 34 548 35 529 33 C438 17 394 5 315 -11 C263 -22 190 -30 137 -59 C123 -67 100 -73 79 -73 C68 -73 58 -71 50 -68 C36 -62 18 -48 10 -36 C0 -18 2 2 9 23 C18 46 33 70 40 91 C55 141 86 188 103 239 C119 284 125 330 139 376 C141 386 144 397 147 407 C157 434 170 460 185 485 C201 514 215 550 241 575 C253 588 271 587 286 590 C331 599 375 610 420 618 C469 627 607 633 654 633 C713 634 784 633 834 607 C858 595 850 577 838 554 L838 554 Z M602 786 C589 794 575 801 565 810 C557 817 551 824 540 826 C527 829 502 824 492 817 C482 813 477 790 479 781 C482 772 492 763 499 755 C506 746 516 739 526 731 C547 718 589 697 626 688 C642 683 656 681 670 682 C687 685 694 697 698 708 C701 713 701 724 697 729 C693 734 682 738 677 742 C669 747 661 750 655 755 C636 764 620 776 602 786 L602 786 Z " />
<glyph glyph-name="Eacute" unicode="&#xc9;" horiz-adv-x="713" d="M838 554 C850 577 858 595 834 607 C784 633 713 634 654 633 C607 633 469 627 420 618 C375 610 331 599 286 590 C271 587 253 588 241 575 C215 550 201 514 185 485 C170 460 157 434 147 407 C144 397 141 386 139 376 C125 330 119 284 103 239 C86 188 55 141 40 91 C33 70 18 46 9 23 C2 2 0 -18 10 -36 C18 -48 36 -62 50 -68 C58 -71 68 -73 79 -73 C100 -73 123 -67 137 -59 C190 -30 263 -22 315 -11 C394 5 438 17 529 33 C548 35 573 34 588 50 C605 64 620 88 613 108 C601 152 537 153 496 150 C402 146 310 119 213 96 C213 137 244 178 263 215 C297 229 313 234 348 244 C408 260 494 270 554 270 C574 270 590 268 607 263 C625 258 649 257 663 267 C681 276 697 291 711 307 C719 321 727 330 721 345 C707 378 656 382 623 385 C595 388 561 390 527 390 C464 390 408 386 346 363 C332 358 319 353 306 349 C314 391 326 422 344 462 C423 498 545 496 632 498 C659 502 686 503 713 502 C735 501 751 498 767 498 C794 498 815 507 838 554 L838 554 Z M650 779 C630 772 612 764 589 759 C576 755 552 752 539 743 C538 739 532 728 532 723 C532 711 537 698 551 692 C562 688 579 686 595 687 C630 689 672 698 703 709 C720 715 754 730 767 748 C772 755 774 779 767 785 C757 794 736 804 722 805 C703 804 673 786 650 779 L650 779 Z " />
<glyph glyph-name="Ecircumflex" unicode="&#xca;" horiz-adv-x="713" d="M838 554 C815 507 794 498 767 498 C751 498 735 501 713 502 C686 503 659 502 632 498 C545 496 423 498 344 462 C326 422 314 391 306 349 C319 353 332 358 346 363 C408 386 464 390 527 390 C561 390 595 388 623 385 C656 382 707 378 721 345 C727 330 719 321 711 307 C697 291 681 276 663 267 C649 257 625 258 607 263 C590 268 574 270 554 270 C494 270 408 260 348 244 C313 234 297 229 263 215 C244 178 213 137 213 96 C310 119 402 146 496 150 C537 153 601 152 613 108 C620 88 605 64 588 50 C573 34 548 35 529 33 C438 17 394 5 315 -11 C263 -22 190 -30 137 -59 C123 -67 100 -73 79 -73 C68 -73 58 -71 50 -68 C36 -62 18 -48 10 -36 C0 -18 2 2 9 23 C18 46 33 70 40 91 C55 141 86 188 103 239 C119 284 125 330 139 376 C141 386 144 397 147 407 C157 434 170 460 185 485 C201 514 215 550 241 575 C253 588 271 587 286 590 C331 599 375 610 420 618 C469 627 607 633 654 633 C713 634 784 633 834 607 C858 595 850 577 838 554 L838 554 Z M754 756 C751 764 745 770 739 778 C731 792 726 808 719 823 C715 831 714 846 707 852 C702 859 686 860 678 860 C661 860 652 855 640 848 C627 838 613 830 598 821 C575 807 554 790 530 775 C499 758 470 743 448 717 C440 697 449 689 465 684 C489 675 528 688 549 700 C568 711 584 721 603 733 C617 741 631 756 646 760 C656 750 660 741 668 730 C682 709 698 697 728 693 C734 692 747 699 753 704 C760 710 768 717 769 727 C768 738 759 746 754 756 L754 756 Z " />
<glyph glyph-name="Edieresis" unicode="&#xcb;" horiz-adv-x="713" d="M838 554 C815 507 794 498 767 498 C751 498 735 501 713 502 C686 503 659 502 632 498 C545 496 423 498 344 462 C326 422 314 391 306 349 C319 353 332 358 346 363 C408 386 464 390 527 390 C561 390 595 388 623 385 C656 382 707 378 721 345 C727 330 719 321 711 307 C697 291 681 276 663 267 C649 257 625 258 607 263 C590 268 574 270 554 270 C494 270 408 260 348 244 C313 234 297 229 263 215 C244 178 213 137 213 96 C310 119 402 146 496 150 C537 153 601 152 613 108 C620 88 605 64 588 50 C573 34 548 35 529 33 C438 17 394 5 315 -11 C263 -22 190 -30 137 -59 C123 -67 100 -73 79 -73 C68 -73 58 -71 50 -68 C36 -62 18 -48 10 -36 C0 -18 2 2 9 23 C18 46 33 70 40 91 C55 141 86 188 103 239 C119 284 125 330 139 376 C141 386 144 397 147 407 C157 434 170 460 185 485 C201 514 215 550 241 575 C253 588 271 587 286 590 C331 599 375 610 420 618 C469 627 607 633 654 633 C713 634 784 633 834 607 C858 595 850 577 838 554 L838 554 Z M571 774 C580 758 582 742 575 725 C572 715 566 705 555 695 C549 689 537 687 528 684 C516 681 504 681 490 680 C482 678 475 677 468 683 C457 696 453 715 453 732 C456 760 498 775 523 781 C532 784 544 785 552 784 C560 784 565 781 571 774 L571 774 Z M781 772 C776 783 760 792 750 798 C736 807 722 800 710 791 C696 783 681 775 666 766 C659 761 654 755 651 745 C647 733 644 713 655 703 C663 695 680 688 692 688 C711 689 732 706 749 716 C769 727 786 760 781 772 L781 772 Z " />
<glyph glyph-name="Igrave" unicode="&#xcc;" horiz-adv-x="696" d="M817 547 C816 530 788 504 771 495 C747 480 714 475 686 472 C634 465 592 461 538 457 C532 423 526 392 510 359 C492 315 471 274 452 230 C443 208 430 187 421 164 C416 147 409 128 400 110 C432 112 453 118 486 118 C503 118 517 116 532 113 C552 109 573 104 587 91 C598 80 618 52 612 36 C606 19 584 4 569 0 C554 -4 538 -2 526 -2 C496 -5 468 -6 439 -8 C383 -13 326 -17 269 -30 C238 -38 208 -46 178 -53 C153 -58 116 -68 80 -68 C56 -68 35 -63 22 -48 C12 -38 -2 -18 -2 -1 C-1 16 21 34 33 45 C42 52 48 55 59 57 C84 63 110 67 134 72 C169 79 190 84 225 88 C235 133 267 179 286 222 C296 246 301 270 308 295 C315 320 326 345 335 371 C344 396 357 422 368 447 C340 445 329 444 300 444 C280 444 261 445 242 446 C227 448 219 447 211 458 C201 469 197 484 194 497 C188 519 208 538 227 552 C245 562 273 566 293 565 C313 565 335 566 355 567 C381 567 406 568 432 570 C496 572 558 587 620 593 C638 594 658 595 680 595 C714 595 750 593 781 587 C796 583 820 564 817 547 L817 547 Z M537 744 C524 752 510 759 500 768 C492 775 486 782 475 784 C462 787 437 782 427 775 C417 771 412 748 414 739 C417 730 427 721 434 713 C441 704 451 697 461 689 C482 676 524 655 561 646 C577 641 591 639 605 640 C622 643 629 655 633 666 C636 671 636 682 632 687 C628 692 617 696 612 700 C604 705 596 708 590 713 C571 722 555 734 537 744 L537 744 Z " />
<glyph glyph-name="Iacute" unicode="&#xcd;" horiz-adv-x="696" d="M817 547 C820 564 796 583 781 587 C750 593 714 595 680 595 C658 595 638 594 620 593 C558 587 496 572 432 570 C406 568 381 567 355 567 C335 566 313 565 293 565 C273 566 245 562 227 552 C208 538 188 519 194 497 C197 484 201 469 211 458 C219 447 227 448 242 446 C261 445 280 444 300 444 C329 444 340 445 368 447 C357 422 344 396 335 371 C326 345 315 320 308 295 C301 270 296 246 286 222 C267 179 235 133 225 88 C190 84 169 79 134 72 C110 67 84 63 59 57 C48 55 42 52 33 45 C21 34 -1 16 -2 -1 C-2 -18 12 -38 22 -48 C35 -63 56 -68 80 -68 C116 -68 153 -58 178 -53 C208 -46 238 -38 269 -30 C326 -17 383 -13 439 -8 C468 -6 496 -5 526 -2 C538 -2 554 -4 569 0 C584 4 606 19 612 36 C618 52 598 80 587 91 C573 104 552 109 532 113 C517 116 503 118 486 118 C453 118 432 112 400 110 C409 128 416 147 421 164 C430 187 443 208 452 230 C471 274 492 315 510 359 C526 392 532 423 538 457 C592 461 634 465 686 472 C714 475 747 480 771 495 C788 504 816 530 817 547 L817 547 Z M585 722 C565 715 547 707 524 702 C511 698 487 695 474 686 C473 682 467 671 467 666 C467 654 472 641 486 635 C497 631 514 629 530 630 C565 632 607 641 638 652 C655 658 689 673 702 691 C707 698 709 722 702 728 C692 737 671 747 657 748 C638 747 608 729 585 722 L585 722 Z " />
<glyph glyph-name="Icircumflex" unicode="&#xce;" horiz-adv-x="696" d="M817 547 C816 530 788 504 771 495 C747 480 714 475 686 472 C634 465 592 461 538 457 C532 423 526 392 510 359 C492 315 471 274 452 230 C443 208 430 187 421 164 C416 147 409 128 400 110 C432 112 453 118 486 118 C503 118 517 116 532 113 C552 109 573 104 587 91 C598 80 618 52 612 36 C606 19 584 4 569 0 C554 -4 538 -2 526 -2 C496 -5 468 -6 439 -8 C383 -13 326 -17 269 -30 C238 -38 208 -46 178 -53 C153 -58 116 -68 80 -68 C56 -68 35 -63 22 -48 C12 -38 -2 -18 -2 -1 C-1 16 21 34 33 45 C42 52 48 55 59 57 C84 63 110 67 134 72 C169 79 190 84 225 88 C235 133 267 179 286 222 C296 246 301 270 308 295 C315 320 326 345 335 371 C344 396 357 422 368 447 C340 445 329 444 300 444 C280 444 261 445 242 446 C227 448 219 447 211 458 C201 469 197 484 194 497 C188 519 208 538 227 552 C245 562 273 566 293 565 C313 565 335 566 355 567 C381 567 406 568 432 570 C496 572 558 587 620 593 C638 594 658 595 680 595 C714 595 750 593 781 587 C796 583 820 564 817 547 L817 547 Z M691 704 C688 712 682 718 676 726 C668 740 663 756 656 771 C652 779 651 794 644 800 C639 807 623 808 615 808 C598 808 589 803 577 796 C564 786 550 778 535 769 C512 755 491 738 467 723 C436 706 407 691 385 665 C377 645 386 637 402 632 C426 623 465 636 486 648 C505 659 521 669 540 681 C554 689 568 704 583 708 C593 698 597 689 605 678 C619 657 635 645 665 641 C671 640 684 647 690 652 C697 658 705 665 706 675 C705 686 696 694 691 704 L691 704 Z " />
<glyph glyph-name="Idieresis" unicode="&#xcf;" horiz-adv-x="696" d="M817 547 C816 530 788 504 771 495 C747 480 714 475 686 472 C634 465 592 461 538 457 C532 423 526 392 510 359 C492 315 471 274 452 230 C443 208 430 187 421 164 C416 147 409 128 400 110 C432 112 453 118 486 118 C503 118 517 116 532 113 C552 109 573 104 587 91 C598 80 618 52 612 36 C606 19 584 4 569 0 C554 -4 538 -2 526 -2 C496 -5 468 -6 439 -8 C383 -13 326 -17 269 -30 C238 -38 208 -46 178 -53 C153 -58 116 -68 80 -68 C56 -68 35 -63 22 -48 C12 -38 -2 -18 -2 -1 C-1 16 21 34 33 45 C42 52 48 55 59 57 C84 63 110 67 134 72 C169 79 190 84 225 88 C235 133 267 179 286 222 C296 246 301 270 308 295 C315 320 326 345 335 371 C344 396 357 422 368 447 C340 445 329 444 300 444 C280 444 261 445 242 446 C227 448 219 447 211 458 C201 469 197 484 194 497 C188 519 208 538 227 552 C245 562 273 566 293 565 C313 565 335 566 355 567 C381 567 406 568 432 570 C496 572 558 587 620 593 C638 594 658 595 680 595 C714 595 750 593 781 587 C796 583 820 564 817 547 L817 547 Z M506 728 C515 712 517 696 510 679 C507 669 501 659 490 649 C484 643 472 641 463 638 C451 635 439 635 425 634 C417 632 410 631 403 637 C392 650 388 669 388 686 C391 714 433 729 458 735 C467 738 479 739 487 738 C495 738 500 735 506 728 L506 728 Z M716 726 C711 737 695 746 685 752 C671 761 657 754 645 745 C631 737 616 729 601 720 C594 715 589 709 586 699 C582 687 579 667 590 657 C598 649 615 642 627 642 C646 643 667 660 684 670 C704 681 721 714 716 726 L716 726 Z " />
<glyph glyph-name="Eth" unicode="&#xd0;" horiz-adv-x="773" d="M847 478 C822 537 721 590 657 610 C626 618 593 622 559 622 C518 622 476 617 440 611 C410 606 378 599 349 590 C291 575 283 508 261 465 C248 442 235 421 226 398 C220 387 217 377 212 366 C199 365 186 362 173 359 C143 350 118 349 96 321 C88 313 88 305 86 296 C84 284 81 268 84 257 C87 245 94 246 103 244 C114 242 128 241 140 241 C153 241 165 242 176 246 C161 201 139 156 123 112 C116 90 110 69 106 47 C101 27 88 -5 98 -24 C107 -40 143 -56 162 -56 C223 -59 264 -35 312 -7 C342 10 375 25 404 39 C454 61 503 74 544 104 C587 133 634 161 673 193 C712 223 752 259 779 296 C802 327 831 366 839 402 C846 424 855 458 847 478 L847 478 Z M668 389 C654 356 635 335 607 309 C562 264 508 235 450 202 C416 184 380 167 345 149 C320 137 293 117 293 117 C293 117 307 162 313 173 C324 203 336 232 349 261 C389 262 421 261 454 270 C474 276 484 285 494 308 C501 328 507 352 490 364 C474 375 475 385 457 388 C439 392 420 392 402 391 C411 414 420 437 428 460 C433 471 431 472 445 477 C456 482 453 480 465 481 C477 482 492 484 505 484 C518 484 529 482 542 482 C591 480 637 465 682 456 C687 435 674 408 668 389 L668 389 Z " />
<glyph glyph-name="Ntilde" unicode="&#xd1;" horiz-adv-x="671" d="M127 297 C94 229 69 160 36 95 C21 62 13 21 13 -13 C13 -40 18 -61 47 -74 C61 -81 69 -82 81 -78 C95 -73 126 -69 136 -63 C150 -57 157 -45 161 -33 C165 -22 166 -11 170 -2 C176 23 188 47 200 72 C224 135 243 172 271 234 C299 183 319 119 345 67 C359 41 366 16 381 -8 C392 -28 426 -42 448 -50 C481 -58 503 -42 527 -25 C551 -7 558 8 566 33 C574 57 588 81 598 105 C612 142 623 177 636 212 C661 288 696 362 727 438 C735 457 744 475 750 493 C755 507 759 521 760 536 C762 555 760 594 747 610 C734 625 669 654 648 644 C640 640 623 621 616 614 C607 603 605 596 602 583 C594 543 582 500 568 459 C531 365 491 266 453 169 C424 201 385 325 378 367 C374 395 367 424 367 452 C365 476 355 501 351 525 C346 550 345 566 310 575 C280 581 267 578 241 561 C223 550 217 537 211 522 C208 512 205 501 201 490 C189 457 178 423 166 390 C156 360 142 327 127 297 L127 297 Z M413 821 C384 811 356 794 325 772 C312 764 294 744 290 728 C290 713 306 704 321 699 C337 696 345 701 358 709 C373 719 390 728 409 736 C426 742 442 753 449 738 C456 716 451 691 459 670 C464 658 471 650 485 646 C498 644 509 642 524 644 C567 647 589 653 624 674 C653 691 689 727 700 758 C703 768 705 779 702 787 C701 792 701 796 697 801 C693 806 684 807 679 810 C666 816 657 819 645 811 C635 804 630 793 624 784 C613 771 570 716 549 728 C534 738 537 773 530 792 C528 798 524 802 523 807 C509 836 467 842 439 831 C430 828 423 823 413 821 L413 821 Z " />
<glyph glyph-name="Ograve" unicode="&#xd2;" horiz-adv-x="880" d="M678 601 C663 604 645 605 628 605 C598 605 568 600 538 590 C493 576 447 570 404 552 C349 530 291 505 246 464 C187 408 116 342 87 264 C84 252 80 240 77 227 C71 181 74 136 86 93 C105 27 161 -30 228 -56 C245 -62 262 -64 278 -64 C363 -64 471 -36 550 1 C629 38 686 99 750 155 C814 210 889 279 919 355 C975 503 796 588 678 601 L678 601 Z M599 199 C582 185 564 167 547 154 C504 124 455 102 407 85 C386 78 374 74 357 74 C319 74 306 91 274 122 C252 143 225 205 254 240 C262 252 292 283 301 294 C361 359 403 401 484 434 C531 452 559 462 607 462 C635 462 661 458 688 452 C733 444 750 417 747 379 C701 307 656 242 599 199 L599 199 Z M680 753 C667 761 653 768 643 777 C635 784 629 791 618 793 C605 796 580 791 570 784 C560 780 555 757 557 748 C560 739 570 730 577 722 C584 713 594 706 604 698 C625 685 667 664 704 655 C720 650 734 648 748 649 C765 652 772 664 776 675 C779 680 779 691 775 696 C771 701 760 705 755 709 C747 714 739 717 733 722 C714 731 698 743 680 753 L680 753 Z " />
<glyph glyph-name="Oacute" unicode="&#xd3;" horiz-adv-x="880" d="M678 601 C663 604 645 605 628 605 C598 605 568 600 538 590 C493 576 447 570 404 552 C349 530 291 505 246 464 C187 408 116 342 87 264 C84 252 80 240 77 227 C71 181 74 136 86 93 C105 27 161 -30 228 -56 C245 -62 262 -64 278 -64 C363 -64 471 -36 550 1 C629 38 686 99 750 155 C814 210 889 279 919 355 C975 503 796 588 678 601 L678 601 Z M599 199 C582 185 564 167 547 154 C504 124 455 102 407 85 C386 78 374 74 357 74 C319 74 306 91 274 122 C252 143 225 205 254 240 C262 252 292 283 301 294 C361 359 403 401 484 434 C531 452 559 462 607 462 C635 462 661 458 688 452 C733 444 750 417 747 379 C701 307 656 242 599 199 L599 199 Z M709 745 C689 738 671 730 648 725 C635 721 611 718 598 709 C597 705 591 694 591 689 C591 677 596 664 610 658 C621 654 638 652 654 653 C689 655 731 664 762 675 C779 681 813 696 826 714 C831 721 833 745 826 751 C816 760 795 770 781 771 C762 770 732 752 709 745 L709 745 Z " />
<glyph glyph-name="Ocircumflex" unicode="&#xd4;" horiz-adv-x="880" d="M678 601 C663 604 645 605 628 605 C598 605 568 600 538 590 C493 576 447 570 404 552 C349 530 291 505 246 464 C187 408 116 342 87 264 C84 252 80 240 77 227 C71 181 74 136 86 93 C105 27 161 -30 228 -56 C245 -62 262 -64 278 -64 C363 -64 471 -36 550 1 C629 38 686 99 750 155 C814 210 889 279 919 355 C975 503 796 588 678 601 L678 601 Z M599 199 C582 185 564 167 547 154 C504 124 455 102 407 85 C386 78 374 74 357 74 C319 74 306 91 274 122 C252 143 225 205 254 240 C262 252 292 283 301 294 C361 359 403 401 484 434 C531 452 559 462 607 462 C635 462 661 458 688 452 C733 444 750 417 747 379 C701 307 656 242 599 199 L599 199 Z M804 715 C801 723 795 729 789 737 C781 751 776 767 769 782 C765 790 764 805 757 811 C752 818 736 819 728 819 C711 819 702 814 690 807 C677 797 663 789 648 780 C625 766 604 749 580 734 C549 717 520 702 498 676 C490 656 499 648 515 643 C539 634 578 647 599 659 C618 670 634 680 653 692 C667 700 681 715 696 719 C706 709 710 700 718 689 C732 668 748 656 778 652 C784 651 797 658 803 663 C810 669 818 676 819 686 C818 697 809 705 804 715 L804 715 Z " />
<glyph glyph-name="Otilde" unicode="&#xd5;" horiz-adv-x="880" d="M678 601 C663 604 645 605 628 605 C598 605 568 600 538 590 C493 576 447 570 404 552 C349 530 291 505 246 464 C187 408 116 342 87 264 C84 252 80 240 77 227 C71 181 74 136 86 93 C105 27 161 -30 228 -56 C245 -62 262 -64 278 -64 C363 -64 471 -36 550 1 C629 38 686 99 750 155 C814 210 889 279 919 355 C975 503 796 588 678 601 L678 601 Z M599 199 C582 185 564 167 547 154 C504 124 455 102 407 85 C386 78 374 74 357 74 C319 74 306 91 274 122 C252 143 225 205 254 240 C262 252 292 283 301 294 C361 359 403 401 484 434 C531 452 559 462 607 462 C635 462 661 458 688 452 C733 444 750 417 747 379 C701 307 656 242 599 199 L599 199 Z M644 815 C615 805 587 788 556 766 C543 758 525 738 521 722 C521 707 537 698 552 693 C568 690 576 695 589 703 C604 713 621 722 640 730 C657 736 673 747 680 732 C687 710 682 685 690 664 C695 652 702 644 716 640 C729 638 740 636 755 638 C798 641 820 647 855 668 C884 685 920 721 931 752 C934 762 936 773 933 781 C932 786 932 790 928 795 C924 800 915 801 910 804 C897 810 888 813 876 805 C866 798 861 787 855 778 C844 765 801 710 780 722 C765 732 768 767 761 786 C759 792 755 796 754 801 C740 830 698 836 670 825 C661 822 654 817 644 815 L644 815 Z " />
<glyph glyph-name="Odieresis" unicode="&#xd6;" horiz-adv-x="880" d="M678 601 C663 604 645 605 628 605 C598 605 568 600 538 590 C493 576 447 570 404 552 C349 530 291 505 246 464 C187 408 116 342 87 264 C84 252 80 240 77 227 C71 181 74 136 86 93 C105 27 161 -30 228 -56 C245 -62 262 -64 278 -64 C363 -64 471 -36 550 1 C629 38 686 99 750 155 C814 210 889 279 919 355 C975 503 796 588 678 601 L678 601 Z M599 199 C582 185 564 167 547 154 C504 124 455 102 407 85 C386 78 374 74 357 74 C319 74 306 91 274 122 C252 143 225 205 254 240 C262 252 292 283 301 294 C361 359 403 401 484 434 C531 452 559 462 607 462 C635 462 661 458 688 452 C733 444 750 417 747 379 C701 307 656 242 599 199 L599 199 Z M638 739 C647 723 649 707 642 690 C639 680 633 670 622 660 C616 654 604 652 595 649 C583 646 571 646 557 645 C549 643 542 642 535 648 C524 661 520 680 520 697 C523 725 565 740 590 746 C599 749 611 750 619 749 C627 749 632 746 638 739 L638 739 Z M848 737 C843 748 827 757 817 763 C803 772 789 765 777 756 C763 748 748 740 733 731 C726 726 721 720 718 710 C714 698 711 678 722 668 C730 660 747 653 759 653 C778 654 799 671 816 681 C836 692 853 725 848 737 L848 737 Z " />
<glyph glyph-name="multiply" unicode="&#xd7;" horiz-adv-x="451" d="M494 348 C497 366 501 402 491 421 C484 431 470 434 455 434 C442 434 430 432 422 430 C405 428 389 417 375 408 C356 398 338 387 317 376 C313 387 309 396 302 407 C287 434 282 458 245 472 C238 476 229 476 218 475 C206 474 187 472 176 465 C158 457 164 428 166 416 C168 406 175 396 178 387 C186 365 196 344 201 322 C195 318 187 314 178 309 C151 293 122 278 95 258 C79 246 54 233 56 206 C56 194 58 171 64 162 C78 145 113 139 131 143 C146 147 161 156 173 164 C194 175 216 185 237 195 C245 166 255 135 266 114 C276 98 287 91 313 88 C338 86 363 86 373 107 C378 125 384 144 384 162 C385 195 373 225 361 256 C384 267 407 279 428 291 C451 303 485 319 494 348 L494 348 Z " />
<glyph glyph-name="Oslash" unicode="&#xd8;" horiz-adv-x="823" d="M806 526 C816 533 825 541 835 548 C847 558 867 567 877 581 C884 593 883 610 883 625 C882 641 882 648 867 655 C810 675 763 629 724 595 C716 589 708 583 702 576 C675 584 650 589 627 592 C614 593 602 594 588 594 C558 594 525 589 496 579 C455 565 411 559 370 541 C321 519 269 496 230 456 C179 406 118 345 94 278 C88 263 86 247 84 232 C80 188 86 147 99 107 C106 90 116 78 125 64 C103 46 85 27 73 6 C64 -12 47 -61 64 -75 C80 -91 128 -75 145 -64 C168 -48 182 -25 202 -11 C217 -18 228 -25 243 -30 C260 -35 273 -38 287 -38 C304 -38 320 -35 340 -30 C410 -13 475 -6 542 28 C613 63 664 121 721 175 C777 227 844 292 868 365 C890 434 858 487 806 526 L806 526 Z M226 246 C233 258 244 267 254 278 C307 341 365 390 441 421 C479 436 516 446 555 448 C485 390 421 328 354 268 C323 240 289 215 260 185 C251 178 243 170 234 161 C227 177 224 194 222 210 C219 225 219 234 226 246 L226 246 Z M632 265 C604 232 563 198 529 171 C491 142 448 120 402 104 C375 95 352 91 332 95 C384 138 433 183 479 233 C535 292 593 343 659 394 C671 404 682 415 694 424 C706 416 727 400 725 384 C726 367 646 282 632 265 L632 265 Z " />
<glyph glyph-name="Ugrave" unicode="&#xd9;" horiz-adv-x="649" d="M183 467 C173 450 168 433 161 415 C145 382 133 347 121 313 C105 268 75 202 61 162 C54 142 47 122 45 104 C37 56 25 15 48 -29 C57 -45 71 -57 89 -67 C103 -74 142 -79 161 -75 C272 -67 419 -62 531 -17 C551 -2 585 86 591 107 C624 233 673 390 712 514 C723 548 758 616 694 624 C674 627 597 618 581 605 C563 589 551 555 540 535 C535 525 532 515 528 505 C512 462 502 417 488 373 C475 322 446 218 433 167 C415 104 372 67 322 67 C305 67 289 68 273 68 C256 68 237 67 219 63 C232 120 257 198 275 253 C286 282 297 312 310 341 C327 381 338 422 363 458 C375 472 381 486 386 499 C394 524 394 548 377 572 C365 589 311 589 291 592 C258 596 237 572 224 548 C210 522 195 495 183 467 L183 467 Z M433 714 C420 722 406 729 396 738 C388 745 382 752 371 754 C358 757 333 752 323 745 C313 741 308 718 310 709 C313 700 323 691 330 683 C337 674 347 667 357 659 C378 646 420 625 457 616 C473 611 487 609 501 610 C518 613 525 625 529 636 C532 641 532 652 528 657 C524 662 513 666 508 670 C500 675 492 678 486 683 C467 692 451 704 433 714 L433 714 Z " />
<glyph glyph-name="Uacute" unicode="&#xda;" horiz-adv-x="648" d="M183 467 C173 450 168 433 161 415 C145 382 133 347 121 313 C105 268 75 202 61 162 C54 142 47 122 45 104 C37 56 25 15 48 -29 C57 -45 71 -57 89 -67 C103 -74 142 -79 161 -75 C272 -67 419 -62 531 -17 C551 -2 585 86 591 107 C624 233 673 390 712 514 C723 548 758 616 694 624 C674 627 597 618 581 605 C563 589 551 555 540 535 C535 525 532 515 528 505 C512 462 502 417 488 373 C475 322 446 218 433 167 C415 104 372 67 322 67 C305 67 289 68 273 68 C256 68 237 67 219 63 C232 120 257 198 275 253 C286 282 297 312 310 341 C327 381 338 422 363 458 C375 472 381 486 386 499 C394 524 394 548 377 572 C365 589 311 589 291 592 C258 596 237 572 224 548 C210 522 195 495 183 467 L183 467 Z M523 722 C503 715 485 707 462 702 C449 698 425 695 412 686 C411 682 405 671 405 666 C405 654 410 641 424 635 C435 631 452 629 468 630 C503 632 545 641 576 652 C593 658 627 673 640 691 C645 698 647 722 640 728 C630 737 609 747 595 748 C576 747 546 729 523 722 L523 722 Z " />
<glyph glyph-name="Ucircumflex" unicode="&#xdb;" horiz-adv-x="648" d="M183 467 C173 450 168 433 161 415 C145 382 133 347 121 313 C105 268 75 202 61 162 C54 142 47 122 45 104 C37 56 25 15 48 -29 C57 -45 71 -57 89 -67 C103 -74 142 -79 161 -75 C272 -67 419 -62 531 -17 C551 -2 585 86 591 107 C624 233 673 390 712 514 C723 548 758 616 694 624 C674 627 597 618 581 605 C563 589 551 555 540 535 C535 525 532 515 528 505 C512 462 502 417 488 373 C475 322 446 218 433 167 C415 104 372 67 322 67 C305 67 289 68 273 68 C256 68 237 67 219 63 C232 120 257 198 275 253 C286 282 297 312 310 341 C327 381 338 422 363 458 C375 472 381 486 386 499 C394 524 394 548 377 572 C365 589 311 589 291 592 C258 596 237 572 224 548 C210 522 195 495 183 467 L183 467 Z M672 729 C669 737 663 743 657 751 C649 765 644 781 637 796 C633 804 632 819 625 825 C620 832 604 833 596 833 C579 833 570 828 558 821 C545 811 531 803 516 794 C493 780 472 763 448 748 C417 731 388 716 366 690 C358 670 367 662 383 657 C407 648 446 661 467 673 C486 684 502 694 521 706 C535 714 549 729 564 733 C574 723 578 714 586 703 C600 682 616 670 646 666 C652 665 665 672 671 677 C678 683 686 690 687 700 C686 711 677 719 672 729 L672 729 Z " />
<glyph glyph-name="Udieresis" unicode="&#xdc;" horiz-adv-x="649" d="M183 467 C173 450 168 433 161 415 C145 382 133 347 121 313 C105 268 75 202 61 162 C54 142 47 122 45 104 C37 56 25 15 48 -29 C57 -45 71 -57 89 -67 C103 -74 142 -79 161 -75 C272 -67 419 -62 531 -17 C551 -2 585 86 591 107 C624 233 673 390 712 514 C723 548 758 616 694 624 C674 627 597 618 581 605 C563 589 551 555 540 535 C535 525 532 515 528 505 C512 462 502 417 488 373 C475 322 446 218 433 167 C415 104 372 67 322 67 C305 67 289 68 273 68 C256 68 237 67 219 63 C232 120 257 198 275 253 C286 282 297 312 310 341 C327 381 338 422 363 458 C375 472 381 486 386 499 C394 524 394 548 377 572 C365 589 311 589 291 592 C258 596 237 572 224 548 C210 522 195 495 183 467 L183 467 Z M484 750 C493 734 495 718 488 701 C485 691 479 681 468 671 C462 665 450 663 441 660 C429 657 417 657 403 656 C395 654 388 653 381 659 C370 672 366 691 366 708 C369 736 411 751 436 757 C445 760 457 761 465 760 C473 760 478 757 484 750 L484 750 Z M694 748 C689 759 673 768 663 774 C649 783 635 776 623 767 C609 759 594 751 579 742 C572 737 567 731 564 721 C560 709 557 689 568 679 C576 671 593 664 605 664 C624 665 645 682 662 692 C682 703 699 736 694 748 L694 748 Z " />
<glyph glyph-name="Yacute" unicode="&#xdd;" horiz-adv-x="628" d="M738 520 C747 531 752 541 757 551 C762 569 762 586 754 601 C748 613 718 643 706 647 C692 651 637 653 627 644 C605 625 595 607 583 592 C550 546 549 537 520 504 C486 463 439 419 397 380 C368 435 367 433 349 485 C339 520 334 531 318 571 C314 584 296 605 280 606 C245 609 198 585 191 542 C187 512 186 507 195 478 C205 440 219 423 232 390 C240 373 261 349 269 331 C284 302 284 304 299 267 C280 246 203 167 183 145 C148 104 107 63 100 15 C98 -4 125 -64 142 -74 C150 -77 164 -79 177 -79 C191 -79 205 -77 213 -73 C232 -63 243 -39 256 -23 C274 -5 294 16 311 34 C334 58 357 84 380 108 C404 135 427 155 452 182 C482 213 502 230 535 265 C550 282 575 316 591 335 C639 396 692 459 738 520 L738 520 Z M473 713 C453 706 435 698 412 693 C399 689 375 686 362 677 C361 673 355 662 355 657 C355 645 360 632 374 626 C385 622 402 620 418 621 C453 623 495 632 526 643 C543 649 577 664 590 682 C595 689 597 713 590 719 C580 728 559 738 545 739 C526 738 496 720 473 713 L473 713 Z " />
<glyph glyph-name="Thorn" unicode="&#xde;" horiz-adv-x="674" d="M660 469 C637 481 594 485 559 485 C546 485 535 485 525 484 C488 480 402 469 363 463 C379 496 403 556 417 583 C431 607 419 636 394 639 C380 640 332 638 318 634 C301 630 285 615 272 601 C243 575 215 492 198 457 C179 416 159 378 141 337 C118 285 89 234 74 181 C63 138 34 50 29 8 C25 -15 10 -46 22 -63 C34 -84 97 -108 125 -87 C148 -70 155 -46 171 -23 C181 -7 193 28 204 58 C229 52 240 53 265 53 C289 53 302 58 340 57 C443 56 570 126 640 204 C658 224 675 256 689 290 C713 358 715 436 660 469 L660 469 Z M402 193 C367 186 331 181 285 181 C263 181 263 182 249 185 C253 196 258 207 261 218 C273 252 287 287 302 322 C322 327 339 331 347 333 C383 339 411 344 465 344 C494 344 519 343 536 341 C533 287 452 204 402 193 L402 193 Z " />
<glyph glyph-name="germandbls" unicode="&#xdf;" horiz-adv-x="842" d="M122 114 C89 120 59 113 36 88 C19 70 15 59 24 38 C30 12 50 -13 64 -35 C81 -57 99 -73 130 -65 C175 -56 239 -19 252 19 C267 59 284 99 298 142 C307 171 317 202 328 233 C339 263 350 293 364 324 C378 352 388 379 401 407 C413 432 429 445 453 459 C491 483 538 484 586 484 C612 484 612 481 637 479 C599 438 575 411 522 387 C481 366 437 368 415 321 C405 298 424 270 436 251 C449 228 468 233 493 234 C561 236 584 229 648 221 C615 183 583 160 536 150 C515 147 402 141 383 127 C368 116 346 90 337 64 C329 44 329 25 348 15 C364 2 389 -1 413 -1 C451 -1 493 10 527 17 C572 28 599 42 642 58 C681 72 719 84 752 108 C784 131 817 167 832 206 C840 230 840 256 828 280 C817 303 801 319 777 330 C751 342 712 354 685 360 C734 393 770 418 804 469 C814 483 823 497 828 513 C832 523 834 533 835 543 C834 564 821 579 803 593 C767 618 725 627 681 627 C667 627 651 625 638 624 C565 617 491 599 420 576 C366 558 302 525 271 480 C234 429 219 365 195 309 C187 291 180 273 174 254 C162 220 150 185 135 148 L122 114 Z " />
<glyph glyph-name="agrave" unicode="&#xe0;" horiz-adv-x="704" d="M704 562 C696 592 667 636 625 630 C603 627 573 617 553 607 C537 598 518 590 502 582 C471 566 443 538 416 519 C377 488 290 433 257 399 C232 373 205 343 182 316 C161 293 144 267 120 244 C71 190 24 125 4 69 C-7 38 -15 -15 11 -42 C23 -56 83 -51 98 -42 C135 -22 157 21 176 48 C187 65 199 85 211 103 C240 108 273 122 302 128 C354 138 404 150 454 155 C481 158 505 159 526 159 C522 144 520 131 518 118 C516 105 515 92 514 80 C512 62 505 12 508 -5 C514 -19 539 -48 555 -56 C570 -63 591 -52 602 -42 C618 -29 634 -17 640 0 C648 19 656 64 662 85 C678 128 679 178 681 217 C682 244 680 272 684 299 C691 348 694 396 701 446 C705 467 708 485 710 507 C708 524 708 545 704 562 L704 562 Z M508 269 C497 270 486 271 474 271 C449 271 422 268 396 264 C374 261 351 254 327 252 C361 298 409 339 457 378 C495 409 507 416 555 438 C552 375 552 304 538 265 C522 267 524 269 508 269 L508 269 Z M661 761 C648 769 634 776 624 785 C616 792 610 799 599 801 C586 804 561 799 551 792 C541 788 536 765 538 756 C541 747 551 738 558 730 C565 721 575 714 585 706 C606 693 648 672 685 663 C701 658 715 656 729 657 C746 660 753 672 757 683 C760 688 760 699 756 704 C752 709 741 713 736 717 C728 722 720 725 714 730 C695 739 679 751 661 761 L661 761 Z " />
<glyph glyph-name="aacute" unicode="&#xe1;" horiz-adv-x="702" d="M704 562 C696 592 667 636 625 630 C603 627 573 617 553 607 C537 598 518 590 502 582 C471 566 443 538 416 519 C377 488 290 433 257 399 C232 373 205 343 182 316 C161 293 144 267 120 244 C71 190 24 125 4 69 C-7 38 -15 -15 11 -42 C23 -56 83 -51 98 -42 C135 -22 157 21 176 48 C187 65 199 85 211 103 C240 108 273 122 302 128 C354 138 404 150 454 155 C481 158 505 159 526 159 C522 144 520 131 518 118 C516 105 515 92 514 80 C512 62 505 12 508 -5 C514 -19 539 -48 555 -56 C570 -63 591 -52 602 -42 C618 -29 634 -17 640 0 C648 19 656 64 662 85 C678 128 679 178 681 217 C682 244 680 272 684 299 C691 348 694 396 701 446 C705 467 708 485 710 507 C708 524 708 545 704 562 L704 562 Z M508 269 C497 270 486 271 474 271 C449 271 422 268 396 264 C374 261 351 254 327 252 C361 298 409 339 457 378 C495 409 507 416 555 438 C552 375 552 304 538 265 C522 267 524 269 508 269 L508 269 Z M668 756 C648 749 630 741 607 736 C594 732 570 729 557 720 C556 716 550 705 550 700 C550 688 555 675 569 669 C580 665 597 663 613 664 C648 666 690 675 721 686 C738 692 772 707 785 725 C790 732 792 756 785 762 C775 771 754 781 740 782 C721 781 691 763 668 756 L668 756 Z " />
<glyph glyph-name="acircumflex" unicode="&#xe2;" horiz-adv-x="708" d="M704 562 C696 592 667 636 625 630 C603 627 573 617 553 607 C537 598 518 590 502 582 C471 566 443 538 416 519 C377 488 290 433 257 399 C232 373 205 343 182 316 C161 293 144 267 120 244 C71 190 24 125 4 69 C-7 38 -15 -15 11 -42 C23 -56 83 -51 98 -42 C135 -22 157 21 176 48 C187 65 199 85 211 103 C240 108 273 122 302 128 C354 138 404 150 454 155 C481 158 505 159 526 159 C522 144 520 131 518 118 C516 105 515 92 514 80 C512 62 505 12 508 -5 C514 -19 539 -48 555 -56 C570 -63 591 -52 602 -42 C618 -29 634 -17 640 0 C648 19 656 64 662 85 C678 128 679 178 681 217 C682 244 680 272 684 299 C691 348 694 396 701 446 C705 467 708 485 710 507 C708 524 708 545 704 562 L704 562 Z M508 269 C497 270 486 271 474 271 C449 271 422 268 396 264 C374 261 351 254 327 252 C361 298 409 339 457 378 C495 409 507 416 555 438 C552 375 552 304 538 265 C522 267 524 269 508 269 L508 269 Z M757 721 C754 729 748 735 742 743 C734 757 729 773 722 788 C718 796 717 811 710 817 C705 824 689 825 681 825 C664 825 655 820 643 813 C630 803 616 795 601 786 C578 772 557 755 533 740 C502 723 473 708 451 682 C443 662 452 654 468 649 C492 640 531 653 552 665 C571 676 587 686 606 698 C620 706 634 721 649 725 C659 715 663 706 671 695 C685 674 701 662 731 658 C737 657 750 664 756 669 C763 675 771 682 772 692 C771 703 762 711 757 721 L757 721 Z " />
<glyph glyph-name="atilde" unicode="&#xe3;" horiz-adv-x="708" d="M704 562 C696 592 667 636 625 630 C603 627 573 617 553 607 C537 598 518 590 502 582 C471 566 443 538 416 519 C377 488 290 433 257 399 C232 373 205 343 182 316 C161 293 144 267 120 244 C71 190 24 125 4 69 C-7 38 -15 -15 11 -42 C23 -56 83 -51 98 -42 C135 -22 157 21 176 48 C187 65 199 85 211 103 C240 108 273 122 302 128 C354 138 404 150 454 155 C481 158 505 159 526 159 C522 144 520 131 518 118 C516 105 515 92 514 80 C512 62 505 12 508 -5 C514 -19 539 -48 555 -56 C570 -63 591 -52 602 -42 C618 -29 634 -17 640 0 C648 19 656 64 662 85 C678 128 679 178 681 217 C682 244 680 272 684 299 C691 348 694 396 701 446 C705 467 708 485 710 507 C708 524 708 545 704 562 L704 562 Z M508 269 C497 270 486 271 474 271 C449 271 422 268 396 264 C374 261 351 254 327 252 C361 298 409 339 457 378 C495 409 507 416 555 438 C552 375 552 304 538 265 C522 267 524 269 508 269 L508 269 Z M561 827 C532 817 504 800 473 778 C460 770 442 750 438 734 C438 719 454 710 469 705 C485 702 493 707 506 715 C521 725 538 734 557 742 C574 748 590 759 597 744 C604 722 599 697 607 676 C612 664 619 656 633 652 C646 650 657 648 672 650 C715 653 737 659 772 680 C801 697 837 733 848 764 C851 774 853 785 850 793 C849 798 849 802 845 807 C841 812 832 813 827 816 C814 822 805 825 793 817 C783 810 778 799 772 790 C761 777 718 722 697 734 C682 744 685 779 678 798 C676 804 672 808 671 813 C657 842 615 848 587 837 C578 834 571 829 561 827 L561 827 Z " />
<glyph glyph-name="adieresis" unicode="&#xe4;" horiz-adv-x="704" d="M704 562 C696 592 667 636 625 630 C603 627 573 617 553 607 C537 598 518 590 502 582 C471 566 443 538 416 519 C377 488 290 433 257 399 C232 373 205 343 182 316 C161 293 144 267 120 244 C71 190 24 125 4 69 C-7 38 -15 -15 11 -42 C23 -56 83 -51 98 -42 C135 -22 157 21 176 48 C187 65 199 85 211 103 C240 108 273 122 302 128 C354 138 404 150 454 155 C481 158 505 159 526 159 C522 144 520 131 518 118 C516 105 515 92 514 80 C512 62 505 12 508 -5 C514 -19 539 -48 555 -56 C570 -63 591 -52 602 -42 C618 -29 634 -17 640 0 C648 19 656 64 662 85 C678 128 679 178 681 217 C682 244 680 272 684 299 C691 348 694 396 701 446 C705 467 708 485 710 507 C708 524 708 545 704 562 L704 562 Z M508 269 C497 270 486 271 474 271 C449 271 422 268 396 264 C374 261 351 254 327 252 C361 298 409 339 457 378 C495 409 507 416 555 438 C552 375 552 304 538 265 C522 267 524 269 508 269 L508 269 Z M583 741 C592 725 594 709 587 692 C584 682 578 672 567 662 C561 656 549 654 540 651 C528 648 516 648 502 647 C494 645 487 644 480 650 C469 663 465 682 465 699 C468 727 510 742 535 748 C544 751 556 752 564 751 C572 751 577 748 583 741 L583 741 Z M793 739 C788 750 772 759 762 765 C748 774 734 767 722 758 C708 750 693 742 678 733 C671 728 666 722 663 712 C659 700 656 680 667 670 C675 662 692 655 704 655 C723 656 744 673 761 683 C781 694 798 727 793 739 L793 739 Z " />
<glyph glyph-name="aring" unicode="&#xe5;" horiz-adv-x="722" d="M749 714 C745 732 737 749 721 760 C703 772 683 779 662 784 C641 789 621 798 597 794 C572 790 557 773 538 758 C512 737 475 704 480 672 C483 646 498 610 526 599 L510 592 C481 578 454 559 428 537 C365 486 307 430 252 370 C174 284 108 213 56 121 C38 91 23 73 3 44 C-11 22 -35 -10 -36 -34 C-35 -65 26 -78 55 -78 C109 -78 181 34 200 67 C268 76 310 93 380 105 C409 110 471 118 499 120 C497 95 493 68 486 41 C483 19 469 -16 475 -33 C480 -48 497 -67 510 -69 C565 -79 609 -25 625 24 C649 97 675 153 681 227 C684 298 676 398 678 470 C680 520 685 588 648 613 L669 623 C696 635 719 648 739 670 C751 682 751 697 749 714 L749 714 Z M417 233 C372 225 347 210 305 210 C343 256 382 298 426 341 C460 373 504 411 533 433 C528 376 528 305 525 245 C503 247 442 238 417 233 L417 233 Z M624 675 C604 669 586 673 568 672 C570 682 572 690 581 698 C590 705 603 713 610 721 C630 718 648 709 663 701 C652 691 639 680 624 675 L624 675 Z " />
<glyph glyph-name="ae" unicode="&#xe6;" horiz-adv-x="1105" d="M1237 573 C1232 588 1209 602 1198 611 C1184 619 1163 617 1146 619 C1116 623 1085 625 1050 625 C945 625 825 606 726 579 C705 624 652 631 598 626 C529 620 517 591 455 556 C414 531 373 494 334 463 C289 425 246 378 204 338 C152 290 74 184 37 128 C25 109 16 90 3 70 C-12 42 -32 16 -45 -13 C-53 -26 -55 -46 -48 -60 C-42 -72 4 -74 18 -79 C99 -103 132 -17 169 30 C190 54 197 58 212 83 C307 111 334 131 442 148 C430 115 422 113 415 90 C404 60 397 32 391 1 C386 -17 388 -30 398 -46 C403 -56 429 -70 439 -74 C447 -76 464 -73 471 -70 C506 -62 539 -55 572 -44 C601 -35 662 -17 693 -12 C727 -6 839 22 873 28 C901 34 928 38 956 44 C971 47 987 51 999 64 C1008 73 1026 109 1020 120 C1005 153 967 154 936 154 C893 153 771 135 730 125 C679 113 635 97 587 86 C590 96 634 192 634 192 C634 192 698 216 736 224 C773 233 915 252 953 256 C963 257 974 258 985 258 C999 258 1012 257 1025 257 C1042 257 1058 258 1075 262 C1089 267 1099 279 1107 292 C1119 308 1123 318 1113 333 C1080 377 1019 379 969 381 C924 381 796 363 751 352 C734 348 719 342 705 337 C707 345 710 352 712 360 C725 392 746 427 757 459 C774 460 775 462 789 465 C807 469 880 490 895 492 C931 496 964 498 997 498 C1035 498 1072 496 1109 496 C1133 496 1157 497 1181 499 C1192 501 1211 505 1218 518 C1221 525 1226 527 1230 536 C1232 544 1241 565 1237 573 L1237 573 Z M333 260 C440 370 424 361 555 449 C558 405 534 359 519 319 C517 313 516 308 514 302 C449 261 402 276 333 260 L333 260 Z " />
<glyph glyph-name="ccedilla" unicode="&#xe7;" horiz-adv-x="803" d="M794 578 C770 592 741 599 712 599 C662 599 606 582 549 555 C480 524 418 495 360 453 C284 399 154 315 107 247 C90 223 73 194 63 165 C57 150 54 137 54 124 C51 85 65 38 81 6 C103 -34 204 -53 224 -59 C263 -69 298 -75 335 -75 L339 -75 L354 -90 L375 -118 L330 -118 C311 -115 283 -110 260 -115 C239 -121 209 -143 197 -161 C184 -183 222 -199 244 -206 C264 -212 282 -215 301 -215 C323 -215 348 -211 372 -205 C410 -194 443 -170 469 -139 C486 -118 471 -96 462 -76 C460 -70 457 -64 451 -58 C486 -51 512 -41 557 -22 C604 -1 670 27 712 52 C737 67 767 91 772 115 C777 145 768 190 733 185 C706 182 664 158 636 148 C568 124 521 91 450 75 C393 63 386 58 360 58 C330 58 313 63 296 69 C274 76 239 105 243 130 C252 201 427 314 488 352 C541 386 608 427 665 449 C698 461 725 459 748 430 C767 407 784 395 804 395 C818 395 834 402 853 416 C867 428 872 447 870 463 C862 495 821 564 794 578 L794 578 Z " />
<glyph glyph-name="egrave" unicode="&#xe8;" horiz-adv-x="725" d="M169 420 C158 388 150 358 139 327 C113 257 77 191 55 120 C45 94 38 66 29 39 C24 26 16 11 12 -3 C8 -14 5 -24 5 -35 C5 -69 33 -77 64 -77 C89 -77 117 -71 131 -67 C261 -35 375 -24 480 -18 C509 -17 542 -21 564 -2 C577 9 587 20 593 33 C595 42 595 51 594 63 C591 95 562 95 532 99 C515 101 496 102 477 102 C415 102 349 90 288 85 C245 82 238 79 198 69 C206 87 232 150 242 177 C318 205 402 213 471 219 C506 222 542 225 577 227 C604 228 632 216 657 228 C676 238 690 267 697 287 C707 308 697 339 671 347 C643 354 617 356 588 354 C493 351 397 341 305 320 C313 337 345 421 345 421 C345 421 393 437 408 442 C484 466 615 490 696 490 C712 490 725 489 736 487 C766 482 785 471 812 490 C826 500 834 513 839 528 C851 562 840 602 798 607 C761 611 739 617 705 615 C569 620 436 579 296 546 C267 539 235 533 211 513 C199 501 191 489 186 474 C179 457 177 439 169 420 L169 420 Z M572 758 C559 766 545 773 535 782 C527 789 521 796 510 798 C497 801 472 796 462 789 C452 785 447 762 449 753 C452 744 462 735 469 727 C476 718 486 711 496 703 C517 690 559 669 596 660 C612 655 626 653 640 654 C657 657 664 669 668 680 C671 685 671 696 667 701 C663 706 652 710 647 714 C639 719 631 722 625 727 C606 736 590 748 572 758 L572 758 Z " />
<glyph glyph-name="eacute" unicode="&#xe9;" horiz-adv-x="725" d="M169 420 C158 388 150 358 139 327 C113 257 77 191 55 120 C45 94 38 66 29 39 C24 26 16 11 12 -3 C8 -14 5 -24 5 -35 C5 -69 33 -77 64 -77 C89 -77 117 -71 131 -67 C261 -35 375 -24 480 -18 C509 -17 542 -21 564 -2 C577 9 587 20 593 33 C595 42 595 51 594 63 C591 95 562 95 532 99 C515 101 496 102 477 102 C415 102 349 90 288 85 C245 82 238 79 198 69 C206 87 232 150 242 177 C318 205 402 213 471 219 C506 222 542 225 577 227 C604 228 632 216 657 228 C676 238 690 267 697 287 C707 308 697 339 671 347 C643 354 617 356 588 354 C493 351 397 341 305 320 C313 337 345 421 345 421 C345 421 393 437 408 442 C484 466 615 490 696 490 C712 490 725 489 736 487 C766 482 785 471 812 490 C826 500 834 513 839 528 C851 562 840 602 798 607 C761 611 739 617 705 615 C569 620 436 579 296 546 C267 539 235 533 211 513 C199 501 191 489 186 474 C179 457 177 439 169 420 L169 420 Z M611 737 C591 730 573 722 550 717 C537 713 513 710 500 701 C499 697 493 686 493 681 C493 669 498 656 512 650 C523 646 540 644 556 645 C591 647 633 656 664 667 C681 673 715 688 728 706 C733 713 735 737 728 743 C718 752 697 762 683 763 C664 762 634 744 611 737 L611 737 Z " />
<glyph glyph-name="ecircumflex" unicode="&#xea;" horiz-adv-x="725" d="M169 420 C158 388 150 358 139 327 C113 257 77 191 55 120 C45 94 38 66 29 39 C24 26 16 11 12 -3 C8 -14 5 -24 5 -35 C5 -69 33 -77 64 -77 C89 -77 117 -71 131 -67 C261 -35 375 -24 480 -18 C509 -17 542 -21 564 -2 C577 9 587 20 593 33 C595 42 595 51 594 63 C591 95 562 95 532 99 C515 101 496 102 477 102 C415 102 349 90 288 85 C245 82 238 79 198 69 C206 87 232 150 242 177 C318 205 402 213 471 219 C506 222 542 225 577 227 C604 228 632 216 657 228 C676 238 690 267 697 287 C707 308 697 339 671 347 C643 354 617 356 588 354 C493 351 397 341 305 320 C313 337 345 421 345 421 C345 421 393 437 408 442 C484 466 615 490 696 490 C712 490 725 489 736 487 C766 482 785 471 812 490 C826 500 834 513 839 528 C851 562 840 602 798 607 C761 611 739 617 705 615 C569 620 436 579 296 546 C267 539 235 533 211 513 C199 501 191 489 186 474 C179 457 177 439 169 420 L169 420 Z M759 719 C756 727 750 733 744 741 C736 755 731 771 724 786 C720 794 719 809 712 815 C707 822 691 823 683 823 C666 823 657 818 645 811 C632 801 618 793 603 784 C580 770 559 753 535 738 C504 721 475 706 453 680 C445 660 454 652 470 647 C494 638 533 651 554 663 C573 674 589 684 608 696 C622 704 636 719 651 723 C661 713 665 704 673 693 C687 672 703 660 733 656 C739 655 752 662 758 667 C765 673 773 680 774 690 C773 701 764 709 759 719 L759 719 Z " />
<glyph glyph-name="edieresis" unicode="&#xeb;" horiz-adv-x="725" d="M169 420 C158 388 150 358 139 327 C113 257 77 191 55 120 C45 94 38 66 29 39 C24 26 16 11 12 -3 C8 -14 5 -24 5 -35 C5 -69 33 -77 64 -77 C89 -77 117 -71 131 -67 C261 -35 375 -24 480 -18 C509 -17 542 -21 564 -2 C577 9 587 20 593 33 C595 42 595 51 594 63 C591 95 562 95 532 99 C515 101 496 102 477 102 C415 102 349 90 288 85 C245 82 238 79 198 69 C206 87 232 150 242 177 C318 205 402 213 471 219 C506 222 542 225 577 227 C604 228 632 216 657 228 C676 238 690 267 697 287 C707 308 697 339 671 347 C643 354 617 356 588 354 C493 351 397 341 305 320 C313 337 345 421 345 421 C345 421 393 437 408 442 C484 466 615 490 696 490 C712 490 725 489 736 487 C766 482 785 471 812 490 C826 500 834 513 839 528 C851 562 840 602 798 607 C761 611 739 617 705 615 C569 620 436 579 296 546 C267 539 235 533 211 513 C199 501 191 489 186 474 C179 457 177 439 169 420 L169 420 Z M554 739 C563 723 565 707 558 690 C555 680 549 670 538 660 C532 654 520 652 511 649 C499 646 487 646 473 645 C465 643 458 642 451 648 C440 661 436 680 436 697 C439 725 481 740 506 746 C515 749 527 750 535 749 C543 749 548 746 554 739 L554 739 Z M764 737 C759 748 743 757 733 763 C719 772 705 765 693 756 C679 748 664 740 649 731 C642 726 637 720 634 710 C630 698 627 678 638 668 C646 660 663 653 675 653 C694 654 715 671 732 681 C752 692 769 725 764 737 L764 737 Z " />
<glyph glyph-name="igrave" unicode="&#xec;" horiz-adv-x="276" d="M107 270 C71 183 56 124 16 38 C7 15 -2 -5 10 -27 C21 -47 44 -51 68 -46 C128 -33 174 24 190 70 C206 113 207 126 223 168 C232 189 240 211 248 232 C256 257 265 282 273 308 C284 349 315 418 334 458 C344 477 356 494 363 513 C366 522 369 532 369 542 C367 568 362 589 328 595 C316 598 299 604 285 600 C227 578 209 525 189 480 C163 422 130 328 107 270 L107 270 Z M334 737 C321 745 307 752 297 761 C289 768 283 775 272 777 C259 780 234 775 224 768 C214 764 209 741 211 732 C214 723 224 714 231 706 C238 697 248 690 258 682 C279 669 321 648 358 639 C374 634 388 632 402 633 C419 636 426 648 430 659 C433 664 433 675 429 680 C425 685 414 689 409 693 C401 698 393 701 387 706 C368 715 352 727 334 737 L334 737 Z " />
<glyph glyph-name="iacute" unicode="&#xed;" horiz-adv-x="276" d="M107 270 C71 183 56 124 16 38 C7 15 -2 -5 10 -27 C21 -47 44 -51 68 -46 C128 -33 174 24 190 70 C206 113 207 126 223 168 C232 189 240 211 248 232 C256 257 265 282 273 308 C284 349 315 418 334 458 C344 477 356 494 363 513 C366 522 369 532 369 542 C367 568 362 589 328 595 C316 598 299 604 285 600 C227 578 209 525 189 480 C163 422 130 328 107 270 L107 270 Z M379 735 C359 728 341 720 318 715 C305 711 281 708 268 699 C267 695 261 684 261 679 C261 667 266 654 280 648 C291 644 308 642 324 643 C359 645 401 654 432 665 C449 671 483 686 496 704 C501 711 503 735 496 741 C486 750 465 760 451 761 C432 760 402 742 379 735 L379 735 Z " />
<glyph glyph-name="icircumflex" unicode="&#xee;" horiz-adv-x="276" d="M107 270 C71 183 56 124 16 38 C7 15 -2 -5 10 -27 C21 -47 44 -51 68 -46 C128 -33 174 24 190 70 C206 113 207 126 223 168 C232 189 240 211 248 232 C256 257 265 282 273 308 C284 349 315 418 334 458 C344 477 356 494 363 513 C366 522 369 532 369 542 C367 568 362 589 328 595 C316 598 299 604 285 600 C227 578 209 525 189 480 C163 422 130 328 107 270 L107 270 Z M498 704 C495 712 489 718 483 726 C475 740 470 756 463 771 C459 779 458 794 451 800 C446 807 430 808 422 808 C405 808 396 803 384 796 C371 786 357 778 342 769 C319 755 298 738 274 723 C243 706 214 691 192 665 C184 645 193 637 209 632 C233 623 272 636 293 648 C312 659 328 669 347 681 C361 689 375 704 390 708 C400 698 404 689 412 678 C426 657 442 645 472 641 C478 640 491 647 497 652 C504 658 512 665 513 675 C512 686 503 694 498 704 L498 704 Z " />
<glyph glyph-name="idieresis" unicode="&#xef;" horiz-adv-x="276" d="M107 270 C71 183 56 124 16 38 C7 15 -2 -5 10 -27 C21 -47 44 -51 68 -46 C128 -33 174 24 190 70 C206 113 207 126 223 168 C232 189 240 211 248 232 C256 257 265 282 273 308 C284 349 315 418 334 458 C344 477 356 494 363 513 C366 522 369 532 369 542 C367 568 362 589 328 595 C316 598 299 604 285 600 C227 578 209 525 189 480 C163 422 130 328 107 270 L107 270 Z M310 732 C319 716 321 700 314 683 C311 673 305 663 294 653 C288 647 276 645 267 642 C255 639 243 639 229 638 C221 636 214 635 207 641 C196 654 192 673 192 690 C195 718 237 733 262 739 C271 742 283 743 291 742 C299 742 304 739 310 732 L310 732 Z M520 730 C515 741 499 750 489 756 C475 765 461 758 449 749 C435 741 420 733 405 724 C398 719 393 713 390 703 C386 691 383 671 394 661 C402 653 419 646 431 646 C450 647 471 664 488 674 C508 685 525 718 520 730 L520 730 Z " />
<glyph glyph-name="eth" unicode="&#xf0;" horiz-adv-x="873" d="M883 435 C866 462 842 480 817 502 C790 530 768 549 729 559 C679 570 631 584 581 592 C553 596 525 598 496 598 C481 598 463 598 447 596 C398 595 307 599 272 554 C263 543 257 534 254 524 C241 487 258 455 250 406 C245 388 240 370 233 350 C217 348 198 345 182 341 C151 332 124 331 102 303 C97 295 94 287 92 278 C91 265 88 250 91 239 C94 227 100 228 109 225 C119 224 128 219 137 219 C148 219 172 223 183 228 C178 217 174 206 170 196 C159 168 148 143 140 115 C133 93 127 73 123 50 C120 29 114 10 114 -11 C116 -27 119 -48 128 -61 C139 -79 183 -104 201 -95 C348 -6 505 30 649 101 C728 139 825 172 876 258 C884 274 892 290 898 305 C914 352 912 395 883 435 L883 435 Z M733 307 C705 255 639 230 588 208 C562 196 533 188 507 177 C479 165 451 154 422 145 C400 138 398 137 376 130 C358 125 340 120 324 113 C321 126 328 141 333 155 C341 176 347 197 355 217 C358 227 363 235 366 245 C405 246 454 249 485 257 C504 263 515 272 522 295 C531 315 537 338 518 350 C503 361 485 369 466 372 C449 376 431 377 412 375 C421 403 428 433 425 457 C465 471 526 460 562 450 C584 442 610 439 634 433 C661 425 755 393 751 367 C750 348 741 325 733 307 L733 307 Z " />
<glyph glyph-name="ntilde" unicode="&#xf1;" horiz-adv-x="696" d="M118 240 C99 189 62 143 43 90 C38 78 35 66 33 53 C30 25 14 -65 54 -75 C69 -79 141 -75 153 -64 C168 -51 178 -21 184 -4 C203 44 225 90 245 136 C267 187 280 221 305 273 C344 193 357 112 372 23 C376 6 378 -19 392 -34 C406 -47 437 -55 458 -57 C507 -63 522 -32 547 6 C581 61 619 130 642 194 C678 292 721 383 778 486 C781 494 787 505 790 515 C802 554 806 567 771 602 C756 618 736 619 711 610 C672 594 631 565 611 532 C603 520 599 507 595 494 C591 484 587 473 584 463 C573 430 555 399 539 367 C514 322 501 264 465 225 C432 286 438 309 418 372 C413 395 408 418 403 441 C400 453 372 559 363 568 C354 581 326 588 308 589 C288 590 255 573 240 560 C222 545 219 527 213 509 C205 482 195 456 187 429 C184 411 174 394 167 376 C156 344 143 313 118 240 L118 240 Z M438 787 C409 777 381 760 350 738 C337 730 319 710 315 694 C315 679 331 670 346 665 C362 662 370 667 383 675 C398 685 415 694 434 702 C451 708 467 719 474 704 C481 682 476 657 484 636 C489 624 496 616 510 612 C523 610 534 608 549 610 C592 613 614 619 649 640 C678 657 714 693 725 724 C728 734 730 745 727 753 C726 758 726 762 722 767 C718 772 709 773 704 776 C691 782 682 785 670 777 C660 770 655 759 649 750 C638 737 595 682 574 694 C559 704 562 739 555 758 C553 764 549 768 548 773 C534 802 492 808 464 797 C455 794 448 789 438 787 L438 787 Z " />
<glyph glyph-name="ograve" unicode="&#xf2;" horiz-adv-x="848" d="M890 516 C860 545 816 559 773 571 C724 587 683 601 627 594 C602 590 577 593 553 589 C525 585 497 576 471 568 C421 556 385 536 345 508 C300 478 258 444 213 411 C146 359 95 298 70 229 C57 194 52 156 55 116 C59 78 79 5 112 -23 C139 -45 211 -51 250 -51 C267 -51 284 -51 301 -51 C353 -51 404 -48 455 -25 C552 17 649 69 728 137 C768 172 803 217 835 258 C862 295 891 327 905 367 C924 424 936 472 890 516 L890 516 Z M634 274 C563 208 524 159 430 122 C391 107 369 98 327 88 C255 72 230 128 225 185 C253 229 285 269 326 302 C383 363 441 405 516 442 C536 451 556 444 576 447 C594 450 611 456 633 458 C678 462 707 444 745 430 C734 379 672 309 634 274 L634 274 Z M692 738 C679 746 665 753 655 762 C647 769 641 776 630 778 C617 781 592 776 582 769 C572 765 567 742 569 733 C572 724 582 715 589 707 C596 698 606 691 616 683 C637 670 679 649 716 640 C732 635 746 633 760 634 C777 637 784 649 788 660 C791 665 791 676 787 681 C783 686 772 690 767 694 C759 699 751 702 745 707 C726 716 710 728 692 738 L692 738 Z " />
<glyph glyph-name="oacute" unicode="&#xf3;" horiz-adv-x="848" d="M890 516 C860 545 816 559 773 571 C724 587 683 601 627 594 C602 590 577 593 553 589 C525 585 497 576 471 568 C421 556 385 536 345 508 C300 478 258 444 213 411 C146 359 95 298 70 229 C57 194 52 156 55 116 C59 78 79 5 112 -23 C139 -45 211 -51 250 -51 C267 -51 284 -51 301 -51 C353 -51 404 -48 455 -25 C552 17 649 69 728 137 C768 172 803 217 835 258 C862 295 891 327 905 367 C924 424 936 472 890 516 L890 516 Z M634 274 C563 208 524 159 430 122 C391 107 369 98 327 88 C255 72 230 128 225 185 C253 229 285 269 326 302 C383 363 441 405 516 442 C536 451 556 444 576 447 C594 450 611 456 633 458 C678 462 707 444 745 430 C734 379 672 309 634 274 L634 274 Z M722 727 C702 720 684 712 661 707 C648 703 624 700 611 691 C610 687 604 676 604 671 C604 659 609 646 623 640 C634 636 651 634 667 635 C702 637 744 646 775 657 C792 663 826 678 839 696 C844 703 846 727 839 733 C829 742 808 752 794 753 C775 752 745 734 722 727 L722 727 Z " />
<glyph glyph-name="ocircumflex" unicode="&#xf4;" horiz-adv-x="848" d="M890 516 C860 545 816 559 773 571 C724 587 683 601 627 594 C602 590 577 593 553 589 C525 585 497 576 471 568 C421 556 385 536 345 508 C300 478 258 444 213 411 C146 359 95 298 70 229 C57 194 52 156 55 116 C59 78 79 5 112 -23 C139 -45 211 -51 250 -51 C267 -51 284 -51 301 -51 C353 -51 404 -48 455 -25 C552 17 649 69 728 137 C768 172 803 217 835 258 C862 295 891 327 905 367 C924 424 936 472 890 516 L890 516 Z M634 274 C563 208 524 159 430 122 C391 107 369 98 327 88 C255 72 230 128 225 185 C253 229 285 269 326 302 C383 363 441 405 516 442 C536 451 556 444 576 447 C594 450 611 456 633 458 C678 462 707 444 745 430 C734 379 672 309 634 274 L634 274 Z M838 706 C835 714 829 720 823 728 C815 742 810 758 803 773 C799 781 798 796 791 802 C786 809 770 810 762 810 C745 810 736 805 724 798 C711 788 697 780 682 771 C659 757 638 740 614 725 C583 708 554 693 532 667 C524 647 533 639 549 634 C573 625 612 638 633 650 C652 661 668 671 687 683 C701 691 715 706 730 710 C740 700 744 691 752 680 C766 659 782 647 812 643 C818 642 831 649 837 654 C844 660 852 667 853 677 C852 688 843 696 838 706 L838 706 Z " />
<glyph glyph-name="otilde" unicode="&#xf5;" horiz-adv-x="848" d="M890 516 C860 545 816 559 773 571 C724 587 683 601 627 594 C602 590 577 593 553 589 C525 585 497 576 471 568 C421 556 385 536 345 508 C300 478 258 444 213 411 C146 359 95 298 70 229 C57 194 52 156 55 116 C59 78 79 5 112 -23 C139 -45 211 -51 250 -51 C267 -51 284 -51 301 -51 C353 -51 404 -48 455 -25 C552 17 649 69 728 137 C768 172 803 217 835 258 C862 295 891 327 905 367 C924 424 936 472 890 516 L890 516 Z M634 274 C563 208 524 159 430 122 C391 107 369 98 327 88 C255 72 230 128 225 185 C253 229 285 269 326 302 C383 363 441 405 516 442 C536 451 556 444 576 447 C594 450 611 456 633 458 C678 462 707 444 745 430 C734 379 672 309 634 274 L634 274 Z M611 809 C582 799 554 782 523 760 C510 752 492 732 488 716 C488 701 504 692 519 687 C535 684 543 689 556 697 C571 707 588 716 607 724 C624 730 640 741 647 726 C654 704 649 679 657 658 C662 646 669 638 683 634 C696 632 707 630 722 632 C765 635 787 641 822 662 C851 679 887 715 898 746 C901 756 903 767 900 775 C899 780 899 784 895 789 C891 794 882 795 877 798 C864 804 855 807 843 799 C833 792 828 781 822 772 C811 759 768 704 747 716 C732 726 735 761 728 780 C726 786 722 790 721 795 C707 824 665 830 637 819 C628 816 621 811 611 809 L611 809 Z " />
<glyph glyph-name="odieresis" unicode="&#xf6;" horiz-adv-x="848" d="M890 516 C860 545 816 559 773 571 C724 587 683 601 627 594 C602 590 577 593 553 589 C525 585 497 576 471 568 C421 556 385 536 345 508 C300 478 258 444 213 411 C146 359 95 298 70 229 C57 194 52 156 55 116 C59 78 79 5 112 -23 C139 -45 211 -51 250 -51 C267 -51 284 -51 301 -51 C353 -51 404 -48 455 -25 C552 17 649 69 728 137 C768 172 803 217 835 258 C862 295 891 327 905 367 C924 424 936 472 890 516 L890 516 Z M634 274 C563 208 524 159 430 122 C391 107 369 98 327 88 C255 72 230 128 225 185 C253 229 285 269 326 302 C383 363 441 405 516 442 C536 451 556 444 576 447 C594 450 611 456 633 458 C678 462 707 444 745 430 C734 379 672 309 634 274 L634 274 Z M666 730 C675 714 677 698 670 681 C667 671 661 661 650 651 C644 645 632 643 623 640 C611 637 599 637 585 636 C577 634 570 633 563 639 C552 652 548 671 548 688 C551 716 593 731 618 737 C627 740 639 741 647 740 C655 740 660 737 666 730 L666 730 Z M876 728 C871 739 855 748 845 754 C831 763 817 756 805 747 C791 739 776 731 761 722 C754 717 749 711 746 701 C742 689 739 669 750 659 C758 651 775 644 787 644 C806 645 827 662 844 672 C864 683 881 716 876 728 L876 728 Z " />
<glyph glyph-name="divide" unicode="&#xf7;" horiz-adv-x="484" d="M438 473 C432 487 416 492 397 492 C382 492 366 488 356 487 C322 481 296 459 273 434 C261 421 251 411 252 393 C253 382 263 356 274 352 C289 342 322 360 338 366 C360 373 386 378 405 390 C418 399 430 413 436 430 C441 445 442 461 438 473 L438 473 Z M321 113 C313 133 289 141 263 141 C239 141 217 136 201 128 C180 119 166 96 147 80 C132 67 123 61 128 40 C131 30 137 11 148 7 C166 -1 204 8 222 11 C239 13 250 12 264 21 C289 36 313 53 321 76 C326 87 326 99 321 113 L321 113 Z M286 310 C248 304 208 307 166 295 C136 286 110 285 89 257 C81 248 80 241 77 230 C77 219 73 202 76 193 C80 181 86 182 95 179 C105 177 113 173 124 173 C133 173 145 178 156 179 C204 187 251 192 299 193 C339 194 407 194 448 206 C466 212 476 221 485 244 C494 264 499 287 483 299 C464 310 448 318 429 321 C417 323 406 324 395 324 C359 324 321 315 286 310 L286 310 Z " />
<glyph glyph-name="oslash" unicode="&#xf8;" horiz-adv-x="805" d="M835 499 C825 513 809 521 793 528 C812 545 827 564 839 583 C848 601 865 650 848 664 C831 679 783 664 766 652 C747 639 732 618 714 602 C702 592 689 581 676 571 C650 577 626 581 595 577 C583 576 571 576 560 576 C549 576 538 576 527 575 C502 571 475 562 449 558 C405 547 370 528 332 504 C290 476 250 446 208 416 C141 367 92 310 69 245 C58 215 53 182 54 148 C56 120 67 73 85 40 C69 28 48 18 37 4 C30 -8 32 -25 32 -41 C33 -57 34 -64 48 -69 C58 -73 68 -75 78 -75 C122 -75 158 -39 193 -10 C204 -7 219 -11 231 -11 C255 -11 276 -12 298 -12 C339 -12 377 -8 420 8 C509 46 602 92 678 153 C715 185 748 225 780 263 C805 296 832 325 845 362 C866 415 877 457 835 499 L835 499 Z M290 314 C324 338 367 372 404 389 C443 407 506 446 543 446 C440 365 358 272 255 192 C239 178 224 165 208 150 C193 167 191 189 199 210 C213 248 254 288 290 314 L290 314 Z M606 280 C539 222 488 177 400 145 C385 139 367 135 352 131 C424 192 490 256 559 319 C591 347 624 372 654 402 C664 412 675 423 686 434 C695 430 704 427 714 423 C702 376 643 313 606 280 L606 280 Z " />
<glyph glyph-name="ugrave" unicode="&#xf9;" horiz-adv-x="701" d="M365 83 C409 97 448 109 448 109 C459 157 486 223 503 272 C509 288 515 305 522 322 C540 372 557 422 577 472 C580 484 585 496 590 509 C603 548 622 589 660 607 C678 616 735 623 757 623 C785 623 809 612 806 579 C805 560 788 535 778 515 C762 488 752 462 743 435 C727 404 708 373 698 341 C689 309 684 276 673 244 C662 210 643 114 624 57 C613 29 601 6 583 -8 C539 -44 411 -50 367 -50 C353 -50 337 -51 319 -54 C262 -63 216 -74 156 -72 C109 -71 38 -43 40 4 C41 95 88 195 112 282 C119 303 124 322 131 342 C143 376 157 408 175 442 C200 491 243 568 302 590 C321 598 362 589 372 582 C389 567 411 550 397 525 C354 434 312 350 283 269 C268 227 249 168 240 132 L227 70 C227 70 309 66 365 83 L365 83 Z M485 711 C472 719 458 726 448 735 C440 742 434 749 423 751 C410 754 385 749 375 742 C365 738 360 715 362 706 C365 697 375 688 382 680 C389 671 399 664 409 656 C430 643 472 622 509 613 C525 608 539 606 553 607 C570 610 577 622 581 633 C584 638 584 649 580 654 C576 659 565 663 560 667 C552 672 544 675 538 680 C519 689 503 701 485 711 L485 711 Z " />
<glyph glyph-name="uacute" unicode="&#xfa;" horiz-adv-x="714" d="M365 83 C309 66 227 70 227 70 L240 132 C249 168 268 227 283 269 C312 350 354 434 397 525 C411 550 389 567 372 582 C362 589 321 598 302 590 C243 568 200 491 175 442 C157 408 143 376 131 342 C124 322 119 303 112 282 C88 195 41 95 40 4 C38 -43 109 -71 156 -72 C216 -74 262 -63 319 -54 C337 -51 353 -50 367 -50 C411 -50 539 -44 583 -8 C601 6 613 29 624 57 C643 114 662 210 673 244 C684 276 689 309 698 341 C708 373 727 404 743 435 C752 462 762 488 778 515 C788 535 805 560 806 579 C809 612 785 623 757 623 C735 623 678 616 660 607 C622 589 603 548 590 509 C585 496 580 484 577 472 C557 422 540 372 522 322 C515 305 509 288 503 272 C486 223 459 157 448 109 C448 109 409 97 365 83 L365 83 Z M552 700 C532 693 514 685 491 680 C478 676 454 673 441 664 C440 660 434 649 434 644 C434 632 439 619 453 613 C464 609 481 607 497 608 C532 610 574 619 605 630 C622 636 656 651 669 669 C674 676 676 700 669 706 C659 715 638 725 624 726 C605 725 575 707 552 700 L552 700 Z " />
<glyph glyph-name="ucircumflex" unicode="&#xfb;" horiz-adv-x="694" d="M365 83 C409 97 448 109 448 109 C459 157 486 223 503 272 C509 288 515 305 522 322 C540 372 557 422 577 472 C580 484 585 496 590 509 C603 548 622 589 660 607 C678 616 735 623 757 623 C785 623 809 612 806 579 C805 560 788 535 778 515 C762 488 752 462 743 435 C727 404 708 373 698 341 C689 309 684 276 673 244 C662 210 643 114 624 57 C613 29 601 6 583 -8 C539 -44 411 -50 367 -50 C353 -50 337 -51 319 -54 C262 -63 216 -74 156 -72 C109 -71 38 -43 40 4 C41 95 88 195 112 282 C119 303 124 322 131 342 C143 376 157 408 175 442 C200 491 243 568 302 590 C321 598 362 589 372 582 C389 567 411 550 397 525 C354 434 312 350 283 269 C268 227 249 168 240 132 L227 70 C227 70 309 66 365 83 L365 83 Z M707 731 C704 739 698 745 692 753 C684 767 679 783 672 798 C668 806 667 821 660 827 C655 834 639 835 631 835 C614 835 605 830 593 823 C580 813 566 805 551 796 C528 782 507 765 483 750 C452 733 423 718 401 692 C393 672 402 664 418 659 C442 650 481 663 502 675 C521 686 537 696 556 708 C570 716 584 731 599 735 C609 725 613 716 621 705 C635 684 651 672 681 668 C687 667 700 674 706 679 C713 685 721 692 722 702 C721 713 712 721 707 731 L707 731 Z " />
<glyph glyph-name="udieresis" unicode="&#xfc;" horiz-adv-x="694" d="M365 83 C409 97 448 109 448 109 C459 157 486 223 503 272 C509 288 515 305 522 322 C540 372 557 422 577 472 C580 484 585 496 590 509 C603 548 622 589 660 607 C678 616 735 623 757 623 C785 623 809 612 806 579 C805 560 788 535 778 515 C762 488 752 462 743 435 C727 404 708 373 698 341 C689 309 684 276 673 244 C662 210 643 114 624 57 C613 29 601 6 583 -8 C539 -44 411 -50 367 -50 C353 -50 337 -51 319 -54 C262 -63 216 -74 156 -72 C109 -71 38 -43 40 4 C41 95 88 195 112 282 C119 303 124 322 131 342 C143 376 157 408 175 442 C200 491 243 568 302 590 C321 598 362 589 372 582 C389 567 411 550 397 525 C354 434 312 350 283 269 C268 227 249 168 240 132 L227 70 C227 70 309 66 365 83 L365 83 Z M496 741 C505 725 507 709 500 692 C497 682 491 672 480 662 C474 656 462 654 453 651 C441 648 429 648 415 647 C407 645 400 644 393 650 C382 663 378 682 378 699 C381 727 423 742 448 748 C457 751 469 752 477 751 C485 751 490 748 496 741 L496 741 Z M706 739 C701 750 685 759 675 765 C661 774 647 767 635 758 C621 750 606 742 591 733 C584 728 579 722 576 712 C572 700 569 680 580 670 C588 662 605 655 617 655 C636 656 657 673 674 683 C694 694 711 727 706 739 L706 739 Z " />
<glyph glyph-name="yacute" unicode="&#xfd;" horiz-adv-x="647" d="M801 552 C804 571 791 614 770 624 C745 634 700 648 677 636 C658 625 638 607 624 592 C569 529 500 474 439 405 C426 425 428 419 410 444 C394 465 385 496 374 521 C364 545 359 559 340 581 C323 600 290 599 264 599 C238 599 230 593 222 569 C218 558 215 546 218 538 C219 520 229 501 235 484 C257 429 274 417 303 366 C314 346 327 323 335 301 C324 289 276 219 264 206 C225 159 162 110 147 50 C142 28 150 -27 160 -48 C171 -73 211 -82 233 -73 C260 -62 272 -46 286 -24 C311 12 344 44 371 80 C403 124 442 164 478 205 C509 241 545 278 576 315 C611 353 642 392 681 423 C710 446 738 465 764 491 C781 510 799 525 801 552 L801 552 Z M502 698 C482 691 464 683 441 678 C428 674 404 671 391 662 C390 658 384 647 384 642 C384 630 389 617 403 611 C414 607 431 605 447 606 C482 608 524 617 555 628 C572 634 606 649 619 667 C624 674 626 698 619 704 C609 713 588 723 574 724 C555 723 525 705 502 698 L502 698 Z " />
<glyph glyph-name="thorn" unicode="&#xfe;" horiz-adv-x="702" d="M701 388 C674 437 629 447 574 447 C560 447 546 447 530 446 C473 444 435 435 380 430 C389 450 397 469 407 490 C419 518 421 553 415 582 C410 607 401 634 369 634 C341 634 291 632 276 606 C271 596 265 585 261 574 C253 552 249 529 238 509 C221 478 204 447 188 416 C158 347 121 282 91 213 C89 205 82 190 76 171 C42 78 -12 -114 87 -95 C113 -90 163 -79 175 -56 C186 -28 191 1 201 32 C204 44 208 57 213 69 C251 61 272 56 310 56 C326 56 341 57 356 58 C419 62 483 78 540 105 C585 127 634 148 664 188 C682 211 696 236 705 263 C721 304 723 349 701 388 L701 388 Z M552 285 C504 208 448 187 359 187 C327 187 294 190 264 194 C280 233 297 265 316 297 C342 296 349 297 374 298 C413 299 436 303 474 308 C505 313 535 310 566 312 C562 303 556 293 552 285 L552 285 Z " />
<glyph glyph-name="ydieresis" unicode="&#xff;" horiz-adv-x="647" d="M769 552 C767 525 749 510 732 491 C706 465 678 446 649 423 C610 392 579 353 544 315 C513 278 477 241 446 205 C410 164 371 124 339 80 C312 44 279 12 254 -24 C240 -46 228 -62 201 -73 C179 -82 139 -73 128 -48 C118 -27 110 28 115 50 C130 110 193 159 232 206 C244 219 292 289 303 301 C295 323 282 346 271 366 C242 417 225 429 203 484 C197 501 187 520 186 538 C183 546 186 558 190 569 C198 593 206 599 232 599 C258 599 291 600 308 581 C327 559 332 545 342 521 C353 496 362 465 378 444 C396 419 394 425 407 405 C468 474 537 529 592 592 C606 607 626 625 645 636 C668 648 713 634 738 624 C759 614 772 571 769 552 L769 552 Z M451 746 C460 730 462 714 455 697 C452 687 446 677 435 667 C429 661 417 659 408 656 C396 653 384 653 370 652 C362 650 355 649 348 655 C337 668 333 687 333 704 C336 732 378 747 403 753 C412 756 424 757 432 756 C440 756 445 753 451 746 L451 746 Z M661 744 C656 755 640 764 630 770 C616 779 602 772 590 763 C576 755 561 747 546 738 C539 733 534 727 531 717 C527 705 524 685 535 675 C543 667 560 660 572 660 C591 661 612 678 629 688 C649 699 666 732 661 744 L661 744 Z " />
<glyph glyph-name="Amacron" unicode="&#x100;" horiz-adv-x="739" d="M617 623 C592 623 541 604 517 592 C487 578 461 559 435 537 C372 486 313 430 257 370 C179 284 113 213 62 121 C45 91 30 73 9 44 C-6 22 -29 -10 -30 -34 C-29 -65 30 -77 60 -77 C115 -77 187 35 205 68 C274 77 316 93 386 105 C416 110 476 118 506 120 C504 95 499 68 492 41 C488 19 475 -16 481 -33 C486 -48 503 -67 517 -69 C571 -79 616 -25 631 24 C656 97 682 153 687 227 C691 298 682 398 684 470 C686 532 695 624 617 623 L617 623 Z M424 233 C378 225 355 211 313 211 C352 257 391 299 435 342 C468 374 502 403 530 425 C533 398 533 372 533 338 C533 305 537 279 531 245 C508 247 448 238 424 233 L424 233 Z M826 788 C817 791 807 787 796 786 C779 783 760 779 741 779 C716 777 562 763 539 759 C520 757 500 754 482 748 C471 746 453 742 449 726 C446 719 441 705 442 697 C444 684 462 672 472 671 C478 668 489 672 498 673 C517 676 536 677 554 678 C589 682 757 696 794 701 C808 703 830 705 841 720 C848 730 859 752 858 765 C857 780 836 786 826 788 L826 788 Z " />
<glyph glyph-name="amacron" unicode="&#x101;" horiz-adv-x="722" d="M704 562 C696 592 667 636 625 630 C603 627 573 617 553 607 C537 598 518 590 502 582 C471 566 443 538 416 519 C377 488 290 433 257 399 C232 373 205 343 182 316 C161 293 144 267 120 244 C71 190 24 125 4 69 C-7 38 -15 -15 11 -42 C23 -56 83 -51 98 -42 C135 -22 157 21 176 48 C187 65 199 85 211 103 C240 108 273 122 302 128 C354 138 404 150 454 155 C481 158 505 159 526 159 C522 144 520 131 518 118 C516 105 515 92 514 80 C512 62 505 12 508 -5 C514 -19 539 -48 555 -56 C570 -63 591 -52 602 -42 C618 -29 634 -17 640 0 C648 19 656 64 662 85 C678 128 679 178 681 217 C682 244 680 272 684 299 C691 348 694 396 701 446 C705 467 708 485 710 507 C708 524 708 545 704 562 L704 562 Z M508 269 C497 270 486 271 474 271 C449 271 422 268 396 264 C374 261 351 254 327 252 C361 298 409 339 457 378 C495 409 507 416 555 438 C552 375 552 304 538 265 C522 267 524 269 508 269 L508 269 Z M812 775 C803 778 793 774 782 773 C765 770 746 766 727 766 C702 764 548 750 525 746 C506 744 486 741 468 735 C457 733 439 729 435 713 C432 706 427 692 428 684 C430 671 448 659 458 658 C464 655 475 659 484 660 C503 663 522 664 540 665 C575 669 743 683 780 688 C794 690 816 692 827 707 C834 717 845 739 844 752 C843 767 822 773 812 775 L812 775 Z " />
<glyph glyph-name="Abreve" unicode="&#x102;" horiz-adv-x="706" d="M617 623 C592 623 541 604 517 592 C487 578 461 559 435 537 C372 486 313 430 257 370 C179 284 113 213 62 121 C45 91 30 73 9 44 C-6 22 -29 -10 -30 -34 C-29 -65 30 -77 60 -77 C115 -77 187 35 205 68 C274 77 316 93 386 105 C416 110 476 118 506 120 C504 95 499 68 492 41 C488 19 475 -16 481 -33 C486 -48 503 -67 517 -69 C571 -79 616 -25 631 24 C656 97 682 153 687 227 C691 298 682 398 684 470 C686 532 695 624 617 623 L617 623 Z M424 233 C378 225 355 211 313 211 C352 257 391 299 435 342 C468 374 502 403 530 425 C533 398 533 372 533 338 C533 305 537 279 531 245 C508 247 448 238 424 233 L424 233 Z M491 760 C488 746 487 727 494 713 C505 698 522 690 540 683 C566 673 598 668 628 668 C641 668 659 672 673 674 C728 683 782 725 809 769 C817 784 838 813 829 824 C821 834 808 840 793 840 C776 840 764 843 751 832 C732 815 722 793 705 776 C688 761 672 747 649 743 C628 740 604 740 582 742 C592 769 635 816 632 832 C633 844 611 851 600 853 C582 857 562 853 548 845 C522 830 493 781 491 760 L491 760 Z " />
<glyph glyph-name="abreve" unicode="&#x103;" horiz-adv-x="714" d="M704 562 C696 592 667 636 625 630 C603 627 573 617 553 607 C537 598 518 590 502 582 C471 566 443 538 416 519 C377 488 290 433 257 399 C232 373 205 343 182 316 C161 293 144 267 120 244 C71 190 24 125 4 69 C-7 38 -15 -15 11 -42 C23 -56 83 -51 98 -42 C135 -22 157 21 176 48 C187 65 199 85 211 103 C240 108 273 122 302 128 C354 138 404 150 454 155 C481 158 505 159 526 159 C522 144 520 131 518 118 C516 105 515 92 514 80 C512 62 505 12 508 -5 C514 -19 539 -48 555 -56 C570 -63 591 -52 602 -42 C618 -29 634 -17 640 0 C648 19 656 64 662 85 C678 128 679 178 681 217 C682 244 680 272 684 299 C691 348 694 396 701 446 C705 467 708 485 710 507 C708 524 708 545 704 562 L704 562 Z M508 269 C497 270 486 271 474 271 C449 271 422 268 396 264 C374 261 351 254 327 252 C361 298 409 339 457 378 C495 409 507 416 555 438 C552 375 552 304 538 265 C522 267 524 269 508 269 L508 269 Z M510 757 C507 743 506 724 513 710 C524 695 541 687 559 680 C585 670 617 665 647 665 C660 665 678 669 692 671 C747 680 801 722 828 766 C836 781 857 810 848 821 C840 831 827 837 812 837 C795 837 783 840 770 829 C751 812 741 790 724 773 C707 758 691 744 668 740 C647 737 623 737 601 739 C611 766 654 813 651 829 C652 841 630 848 619 850 C601 854 581 850 567 842 C541 827 512 778 510 757 L510 757 Z " />
<glyph glyph-name="Aogonek" unicode="&#x104;" horiz-adv-x="739" d="M510 21 C484 21 453 -12 440 -34 C430 -50 419 -69 415 -87 C405 -119 398 -152 419 -173 C437 -190 455 -213 482 -219 C510 -224 563 -210 590 -196 C605 -188 629 -173 638 -156 C657 -119 618 -84 575 -101 C548 -110 533 -128 504 -126 C501 -96 547 -75 569 -51 C571 -53 573 -55 576 -56 C591 -63 612 -52 624 -42 C639 -29 654 -17 661 0 C669 19 676 64 683 85 C698 128 700 178 702 217 C703 244 702 272 705 299 C712 348 715 396 722 446 C726 467 729 485 730 507 C729 524 729 545 725 562 C718 592 687 636 646 630 C624 627 594 617 574 607 C558 598 539 590 522 582 C492 566 464 538 437 519 C398 488 311 433 278 399 C253 373 227 343 202 316 C182 293 165 267 141 244 C92 190 45 125 26 69 C15 38 4 -15 33 -42 C44 -56 107 -51 122 -42 C158 -22 180 21 199 48 C210 65 222 85 234 103 C262 108 325 124 338 127 C405 140 425 150 476 155 C503 158 526 159 547 159 L540 118 C537 105 536 92 535 80 C533 68 529 45 529 24 L510 21 Z M530 269 C518 270 507 271 495 271 C470 271 443 268 417 264 C395 261 368 246 344 244 C378 290 412 315 460 354 C498 385 527 399 575 421 C577 374 573 304 559 265 C543 267 546 269 530 269 L530 269 Z " />
<glyph glyph-name="aogonek" unicode="&#x105;" horiz-adv-x="722" d="M475 10 C448 10 418 -23 405 -45 C395 -61 384 -80 380 -98 C369 -130 363 -162 384 -184 C402 -201 420 -224 447 -230 C475 -235 528 -221 553 -207 C570 -199 594 -184 602 -167 C620 -130 583 -95 540 -112 C513 -121 497 -139 469 -137 C465 -109 502 -90 525 -69 L526 -69 C581 -79 626 -25 640 24 C664 97 691 153 696 227 C700 298 692 398 693 470 C696 532 704 624 626 623 C601 623 551 604 526 592 C496 578 470 559 443 537 C382 486 322 430 267 370 C189 284 123 213 71 121 C54 91 38 73 19 44 C4 22 -20 -10 -20 -34 C-19 -65 47 -78 77 -78 C132 -78 204 34 222 67 C290 76 326 93 396 105 C425 110 486 118 516 120 C514 95 509 68 502 41 L495 13 L475 10 Z M432 233 C388 225 367 210 325 210 C364 256 402 298 446 341 C480 373 514 411 543 433 C547 398 545 278 540 245 C518 247 458 238 432 233 L432 233 Z " />
<glyph glyph-name="Cacute" unicode="&#x106;" horiz-adv-x="755" d="M810 453 C828 487 822 540 804 572 C796 581 785 592 773 601 C761 608 752 613 743 617 C718 628 687 634 654 629 C515 607 322 515 222 407 C177 358 146 326 110 275 C79 228 61 194 47 158 C42 144 38 131 34 116 C30 89 37 48 47 26 C79 -42 175 -61 271 -60 C322 -58 406 -46 459 -29 C498 -16 595 26 634 48 C656 60 694 83 702 102 C713 126 693 165 668 166 C638 167 621 163 592 150 C526 121 381 78 310 78 C297 78 283 78 270 81 C258 83 237 91 233 100 C226 113 229 129 234 146 C241 163 250 181 261 197 C304 265 326 288 386 350 C460 409 570 470 665 478 C688 467 695 463 708 440 C718 419 732 411 760 418 C777 423 801 438 810 453 L810 453 Z M750 765 C730 758 712 750 689 745 C676 741 652 738 639 729 C638 725 632 714 632 709 C632 697 637 684 651 678 C662 674 679 672 695 673 C730 675 772 684 803 695 C820 701 854 716 867 734 C872 741 874 765 867 771 C857 780 836 790 822 791 C803 790 773 772 750 765 L750 765 Z " />
<glyph glyph-name="cacute" unicode="&#x107;" horiz-adv-x="803" d="M814 581 C789 595 761 602 732 602 C682 602 594 582 536 555 C466 524 406 495 348 453 C272 399 141 315 94 247 C77 223 61 194 51 165 C45 150 41 137 41 124 C38 85 52 38 69 6 C91 -34 191 -53 212 -59 C251 -69 286 -75 323 -75 C345 -75 367 -73 394 -68 C457 -56 483 -50 544 -22 C592 -1 658 27 700 52 C725 67 755 91 759 115 C765 145 756 190 721 185 C694 182 651 158 624 148 C554 124 509 91 437 75 C380 63 362 58 336 58 C306 58 287 63 271 69 C250 76 215 105 218 130 C227 201 405 317 467 355 C520 389 624 430 681 452 C714 464 745 462 768 433 C785 410 803 398 823 398 C837 398 854 405 872 419 C887 431 891 450 889 466 C882 498 839 567 814 581 L814 581 Z M757 740 C737 733 719 725 696 720 C683 716 659 713 646 704 C645 700 639 689 639 684 C639 672 644 659 658 653 C669 649 686 647 702 648 C737 650 779 659 810 670 C827 676 861 691 874 709 C879 716 881 740 874 746 C864 755 843 765 829 766 C810 765 780 747 757 740 L757 740 Z " />
<glyph glyph-name="Ccircumflex" unicode="&#x108;" horiz-adv-x="755" d="M810 453 C801 438 777 423 760 418 C732 411 718 419 708 440 C695 463 688 467 665 478 C570 470 460 409 386 350 C326 288 304 265 261 197 C250 181 241 163 234 146 C229 129 226 113 233 100 C237 91 258 83 270 81 C283 78 297 78 310 78 C381 78 526 121 592 150 C621 163 638 167 668 166 C693 165 713 126 702 102 C694 83 656 60 634 48 C595 26 498 -16 459 -29 C406 -46 322 -58 271 -60 C175 -61 79 -42 47 26 C37 48 30 89 34 116 C38 131 42 144 47 158 C61 194 79 228 110 275 C146 326 177 358 222 407 C322 515 515 607 654 629 C687 634 718 628 743 617 C752 613 761 608 773 601 C785 592 796 581 804 572 C822 540 828 487 810 453 L810 453 Z M790 730 C787 738 781 744 775 752 C767 766 762 782 755 797 C751 805 750 820 743 826 C738 833 722 834 714 834 C697 834 688 829 676 822 C663 812 649 804 634 795 C611 781 590 764 566 749 C535 732 506 717 484 691 C476 671 485 663 501 658 C525 649 564 662 585 674 C604 685 620 695 639 707 C653 715 667 730 682 734 C692 724 696 715 704 704 C718 683 734 671 764 667 C770 666 783 673 789 678 C796 684 804 691 805 701 C804 712 795 720 790 730 L790 730 Z " />
<glyph glyph-name="ccircumflex" unicode="&#x109;" horiz-adv-x="803" d="M814 581 C789 595 761 602 732 602 C682 602 594 582 536 555 C466 524 406 495 348 453 C272 399 141 315 94 247 C77 223 61 194 51 165 C45 150 41 137 41 124 C38 85 52 38 69 6 C91 -34 191 -53 212 -59 C251 -69 286 -75 323 -75 C345 -75 367 -73 394 -68 C457 -56 483 -50 544 -22 C592 -1 658 27 700 52 C725 67 755 91 759 115 C765 145 756 190 721 185 C694 182 651 158 624 148 C554 124 509 91 437 75 C380 63 362 58 336 58 C306 58 287 63 271 69 C250 76 215 105 218 130 C227 201 405 317 467 355 C520 389 624 430 681 452 C714 464 745 462 768 433 C785 410 803 398 823 398 C837 398 854 405 872 419 C887 431 891 450 889 466 C882 498 839 567 814 581 L814 581 Z M833 701 C830 709 824 715 818 723 C810 737 805 753 798 768 C794 776 793 791 786 797 C781 804 765 805 757 805 C740 805 731 800 719 793 C706 783 692 775 677 766 C654 752 633 735 609 720 C578 703 549 688 527 662 C519 642 528 634 544 629 C568 620 607 633 628 645 C647 656 663 666 682 678 C696 686 710 701 725 705 C735 695 739 686 747 675 C761 654 777 642 807 638 C813 637 826 644 832 649 C839 655 847 662 848 672 C847 683 838 691 833 701 L833 701 Z " />
<glyph glyph-name="Cdotaccent" unicode="&#x10a;" horiz-adv-x="755" d="M810 453 C828 487 822 540 804 572 C796 581 785 592 773 601 C761 608 752 613 743 617 C718 628 687 634 654 629 C515 607 322 515 222 407 C177 358 146 326 110 275 C79 228 61 194 47 158 C42 144 38 131 34 116 C30 89 37 48 47 26 C79 -42 175 -61 271 -60 C322 -58 406 -46 459 -29 C498 -16 595 26 634 48 C656 60 694 83 702 102 C713 126 693 165 668 166 C638 167 621 163 592 150 C526 121 381 78 310 78 C297 78 283 78 270 81 C258 83 237 91 233 100 C226 113 229 129 234 146 C241 163 250 181 261 197 C304 265 326 288 386 350 C460 409 570 470 665 478 C688 467 695 463 708 440 C718 419 732 411 760 418 C777 423 801 438 810 453 L810 453 Z M732 768 C727 775 722 778 714 778 C705 779 694 778 685 775 C660 769 618 754 615 726 C614 709 618 690 630 677 C637 671 642 672 652 674 C664 675 677 675 689 678 C697 681 711 683 717 689 C727 699 733 709 737 719 C743 736 740 752 732 768 L732 768 Z " />
<glyph glyph-name="cdotaccent" unicode="&#x10b;" horiz-adv-x="803" d="M814 581 C789 595 761 602 732 602 C682 602 594 582 536 555 C466 524 406 495 348 453 C272 399 141 315 94 247 C77 223 61 194 51 165 C45 150 41 137 41 124 C38 85 52 38 69 6 C91 -34 191 -53 212 -59 C251 -69 286 -75 323 -75 C345 -75 367 -73 394 -68 C457 -56 483 -50 544 -22 C592 -1 658 27 700 52 C725 67 755 91 759 115 C765 145 756 190 721 185 C694 182 651 158 624 148 C554 124 509 91 437 75 C380 63 362 58 336 58 C306 58 287 63 271 69 C250 76 215 105 218 130 C227 201 405 317 467 355 C520 389 624 430 681 452 C714 464 745 462 768 433 C785 410 803 398 823 398 C837 398 854 405 872 419 C887 431 891 450 889 466 C882 498 839 567 814 581 L814 581 Z M780 741 C775 748 770 751 762 751 C753 752 742 751 733 748 C708 742 666 727 663 699 C662 682 666 663 678 650 C685 644 690 645 700 647 C712 648 725 648 737 651 C745 654 759 656 765 662 C775 672 781 682 785 692 C791 709 788 725 780 741 L780 741 Z " />
<glyph glyph-name="Ccaron" unicode="&#x10c;" horiz-adv-x="755" d="M810 453 C801 438 777 423 760 418 C732 411 718 419 708 440 C695 463 688 467 665 478 C570 470 460 409 386 350 C326 288 304 265 261 197 C250 181 241 163 234 146 C229 129 226 113 233 100 C237 91 258 83 270 81 C283 78 297 78 310 78 C381 78 526 121 592 150 C621 163 638 167 668 166 C693 165 713 126 702 102 C694 83 656 60 634 48 C595 26 498 -16 459 -29 C406 -46 322 -58 271 -60 C175 -61 79 -42 47 26 C37 48 30 89 34 116 C38 131 42 144 47 158 C61 194 79 228 110 275 C146 326 177 358 222 407 C322 515 515 607 654 629 C687 634 718 628 743 617 C752 613 761 608 773 601 C785 592 796 581 804 572 C822 540 828 487 810 453 L810 453 Z M616 754 C626 741 630 724 637 709 C642 701 643 688 648 680 C655 674 671 672 680 672 C694 672 705 677 717 685 C754 708 790 735 826 757 C853 771 892 791 907 815 C923 833 903 844 892 848 C866 858 829 844 807 832 C788 822 774 811 753 800 C739 791 724 775 709 772 C699 782 696 791 689 803 C676 824 656 838 628 840 C621 840 608 833 604 828 C596 822 588 815 589 805 C589 784 607 770 616 754 L616 754 Z " />
<glyph glyph-name="ccaron" unicode="&#x10d;" horiz-adv-x="803" d="M814 581 C789 595 761 602 732 602 C682 602 594 582 536 555 C466 524 406 495 348 453 C272 399 141 315 94 247 C77 223 61 194 51 165 C45 150 41 137 41 124 C38 85 52 38 69 6 C91 -34 191 -53 212 -59 C251 -69 286 -75 323 -75 C345 -75 367 -73 394 -68 C457 -56 483 -50 544 -22 C592 -1 658 27 700 52 C725 67 755 91 759 115 C765 145 756 190 721 185 C694 182 651 158 624 148 C554 124 509 91 437 75 C380 63 362 58 336 58 C306 58 287 63 271 69 C250 76 215 105 218 130 C227 201 405 317 467 355 C520 389 624 430 681 452 C714 464 745 462 768 433 C785 410 803 398 823 398 C837 398 854 405 872 419 C887 431 891 450 889 466 C882 498 839 567 814 581 L814 581 Z M638 722 C648 709 652 692 659 677 C664 669 665 656 670 648 C677 642 693 640 702 640 C716 640 727 645 739 653 C776 676 812 703 848 725 C875 739 914 759 929 783 C945 801 925 812 914 816 C888 826 851 812 829 800 C810 790 796 779 775 768 C761 759 746 743 731 740 C721 750 718 759 711 771 C698 792 678 806 650 808 C643 808 630 801 626 796 C618 790 610 783 611 773 C611 752 629 738 638 722 L638 722 Z " />
<glyph glyph-name="Dcaron" unicode="&#x10e;" horiz-adv-x="778" d="M811 480 C781 518 713 576 654 583 C605 590 558 600 507 602 C495 603 483 603 471 603 C439 603 406 600 373 596 C326 590 233 585 198 541 C190 530 184 520 180 511 C168 475 185 446 176 399 C172 381 166 361 159 342 C141 291 114 239 97 193 C87 165 75 141 67 114 C55 72 40 30 43 -8 C42 -23 45 -44 54 -55 C66 -70 110 -92 127 -80 C274 16 430 64 575 142 C656 185 751 225 802 312 C812 328 821 345 826 361 C842 405 839 445 811 480 L811 480 Z M660 364 C619 313 564 288 516 263 C488 249 460 235 432 222 C405 209 376 197 349 186 C337 181 261 152 260 152 C259 188 272 193 284 225 C299 270 320 310 332 350 C341 381 356 426 353 459 C423 485 495 465 561 456 C586 452 679 428 679 404 C678 388 668 380 660 364 L660 364 Z M515 730 C525 717 529 700 536 685 C541 677 542 664 547 656 C554 650 570 648 579 648 C593 648 604 653 616 661 C653 684 689 711 725 733 C752 747 791 767 806 791 C822 809 802 820 791 824 C765 834 728 820 706 808 C687 798 673 787 652 776 C638 767 623 751 608 748 C598 758 595 767 588 779 C575 800 555 814 527 816 C520 816 507 809 503 804 C495 798 487 791 488 781 C488 760 506 746 515 730 L515 730 Z " />
<glyph glyph-name="dcaron" unicode="&#x10f;" horiz-adv-x="771" d="M846 476 C821 536 718 589 652 610 C634 615 613 617 585 617 C517 617 429 602 382 594 C350 589 320 582 290 573 C229 558 222 490 200 446 C178 407 158 372 145 335 C135 307 128 278 120 248 C117 234 112 219 107 205 C92 165 75 127 61 87 C53 67 46 45 43 23 C37 2 26 -30 33 -50 C43 -65 80 -81 100 -82 C159 -85 202 -61 252 -33 C282 -16 316 1 344 15 C446 58 579 115 670 187 C710 218 750 255 777 291 C800 322 831 362 840 400 C846 422 855 456 846 476 L846 476 Z M664 387 C652 353 625 352 598 325 C552 280 463 242 405 210 C371 190 356 176 321 158 C297 146 247 122 247 122 C247 122 255 143 258 154 C280 211 305 266 327 323 C343 363 362 405 376 445 C379 455 383 463 383 463 C383 463 392 461 407 463 C433 465 522 475 549 473 C596 470 634 464 679 453 C683 433 673 406 664 387 L664 387 Z M526 748 C536 735 540 718 547 703 C552 695 552 681 559 674 C565 668 581 665 590 665 C604 665 614 670 626 679 C664 702 698 728 736 750 C762 765 801 784 816 808 C833 827 813 838 801 841 C776 852 739 838 717 825 C698 816 683 805 664 794 C648 784 632 768 618 766 C609 776 605 784 598 796 C585 818 566 832 538 834 C531 834 518 827 514 822 C506 816 497 808 498 799 C498 778 517 764 526 748 L526 748 Z " />
<glyph glyph-name="Dcroat" unicode="&#x110;" horiz-adv-x="778" d="M847 478 C822 537 721 590 657 610 C626 618 593 622 559 622 C518 622 476 617 440 611 C410 606 378 599 349 590 C291 575 283 508 261 465 C248 442 235 421 226 398 C220 387 217 377 212 366 C199 365 186 362 173 359 C143 350 118 349 96 321 C88 313 88 305 86 296 C84 284 81 268 84 257 C87 245 94 246 103 244 C114 242 128 241 140 241 C153 241 165 242 176 246 C161 201 139 156 123 112 C116 90 110 69 106 47 C101 27 88 -5 98 -24 C107 -40 143 -56 162 -56 C223 -59 264 -35 312 -7 C342 10 375 25 404 39 C454 61 503 74 544 104 C587 133 634 161 673 193 C712 223 752 259 779 296 C802 327 831 366 839 402 C846 424 855 458 847 478 L847 478 Z M668 389 C654 356 635 335 607 309 C562 264 508 235 450 202 C416 184 380 167 345 149 C320 137 273 114 273 114 C273 114 287 159 293 170 C304 200 316 229 329 258 C369 259 421 261 454 270 C474 276 484 285 494 308 C501 328 507 352 490 364 C474 375 455 382 437 385 C419 389 400 389 382 388 C391 411 400 434 408 457 C413 468 411 469 425 474 C436 479 453 480 465 481 C477 482 492 484 505 484 C518 484 529 482 542 482 C591 480 637 465 682 456 C687 435 674 408 668 389 L668 389 Z " />
<glyph glyph-name="dcroat" unicode="&#x111;" horiz-adv-x="868" d="M883 435 C866 462 842 480 817 502 C790 530 768 549 729 559 C679 570 631 584 581 592 C553 596 525 598 496 598 C481 598 463 598 447 596 C398 595 307 599 272 554 C263 543 257 534 254 524 C241 487 258 455 250 406 C245 388 240 370 233 350 C217 348 198 345 182 341 C151 332 124 331 102 303 C97 295 94 287 92 278 C91 265 88 250 91 239 C94 227 100 228 109 225 C119 224 128 219 137 219 C148 219 172 223 183 228 C178 217 174 206 170 196 C159 168 148 143 140 115 C133 93 127 73 123 50 C120 29 114 10 114 -11 C116 -27 119 -48 128 -61 C139 -79 183 -104 201 -95 C348 -6 505 30 649 101 C728 139 825 172 876 258 C884 274 892 290 898 305 C914 352 912 395 883 435 L883 435 Z M733 307 C705 255 639 230 588 208 C562 196 533 188 507 177 C479 165 451 154 422 145 C400 138 375 132 353 125 C335 120 317 115 301 108 C298 121 305 136 310 150 C318 171 324 192 332 212 C335 222 340 230 343 240 C382 241 431 244 462 252 C481 258 492 267 499 290 C508 310 514 333 495 345 C480 356 462 364 443 367 C426 371 408 372 389 370 C398 398 405 428 402 452 C426 462 460 459 483 462 C509 463 537 457 562 450 C584 442 610 439 634 433 C661 425 755 393 751 367 C750 348 741 325 733 307 L733 307 Z " />
<glyph glyph-name="Emacron" unicode="&#x112;" horiz-adv-x="713" d="M838 554 C815 507 794 498 767 498 C751 498 735 501 713 502 C686 503 659 502 632 498 C545 496 423 498 344 462 C326 422 314 391 306 349 C319 353 332 358 346 363 C408 386 464 390 527 390 C561 390 595 388 623 385 C656 382 707 378 721 345 C727 330 719 321 711 307 C697 291 681 276 663 267 C649 257 625 258 607 263 C590 268 574 270 554 270 C494 270 408 260 348 244 C313 234 297 229 263 215 C244 178 213 137 213 96 C310 119 402 146 496 150 C537 153 601 152 613 108 C620 88 605 64 588 50 C573 34 548 35 529 33 C438 17 394 5 315 -11 C263 -22 190 -30 137 -59 C123 -67 100 -73 79 -73 C68 -73 58 -71 50 -68 C36 -62 18 -48 10 -36 C0 -18 2 2 9 23 C18 46 33 70 40 91 C55 141 86 188 103 239 C119 284 125 330 139 376 C141 386 144 397 147 407 C157 434 170 460 185 485 C201 514 215 550 241 575 C253 588 271 587 286 590 C331 599 375 610 420 618 C469 627 607 633 654 633 C713 634 784 633 834 607 C858 595 850 577 838 554 L838 554 Z M797 803 C788 806 778 802 767 801 C750 798 731 794 712 794 C687 792 533 778 510 774 C491 772 471 769 453 763 C442 761 424 757 420 741 C417 734 412 720 413 712 C415 699 433 687 443 686 C449 683 460 687 469 688 C488 691 507 692 525 693 C560 697 728 711 765 716 C779 718 801 720 812 735 C819 745 830 767 829 780 C828 795 807 801 797 803 L797 803 Z " />
<glyph glyph-name="emacron" unicode="&#x113;" horiz-adv-x="725" d="M169 420 C158 388 150 358 139 327 C113 257 77 191 55 120 C45 94 38 66 29 39 C24 26 16 11 12 -3 C8 -14 5 -24 5 -35 C5 -69 33 -77 64 -77 C89 -77 117 -71 131 -67 C261 -35 375 -24 480 -18 C509 -17 542 -21 564 -2 C577 9 587 20 593 33 C595 42 595 51 594 63 C591 95 562 95 532 99 C515 101 496 102 477 102 C415 102 349 90 288 85 C245 82 238 79 198 69 C206 87 232 150 242 177 C318 205 402 213 471 219 C506 222 542 225 577 227 C604 228 632 216 657 228 C676 238 690 267 697 287 C707 308 697 339 671 347 C643 354 617 356 588 354 C493 351 397 341 305 320 C313 337 345 421 345 421 C345 421 393 437 408 442 C484 466 615 490 696 490 C712 490 725 489 736 487 C766 482 785 471 812 490 C826 500 834 513 839 528 C851 562 840 602 798 607 C761 611 739 617 705 615 C569 620 436 579 296 546 C267 539 235 533 211 513 C199 501 191 489 186 474 C179 457 177 439 169 420 L169 420 Z M784 777 C775 780 765 776 754 775 C737 772 718 768 699 768 C674 766 520 752 497 748 C478 746 458 743 440 737 C429 735 411 731 407 715 C404 708 399 694 400 686 C402 673 420 661 430 660 C436 657 447 661 456 662 C475 665 494 666 512 667 C547 671 715 685 752 690 C766 692 788 694 799 709 C806 719 817 741 816 754 C815 769 794 775 784 777 L784 777 Z " />
<glyph glyph-name="Eogonek" unicode="&#x118;" horiz-adv-x="713" d="M846 554 C858 577 866 595 842 607 C792 633 721 634 662 633 C615 633 476 627 428 618 C383 610 339 599 294 590 C278 587 261 588 249 575 C222 550 209 514 193 485 C178 460 165 434 155 407 C152 397 148 386 146 376 C133 330 127 284 111 239 C94 188 63 141 47 91 C41 70 25 46 16 23 C10 2 7 -18 18 -36 C25 -48 44 -62 57 -68 C66 -71 76 -73 87 -73 C108 -73 131 -67 145 -59 C175 -42 215 -32 250 -24 C239 -58 232 -91 254 -113 C272 -130 290 -153 316 -159 C345 -164 399 -149 424 -136 C440 -127 463 -113 472 -96 C491 -58 453 -23 410 -40 C384 -50 367 -68 339 -65 C365 15 452 18 537 33 C555 35 581 34 596 50 C613 64 628 88 620 108 C608 152 544 153 504 150 C449 148 359 125 302 118 C267 113 270 109 227 100 C227 111 230 122 235 134 C246 164 264 195 276 219 C310 233 297 230 332 240 C392 256 502 270 562 270 C582 270 597 268 615 263 C632 258 657 257 671 267 C689 276 705 291 718 307 C727 321 735 330 728 345 C715 378 663 382 630 385 C603 388 569 390 535 390 C458 390 430 393 360 367 C346 362 332 357 319 353 C323 367 324 379 326 391 C332 412 358 466 358 466 C358 466 399 477 419 484 C481 506 577 492 640 498 C667 502 694 503 721 502 C743 501 759 498 774 498 C802 498 823 507 846 554 L846 554 Z " />
<glyph glyph-name="eogonek" unicode="&#x119;" horiz-adv-x="725" d="M176 405 C165 373 156 343 145 312 C120 242 84 176 62 105 C53 79 45 51 36 24 C31 11 24 -4 19 -18 C14 -29 12 -39 13 -50 C13 -84 40 -92 70 -92 C96 -92 123 -86 137 -82 C172 -74 205 -67 237 -61 C224 -97 219 -130 240 -152 C257 -168 276 -192 302 -198 C331 -202 385 -188 409 -175 C426 -166 449 -152 458 -135 C476 -97 439 -62 396 -79 C370 -88 353 -107 324 -104 C322 -79 354 -61 377 -41 C414 -38 452 -34 486 -33 C516 -32 549 -36 571 -17 C584 -6 594 5 599 18 C603 27 603 36 601 48 C597 80 569 80 539 84 C521 86 503 87 484 87 C421 87 355 75 296 70 C253 67 252 71 213 61 C223 83 230 105 239 127 C245 136 257 169 257 169 C257 169 280 175 297 180 C374 199 413 198 477 204 C513 207 549 210 584 212 C610 213 639 201 663 213 C683 223 696 252 704 272 C714 293 704 324 678 332 C650 339 625 341 595 339 C499 336 412 333 319 312 C328 329 360 413 360 413 C360 413 399 422 416 427 C491 451 621 475 703 475 C718 475 732 474 743 472 C773 467 792 456 818 475 C833 485 842 498 847 513 C859 547 848 587 804 592 C768 596 746 602 712 600 C575 605 442 564 302 531 C274 524 242 518 219 498 C206 486 198 474 193 459 C186 442 185 424 176 405 L176 405 Z " />
<glyph glyph-name="Ecaron" unicode="&#x11a;" horiz-adv-x="713" d="M838 554 C815 507 794 498 767 498 C751 498 735 501 713 502 C686 503 659 502 632 498 C545 496 423 498 344 462 C326 422 314 391 306 349 C319 353 332 358 346 363 C408 386 464 390 527 390 C561 390 595 388 623 385 C656 382 707 378 721 345 C727 330 719 321 711 307 C697 291 681 276 663 267 C649 257 625 258 607 263 C590 268 574 270 554 270 C494 270 408 260 348 244 C313 234 297 229 263 215 C244 178 213 137 213 96 C310 119 402 146 496 150 C537 153 601 152 613 108 C620 88 605 64 588 50 C573 34 548 35 529 33 C438 17 394 5 315 -11 C263 -22 190 -30 137 -59 C123 -67 100 -73 79 -73 C68 -73 58 -71 50 -68 C36 -62 18 -48 10 -36 C0 -18 2 2 9 23 C18 46 33 70 40 91 C55 141 86 188 103 239 C119 284 125 330 139 376 C141 386 144 397 147 407 C157 434 170 460 185 485 C201 514 215 550 241 575 C253 588 271 587 286 590 C331 599 375 610 420 618 C469 627 607 633 654 633 C713 634 784 633 834 607 C858 595 850 577 838 554 L838 554 Z M517 764 C527 751 531 734 538 719 C543 711 544 698 549 690 C556 684 572 682 581 682 C595 682 606 687 618 695 C655 718 691 745 727 767 C754 781 793 801 808 825 C824 843 804 854 793 858 C767 868 730 854 708 842 C689 832 675 821 654 810 C640 801 625 785 610 782 C600 792 597 801 590 813 C577 834 557 848 529 850 C522 850 509 843 505 838 C497 832 489 825 490 815 C490 794 508 780 517 764 L517 764 Z " />
<glyph glyph-name="ecaron" unicode="&#x11b;" horiz-adv-x="725" d="M169 420 C158 388 150 358 139 327 C113 257 77 191 55 120 C45 94 38 66 29 39 C24 26 16 11 12 -3 C8 -14 5 -24 5 -35 C5 -69 33 -77 64 -77 C89 -77 117 -71 131 -67 C261 -35 375 -24 480 -18 C509 -17 542 -21 564 -2 C577 9 587 20 593 33 C595 42 595 51 594 63 C591 95 562 95 532 99 C515 101 496 102 477 102 C415 102 349 90 288 85 C245 82 238 79 198 69 C206 87 232 150 242 177 C318 205 402 213 471 219 C506 222 542 225 577 227 C604 228 632 216 657 228 C676 238 690 267 697 287 C707 308 697 339 671 347 C643 354 617 356 588 354 C493 351 397 341 305 320 C313 337 345 421 345 421 C345 421 393 437 408 442 C484 466 615 490 696 490 C712 490 725 489 736 487 C766 482 785 471 812 490 C826 500 834 513 839 528 C851 562 840 602 798 607 C761 611 739 617 705 615 C569 620 436 579 296 546 C267 539 235 533 211 513 C199 501 191 489 186 474 C179 457 177 439 169 420 L169 420 Z M502 735 C512 722 516 705 523 690 C528 682 529 669 534 661 C541 655 557 653 566 653 C580 653 591 658 603 666 C640 689 676 716 712 738 C739 752 778 772 793 796 C809 814 789 825 778 829 C752 839 715 825 693 813 C674 803 660 792 639 781 C625 772 610 756 595 753 C585 763 582 772 575 784 C562 805 542 819 514 821 C507 821 494 814 490 809 C482 803 474 796 475 786 C475 765 493 751 502 735 L502 735 Z " />
</font>
</svg>
