<?xml version="1.0" encoding="UTF-8"?>
<svg xmlns="http://www.w3.org/2000/svg" xmlns:xlink="http://www.w3.org/1999/xlink" version="1.2" >
<font id="Out of Line BB Bold">
<font-face  font-family="Out of Line BB" units-per-em="1000" ascent="713" descent="-287" font-style="normal" font-weight="700" font-stretch="normal" cap-height="634" x-height="634" underline-position="-75" underline-thickness="50" />
<missing-glyph  horiz-adv-x="748" d="M94 0 L653 0 L653 848 L94 848 L94 0 Z M233 795 L514 795 L514 51 L233 51 L233 795 Z " />
<glyph glyph-name="NULL" d="" />
<glyph glyph-name="CR" unicode="&#xd;" horiz-adv-x="250" d="" />
<glyph glyph-name="space" unicode="&#x20;" horiz-adv-x="338" d="" />
<glyph glyph-name="exclam" unicode="&#x21;" horiz-adv-x="435" d="M256 -32 C240 -50 156 -58 139 -59 C123 -61 101 -67 84 -61 C64 -55 42 -13 40 8 C40 36 84 53 100 65 C113 78 132 81 152 81 C169 81 189 79 207 78 C222 78 241 78 256 70 C277 62 284 48 284 33 C284 10 266 -18 256 -32 L256 -32 Z M376 601 C358 623 343 632 328 632 C318 632 308 628 296 622 C229 588 232 514 206 452 C182 399 182 399 157 345 C143 315 100 222 125 202 C158 176 195 148 218 167 C237 184 268 232 282 253 C300 281 312 315 327 345 C360 417 376 435 404 510 C417 544 408 564 376 601 L376 601 Z " />
<glyph glyph-name="quotedbl" unicode="&#x22;" horiz-adv-x="535" d="M221 617 C229 607 232 595 232 583 C232 564 226 543 224 526 C221 478 213 430 208 382 C204 349 170 301 124 315 C102 321 77 356 70 373 C67 384 68 401 67 411 C67 427 65 441 65 457 C64 481 63 503 63 525 C63 548 64 571 70 595 C74 606 74 621 77 632 C86 650 111 653 128 659 C139 663 155 669 168 668 C188 667 209 634 221 617 L221 617 Z M459 663 C442 686 433 682 410 681 C397 681 383 680 370 679 C354 676 339 673 329 663 C319 652 321 634 320 617 C317 594 316 571 315 548 C312 521 312 496 310 469 C309 446 312 427 321 402 C328 387 338 364 351 352 C371 332 396 344 413 350 C432 358 454 366 463 385 C465 394 479 479 480 488 C484 516 487 545 487 575 C487 585 486 595 486 605 C486 629 473 640 459 663 L459 663 Z " />
<glyph glyph-name="numbersign" unicode="&#x23;" horiz-adv-x="828" d="M711 335 C736 336 760 335 773 353 C785 370 776 389 757 406 C723 438 671 452 625 456 C627 474 629 491 627 510 C624 542 607 595 558 598 C509 601 509 556 502 528 C495 501 486 473 482 445 C439 442 402 439 363 435 C358 472 363 522 308 538 C243 556 229 485 228 422 C218 422 206 422 195 422 C177 422 162 423 145 423 C130 423 114 422 101 416 C77 405 63 393 75 365 C79 355 82 339 94 331 C137 299 183 299 227 301 C226 279 222 256 220 234 C175 234 130 236 86 239 C56 240 35 222 45 199 C52 188 67 167 76 156 C87 145 111 137 128 131 C157 121 185 119 215 119 C215 104 213 91 213 79 C213 33 220 -26 265 -26 C275 -26 287 -23 301 -16 C332 -1 343 7 341 40 C341 67 343 92 344 118 C354 118 366 118 377 118 C407 119 436 118 466 118 C468 88 473 58 488 28 C501 2 520 -7 539 -7 C554 -7 571 0 584 10 C616 34 618 81 616 130 C639 132 661 136 683 142 C704 148 737 154 748 170 C754 178 758 189 758 199 C758 212 751 224 734 232 C708 242 706 245 679 248 C660 250 632 248 605 246 C605 274 605 302 607 328 C639 332 672 333 711 335 L711 335 Z M461 236 C452 236 442 236 433 235 C419 234 404 233 389 233 C378 233 369 234 358 234 C360 258 363 284 364 309 C394 312 447 310 464 318 C461 303 461 287 461 272 C461 260 461 248 461 236 L461 236 Z " />
<glyph glyph-name="dollar" unicode="&#x24;" horiz-adv-x="658" d="M564 474 C555 516 484 543 449 565 C451 579 452 594 452 608 C452 622 451 634 448 647 C447 659 447 669 435 679 C424 687 408 695 395 701 C365 714 350 707 333 690 C319 675 324 648 320 628 C317 612 317 596 315 579 C269 576 227 564 195 541 C152 510 125 479 107 430 C99 408 88 382 94 356 C97 335 114 316 130 297 C159 258 211 225 260 223 C272 222 283 222 295 222 C333 222 372 226 409 228 C428 229 451 234 471 230 C463 162 371 137 290 137 C260 137 231 141 209 147 C178 154 159 168 134 187 C123 195 107 210 95 215 C82 221 74 217 64 213 C46 207 40 193 40 176 C40 150 56 118 75 97 C120 50 144 44 215 24 C237 18 244 19 262 18 C262 8 262 -1 260 -10 C258 -23 257 -35 257 -47 C256 -65 268 -95 290 -108 C306 -117 319 -120 331 -120 C343 -120 354 -117 365 -112 C377 -107 384 -103 388 -95 C395 -79 396 -59 397 -41 C398 -25 398 -8 398 19 C405 21 413 22 419 23 C449 32 477 41 505 52 C536 64 565 79 581 104 C598 132 612 168 612 205 C612 217 610 229 607 241 C597 280 541 325 498 341 C482 347 463 349 444 349 C413 349 382 343 352 339 C332 337 310 336 288 336 C269 336 250 337 231 339 C220 390 273 430 310 455 C327 465 354 481 377 474 C403 465 432 451 457 438 C477 426 505 413 528 413 C540 413 552 417 560 427 C568 438 566 459 564 474 L564 474 Z " />
<glyph glyph-name="percent" unicode="&#x25;" horiz-adv-x="788" d="M718 553 C698 578 662 615 630 611 C599 608 572 581 541 573 C515 567 487 564 459 564 C447 564 435 565 421 566 C371 572 343 606 302 629 C285 640 272 653 253 657 C228 663 204 653 182 650 C136 644 114 618 94 581 C76 550 61 510 52 474 C50 463 48 452 48 441 C48 414 57 386 86 362 C100 349 127 327 143 320 C159 313 182 315 197 315 C282 310 341 336 388 392 C404 410 417 433 427 457 C451 457 475 457 497 453 C441 400 389 326 339 268 C312 238 284 213 262 181 C240 150 213 122 188 96 C168 75 155 51 140 27 C130 8 124 -5 124 -18 C124 -32 130 -46 141 -68 C151 -82 168 -90 188 -90 C207 -90 226 -84 241 -69 C283 -32 322 8 360 50 C352 30 348 10 348 -11 C348 -33 352 -56 363 -81 C375 -109 384 -112 415 -121 C435 -127 454 -133 475 -135 C568 -136 652 -68 702 -13 C713 -1 717 15 717 32 C717 46 713 62 710 79 C704 102 691 124 668 141 C651 154 625 158 607 164 C580 173 552 184 522 187 C496 189 466 177 448 165 C473 193 509 225 528 259 C548 298 584 327 615 359 C648 394 684 425 712 464 C721 475 737 491 741 503 C746 518 730 537 718 553 L718 553 Z M184 436 C185 453 197 484 216 510 C232 498 253 488 275 481 C255 456 228 439 184 436 L184 436 Z M583 58 C584 40 548 10 529 1 C512 -6 495 -19 471 -10 C475 1 483 18 488 24 C492 32 498 36 505 42 C527 63 555 72 583 58 L583 58 Z " />
<glyph glyph-name="ampersand" unicode="&#x26;" horiz-adv-x="893" d="M861 182 C861 200 868 217 848 234 C832 248 816 259 792 262 C778 263 765 264 749 264 C704 264 661 257 621 247 C599 242 580 236 555 235 C540 234 512 232 505 219 C491 195 502 161 530 133 C536 128 574 116 574 110 C574 98 579 65 571 56 C554 41 485 38 459 33 C432 28 403 24 373 24 C350 24 324 27 300 30 C280 34 262 38 241 48 C233 53 226 58 218 65 C210 73 208 83 208 94 C208 146 275 226 317 238 C343 246 353 250 373 256 C394 262 424 263 446 265 C491 270 504 309 491 347 C486 361 451 378 433 383 C407 392 371 390 344 407 C321 422 299 438 280 456 C296 473 333 486 359 492 C377 498 416 507 449 507 C468 507 485 503 495 495 C512 481 533 470 554 461 C572 452 584 446 602 448 C617 451 641 452 649 464 C658 478 660 497 649 514 C632 542 602 561 572 581 C539 604 495 613 451 623 C441 624 430 625 419 625 C400 625 382 623 365 622 C301 617 234 600 176 567 C156 555 141 538 130 519 C123 507 119 493 119 479 C119 458 125 436 141 415 C158 388 187 371 209 348 C182 339 153 320 132 303 C90 268 61 216 55 162 C52 136 61 105 69 78 C82 35 118 -11 159 -40 C185 -57 213 -73 241 -81 C288 -96 338 -101 383 -107 C407 -110 428 -112 449 -112 C465 -112 483 -111 503 -107 C533 -102 566 -99 597 -92 C640 -81 678 -70 700 -39 C717 -11 715 33 718 69 C723 91 725 112 729 131 C741 135 752 137 762 139 C787 144 812 147 835 153 C854 159 861 162 861 182 L861 182 Z " />
<glyph glyph-name="quotesingle" unicode="&#x27;" horiz-adv-x="289" d="M211 663 C195 686 185 682 163 681 C150 681 134 680 121 679 C107 676 90 673 81 663 C70 652 74 634 71 617 C69 594 68 571 67 548 C64 521 64 496 63 469 C62 446 64 427 74 402 C80 387 89 364 102 352 C123 332 148 344 164 350 C184 358 207 366 215 385 C218 394 231 479 232 488 C239 525 240 566 239 605 C239 629 226 640 211 663 L211 663 Z " />
<glyph glyph-name="parenleft" unicode="&#x28;" horiz-adv-x="468" d="M158 596 C130 564 111 537 94 499 C61 429 38 350 36 265 C35 189 48 110 90 30 C123 -29 172 -67 233 -101 C269 -122 287 -131 320 -119 C341 -112 353 -81 348 -56 C345 -47 338 -24 329 -17 C319 -8 304 -8 290 1 C262 22 226 61 212 91 C195 130 189 167 189 205 C189 229 193 253 195 278 C199 316 207 361 219 396 C231 434 244 461 269 491 C308 537 331 565 384 596 C395 602 417 607 421 619 C426 630 433 669 422 680 C405 698 339 722 316 718 C246 701 200 642 158 596 L158 596 Z " />
<glyph glyph-name="parenright" unicode="&#x29;" horiz-adv-x="504" d="M438 417 C422 467 395 513 378 561 C365 600 324 642 291 668 C271 686 246 712 219 710 C194 708 163 690 158 665 C156 656 151 635 153 625 C156 611 167 608 177 600 C209 576 227 552 241 516 C276 435 307 362 308 280 C308 241 301 211 290 178 C280 148 268 115 245 95 C227 78 209 56 187 44 C164 32 139 18 114 8 C105 5 58 -6 52 -10 C37 -21 31 -55 36 -76 C43 -99 71 -118 92 -131 C102 -137 113 -139 124 -139 C142 -139 159 -133 175 -130 C213 -121 240 -105 273 -87 C315 -65 354 -40 384 -4 C414 33 427 82 444 126 C458 162 466 211 461 255 C454 309 454 361 438 417 L438 417 Z " />
<glyph glyph-name="asterisk" unicode="&#x2a;" horiz-adv-x="586" d="M448 424 C477 428 522 424 541 444 C551 453 542 482 536 496 C529 510 516 528 497 533 C486 537 473 541 463 542 C451 544 441 539 431 537 C403 531 373 526 344 520 C350 554 350 589 356 625 C356 634 361 641 356 650 C346 665 308 693 285 693 C263 691 240 662 237 641 C232 607 226 573 220 539 C202 553 185 567 169 582 C140 607 58 655 42 621 C37 615 36 606 36 599 C35 589 44 579 51 568 C64 547 86 516 108 498 C116 491 124 485 133 478 C109 476 86 474 70 461 C65 456 57 442 58 435 C61 427 58 408 65 402 C77 390 111 379 128 373 C150 366 178 372 200 379 C199 367 200 355 199 343 C197 327 194 312 194 296 C194 282 196 269 206 255 C211 247 216 239 226 235 C238 232 248 236 257 236 C269 238 280 239 290 241 C299 242 300 245 304 251 C319 273 326 303 331 335 C335 331 340 328 344 325 C369 307 394 288 419 272 C439 258 451 265 463 275 C470 281 473 287 477 295 C482 303 477 310 472 322 C459 345 444 364 421 383 C408 394 395 405 382 415 C403 419 426 422 448 424 L448 424 Z " />
<glyph glyph-name="plus" unicode="&#x2b;" horiz-adv-x="586" d="M554 275 C558 296 558 319 529 331 C505 341 479 348 453 352 C438 354 422 355 408 355 C394 355 377 354 363 353 C363 361 363 371 363 381 C361 404 364 436 339 461 C321 476 287 504 263 510 C239 515 222 486 218 473 C211 461 215 444 216 429 C216 409 217 389 217 368 C217 358 217 347 216 336 C187 335 157 332 130 326 C95 318 62 315 43 288 C33 273 40 240 52 224 C61 213 68 215 80 212 C94 210 107 206 119 206 C132 206 145 210 157 212 C176 215 195 216 215 218 C215 195 218 171 221 148 C226 128 226 103 255 86 C266 79 289 64 302 63 C327 59 352 76 358 91 C361 102 359 118 358 131 C358 160 359 188 359 225 C410 227 480 228 520 239 C542 244 552 252 554 275 L554 275 Z " />
<glyph glyph-name="comma" unicode="&#x2c;" horiz-adv-x="320" d="M132 115 C125 105 109 82 101 72 C87 53 77 32 63 13 C52 0 50 -15 46 -33 C43 -53 45 -65 68 -84 C88 -98 109 -108 127 -103 C145 -99 167 -79 178 -65 C215 -24 262 33 284 82 C289 95 294 103 290 118 C288 127 276 149 265 156 C253 165 228 165 216 165 C199 164 182 161 165 156 C145 149 143 130 132 115 L132 115 Z " />
<glyph glyph-name="hyphen" unicode="&#x2d;" horiz-adv-x="497" d="M229 310 C194 304 152 307 114 295 C88 286 63 285 51 257 C46 248 48 241 50 230 C52 219 55 202 62 193 C69 181 75 182 84 179 C95 177 106 173 116 173 C125 173 136 178 145 179 C190 187 237 192 284 193 C324 194 392 194 428 206 C446 212 452 221 452 244 C453 264 451 287 429 299 C408 310 388 318 369 321 C356 323 344 324 333 324 C297 324 262 315 229 310 L229 310 Z " />
<glyph glyph-name="period" unicode="&#x2e;" horiz-adv-x="284" d="M220 58 C206 79 178 86 152 86 C128 86 107 81 95 74 C77 64 70 41 58 26 C48 12 42 6 53 -14 C61 -24 74 -43 86 -47 C106 -56 140 -46 157 -43 C174 -41 185 -42 196 -34 C216 -18 233 -1 233 22 C233 33 229 45 220 58 L220 58 Z " />
<glyph glyph-name="slash" unicode="&#x2f;" horiz-adv-x="649" d="M345 455 C296 395 255 331 211 268 C189 240 165 215 146 184 C131 158 114 131 96 107 C74 75 35 42 31 0 C28 -19 35 -70 61 -87 C69 -93 80 -95 91 -95 C112 -95 134 -87 143 -79 C157 -65 164 -45 176 -29 C195 -5 215 16 234 39 C284 96 329 156 364 223 C395 285 433 337 480 388 C524 436 553 496 598 544 C619 566 628 573 628 585 C628 593 624 604 615 624 C605 642 602 650 583 657 C568 662 555 664 544 664 C498 664 476 629 454 601 C416 553 384 502 345 455 L345 455 Z " />
<glyph glyph-name="zero" unicode="0" horiz-adv-x="772" d="M683 457 C661 482 627 501 599 522 C566 550 458 573 415 582 C402 584 389 585 376 585 C316 585 262 560 220 531 C158 488 127 430 87 373 C55 327 38 279 40 221 C42 175 53 114 81 68 C108 23 184 0 232 -19 C263 -32 294 -36 326 -36 C447 -36 571 41 630 99 C661 128 698 164 717 200 C732 229 737 250 736 284 C735 338 725 405 683 457 L683 457 Z M588 331 C585 309 577 286 565 268 C553 247 535 232 519 213 C490 177 447 144 398 125 C376 115 351 107 326 101 C316 99 304 98 291 98 C265 98 234 103 212 119 C197 127 167 155 169 170 C172 190 189 213 199 232 C208 250 216 272 228 288 C246 315 272 338 294 364 C326 400 366 446 429 448 C457 450 483 445 510 436 C532 430 577 412 585 394 C590 386 592 376 592 366 C592 353 590 341 588 331 L588 331 Z " />
<glyph glyph-name="one" unicode="1" horiz-adv-x="447" d="M363 295 C369 342 383 382 389 429 C394 462 404 499 403 533 C402 568 351 600 310 607 C265 616 252 581 226 561 C194 538 159 519 125 498 C109 488 95 476 76 470 C62 465 38 468 31 455 C16 427 40 384 76 367 C88 362 99 360 111 360 C150 360 186 381 220 382 C218 359 213 316 211 292 C208 273 201 255 200 236 C197 207 195 178 195 149 C195 137 195 125 196 113 C200 64 221 -55 291 -55 C301 -55 313 -53 326 -47 C350 -36 355 -17 355 6 C355 16 354 26 353 36 C351 62 351 86 351 112 C351 173 356 235 363 295 L363 295 Z " />
<glyph glyph-name="two" unicode="2" horiz-adv-x="676" d="M256 584 C201 571 37 509 74 439 C80 425 92 396 101 384 C114 368 143 366 157 367 C184 367 193 381 206 395 C220 411 237 425 253 439 C291 467 348 478 407 478 C427 478 448 476 468 474 C458 461 447 445 432 434 C415 421 400 405 382 392 C356 373 327 358 300 341 C237 301 178 257 128 205 C107 183 86 160 68 133 C56 114 37 92 32 68 C26 50 53 21 67 1 C81 -18 102 -50 130 -52 C141 -53 153 -50 164 -50 C180 -50 197 -50 213 -50 C255 -50 297 -61 339 -59 C415 -59 416 -44 485 -33 C509 -29 533 -25 559 -22 C583 -19 614 -18 627 -2 C635 7 641 24 641 41 C641 61 632 80 605 90 C574 101 546 104 517 104 C471 104 427 92 387 81 C354 72 334 68 313 68 C294 68 262 73 228 75 C241 90 260 103 269 116 C287 139 310 158 332 177 C359 200 380 225 407 247 C435 270 473 284 507 302 C536 318 561 337 584 360 C602 378 623 399 628 425 C635 462 573 536 535 567 C514 584 484 588 463 592 C432 596 402 604 373 604 C331 606 291 594 256 584 L256 584 Z " />
<glyph glyph-name="three" unicode="3" horiz-adv-x="722" d="M215 599 C152 587 20 539 56 485 C75 456 100 447 127 447 C162 447 197 463 220 465 C258 470 300 475 339 475 C376 475 410 467 446 462 C426 451 407 436 384 425 C326 396 268 364 204 342 C187 337 170 326 155 321 C140 316 120 314 108 304 C98 296 94 284 94 273 C94 259 100 245 111 236 C124 225 150 194 169 190 C189 187 189 189 208 189 C260 189 316 202 370 202 C403 202 498 188 522 173 C497 138 468 115 440 105 C407 95 345 76 245 68 C215 64 182 80 151 76 C114 73 94 61 81 27 C79 17 71 -4 77 -13 C84 -23 99 -34 111 -39 C139 -53 174 -64 206 -65 C275 -65 353 -58 416 -41 C526 -11 637 8 673 132 C676 144 679 156 679 170 C679 188 674 207 665 222 C648 250 646 256 608 270 C579 281 547 296 509 302 C485 305 483 304 440 315 C468 338 483 345 514 362 C563 390 617 421 636 475 C653 526 571 576 528 589 C497 598 466 598 435 600 C409 602 384 603 359 603 C328 603 297 602 263 602 C244 602 228 601 215 599 L215 599 Z " />
<glyph glyph-name="four" unicode="4" horiz-adv-x="730" d="M691 235 C667 261 642 263 615 264 C595 265 576 265 558 264 C558 278 558 291 559 302 C566 387 564 436 568 519 C568 531 572 552 564 561 C554 578 533 605 512 608 C483 615 457 625 429 622 C383 616 301 561 282 527 C211 404 116 342 69 236 C61 216 51 195 42 175 C30 152 35 128 56 102 C77 78 108 67 133 68 C164 64 189 80 213 88 C226 93 239 98 252 103 C273 110 324 115 346 118 C365 121 391 128 409 132 C410 110 408 86 408 62 C408 48 409 36 410 24 C416 -7 421 -51 459 -73 C490 -90 535 -72 551 -52 C564 -38 558 -15 555 5 C554 17 554 28 554 40 C554 56 554 72 555 87 C555 105 555 126 555 148 C573 150 590 152 605 155 C629 159 671 159 687 171 C696 177 704 193 706 202 C710 216 704 222 691 235 L691 235 Z M237 232 C263 290 363 399 417 447 C409 387 409 335 408 282 C408 274 408 267 408 258 C361 256 278 241 237 232 L237 232 Z " />
<glyph glyph-name="five" unicode="5" horiz-adv-x="710" d="M99 438 C95 410 90 379 82 354 C76 335 63 316 65 295 C68 263 84 248 116 228 C128 219 143 211 156 207 C174 202 177 208 193 212 C245 225 299 236 358 240 C372 241 385 241 398 241 C417 241 436 241 454 240 C471 239 524 235 524 235 C542 175 493 126 435 107 C376 87 317 64 248 64 C219 63 193 61 162 75 C134 88 101 113 76 103 C55 95 44 79 44 62 C44 36 65 5 99 -16 C162 -55 237 -57 299 -56 C335 -56 370 -47 404 -42 C438 -36 477 -30 508 -18 C571 6 616 50 648 102 C661 124 672 156 672 190 C672 211 668 232 658 250 C642 274 628 292 604 313 C583 331 547 353 519 359 C501 362 479 364 459 364 C429 364 402 361 376 359 C331 354 282 348 234 349 C234 372 240 387 244 408 C248 424 258 465 258 465 C258 465 326 463 346 461 C382 458 414 463 446 468 C473 472 510 474 536 484 C559 491 579 495 588 515 C599 539 591 568 563 593 C548 606 532 610 517 610 C505 610 493 607 480 605 C457 601 433 592 408 588 C380 584 348 581 319 581 C280 579 220 604 175 604 C161 604 148 602 139 595 C120 583 116 549 111 528 C105 499 102 468 99 438 L99 438 Z " />
<glyph glyph-name="six" unicode="6" horiz-adv-x="678" d="M502 594 C477 605 440 604 415 605 C341 606 272 588 220 548 C199 530 177 509 156 490 C109 445 79 388 62 326 C51 287 46 247 46 205 C46 189 46 173 48 158 C52 101 92 46 143 2 C193 -41 251 -72 313 -73 C327 -73 340 -73 352 -73 C373 -73 394 -72 414 -68 C453 -59 495 -46 529 -32 C555 -22 581 -1 593 19 C608 44 618 70 625 95 C628 107 629 120 629 133 C629 168 618 205 593 240 C558 285 507 322 458 325 C435 326 413 326 389 326 C356 326 324 325 296 320 C271 315 250 308 226 304 C221 355 324 436 361 464 C424 512 446 485 528 508 C552 515 563 516 555 543 C552 564 524 583 502 594 L502 594 Z M339 193 C364 197 394 206 424 206 C446 206 468 201 486 185 C486 167 473 142 465 128 C453 110 440 98 424 86 C391 62 351 55 304 59 C257 64 220 104 208 148 C244 167 297 183 339 193 L339 193 Z " />
<glyph glyph-name="seven" unicode="7" horiz-adv-x="659" d="M398 152 C420 192 436 232 460 265 C496 318 529 371 561 425 C574 448 590 469 607 488 C620 504 640 516 637 539 C632 581 576 621 529 629 C473 640 427 616 380 602 C312 582 239 579 162 579 C111 579 53 577 33 538 C28 530 23 524 24 513 C25 504 33 491 38 482 C46 467 77 453 95 446 C121 436 204 450 234 451 C284 455 327 464 371 475 C382 478 391 479 400 481 C388 457 370 435 356 411 C343 383 328 356 315 328 C287 269 255 211 218 156 C201 131 188 103 178 75 C172 57 163 35 167 15 C169 -6 178 -33 195 -51 C211 -67 240 -76 260 -79 C297 -84 309 -40 320 -17 C327 -1 333 15 341 29 C365 68 375 114 398 152 L398 152 Z " />
<glyph glyph-name="eight" unicode="8" horiz-adv-x="713" d="M603 598 C573 615 520 618 472 618 C446 618 422 617 404 617 C308 617 222 598 151 556 C106 530 75 487 70 432 C65 367 170 307 227 293 C201 265 165 242 136 219 C114 201 106 190 86 166 C65 143 45 110 45 75 C45 53 53 29 75 7 C132 -55 201 -80 276 -84 C356 -86 438 -68 498 -40 C565 -10 639 63 639 144 C639 177 627 210 598 242 C572 274 551 292 512 310 C602 358 678 427 678 495 C678 531 656 566 603 598 L603 598 Z M378 70 C354 62 310 47 272 47 C248 47 226 53 212 69 C226 98 248 110 272 132 C290 149 315 165 394 225 C394 225 427 217 471 185 C463 132 433 91 378 70 L378 70 Z M442 436 C421 418 384 404 346 387 C327 392 310 395 295 400 C280 404 266 406 255 417 C257 445 300 467 333 474 C366 482 461 499 501 491 C496 474 468 457 442 436 L442 436 Z " />
<glyph glyph-name="nine" unicode="9" horiz-adv-x="607" d="M555 509 C544 530 510 548 486 555 C463 562 451 577 427 589 C404 601 378 611 354 617 C334 622 315 624 295 624 C266 624 240 619 218 610 C197 601 176 594 156 584 C114 564 88 519 68 479 C53 448 42 408 42 367 C42 318 58 267 108 228 C139 206 188 196 238 196 C288 196 341 206 373 223 C370 213 365 201 363 193 C356 173 351 160 345 139 C332 96 317 53 307 8 C302 -10 295 -30 299 -51 C302 -74 343 -82 370 -93 C416 -115 446 -52 454 -25 C477 33 493 91 516 148 C527 178 532 211 537 244 C544 280 558 313 560 350 C563 379 573 412 573 445 C573 467 570 487 555 509 L555 509 Z M389 410 C387 395 383 383 380 368 C346 362 319 348 288 339 C268 334 244 327 220 327 C208 327 196 328 185 333 C190 356 196 381 207 400 C226 438 250 474 287 490 C302 496 322 499 344 487 C363 476 380 462 400 463 C396 463 391 416 389 410 L389 410 Z " />
<glyph glyph-name="colon" unicode="&#x3a;" horiz-adv-x="278" d="M212 447 C201 462 184 467 165 467 C150 467 134 463 125 462 C94 456 75 434 62 408 C53 395 46 385 55 367 C61 356 79 331 90 326 C111 316 137 335 151 341 C169 348 195 353 209 365 C219 373 226 388 226 405 C226 419 221 435 212 447 L212 447 Z M224 229 C209 250 183 257 156 257 C132 257 111 252 99 245 C81 235 75 212 63 196 C52 183 45 177 57 156 C64 147 77 127 89 124 C109 115 144 125 162 127 C177 130 189 128 200 137 C220 153 238 170 238 193 C238 204 233 216 224 229 L224 229 Z " />
<glyph glyph-name="semicolon" unicode="&#x3b;" horiz-adv-x="328" d="M132 115 C125 105 109 82 101 72 C87 53 77 32 63 13 C52 0 50 -15 46 -33 C43 -53 45 -65 68 -84 C88 -98 109 -108 127 -103 C145 -99 167 -79 178 -65 C215 -24 262 33 284 82 C289 95 294 103 290 118 C288 127 276 149 265 156 C253 165 228 165 216 165 C199 164 182 161 165 156 C145 149 143 130 132 115 L132 115 Z M245 355 C231 376 204 383 177 383 C153 383 132 378 120 371 C102 361 96 338 84 322 C74 309 67 303 79 282 C86 273 99 253 111 250 C131 241 165 251 183 253 C199 256 211 255 221 263 C241 279 258 296 258 319 C258 330 255 342 245 355 L245 355 Z " />
<glyph glyph-name="less" unicode="&#x3c;" horiz-adv-x="634" d="M417 552 C392 525 365 499 338 476 C294 440 245 407 195 379 C159 361 120 356 88 337 C64 322 35 312 33 282 C33 253 58 227 90 208 C107 200 124 196 140 188 C159 176 178 159 196 145 C231 119 255 88 283 57 C308 29 329 -1 352 -30 C369 -52 394 -92 420 -102 C453 -115 480 -91 492 -68 C505 -41 485 -6 463 24 C432 67 408 110 363 147 C326 177 265 217 237 245 C263 269 319 296 354 319 C389 342 417 370 449 394 C483 419 517 445 547 474 C560 487 572 496 580 513 C586 524 598 542 602 554 C605 572 584 598 564 612 C553 621 539 629 529 629 C477 635 441 578 417 552 L417 552 Z " />
<glyph glyph-name="equal" unicode="&#x3d;" horiz-adv-x="519" d="M477 366 C477 387 475 412 452 424 C432 435 413 442 391 447 C380 449 369 450 358 450 C322 450 287 440 253 435 C218 429 176 432 139 419 C112 410 87 408 75 379 C70 371 71 364 75 352 C77 341 80 322 87 312 C95 298 123 292 141 292 C151 292 162 296 170 298 C216 305 262 310 309 312 C350 314 417 314 453 326 C470 332 477 341 477 366 L477 366 Z M398 244 C384 247 370 241 356 240 C328 236 301 230 273 229 C238 228 201 225 168 219 C141 216 112 211 87 204 C70 198 46 194 46 168 C46 158 48 136 53 125 C64 104 96 85 113 82 C127 80 140 85 152 86 C180 90 208 92 237 95 C289 101 344 103 396 110 C419 114 451 115 460 141 C463 149 466 165 466 180 C466 190 465 200 461 208 C452 230 415 240 398 244 L398 244 Z " />
<glyph glyph-name="greater" unicode="&#x3e;" horiz-adv-x="637" d="M301 38 C346 74 372 92 415 122 C448 148 504 177 539 201 C566 223 593 230 597 268 C603 305 581 327 544 344 C501 365 439 423 397 450 C352 480 313 503 275 541 C260 555 241 570 228 587 C219 600 215 612 196 619 C163 633 120 616 107 589 C101 577 99 566 99 554 C99 536 106 518 120 498 C141 468 184 445 216 422 C245 401 280 384 312 365 C338 349 384 308 407 287 C371 252 344 239 326 225 C285 200 255 179 219 149 C183 118 134 86 105 50 C82 27 36 17 36 -18 C35 -46 52 -101 87 -108 C102 -110 139 -103 152 -96 C178 -78 200 -62 222 -40 C252 -12 271 13 301 38 L301 38 Z " />
<glyph glyph-name="question" unicode="&#x3f;" horiz-adv-x="623" d="M250 25 C239 31 170 24 156 23 C129 20 51 -34 51 -69 C50 -77 67 -94 73 -97 C92 -111 193 -82 219 -83 C227 -84 244 -84 253 -78 C261 -74 280 -21 282 -14 C287 0 263 20 250 25 L250 25 Z M277 215 C442 285 593 382 596 465 C599 511 573 537 559 552 C531 579 469 618 451 630 C409 660 307 658 237 644 C168 631 27 511 69 433 C79 419 114 408 129 416 C148 427 158 435 171 454 C187 468 259 504 271 508 C332 523 359 545 450 516 C391 427 346 410 267 367 C186 326 153 333 81 261 C54 234 59 192 68 155 C68 155 84 87 124 80 C124 80 148 85 157 99 C169 118 162 126 169 143 C190 181 237 198 277 215 L277 215 Z " />
<glyph glyph-name="at" unicode="&#x40;" horiz-adv-x="1043" d="M715 362 C725 384 718 405 697 428 C681 447 656 455 635 458 C610 461 579 463 555 461 C471 453 356 392 304 338 C278 314 264 285 256 261 C251 244 246 224 246 206 C246 184 252 164 266 149 C308 105 360 96 404 102 C452 109 495 128 536 144 C547 148 564 150 564 150 C564 150 583 138 593 132 C617 118 643 115 665 122 C681 127 706 137 721 144 C762 166 823 206 861 232 C915 268 974 366 970 427 C969 456 966 478 944 505 C919 538 884 559 847 578 C827 588 785 608 765 616 C706 638 647 636 590 638 C492 641 407 615 326 587 C308 581 228 539 218 532 C187 512 153 490 133 461 C100 412 74 367 53 313 C45 295 43 272 43 247 C43 216 48 182 56 152 C63 128 75 98 88 76 C100 55 123 22 144 5 C167 -13 200 -34 228 -44 C260 -57 297 -59 332 -65 C376 -74 415 -74 458 -74 C481 -74 504 -75 525 -75 C546 -75 565 -74 585 -72 C634 -64 673 -61 715 -48 C769 -32 820 -5 868 21 C888 30 905 45 923 58 C955 81 981 104 1000 137 C1010 152 1004 187 985 205 C964 221 931 206 915 202 C891 196 815 141 794 126 C769 108 741 92 710 81 C620 52 527 37 439 37 C422 37 406 38 389 39 C340 44 260 50 216 91 C200 107 185 133 178 152 C174 165 172 179 172 194 C172 239 190 292 211 324 C231 355 264 389 290 413 C351 469 438 491 528 512 C554 518 581 520 609 520 C648 520 690 515 730 507 C757 502 829 480 838 453 C860 400 804 347 769 316 C756 304 740 293 724 285 C712 279 673 259 658 269 C669 304 698 328 715 362 L715 362 Z M516 258 C516 258 504 252 497 251 C453 236 413 232 377 219 C394 245 413 268 439 287 C464 305 508 338 542 343 C530 321 517 281 516 258 L516 258 Z " />
<glyph glyph-name="A" unicode="A" horiz-adv-x="739" d="M566 562 C549 592 503 636 463 630 C442 627 416 617 400 607 C387 598 371 590 358 582 C332 566 315 538 294 519 C266 488 199 433 178 399 C163 373 146 343 132 316 C120 293 112 267 97 244 C67 190 43 125 44 69 C44 38 53 -15 90 -42 C107 -56 141 -51 152 -42 C182 -22 188 21 197 48 C202 65 207 85 212 103 C240 108 258 115 285 121 C332 131 414 150 463 155 C488 158 512 159 532 159 C535 144 537 131 540 118 C542 105 546 92 549 80 C553 62 564 12 574 -5 C584 -19 620 -48 639 -56 C656 -63 673 -52 681 -42 C692 -29 703 -17 704 0 C705 19 696 64 695 85 C695 128 679 178 667 217 C659 244 647 272 641 299 C630 348 616 396 605 446 C602 467 598 485 592 507 C585 524 577 545 566 562 L566 562 Z M476 269 C464 270 453 271 441 271 C416 271 391 268 365 264 C344 261 295 246 272 244 C289 290 322 331 356 370 C384 401 416 430 457 452 C475 405 507 304 507 265 C491 267 492 269 476 269 L476 269 Z " />
<glyph glyph-name="B" unicode="B" horiz-adv-x="776" d="M505 327 C555 358 566 401 594 446 C603 463 607 499 599 521 C588 549 562 568 535 584 C498 605 460 608 421 617 C383 624 351 627 315 624 C251 619 172 615 119 596 C86 584 63 569 62 532 C62 493 82 434 84 395 C84 382 85 368 84 355 C80 295 61 217 64 155 C66 102 70 51 87 -2 C94 -26 102 -56 130 -66 C157 -77 189 -80 213 -75 C322 -48 422 -3 532 18 C579 29 619 49 658 73 C703 102 755 139 752 196 C752 207 722 254 712 265 C650 338 553 307 505 327 L505 327 Z M241 373 C241 402 254 462 244 486 C244 486 287 493 301 496 C323 501 350 501 374 502 C392 502 441 503 459 498 C452 463 407 410 378 388 C354 368 304 358 271 344 C260 339 248 335 235 330 C240 343 240 359 241 373 L241 373 Z M450 141 C398 126 349 111 299 95 C276 89 251 84 230 74 C227 118 230 162 234 204 C277 217 329 211 375 217 C407 221 444 217 477 215 C509 213 539 206 571 204 C544 176 484 151 450 141 L450 141 Z " />
<glyph glyph-name="C" unicode="C" horiz-adv-x="759" d="M716 453 C723 487 697 540 668 572 C657 581 642 592 627 601 C613 608 602 613 591 617 C562 628 529 634 498 629 C366 607 189 515 128 407 C100 358 80 326 63 275 C48 228 42 194 42 158 C42 144 43 131 44 116 C48 89 71 48 89 26 C145 -42 248 -61 343 -60 C394 -58 473 -46 520 -29 C555 -16 637 26 668 48 C685 60 715 83 716 102 C718 126 685 165 659 166 C629 167 614 163 590 150 C533 121 383 78 312 78 C299 78 285 78 271 81 C257 83 234 91 228 100 C216 113 212 129 212 146 C212 163 216 181 220 197 C239 265 253 288 291 350 C326 402 388 434 446 465 C466 477 527 497 548 494 C574 483 598 463 619 440 C637 419 653 411 679 418 C694 423 713 438 716 453 L716 453 Z " />
<glyph glyph-name="D" unicode="D" horiz-adv-x="778" d="M686 480 C642 518 553 576 493 583 C441 590 391 600 339 602 C327 603 315 603 302 603 C271 603 239 600 207 596 C162 590 70 585 52 541 C47 530 45 520 45 511 C45 475 73 446 80 399 C82 381 84 361 84 342 C84 291 76 239 75 193 C75 165 71 141 74 114 C76 72 76 30 92 -8 C97 -23 108 -44 120 -55 C137 -70 189 -92 202 -80 C315 16 454 64 571 142 C636 185 717 225 737 312 C741 328 744 345 744 361 C744 405 727 445 686 480 L686 480 Z M583 345 C573 292 517 264 477 239 C454 225 431 215 408 202 C385 189 361 177 338 166 C327 161 233 120 232 120 C226 135 224 151 224 167 C224 185 227 204 227 222 C227 267 233 307 231 347 C229 378 228 423 212 456 C222 462 239 462 251 464 C264 465 275 469 287 470 C340 478 398 462 444 456 C472 452 573 428 581 404 C586 388 585 361 583 345 L583 345 Z " />
<glyph glyph-name="E" unicode="E" horiz-adv-x="713" d="M691 554 C695 577 696 595 668 607 C608 633 537 634 479 633 C431 633 295 627 250 618 C208 610 167 599 125 590 C111 587 94 588 86 575 C68 550 68 514 62 485 C57 460 53 434 53 407 C53 397 54 386 55 376 C58 330 68 284 68 239 C69 188 55 141 57 91 C58 70 52 46 52 23 C52 2 56 -18 74 -36 C86 -48 109 -62 124 -68 C134 -71 145 -73 156 -73 C177 -73 198 -67 209 -59 C252 -30 321 -22 370 -11 C442 5 482 17 568 33 C586 35 612 34 621 50 C632 64 639 88 625 108 C597 152 532 153 493 150 C439 148 356 125 304 118 C269 113 246 101 207 92 C204 103 202 114 202 126 C202 156 210 187 213 211 C243 225 257 230 289 240 C343 256 448 270 508 270 C528 270 544 268 564 263 C583 258 607 257 618 267 C632 276 643 291 651 307 C656 321 660 330 648 345 C623 378 570 382 536 385 C507 388 472 390 438 390 C397 390 358 388 324 383 C299 381 265 368 244 359 C232 354 221 349 209 345 C207 359 204 371 202 383 C201 404 207 458 207 458 C207 458 244 469 262 476 C316 498 444 492 505 498 C530 502 558 503 584 502 C606 501 624 498 639 498 C667 498 684 507 691 554 L691 554 Z " />
<glyph glyph-name="F" unicode="F" horiz-adv-x="616" d="M603 572 C595 595 555 602 530 610 C497 619 465 622 435 622 C380 622 329 611 276 601 C234 594 197 579 159 567 C137 560 106 560 92 543 C76 521 76 486 71 459 C68 432 66 405 66 377 C66 366 66 354 67 343 C68 314 69 284 69 255 C69 212 67 170 61 130 C57 115 55 91 55 65 C55 8 69 -59 137 -67 C162 -70 170 -56 185 -42 C199 -30 195 -18 195 1 C195 25 197 50 201 72 C207 105 212 137 215 170 C239 175 260 185 283 193 C335 207 394 201 452 206 C479 208 503 217 519 234 C535 248 558 278 537 303 C520 327 493 326 471 327 C431 328 388 337 348 336 C309 333 271 330 234 322 C227 321 219 319 212 316 C211 326 212 335 212 344 C213 360 213 376 216 392 C218 405 224 441 224 441 C224 441 289 464 312 469 C350 476 384 488 422 491 C438 492 452 492 466 492 C482 492 496 492 512 492 C547 488 555 490 583 514 C599 528 610 547 603 572 L603 572 Z " />
<glyph glyph-name="G" unicode="G" horiz-adv-x="902" d="M638 649 C580 646 380 610 334 581 C299 561 262 534 229 509 C185 476 169 458 143 428 C100 379 70 325 48 269 C42 254 37 237 37 220 C37 190 48 159 67 121 C106 36 246 -13 326 -43 C349 -52 371 -54 393 -54 C409 -54 426 -53 442 -51 C486 -43 528 -34 568 -19 C625 2 653 26 702 55 C761 95 805 162 848 214 C856 225 860 241 860 257 C860 296 838 345 805 362 C780 375 755 380 730 383 C698 384 617 386 585 385 C516 383 441 351 380 311 C365 301 332 269 335 225 C338 209 366 185 380 177 C416 153 464 184 484 210 C508 238 577 263 643 263 C667 263 690 261 710 255 C693 235 588 143 565 131 C540 119 515 105 486 97 C461 90 446 85 419 80 C392 75 373 78 344 88 C307 99 222 132 204 162 C199 171 196 185 196 201 C196 218 199 237 202 244 C216 278 238 300 262 326 C313 381 356 424 424 461 C446 472 594 507 619 509 C645 511 707 507 733 500 C750 494 767 480 783 477 C796 473 829 483 842 490 C855 500 854 522 848 537 C836 571 795 593 763 608 C722 625 682 650 638 649 L638 649 Z " />
<glyph glyph-name="H" unicode="H" horiz-adv-x="676" d="M627 492 C624 521 618 552 605 582 C593 606 563 616 537 618 C473 622 483 565 477 524 C473 487 465 447 466 408 C466 400 465 392 465 383 C424 387 340 361 315 354 C288 345 262 339 233 335 C234 366 238 398 237 429 C237 441 237 453 237 467 C237 479 237 492 234 505 C233 524 220 536 208 553 C196 568 177 590 156 593 C107 599 88 554 87 519 C84 459 84 399 71 343 C62 290 52 229 55 172 C57 116 62 56 81 0 C90 -27 106 -47 139 -58 C170 -69 184 -62 206 -45 C215 -36 218 -23 218 -8 C218 8 215 25 213 40 C213 78 208 116 211 152 C212 165 212 178 213 192 C221 190 228 190 233 190 C277 192 312 213 351 222 C373 228 426 232 449 238 C448 175 457 107 492 42 C505 18 515 -7 542 -21 C559 -28 571 -32 581 -32 C593 -32 605 -28 617 -21 C628 -15 643 -4 648 8 C653 22 640 46 634 61 C608 118 604 172 605 224 C607 275 614 312 615 359 C616 404 630 445 627 492 L627 492 Z " />
<glyph glyph-name="I" unicode="I" horiz-adv-x="696" d="M669 547 C665 564 636 583 618 587 C586 593 549 595 515 595 C493 595 473 594 457 593 C395 587 339 572 276 570 C251 568 226 567 200 567 C180 566 159 565 139 565 C118 566 92 562 77 552 C63 538 51 519 64 497 C71 484 81 469 95 458 C107 447 114 448 130 446 C150 445 169 444 189 444 C218 444 244 445 271 447 C268 422 265 396 265 371 C265 345 263 320 265 295 C266 270 271 246 269 222 C265 179 250 133 256 88 C222 84 189 79 156 72 C133 67 109 63 87 57 C76 55 70 52 65 45 C56 34 40 16 45 -1 C51 -18 74 -38 87 -48 C106 -63 128 -68 152 -68 C187 -68 221 -58 244 -53 C272 -46 299 -38 328 -30 C380 -17 435 -13 490 -8 C517 -6 546 -5 574 -2 C586 -2 604 -4 616 0 C630 4 647 19 647 36 C647 52 617 80 603 91 C583 104 561 109 540 113 C524 116 508 118 492 118 C459 118 427 112 395 110 C398 128 397 147 397 164 C397 187 404 208 404 230 C407 274 414 315 417 359 C420 392 416 423 409 457 C461 461 515 465 565 472 C592 475 623 480 641 495 C654 504 674 530 669 547 L669 547 Z " />
<glyph glyph-name="J" unicode="J" horiz-adv-x="710" d="M676 507 C697 516 685 553 671 572 C651 600 630 612 595 618 C577 621 560 622 544 622 C486 622 433 608 382 602 C332 596 285 585 237 581 C200 577 168 589 145 565 C132 552 119 535 113 518 C109 504 116 497 125 484 C141 462 170 442 199 438 C231 433 262 447 289 451 C317 456 346 458 376 462 C375 455 375 446 375 438 C375 407 385 377 385 345 C385 319 392 266 395 238 C398 182 388 129 384 76 C353 72 326 66 297 65 C282 63 264 65 248 65 C231 65 195 70 195 70 C195 70 197 112 197 135 C197 168 189 200 146 223 C131 231 117 236 103 236 C91 236 80 232 70 225 C55 211 57 180 53 159 C50 133 50 105 46 77 C44 56 43 22 56 0 C62 -10 77 -26 89 -33 C109 -44 196 -63 213 -63 C284 -63 353 -60 417 -46 C442 -40 471 -42 496 -36 C526 -29 533 -21 541 4 C548 25 540 53 536 76 C535 87 535 99 535 110 C535 128 535 145 533 163 C531 189 530 215 530 241 C530 281 532 345 532 385 C532 418 530 451 526 484 C542 484 561 484 584 487 C599 491 665 501 676 507 L676 507 Z " />
<glyph glyph-name="K" unicode="K" horiz-adv-x="696" d="M648 510 C642 528 626 550 605 562 C583 575 554 564 543 554 C520 533 493 513 470 493 C439 465 404 440 371 413 C319 373 256 336 231 324 C231 338 232 352 233 365 C237 394 244 468 240 498 C238 526 216 558 195 583 C182 600 172 607 150 610 C125 612 102 607 89 590 C78 573 87 545 81 525 C79 509 80 492 79 475 C77 444 76 413 76 382 C78 318 76 255 78 192 C79 177 80 162 81 147 C88 82 105 11 164 -47 C189 -70 208 -53 221 -41 C238 -29 243 -17 244 5 C243 36 234 70 232 103 C232 109 231 155 231 155 C231 155 269 175 286 184 C291 185 302 192 313 198 C331 185 345 171 362 155 C424 96 463 60 510 21 C531 3 563 -33 594 -44 C641 -62 657 -30 653 4 C653 15 649 26 645 35 C621 87 572 121 522 165 C492 194 468 217 422 256 C496 293 552 347 616 396 C645 419 664 468 648 510 L648 510 Z " />
<glyph glyph-name="L" unicode="L" horiz-adv-x="598" d="M63 259 C57 217 55 173 55 131 C55 85 57 39 62 -7 C64 -46 112 -92 156 -75 C184 -65 211 -55 240 -47 C284 -36 328 -25 372 -15 C419 -4 468 6 516 12 C542 16 571 18 572 48 C574 98 520 133 473 131 C426 128 371 128 326 118 C282 107 263 99 213 90 C216 119 212 130 212 159 C212 193 212 227 216 261 C222 337 234 411 252 485 C256 502 260 518 260 532 C260 552 253 568 234 588 C224 598 177 610 162 610 C132 607 119 582 111 560 C100 531 92 499 86 469 C71 400 71 328 63 259 L63 259 Z " />
<glyph glyph-name="M" unicode="M" horiz-adv-x="1004" d="M882 548 C878 566 871 589 859 606 C845 623 820 623 800 624 C778 625 748 625 729 617 C680 592 669 543 647 497 C614 428 605 393 563 338 C535 302 496 215 475 173 C451 223 426 328 419 383 C418 393 418 402 418 412 C418 434 419 457 414 480 C409 502 389 532 371 550 C354 566 329 584 307 578 C285 573 285 573 229 527 C209 509 196 480 178 451 C157 421 146 379 130 331 C111 285 96 244 80 195 C74 175 61 108 57 86 C55 67 42 41 42 18 C42 4 46 -10 61 -22 C76 -36 94 -44 112 -51 C131 -59 144 -64 157 -56 C182 -41 190 -1 197 24 C207 64 231 147 244 184 C255 213 262 244 273 273 C278 286 285 299 291 313 C297 292 302 270 310 250 C332 193 356 133 380 76 C398 44 400 2 426 -34 C438 -51 452 -62 473 -63 C509 -67 551 -57 568 -23 C568 -22 591 30 592 32 C629 110 629 139 674 215 C703 263 734 348 769 393 C779 341 790 288 793 232 C800 172 793 150 803 79 C804 68 803 53 803 39 C803 26 804 14 809 5 C818 -19 843 -53 866 -56 C882 -58 915 -65 926 -56 C953 -36 964 26 964 81 C964 109 960 136 956 153 C943 202 947 245 941 296 C935 353 923 406 906 461 C897 491 892 518 882 548 L882 548 Z " />
<glyph glyph-name="N" unicode="N" horiz-adv-x="671" d="M70 297 C62 229 62 160 52 95 C48 62 56 21 68 -13 C77 -40 89 -61 123 -74 C140 -81 148 -82 159 -78 C170 -73 183 -69 190 -63 C202 -57 205 -45 205 -33 C205 -22 202 -11 202 -2 C200 23 204 47 206 72 C207 135 209 199 216 261 C245 233 266 199 290 168 C319 135 343 99 372 67 C394 41 410 16 433 -8 C451 -28 491 -42 516 -50 C551 -58 568 -42 585 -25 C604 -7 605 8 605 33 C604 57 609 81 610 105 C610 142 609 177 609 212 C608 288 617 362 620 438 C621 457 624 475 624 493 C624 507 623 521 618 536 C614 555 597 594 579 610 C560 625 503 639 485 629 C479 625 468 606 464 599 C459 588 460 581 461 568 C468 528 471 485 471 444 C471 418 470 394 468 368 C466 339 463 310 463 280 C463 268 464 257 465 245 C466 234 468 224 468 215 C468 195 464 177 460 154 C424 183 408 207 383 241 C351 282 321 322 297 367 C283 395 266 424 255 452 C245 476 227 501 213 525 C200 550 193 566 155 575 C123 581 111 578 90 561 C77 550 75 537 75 522 C75 512 76 501 76 490 C76 457 77 423 77 390 C77 360 75 327 70 297 L70 297 Z " />
<glyph glyph-name="O" unicode="O" horiz-adv-x="880" d="M512 601 C496 604 477 605 461 605 C431 605 402 600 376 590 C335 576 291 570 255 552 C208 530 159 505 130 464 C90 408 42 342 42 264 C42 252 43 240 45 227 C56 181 74 136 101 93 C144 27 220 -30 297 -56 C317 -62 333 -64 350 -64 C366 -64 383 -62 402 -57 C472 -41 537 -34 598 1 C664 38 700 99 744 155 C788 210 838 279 840 355 C844 503 635 588 512 601 L512 601 Z M661 331 C648 305 635 279 620 253 C609 233 593 216 577 199 C564 185 553 167 540 154 C508 124 468 102 426 85 C407 78 389 74 372 74 C334 74 299 91 256 122 C227 143 178 205 194 240 C197 252 207 262 212 273 C250 338 308 401 377 434 C419 452 465 462 514 462 C541 462 570 458 598 452 C646 444 673 417 683 379 C680 362 668 345 661 331 L661 331 Z " />
<glyph glyph-name="P" unicode="P" horiz-adv-x="667" d="M604 499 C581 518 554 536 528 550 C460 587 387 613 317 608 C250 604 183 583 120 567 C105 562 81 555 71 543 C68 536 70 521 71 513 C74 497 71 481 71 465 C71 400 67 337 57 274 C52 244 51 215 51 188 C51 155 53 123 56 87 C57 64 61 40 70 17 C82 -7 92 -34 116 -55 C136 -70 168 -84 189 -76 C204 -72 211 -47 213 -33 C216 -16 220 8 215 27 C207 50 206 72 204 95 C202 122 209 130 213 154 C352 170 496 228 585 312 C605 330 627 354 634 381 C641 416 634 475 604 499 L604 499 Z M415 355 C365 330 316 310 262 295 C246 291 231 287 218 281 C216 304 221 341 222 362 C224 370 224 452 226 452 C265 448 289 470 327 474 C348 476 373 473 396 470 C422 469 449 467 472 461 C477 418 449 375 415 355 L415 355 Z " />
<glyph glyph-name="Q" unicode="Q" horiz-adv-x="849" d="M801 421 C779 468 736 504 684 530 C627 558 566 584 505 595 C477 600 452 602 427 599 C405 596 384 595 364 589 C335 582 297 570 269 559 C252 553 237 544 220 536 C194 520 165 507 143 490 C87 447 57 368 44 309 C38 284 43 259 48 232 C56 188 64 147 95 103 C112 80 132 55 156 36 C180 17 213 2 240 -11 C272 -27 302 -33 331 -33 C369 -33 402 -23 435 -12 C479 1 524 18 564 40 C579 22 593 6 604 -7 C616 -23 635 -45 651 -62 C668 -79 685 -82 708 -81 C729 -79 754 -67 756 -46 C756 -36 757 -25 755 -16 C750 -6 746 8 737 18 C712 53 695 86 669 113 C693 136 717 164 732 188 C756 227 766 255 788 295 C800 316 812 344 812 375 C812 390 809 405 801 421 L801 421 Z M654 404 C656 388 658 364 651 350 C641 330 628 313 614 296 C593 273 568 252 549 236 C533 250 521 263 507 279 C488 298 461 315 438 328 C429 332 417 334 405 334 C387 334 369 331 358 327 C344 324 333 296 334 284 C340 257 372 233 392 211 C410 192 433 175 453 158 C440 149 426 142 409 136 C384 126 353 116 322 114 C288 112 237 115 219 150 C206 177 200 205 200 232 C200 251 202 270 209 288 C229 349 276 401 346 430 C370 439 392 450 420 453 C448 456 477 453 507 448 C539 444 570 435 602 430 C621 428 653 424 654 404 L654 404 Z " />
<glyph glyph-name="R" unicode="R" horiz-adv-x="749" d="M693 495 C683 507 668 519 653 530 C621 557 587 574 548 591 C502 610 453 618 408 618 C361 618 316 610 274 601 C228 591 216 592 169 586 C142 584 105 580 86 549 C79 538 68 512 70 498 C70 483 75 466 77 452 C81 421 82 391 81 362 C80 328 82 293 81 259 C80 225 76 190 69 158 C64 127 46 95 45 60 C45 47 47 33 52 19 C67 -19 86 -65 136 -73 C167 -78 184 -61 190 -37 C204 7 204 96 226 124 C239 135 269 139 269 139 L356 147 C356 147 430 89 482 35 C502 14 550 -39 579 -58 C594 -66 618 -71 636 -72 C656 -74 673 -60 684 -47 C694 -33 691 -13 690 4 C690 26 665 38 647 57 C623 80 610 98 584 120 C550 148 528 181 490 202 C540 216 630 283 657 317 C685 356 707 396 708 435 C710 455 705 475 693 495 L693 495 Z M507 374 C490 357 462 345 437 333 C408 321 380 309 349 300 C299 288 265 281 230 281 C230 295 230 311 230 326 C230 340 231 355 233 369 C233 380 233 391 233 402 C233 419 234 439 232 459 C254 454 272 460 293 462 C318 465 342 470 367 471 C399 473 435 478 469 477 C482 477 494 477 507 477 C520 477 530 476 541 476 C548 436 533 402 507 374 L507 374 Z " />
<glyph glyph-name="S" unicode="S" horiz-adv-x="744" d="M559 630 C546 632 532 632 519 632 C473 632 392 621 350 615 C284 606 187 557 155 504 C132 465 76 381 76 344 C76 315 71 298 89 266 C108 234 133 207 162 191 C199 172 207 168 222 164 C245 159 267 156 290 156 C372 156 452 186 528 202 C532 192 533 179 533 164 C533 144 529 109 522 94 C507 64 424 43 394 40 C359 36 326 31 290 32 C264 35 231 33 202 44 C175 55 156 95 130 114 C118 122 102 131 90 138 C74 147 70 144 58 137 C45 128 38 118 38 103 C38 94 41 84 45 71 C65 9 116 -26 172 -60 C221 -90 291 -95 351 -95 C427 -95 475 -83 526 -73 C555 -67 584 -54 609 -39 C690 4 693 87 693 155 C693 179 691 201 683 219 C669 247 653 277 630 301 C608 326 558 334 532 337 C490 341 460 335 421 328 C388 321 331 295 275 295 C260 295 245 298 232 301 C232 337 284 422 300 438 C352 492 458 501 527 511 C557 516 572 489 601 471 C615 460 631 441 647 431 C665 420 671 421 686 428 C708 441 714 467 706 489 C686 555 630 619 559 630 L559 630 Z " />
<glyph glyph-name="T" unicode="T" horiz-adv-x="641" d="M616 535 C617 550 615 571 602 585 C590 598 566 607 553 608 C540 610 528 605 517 602 C497 599 477 595 458 592 C413 581 363 579 316 571 C273 562 229 555 184 553 C167 552 150 549 131 548 C109 546 92 550 79 550 C63 550 52 544 38 514 C32 497 21 473 38 455 C79 412 125 404 169 404 C193 404 218 404 240 408 C222 325 216 261 216 165 C216 153 216 141 216 130 C218 103 222 77 226 50 C224 10 253 -70 309 -72 C332 -72 366 -42 372 -25 C377 -14 371 -3 370 8 C366 24 365 40 365 58 C365 93 370 132 370 170 C370 219 374 269 384 320 C391 358 392 395 395 439 C439 448 483 453 526 464 C551 470 577 478 597 492 C610 501 615 516 616 535 L616 535 Z " />
<glyph glyph-name="U" unicode="U" horiz-adv-x="638" d="M67 467 C64 450 65 433 64 415 C61 382 61 347 61 313 C61 268 55 225 55 185 C55 165 56 145 61 127 C69 79 71 38 111 -6 C125 -22 144 -34 165 -44 C182 -51 231 -56 249 -52 C356 -44 485 -39 582 6 C596 21 598 109 597 130 C585 256 577 390 572 514 C571 548 582 616 515 624 C494 627 440 618 429 605 C416 589 416 555 413 535 C411 525 411 515 411 505 C411 462 417 417 419 373 C424 322 432 241 438 190 C441 173 449 147 442 132 C436 118 413 109 398 102 C375 92 352 90 328 90 C311 90 294 91 278 91 C261 91 243 90 227 86 C218 143 215 198 215 253 C215 282 215 312 217 341 C220 381 217 422 229 458 C234 472 237 486 237 499 C237 524 228 548 201 572 C183 589 152 589 131 592 C97 596 84 572 80 548 C75 522 69 495 67 467 L67 467 Z " />
<glyph glyph-name="V" unicode="V" horiz-adv-x="704" d="M678 526 C678 543 684 558 668 576 C648 599 617 604 590 600 C536 592 536 536 515 501 C486 453 438 354 420 301 C403 252 389 242 366 196 C364 193 354 173 343 153 C326 189 309 242 294 282 C276 328 258 364 241 408 C231 436 215 464 196 490 C174 520 164 555 128 582 C116 590 96 595 77 595 C57 595 38 590 32 579 C14 549 52 475 79 425 C90 405 101 384 112 364 C133 326 151 288 163 251 C175 216 190 181 201 145 C213 112 222 78 233 44 C241 23 243 -7 264 -24 C287 -42 343 -48 366 -50 C409 -50 439 -6 454 22 C464 39 476 68 485 86 C496 107 510 126 520 147 C539 190 553 235 574 278 C595 319 643 411 660 455 C669 478 676 501 678 526 L678 526 Z " />
<glyph glyph-name="W" unicode="W" horiz-adv-x="894" d="M859 526 C849 549 835 572 812 589 C793 606 756 596 736 585 C698 566 698 514 687 476 C676 428 661 379 647 331 C632 287 624 263 605 222 C602 213 596 205 590 196 C555 252 539 291 522 349 C505 412 484 476 464 539 C458 562 435 578 410 592 C398 598 389 601 381 601 C370 601 361 597 351 588 C322 564 321 513 312 476 C302 435 295 392 284 350 C275 324 260 298 241 246 C233 267 228 291 221 310 C213 336 207 368 202 393 C197 427 190 448 189 481 C189 502 185 544 162 561 C148 572 132 577 118 577 C105 577 92 573 81 566 C62 553 46 536 38 513 C30 491 44 457 51 430 C69 361 86 292 108 223 C119 189 123 155 131 122 C137 92 144 62 150 33 C155 10 155 -8 175 -30 C189 -48 237 -69 257 -67 C275 -64 296 -48 300 -34 C308 -8 316 18 322 44 C334 97 350 150 366 201 C375 227 391 246 402 270 C415 256 426 235 432 219 C446 194 459 168 471 143 C488 108 508 73 527 38 C536 19 546 -8 560 -24 C568 -32 584 -41 595 -46 C609 -51 636 -46 648 -41 C668 -34 700 -28 706 -8 C716 12 718 35 724 57 C740 121 765 182 784 242 C799 291 812 342 828 390 C837 417 845 444 855 470 C860 490 867 503 859 526 L859 526 Z " />
<glyph glyph-name="X" unicode="X" horiz-adv-x="662" d="M630 515 C637 533 640 548 625 568 C618 579 597 612 581 616 C552 624 509 600 497 585 C479 562 460 538 440 515 C424 497 410 476 392 458 C366 430 339 404 315 375 C288 415 260 455 238 495 C212 541 184 560 130 581 C108 589 86 593 74 579 C63 568 57 558 57 547 C57 539 61 529 67 518 C80 491 99 464 113 438 C144 384 180 332 213 280 C165 248 62 133 50 76 C45 57 26 24 44 2 C53 -10 86 -34 101 -38 C133 -44 165 -24 177 -6 C212 44 250 99 297 143 C315 119 332 93 352 70 C377 41 402 11 428 -17 C446 -35 483 -48 507 -51 C542 -53 554 -42 559 -16 C563 10 549 27 528 53 C505 81 483 110 465 141 C446 173 426 206 404 239 C414 248 424 257 433 267 C480 310 528 354 568 402 C596 436 616 475 630 515 L630 515 Z " />
<glyph glyph-name="Y" unicode="Y" horiz-adv-x="628" d="M592 520 C596 531 598 541 598 551 C598 569 592 586 577 601 C568 613 529 628 516 632 C501 636 461 628 454 619 C440 600 436 582 429 567 C413 521 415 512 398 479 C378 438 361 395 333 356 C284 411 264 434 229 486 C206 521 197 532 167 572 C157 585 133 606 116 607 C79 610 28 585 36 542 C43 512 44 507 63 478 C87 440 107 423 132 390 C145 373 175 349 190 331 C215 302 240 273 268 236 C256 215 207 136 195 114 C175 73 148 32 159 -16 C164 -35 187 -64 208 -74 C217 -77 231 -79 244 -79 C258 -79 272 -77 278 -73 C294 -63 296 -39 304 -23 C315 -5 327 16 338 34 C353 58 366 84 380 108 C395 135 410 155 426 182 C444 213 459 230 479 265 C488 282 502 316 510 335 C537 396 566 459 592 520 L592 520 Z " />
<glyph glyph-name="Z" unicode="Z" horiz-adv-x="592" d="M188 606 C116 604 65 579 50 509 C42 473 90 467 131 467 C146 467 162 467 170 468 C237 474 268 486 332 495 C304 448 276 413 241 370 C199 315 164 250 128 192 C112 166 95 142 76 118 C54 90 34 49 34 11 C34 -9 40 -28 53 -44 C75 -65 88 -68 114 -64 C143 -59 172 -52 200 -48 C233 -45 268 -44 301 -42 C332 -40 363 -39 392 -38 C427 -36 457 -30 488 -23 C512 -18 539 -4 551 15 C564 36 544 75 524 93 C502 116 491 112 464 105 C432 98 400 93 369 93 C354 93 340 93 327 93 C299 93 273 92 244 87 C253 99 258 116 268 130 C280 148 291 165 302 184 C327 225 353 265 382 304 C413 350 452 395 491 441 C503 455 517 465 529 479 C546 497 559 521 559 548 C559 562 554 578 546 593 C535 610 519 629 498 636 C471 647 435 635 407 633 C360 629 310 623 264 616 C239 611 215 607 188 606 L188 606 Z " />
<glyph glyph-name="bracketleft" unicode="&#x5b;" horiz-adv-x="464" d="M70 301 C70 255 68 208 68 158 C67 115 76 70 77 27 C79 -15 76 -59 87 -103 C90 -125 102 -187 127 -199 C153 -212 197 -215 226 -219 C240 -222 255 -223 269 -223 C295 -223 320 -219 344 -216 C375 -211 378 -208 407 -200 C435 -192 441 -166 436 -136 C432 -108 417 -87 382 -80 C354 -75 352 -90 328 -93 C315 -95 302 -95 290 -95 C274 -95 256 -94 239 -91 C234 -23 229 50 229 121 C229 135 229 149 229 162 C229 216 231 269 231 324 C231 348 231 372 229 396 C228 432 227 468 226 503 C224 536 231 567 229 599 C228 612 229 651 229 651 C229 651 262 652 272 652 C299 653 332 655 356 663 C380 670 389 696 388 719 C385 747 365 762 332 772 C322 776 311 777 300 777 C280 777 260 773 241 772 C221 771 200 772 179 772 C167 772 156 772 144 771 C109 770 77 770 68 739 C63 725 61 714 61 701 C61 690 62 679 65 665 C71 640 74 617 74 592 C74 574 73 555 70 535 C69 518 74 503 74 486 C75 444 71 400 70 359 C70 339 69 320 70 301 L70 301 Z " />
<glyph glyph-name="backslash" unicode="&#x5c;" horiz-adv-x="573" d="M315 353 C300 385 282 418 265 450 C256 468 248 484 237 501 C206 543 194 589 169 630 C156 652 139 673 112 684 C89 692 44 705 25 692 C15 685 10 669 10 653 C10 642 13 632 18 624 C35 599 51 573 65 548 C109 476 144 401 180 327 C202 280 219 233 241 185 C262 144 289 101 316 61 C339 24 372 -11 402 -46 C422 -72 447 -105 476 -125 C493 -137 528 -147 542 -133 C557 -118 562 -103 562 -88 C562 -67 551 -47 537 -29 C530 -19 521 -11 514 -1 C496 21 479 42 464 65 C449 87 435 109 424 132 C415 152 408 175 395 194 C382 216 366 238 354 259 C335 288 329 322 315 353 L315 353 Z " />
<glyph glyph-name="bracketright" unicode="&#x5d;" horiz-adv-x="482" d="M405 302 C404 331 407 359 408 387 C410 435 420 481 424 531 C427 570 428 610 431 648 C432 664 438 686 438 706 C438 717 437 726 431 735 C417 758 378 777 352 788 C338 794 322 796 308 796 C294 796 280 794 266 792 C234 784 206 771 174 764 C152 759 131 755 109 753 C97 752 77 754 68 748 C59 742 55 732 55 721 C55 691 84 650 118 641 C143 635 169 644 190 646 C216 648 241 650 266 652 C260 619 260 585 260 550 C260 532 260 513 260 495 C260 472 258 450 257 427 C256 415 256 402 256 390 C256 349 260 307 262 264 C263 218 258 172 255 127 C252 103 252 79 252 55 C252 42 252 30 252 18 C252 -18 251 -56 243 -91 C216 -96 186 -95 157 -95 C143 -95 129 -96 114 -97 C101 -97 84 -92 74 -97 C61 -103 56 -114 56 -126 C56 -137 59 -149 64 -161 C71 -181 94 -199 119 -207 C152 -218 180 -221 213 -223 C231 -224 245 -225 260 -225 C275 -225 288 -224 304 -221 C331 -213 360 -211 382 -198 C394 -189 396 -173 396 -158 C396 -144 395 -130 395 -119 C395 -69 404 -23 407 27 C409 63 406 101 406 139 C406 151 406 163 407 175 C408 191 408 206 408 221 C408 247 407 272 405 302 L405 302 Z " />
<glyph glyph-name="asciicircum" unicode="&#x5e;" horiz-adv-x="387" d="M326 731 C319 739 310 745 302 753 C289 767 278 783 266 798 C260 806 253 821 244 827 C237 834 220 835 211 835 C195 835 188 830 178 823 C168 813 157 805 146 796 C128 782 113 765 95 750 C69 733 45 718 33 692 C32 672 44 664 62 659 C89 650 123 663 140 675 C155 686 167 696 182 708 C194 716 202 731 216 735 C229 725 237 716 248 705 C269 684 290 672 321 668 C328 667 339 674 343 679 C348 685 353 692 350 702 C345 713 333 721 326 731 L326 731 Z " />
<glyph glyph-name="underscore" unicode="&#x5f;" horiz-adv-x="700" d="M255 95 C202 87 152 76 97 70 C58 67 37 51 36 13 C36 -12 37 -24 64 -44 C92 -62 106 -62 130 -57 C165 -50 201 -42 239 -39 C304 -34 372 -32 435 -19 C475 -12 629 -7 652 19 C661 30 672 79 662 97 C649 120 595 120 576 123 C561 125 544 127 529 127 C501 127 471 123 440 117 C378 107 316 105 255 95 L255 95 Z " />
<glyph glyph-name="grave" unicode="&#x60;" horiz-adv-x="329" d="M164 802 C148 809 133 814 119 823 C109 829 101 836 90 837 C77 838 57 830 50 822 C44 816 48 792 55 783 C62 774 75 766 85 758 C96 749 108 743 121 736 C146 724 193 707 231 702 C248 699 262 698 273 701 C287 706 289 719 287 731 C287 736 282 748 276 752 C271 757 258 760 252 764 C243 769 235 771 226 775 C205 783 185 793 164 802 L164 802 Z " />
<glyph glyph-name="a" unicode="a" horiz-adv-x="722" d="M452 623 C427 623 384 604 363 592 C339 578 319 559 300 537 C256 486 218 430 184 370 C136 284 96 213 77 121 C70 91 62 73 52 44 C45 22 32 -10 40 -34 C52 -65 90 -78 120 -78 C175 -78 207 34 213 67 C278 76 341 93 407 105 C435 110 493 118 521 120 C528 95 533 68 536 41 C540 19 539 -16 551 -33 C561 -48 585 -67 599 -69 C658 -79 683 -25 681 24 C679 97 685 153 664 227 C642 298 598 398 574 470 C554 532 530 624 452 623 L452 623 Z M398 233 C356 225 315 210 273 210 C295 256 319 298 348 341 C370 373 400 411 421 433 C435 406 459 372 471 338 C483 305 495 279 502 245 C479 247 421 238 398 233 L398 233 Z " />
<glyph glyph-name="b" unicode="b" horiz-adv-x="782" d="M723 248 C663 330 614 310 543 331 C561 355 579 384 594 411 C606 432 627 461 626 492 C626 503 624 513 617 524 C587 567 542 595 492 599 C452 602 426 604 397 604 C375 604 351 603 321 599 C255 588 188 590 131 565 C111 556 82 553 69 537 C56 523 64 493 62 472 C61 436 69 383 69 345 C70 316 65 290 66 261 C68 207 63 156 67 103 C70 34 59 -19 109 -56 C125 -69 144 -73 164 -73 C196 -73 216 -72 234 -64 C337 -30 455 -6 552 21 C619 38 749 110 760 167 C762 187 746 215 723 248 L723 248 Z M212 361 C213 378 218 438 218 438 C218 438 264 451 288 456 C337 465 387 470 439 468 C448 467 454 468 461 465 C440 429 402 392 362 370 C317 345 260 339 213 318 C210 335 212 353 212 361 L212 361 Z M408 127 C370 119 333 107 296 95 C284 88 217 69 217 69 C217 69 216 110 220 131 C219 136 220 196 220 196 C311 225 427 237 537 221 C550 219 565 218 580 213 C548 169 464 142 408 127 L408 127 Z " />
<glyph glyph-name="c" unicode="c" horiz-adv-x="816" d="M659 585 C629 599 598 606 569 606 C519 606 470 589 421 562 C363 531 276 495 233 453 C176 399 76 315 53 247 C45 223 38 194 38 165 C38 150 40 137 44 124 C55 85 86 38 114 6 C151 -34 257 -53 280 -59 C322 -69 360 -75 397 -75 C419 -75 441 -73 465 -68 C524 -56 548 -50 599 -22 C639 -1 695 27 728 52 C748 67 769 91 766 115 C760 145 735 190 702 185 C676 182 642 158 618 148 C558 124 524 91 458 75 C405 63 370 58 343 58 C313 58 294 63 275 69 C251 76 206 105 200 130 C184 201 329 324 376 362 C417 396 513 441 562 463 C591 475 632 466 665 437 C692 414 714 402 734 402 C748 402 761 409 776 423 C785 435 783 454 776 470 C757 502 690 571 659 585 L659 585 Z " />
<glyph glyph-name="d" unicode="d" horiz-adv-x="772" d="M715 476 C668 536 547 589 473 610 C453 615 431 617 404 617 C335 617 253 602 208 594 C178 589 151 582 124 573 C68 558 86 490 79 446 C71 407 65 372 65 335 C65 307 67 278 70 248 C71 234 73 219 73 205 C73 165 68 127 68 87 C68 67 69 45 74 23 C76 2 75 -30 90 -50 C106 -65 148 -81 168 -82 C229 -85 263 -61 302 -33 C327 -16 354 1 378 15 C464 58 576 115 642 187 C671 218 698 255 712 291 C724 322 740 362 736 400 C734 422 730 456 715 476 L715 476 Z M565 387 C565 353 552 331 535 304 C504 259 413 213 366 181 C339 161 308 144 278 126 C258 114 218 90 218 90 C218 90 218 136 218 147 C219 204 224 259 227 316 C228 356 232 398 231 438 C231 448 232 456 232 456 C232 456 266 461 280 463 C306 465 392 475 419 473 C468 470 507 464 555 453 C568 433 566 406 565 387 L565 387 Z " />
<glyph glyph-name="e" unicode="e" horiz-adv-x="725" d="M68 420 C68 388 70 358 70 327 C70 257 57 191 61 120 C61 94 64 66 64 39 C64 26 62 11 62 -3 C62 -14 63 -24 67 -35 C79 -69 109 -77 140 -77 C165 -77 190 -71 204 -67 C322 -35 432 -24 535 -18 C564 -17 598 -21 614 -2 C623 9 629 20 629 33 C629 42 626 51 620 63 C605 95 576 95 546 99 C527 101 508 102 490 102 C427 102 365 90 307 85 C265 82 237 77 200 67 C202 89 202 111 204 133 C206 142 206 175 206 175 C206 175 227 181 243 186 C312 205 378 213 441 219 C475 222 510 225 544 227 C571 228 604 216 624 228 C640 238 642 267 643 287 C646 308 625 339 595 347 C565 354 539 356 510 354 C416 351 302 339 218 318 C220 335 222 419 222 419 C222 419 285 437 299 442 C366 466 488 490 570 490 C585 490 598 489 610 487 C642 482 665 471 685 490 C696 500 700 513 700 528 C700 562 674 602 629 607 C592 611 568 617 533 615 C396 620 277 579 150 546 C123 539 94 533 77 513 C68 501 65 489 65 474 C65 457 69 439 68 420 L68 420 Z " />
<glyph glyph-name="f" unicode="f" horiz-adv-x="616" d="M603 541 C608 559 586 582 568 597 C544 616 509 613 483 613 C405 615 322 606 253 589 C218 581 183 569 144 564 C118 560 94 560 86 535 C80 518 79 500 79 479 C79 463 80 448 80 433 C81 413 76 393 75 373 C71 328 63 286 64 237 C63 219 61 200 58 182 C57 149 56 152 53 120 C53 108 52 98 52 88 C52 72 53 58 57 36 C62 21 68 3 77 -9 C94 -31 106 -60 143 -64 C157 -66 197 -51 204 -38 C211 -26 208 -6 207 9 C206 29 202 61 204 80 C207 114 209 102 211 136 C212 162 213 159 215 185 C272 202 327 206 392 216 C420 220 479 222 503 232 C518 236 562 268 562 297 C562 307 557 317 542 325 C522 337 484 342 464 343 C439 345 410 343 388 340 C348 335 306 334 266 326 C252 324 237 320 221 317 C221 326 221 335 222 345 C224 376 232 415 234 448 C288 451 335 472 389 479 C417 483 448 480 477 483 C504 485 532 482 560 485 C581 489 597 523 603 541 L603 541 Z " />
<glyph glyph-name="g" unicode="g" horiz-adv-x="955" d="M778 562 C747 580 706 596 672 597 C587 601 410 575 338 536 C301 518 265 497 240 465 C162 375 52 298 44 179 C40 124 61 68 112 27 C162 -13 243 -59 300 -65 C338 -69 360 -76 397 -76 C451 -73 498 -67 549 -57 C603 -50 724 -1 761 24 C827 69 900 118 920 193 C924 210 904 256 893 272 C878 295 860 312 838 321 C817 330 793 336 772 341 C733 348 693 352 656 352 C581 352 510 338 441 307 C422 298 378 267 372 242 C366 225 377 193 392 172 C404 156 432 155 449 154 C470 153 496 176 515 190 C526 199 539 211 553 217 C573 224 584 223 607 225 C621 226 637 227 651 227 C689 227 724 223 760 219 C697 130 530 74 426 56 C409 53 396 52 382 52 C338 52 297 63 251 74 C238 76 202 87 197 104 C193 116 190 131 190 145 C190 164 194 183 200 198 C212 222 241 244 265 274 C295 313 313 330 327 341 C346 359 372 379 392 395 C420 418 519 443 552 454 C583 465 625 472 665 474 C693 475 734 457 757 443 C785 425 815 409 839 409 C855 409 869 415 880 431 C895 449 872 482 857 504 C839 525 803 546 778 562 L778 562 Z " />
<glyph glyph-name="h" unicode="h" horiz-adv-x="683" d="M646 524 C646 541 643 558 630 573 C612 598 588 610 564 610 C549 610 535 605 520 596 C502 585 501 561 493 543 C486 520 480 493 477 469 C472 439 468 383 463 344 C446 353 417 353 394 353 C365 353 339 349 312 347 C285 343 258 337 229 330 C229 354 227 378 227 401 C227 422 233 440 239 459 C244 481 255 508 251 530 C248 552 222 583 199 594 C167 608 141 595 124 578 C87 542 90 484 77 436 C68 408 67 378 67 348 C67 327 68 306 67 285 C74 239 58 187 63 142 C65 118 65 93 68 69 C69 52 79 30 87 12 C94 -2 105 -24 124 -32 C143 -39 168 -28 180 -18 C196 -5 206 5 207 25 C209 51 213 76 212 102 C211 132 215 161 218 190 C237 195 252 200 258 201 C302 208 348 213 394 218 C413 221 431 223 451 224 C451 208 446 195 446 177 C444 162 444 148 444 133 C444 119 444 103 446 88 C448 50 446 6 461 -35 C466 -48 492 -62 507 -70 C522 -79 544 -87 559 -78 C573 -65 579 -50 583 -33 C588 -7 591 19 593 45 C599 107 599 171 604 234 C605 268 612 299 614 333 C615 360 617 388 624 415 C632 440 646 497 646 524 L646 524 Z " />
<glyph glyph-name="i" unicode="i" horiz-adv-x="296" d="M74 336 C68 286 56 236 61 184 C63 143 68 78 77 36 C82 13 94 -24 111 -42 C132 -64 150 -79 169 -59 C187 -45 207 -27 213 -6 C221 19 213 51 215 78 C215 114 218 171 218 208 C218 258 224 308 228 358 C232 410 246 485 256 535 C262 558 241 588 213 593 C199 594 170 595 157 593 C143 590 130 576 121 564 C101 538 96 509 92 475 C87 435 76 375 74 336 L74 336 Z " />
<glyph glyph-name="j" unicode="j" horiz-adv-x="743" d="M721 492 C728 508 718 543 704 562 C674 604 585 598 546 601 C493 607 413 590 358 581 C301 571 250 554 196 541 C165 533 153 522 151 493 C148 469 172 448 195 428 C215 421 245 417 275 417 C297 417 319 419 334 424 C360 432 391 445 421 448 C421 385 427 324 433 257 C435 243 435 229 435 215 C435 201 435 186 435 171 C433 144 441 118 441 91 C395 81 313 69 262 67 C245 65 213 61 199 67 C194 115 204 229 105 245 C57 251 52 219 52 185 C52 168 53 152 52 138 C50 119 44 97 44 74 C44 33 71 -12 112 -35 C140 -52 220 -57 253 -56 C274 -56 305 -57 332 -57 C345 -57 359 -57 369 -56 C415 -50 512 -41 555 -22 C580 -11 583 6 584 29 C588 75 574 125 574 173 C574 200 576 228 574 255 C572 307 572 358 566 417 C565 432 561 447 559 462 C586 462 615 467 651 467 C684 467 706 467 721 492 L721 492 Z " />
<glyph glyph-name="k" unicode="k" horiz-adv-x="773" d="M695 561 C689 582 654 596 635 601 C606 606 581 595 563 584 C546 570 527 555 508 541 C469 507 424 470 381 434 C342 402 275 339 237 313 C239 347 243 406 239 457 C237 478 234 497 229 512 C221 533 186 584 153 589 C139 592 110 589 101 584 C80 572 80 548 82 521 C84 503 86 485 87 472 C82 406 70 341 66 272 C64 234 63 196 66 156 C69 113 76 67 95 21 C105 0 128 -25 150 -44 C163 -55 176 -59 189 -59 C200 -59 211 -57 220 -53 C237 -48 251 -33 246 -16 C241 19 232 50 229 84 C228 94 228 104 229 115 C258 137 293 153 326 176 C443 121 473 87 603 3 C610 -7 670 -46 682 -46 C694 -46 711 -45 721 -40 C743 -30 744 -9 739 12 C734 32 724 53 705 72 C679 107 617 143 576 171 C531 202 484 229 437 264 C460 282 473 295 483 301 C539 338 595 385 642 430 C658 444 676 463 685 482 C700 512 706 528 695 561 L695 561 Z " />
<glyph glyph-name="l" unicode="l" horiz-adv-x="612" d="M84 356 C70 296 62 193 61 131 C58 103 57 78 58 50 C58 28 61 2 64 -16 C68 -34 86 -61 102 -72 C113 -79 123 -81 133 -81 C144 -81 155 -78 167 -76 C216 -67 258 -45 308 -34 C371 -22 441 -5 507 0 C526 1 555 0 571 11 C579 17 582 33 582 48 C582 62 580 75 574 81 C547 119 477 125 439 118 C365 103 284 108 215 87 C209 108 216 133 218 154 C222 218 232 305 245 372 C253 408 263 441 263 479 C264 526 243 561 207 600 C194 615 178 621 163 621 C108 621 109 598 112 556 C112 549 113 541 113 532 C113 470 99 415 84 356 L84 356 Z " />
<glyph glyph-name="m" unicode="m" horiz-adv-x="992" d="M70 148 C55 120 45 79 48 38 C46 18 45 4 50 -18 C55 -44 84 -67 106 -75 C125 -80 146 -72 164 -67 C209 -53 209 58 221 97 C232 127 244 158 255 189 C271 232 278 272 307 307 C321 270 328 255 335 219 C351 166 366 112 377 58 C382 36 387 -10 396 -33 C405 -56 431 -65 458 -78 C471 -83 487 -86 502 -86 C515 -86 527 -84 536 -79 C558 -67 563 -47 572 -27 C624 103 652 222 728 348 C747 293 759 238 779 168 C787 144 798 122 812 47 C816 25 817 -36 842 -53 C859 -65 899 -73 919 -70 C949 -68 958 -29 958 12 C958 45 954 78 948 93 C926 161 911 250 882 318 C844 407 847 498 796 598 C785 619 756 622 728 623 C662 629 660 594 636 556 C603 505 588 444 564 389 C540 333 512 253 483 200 C477 223 470 247 464 272 C452 332 444 348 436 407 C433 430 428 459 422 481 C420 493 415 509 408 520 C403 528 392 537 383 544 C359 565 343 566 316 562 C287 559 277 552 263 531 C237 493 196 462 176 416 C152 356 131 292 107 233 C95 205 84 176 70 148 L70 148 Z " />
<glyph glyph-name="n" unicode="n" horiz-adv-x="696" d="M80 240 C80 189 59 143 59 90 C59 78 61 66 63 53 C69 25 86 -65 130 -75 C146 -79 196 -75 204 -64 C215 -51 213 -21 213 -4 C215 44 220 90 224 136 C227 161 231 188 231 213 C230 223 230 234 230 244 C230 261 231 277 234 291 C277 252 300 195 339 148 C371 107 385 64 413 23 C422 6 433 -19 452 -34 C471 -47 505 -55 527 -57 C579 -63 583 -32 593 6 C607 61 621 130 621 194 C621 292 632 383 652 486 C653 494 654 505 654 515 C654 525 653 536 653 545 C651 565 623 589 605 602 C583 618 563 619 541 610 C508 594 493 542 485 509 C482 497 482 484 482 471 C482 461 482 450 482 440 C483 407 476 376 471 344 C464 308 465 270 458 232 C454 221 454 212 449 202 C422 242 405 250 389 280 C373 310 353 342 333 372 C320 395 307 418 294 441 C287 453 221 559 209 568 C195 581 164 588 146 589 C125 590 99 573 88 560 C76 545 79 527 80 509 C81 482 80 456 82 429 C86 411 81 394 81 376 C81 344 80 313 80 240 L80 240 Z " />
<glyph glyph-name="o" unicode="o" horiz-adv-x="848" d="M755 516 C715 545 665 559 618 571 C563 587 517 601 464 594 C440 590 415 593 392 589 C365 585 341 576 317 568 C272 556 243 536 213 508 C178 478 148 444 116 411 C67 359 37 298 37 229 C37 194 45 156 63 116 C80 78 127 5 169 -23 C204 -45 278 -51 317 -51 C334 -51 351 -51 369 -51 C420 -51 470 -48 514 -25 C595 17 673 69 728 137 C756 172 774 217 792 258 C806 295 823 327 823 367 C822 424 816 472 755 516 L755 516 Z M599 274 C552 208 516 159 436 122 C402 107 363 98 324 88 C258 72 213 128 188 185 C200 229 218 269 248 302 C273 328 306 366 339 385 C366 402 394 425 421 442 C438 451 460 444 479 447 C496 450 512 456 532 458 C576 462 610 444 654 430 C662 379 625 309 599 274 L599 274 Z " />
<glyph glyph-name="p" unicode="p" horiz-adv-x="692" d="M628 499 C612 512 596 527 580 538 C548 558 479 596 444 599 C413 601 398 601 369 601 C333 602 283 600 250 598 C187 594 188 593 134 567 C118 559 97 550 82 541 C74 533 74 527 71 515 C68 480 67 445 67 413 C67 381 67 349 68 316 C70 286 64 257 67 228 C68 205 70 183 71 161 C74 144 75 121 75 98 C75 75 74 52 71 36 C68 15 79 -42 107 -61 C114 -65 124 -64 134 -65 C159 -70 190 -50 197 -33 C218 17 221 62 220 102 C219 126 221 139 224 162 C258 161 301 168 338 173 C391 182 446 199 491 219 C552 251 621 298 648 362 C658 383 664 407 664 429 C664 456 654 481 628 499 L628 499 Z M496 399 C480 382 460 365 453 361 C426 345 407 332 369 320 C341 312 326 303 296 298 C284 297 272 298 258 297 C245 296 238 291 227 287 C224 297 223 308 223 318 C223 341 228 364 228 387 C227 396 226 406 226 416 C226 423 227 453 227 453 C227 453 350 473 364 473 C397 473 396 472 429 469 C459 467 485 464 514 459 C521 436 508 412 496 399 L496 399 Z " />
<glyph glyph-name="q" unicode="q" horiz-adv-x="920" d="M829 492 C791 535 780 555 722 566 C678 573 634 582 591 585 C580 586 569 587 558 587 C531 587 507 584 483 581 C447 576 408 576 373 568 C340 560 315 547 288 530 C239 499 193 469 148 432 C96 388 64 326 51 263 C45 237 38 217 38 193 C38 184 40 175 42 164 C55 99 139 15 220 -5 C266 -17 278 -22 327 -30 C352 -35 377 -36 403 -36 C447 -36 491 -30 532 -23 C552 -19 572 -18 590 -15 C592 -18 593 -22 596 -27 C603 -36 608 -47 614 -58 C625 -80 641 -104 664 -116 C679 -125 698 -131 715 -131 C734 -131 739 -127 746 -114 C750 -103 756 -88 752 -75 C748 -61 741 -45 736 -29 C725 -4 711 22 697 47 C746 96 806 137 837 196 C862 246 873 302 889 355 C903 399 868 448 829 492 L829 492 Z M680 273 C662 241 642 208 617 179 C596 208 579 228 544 255 C532 263 501 284 488 291 C476 298 473 302 459 302 C444 301 427 298 415 292 C400 285 405 261 405 245 C405 230 409 219 419 205 C426 195 435 188 442 179 C457 167 465 153 477 141 C485 131 493 121 502 113 C475 107 448 103 422 102 C408 101 396 101 385 101 C350 101 328 107 272 132 C253 139 209 170 209 189 C208 215 232 268 244 286 C272 328 310 365 360 392 C407 416 451 448 512 453 C525 455 539 456 553 456 C565 456 579 455 592 453 C641 448 700 422 729 385 C710 350 700 309 680 273 L680 273 Z " />
<glyph glyph-name="r" unicode="r" horiz-adv-x="747" d="M694 458 C676 486 664 508 641 531 C619 552 595 564 570 575 C497 610 400 628 330 622 C273 618 222 610 167 592 C146 584 120 577 103 562 C97 556 92 549 92 539 C88 522 84 508 78 491 C61 415 67 328 64 247 C63 221 62 188 61 153 C61 90 67 21 103 -28 C122 -55 159 -65 178 -45 C193 -30 220 -27 222 -2 C224 24 207 93 208 121 C208 138 208 165 208 165 C208 165 295 189 315 174 C365 142 383 107 419 72 C438 53 475 10 496 -7 C526 -33 527 -54 564 -63 C583 -68 628 -68 637 -58 C647 -48 647 -36 643 -21 C639 -4 638 5 629 21 C595 74 581 92 529 150 C504 173 498 178 458 218 C557 249 607 264 669 332 C685 349 698 368 704 393 C711 418 712 430 694 458 L694 458 Z M396 338 C334 321 285 299 223 299 C223 358 243 406 239 458 C263 459 291 480 316 482 C341 486 366 486 393 485 C441 482 465 480 515 469 C519 468 530 464 541 462 C574 404 455 356 396 338 L396 338 Z " />
<glyph glyph-name="s" unicode="s" horiz-adv-x="812" d="M769 496 C776 513 748 556 729 572 C689 611 658 621 607 638 C574 649 542 655 512 655 C493 655 474 652 457 647 C393 629 232 564 190 510 C174 492 153 472 139 450 C118 423 102 398 95 362 C89 343 86 327 86 310 C86 295 89 278 105 258 C116 245 145 222 163 212 C188 199 237 184 262 182 C275 181 288 179 300 179 C345 179 384 188 428 196 C468 205 509 216 553 216 C566 216 580 215 595 212 C591 194 592 166 584 146 C574 126 566 116 547 105 C504 79 486 76 439 66 C391 58 310 53 257 54 C157 58 157 97 109 116 C81 128 62 120 44 103 C31 88 48 48 57 32 C81 -12 163 -59 215 -68 C258 -76 269 -81 312 -81 C348 -82 392 -80 427 -74 C504 -61 536 -61 605 -33 C651 -15 721 32 736 74 C746 96 762 173 760 205 C756 255 750 297 691 327 C656 345 623 351 587 351 C560 351 531 347 501 343 C472 339 427 331 397 327 C377 325 328 310 290 310 C276 310 263 313 253 319 C297 387 312 420 327 433 C359 465 442 498 482 517 C501 525 526 532 547 535 C564 538 619 519 638 510 C662 498 691 462 716 461 C746 461 759 473 769 496 L769 496 Z " />
<glyph glyph-name="t" unicode="t" horiz-adv-x="625" d="M503 481 C546 486 612 504 602 558 C596 581 566 598 546 607 C536 611 525 612 512 612 C493 612 473 609 458 607 C420 602 382 599 345 593 C301 585 257 583 213 579 C157 573 64 575 36 520 C30 508 25 496 25 484 C25 474 29 464 37 455 C53 440 77 423 100 428 C128 433 153 441 180 445 C196 447 212 450 227 452 C220 423 218 396 215 366 C209 313 200 261 200 208 C200 188 201 166 206 145 C209 116 204 66 207 37 C208 20 209 -6 218 -22 C230 -44 251 -55 273 -55 C289 -55 305 -50 318 -40 C324 -37 331 -31 335 -25 C350 0 350 21 349 47 C346 80 350 132 348 165 C346 178 346 192 346 206 C346 219 346 234 345 248 C343 272 344 296 348 319 C358 368 364 418 378 464 C391 467 403 469 416 472 C444 475 473 478 503 481 L503 481 Z " />
<glyph glyph-name="u" unicode="u" horiz-adv-x="697" d="M385 82 C335 65 238 69 238 69 L228 131 C224 167 220 227 220 269 C220 350 232 434 242 525 C248 550 207 567 184 582 C170 589 141 598 125 590 C74 568 76 491 68 442 C63 408 61 376 61 342 C61 322 62 303 63 282 C69 195 61 94 92 3 C108 -44 184 -72 231 -73 C291 -75 333 -64 388 -55 C405 -52 420 -51 435 -51 C479 -51 602 -45 634 -9 C646 5 650 28 650 56 C650 113 632 210 631 244 C630 276 623 309 621 341 C620 373 628 404 631 435 C632 462 632 488 638 515 C641 535 650 560 645 579 C635 612 607 623 579 623 C557 623 524 616 508 607 C476 589 473 548 473 509 C473 496 473 484 473 472 C472 422 472 372 472 322 C472 305 471 288 471 272 C471 223 471 156 477 108 C477 108 424 96 385 82 L385 82 Z " />
<glyph glyph-name="v" unicode="v" horiz-adv-x="654" d="M114 176 C133 123 162 71 183 18 C190 -4 202 -27 218 -47 C233 -66 268 -64 291 -65 C317 -66 333 -58 348 -42 C373 -14 391 20 408 54 C419 76 429 98 440 119 C472 180 491 244 522 305 C553 363 585 419 610 478 C616 490 635 519 630 534 C627 548 595 586 580 587 C559 590 510 585 497 574 C479 561 454 544 444 524 C422 478 408 427 384 381 C364 341 351 295 331 255 C310 218 302 173 276 148 C257 175 251 197 239 235 C229 267 222 301 215 335 C204 392 185 453 185 508 C187 529 193 547 175 567 C159 581 136 604 114 605 C92 602 57 588 45 569 C33 551 48 501 51 478 C55 447 58 414 63 382 C74 313 90 244 114 176 L114 176 Z " />
<glyph glyph-name="w" unicode="w" horiz-adv-x="966" d="M94 400 C114 343 133 286 152 229 C159 201 170 172 176 145 C182 116 182 87 188 59 C195 35 207 2 233 -16 C250 -27 269 -33 287 -38 C309 -45 340 -33 356 -13 C365 -1 361 18 365 33 C373 61 378 87 388 115 C397 142 408 165 422 189 C431 202 454 239 468 267 C512 210 530 144 570 85 C598 40 624 -41 696 -36 C722 -35 756 -15 762 4 C769 24 769 47 773 69 C784 126 799 181 818 234 C842 295 860 356 894 410 C915 441 938 484 938 525 C938 537 936 548 932 559 C923 583 897 607 866 605 C854 604 831 606 822 601 C792 585 774 547 762 516 C749 485 732 456 718 425 C690 362 673 291 648 225 C608 264 591 333 574 393 C560 448 558 503 521 559 C508 579 479 606 452 610 C421 613 388 598 378 578 C370 556 375 528 371 505 C365 480 358 455 350 430 C329 375 316 314 282 267 C263 325 243 384 218 459 C197 509 184 572 111 590 C84 598 48 575 35 559 C20 539 45 515 56 491 C69 461 82 429 94 400 L94 400 Z " />
<glyph glyph-name="x" unicode="x" horiz-adv-x="662" d="M618 508 C627 518 632 541 632 564 C632 582 629 600 621 608 C612 621 602 622 586 628 C574 633 564 634 555 634 C540 634 527 630 512 624 C496 618 488 616 480 602 C475 592 468 581 461 571 C417 515 369 462 322 406 C312 423 301 439 294 456 C271 499 256 544 233 587 C221 598 205 604 189 604 C177 604 166 601 156 594 C137 582 121 566 125 541 C143 458 183 373 233 299 C227 288 221 279 213 270 C156 206 81 132 36 57 C25 39 16 16 24 -8 C32 -29 48 -56 70 -67 C80 -72 95 -73 109 -73 C170 -73 158 -53 189 -12 C239 51 282 101 327 170 C332 162 338 156 343 149 C382 97 426 46 483 10 C509 -7 532 -28 563 -35 C585 -41 615 -36 620 -17 C634 32 580 64 542 105 C514 138 483 173 454 207 C438 225 426 246 409 268 C433 296 460 324 482 352 C505 382 528 408 555 438 C577 459 598 485 618 508 L618 508 Z " />
<glyph glyph-name="y" unicode="y" horiz-adv-x="647" d="M621 552 C617 571 602 595 576 605 C549 615 503 633 484 621 C470 610 457 592 448 577 C415 514 365 459 329 390 C309 410 296 419 269 444 C245 465 226 496 206 521 C187 545 176 559 150 581 C127 600 94 599 67 599 C41 599 30 574 30 550 C30 539 32 527 36 519 C44 501 61 482 74 465 C116 410 136 398 184 347 C202 327 241 287 257 265 C251 253 233 202 227 189 C204 142 158 93 164 33 C167 11 177 -27 195 -48 C215 -73 258 -82 277 -73 C299 -62 306 -46 312 -24 C324 12 346 44 360 80 C376 124 402 164 421 205 C441 241 463 278 482 315 C502 353 520 392 548 423 C568 446 590 465 605 491 C616 510 628 525 621 552 L621 552 Z " />
<glyph glyph-name="z" unicode="z" horiz-adv-x="671" d="M268 601 C232 599 132 579 113 547 C106 531 101 509 102 490 C106 465 141 445 168 441 C194 439 224 452 246 459 C283 472 329 480 375 480 C391 480 407 479 422 476 C397 445 382 429 360 408 C332 382 308 354 278 326 C232 280 190 229 143 183 C119 160 95 136 77 108 C65 87 36 57 43 30 C48 8 81 -32 100 -48 C120 -65 151 -68 174 -70 C255 -79 371 -28 457 -23 C504 -21 503 -34 541 -29 C571 -27 580 -17 599 -1 C618 13 614 44 610 59 C607 79 598 81 577 88 C540 102 508 107 477 107 C453 107 431 104 404 101 C356 93 308 88 260 72 C319 164 395 245 475 320 C502 344 520 372 542 399 C563 419 590 439 612 457 C629 470 635 486 637 508 C639 535 609 575 581 584 C527 603 474 615 422 615 C411 615 402 614 391 613 C350 611 308 606 268 601 L268 601 Z " />
<glyph glyph-name="braceleft" unicode="&#x7b;" horiz-adv-x="646" d="M271 199 C238 194 207 183 174 181 C124 177 75 179 50 227 C28 268 62 293 97 312 C128 326 188 322 228 327 C253 330 280 335 306 336 C333 338 414 326 439 303 C453 290 461 258 454 245 C441 222 410 208 382 207 C344 205 307 202 271 199 L271 199 Z M383 568 C343 599 278 624 229 625 C202 625 193 615 193 599 C193 581 206 556 221 537 C240 515 262 505 287 493 C321 478 351 455 384 436 C427 412 454 387 498 382 C520 379 540 378 553 392 C558 398 563 413 561 421 C548 493 439 526 383 568 L383 568 Z M417 113 C387 108 365 91 344 75 C304 45 260 48 244 -40 C241 -58 250 -69 268 -88 C277 -98 288 -110 300 -115 C322 -125 343 -114 358 -108 C380 -101 460 -48 471 -34 C490 -8 505 18 521 45 C529 59 527 87 503 105 C488 115 473 119 459 119 C444 119 429 115 417 113 L417 113 Z " />
<glyph glyph-name="bar" unicode="&#x7c;" horiz-adv-x="300" d="M241 417 C242 428 242 439 242 450 C242 463 242 475 242 488 C242 499 242 509 243 520 C245 548 255 582 251 607 C251 632 245 657 224 679 C207 697 168 731 143 730 C119 730 92 703 94 682 C95 653 96 624 97 598 C99 519 88 444 81 367 C76 319 64 274 58 225 C57 210 56 194 56 177 C56 148 58 118 61 90 C63 48 75 4 84 -38 C90 -69 95 -108 112 -139 C123 -156 153 -183 175 -179 C194 -177 237 -149 239 -133 C241 -125 233 -107 232 -97 C231 -85 227 -74 224 -62 C220 -36 215 -10 213 16 C212 30 212 43 212 57 C212 112 218 167 218 223 C218 286 237 354 241 417 L241 417 Z " />
<glyph glyph-name="braceright" unicode="&#x7d;" horiz-adv-x="604" d="M106 381 C118 372 143 361 155 361 C185 359 208 370 233 383 C244 389 255 396 265 402 C295 418 321 435 348 453 C369 468 385 482 407 497 C416 504 421 510 424 522 C426 532 432 556 427 567 C422 573 396 593 389 598 C378 605 366 608 354 608 C339 608 323 603 310 600 C283 594 255 582 233 566 C220 556 208 547 195 536 C163 509 120 485 101 447 C97 439 91 425 91 411 C91 400 95 389 106 381 L106 381 Z M566 291 C558 303 524 316 510 321 C491 327 472 328 454 326 C419 322 385 314 352 307 C288 292 211 297 204 221 C202 200 219 188 241 175 C266 158 280 161 302 166 C343 175 387 173 428 178 C473 184 526 194 555 221 C566 230 579 274 566 291 L566 291 Z M322 -1 C273 33 227 70 178 104 C158 118 134 139 112 133 C95 130 67 114 69 97 C70 70 84 40 107 17 C136 -13 165 -35 201 -57 C238 -79 278 -114 319 -125 C335 -128 378 -125 388 -113 C400 -98 391 -58 376 -42 C361 -27 340 -13 322 -1 L322 -1 Z " />
<glyph glyph-name="asciitilde" unicode="&#x7e;" horiz-adv-x="759" d="M163 373 C133 358 107 335 82 313 C67 298 46 267 55 241 C63 217 90 201 119 195 C146 188 157 196 174 210 C194 227 280 293 306 257 C331 222 335 181 363 145 C377 126 394 113 417 108 C441 103 461 102 484 103 C551 109 576 107 623 141 C668 173 708 225 708 280 C708 299 704 318 692 337 C686 345 683 354 673 360 C656 376 604 394 583 376 C570 365 570 347 564 332 C559 315 515 224 477 241 C457 251 441 292 431 309 C422 321 416 333 408 344 C400 354 392 362 384 371 C359 404 315 417 277 417 C234 417 202 394 163 373 L163 373 Z " />
<glyph glyph-name="exclamdown" unicode="&#xa1;" horiz-adv-x="435" d="M201 602 C190 589 174 561 174 538 C174 522 180 509 201 501 C216 493 234 493 251 493 C268 492 288 490 306 490 C326 490 344 493 358 505 C373 518 417 535 417 562 C416 584 394 625 373 632 C356 638 334 632 319 630 C301 629 218 621 201 602 L201 602 Z M81 -30 C100 -52 114 -61 130 -61 C140 -61 150 -57 162 -51 C228 -17 226 57 252 119 C276 172 276 172 300 225 C315 256 358 349 332 368 C299 395 263 423 240 404 C221 387 189 339 176 318 C157 290 145 256 131 225 C97 154 81 136 53 61 C40 27 50 7 81 -30 L81 -30 Z " />
<glyph glyph-name="cent" unicode="&#xa2;" horiz-adv-x="603" d="M510 362 C509 376 493 413 483 425 C463 448 436 467 410 487 C405 490 400 493 395 497 C396 515 403 578 402 596 C400 625 394 645 359 664 C324 685 307 663 296 642 C284 617 275 543 272 513 C241 508 213 497 194 481 C119 419 46 298 46 200 C46 170 53 138 74 112 C101 73 132 50 175 24 C202 8 251 -4 288 -7 C288 -29 282 -50 282 -76 C282 -90 283 -103 291 -115 C315 -144 346 -152 373 -138 C395 -127 407 -55 408 -30 C408 -19 408 -7 408 4 C463 17 509 42 554 67 C573 76 576 92 563 114 C549 139 528 145 503 149 C492 151 480 152 469 152 C450 152 431 149 414 145 L350 128 C332 126 317 124 278 126 C257 127 233 137 211 141 C207 204 228 383 338 383 C353 383 372 377 394 362 C424 343 454 320 479 326 C498 330 510 343 510 362 L510 362 Z " />
<glyph glyph-name="sterling" unicode="&#xa3;" horiz-adv-x="704" d="M583 433 C587 442 591 454 591 467 C591 478 588 489 584 498 C576 516 561 539 547 550 C526 566 503 576 479 588 C454 600 433 610 408 619 C373 632 333 647 297 647 C282 647 266 644 253 636 C237 625 209 606 199 589 C193 577 190 561 190 545 C190 508 197 473 202 432 C207 402 201 370 201 339 C201 329 202 319 204 309 C183 299 155 310 131 308 C92 303 80 272 81 234 C81 211 96 205 118 192 C136 178 148 171 167 173 C177 176 187 177 196 179 C190 155 175 131 159 107 C134 107 95 110 75 88 C56 69 48 44 44 17 C38 -12 46 -21 69 -46 C92 -69 113 -73 143 -75 C187 -80 222 -59 246 -33 C278 -42 300 -65 332 -78 C353 -86 376 -93 398 -99 C409 -102 420 -103 432 -103 C473 -103 518 -88 552 -76 C596 -63 660 -48 665 -2 C667 19 664 55 641 69 C628 77 610 82 595 82 C582 82 571 79 564 72 C535 40 519 29 466 23 C454 21 441 19 427 19 C415 19 403 20 392 24 C364 30 338 64 310 79 C310 79 341 181 348 204 C375 205 403 204 431 202 C453 201 490 199 504 215 C512 225 529 261 528 276 C527 298 488 321 470 324 C444 328 414 328 388 330 C376 330 364 331 353 330 C353 362 353 396 352 421 C351 453 341 473 351 503 C396 509 448 470 482 444 C501 429 508 411 536 410 C558 410 576 416 583 433 L583 433 Z " />
<glyph glyph-name="currency" unicode="&#xa4;" horiz-adv-x="676" d="M402 561 C391 562 378 564 369 564 C346 564 328 560 310 554 C304 552 299 549 294 548 C276 584 263 622 244 657 C231 668 216 674 200 674 C189 674 177 671 167 664 C148 652 132 636 136 611 C144 572 156 535 174 496 C163 488 153 479 145 469 C120 433 87 388 87 336 C87 328 88 320 89 312 C96 282 107 253 123 228 C94 195 67 161 46 127 C36 109 26 86 35 62 C43 41 58 15 81 4 C90 -1 106 -2 120 -2 C182 -2 169 17 200 58 C218 81 237 102 252 124 C253 122 256 122 257 122 C271 119 282 116 291 116 C304 116 315 119 328 121 C359 128 389 132 417 142 C440 119 464 97 493 80 C520 63 542 42 573 35 C596 29 625 34 630 53 C643 102 591 135 553 176 L519 213 C532 229 542 246 555 263 C585 299 620 345 620 396 C621 439 595 474 559 501 L566 508 C588 530 609 555 629 578 C638 588 643 612 643 634 C643 652 640 670 632 679 C623 691 612 692 597 698 C585 703 575 704 565 704 C550 704 538 700 522 695 C507 688 498 686 491 673 C485 662 479 651 472 641 C451 613 428 587 405 560 C404 560 403 561 402 561 L402 561 Z M453 375 L433 339 C429 330 422 322 415 314 C408 308 404 301 397 293 C383 280 364 270 345 262 C335 258 329 257 321 257 C304 257 287 265 268 279 C255 288 232 316 239 333 C240 339 245 343 248 348 C264 378 291 407 324 422 C341 430 364 434 385 434 C398 434 410 433 424 430 C446 427 459 413 463 398 C461 389 457 382 453 375 L453 375 Z " />
<glyph glyph-name="yen" unicode="&#xa5;" horiz-adv-x="603" d="M568 573 C563 590 551 601 532 612 C514 624 496 635 477 632 C429 625 422 588 402 544 C396 531 392 516 387 504 C366 464 351 423 322 376 C308 355 290 335 278 312 C272 318 264 326 258 333 C231 373 213 419 194 461 C177 493 172 530 148 560 C137 575 127 592 107 599 C86 608 75 602 62 593 C43 579 36 558 36 535 C36 518 38 499 45 482 C56 452 64 422 77 392 C92 360 109 331 125 299 C130 291 134 284 139 275 C124 273 111 270 96 267 C84 263 63 262 53 256 C42 250 28 210 35 199 C38 189 53 178 62 171 C74 161 76 156 89 156 C106 156 120 159 134 160 C157 162 180 164 202 164 C202 148 202 132 202 116 C167 113 133 107 96 108 C55 110 44 65 45 35 C46 15 88 -7 111 -7 C144 -6 177 2 216 4 C219 -13 220 -33 227 -50 C239 -81 288 -109 320 -104 C338 -101 364 -95 373 -82 C383 -69 378 -55 373 -40 C369 -24 364 -7 363 8 C389 8 416 6 442 6 C463 6 486 17 498 28 C510 39 516 73 503 90 C488 107 454 122 435 121 C421 120 409 120 396 120 C383 120 371 120 359 120 C359 130 359 139 359 149 C364 156 370 162 375 168 C410 168 447 166 484 162 C504 159 537 160 551 170 C570 182 573 204 573 224 C573 253 565 255 539 269 C516 281 485 286 458 288 C497 343 515 405 554 472 C565 491 573 514 573 538 C573 549 572 561 568 573 L568 573 Z " />
<glyph glyph-name="brokenbar" unicode="&#xa6;" horiz-adv-x="262" d="M216 484 C211 517 220 554 210 589 C204 614 205 637 174 651 C163 656 155 655 142 655 C129 654 108 653 97 648 C81 642 82 637 78 630 C75 620 69 610 68 602 C66 593 71 582 71 574 C75 532 76 490 71 447 C68 410 59 350 70 316 C75 299 85 292 111 290 C135 286 162 286 178 305 C194 322 206 339 211 357 C216 368 218 378 219 388 C223 421 217 454 216 484 L216 484 Z M47 -85 C51 -94 68 -106 77 -114 C99 -133 142 -130 167 -118 C184 -111 193 -100 198 -86 C206 -64 201 -36 202 -10 C205 16 204 46 204 74 C204 93 205 110 198 131 C193 150 185 186 170 201 C153 224 114 222 90 212 C70 203 55 195 50 176 C44 146 44 103 44 76 C45 38 46 2 45 -33 C44 -44 44 -54 45 -65 C44 -71 44 -77 47 -85 L47 -85 Z " />
<glyph glyph-name="section" unicode="&#xa7;" horiz-adv-x="564" d="M503 584 C495 599 488 610 472 618 C436 641 400 646 359 657 C334 662 310 665 287 665 C244 665 204 657 163 646 C121 633 79 594 69 556 C58 518 81 470 120 435 C143 415 172 395 197 383 C172 361 119 331 127 292 C134 247 152 227 190 189 C226 155 295 132 334 108 C350 99 376 92 375 78 C372 44 321 21 290 18 C279 17 268 15 258 15 C249 15 240 17 228 21 C209 27 195 36 182 48 C167 62 159 73 152 87 C143 110 133 131 105 141 C55 156 26 112 40 74 C61 30 86 -6 124 -35 C153 -58 187 -74 221 -85 C241 -90 266 -95 287 -97 C306 -99 356 -95 372 -91 C431 -78 463 -69 498 -28 C514 -12 516 11 521 30 C526 47 522 72 512 91 C498 118 466 158 433 172 C491 216 501 229 507 242 C515 258 515 272 510 291 C505 313 498 325 483 344 C451 387 409 402 361 424 C321 442 269 456 237 484 C231 488 219 496 216 502 C211 512 220 528 226 535 C244 550 274 554 301 554 C319 554 337 552 351 550 C373 547 389 541 409 525 C426 512 429 501 451 499 C470 498 485 501 498 510 C509 518 514 530 515 543 C515 556 510 570 503 584 L503 584 Z " />
<glyph glyph-name="dieresis" unicode="&#xa8;" horiz-adv-x="414" d="M148 806 C163 790 170 774 170 757 C170 747 168 737 162 727 C157 721 145 719 137 716 C127 713 114 713 102 712 C94 710 88 709 79 715 C63 728 52 747 46 764 C40 792 76 807 99 813 C107 816 118 817 127 816 C134 816 141 813 148 806 L148 806 Z M360 804 C351 815 331 824 319 830 C301 839 291 832 283 823 C271 815 258 807 248 798 C241 793 239 787 239 777 C239 765 244 745 258 735 C269 727 288 720 300 720 C320 721 334 738 348 748 C363 759 370 792 360 804 L360 804 Z " />
<glyph glyph-name="copyright" unicode="&#xa9;" horiz-adv-x="857" d="M779 478 C766 502 749 512 727 528 C687 559 648 593 598 607 C579 615 555 622 535 627 C496 635 459 640 421 640 C391 640 360 636 329 628 C266 610 219 587 178 541 C132 487 82 435 71 364 C67 333 55 304 53 273 C51 244 55 212 61 182 C79 80 180 -33 299 -45 C329 -47 359 -46 389 -50 C417 -53 449 -44 476 -36 C536 -18 598 17 643 56 C668 76 695 98 713 125 C736 156 755 193 773 228 C790 259 803 290 810 325 C816 353 810 378 804 407 C799 432 791 455 779 478 L779 478 Z M683 359 C683 309 662 257 632 217 C615 194 599 168 579 147 C560 127 535 109 508 97 C464 76 413 61 359 61 C309 61 260 75 220 112 C201 130 190 143 184 166 C176 192 176 217 174 242 C169 302 193 352 224 400 C256 445 291 491 339 514 C350 520 432 552 441 553 C459 554 482 542 498 537 C517 531 536 525 553 514 C581 498 605 479 632 461 C649 450 669 438 678 419 C686 402 683 377 683 359 L683 359 Z M529 429 C536 422 547 398 547 390 C548 377 540 370 527 366 C497 360 453 418 424 404 C414 396 402 385 394 375 C384 364 356 331 351 316 C339 291 324 244 333 217 C346 215 361 210 376 207 C396 204 410 207 428 212 C457 218 485 228 517 222 C535 219 547 216 555 200 C564 185 563 176 551 170 C517 152 484 135 444 127 C427 124 409 124 391 122 C358 120 308 139 284 158 C268 170 257 182 245 198 C233 215 228 234 228 253 C228 279 237 305 243 325 C251 349 291 398 307 416 C320 433 329 451 346 464 C366 481 402 488 432 488 C448 488 470 479 484 469 C501 456 516 444 529 429 L529 429 Z " />
<glyph glyph-name="ordfeminine" unicode="&#xaa;" horiz-adv-x="552" d="M464 587 C442 611 408 617 382 616 C348 616 304 615 275 606 C233 595 193 581 159 558 C105 515 55 463 55 388 C53 358 74 295 114 275 C139 265 164 261 188 261 C210 261 233 264 253 267 C295 273 333 285 369 298 C385 274 404 221 446 228 C488 235 484 273 483 309 C482 322 480 336 480 349 C477 393 465 438 470 479 C472 496 480 514 479 531 C477 548 477 571 464 587 L464 587 Z M331 469 C333 456 333 417 333 417 C295 399 240 371 195 381 C207 427 273 497 326 497 C327 487 329 479 331 469 L331 469 Z " />
<glyph glyph-name="guillemotleft" unicode="&#xab;" horiz-adv-x="957" d="M402 154 C360 189 306 204 262 236 C268 252 331 293 354 315 C383 343 415 367 446 393 C470 413 488 435 510 457 C519 466 525 475 525 486 C525 497 519 509 507 522 C495 538 471 555 452 560 C404 571 378 524 358 502 C346 490 335 478 324 468 C295 445 260 428 233 402 C187 359 120 333 65 298 C44 285 35 261 42 233 C44 222 51 205 61 195 C69 183 80 181 95 175 C127 161 158 148 190 133 C222 120 263 103 289 81 C313 63 334 33 360 16 C370 9 382 7 393 7 C408 7 422 11 432 17 C458 32 470 50 459 79 C447 108 428 132 402 154 L402 154 Z M891 479 C880 505 868 510 837 520 C785 533 759 492 734 468 C713 448 715 453 695 435 C653 396 608 362 555 332 C530 316 509 298 483 285 C458 270 447 259 441 229 C439 211 457 176 480 166 C505 155 533 149 558 142 C614 125 654 72 697 34 C723 11 730 4 762 0 C796 -2 811 18 816 44 C825 91 765 144 721 176 C702 189 671 205 656 222 C704 263 756 302 804 342 C837 370 848 378 879 407 C892 420 900 431 900 446 C900 455 897 466 891 479 L891 479 Z " />
<glyph glyph-name="logicalnot" unicode="&#xac;" horiz-adv-x="835" d="M190 510 C179 510 166 510 153 510 C99 510 32 503 21 435 C14 401 24 384 48 364 C64 350 88 359 109 360 C146 362 185 366 221 366 C321 366 384 355 477 343 C497 339 515 333 535 330 C559 324 610 324 610 324 C610 324 617 267 621 244 C624 224 635 147 629 120 C627 93 614 69 623 46 C630 23 658 19 684 19 C716 19 735 36 757 68 C769 85 788 199 784 229 C780 261 791 293 784 325 C779 353 780 353 774 379 C762 451 746 469 661 465 C615 462 576 476 533 482 C485 490 464 491 415 495 C364 499 322 510 268 508 C243 508 218 511 190 510 L190 510 Z " />
<glyph glyph-name="uni00AD" unicode="&#xad;" horiz-adv-x="495" d="M229 310 C194 304 152 307 114 295 C88 286 63 285 51 257 C46 248 48 241 50 230 C52 219 55 202 62 193 C69 181 75 182 84 179 C95 177 106 173 116 173 C125 173 136 178 145 179 C190 187 237 192 284 193 C324 194 392 194 428 206 C446 212 452 221 452 244 C453 264 451 287 429 299 C408 310 388 318 369 321 C356 323 344 324 333 324 C297 324 262 315 229 310 L229 310 Z " />
<glyph glyph-name="registered" unicode="&#xae;" horiz-adv-x="878" d="M725 566 C676 594 614 617 558 629 C529 635 501 639 472 638 C439 636 414 629 383 622 C353 616 326 613 296 602 C258 589 220 575 190 550 C139 510 105 459 77 402 C57 361 46 313 46 263 C46 206 62 147 92 97 C121 51 170 13 218 -16 C268 -49 338 -62 403 -62 C429 -62 453 -60 476 -56 C502 -52 544 -48 588 -27 C697 27 771 87 806 192 C820 230 832 286 832 343 C832 429 806 520 725 566 L725 566 Z M706 312 C700 278 698 239 681 210 C634 128 603 102 519 64 C493 52 461 51 433 46 C417 44 402 42 387 42 C371 42 356 44 339 45 C278 50 232 91 201 136 C175 173 164 219 164 262 C164 278 165 291 168 305 C174 337 180 367 197 394 C215 419 227 446 256 464 C276 479 320 508 339 515 C370 528 403 530 435 538 C446 541 454 547 466 549 C483 552 495 545 510 541 C527 535 542 528 559 524 C588 515 617 509 646 498 C664 491 686 478 696 462 C711 438 715 411 715 384 C715 359 711 334 706 312 L706 312 Z M516 458 C495 467 475 470 457 470 C421 470 391 457 361 442 C341 433 316 417 315 395 C312 371 309 347 307 321 C301 280 294 240 294 196 C293 187 291 177 291 166 C291 147 296 128 317 114 C331 105 360 104 369 114 C376 122 375 147 377 159 C382 175 387 192 391 208 C407 202 432 182 444 168 C459 154 471 131 488 118 C498 111 508 108 518 108 C543 108 562 130 552 156 C537 190 515 227 479 248 C495 252 515 253 530 258 C570 269 595 284 620 309 C630 325 632 336 623 358 C605 401 566 440 516 458 L516 458 Z M477 327 C453 320 427 314 404 310 C408 325 408 349 417 361 C424 368 441 372 452 376 C477 383 498 376 528 373 C532 354 493 332 477 327 L477 327 Z " />
<glyph glyph-name="macron" unicode="&#xaf;" horiz-adv-x="473" d="M402 830 C392 833 383 829 373 828 C356 825 339 821 320 821 C296 819 146 805 124 801 C107 799 88 796 71 790 C62 788 45 784 46 768 C46 761 46 747 51 739 C57 726 79 714 89 713 C97 710 107 714 114 715 C132 718 151 719 169 720 C204 724 365 738 400 743 C415 745 436 747 441 762 C444 772 448 794 442 807 C436 822 413 828 402 830 L402 830 Z " />
<glyph glyph-name="degree" unicode="&#xb0;" horiz-adv-x="422" d="M354 587 C340 604 322 611 306 624 C294 636 278 644 264 651 C240 665 218 669 195 669 C169 669 148 655 130 645 C112 635 99 617 88 601 C79 588 75 572 69 558 C64 543 62 530 62 517 C62 505 64 493 65 480 C67 469 68 461 75 450 C80 439 89 425 100 417 C113 406 130 395 144 390 C163 384 177 383 194 385 C229 389 245 393 277 404 C306 415 327 428 346 447 C354 456 366 464 370 476 C375 496 375 518 375 538 C375 553 369 572 354 587 L354 587 Z M237 499 C220 486 193 474 167 474 C169 501 174 524 189 543 C197 553 207 564 220 568 C233 572 256 554 271 552 C268 532 251 510 237 499 L237 499 Z " />
<glyph glyph-name="plusminus" unicode="&#xb1;" horiz-adv-x="602" d="M554 445 C558 465 558 488 529 501 C505 510 479 518 453 521 C438 524 422 525 408 525 C394 525 377 524 363 522 C363 531 363 541 363 550 C361 573 364 606 339 630 C321 646 287 674 263 680 C239 685 222 656 218 642 C211 630 215 613 216 599 C216 578 217 558 217 537 C217 527 217 516 216 505 C187 504 157 502 130 496 C95 487 62 485 43 458 C33 442 40 410 52 394 C61 383 68 384 80 382 C94 379 107 376 119 376 C132 376 145 379 157 382 C176 384 195 385 215 388 C215 365 218 341 221 318 C226 298 226 273 255 256 C266 248 289 234 302 233 C327 229 352 246 358 261 C361 272 359 287 358 301 C358 330 359 358 359 395 C410 396 480 398 520 408 C542 413 552 422 554 445 L554 445 Z M276 132 C240 126 199 128 162 116 C134 108 109 107 97 79 C94 70 95 63 96 52 C99 41 101 24 108 15 C116 2 121 4 131 1 C141 -1 152 -5 163 -5 C172 -5 183 0 193 1 C238 8 283 13 331 15 C371 16 439 16 475 28 C492 34 498 42 498 65 C501 86 497 109 476 121 C454 132 435 139 415 143 C403 145 391 146 380 146 C343 146 309 137 276 132 L276 132 Z " />
<glyph glyph-name="acute" unicode="&#xb4;" horiz-adv-x="338" d="M141 761 C125 750 112 739 94 730 C84 723 63 715 56 703 C55 700 57 689 61 685 C68 674 80 664 98 662 C112 661 129 664 144 669 C178 678 212 697 237 713 C249 723 273 743 275 762 C275 770 262 791 251 795 C238 800 209 804 196 801 C177 796 159 773 141 761 L141 761 Z " />
<glyph glyph-name="mu" unicode="&#xb5;" horiz-adv-x="561" d="M37 524 C44 484 50 442 46 400 C46 379 50 358 50 338 C50 323 51 309 51 294 C51 279 50 265 48 250 C46 225 46 202 46 179 C46 156 46 134 43 112 C41 98 38 74 38 51 C38 26 41 1 44 -13 C46 -27 52 -48 65 -56 C81 -63 107 -50 125 -35 C178 1 180 57 185 99 C190 148 193 194 195 239 C248 193 258 182 331 172 C339 171 360 183 372 187 C372 173 366 150 375 136 C384 116 394 108 424 103 C449 101 472 103 484 115 C497 128 504 156 505 173 C509 204 513 242 513 279 C513 294 512 309 510 324 C514 353 515 383 515 412 C515 438 514 465 512 490 C509 514 508 542 501 562 C496 578 492 599 480 611 C471 619 459 624 446 624 C421 624 395 611 376 583 C366 570 363 556 363 543 C360 515 371 488 372 464 C371 384 378 316 282 321 C276 321 199 378 193 378 C193 391 193 404 193 417 C193 430 193 443 194 456 C195 498 185 537 182 578 C180 599 180 616 158 624 C144 630 119 633 97 629 C76 624 53 598 45 579 C35 561 35 539 37 524 L37 524 Z " />
<glyph glyph-name="paragraph" unicode="&#xb6;" horiz-adv-x="1045" d="M1008 549 C1011 575 1013 587 985 608 C974 617 960 630 948 634 C935 638 917 635 905 634 C884 633 862 632 842 632 C803 632 762 634 724 635 C635 640 546 638 452 645 C439 645 426 646 413 647 C398 650 385 650 372 650 C338 650 300 645 265 641 C194 635 86 596 50 535 C43 524 42 513 42 501 C42 476 50 451 56 425 C64 393 84 362 119 341 C153 319 178 312 221 309 C239 308 255 307 273 307 C309 307 346 309 388 310 C384 290 378 279 378 263 C377 250 377 239 376 224 C375 215 374 205 374 195 C374 168 378 139 380 112 C383 73 394 -65 464 -82 C486 -87 514 -79 526 -67 C540 -52 536 -34 536 -11 C535 22 532 56 532 88 C532 104 533 119 535 135 C540 179 537 213 541 258 C546 290 552 332 554 364 C558 407 573 455 573 502 C585 502 597 502 608 501 C642 497 679 496 713 496 C712 484 712 472 712 461 C712 450 712 440 712 430 C712 409 712 389 712 368 C712 352 712 335 711 318 C705 234 698 150 683 62 C680 47 683 19 685 4 C690 -36 740 -72 776 -72 C792 -72 805 -64 812 -47 C837 21 859 90 862 166 C867 223 871 281 871 339 C871 393 868 447 859 502 C875 507 892 508 911 508 C930 508 948 507 967 509 C994 514 1007 525 1008 549 L1008 549 Z " />
<glyph glyph-name="periodcentered" unicode="&#xb7;" horiz-adv-x="309" d="M238 299 C222 320 196 327 169 327 C145 327 124 322 112 315 C95 305 88 282 76 267 C65 253 58 247 70 227 C77 217 90 198 102 194 C123 185 157 195 175 198 C190 200 202 199 213 207 C233 223 251 240 251 263 C251 274 246 286 238 299 L238 299 Z " />
<glyph glyph-name="cedilla" unicode="&#xb8;" horiz-adv-x="346" d="M228 -59 C190 -32 156 -13 109 -24 C95 -28 77 -48 84 -65 C89 -78 113 -80 125 -86 C143 -95 158 -104 174 -115 C180 -121 204 -143 204 -143 C204 -143 165 -143 158 -143 C139 -141 108 -136 88 -141 C69 -147 46 -168 42 -187 C36 -208 80 -224 106 -232 C127 -238 145 -240 165 -240 C188 -240 209 -236 232 -230 C266 -219 290 -195 306 -165 C315 -143 291 -121 276 -102 C263 -86 246 -72 228 -59 L228 -59 Z " />
<glyph glyph-name="ordmasculine" unicode="&#xba;" horiz-adv-x="516" d="M441 515 C421 537 398 547 376 565 C360 581 340 590 320 601 C289 621 258 625 228 625 C195 625 165 606 141 593 C118 579 100 555 86 533 C74 516 67 496 61 475 C53 457 50 439 50 422 C50 406 53 390 55 372 C57 358 58 345 67 332 C75 316 87 299 101 287 C119 274 140 258 159 252 C185 244 204 242 227 245 C273 250 296 256 339 270 C376 285 404 302 431 328 C441 339 458 352 461 367 C468 393 468 422 468 450 C468 469 460 496 441 515 L441 515 Z M283 398 C262 379 224 364 190 364 C194 399 199 430 220 456 C231 469 244 484 262 490 C278 496 309 470 329 468 C326 441 302 413 283 398 L283 398 Z " />
<glyph glyph-name="guillemotright" unicode="&#xbb;" horiz-adv-x="967" d="M925 328 C932 302 922 276 901 263 C845 228 779 204 732 159 C706 133 672 116 642 93 C629 84 620 72 609 61 C586 39 563 -10 515 2 C496 6 472 24 459 39 C447 53 441 64 441 75 C441 86 447 95 457 105 C477 127 497 148 521 168 C551 195 584 218 612 246 C635 267 698 312 705 325 C661 358 605 372 564 407 C539 430 519 455 508 482 C496 513 509 531 533 544 C544 550 559 555 575 555 C586 555 597 553 607 547 C632 528 652 499 678 480 C704 458 744 442 774 428 C809 415 840 401 872 387 C887 381 898 379 906 367 C915 356 923 339 925 328 L925 328 Z M483 278 C509 291 520 302 526 332 C528 352 509 385 485 396 C461 406 432 412 408 419 C352 436 310 490 269 528 C244 552 237 558 202 561 C170 564 156 543 151 518 C140 472 201 418 246 387 C265 372 296 356 310 341 C263 298 211 259 162 219 C130 192 119 184 87 154 C73 141 67 131 67 117 C67 108 69 98 75 84 C87 56 97 51 128 42 C180 28 208 69 233 95 C287 147 346 193 410 230 C436 245 458 263 483 278 L483 278 Z " />
<glyph glyph-name="questiondown" unicode="&#xbf;" horiz-adv-x="615" d="M371 532 C382 526 451 533 465 534 C492 537 570 591 570 626 C571 634 554 651 548 654 C529 668 428 639 402 640 C394 641 377 641 368 635 C360 631 341 578 339 571 C334 557 358 537 371 532 L371 532 Z M344 342 C179 272 28 175 25 92 C22 46 48 20 62 5 C90 -22 152 -61 170 -73 C212 -103 314 -101 384 -87 C453 -74 594 46 552 124 C542 138 507 149 492 141 C473 130 463 122 450 103 C434 89 362 53 350 49 C289 34 262 12 171 41 C230 130 275 147 354 190 C435 231 468 224 540 296 C567 323 562 365 553 402 C553 402 537 470 497 477 C497 477 473 472 464 458 C452 439 459 431 452 414 C431 376 384 359 344 342 L344 342 Z " />
<glyph glyph-name="Agrave" unicode="&#xc0;" horiz-adv-x="739" d="M566 562 C549 592 503 636 463 630 C442 627 416 617 400 607 C387 598 371 590 358 582 C332 566 315 538 294 519 C266 488 199 433 178 399 C163 373 146 343 132 316 C120 293 112 267 97 244 C67 190 43 125 44 69 C44 38 53 -15 90 -42 C107 -56 141 -51 152 -42 C182 -22 188 21 197 48 C202 65 207 85 212 103 C240 108 258 115 285 121 C332 131 414 150 463 155 C488 158 512 159 532 159 C535 144 537 131 540 118 C542 105 546 92 549 80 C553 62 564 12 574 -5 C584 -19 620 -48 639 -56 C656 -63 673 -52 681 -42 C692 -29 703 -17 704 0 C705 19 696 64 695 85 C695 128 679 178 667 217 C659 244 647 272 641 299 C630 348 616 396 605 446 C602 467 598 485 592 507 C585 524 577 545 566 562 L566 562 Z M476 269 C464 270 453 271 441 271 C416 271 391 268 365 264 C344 261 295 246 272 244 C289 290 322 331 356 370 C384 401 416 430 457 452 C475 405 507 304 507 265 C491 267 492 269 476 269 L476 269 Z M440 779 C424 786 409 791 395 800 C385 806 377 813 366 814 C353 815 333 807 326 799 C320 793 324 769 331 760 C338 751 351 743 361 735 C372 726 384 720 397 713 C422 701 469 684 507 679 C524 676 538 675 549 678 C563 683 565 696 563 708 C563 713 558 725 552 729 C547 734 534 737 528 741 C519 746 511 748 502 752 C481 760 461 770 440 779 L440 779 Z " />
<glyph glyph-name="Aacute" unicode="&#xc1;" horiz-adv-x="739" d="M566 562 C549 592 503 636 463 630 C442 627 416 617 400 607 C387 598 371 590 358 582 C332 566 315 538 294 519 C266 488 199 433 178 399 C163 373 146 343 132 316 C120 293 112 267 97 244 C67 190 43 125 44 69 C44 38 53 -15 90 -42 C107 -56 141 -51 152 -42 C182 -22 188 21 197 48 C202 65 207 85 212 103 C240 108 258 115 285 121 C332 131 414 150 463 155 C488 158 512 159 532 159 C535 144 537 131 540 118 C542 105 546 92 549 80 C553 62 564 12 574 -5 C584 -19 620 -48 639 -56 C656 -63 673 -52 681 -42 C692 -29 703 -17 704 0 C705 19 696 64 695 85 C695 128 679 178 667 217 C659 244 647 272 641 299 C630 348 616 396 605 446 C602 467 598 485 592 507 C585 524 577 545 566 562 L566 562 Z M476 269 C464 270 453 271 441 271 C416 271 391 268 365 264 C344 261 295 246 272 244 C289 290 322 331 356 370 C384 401 416 430 457 452 C475 405 507 304 507 265 C491 267 492 269 476 269 L476 269 Z M441 732 C425 721 412 710 394 701 C384 694 363 686 356 674 C355 671 357 660 361 656 C368 645 380 635 398 633 C412 632 429 635 444 640 C478 649 512 668 537 684 C549 694 573 714 575 733 C575 741 562 762 551 766 C538 771 509 775 496 772 C477 767 459 744 441 732 L441 732 Z " />
<glyph glyph-name="Acircumflex" unicode="&#xc2;" horiz-adv-x="739" d="M566 562 C549 592 503 636 463 630 C442 627 416 617 400 607 C387 598 371 590 358 582 C332 566 315 538 294 519 C266 488 199 433 178 399 C163 373 146 343 132 316 C120 293 112 267 97 244 C67 190 43 125 44 69 C44 38 53 -15 90 -42 C107 -56 141 -51 152 -42 C182 -22 188 21 197 48 C202 65 207 85 212 103 C240 108 258 115 285 121 C332 131 414 150 463 155 C488 158 512 159 532 159 C535 144 537 131 540 118 C542 105 546 92 549 80 C553 62 564 12 574 -5 C584 -19 620 -48 639 -56 C656 -63 673 -52 681 -42 C692 -29 703 -17 704 0 C705 19 696 64 695 85 C695 128 679 178 667 217 C659 244 647 272 641 299 C630 348 616 396 605 446 C602 467 598 485 592 507 C585 524 577 545 566 562 L566 562 Z M476 269 C464 270 453 271 441 271 C416 271 391 268 365 264 C344 261 295 246 272 244 C289 290 322 331 356 370 C384 401 416 430 457 452 C475 405 507 304 507 265 C491 267 492 269 476 269 L476 269 Z M577 733 C570 741 561 747 553 755 C540 769 529 785 517 800 C511 808 504 823 495 829 C488 836 471 837 462 837 C446 837 439 832 429 825 C419 815 408 807 397 798 C379 784 364 767 346 752 C320 735 296 720 284 694 C283 674 295 666 313 661 C340 652 374 665 391 677 C406 688 418 698 433 710 C445 718 453 733 467 737 C480 727 488 718 499 707 C520 686 541 674 572 670 C579 669 590 676 594 681 C599 687 604 694 601 704 C596 715 584 723 577 733 L577 733 Z " />
<glyph glyph-name="Atilde" unicode="&#xc3;" horiz-adv-x="739" d="M566 562 C549 592 503 636 463 630 C442 627 416 617 400 607 C387 598 371 590 358 582 C332 566 315 538 294 519 C266 488 199 433 178 399 C163 373 146 343 132 316 C120 293 112 267 97 244 C67 190 43 125 44 69 C44 38 53 -15 90 -42 C107 -56 141 -51 152 -42 C182 -22 188 21 197 48 C202 65 207 85 212 103 C240 108 258 115 285 121 C332 131 414 150 463 155 C488 158 512 159 532 159 C535 144 537 131 540 118 C542 105 546 92 549 80 C553 62 564 12 574 -5 C584 -19 620 -48 639 -56 C656 -63 673 -52 681 -42 C692 -29 703 -17 704 0 C705 19 696 64 695 85 C695 128 679 178 667 217 C659 244 647 272 641 299 C630 348 616 396 605 446 C602 467 598 485 592 507 C585 524 577 545 566 562 L566 562 Z M476 269 C464 270 453 271 441 271 C416 271 391 268 365 264 C344 261 295 246 272 244 C289 290 322 331 356 370 C384 401 416 430 457 452 C475 405 507 304 507 265 C491 267 492 269 476 269 L476 269 Z M343 848 C319 838 297 821 273 799 C264 791 252 771 255 755 C260 740 278 731 296 726 C312 723 319 728 329 736 C341 746 354 755 370 763 C385 769 398 780 409 765 C424 743 429 718 444 697 C453 685 463 677 478 673 C493 671 505 669 518 671 C560 674 580 680 607 701 C631 718 653 754 653 785 C653 795 651 806 646 814 C642 819 641 823 636 828 C629 833 620 834 614 837 C598 843 588 846 580 838 C572 831 572 820 567 811 C562 798 539 743 513 755 C494 765 485 800 472 819 C467 825 462 829 459 834 C435 863 390 869 366 858 C358 855 353 850 343 848 L343 848 Z " />
<glyph glyph-name="Adieresis" unicode="&#xc4;" horiz-adv-x="739" d="M566 562 C549 592 503 636 463 630 C442 627 416 617 400 607 C387 598 371 590 358 582 C332 566 315 538 294 519 C266 488 199 433 178 399 C163 373 146 343 132 316 C120 293 112 267 97 244 C67 190 43 125 44 69 C44 38 53 -15 90 -42 C107 -56 141 -51 152 -42 C182 -22 188 21 197 48 C202 65 207 85 212 103 C240 108 258 115 285 121 C332 131 414 150 463 155 C488 158 512 159 532 159 C535 144 537 131 540 118 C542 105 546 92 549 80 C553 62 564 12 574 -5 C584 -19 620 -48 639 -56 C656 -63 673 -52 681 -42 C692 -29 703 -17 704 0 C705 19 696 64 695 85 C695 128 679 178 667 217 C659 244 647 272 641 299 C630 348 616 396 605 446 C602 467 598 485 592 507 C585 524 577 545 566 562 L566 562 Z M476 269 C464 270 453 271 441 271 C416 271 391 268 365 264 C344 261 295 246 272 244 C289 290 322 331 356 370 C384 401 416 430 457 452 C475 405 507 304 507 265 C491 267 492 269 476 269 L476 269 Z M401 770 C416 754 423 738 423 721 C423 711 421 701 415 691 C410 685 398 683 390 680 C380 677 367 677 355 676 C347 674 341 673 332 679 C316 692 305 711 299 728 C293 756 329 771 352 777 C360 780 371 781 380 780 C387 780 394 777 401 770 L401 770 Z M613 768 C604 779 584 788 572 794 C554 803 544 796 536 787 C524 779 511 771 501 762 C494 757 492 751 492 741 C492 729 497 709 511 699 C522 691 541 684 553 684 C573 685 587 702 601 712 C616 723 623 756 613 768 L613 768 Z " />
<glyph glyph-name="Aring" unicode="&#xc5;" horiz-adv-x="739" d="M570 718 C559 736 544 753 524 764 C503 776 480 783 458 788 C435 793 410 801 389 798 C365 794 354 777 341 761 C322 741 299 708 315 675 C328 650 354 613 387 602 C388 601 389 601 391 601 L358 582 C332 566 315 538 294 519 C266 488 199 433 178 399 C163 373 146 343 132 316 C120 293 112 267 97 244 C67 190 43 125 44 69 C44 38 53 -15 90 -42 C107 -56 141 -51 152 -42 C182 -22 188 21 197 48 C202 65 207 85 212 103 C240 108 258 115 285 121 C332 131 414 150 463 155 C488 158 512 159 532 159 L540 118 C542 105 546 92 549 80 C553 62 564 12 574 -5 C584 -19 620 -48 639 -56 C656 -63 673 -52 681 -42 C692 -29 703 -17 704 0 C705 19 696 64 695 85 C695 128 679 178 667 217 C659 244 647 272 641 299 C630 348 616 396 605 446 C602 467 598 485 592 507 C585 524 577 545 566 562 C555 581 533 605 508 619 L521 627 C544 639 563 652 574 674 C583 686 577 701 570 718 L570 718 Z M476 269 C464 270 453 271 441 271 C416 271 391 268 365 264 C344 261 295 246 272 244 C289 290 322 331 356 370 C384 401 416 430 457 452 C475 405 507 304 507 265 C491 267 492 269 476 269 L476 269 Z M458 679 C440 673 421 676 403 675 C402 686 400 693 407 702 C414 709 422 716 428 725 C448 721 470 713 488 704 C480 695 472 684 458 679 L458 679 Z " />
<glyph glyph-name="AE" unicode="&#xc6;" horiz-adv-x="1162" d="M1105 559 C1045 583 974 584 913 585 C867 585 729 581 683 575 C656 570 628 564 602 559 C591 573 579 585 561 596 C544 606 524 608 505 608 C488 608 471 606 457 604 C377 589 308 536 260 488 C176 404 106 315 71 198 C61 158 50 119 46 74 C44 47 42 18 67 -11 C90 -39 140 -46 168 -41 C201 -35 206 7 208 34 C211 58 216 82 222 104 C255 115 288 124 321 132 C382 147 440 155 493 155 C491 136 488 116 488 97 C490 78 484 56 484 34 C484 16 488 -2 505 -19 C517 -32 541 -44 558 -48 C568 -52 580 -53 592 -53 C612 -53 631 -49 642 -42 C686 -17 755 -10 804 -1 C879 13 917 23 1005 36 C1024 39 1049 36 1058 51 C1069 64 1076 86 1063 104 C1035 144 969 145 930 144 C875 143 791 124 737 118 C703 113 680 103 640 96 C637 106 635 117 635 128 C635 154 642 182 647 204 C676 216 692 222 723 229 C778 242 884 255 944 253 C964 253 981 251 1001 246 C1019 242 1043 241 1056 248 C1070 257 1081 270 1088 285 C1094 297 1098 305 1086 321 C1060 350 1005 355 972 358 C933 361 888 362 845 362 C815 362 784 362 759 360 C734 358 698 347 678 338 C665 335 654 330 642 327 C640 338 637 350 636 361 C635 379 640 432 640 432 C640 432 678 439 695 445 C749 464 879 457 942 462 C956 463 972 464 988 464 C999 464 1009 463 1020 463 C1044 462 1072 459 1094 459 C1114 461 1125 493 1127 509 C1132 531 1134 547 1105 559 L1105 559 Z M496 279 C458 284 413 276 373 274 C351 273 329 272 308 269 C354 342 415 412 493 458 C494 440 494 424 494 409 C494 384 493 360 493 337 C493 318 494 300 496 279 L496 279 Z " />
<glyph glyph-name="Ccedilla" unicode="&#xc7;" horiz-adv-x="755" d="M678 457 C684 491 659 544 629 576 C618 585 604 596 588 605 C574 612 563 617 552 621 C524 632 491 638 460 633 C328 611 189 525 128 417 C100 368 80 336 63 285 C48 238 42 204 42 168 C42 154 43 141 44 126 C48 99 71 58 89 36 C145 -32 248 -51 343 -50 C348 -50 353 -50 359 -48 C372 -56 384 -64 396 -73 L427 -101 L382 -101 C361 -98 331 -93 310 -98 C291 -104 269 -126 264 -144 C258 -166 302 -182 328 -189 C350 -195 369 -198 388 -198 C410 -198 432 -194 454 -188 C490 -177 514 -153 528 -122 C537 -101 515 -79 498 -59 C491 -50 483 -40 472 -33 C490 -28 507 -24 520 -19 C555 -6 637 36 668 58 C685 70 715 93 716 112 C718 136 685 175 659 176 C629 177 614 173 590 160 C533 131 383 88 312 88 C299 88 285 88 271 91 C257 93 234 101 228 110 C216 123 212 139 212 156 C212 173 216 191 220 207 C239 275 253 298 291 360 C326 412 387 455 444 486 C465 498 488 501 509 498 C536 487 560 467 581 444 C598 423 615 415 640 422 C656 427 674 442 678 457 L678 457 Z " />
<glyph glyph-name="Egrave" unicode="&#xc8;" horiz-adv-x="713" d="M691 554 C684 507 667 498 639 498 C624 498 606 501 584 502 C558 503 530 502 505 498 C444 492 316 498 262 476 C244 469 207 458 207 458 C207 458 201 404 202 383 C204 371 207 359 209 345 C221 349 232 354 244 359 C265 368 299 381 324 383 C358 388 397 390 438 390 C472 390 507 388 536 385 C570 382 623 378 648 345 C660 330 656 321 651 307 C643 291 632 276 618 267 C607 257 583 258 564 263 C544 268 528 270 508 270 C448 270 343 256 289 240 C257 230 243 225 213 211 C210 187 202 156 202 126 C202 114 204 103 207 92 C246 101 269 113 304 118 C356 125 439 148 493 150 C532 153 597 152 625 108 C639 88 632 64 621 50 C612 34 586 35 568 33 C482 17 442 5 370 -11 C321 -22 252 -30 209 -59 C198 -67 177 -73 156 -73 C145 -73 134 -71 124 -68 C109 -62 86 -48 74 -36 C56 -18 52 2 52 23 C52 46 58 70 57 91 C55 141 69 188 68 239 C68 284 58 330 55 376 C54 386 53 397 53 407 C53 434 57 460 62 485 C68 514 68 550 86 575 C94 588 111 587 125 590 C167 599 208 610 250 618 C295 627 431 633 479 633 C537 634 608 633 668 607 C696 595 695 577 691 554 L691 554 Z M375 779 C359 786 344 791 330 800 C320 806 312 813 301 814 C288 815 268 807 261 799 C255 793 259 769 266 760 C273 751 286 743 296 735 C307 726 319 720 332 713 C357 701 404 684 442 679 C459 676 473 675 484 678 C498 683 500 696 498 708 C498 713 493 725 487 729 C482 734 469 737 463 741 C454 746 446 748 437 752 C416 760 396 770 375 779 L375 779 Z " />
<glyph glyph-name="Eacute" unicode="&#xc9;" horiz-adv-x="713" d="M691 554 C695 577 696 595 668 607 C608 633 537 634 479 633 C431 633 295 627 250 618 C208 610 167 599 125 590 C111 587 94 588 86 575 C68 550 68 514 62 485 C57 460 53 434 53 407 C53 397 54 386 55 376 C58 330 68 284 68 239 C69 188 55 141 57 91 C58 70 52 46 52 23 C52 2 56 -18 74 -36 C86 -48 109 -62 124 -68 C134 -71 145 -73 156 -73 C177 -73 198 -67 209 -59 C252 -30 321 -22 370 -11 C442 5 482 17 568 33 C586 35 612 34 621 50 C632 64 639 88 625 108 C597 152 532 153 493 150 C439 148 356 125 304 118 C269 113 246 101 207 92 C204 103 202 114 202 126 C202 156 210 187 213 211 C243 225 257 230 289 240 C343 256 448 270 508 270 C528 270 544 268 564 263 C583 258 607 257 618 267 C632 276 643 291 651 307 C656 321 660 330 648 345 C623 378 570 382 536 385 C507 388 472 390 438 390 C397 390 358 388 324 383 C299 381 265 368 244 359 C232 354 221 349 209 345 C207 359 204 371 202 383 C201 404 207 458 207 458 C207 458 244 469 262 476 C316 498 444 492 505 498 C530 502 558 503 584 502 C606 501 624 498 639 498 C667 498 684 507 691 554 L691 554 Z M385 773 C369 762 356 751 338 742 C328 735 307 727 300 715 C299 712 301 701 305 697 C312 686 324 676 342 674 C356 673 373 676 388 681 C422 690 456 709 481 725 C493 735 517 755 519 774 C519 782 506 803 495 807 C482 812 453 816 440 813 C421 808 403 785 385 773 L385 773 Z " />
<glyph glyph-name="Ecircumflex" unicode="&#xca;" horiz-adv-x="713" d="M691 554 C684 507 667 498 639 498 C624 498 606 501 584 502 C558 503 530 502 505 498 C444 492 316 498 262 476 C244 469 207 458 207 458 C207 458 201 404 202 383 C204 371 207 359 209 345 C221 349 232 354 244 359 C265 368 299 381 324 383 C358 388 397 390 438 390 C472 390 507 388 536 385 C570 382 623 378 648 345 C660 330 656 321 651 307 C643 291 632 276 618 267 C607 257 583 258 564 263 C544 268 528 270 508 270 C448 270 343 256 289 240 C257 230 243 225 213 211 C210 187 202 156 202 126 C202 114 204 103 207 92 C246 101 269 113 304 118 C356 125 439 148 493 150 C532 153 597 152 625 108 C639 88 632 64 621 50 C612 34 586 35 568 33 C482 17 442 5 370 -11 C321 -22 252 -30 209 -59 C198 -67 177 -73 156 -73 C145 -73 134 -71 124 -68 C109 -62 86 -48 74 -36 C56 -18 52 2 52 23 C52 46 58 70 57 91 C55 141 69 188 68 239 C68 284 58 330 55 376 C54 386 53 397 53 407 C53 434 57 460 62 485 C68 514 68 550 86 575 C94 588 111 587 125 590 C167 599 208 610 250 618 C295 627 431 633 479 633 C537 634 608 633 668 607 C696 595 695 577 691 554 L691 554 Z M528 758 C521 766 512 772 504 780 C491 794 480 810 468 825 C462 833 455 848 446 854 C439 861 422 862 413 862 C397 862 390 857 380 850 C370 840 359 832 348 823 C330 809 315 792 297 777 C271 760 247 745 235 719 C234 699 246 691 264 686 C291 677 325 690 342 702 C357 713 369 723 384 735 C396 743 404 758 418 762 C431 752 439 743 450 732 C471 711 492 699 523 695 C530 694 541 701 545 706 C550 712 555 719 552 729 C547 740 535 748 528 758 L528 758 Z " />
<glyph glyph-name="Edieresis" unicode="&#xcb;" horiz-adv-x="713" d="M691 554 C684 507 667 498 639 498 C624 498 606 501 584 502 C558 503 530 502 505 498 C444 492 316 498 262 476 C244 469 207 458 207 458 C207 458 201 404 202 383 C204 371 207 359 209 345 C221 349 232 354 244 359 C265 368 299 381 324 383 C358 388 397 390 438 390 C472 390 507 388 536 385 C570 382 623 378 648 345 C660 330 656 321 651 307 C643 291 632 276 618 267 C607 257 583 258 564 263 C544 268 528 270 508 270 C448 270 343 256 289 240 C257 230 243 225 213 211 C210 187 202 156 202 126 C202 114 204 103 207 92 C246 101 269 113 304 118 C356 125 439 148 493 150 C532 153 597 152 625 108 C639 88 632 64 621 50 C612 34 586 35 568 33 C482 17 442 5 370 -11 C321 -22 252 -30 209 -59 C198 -67 177 -73 156 -73 C145 -73 134 -71 124 -68 C109 -62 86 -48 74 -36 C56 -18 52 2 52 23 C52 46 58 70 57 91 C55 141 69 188 68 239 C68 284 58 330 55 376 C54 386 53 397 53 407 C53 434 57 460 62 485 C68 514 68 550 86 575 C94 588 111 587 125 590 C167 599 208 610 250 618 C295 627 431 633 479 633 C537 634 608 633 668 607 C696 595 695 577 691 554 L691 554 Z M333 781 C348 765 355 749 355 732 C355 722 353 712 347 702 C342 696 330 694 322 691 C312 688 299 688 287 687 C279 685 273 684 264 690 C248 703 237 722 231 739 C225 767 261 782 284 788 C292 791 303 792 312 791 C319 791 326 788 333 781 L333 781 Z M545 779 C536 790 516 799 504 805 C486 814 476 807 468 798 C456 790 443 782 433 773 C426 768 424 762 424 752 C424 740 429 720 443 710 C454 702 473 695 485 695 C505 696 519 713 533 723 C548 734 555 767 545 779 L545 779 Z " />
<glyph glyph-name="Igrave" unicode="&#xcc;" horiz-adv-x="696" d="M669 547 C674 530 654 504 641 495 C623 480 592 475 565 472 C515 465 461 461 409 457 C416 423 420 392 417 359 C414 315 407 274 404 230 C404 208 397 187 397 164 C397 147 398 128 395 110 C427 112 459 118 492 118 C508 118 524 116 540 113 C561 109 583 104 603 91 C617 80 647 52 647 36 C647 19 630 4 616 0 C604 -4 586 -2 574 -2 C546 -5 517 -6 490 -8 C435 -13 380 -17 328 -30 C299 -38 272 -46 244 -53 C221 -58 187 -68 152 -68 C128 -68 106 -63 87 -48 C74 -38 51 -18 45 -1 C40 16 56 34 65 45 C70 52 76 55 87 57 C109 63 133 67 156 72 C189 79 222 84 256 88 C250 133 265 179 269 222 C271 246 266 270 265 295 C263 320 265 345 265 371 C265 396 268 422 271 447 C244 445 218 444 189 444 C169 444 150 445 130 446 C114 448 107 447 95 458 C81 469 71 484 64 497 C51 519 63 538 77 552 C92 562 118 566 139 565 C159 565 180 566 200 567 C226 567 251 568 276 570 C339 572 395 587 457 593 C473 594 493 595 515 595 C549 595 586 593 618 587 C636 583 665 564 669 547 L669 547 Z M318 730 C302 737 287 742 273 751 C263 757 255 764 244 765 C231 766 211 758 204 750 C198 744 202 720 209 711 C216 702 229 694 239 686 C250 677 262 671 275 664 C300 652 347 635 385 630 C402 627 416 626 427 629 C441 634 443 647 441 659 C441 664 436 676 430 680 C425 685 412 688 406 692 C397 697 389 699 380 703 C359 711 339 721 318 730 L318 730 Z " />
<glyph glyph-name="Iacute" unicode="&#xcd;" horiz-adv-x="696" d="M669 547 C665 564 636 583 618 587 C586 593 549 595 515 595 C493 595 473 594 457 593 C395 587 339 572 276 570 C251 568 226 567 200 567 C180 566 159 565 139 565 C118 566 92 562 77 552 C63 538 51 519 64 497 C71 484 81 469 95 458 C107 447 114 448 130 446 C150 445 169 444 189 444 C218 444 244 445 271 447 C268 422 265 396 265 371 C265 345 263 320 265 295 C266 270 271 246 269 222 C265 179 250 133 256 88 C222 84 189 79 156 72 C133 67 109 63 87 57 C76 55 70 52 65 45 C56 34 40 16 45 -1 C51 -18 74 -38 87 -48 C106 -63 128 -68 152 -68 C187 -68 221 -58 244 -53 C272 -46 299 -38 328 -30 C380 -17 435 -13 490 -8 C517 -6 546 -5 574 -2 C586 -2 604 -4 616 0 C630 4 647 19 647 36 C647 52 617 80 603 91 C583 104 561 109 540 113 C524 116 508 118 492 118 C459 118 427 112 395 110 C398 128 397 147 397 164 C397 187 404 208 404 230 C407 274 414 315 417 359 C420 392 416 423 409 457 C461 461 515 465 565 472 C592 475 623 480 641 495 C654 504 674 530 669 547 L669 547 Z M359 716 C343 705 330 694 312 685 C302 678 281 670 274 658 C273 655 275 644 279 640 C286 629 298 619 316 617 C330 616 347 619 362 624 C396 633 430 652 455 668 C467 678 491 698 493 717 C493 725 480 746 469 750 C456 755 427 759 414 756 C395 751 377 728 359 716 L359 716 Z " />
<glyph glyph-name="Icircumflex" unicode="&#xce;" horiz-adv-x="696" d="M669 547 C674 530 654 504 641 495 C623 480 592 475 565 472 C515 465 461 461 409 457 C416 423 420 392 417 359 C414 315 407 274 404 230 C404 208 397 187 397 164 C397 147 398 128 395 110 C427 112 459 118 492 118 C508 118 524 116 540 113 C561 109 583 104 603 91 C617 80 647 52 647 36 C647 19 630 4 616 0 C604 -4 586 -2 574 -2 C546 -5 517 -6 490 -8 C435 -13 380 -17 328 -30 C299 -38 272 -46 244 -53 C221 -58 187 -68 152 -68 C128 -68 106 -63 87 -48 C74 -38 51 -18 45 -1 C40 16 56 34 65 45 C70 52 76 55 87 57 C109 63 133 67 156 72 C189 79 222 84 256 88 C250 133 265 179 269 222 C271 246 266 270 265 295 C263 320 265 345 265 371 C265 396 268 422 271 447 C244 445 218 444 189 444 C169 444 150 445 130 446 C114 448 107 447 95 458 C81 469 71 484 64 497 C51 519 63 538 77 552 C92 562 118 566 139 565 C159 565 180 566 200 567 C226 567 251 568 276 570 C339 572 395 587 457 593 C473 594 493 595 515 595 C549 595 586 593 618 587 C636 583 665 564 669 547 L669 547 Z M503 715 C496 723 487 729 479 737 C466 751 455 767 443 782 C437 790 430 805 421 811 C414 818 397 819 388 819 C372 819 365 814 355 807 C345 797 334 789 323 780 C305 766 290 749 272 734 C246 717 222 702 210 676 C209 656 221 648 239 643 C266 634 300 647 317 659 C332 670 344 680 359 692 C371 700 379 715 393 719 C406 709 414 700 425 689 C446 668 467 656 498 652 C505 651 516 658 520 663 C525 669 530 676 527 686 C522 697 510 705 503 715 L503 715 Z " />
<glyph glyph-name="Idieresis" unicode="&#xcf;" horiz-adv-x="696" d="M669 547 C674 530 654 504 641 495 C623 480 592 475 565 472 C515 465 461 461 409 457 C416 423 420 392 417 359 C414 315 407 274 404 230 C404 208 397 187 397 164 C397 147 398 128 395 110 C427 112 459 118 492 118 C508 118 524 116 540 113 C561 109 583 104 603 91 C617 80 647 52 647 36 C647 19 630 4 616 0 C604 -4 586 -2 574 -2 C546 -5 517 -6 490 -8 C435 -13 380 -17 328 -30 C299 -38 272 -46 244 -53 C221 -58 187 -68 152 -68 C128 -68 106 -63 87 -48 C74 -38 51 -18 45 -1 C40 16 56 34 65 45 C70 52 76 55 87 57 C109 63 133 67 156 72 C189 79 222 84 256 88 C250 133 265 179 269 222 C271 246 266 270 265 295 C263 320 265 345 265 371 C265 396 268 422 271 447 C244 445 218 444 189 444 C169 444 150 445 130 446 C114 448 107 447 95 458 C81 469 71 484 64 497 C51 519 63 538 77 552 C92 562 118 566 139 565 C159 565 180 566 200 567 C226 567 251 568 276 570 C339 572 395 587 457 593 C473 594 493 595 515 595 C549 595 586 593 618 587 C636 583 665 564 669 547 L669 547 Z M305 744 C320 728 327 712 327 695 C327 685 325 675 319 665 C314 659 302 657 294 654 C284 651 271 651 259 650 C251 648 245 647 236 653 C220 666 209 685 203 702 C197 730 233 745 256 751 C264 754 275 755 284 754 C291 754 298 751 305 744 L305 744 Z M517 742 C508 753 488 762 476 768 C458 777 448 770 440 761 C428 753 415 745 405 736 C398 731 396 725 396 715 C396 703 401 683 415 673 C426 665 445 658 457 658 C477 659 491 676 505 686 C520 697 527 730 517 742 L517 742 Z " />
<glyph glyph-name="Eth" unicode="&#xd0;" horiz-adv-x="773" d="M727 478 C681 537 561 590 490 610 C457 618 421 622 387 622 C346 622 307 617 273 611 C244 606 216 599 189 590 C136 575 152 508 145 465 C141 442 136 421 134 398 C133 387 133 377 132 366 C120 365 108 362 96 359 C69 350 44 349 32 321 C28 313 30 305 31 296 C33 284 36 268 43 257 C51 245 56 246 67 244 C79 242 92 241 105 241 C118 241 130 242 139 246 C140 201 134 156 134 112 C134 90 136 69 140 47 C143 27 141 -5 157 -24 C172 -40 215 -56 233 -56 C295 -59 328 -35 366 -7 C389 10 417 25 441 39 C483 61 527 74 559 104 C591 133 627 161 656 193 C683 223 711 259 724 296 C736 327 750 366 747 402 C746 424 743 458 727 478 L727 478 Z M580 389 C579 356 565 335 548 309 C519 264 475 235 429 202 C402 184 371 167 343 149 C322 137 283 114 283 114 C283 114 282 159 283 170 C283 200 285 229 287 258 C327 259 380 261 409 270 C427 276 433 285 435 308 C435 328 432 352 410 364 C391 375 370 382 350 385 C331 389 312 389 294 388 C295 411 296 434 296 457 C296 468 295 469 306 474 C316 479 332 480 344 481 C356 482 370 484 383 484 C396 484 408 482 421 482 C470 480 521 465 570 456 C583 435 580 408 580 389 L580 389 Z " />
<glyph glyph-name="Ntilde" unicode="&#xd1;" horiz-adv-x="671" d="M70 297 C62 229 62 160 52 95 C48 62 56 21 68 -13 C77 -40 89 -61 123 -74 C140 -81 148 -82 159 -78 C170 -73 183 -69 190 -63 C202 -57 205 -45 205 -33 C205 -22 202 -11 202 -2 C200 23 204 47 206 72 C207 135 209 199 216 261 C245 233 266 199 290 168 C319 135 343 99 372 67 C394 41 410 16 433 -8 C451 -28 491 -42 516 -50 C551 -58 568 -42 585 -25 C604 -7 605 8 605 33 C604 57 609 81 610 105 C610 142 609 177 609 212 C608 288 617 362 620 438 C621 457 624 475 624 493 C624 507 623 521 618 536 C614 555 597 594 579 610 C560 625 503 639 485 629 C479 625 468 606 464 599 C459 588 460 581 461 568 C468 528 471 485 471 444 C471 418 470 394 468 368 C466 339 463 310 463 280 C463 268 464 257 465 245 C466 234 468 224 468 215 C468 195 464 177 460 154 C424 183 408 207 383 241 C351 282 321 322 297 367 C283 395 266 424 255 452 C245 476 227 501 213 525 C200 550 193 566 155 575 C123 581 111 578 90 561 C77 550 75 537 75 522 C75 512 76 501 76 490 C76 457 77 423 77 390 C77 360 75 327 70 297 L70 297 Z M239 825 C215 815 193 798 169 776 C160 768 148 748 151 732 C156 717 174 708 192 703 C208 700 215 705 225 713 C237 723 250 732 266 740 C281 746 294 757 305 742 C320 720 325 695 340 674 C349 662 359 654 374 650 C389 648 401 646 414 648 C456 651 476 657 503 678 C527 695 549 731 549 762 C549 772 547 783 542 791 C538 796 537 800 532 805 C525 810 516 811 510 814 C494 820 484 823 476 815 C468 808 468 797 463 788 C458 775 435 720 409 732 C390 742 381 777 368 796 C363 802 358 806 355 811 C331 840 286 846 262 835 C254 832 249 827 239 825 L239 825 Z " />
<glyph glyph-name="Ograve" unicode="&#xd2;" horiz-adv-x="880" d="M512 601 C496 604 477 605 461 605 C431 605 402 600 376 590 C335 576 291 570 255 552 C208 530 159 505 130 464 C90 408 42 342 42 264 C42 252 43 240 45 227 C56 181 74 136 101 93 C144 27 220 -30 297 -56 C317 -62 333 -64 350 -64 C366 -64 383 -62 402 -57 C472 -41 537 -34 598 1 C664 38 700 99 744 155 C788 210 838 279 840 355 C844 503 635 588 512 601 L512 601 Z M661 331 C648 305 635 279 620 253 C609 233 593 216 577 199 C564 185 553 167 540 154 C508 124 468 102 426 85 C407 78 389 74 372 74 C334 74 299 91 256 122 C227 143 178 205 194 240 C197 252 207 262 212 273 C250 338 308 401 377 434 C419 452 465 462 514 462 C541 462 570 458 598 452 C646 444 673 417 683 379 C680 362 668 345 661 331 L661 331 Z M452 772 C436 779 421 784 407 793 C397 799 389 806 378 807 C365 808 345 800 338 792 C332 786 336 762 343 753 C350 744 363 736 373 728 C384 719 396 713 409 706 C434 694 481 677 519 672 C536 669 550 668 561 671 C575 676 577 689 575 701 C575 706 570 718 564 722 C559 727 546 730 540 734 C531 739 523 741 514 745 C493 753 473 763 452 772 L452 772 Z " />
<glyph glyph-name="Oacute" unicode="&#xd3;" horiz-adv-x="880" d="M512 601 C496 604 477 605 461 605 C431 605 402 600 376 590 C335 576 291 570 255 552 C208 530 159 505 130 464 C90 408 42 342 42 264 C42 252 43 240 45 227 C56 181 74 136 101 93 C144 27 220 -30 297 -56 C317 -62 333 -64 350 -64 C366 -64 383 -62 402 -57 C472 -41 537 -34 598 1 C664 38 700 99 744 155 C788 210 838 279 840 355 C844 503 635 588 512 601 L512 601 Z M661 331 C648 305 635 279 620 253 C609 233 593 216 577 199 C564 185 553 167 540 154 C508 124 468 102 426 85 C407 78 389 74 372 74 C334 74 299 91 256 122 C227 143 178 205 194 240 C197 252 207 262 212 273 C250 338 308 401 377 434 C419 452 465 462 514 462 C541 462 570 458 598 452 C646 444 673 417 683 379 C680 362 668 345 661 331 L661 331 Z M462 727 C446 716 433 705 415 696 C405 689 384 681 377 669 C376 666 378 655 382 651 C389 640 401 630 419 628 C433 627 450 630 465 635 C499 644 533 663 558 679 C570 689 594 709 596 728 C596 736 583 757 572 761 C559 766 530 770 517 767 C498 762 480 739 462 727 L462 727 Z " />
<glyph glyph-name="Ocircumflex" unicode="&#xd4;" horiz-adv-x="880" d="M512 601 C496 604 477 605 461 605 C431 605 402 600 376 590 C335 576 291 570 255 552 C208 530 159 505 130 464 C90 408 42 342 42 264 C42 252 43 240 45 227 C56 181 74 136 101 93 C144 27 220 -30 297 -56 C317 -62 333 -64 350 -64 C366 -64 383 -62 402 -57 C472 -41 537 -34 598 1 C664 38 700 99 744 155 C788 210 838 279 840 355 C844 503 635 588 512 601 L512 601 Z M661 331 C648 305 635 279 620 253 C609 233 593 216 577 199 C564 185 553 167 540 154 C508 124 468 102 426 85 C407 78 389 74 372 74 C334 74 299 91 256 122 C227 143 178 205 194 240 C197 252 207 262 212 273 C250 338 308 401 377 434 C419 452 465 462 514 462 C541 462 570 458 598 452 C646 444 673 417 683 379 C680 362 668 345 661 331 L661 331 Z M595 729 C588 737 579 743 571 751 C558 765 547 781 535 796 C529 804 522 819 513 825 C506 832 489 833 480 833 C464 833 457 828 447 821 C437 811 426 803 415 794 C397 780 382 763 364 748 C338 731 314 716 302 690 C301 670 313 662 331 657 C358 648 392 661 409 673 C424 684 436 694 451 706 C463 714 471 729 485 733 C498 723 506 714 517 703 C538 682 559 670 590 666 C597 665 608 672 612 677 C617 683 622 690 619 700 C614 711 602 719 595 729 L595 729 Z " />
<glyph glyph-name="Otilde" unicode="&#xd5;" horiz-adv-x="880" d="M512 601 C496 604 477 605 461 605 C431 605 402 600 376 590 C335 576 291 570 255 552 C208 530 159 505 130 464 C90 408 42 342 42 264 C42 252 43 240 45 227 C56 181 74 136 101 93 C144 27 220 -30 297 -56 C317 -62 333 -64 350 -64 C366 -64 383 -62 402 -57 C472 -41 537 -34 598 1 C664 38 700 99 744 155 C788 210 838 279 840 355 C844 503 635 588 512 601 L512 601 Z M661 331 C648 305 635 279 620 253 C609 233 593 216 577 199 C564 185 553 167 540 154 C508 124 468 102 426 85 C407 78 389 74 372 74 C334 74 299 91 256 122 C227 143 178 205 194 240 C197 252 207 262 212 273 C250 338 308 401 377 434 C419 452 465 462 514 462 C541 462 570 458 598 452 C646 444 673 417 683 379 C680 362 668 345 661 331 L661 331 Z M376 827 C352 817 330 800 306 778 C297 770 285 750 288 734 C293 719 311 710 329 705 C345 702 352 707 362 715 C374 725 387 734 403 742 C418 748 431 759 442 744 C457 722 462 697 477 676 C486 664 496 656 511 652 C526 650 538 648 551 650 C593 653 613 659 640 680 C664 697 686 733 686 764 C686 774 684 785 679 793 C675 798 674 802 669 807 C662 812 653 813 647 816 C631 822 621 825 613 817 C605 810 605 799 600 790 C595 777 572 722 546 734 C527 744 518 779 505 798 C500 804 495 808 492 813 C468 842 423 848 399 837 C391 834 386 829 376 827 L376 827 Z " />
<glyph glyph-name="Odieresis" unicode="&#xd6;" horiz-adv-x="880" d="M512 601 C496 604 477 605 461 605 C431 605 402 600 376 590 C335 576 291 570 255 552 C208 530 159 505 130 464 C90 408 42 342 42 264 C42 252 43 240 45 227 C56 181 74 136 101 93 C144 27 220 -30 297 -56 C317 -62 333 -64 350 -64 C366 -64 383 -62 402 -57 C472 -41 537 -34 598 1 C664 38 700 99 744 155 C788 210 838 279 840 355 C844 503 635 588 512 601 L512 601 Z M661 331 C648 305 635 279 620 253 C609 233 593 216 577 199 C564 185 553 167 540 154 C508 124 468 102 426 85 C407 78 389 74 372 74 C334 74 299 91 256 122 C227 143 178 205 194 240 C197 252 207 262 212 273 C250 338 308 401 377 434 C419 452 465 462 514 462 C541 462 570 458 598 452 C646 444 673 417 683 379 C680 362 668 345 661 331 L661 331 Z M400 739 C415 723 422 707 422 690 C422 680 420 670 414 660 C409 654 397 652 389 649 C379 646 366 646 354 645 C346 643 340 642 331 648 C315 661 304 680 298 697 C292 725 328 740 351 746 C359 749 370 750 379 749 C386 749 393 746 400 739 L400 739 Z M612 737 C603 748 583 757 571 763 C553 772 543 765 535 756 C523 748 510 740 500 731 C493 726 491 720 491 710 C491 698 496 678 510 668 C521 660 540 653 552 653 C572 654 586 671 600 681 C615 692 622 725 612 737 L612 737 Z " />
<glyph glyph-name="multiply" unicode="&#xd7;" horiz-adv-x="451" d="M420 348 C417 366 408 402 391 421 C381 431 365 434 351 434 C338 434 327 432 319 430 C302 428 291 417 280 408 C265 398 250 387 233 376 C226 387 218 396 208 407 C183 434 168 458 128 472 C118 476 109 476 99 475 C87 474 69 472 61 465 C46 457 62 428 68 416 C74 406 84 396 90 387 C107 365 123 344 137 322 C132 318 125 314 119 309 C97 293 74 278 53 258 C42 246 21 233 33 206 C37 194 48 171 57 162 C77 145 114 139 131 143 C144 147 155 156 165 164 C182 175 200 185 218 195 C237 166 257 135 276 114 C291 98 306 91 333 88 C358 86 383 86 385 107 C385 125 383 144 377 162 C366 195 343 225 320 256 C339 267 358 279 375 291 C394 303 422 319 420 348 L420 348 Z " />
<glyph glyph-name="Oslash" unicode="&#xd8;" horiz-adv-x="823" d="M671 526 C678 533 684 541 691 548 C700 558 716 567 722 581 C725 593 717 610 712 625 C705 641 703 648 685 655 C620 675 591 629 563 595 C558 589 552 583 548 576 C519 584 492 589 468 592 C454 593 441 594 428 594 C397 594 366 589 341 579 C306 565 264 559 229 541 C188 519 144 496 119 456 C87 406 46 345 46 278 C46 263 50 247 53 232 C65 188 86 147 113 107 C125 90 140 78 155 64 C140 46 128 27 123 6 C120 -12 121 -61 143 -75 C165 -91 207 -75 220 -64 C238 -48 243 -25 258 -11 C275 -18 289 -25 306 -30 C324 -35 339 -38 353 -38 C370 -38 385 -35 403 -30 C468 -13 529 -6 584 28 C642 63 673 121 711 175 C748 227 792 292 790 365 C787 434 736 487 671 526 L671 526 Z M190 246 C194 258 201 267 207 278 C238 341 278 390 343 421 C375 436 409 446 448 448 C398 390 356 328 310 268 C289 240 265 215 245 185 C240 178 234 170 229 161 C216 177 207 194 199 210 C190 225 187 234 190 246 L190 246 Z M590 265 C573 232 544 198 520 171 C492 142 457 120 417 104 C394 95 372 91 351 95 C387 138 420 183 448 233 C483 292 522 343 570 394 C579 404 586 415 595 424 C609 416 636 400 640 384 C647 367 597 282 590 265 L590 265 Z " />
<glyph glyph-name="Ugrave" unicode="&#xd9;" horiz-adv-x="647" d="M67 467 C64 450 65 433 64 415 C61 382 61 347 61 313 C61 268 55 225 55 185 C55 165 56 145 61 127 C69 79 71 38 111 -6 C125 -22 144 -34 165 -44 C182 -51 231 -56 249 -52 C356 -44 485 -39 582 6 C596 21 598 109 597 130 C585 256 577 390 572 514 C571 548 582 616 515 624 C494 627 440 618 429 605 C416 589 416 555 413 535 C411 525 411 515 411 505 C411 462 417 417 419 373 C424 322 432 241 438 190 C441 173 449 147 442 132 C436 118 413 109 398 102 C375 92 352 90 328 90 C311 90 294 91 278 91 C261 91 243 90 227 86 C218 143 215 198 215 253 C215 282 215 312 217 341 C220 381 217 422 229 458 C234 472 237 486 237 499 C237 524 228 548 201 572 C183 589 152 589 131 592 C97 596 84 572 80 548 C75 522 69 495 67 467 L67 467 Z M254 761 C238 768 223 773 209 782 C199 788 191 795 180 796 C167 797 147 789 140 781 C134 775 138 751 145 742 C152 733 165 725 175 717 C186 708 198 702 211 695 C236 683 283 666 321 661 C338 658 352 657 363 660 C377 665 379 678 377 690 C377 695 372 707 366 711 C361 716 348 719 342 723 C333 728 325 730 316 734 C295 742 275 752 254 761 L254 761 Z " />
<glyph glyph-name="Uacute" unicode="&#xda;" horiz-adv-x="625" d="M67 467 C64 450 65 433 64 415 C61 382 61 347 61 313 C61 268 55 225 55 185 C55 165 56 145 61 127 C69 79 71 38 111 -6 C125 -22 144 -34 165 -44 C182 -51 231 -56 249 -52 C356 -44 485 -39 582 6 C596 21 598 109 597 130 C585 256 577 390 572 514 C571 548 582 616 515 624 C494 627 440 618 429 605 C416 589 416 555 413 535 C411 525 411 515 411 505 C411 462 417 417 419 373 C424 322 432 241 438 190 C441 173 449 147 442 132 C436 118 413 109 398 102 C375 92 352 90 328 90 C311 90 294 91 278 91 C261 91 243 90 227 86 C218 143 215 198 215 253 C215 282 215 312 217 341 C220 381 217 422 229 458 C234 472 237 486 237 499 C237 524 228 548 201 572 C183 589 152 589 131 592 C97 596 84 572 80 548 C75 522 69 495 67 467 L67 467 Z M306 707 C290 696 277 685 259 676 C249 669 228 661 221 649 C220 646 222 635 226 631 C233 620 245 610 263 608 C277 607 294 610 309 615 C343 624 377 643 402 659 C414 669 438 689 440 708 C440 716 427 737 416 741 C403 746 374 750 361 747 C342 742 324 719 306 707 L306 707 Z " />
<glyph glyph-name="Ucircumflex" unicode="&#xdb;" horiz-adv-x="647" d="M67 467 C64 450 65 433 64 415 C61 382 61 347 61 313 C61 268 55 225 55 185 C55 165 56 145 61 127 C69 79 71 38 111 -6 C125 -22 144 -34 165 -44 C182 -51 231 -56 249 -52 C356 -44 485 -39 582 6 C596 21 598 109 597 130 C585 256 577 390 572 514 C571 548 582 616 515 624 C494 627 440 618 429 605 C416 589 416 555 413 535 C411 525 411 515 411 505 C411 462 417 417 419 373 C424 322 432 241 438 190 C441 173 449 147 442 132 C436 118 413 109 398 102 C375 92 352 90 328 90 C311 90 294 91 278 91 C261 91 243 90 227 86 C218 143 215 198 215 253 C215 282 215 312 217 341 C220 381 217 422 229 458 C234 472 237 486 237 499 C237 524 228 548 201 572 C183 589 152 589 131 592 C97 596 84 572 80 548 C75 522 69 495 67 467 L67 467 Z M460 733 C453 741 444 747 436 755 C423 769 412 785 400 800 C394 808 387 823 378 829 C371 836 354 837 345 837 C329 837 322 832 312 825 C302 815 291 807 280 798 C262 784 247 767 229 752 C203 735 179 720 167 694 C166 674 178 666 196 661 C223 652 257 665 274 677 C289 688 301 698 316 710 C328 718 336 733 350 737 C363 727 371 718 382 707 C403 686 424 674 455 670 C462 669 473 676 477 681 C482 687 487 694 484 704 C479 715 467 723 460 733 L460 733 Z " />
<glyph glyph-name="Udieresis" unicode="&#xdc;" horiz-adv-x="647" d="M67 467 C64 450 65 433 64 415 C61 382 61 347 61 313 C61 268 55 225 55 185 C55 165 56 145 61 127 C69 79 71 38 111 -6 C125 -22 144 -34 165 -44 C182 -51 231 -56 249 -52 C356 -44 485 -39 582 6 C596 21 598 109 597 130 C585 256 577 390 572 514 C571 548 582 616 515 624 C494 627 440 618 429 605 C416 589 416 555 413 535 C411 525 411 515 411 505 C411 462 417 417 419 373 C424 322 432 241 438 190 C441 173 449 147 442 132 C436 118 413 109 398 102 C375 92 352 90 328 90 C311 90 294 91 278 91 C261 91 243 90 227 86 C218 143 215 198 215 253 C215 282 215 312 217 341 C220 381 217 422 229 458 C234 472 237 486 237 499 C237 524 228 548 201 572 C183 589 152 589 131 592 C97 596 84 572 80 548 C75 522 69 495 67 467 L67 467 Z M261 750 C276 734 283 718 283 701 C283 691 281 681 275 671 C270 665 258 663 250 660 C240 657 227 657 215 656 C207 654 201 653 192 659 C176 672 165 691 159 708 C153 736 189 751 212 757 C220 760 231 761 240 760 C247 760 254 757 261 750 L261 750 Z M473 748 C464 759 444 768 432 774 C414 783 404 776 396 767 C384 759 371 751 361 742 C354 737 352 731 352 721 C352 709 357 689 371 679 C382 671 401 664 413 664 C433 665 447 682 461 692 C476 703 483 736 473 748 L473 748 Z " />
<glyph glyph-name="Yacute" unicode="&#xdd;" horiz-adv-x="628" d="M592 520 C596 531 598 541 598 551 C598 569 592 586 577 601 C568 613 529 628 516 632 C501 636 461 628 454 619 C440 600 436 582 429 567 C413 521 415 512 398 479 C378 438 361 395 333 356 C284 411 264 434 229 486 C206 521 197 532 167 572 C157 585 133 606 116 607 C79 610 28 585 36 542 C43 512 44 507 63 478 C87 440 107 423 132 390 C145 373 175 349 190 331 C215 302 240 273 268 236 C256 215 207 136 195 114 C175 73 148 32 159 -16 C164 -35 187 -64 208 -74 C217 -77 231 -79 244 -79 C258 -79 272 -77 278 -73 C294 -63 296 -39 304 -23 C315 -5 327 16 338 34 C353 58 366 84 380 108 C395 135 410 155 426 182 C444 213 459 230 479 265 C488 282 502 316 510 335 C537 396 566 459 592 520 L592 520 Z M313 713 C297 702 284 691 266 682 C256 675 235 667 228 655 C227 652 229 641 233 637 C240 626 252 616 270 614 C284 613 301 616 316 621 C350 630 384 649 409 665 C421 675 445 695 447 714 C447 722 434 743 423 747 C410 752 381 756 368 753 C349 748 331 725 313 713 L313 713 Z " />
<glyph glyph-name="Thorn" unicode="&#xde;" horiz-adv-x="674" d="M541 469 C514 481 470 485 435 485 C421 485 410 485 400 484 C366 480 263 469 227 463 C231 496 233 556 238 583 C243 607 221 636 195 639 C180 640 153 638 141 634 C125 630 114 615 106 601 C87 575 88 492 84 457 C80 416 74 378 69 337 C65 285 55 234 58 181 C63 138 65 50 75 8 C80 -15 76 -46 94 -63 C113 -84 165 -108 185 -87 C201 -70 201 -46 208 -23 C212 -7 212 28 212 58 C240 52 250 53 275 53 C299 53 331 58 369 57 C472 56 574 126 616 204 C627 224 634 256 634 290 C634 358 608 436 541 469 L541 469 Z M402 193 C369 186 316 181 269 181 C248 181 228 182 212 185 C212 196 212 207 212 218 C212 252 213 287 216 322 C234 327 250 331 256 333 C291 339 356 344 410 344 C439 344 464 343 483 341 C498 287 447 204 402 193 L402 193 Z " />
<glyph glyph-name="germandbls" unicode="&#xdf;" horiz-adv-x="842" d="M132 114 C97 120 69 113 55 88 C44 70 45 59 61 38 C76 12 105 -13 127 -35 C152 -57 176 -73 204 -65 C245 -56 278 -19 278 19 C278 59 282 99 280 142 C278 171 277 202 277 233 C277 263 278 293 282 324 C284 352 285 379 288 407 C290 432 302 445 321 459 C345 478 375 478 409 481 C428 482 446 484 464 484 C490 484 515 482 541 480 C512 445 479 411 435 387 C400 366 338 368 333 321 C331 298 360 270 378 251 C400 228 417 233 442 234 C509 236 576 225 642 217 C624 179 559 160 515 150 C495 147 384 141 371 127 C359 116 346 90 346 64 C346 44 353 25 375 15 C396 2 421 -1 446 -1 C484 -1 522 10 553 17 C595 28 635 42 672 58 C705 72 740 84 765 108 C788 131 809 167 809 206 C809 230 800 256 779 280 C759 303 737 319 710 330 C680 342 636 354 607 360 C643 393 671 418 686 469 C692 483 695 497 695 513 C695 523 694 533 691 543 C683 564 664 579 641 593 C596 618 551 627 507 627 C493 627 479 625 465 624 C395 617 327 599 265 576 C218 558 165 525 150 480 C131 429 139 365 134 309 C133 291 133 273 133 254 C133 220 134 185 133 148 L132 114 Z " />
<glyph glyph-name="agrave" unicode="&#xe0;" horiz-adv-x="722" d="M452 623 C427 623 384 604 363 592 C339 578 319 559 300 537 C256 486 218 430 184 370 C136 284 96 213 77 121 C70 91 62 73 52 44 C45 22 32 -10 40 -34 C52 -65 90 -78 120 -78 C175 -78 207 34 213 67 C278 76 341 93 407 105 C435 110 493 118 521 120 C528 95 533 68 536 41 C540 19 539 -16 551 -33 C561 -48 585 -67 599 -69 C658 -79 683 -25 681 24 C679 97 685 153 664 227 C642 298 598 398 574 470 C554 532 530 624 452 623 L452 623 Z M398 233 C356 225 315 210 273 210 C295 256 319 298 348 341 C370 373 400 411 421 433 C435 406 459 372 471 338 C483 305 495 279 502 245 C479 247 421 238 398 233 L398 233 Z M403 772 C387 779 372 784 358 793 C348 799 340 806 329 807 C316 808 296 800 289 792 C283 786 287 762 294 753 C301 744 314 736 324 728 C335 719 347 713 360 706 C385 694 432 677 470 672 C487 669 501 668 512 671 C526 676 528 689 526 701 C526 706 521 718 515 722 C510 727 497 730 491 734 C482 739 474 741 465 745 C444 753 424 763 403 772 L403 772 Z " />
<glyph glyph-name="aacute" unicode="&#xe1;" horiz-adv-x="722" d="M452 623 C427 623 384 604 363 592 C339 578 319 559 300 537 C256 486 218 430 184 370 C136 284 96 213 77 121 C70 91 62 73 52 44 C45 22 32 -10 40 -34 C52 -65 90 -78 120 -78 C175 -78 207 34 213 67 C278 76 341 93 407 105 C435 110 493 118 521 120 C528 95 533 68 536 41 C540 19 539 -16 551 -33 C561 -48 585 -67 599 -69 C658 -79 683 -25 681 24 C679 97 685 153 664 227 C642 298 598 398 574 470 C554 532 530 624 452 623 L452 623 Z M398 233 C356 225 315 210 273 210 C295 256 319 298 348 341 C370 373 400 411 421 433 C435 406 459 372 471 338 C483 305 495 279 502 245 C479 247 421 238 398 233 L398 233 Z M429 761 C413 750 400 739 382 730 C372 723 351 715 344 703 C343 700 345 689 349 685 C356 674 368 664 386 662 C400 661 417 664 432 669 C466 678 500 697 525 713 C537 723 561 743 563 762 C563 770 550 791 539 795 C526 800 497 804 484 801 C465 796 447 773 429 761 L429 761 Z " />
<glyph glyph-name="acircumflex" unicode="&#xe2;" horiz-adv-x="722" d="M452 623 C427 623 384 604 363 592 C339 578 319 559 300 537 C256 486 218 430 184 370 C136 284 96 213 77 121 C70 91 62 73 52 44 C45 22 32 -10 40 -34 C52 -65 90 -78 120 -78 C175 -78 207 34 213 67 C278 76 341 93 407 105 C435 110 493 118 521 120 C528 95 533 68 536 41 C540 19 539 -16 551 -33 C561 -48 585 -67 599 -69 C658 -79 683 -25 681 24 C679 97 685 153 664 227 C642 298 598 398 574 470 C554 532 530 624 452 623 L452 623 Z M398 233 C356 225 315 210 273 210 C295 256 319 298 348 341 C370 373 400 411 421 433 C435 406 459 372 471 338 C483 305 495 279 502 245 C479 247 421 238 398 233 L398 233 Z M564 724 C557 732 548 738 540 746 C527 760 516 776 504 791 C498 799 491 814 482 820 C475 827 458 828 449 828 C433 828 426 823 416 816 C406 806 395 798 384 789 C366 775 351 758 333 743 C307 726 283 711 271 685 C270 665 282 657 300 652 C327 643 361 656 378 668 C393 679 405 689 420 701 C432 709 440 724 454 728 C467 718 475 709 486 698 C507 677 528 665 559 661 C566 660 577 667 581 672 C586 678 591 685 588 695 C583 706 571 714 564 724 L564 724 Z " />
<glyph glyph-name="atilde" unicode="&#xe3;" horiz-adv-x="722" d="M452 623 C427 623 384 604 363 592 C339 578 319 559 300 537 C256 486 218 430 184 370 C136 284 96 213 77 121 C70 91 62 73 52 44 C45 22 32 -10 40 -34 C52 -65 90 -78 120 -78 C175 -78 207 34 213 67 C278 76 341 93 407 105 C435 110 493 118 521 120 C528 95 533 68 536 41 C540 19 539 -16 551 -33 C561 -48 585 -67 599 -69 C658 -79 683 -25 681 24 C679 97 685 153 664 227 C642 298 598 398 574 470 C554 532 530 624 452 623 L452 623 Z M398 233 C356 225 315 210 273 210 C295 256 319 298 348 341 C370 373 400 411 421 433 C435 406 459 372 471 338 C483 305 495 279 502 245 C479 247 421 238 398 233 L398 233 Z M315 833 C291 823 269 806 245 784 C236 776 224 756 227 740 C232 725 250 716 268 711 C284 708 291 713 301 721 C313 731 326 740 342 748 C357 754 370 765 381 750 C396 728 401 703 416 682 C425 670 435 662 450 658 C465 656 477 654 490 656 C532 659 552 665 579 686 C603 703 625 739 625 770 C625 780 623 791 618 799 C614 804 613 808 608 813 C601 818 592 819 586 822 C570 828 560 831 552 823 C544 816 544 805 539 796 C534 783 511 728 485 740 C466 750 457 785 444 804 C439 810 434 814 431 819 C407 848 362 854 338 843 C330 840 325 835 315 833 L315 833 Z " />
<glyph glyph-name="adieresis" unicode="&#xe4;" horiz-adv-x="722" d="M452 623 C427 623 384 604 363 592 C339 578 319 559 300 537 C256 486 218 430 184 370 C136 284 96 213 77 121 C70 91 62 73 52 44 C45 22 32 -10 40 -34 C52 -65 90 -78 120 -78 C175 -78 207 34 213 67 C278 76 341 93 407 105 C435 110 493 118 521 120 C528 95 533 68 536 41 C540 19 539 -16 551 -33 C561 -48 585 -67 599 -69 C658 -79 683 -25 681 24 C679 97 685 153 664 227 C642 298 598 398 574 470 C554 532 530 624 452 623 L452 623 Z M398 233 C356 225 315 210 273 210 C295 256 319 298 348 341 C370 373 400 411 421 433 C435 406 459 372 471 338 C483 305 495 279 502 245 C479 247 421 238 398 233 L398 233 Z M387 743 C402 727 409 711 409 694 C409 684 407 674 401 664 C396 658 384 656 376 653 C366 650 353 650 341 649 C333 647 327 646 318 652 C302 665 291 684 285 701 C279 729 315 744 338 750 C346 753 357 754 366 753 C373 753 380 750 387 743 L387 743 Z M599 741 C590 752 570 761 558 767 C540 776 530 769 522 760 C510 752 497 744 487 735 C480 730 478 724 478 714 C478 702 483 682 497 672 C508 664 527 657 539 657 C559 658 573 675 587 685 C602 696 609 729 599 741 L599 741 Z " />
<glyph glyph-name="aring" unicode="&#xe5;" horiz-adv-x="722" d="M559 714 C548 732 533 749 514 760 C492 772 470 779 447 784 C424 789 400 798 378 794 C354 790 344 773 331 758 C312 737 288 704 304 672 C317 646 344 610 376 599 L363 592 C339 578 319 559 300 537 C256 486 218 430 184 370 C136 284 96 213 77 121 C70 91 62 73 52 44 C45 22 32 -10 40 -34 C52 -65 90 -78 120 -78 C175 -78 207 34 213 67 C278 76 341 93 407 105 C435 110 493 118 521 120 C528 95 533 68 536 41 C540 19 539 -16 551 -33 C561 -48 585 -67 599 -69 C658 -79 683 -25 681 24 C679 97 685 153 664 227 C642 298 598 398 574 470 C559 520 540 588 493 613 L510 623 C533 635 552 648 564 670 C572 682 566 697 559 714 L559 714 Z M398 233 C356 225 315 210 273 210 C295 256 319 298 348 341 C370 373 400 411 421 433 C435 406 459 372 471 338 C483 305 495 279 502 245 C479 247 421 238 398 233 L398 233 Z M447 675 C429 669 410 673 392 672 C391 682 389 690 396 698 C403 705 413 713 417 721 C438 718 459 709 477 701 C470 691 461 680 447 675 L447 675 Z " />
<glyph glyph-name="ae" unicode="&#xe6;" horiz-adv-x="1105" d="M1081 573 C1075 582 1064 588 1056 593 C1047 598 1037 606 1028 611 C1011 619 991 617 974 619 C943 623 910 625 876 625 C770 625 658 606 568 579 C531 624 476 631 424 626 C356 620 354 591 306 556 C273 531 245 494 218 463 C186 425 161 378 132 338 C97 290 57 184 41 128 C35 109 33 90 28 70 C21 42 10 16 8 -13 C4 -26 9 -46 21 -60 C32 -72 54 -75 70 -80 C159 -104 162 -18 183 29 C195 53 200 57 207 82 C291 110 337 131 438 148 C438 115 431 113 431 90 C431 60 435 32 439 1 C441 -17 448 -30 463 -46 C472 -56 503 -70 515 -74 C522 -76 539 -73 544 -70 C577 -62 607 -55 637 -44 C662 -35 717 -17 746 -12 C778 -6 880 22 912 28 C937 34 964 38 989 44 C1003 47 1018 51 1025 64 C1031 73 1036 109 1026 120 C1000 153 960 154 930 154 C888 153 772 135 735 125 C687 113 624 93 580 82 C580 92 588 188 588 188 C588 188 670 216 705 224 C739 233 875 252 910 256 C920 257 931 258 942 258 C956 258 969 257 982 257 C999 257 1015 258 1030 262 C1043 267 1048 279 1052 292 C1057 308 1058 318 1043 333 C994 377 932 379 882 381 C837 381 690 359 648 348 C634 344 620 338 607 333 C607 341 607 348 607 356 C608 388 617 423 617 455 C632 456 634 458 647 461 C662 465 754 490 769 492 C802 496 835 498 868 498 C906 498 944 496 980 496 C1004 496 1028 497 1052 499 C1063 501 1079 505 1081 518 C1082 525 1087 527 1087 536 C1087 544 1088 565 1081 573 L1081 573 Z M263 257 C330 367 339 396 438 484 C450 456 442 480 446 453 C450 406 454 361 454 319 C454 313 454 308 454 302 C405 261 327 273 263 257 L263 257 Z " />
<glyph glyph-name="ccedilla" unicode="&#xe7;" horiz-adv-x="803" d="M623 578 C593 592 562 599 532 599 C483 599 433 582 385 555 C327 524 276 495 233 453 C176 399 76 315 53 247 C45 223 38 194 38 165 C38 150 40 137 44 124 C55 85 86 38 114 6 C151 -34 257 -53 280 -59 C322 -69 360 -75 397 -75 L400 -75 L421 -90 L452 -118 L407 -118 C387 -115 356 -110 335 -115 C317 -121 295 -143 289 -161 C284 -183 328 -199 353 -206 C375 -212 394 -215 414 -215 C436 -215 458 -211 480 -205 C515 -194 539 -170 553 -139 C563 -118 540 -96 524 -76 C519 -70 514 -64 507 -58 C539 -51 561 -41 599 -22 C639 -1 695 27 728 52 C748 67 769 91 766 115 C760 145 735 190 702 185 C676 182 642 158 618 148 C558 124 524 91 458 75 C405 63 370 58 343 58 C313 58 294 63 275 69 C251 76 206 105 200 130 C184 201 329 324 376 362 C417 396 476 434 526 456 C554 468 596 459 629 430 C656 407 678 395 697 395 C712 395 725 402 739 416 C749 428 747 447 739 463 C721 495 653 564 623 578 L623 578 Z " />
<glyph glyph-name="egrave" unicode="&#xe8;" horiz-adv-x="725" d="M68 420 C68 388 70 358 70 327 C70 257 57 191 61 120 C61 94 64 66 64 39 C64 26 62 11 62 -3 C62 -14 63 -24 67 -35 C79 -69 109 -77 140 -77 C165 -77 190 -71 204 -67 C322 -35 432 -24 535 -18 C564 -17 598 -21 614 -2 C623 9 629 20 629 33 C629 42 626 51 620 63 C605 95 576 95 546 99 C527 101 508 102 490 102 C427 102 365 90 307 85 C265 82 237 77 200 67 C202 89 202 111 204 133 C206 142 206 175 206 175 C206 175 227 181 243 186 C312 205 378 213 441 219 C475 222 510 225 544 227 C571 228 604 216 624 228 C640 238 642 267 643 287 C646 308 625 339 595 347 C565 354 539 356 510 354 C416 351 302 339 218 318 C220 335 222 419 222 419 C222 419 285 437 299 442 C366 466 488 490 570 490 C585 490 598 489 610 487 C642 482 665 471 685 490 C696 500 700 513 700 528 C700 562 674 602 629 607 C592 611 568 617 533 615 C396 620 277 579 150 546 C123 539 94 533 77 513 C68 501 65 489 65 474 C65 457 69 439 68 420 L68 420 Z M357 746 C341 753 326 758 312 767 C302 773 294 780 283 781 C270 782 250 774 243 766 C237 760 241 736 248 727 C255 718 268 710 278 702 C289 693 301 687 314 680 C339 668 386 651 424 646 C441 643 455 642 466 645 C480 650 482 663 480 675 C480 680 475 692 469 696 C464 701 451 704 445 708 C436 713 428 715 419 719 C398 727 378 737 357 746 L357 746 Z " />
<glyph glyph-name="eacute" unicode="&#xe9;" horiz-adv-x="725" d="M68 420 C68 388 70 358 70 327 C70 257 57 191 61 120 C61 94 64 66 64 39 C64 26 62 11 62 -3 C62 -14 63 -24 67 -35 C79 -69 109 -77 140 -77 C165 -77 190 -71 204 -67 C322 -35 432 -24 535 -18 C564 -17 598 -21 614 -2 C623 9 629 20 629 33 C629 42 626 51 620 63 C605 95 576 95 546 99 C527 101 508 102 490 102 C427 102 365 90 307 85 C265 82 237 77 200 67 C202 89 202 111 204 133 C206 142 206 175 206 175 C206 175 227 181 243 186 C312 205 378 213 441 219 C475 222 510 225 544 227 C571 228 604 216 624 228 C640 238 642 267 643 287 C646 308 625 339 595 347 C565 354 539 356 510 354 C416 351 302 339 218 318 C220 335 222 419 222 419 C222 419 285 437 299 442 C366 466 488 490 570 490 C585 490 598 489 610 487 C642 482 665 471 685 490 C696 500 700 513 700 528 C700 562 674 602 629 607 C592 611 568 617 533 615 C396 620 277 579 150 546 C123 539 94 533 77 513 C68 501 65 489 65 474 C65 457 69 439 68 420 L68 420 Z M386 743 C370 732 357 721 339 712 C329 705 308 697 301 685 C300 682 302 671 306 667 C313 656 325 646 343 644 C357 643 374 646 389 651 C423 660 457 679 482 695 C494 705 518 725 520 744 C520 752 507 773 496 777 C483 782 454 786 441 783 C422 778 404 755 386 743 L386 743 Z " />
<glyph glyph-name="ecircumflex" unicode="&#xea;" horiz-adv-x="725" d="M68 420 C68 388 70 358 70 327 C70 257 57 191 61 120 C61 94 64 66 64 39 C64 26 62 11 62 -3 C62 -14 63 -24 67 -35 C79 -69 109 -77 140 -77 C165 -77 190 -71 204 -67 C322 -35 432 -24 535 -18 C564 -17 598 -21 614 -2 C623 9 629 20 629 33 C629 42 626 51 620 63 C605 95 576 95 546 99 C527 101 508 102 490 102 C427 102 365 90 307 85 C265 82 237 77 200 67 C202 89 202 111 204 133 C206 142 206 175 206 175 C206 175 227 181 243 186 C312 205 378 213 441 219 C475 222 510 225 544 227 C571 228 604 216 624 228 C640 238 642 267 643 287 C646 308 625 339 595 347 C565 354 539 356 510 354 C416 351 302 339 218 318 C220 335 222 419 222 419 C222 419 285 437 299 442 C366 466 488 490 570 490 C585 490 598 489 610 487 C642 482 665 471 685 490 C696 500 700 513 700 528 C700 562 674 602 629 607 C592 611 568 617 533 615 C396 620 277 579 150 546 C123 539 94 533 77 513 C68 501 65 489 65 474 C65 457 69 439 68 420 L68 420 Z M548 708 C541 716 532 722 524 730 C511 744 500 760 488 775 C482 783 475 798 466 804 C459 811 442 812 433 812 C417 812 410 807 400 800 C390 790 379 782 368 773 C350 759 335 742 317 727 C291 710 267 695 255 669 C254 649 266 641 284 636 C311 627 345 640 362 652 C377 663 389 673 404 685 C416 693 424 708 438 712 C451 702 459 693 470 682 C491 661 512 649 543 645 C550 644 561 651 565 656 C570 662 575 669 572 679 C567 690 555 698 548 708 L548 708 Z " />
<glyph glyph-name="edieresis" unicode="&#xeb;" horiz-adv-x="725" d="M68 420 C68 388 70 358 70 327 C70 257 57 191 61 120 C61 94 64 66 64 39 C64 26 62 11 62 -3 C62 -14 63 -24 67 -35 C79 -69 109 -77 140 -77 C165 -77 190 -71 204 -67 C322 -35 432 -24 535 -18 C564 -17 598 -21 614 -2 C623 9 629 20 629 33 C629 42 626 51 620 63 C605 95 576 95 546 99 C527 101 508 102 490 102 C427 102 365 90 307 85 C265 82 237 77 200 67 C202 89 202 111 204 133 C206 142 206 175 206 175 C206 175 227 181 243 186 C312 205 378 213 441 219 C475 222 510 225 544 227 C571 228 604 216 624 228 C640 238 642 267 643 287 C646 308 625 339 595 347 C565 354 539 356 510 354 C416 351 302 339 218 318 C220 335 222 419 222 419 C222 419 285 437 299 442 C366 466 488 490 570 490 C585 490 598 489 610 487 C642 482 665 471 685 490 C696 500 700 513 700 528 C700 562 674 602 629 607 C592 611 568 617 533 615 C396 620 277 579 150 546 C123 539 94 533 77 513 C68 501 65 489 65 474 C65 457 69 439 68 420 L68 420 Z M349 733 C364 717 371 701 371 684 C371 674 369 664 363 654 C358 648 346 646 338 643 C328 640 315 640 303 639 C295 637 289 636 280 642 C264 655 253 674 247 691 C241 719 277 734 300 740 C308 743 319 744 328 743 C335 743 342 740 349 733 L349 733 Z M561 731 C552 742 532 751 520 757 C502 766 492 759 484 750 C472 742 459 734 449 725 C442 720 440 714 440 704 C440 692 445 672 459 662 C470 654 489 647 501 647 C521 648 535 665 549 675 C564 686 571 719 561 731 L561 731 Z " />
<glyph glyph-name="igrave" unicode="&#xec;" horiz-adv-x="276" d="M61 270 C56 183 62 124 53 38 C52 15 48 -5 69 -27 C88 -47 112 -51 134 -46 C189 -33 216 24 216 70 C216 113 212 126 213 168 C215 189 215 211 215 232 C215 257 215 282 212 308 C209 349 216 418 221 458 C224 477 230 494 230 513 C230 522 229 532 224 542 C215 568 201 589 165 595 C152 598 133 604 121 600 C70 578 71 525 68 480 C62 422 63 328 61 270 L61 270 Z M114 761 C98 768 83 773 69 782 C59 788 51 795 40 796 C27 797 7 789 0 781 C-6 775 -2 751 5 742 C12 733 25 725 35 717 C46 708 58 702 71 695 C96 683 143 666 181 661 C198 658 212 657 223 660 C237 665 239 678 237 690 C237 695 232 707 226 711 C221 716 208 719 202 723 C193 728 185 730 176 734 C155 742 135 752 114 761 L114 761 Z " />
<glyph glyph-name="iacute" unicode="&#xed;" horiz-adv-x="276" d="M61 270 C56 183 62 124 53 38 C52 15 48 -5 69 -27 C88 -47 112 -51 134 -46 C189 -33 216 24 216 70 C216 113 212 126 213 168 C215 189 215 211 215 232 C215 257 215 282 212 308 C209 349 216 418 221 458 C224 477 230 494 230 513 C230 522 229 532 224 542 C215 568 201 589 165 595 C152 598 133 604 121 600 C70 578 71 525 68 480 C62 422 63 328 61 270 L61 270 Z M143 742 C127 731 114 720 96 711 C86 704 65 696 58 684 C57 681 59 670 63 666 C70 655 82 645 100 643 C114 642 131 645 146 650 C180 659 214 678 239 694 C251 704 275 724 277 743 C277 751 264 772 253 776 C240 781 211 785 198 782 C179 777 161 754 143 742 L143 742 Z " />
<glyph glyph-name="icircumflex" unicode="&#xee;" horiz-adv-x="276" d="M61 270 C56 183 62 124 53 38 C52 15 48 -5 69 -27 C88 -47 112 -51 134 -46 C189 -33 216 24 216 70 C216 113 212 126 213 168 C215 189 215 211 215 232 C215 257 215 282 212 308 C209 349 216 418 221 458 C224 477 230 494 230 513 C230 522 229 532 224 542 C215 568 201 589 165 595 C152 598 133 604 121 600 C70 578 71 525 68 480 C62 422 63 328 61 270 L61 270 Z M271 715 C264 723 255 729 247 737 C234 751 223 767 211 782 C205 790 198 805 189 811 C182 818 165 819 156 819 C140 819 133 814 123 807 C113 797 102 789 91 780 C73 766 58 749 40 734 C14 717 -10 702 -22 676 C-23 656 -11 648 7 643 C34 634 68 647 85 659 C100 670 112 680 127 692 C139 700 147 715 161 719 C174 709 182 700 193 689 C214 668 235 656 266 652 C273 651 284 658 288 663 C293 669 298 676 295 686 C290 697 278 705 271 715 L271 715 Z " />
<glyph glyph-name="idieresis" unicode="&#xef;" horiz-adv-x="276" d="M61 270 C56 183 62 124 53 38 C52 15 48 -5 69 -27 C88 -47 112 -51 134 -46 C189 -33 216 24 216 70 C216 113 212 126 213 168 C215 189 215 211 215 232 C215 257 215 282 212 308 C209 349 216 418 221 458 C224 477 230 494 230 513 C230 522 229 532 224 542 C215 568 201 589 165 595 C152 598 133 604 121 600 C70 578 71 525 68 480 C62 422 63 328 61 270 L61 270 Z M81 755 C96 739 103 723 103 706 C103 696 101 686 95 676 C90 670 78 668 70 665 C60 662 47 662 35 661 C27 659 21 658 12 664 C-4 677 -15 696 -21 713 C-27 741 9 756 32 762 C40 765 51 766 60 765 C67 765 74 762 81 755 L81 755 Z M293 753 C284 764 264 773 252 779 C234 788 224 781 216 772 C204 764 191 756 181 747 C174 742 172 736 172 726 C172 714 177 694 191 684 C202 676 221 669 233 669 C253 670 267 687 281 697 C296 708 303 741 293 753 L293 753 Z " />
<glyph glyph-name="eth" unicode="&#xf0;" horiz-adv-x="873" d="M773 435 C746 462 715 480 683 502 C646 530 617 549 574 559 C520 570 468 584 415 592 C385 596 356 598 328 598 C312 598 295 598 278 596 C231 595 137 599 119 554 C114 543 112 534 112 524 C112 487 141 455 150 406 C152 388 153 370 153 350 C137 348 120 345 105 341 C77 332 52 331 40 303 C36 295 36 287 38 278 C42 265 44 250 51 239 C57 227 64 228 74 225 C84 224 95 219 105 219 C116 219 137 223 146 228 C146 217 145 206 145 196 C145 168 143 143 144 115 C145 93 145 73 151 50 C155 29 156 10 164 -11 C170 -27 182 -48 195 -61 C212 -79 265 -104 280 -95 C395 -6 539 30 658 101 C724 139 809 172 828 258 C832 274 834 290 834 305 C834 352 816 395 773 435 L773 435 Z M668 307 C659 255 602 230 560 208 C537 196 512 188 490 177 C465 165 441 154 416 145 C396 138 373 132 353 125 C338 120 321 115 308 108 C300 121 301 136 301 150 C302 171 301 192 301 212 C301 222 302 230 302 240 C341 241 389 244 417 252 C433 258 441 267 441 290 C442 310 440 333 417 345 C397 356 377 364 358 367 C339 371 320 372 302 370 C301 398 297 428 285 452 C306 462 341 459 363 462 C389 463 419 457 447 450 C472 442 498 439 524 433 C554 425 659 393 665 367 C671 348 671 325 668 307 L668 307 Z " />
<glyph glyph-name="ntilde" unicode="&#xf1;" horiz-adv-x="696" d="M80 240 C80 189 59 143 59 90 C59 78 61 66 63 53 C69 25 86 -65 130 -75 C146 -79 196 -75 204 -64 C215 -51 213 -21 213 -4 C215 44 220 90 224 136 C227 161 231 188 231 213 C230 223 230 234 230 244 C230 261 231 277 234 291 C277 252 300 195 339 148 C371 107 385 64 413 23 C422 6 433 -19 452 -34 C471 -47 505 -55 527 -57 C579 -63 583 -32 593 6 C607 61 621 130 621 194 C621 292 632 383 652 486 C653 494 654 505 654 515 C654 525 653 536 653 545 C651 565 623 589 605 602 C583 618 563 619 541 610 C508 594 493 542 485 509 C482 497 482 484 482 471 C482 461 482 450 482 440 C483 407 476 376 471 344 C464 308 465 270 458 232 C454 221 454 212 449 202 C422 242 405 250 389 280 C373 310 353 342 333 372 C320 395 307 418 294 441 C287 453 221 559 209 568 C195 581 164 588 146 589 C125 590 99 573 88 560 C76 545 79 527 80 509 C81 482 80 456 82 429 C86 411 81 394 81 376 C81 344 80 313 80 240 L80 240 Z M239 796 C215 786 193 769 169 747 C160 739 148 719 151 703 C156 688 174 679 192 674 C208 671 215 676 225 684 C237 694 250 703 266 711 C281 717 294 728 305 713 C320 691 325 666 340 645 C349 633 359 625 374 621 C389 619 401 617 414 619 C456 622 476 628 503 649 C527 666 549 702 549 733 C549 743 547 754 542 762 C538 767 537 771 532 776 C525 781 516 782 510 785 C494 791 484 794 476 786 C468 779 468 768 463 759 C458 746 435 691 409 703 C390 713 381 748 368 767 C363 773 358 777 355 782 C331 811 286 817 262 806 C254 803 249 798 239 796 L239 796 Z " />
<glyph glyph-name="ograve" unicode="&#xf2;" horiz-adv-x="848" d="M755 516 C715 545 665 559 618 571 C563 587 517 601 464 594 C440 590 415 593 392 589 C365 585 341 576 317 568 C272 556 243 536 213 508 C178 478 148 444 116 411 C67 359 37 298 37 229 C37 194 45 156 63 116 C80 78 127 5 169 -23 C204 -45 278 -51 317 -51 C334 -51 351 -51 369 -51 C420 -51 470 -48 514 -25 C595 17 673 69 728 137 C756 172 774 217 792 258 C806 295 823 327 823 367 C822 424 816 472 755 516 L755 516 Z M599 274 C552 208 516 159 436 122 C402 107 363 98 324 88 C258 72 213 128 188 185 C200 229 218 269 248 302 C273 328 306 366 339 385 C366 402 394 425 421 442 C438 451 460 444 479 447 C496 450 512 456 532 458 C576 462 610 444 654 430 C662 379 625 309 599 274 L599 274 Z M440 758 C424 765 409 770 395 779 C385 785 377 792 366 793 C353 794 333 786 326 778 C320 772 324 748 331 739 C338 730 351 722 361 714 C372 705 384 699 397 692 C422 680 469 663 507 658 C524 655 538 654 549 657 C563 662 565 675 563 687 C563 692 558 704 552 708 C547 713 534 716 528 720 C519 725 511 727 502 731 C481 739 461 749 440 758 L440 758 Z " />
<glyph glyph-name="oacute" unicode="&#xf3;" horiz-adv-x="848" d="M755 516 C715 545 665 559 618 571 C563 587 517 601 464 594 C440 590 415 593 392 589 C365 585 341 576 317 568 C272 556 243 536 213 508 C178 478 148 444 116 411 C67 359 37 298 37 229 C37 194 45 156 63 116 C80 78 127 5 169 -23 C204 -45 278 -51 317 -51 C334 -51 351 -51 369 -51 C420 -51 470 -48 514 -25 C595 17 673 69 728 137 C756 172 774 217 792 258 C806 295 823 327 823 367 C822 424 816 472 755 516 L755 516 Z M599 274 C552 208 516 159 436 122 C402 107 363 98 324 88 C258 72 213 128 188 185 C200 229 218 269 248 302 C273 328 306 366 339 385 C366 402 394 425 421 442 C438 451 460 444 479 447 C496 450 512 456 532 458 C576 462 610 444 654 430 C662 379 625 309 599 274 L599 274 Z M443 733 C427 722 414 711 396 702 C386 695 365 687 358 675 C357 672 359 661 363 657 C370 646 382 636 400 634 C414 633 431 636 446 641 C480 650 514 669 539 685 C551 695 575 715 577 734 C577 742 564 763 553 767 C540 772 511 776 498 773 C479 768 461 745 443 733 L443 733 Z " />
<glyph glyph-name="ocircumflex" unicode="&#xf4;" horiz-adv-x="848" d="M755 516 C715 545 665 559 618 571 C563 587 517 601 464 594 C440 590 415 593 392 589 C365 585 341 576 317 568 C272 556 243 536 213 508 C178 478 148 444 116 411 C67 359 37 298 37 229 C37 194 45 156 63 116 C80 78 127 5 169 -23 C204 -45 278 -51 317 -51 C334 -51 351 -51 369 -51 C420 -51 470 -48 514 -25 C595 17 673 69 728 137 C756 172 774 217 792 258 C806 295 823 327 823 367 C822 424 816 472 755 516 L755 516 Z M599 274 C552 208 516 159 436 122 C402 107 363 98 324 88 C258 72 213 128 188 185 C200 229 218 269 248 302 C273 328 306 366 339 385 C366 402 394 425 421 442 C438 451 460 444 479 447 C496 450 512 456 532 458 C576 462 610 444 654 430 C662 379 625 309 599 274 L599 274 Z M590 710 C583 718 574 724 566 732 C553 746 542 762 530 777 C524 785 517 800 508 806 C501 813 484 814 475 814 C459 814 452 809 442 802 C432 792 421 784 410 775 C392 761 377 744 359 729 C333 712 309 697 297 671 C296 651 308 643 326 638 C353 629 387 642 404 654 C419 665 431 675 446 687 C458 695 466 710 480 714 C493 704 501 695 512 684 C533 663 554 651 585 647 C592 646 603 653 607 658 C612 664 617 671 614 681 C609 692 597 700 590 710 L590 710 Z " />
<glyph glyph-name="otilde" unicode="&#xf5;" horiz-adv-x="848" d="M755 516 C715 545 665 559 618 571 C563 587 517 601 464 594 C440 590 415 593 392 589 C365 585 341 576 317 568 C272 556 243 536 213 508 C178 478 148 444 116 411 C67 359 37 298 37 229 C37 194 45 156 63 116 C80 78 127 5 169 -23 C204 -45 278 -51 317 -51 C334 -51 351 -51 369 -51 C420 -51 470 -48 514 -25 C595 17 673 69 728 137 C756 172 774 217 792 258 C806 295 823 327 823 367 C822 424 816 472 755 516 L755 516 Z M599 274 C552 208 516 159 436 122 C402 107 363 98 324 88 C258 72 213 128 188 185 C200 229 218 269 248 302 C273 328 306 366 339 385 C366 402 394 425 421 442 C438 451 460 444 479 447 C496 450 512 456 532 458 C576 462 610 444 654 430 C662 379 625 309 599 274 L599 274 Z M328 825 C304 815 282 798 258 776 C249 768 237 748 240 732 C245 717 263 708 281 703 C297 700 304 705 314 713 C326 723 339 732 355 740 C370 746 383 757 394 742 C409 720 414 695 429 674 C438 662 448 654 463 650 C478 648 490 646 503 648 C545 651 565 657 592 678 C616 695 638 731 638 762 C638 772 636 783 631 791 C627 796 626 800 621 805 C614 810 605 811 599 814 C583 820 573 823 565 815 C557 808 557 797 552 788 C547 775 524 720 498 732 C479 742 470 777 457 796 C452 802 447 806 444 811 C420 840 375 846 351 835 C343 832 338 827 328 825 L328 825 Z " />
<glyph glyph-name="odieresis" unicode="&#xf6;" horiz-adv-x="848" d="M755 516 C715 545 665 559 618 571 C563 587 517 601 464 594 C440 590 415 593 392 589 C365 585 341 576 317 568 C272 556 243 536 213 508 C178 478 148 444 116 411 C67 359 37 298 37 229 C37 194 45 156 63 116 C80 78 127 5 169 -23 C204 -45 278 -51 317 -51 C334 -51 351 -51 369 -51 C420 -51 470 -48 514 -25 C595 17 673 69 728 137 C756 172 774 217 792 258 C806 295 823 327 823 367 C822 424 816 472 755 516 L755 516 Z M599 274 C552 208 516 159 436 122 C402 107 363 98 324 88 C258 72 213 128 188 185 C200 229 218 269 248 302 C273 328 306 366 339 385 C366 402 394 425 421 442 C438 451 460 444 479 447 C496 450 512 456 532 458 C576 462 610 444 654 430 C662 379 625 309 599 274 L599 274 Z M411 734 C426 718 433 702 433 685 C433 675 431 665 425 655 C420 649 408 647 400 644 C390 641 377 641 365 640 C357 638 351 637 342 643 C326 656 315 675 309 692 C303 720 339 735 362 741 C370 744 381 745 390 744 C397 744 404 741 411 734 L411 734 Z M623 732 C614 743 594 752 582 758 C564 767 554 760 546 751 C534 743 521 735 511 726 C504 721 502 715 502 705 C502 693 507 673 521 663 C532 655 551 648 563 648 C583 649 597 666 611 676 C626 687 633 720 623 732 L623 732 Z " />
<glyph glyph-name="divide" unicode="&#xf7;" horiz-adv-x="484" d="M313 473 C302 487 285 492 266 492 C251 492 237 488 227 487 C195 481 176 459 163 434 C155 421 148 411 156 393 C162 382 180 356 193 352 C212 342 239 360 252 366 C271 373 296 378 310 390 C320 399 327 413 327 430 C327 445 322 461 313 473 L313 473 Z M326 113 C310 133 284 141 257 141 C233 141 212 136 200 128 C183 119 176 96 164 80 C153 67 146 61 158 40 C165 30 178 11 190 7 C211 -1 245 8 263 11 C278 13 290 12 301 21 C321 36 339 53 339 76 C339 87 334 99 326 113 L326 113 Z M220 310 C184 304 143 307 106 295 C79 286 53 285 42 257 C37 248 38 241 40 230 C43 219 45 202 52 193 C61 181 65 182 75 179 C86 177 96 173 107 173 C116 173 127 178 136 179 C182 187 227 192 275 193 C315 194 383 194 419 206 C436 212 442 221 442 244 C444 264 441 287 420 299 C398 310 378 318 359 321 C346 323 334 324 323 324 C287 324 253 315 220 310 L220 310 Z " />
<glyph glyph-name="oslash" unicode="&#xf8;" horiz-adv-x="805" d="M711 499 C695 513 676 521 658 528 C671 545 680 564 684 583 C687 601 686 650 664 664 C641 679 599 664 586 652 C572 639 564 618 552 602 C544 592 535 581 526 571 C497 577 472 581 442 577 C431 576 419 576 408 576 C397 576 386 576 375 575 C351 571 328 562 304 558 C263 547 234 528 206 504 C174 476 144 446 113 416 C64 367 35 310 35 245 C35 215 42 182 55 148 C67 120 95 73 124 40 C113 28 96 18 90 4 C87 -8 95 -25 100 -41 C107 -57 111 -64 127 -69 C139 -73 148 -75 158 -75 C202 -75 227 -39 250 -10 C260 -7 276 -11 288 -11 C312 -11 334 -12 356 -12 C397 -12 435 -8 471 8 C547 46 623 92 676 153 C703 185 722 225 739 263 C754 296 769 325 769 362 C771 415 767 457 711 499 L711 499 Z M232 314 C257 338 288 372 319 389 C352 407 400 446 438 446 C363 365 315 272 241 192 C229 178 219 165 208 150 C187 167 178 189 178 210 C178 248 205 288 232 314 L232 314 Z M560 280 C514 222 479 177 403 145 C389 139 373 135 359 131 C409 192 452 256 498 319 C520 347 544 372 564 402 C571 412 577 423 585 434 C595 430 605 427 616 423 C621 376 585 313 560 280 L560 280 Z " />
<glyph glyph-name="ugrave" unicode="&#xf9;" horiz-adv-x="700" d="M385 82 C424 96 477 108 477 108 C471 156 471 223 471 272 C471 288 472 305 472 322 C472 372 472 422 473 472 C473 484 473 496 473 509 C473 548 476 589 508 607 C524 616 557 623 579 623 C607 623 635 612 645 579 C650 560 641 535 638 515 C632 488 632 462 631 435 C628 404 620 373 621 341 C623 309 630 276 631 244 C632 210 650 113 650 56 C650 28 646 5 634 -9 C602 -45 479 -51 435 -51 C420 -51 405 -52 388 -55 C333 -64 291 -75 231 -73 C184 -72 108 -44 92 3 C61 94 69 195 63 282 C62 303 61 322 61 342 C61 376 63 408 68 442 C76 491 74 568 125 590 C141 598 170 589 184 582 C207 567 248 550 242 525 C232 434 220 350 220 269 C220 227 224 167 228 131 L238 69 C238 69 335 65 385 82 L385 82 Z M297 741 C281 748 266 753 252 762 C242 768 234 775 223 776 C210 777 190 769 183 761 C177 755 181 731 188 722 C195 713 208 705 218 697 C229 688 241 682 254 675 C279 663 326 646 364 641 C381 638 395 637 406 640 C420 645 422 658 420 670 C420 675 415 687 409 691 C404 696 391 699 385 703 C376 708 368 710 359 714 C338 722 318 732 297 741 L297 741 Z " />
<glyph glyph-name="uacute" unicode="&#xfa;" horiz-adv-x="700" d="M385 82 C335 65 238 69 238 69 L228 131 C224 167 220 227 220 269 C220 350 232 434 242 525 C248 550 207 567 184 582 C170 589 141 598 125 590 C74 568 76 491 68 442 C63 408 61 376 61 342 C61 322 62 303 63 282 C69 195 61 94 92 3 C108 -44 184 -72 231 -73 C291 -75 333 -64 388 -55 C405 -52 420 -51 435 -51 C479 -51 602 -45 634 -9 C646 5 650 28 650 56 C650 113 632 210 631 244 C630 276 623 309 621 341 C620 373 628 404 631 435 C632 462 632 488 638 515 C641 535 650 560 645 579 C635 612 607 623 579 623 C557 623 524 616 508 607 C476 589 473 548 473 509 C473 496 473 484 473 472 C472 422 472 372 472 322 C472 305 471 288 471 272 C471 223 471 156 477 108 C477 108 424 96 385 82 L385 82 Z M339 720 C323 709 310 698 292 689 C282 682 261 674 254 662 C253 659 255 648 259 644 C266 633 278 623 296 621 C310 620 327 623 342 628 C376 637 410 656 435 672 C447 682 471 702 473 721 C473 729 460 750 449 754 C436 759 407 763 394 760 C375 755 357 732 339 720 L339 720 Z " />
<glyph glyph-name="ucircumflex" unicode="&#xfb;" horiz-adv-x="700" d="M385 82 C424 96 477 108 477 108 C471 156 471 223 471 272 C471 288 472 305 472 322 C472 372 472 422 473 472 C473 484 473 496 473 509 C473 548 476 589 508 607 C524 616 557 623 579 623 C607 623 635 612 645 579 C650 560 641 535 638 515 C632 488 632 462 631 435 C628 404 620 373 621 341 C623 309 630 276 631 244 C632 210 650 113 650 56 C650 28 646 5 634 -9 C602 -45 479 -51 435 -51 C420 -51 405 -52 388 -55 C333 -64 291 -75 231 -73 C184 -72 108 -44 92 3 C61 94 69 195 63 282 C62 303 61 322 61 342 C61 376 63 408 68 442 C76 491 74 568 125 590 C141 598 170 589 184 582 C207 567 248 550 242 525 C232 434 220 350 220 269 C220 227 224 167 228 131 L238 69 C238 69 335 65 385 82 L385 82 Z M472 731 C465 739 456 745 448 753 C435 767 424 783 412 798 C406 806 399 821 390 827 C383 834 366 835 357 835 C341 835 334 830 324 823 C314 813 303 805 292 796 C274 782 259 765 241 750 C215 733 191 718 179 692 C178 672 190 664 208 659 C235 650 269 663 286 675 C301 686 313 696 328 708 C340 716 348 731 362 735 C375 725 383 716 394 705 C415 684 436 672 467 668 C474 667 485 674 489 679 C494 685 499 692 496 702 C491 713 479 721 472 731 L472 731 Z " />
<glyph glyph-name="udieresis" unicode="&#xfc;" horiz-adv-x="700" d="M385 82 C424 96 477 108 477 108 C471 156 471 223 471 272 C471 288 472 305 472 322 C472 372 472 422 473 472 C473 484 473 496 473 509 C473 548 476 589 508 607 C524 616 557 623 579 623 C607 623 635 612 645 579 C650 560 641 535 638 515 C632 488 632 462 631 435 C628 404 620 373 621 341 C623 309 630 276 631 244 C632 210 650 113 650 56 C650 28 646 5 634 -9 C602 -45 479 -51 435 -51 C420 -51 405 -52 388 -55 C333 -64 291 -75 231 -73 C184 -72 108 -44 92 3 C61 94 69 195 63 282 C62 303 61 322 61 342 C61 376 63 408 68 442 C76 491 74 568 125 590 C141 598 170 589 184 582 C207 567 248 550 242 525 C232 434 220 350 220 269 C220 227 224 167 228 131 L238 69 C238 69 335 65 385 82 L385 82 Z M288 745 C303 729 310 713 310 696 C310 686 308 676 302 666 C297 660 285 658 277 655 C267 652 254 652 242 651 C234 649 228 648 219 654 C203 667 192 686 186 703 C180 731 216 746 239 752 C247 755 258 756 267 755 C274 755 281 752 288 745 L288 745 Z M500 743 C491 754 471 763 459 769 C441 778 431 771 423 762 C411 754 398 746 388 737 C381 732 379 726 379 716 C379 704 384 684 398 674 C409 666 428 659 440 659 C460 660 474 677 488 687 C503 698 510 731 500 743 L500 743 Z " />
<glyph glyph-name="yacute" unicode="&#xfd;" horiz-adv-x="647" d="M621 552 C617 571 602 595 576 605 C549 615 503 633 484 621 C470 610 457 592 448 577 C415 514 365 459 329 390 C309 410 296 419 269 444 C245 465 226 496 206 521 C187 545 176 559 150 581 C127 600 94 599 67 599 C41 599 30 574 30 550 C30 539 32 527 36 519 C44 501 61 482 74 465 C116 410 136 398 184 347 C202 327 241 287 257 265 C251 253 233 202 227 189 C204 142 158 93 164 33 C167 11 177 -27 195 -48 C215 -73 258 -82 277 -73 C299 -62 306 -46 312 -24 C324 12 346 44 360 80 C376 124 402 164 421 205 C441 241 463 278 482 315 C502 353 520 392 548 423 C568 446 590 465 605 491 C616 510 628 525 621 552 L621 552 Z M321 698 C305 687 292 676 274 667 C264 660 243 652 236 640 C235 637 237 626 241 622 C248 611 260 601 278 599 C292 598 309 601 324 606 C358 615 392 634 417 650 C429 660 453 680 455 699 C455 707 442 728 431 732 C418 737 389 741 376 738 C357 733 339 710 321 698 L321 698 Z " />
<glyph glyph-name="thorn" unicode="&#xfe;" horiz-adv-x="702" d="M610 388 C566 437 518 447 463 447 C449 447 435 447 419 446 C363 444 309 435 255 430 C257 450 260 469 262 490 C264 518 252 553 237 582 C222 607 204 634 172 634 C144 634 114 632 108 606 C106 596 105 585 105 574 C105 552 108 529 105 509 C99 478 92 447 88 416 C82 347 68 282 64 213 C64 205 63 190 63 171 C63 78 76 -114 169 -95 C194 -90 221 -79 224 -56 C226 -28 220 1 219 32 C218 44 218 57 218 69 C258 61 300 56 339 56 C354 56 370 57 384 58 C446 62 504 78 551 105 C588 127 629 148 646 188 C654 211 660 236 660 263 C660 304 647 349 610 388 L610 388 Z M515 285 C495 208 410 187 321 187 C289 187 255 190 224 194 C226 233 232 265 240 297 C266 296 291 297 316 298 C354 299 394 303 429 308 C459 313 490 310 520 312 C519 303 517 293 515 285 L515 285 Z " />
<glyph glyph-name="ydieresis" unicode="&#xff;" horiz-adv-x="647" d="M621 552 C628 525 616 510 605 491 C590 465 568 446 548 423 C520 392 502 353 482 315 C463 278 441 241 421 205 C402 164 376 124 360 80 C346 44 324 12 312 -24 C306 -46 299 -62 277 -73 C258 -82 215 -73 195 -48 C177 -27 167 11 164 33 C158 93 204 142 227 189 C233 202 251 253 257 265 C241 287 202 327 184 347 C136 398 116 410 74 465 C61 482 44 501 36 519 C32 527 30 539 30 550 C30 574 41 599 67 599 C94 599 127 600 150 581 C176 559 187 545 206 521 C226 496 245 465 269 444 C296 419 309 410 329 390 C365 459 415 514 448 577 C457 592 470 610 484 621 C503 633 549 615 576 605 C602 595 617 571 621 552 L621 552 Z M264 754 C279 738 286 722 286 705 C286 695 284 685 278 675 C273 669 261 667 253 664 C243 661 230 661 218 660 C210 658 204 657 195 663 C179 676 168 695 162 712 C156 740 192 755 215 761 C223 764 234 765 243 764 C250 764 257 761 264 754 L264 754 Z M476 752 C467 763 447 772 435 778 C417 787 407 780 399 771 C387 763 374 755 364 746 C357 741 355 735 355 725 C355 713 360 693 374 683 C385 675 404 668 416 668 C436 669 450 686 464 696 C479 707 486 740 476 752 L476 752 Z " />
<glyph glyph-name="Amacron" unicode="&#x100;" horiz-adv-x="739" d="M566 562 C549 592 503 636 463 630 C442 627 416 617 400 607 C387 598 371 590 358 582 C332 566 315 538 294 519 C266 488 199 433 178 399 C163 373 146 343 132 316 C120 293 112 267 97 244 C67 190 43 125 44 69 C44 38 53 -15 90 -42 C107 -56 141 -51 152 -42 C182 -22 188 21 197 48 C202 65 207 85 212 103 C240 108 258 115 285 121 C332 131 414 150 463 155 C488 158 512 159 532 159 C535 144 537 131 540 118 C542 105 546 92 549 80 C553 62 564 12 574 -5 C584 -19 620 -48 639 -56 C656 -63 673 -52 681 -42 C692 -29 703 -17 704 0 C705 19 696 64 695 85 C695 128 679 178 667 217 C659 244 647 272 641 299 C630 348 616 396 605 446 C602 467 598 485 592 507 C585 524 577 545 566 562 L566 562 Z M476 269 C464 270 453 271 441 271 C416 271 391 268 365 264 C344 261 295 246 272 244 C289 290 322 331 356 370 C384 401 416 430 457 452 C475 405 507 304 507 265 C491 267 492 269 476 269 L476 269 Z M578 788 C568 791 559 787 549 786 C532 783 515 779 496 779 C472 777 322 763 300 759 C283 757 264 754 247 748 C238 746 221 742 222 726 C222 719 222 705 227 697 C233 684 255 672 265 671 C273 668 283 672 290 673 C308 676 327 677 345 678 C380 682 541 696 576 701 C591 703 612 705 617 720 C620 730 624 752 618 765 C612 780 589 786 578 788 L578 788 Z " />
<glyph glyph-name="amacron" unicode="&#x101;" horiz-adv-x="722" d="M452 623 C427 623 384 604 363 592 C339 578 319 559 300 537 C256 486 218 430 184 370 C136 284 96 213 77 121 C70 91 62 73 52 44 C45 22 32 -10 40 -34 C52 -65 90 -78 120 -78 C175 -78 207 34 213 67 C278 76 341 93 407 105 C435 110 493 118 521 120 C528 95 533 68 536 41 C540 19 539 -16 551 -33 C561 -48 585 -67 599 -69 C658 -79 683 -25 681 24 C679 97 685 153 664 227 C642 298 598 398 574 470 C554 532 530 624 452 623 L452 623 Z M398 233 C356 225 315 210 273 210 C295 256 319 298 348 341 C370 373 400 411 421 433 C435 406 459 372 471 338 C483 305 495 279 502 245 C479 247 421 238 398 233 L398 233 Z M558 780 C548 783 539 779 529 778 C512 775 495 771 476 771 C452 769 302 755 280 751 C263 749 244 746 227 740 C218 738 201 734 202 718 C202 711 202 697 207 689 C213 676 235 664 245 663 C253 660 263 664 270 665 C288 668 307 669 325 670 C360 674 521 688 556 693 C571 695 592 697 597 712 C600 722 604 744 598 757 C592 772 569 778 558 780 L558 780 Z " />
<glyph glyph-name="Abreve" unicode="&#x102;" horiz-adv-x="739" d="M566 562 C549 592 503 636 463 630 C442 627 416 617 400 607 C387 598 371 590 358 582 C332 566 315 538 294 519 C266 488 199 433 178 399 C163 373 146 343 132 316 C120 293 112 267 97 244 C67 190 43 125 44 69 C44 38 53 -15 90 -42 C107 -56 141 -51 152 -42 C182 -22 188 21 197 48 C202 65 207 85 212 103 C240 108 258 115 285 121 C332 131 414 150 463 155 C488 158 512 159 532 159 C535 144 537 131 540 118 C542 105 546 92 549 80 C553 62 564 12 574 -5 C584 -19 620 -48 639 -56 C656 -63 673 -52 681 -42 C692 -29 703 -17 704 0 C705 19 696 64 695 85 C695 128 679 178 667 217 C659 244 647 272 641 299 C630 348 616 396 605 446 C602 467 598 485 592 507 C585 524 577 545 566 562 L566 562 Z M476 269 C464 270 453 271 441 271 C416 271 391 268 365 264 C344 261 295 246 272 244 C289 290 322 331 356 370 C384 401 416 430 457 452 C475 405 507 304 507 265 C491 267 492 269 476 269 L476 269 Z M302 777 C304 763 310 744 322 730 C337 715 358 707 378 700 C409 690 442 685 471 685 C485 685 501 689 514 691 C566 700 606 742 617 786 C619 801 630 830 617 841 C606 851 590 857 575 857 C558 857 545 860 536 849 C523 832 522 810 510 793 C499 778 487 764 466 760 C446 757 422 757 399 759 C399 786 425 833 417 849 C414 861 390 868 378 870 C358 874 339 870 328 862 C308 847 295 798 302 777 L302 777 Z " />
<glyph glyph-name="abreve" unicode="&#x103;" horiz-adv-x="722" d="M452 623 C427 623 384 604 363 592 C339 578 319 559 300 537 C256 486 218 430 184 370 C136 284 96 213 77 121 C70 91 62 73 52 44 C45 22 32 -10 40 -34 C52 -65 90 -78 120 -78 C175 -78 207 34 213 67 C278 76 341 93 407 105 C435 110 493 118 521 120 C528 95 533 68 536 41 C540 19 539 -16 551 -33 C561 -48 585 -67 599 -69 C658 -79 683 -25 681 24 C679 97 685 153 664 227 C642 298 598 398 574 470 C554 532 530 624 452 623 L452 623 Z M398 233 C356 225 315 210 273 210 C295 256 319 298 348 341 C370 373 400 411 421 433 C435 406 459 372 471 338 C483 305 495 279 502 245 C479 247 421 238 398 233 L398 233 Z M295 762 C297 748 303 729 315 715 C330 700 351 692 371 685 C402 675 435 670 464 670 C478 670 494 674 507 676 C559 685 599 727 610 771 C612 786 623 815 610 826 C599 836 583 842 568 842 C551 842 538 845 529 834 C516 817 515 795 503 778 C492 763 480 749 459 745 C439 742 415 742 392 744 C392 771 418 818 410 834 C407 846 383 853 371 855 C351 859 332 855 321 847 C301 832 288 783 295 762 L295 762 Z " />
<glyph glyph-name="Aogonek" unicode="&#x104;" horiz-adv-x="739" d="M546 21 C519 21 501 -12 495 -34 C491 -50 486 -69 488 -87 C490 -119 495 -152 524 -173 C548 -190 574 -213 603 -219 C634 -224 681 -210 702 -196 C715 -188 734 -173 736 -156 C741 -119 691 -84 654 -101 C630 -110 621 -128 592 -126 C577 -96 616 -75 629 -51 C632 -53 636 -55 639 -56 C656 -63 673 -52 681 -42 C692 -29 703 -17 704 0 C705 19 696 64 695 85 C695 128 679 178 667 217 C659 244 647 272 641 299 C630 348 616 396 605 446 C602 467 598 485 592 507 C585 524 577 545 566 562 C549 592 503 636 463 630 C442 627 416 617 400 607 C387 598 371 590 358 582 C332 566 315 538 294 519 C266 488 199 433 178 399 C163 373 146 343 132 316 C120 293 112 267 97 244 C67 190 43 125 44 69 C44 38 53 -15 90 -42 C107 -56 141 -51 152 -42 C182 -22 188 21 197 48 C202 65 207 85 212 103 C240 108 258 115 285 121 C332 131 414 150 463 155 C488 158 512 159 532 159 L540 118 C542 105 546 92 549 80 C552 68 555 45 563 24 L546 21 Z M476 269 C464 270 453 271 441 271 C416 271 391 268 365 264 C344 261 295 246 272 244 C289 290 322 331 356 370 C384 401 416 430 457 452 C475 405 507 304 507 265 C491 267 492 269 476 269 L476 269 Z " />
<glyph glyph-name="aogonek" unicode="&#x105;" horiz-adv-x="722" d="M520 10 C493 10 475 -23 470 -45 C465 -61 461 -80 463 -98 C464 -130 470 -162 498 -184 C522 -201 549 -224 577 -230 C608 -235 656 -221 676 -207 C690 -199 708 -184 711 -167 C716 -130 665 -95 629 -112 C605 -121 596 -139 566 -137 C553 -109 583 -90 598 -69 L599 -69 C658 -79 683 -25 681 24 C679 97 685 153 664 227 C642 298 598 398 574 470 C554 532 530 624 452 623 C427 623 384 604 363 592 C339 578 319 559 300 537 C256 486 218 430 184 370 C136 284 96 213 77 121 C70 91 62 73 52 44 C45 22 32 -10 40 -34 C52 -65 90 -78 120 -78 C175 -78 207 34 213 67 C278 76 341 93 407 105 C435 110 493 118 521 120 C528 95 533 68 536 41 L539 13 L520 10 Z M398 233 C356 225 315 210 273 210 C295 256 319 298 348 341 C370 373 400 411 421 433 C435 406 459 372 471 338 C483 305 495 279 502 245 C479 247 421 238 398 233 L398 233 Z " />
<glyph glyph-name="Cacute" unicode="&#x106;" horiz-adv-x="755" d="M716 453 C723 487 697 540 668 572 C657 581 642 592 627 601 C613 608 602 613 591 617 C562 628 529 634 498 629 C366 607 189 515 128 407 C100 358 80 326 63 275 C48 228 42 194 42 158 C42 144 43 131 44 116 C48 89 71 48 89 26 C145 -42 248 -61 343 -60 C394 -58 473 -46 520 -29 C555 -16 637 26 668 48 C685 60 715 83 716 102 C718 126 685 165 659 166 C629 167 614 163 590 150 C533 121 383 78 312 78 C299 78 285 78 271 81 C257 83 234 91 228 100 C216 113 212 129 212 146 C212 163 216 181 220 197 C239 265 253 288 291 350 C326 402 388 434 446 465 C466 477 527 497 548 494 C574 483 598 463 619 440 C637 419 653 411 679 418 C694 423 713 438 716 453 L716 453 Z M451 751 C435 740 422 729 404 720 C394 713 373 705 366 693 C365 690 367 679 371 675 C378 664 390 654 408 652 C422 651 439 654 454 659 C488 668 522 687 547 703 C559 713 583 733 585 752 C585 760 572 781 561 785 C548 790 519 794 506 791 C487 786 469 763 451 751 L451 751 Z " />
<glyph glyph-name="cacute" unicode="&#x107;" horiz-adv-x="803" d="M659 585 C629 599 598 606 569 606 C519 606 470 589 421 562 C363 531 276 495 233 453 C176 399 76 315 53 247 C45 223 38 194 38 165 C38 150 40 137 44 124 C55 85 86 38 114 6 C151 -34 257 -53 280 -59 C322 -69 360 -75 397 -75 C419 -75 441 -73 465 -68 C524 -56 548 -50 599 -22 C639 -1 695 27 728 52 C748 67 769 91 766 115 C760 145 735 190 702 185 C676 182 642 158 618 148 C558 124 524 91 458 75 C405 63 370 58 343 58 C313 58 294 63 275 69 C251 76 206 105 200 130 C184 201 329 324 376 362 C417 396 513 441 562 463 C591 475 632 466 665 437 C692 414 714 402 734 402 C748 402 761 409 776 423 C785 435 783 454 776 470 C757 502 690 571 659 585 L659 585 Z M501 715 C485 704 472 693 454 684 C444 677 423 669 416 657 C415 654 417 643 421 639 C428 628 440 618 458 616 C472 615 489 618 504 623 C538 632 572 651 597 667 C609 677 633 697 635 716 C635 724 622 745 611 749 C598 754 569 758 556 755 C537 750 519 727 501 715 L501 715 Z " />
<glyph glyph-name="Ccircumflex" unicode="&#x108;" horiz-adv-x="755" d="M716 453 C713 438 694 423 679 418 C653 411 637 419 619 440 C598 463 574 483 548 494 C527 497 466 477 446 465 C388 434 326 402 291 350 C253 288 239 265 220 197 C216 181 212 163 212 146 C212 129 216 113 228 100 C234 91 257 83 271 81 C285 78 299 78 312 78 C383 78 533 121 590 150 C614 163 629 167 659 166 C685 165 718 126 716 102 C715 83 685 60 668 48 C637 26 555 -16 520 -29 C473 -46 394 -58 343 -60 C248 -61 145 -42 89 26 C71 48 48 89 44 116 C43 131 42 144 42 158 C42 194 48 228 63 275 C80 326 100 358 128 407 C189 515 366 607 498 629 C529 634 562 628 591 617 C602 613 613 608 627 601 C642 592 657 581 668 572 C697 540 723 487 716 453 L716 453 Z M557 736 C550 744 541 750 533 758 C520 772 509 788 497 803 C491 811 484 826 475 832 C468 839 451 840 442 840 C426 840 419 835 409 828 C399 818 388 810 377 801 C359 787 344 770 326 755 C300 738 276 723 264 697 C263 677 275 669 293 664 C320 655 354 668 371 680 C386 691 398 701 413 713 C425 721 433 736 447 740 C460 730 468 721 479 710 C500 689 521 677 552 673 C559 672 570 679 574 684 C579 690 584 697 581 707 C576 718 564 726 557 736 L557 736 Z " />
<glyph glyph-name="ccircumflex" unicode="&#x109;" horiz-adv-x="803" d="M659 585 C629 599 598 606 569 606 C519 606 470 589 421 562 C363 531 276 495 233 453 C176 399 76 315 53 247 C45 223 38 194 38 165 C38 150 40 137 44 124 C55 85 86 38 114 6 C151 -34 257 -53 280 -59 C322 -69 360 -75 397 -75 C419 -75 441 -73 465 -68 C524 -56 548 -50 599 -22 C639 -1 695 27 728 52 C748 67 769 91 766 115 C760 145 735 190 702 185 C676 182 642 158 618 148 C558 124 524 91 458 75 C405 63 370 58 343 58 C313 58 294 63 275 69 C251 76 206 105 200 130 C184 201 329 324 376 362 C417 396 513 441 562 463 C591 475 632 466 665 437 C692 414 714 402 734 402 C748 402 761 409 776 423 C785 435 783 454 776 470 C757 502 690 571 659 585 L659 585 Z M588 703 C581 711 572 717 564 725 C551 739 540 755 528 770 C522 778 515 793 506 799 C499 806 482 807 473 807 C457 807 450 802 440 795 C430 785 419 777 408 768 C390 754 375 737 357 722 C331 705 307 690 295 664 C294 644 306 636 324 631 C351 622 385 635 402 647 C417 658 429 668 444 680 C456 688 464 703 478 707 C491 697 499 688 510 677 C531 656 552 644 583 640 C590 639 601 646 605 651 C610 657 615 664 612 674 C607 685 595 693 588 703 L588 703 Z " />
<glyph glyph-name="Cdotaccent" unicode="&#x10a;" horiz-adv-x="755" d="M716 453 C723 487 697 540 668 572 C657 581 642 592 627 601 C613 608 602 613 591 617 C562 628 529 634 498 629 C366 607 189 515 128 407 C100 358 80 326 63 275 C48 228 42 194 42 158 C42 144 43 131 44 116 C48 89 71 48 89 26 C145 -42 248 -61 343 -60 C394 -58 473 -46 520 -29 C555 -16 637 26 668 48 C685 60 715 83 716 102 C718 126 685 165 659 166 C629 167 614 163 590 150 C533 121 383 78 312 78 C299 78 285 78 271 81 C257 83 234 91 228 100 C216 113 212 129 212 146 C212 163 216 181 220 197 C239 265 253 288 291 350 C326 402 388 434 446 465 C466 477 527 497 548 494 C574 483 598 463 619 440 C637 419 653 411 679 418 C694 423 713 438 716 453 L716 453 Z M470 790 C463 797 456 800 449 800 C440 801 429 800 421 797 C398 791 362 776 368 748 C374 731 385 712 401 699 C410 693 416 694 424 696 C436 697 449 697 459 700 C467 703 479 705 484 711 C490 721 492 731 492 741 C492 758 485 774 470 790 L470 790 Z " />
<glyph glyph-name="cdotaccent" unicode="&#x10b;" horiz-adv-x="803" d="M659 585 C629 599 598 606 569 606 C519 606 470 589 421 562 C363 531 276 495 233 453 C176 399 76 315 53 247 C45 223 38 194 38 165 C38 150 40 137 44 124 C55 85 86 38 114 6 C151 -34 257 -53 280 -59 C322 -69 360 -75 397 -75 C419 -75 441 -73 465 -68 C524 -56 548 -50 599 -22 C639 -1 695 27 728 52 C748 67 769 91 766 115 C760 145 735 190 702 185 C676 182 642 158 618 148 C558 124 524 91 458 75 C405 63 370 58 343 58 C313 58 294 63 275 69 C251 76 206 105 200 130 C184 201 329 324 376 362 C417 396 513 441 562 463 C591 475 632 466 665 437 C692 414 714 402 734 402 C748 402 761 409 776 423 C785 435 783 454 776 470 C757 502 690 571 659 585 L659 585 Z M520 741 C513 748 506 751 499 751 C490 752 479 751 471 748 C448 742 412 727 418 699 C424 682 435 663 451 650 C460 644 466 645 474 647 C486 648 499 648 509 651 C517 654 529 656 534 662 C540 672 542 682 542 692 C542 709 535 725 520 741 L520 741 Z " />
<glyph glyph-name="Ccaron" unicode="&#x10c;" horiz-adv-x="755" d="M716 453 C713 438 694 423 679 418 C653 411 637 419 619 440 C598 463 574 483 548 494 C527 497 466 477 446 465 C388 434 326 402 291 350 C253 288 239 265 220 197 C216 181 212 163 212 146 C212 129 216 113 228 100 C234 91 257 83 271 81 C285 78 299 78 312 78 C383 78 533 121 590 150 C614 163 629 167 659 166 C685 165 718 126 716 102 C715 83 685 60 668 48 C637 26 555 -16 520 -29 C473 -46 394 -58 343 -60 C248 -61 145 -42 89 26 C71 48 48 89 44 116 C43 131 42 144 42 158 C42 194 48 228 63 275 C80 326 100 358 128 407 C189 515 366 607 498 629 C529 634 562 628 591 617 C602 613 613 608 627 601 C642 592 657 581 668 572 C697 540 723 487 716 453 L716 453 Z M337 763 C352 750 363 733 375 718 C383 710 388 697 396 689 C406 683 422 681 431 681 C445 681 454 686 463 694 C493 717 518 744 546 766 C568 780 600 800 607 824 C616 842 593 853 579 857 C551 867 519 853 501 841 C486 831 475 820 459 809 C448 800 438 784 424 781 C411 791 405 800 394 812 C373 833 349 847 319 849 C312 849 301 842 299 837 C293 831 288 824 292 814 C300 793 323 779 337 763 L337 763 Z " />
<glyph glyph-name="ccaron" unicode="&#x10d;" horiz-adv-x="803" d="M659 585 C629 599 598 606 569 606 C519 606 470 589 421 562 C363 531 276 495 233 453 C176 399 76 315 53 247 C45 223 38 194 38 165 C38 150 40 137 44 124 C55 85 86 38 114 6 C151 -34 257 -53 280 -59 C322 -69 360 -75 397 -75 C419 -75 441 -73 465 -68 C524 -56 548 -50 599 -22 C639 -1 695 27 728 52 C748 67 769 91 766 115 C760 145 735 190 702 185 C676 182 642 158 618 148 C558 124 524 91 458 75 C405 63 370 58 343 58 C313 58 294 63 275 69 C251 76 206 105 200 130 C184 201 329 324 376 362 C417 396 513 441 562 463 C591 475 632 466 665 437 C692 414 714 402 734 402 C748 402 761 409 776 423 C785 435 783 454 776 470 C757 502 690 571 659 585 L659 585 Z M426 730 C441 717 452 700 464 685 C472 677 477 664 485 656 C495 650 511 648 520 648 C534 648 543 653 552 661 C582 684 607 711 635 733 C657 747 689 767 696 791 C705 809 682 820 668 824 C640 834 608 820 590 808 C575 798 564 787 548 776 C537 767 527 751 513 748 C500 758 494 767 483 779 C462 800 438 814 408 816 C401 816 390 809 388 804 C382 798 377 791 381 781 C389 760 412 746 426 730 L426 730 Z " />
<glyph glyph-name="Dcaron" unicode="&#x10e;" horiz-adv-x="778" d="M686 480 C642 518 553 576 493 583 C441 590 391 600 339 602 C327 603 315 603 302 603 C271 603 239 600 207 596 C162 590 70 585 52 541 C47 530 45 520 45 511 C45 475 73 446 80 399 C82 381 84 361 84 342 C84 291 76 239 75 193 C75 165 71 141 74 114 C76 72 76 30 92 -8 C97 -23 108 -44 120 -55 C137 -70 189 -92 202 -80 C315 16 454 64 571 142 C636 185 717 225 737 312 C741 328 744 345 744 361 C744 405 727 445 686 480 L686 480 Z M583 345 C573 292 517 264 477 239 C454 225 431 215 408 202 C385 189 361 177 338 166 C327 161 233 120 232 120 C226 135 224 151 224 167 C224 185 227 204 227 222 C227 267 233 307 231 347 C229 378 228 423 212 456 C222 462 239 462 251 464 C264 465 275 469 287 470 C340 478 398 462 444 456 C472 452 573 428 581 404 C586 388 585 361 583 345 L583 345 Z M279 743 C294 730 305 713 317 698 C325 690 330 677 338 669 C348 663 364 661 373 661 C387 661 396 666 405 674 C435 697 460 724 488 746 C510 760 542 780 549 804 C558 822 535 833 521 837 C493 847 461 833 443 821 C428 811 417 800 401 789 C390 780 380 764 366 761 C353 771 347 780 336 792 C315 813 291 827 261 829 C254 829 243 822 241 817 C235 811 230 804 234 794 C242 773 265 759 279 743 L279 743 Z " />
<glyph glyph-name="dcaron" unicode="&#x10f;" horiz-adv-x="771" d="M715 476 C668 536 547 589 473 610 C453 615 431 617 404 617 C335 617 253 602 208 594 C178 589 151 582 124 573 C68 558 86 490 79 446 C71 407 65 372 65 335 C65 307 67 278 70 248 C71 234 73 219 73 205 C73 165 68 127 68 87 C68 67 69 45 74 23 C76 2 75 -30 90 -50 C106 -65 148 -81 168 -82 C229 -85 263 -61 302 -33 C327 -16 354 1 378 15 C464 58 576 115 642 187 C671 218 698 255 712 291 C724 322 740 362 736 400 C734 422 730 456 715 476 L715 476 Z M565 387 C565 353 552 331 535 304 C504 259 413 213 366 181 C339 161 308 144 278 126 C258 114 218 90 218 90 C218 90 218 136 218 147 C219 204 224 259 227 316 C228 356 232 398 231 438 C231 448 232 456 232 456 C232 456 266 461 280 463 C306 465 392 475 419 473 C468 470 507 464 555 453 C568 433 566 406 565 387 L565 387 Z M297 748 C312 735 322 718 334 703 C343 695 348 681 356 674 C365 668 382 665 391 665 C405 665 414 670 422 679 C452 702 477 728 507 750 C528 765 560 784 566 808 C576 827 552 838 539 841 C510 852 479 838 461 825 C446 816 435 805 419 794 C407 784 397 768 384 766 C371 776 364 784 353 796 C332 818 308 832 278 834 C272 834 262 827 258 822 C253 816 248 808 252 799 C260 778 283 764 297 748 L297 748 Z " />
<glyph glyph-name="Dcroat" unicode="&#x110;" horiz-adv-x="778" d="M727 478 C681 537 561 590 490 610 C457 618 421 622 387 622 C346 622 307 617 273 611 C244 606 216 599 189 590 C136 575 152 508 145 465 C141 442 136 421 134 398 C133 387 133 377 132 366 C120 365 108 362 96 359 C69 350 44 349 32 321 C28 313 30 305 31 296 C33 284 36 268 43 257 C51 245 56 246 67 244 C79 242 92 241 105 241 C118 241 130 242 139 246 C140 201 134 156 134 112 C134 90 136 69 140 47 C143 27 141 -5 157 -24 C172 -40 215 -56 233 -56 C295 -59 328 -35 366 -7 C389 10 417 25 441 39 C483 61 527 74 559 104 C591 133 627 161 656 193 C683 223 711 259 724 296 C736 327 750 366 747 402 C746 424 743 458 727 478 L727 478 Z M580 389 C579 356 565 335 548 309 C519 264 475 235 429 202 C402 184 371 167 343 149 C322 137 283 114 283 114 C283 114 282 159 283 170 C283 200 285 229 287 258 C327 259 380 261 409 270 C427 276 433 285 435 308 C435 328 432 352 410 364 C391 375 370 382 350 385 C331 389 312 389 294 388 C295 411 296 434 296 457 C296 468 295 469 306 474 C316 479 332 480 344 481 C356 482 370 484 383 484 C396 484 408 482 421 482 C470 480 521 465 570 456 C583 435 580 408 580 389 L580 389 Z " />
<glyph glyph-name="dcroat" unicode="&#x111;" horiz-adv-x="868" d="M773 435 C746 462 715 480 683 502 C646 530 617 549 574 559 C520 570 468 584 415 592 C385 596 356 598 328 598 C312 598 295 598 278 596 C231 595 137 599 119 554 C114 543 112 534 112 524 C112 487 141 455 150 406 C152 388 153 370 153 350 C137 348 120 345 105 341 C77 332 52 331 40 303 C36 295 36 287 38 278 C42 265 44 250 51 239 C57 227 64 228 74 225 C84 224 95 219 105 219 C116 219 137 223 146 228 C146 217 145 206 145 196 C145 168 143 143 144 115 C145 93 145 73 151 50 C155 29 156 10 164 -11 C170 -27 182 -48 195 -61 C212 -79 265 -104 280 -95 C395 -6 539 30 658 101 C724 139 809 172 828 258 C832 274 834 290 834 305 C834 352 816 395 773 435 L773 435 Z M668 307 C659 255 602 230 560 208 C537 196 512 188 490 177 C465 165 441 154 416 145 C396 138 373 132 353 125 C338 120 321 115 308 108 C300 121 301 136 301 150 C302 171 301 192 301 212 C301 222 302 230 302 240 C341 241 389 244 417 252 C433 258 441 267 441 290 C442 310 440 333 417 345 C397 356 377 364 358 367 C339 371 320 372 302 370 C301 398 297 428 285 452 C306 462 341 459 363 462 C389 463 419 457 447 450 C472 442 498 439 524 433 C554 425 659 393 665 367 C671 348 671 325 668 307 L668 307 Z " />
<glyph glyph-name="Emacron" unicode="&#x112;" horiz-adv-x="713" d="M691 554 C684 507 667 498 639 498 C624 498 606 501 584 502 C558 503 530 502 505 498 C444 492 316 498 262 476 C244 469 207 458 207 458 C207 458 201 404 202 383 C204 371 207 359 209 345 C221 349 232 354 244 359 C265 368 299 381 324 383 C358 388 397 390 438 390 C472 390 507 388 536 385 C570 382 623 378 648 345 C660 330 656 321 651 307 C643 291 632 276 618 267 C607 257 583 258 564 263 C544 268 528 270 508 270 C448 270 343 256 289 240 C257 230 243 225 213 211 C210 187 202 156 202 126 C202 114 204 103 207 92 C246 101 269 113 304 118 C356 125 439 148 493 150 C532 153 597 152 625 108 C639 88 632 64 621 50 C612 34 586 35 568 33 C482 17 442 5 370 -11 C321 -22 252 -30 209 -59 C198 -67 177 -73 156 -73 C145 -73 134 -71 124 -68 C109 -62 86 -48 74 -36 C56 -18 52 2 52 23 C52 46 58 70 57 91 C55 141 69 188 68 239 C68 284 58 330 55 376 C54 386 53 397 53 407 C53 434 57 460 62 485 C68 514 68 550 86 575 C94 588 111 587 125 590 C167 599 208 610 250 618 C295 627 431 633 479 633 C537 634 608 633 668 607 C696 595 695 577 691 554 L691 554 Z M544 801 C534 804 525 800 515 799 C498 796 481 792 462 792 C438 790 288 776 266 772 C249 770 230 767 213 761 C204 759 187 755 188 739 C188 732 188 718 193 710 C199 697 221 685 231 684 C239 681 249 685 256 686 C274 689 293 690 311 691 C346 695 507 709 542 714 C557 716 578 718 583 733 C586 743 590 765 584 778 C578 793 555 799 544 801 L544 801 Z " />
<glyph glyph-name="emacron" unicode="&#x113;" horiz-adv-x="725" d="M68 420 C68 388 70 358 70 327 C70 257 57 191 61 120 C61 94 64 66 64 39 C64 26 62 11 62 -3 C62 -14 63 -24 67 -35 C79 -69 109 -77 140 -77 C165 -77 190 -71 204 -67 C322 -35 432 -24 535 -18 C564 -17 598 -21 614 -2 C623 9 629 20 629 33 C629 42 626 51 620 63 C605 95 576 95 546 99 C527 101 508 102 490 102 C427 102 365 90 307 85 C265 82 237 77 200 67 C202 89 202 111 204 133 C206 142 206 175 206 175 C206 175 227 181 243 186 C312 205 378 213 441 219 C475 222 510 225 544 227 C571 228 604 216 624 228 C640 238 642 267 643 287 C646 308 625 339 595 347 C565 354 539 356 510 354 C416 351 302 339 218 318 C220 335 222 419 222 419 C222 419 285 437 299 442 C366 466 488 490 570 490 C585 490 598 489 610 487 C642 482 665 471 685 490 C696 500 700 513 700 528 C700 562 674 602 629 607 C592 611 568 617 533 615 C396 620 277 579 150 546 C123 539 94 533 77 513 C68 501 65 489 65 474 C65 457 69 439 68 420 L68 420 Z M553 777 C543 780 534 776 524 775 C507 772 490 768 471 768 C447 766 297 752 275 748 C258 746 239 743 222 737 C213 735 196 731 197 715 C197 708 197 694 202 686 C208 673 230 661 240 660 C248 657 258 661 265 662 C283 665 302 666 320 667 C355 671 516 685 551 690 C566 692 587 694 592 709 C595 719 599 741 593 754 C587 769 564 775 553 777 L553 777 Z " />
<glyph glyph-name="Eogonek" unicode="&#x118;" horiz-adv-x="713" d="M691 554 C695 577 696 595 668 607 C608 633 537 634 479 633 C431 633 295 627 250 618 C208 610 167 599 125 590 C111 587 94 588 86 575 C68 550 68 514 62 485 C57 460 53 434 53 407 C53 397 54 386 55 376 C58 330 68 284 68 239 C69 188 55 141 57 91 C58 70 52 46 52 23 C52 2 56 -18 74 -36 C86 -48 109 -62 124 -68 C134 -71 145 -73 156 -73 C177 -73 198 -67 209 -59 C233 -42 268 -32 301 -24 C302 -58 308 -91 338 -113 C361 -130 388 -153 416 -159 C447 -164 495 -149 515 -136 C528 -127 547 -113 549 -96 C554 -58 504 -23 468 -40 C444 -50 435 -68 405 -65 C403 15 488 18 568 33 C586 35 612 34 621 50 C632 64 639 88 625 108 C597 152 532 153 493 150 C439 148 356 125 304 118 C269 113 246 101 207 92 C204 103 202 114 202 126 C202 156 210 187 213 211 C243 225 257 230 289 240 C343 256 448 270 508 270 C528 270 544 268 564 263 C583 258 607 257 618 267 C632 276 643 291 651 307 C656 321 660 330 648 345 C623 378 570 382 536 385 C507 388 472 390 438 390 C397 390 358 388 324 383 C299 381 265 368 244 359 C232 354 221 349 209 345 C207 359 204 371 202 383 C201 404 207 458 207 458 C207 458 244 469 262 476 C316 498 444 492 505 498 C530 502 558 503 584 502 C606 501 624 498 639 498 C667 498 684 507 691 554 L691 554 Z " />
<glyph glyph-name="eogonek" unicode="&#x119;" horiz-adv-x="725" d="M68 405 C68 373 70 343 70 312 C70 242 57 176 61 105 C61 79 64 51 64 24 C64 11 62 -4 62 -18 C62 -29 63 -39 67 -50 C79 -84 109 -92 140 -92 C165 -92 190 -86 204 -82 C234 -74 265 -67 295 -61 C296 -97 301 -130 331 -152 C354 -168 382 -192 409 -198 C440 -202 488 -188 508 -175 C521 -166 540 -152 542 -135 C548 -97 497 -62 461 -79 C438 -88 428 -107 398 -104 C387 -79 413 -61 428 -41 C464 -38 501 -34 535 -33 C564 -32 598 -36 614 -17 C623 -6 629 5 629 18 C629 27 626 36 620 48 C605 80 576 80 546 84 C527 86 508 87 490 87 C427 87 365 75 307 70 C265 67 237 62 200 52 C202 74 202 96 204 118 C206 127 206 160 206 160 C206 160 227 166 243 171 C312 190 378 198 441 204 C475 207 510 210 544 212 C571 213 604 201 624 213 C640 223 642 252 643 272 C646 293 625 324 595 332 C565 339 539 341 510 339 C416 336 302 324 218 303 C220 320 222 404 222 404 C222 404 285 422 299 427 C366 451 488 475 570 475 C585 475 598 474 610 472 C642 467 665 456 685 475 C696 485 700 498 700 513 C700 547 674 587 629 592 C592 596 568 602 533 600 C396 605 277 564 150 531 C123 524 94 518 77 498 C68 486 65 474 65 459 C65 442 69 424 68 405 L68 405 Z " />
</font>
</svg>
