<svg height="190" viewBox="0 0 239 190" width="239" xmlns="http://www.w3.org/2000/svg" xmlns:xlink="http://www.w3.org/1999/xlink"><defs><path id="a" d="m49.3312936 151.156232c-8.1150805 0-17.0030258-1.352513-25.5045387-5.60327-13.331918-6.569351-22.41307952-19.32162-23.18594433-32.653538-1.15929721-21.4469983 5.79648607-43.4736454 19.12840403-60.4766712 18.5487554-23.3791605 47.724402-35.358565 68.0121032-42.3143483 17.0030262-5.98970229 30.3349442-8.88794532 43.0872132-9.66081013 16.423377-.96608101 31.301025 2.31859443 43.280429 9.27437771 3.671108 2.12537822 6.955784 4.44397262 9.66081 7.34221572 10.626892 10.6268911 13.911567 28.2095655 8.69473 44.6329427-4.250757 13.1387018-42.15394 42.1678935-56.258722 54.1472985-7.547511 6.392279-2.445852 19.006749 15.304975 37.843409l.000042-.000039c.632325.671005.600969 1.727563-.070036 2.359888-.524429.494199-1.30677.59613-1.94032.252804-28.368943-15.373358-45.8556-24.886988-51.0136777-22.53822-11.9794046 5.410053-20.9859022 13.529637-34.3178201 16.041448-4.4439727.772865-9.467594 1.352513-14.8776476 1.352513z"/><filter id="b" height="128.2%" width="122.6%" x="-11.3%" y="-12.8%"><feOffset dx="0" dy="2" in="SourceAlpha" result="shadowOffsetOuter1"/><feGaussianBlur in="shadowOffsetOuter1" result="shadowBlurOuter1" stdDeviation="7"/><feColorMatrix in="shadowBlurOuter1" type="matrix" values="0 0 0 0 0   0 0 0 0 0   0 0 0 0 0  0 0 0 0.110195879 0"/></filter></defs><g fill="none" fill-rule="evenodd" transform="matrix(-.8660254 .5 .5 .8660254 164.558469 -35.521953)"><use fill="#000" filter="url(#b)" xlink:href="#a"/><use fill="#fff" fill-rule="evenodd" xlink:href="#a"/></g></svg>