<svg height="176" viewBox="0 0 192 176" width="192" xmlns="http://www.w3.org/2000/svg" xmlns:xlink="http://www.w3.org/1999/xlink"><defs><path id="a" d="m951.17176 2806.38007c-5.205524 0-10.237531-.34704-14.748986-.69407-.347035 0-1.041105 0-1.908692 0-8.502357-.17352-16.831197-.69407-17.004714-5.37904-.173518-1.9087 2.08221-3.12332 5.205525-5.03201.347035-.17352.694069-.34704.867587-.52055 2.602762-1.73518 5.205525-3.47035 7.808287-5.20553 4.858489-3.29683 9.890497-6.42014 14.748986-9.71698.520553-.34703 1.214623-.69407 1.908693-1.0411 1.214622-.69407 2.602762-1.38814 2.429244-1.90869 0-.17352 0-.52056-.347035-1.04111-1.041105-1.56166-2.776279-2.9498-4.511454-4.33794-.520553-.34703-.867588-.69407-1.38814-1.0411-3.123315-2.42925-5.205525-6.42015-6.9407-9.8905l-.69407-1.38814c-4.684972-9.02291-3.643867-20.12803-2.255727-30.01852 1.561657-10.58457 4.85849-20.47507 9.716979-29.15094 7.808287-13.70788 20.301546-23.25134 32.621288-31.40667 8.675874-5.72607 18.219336-7.46125 27.415759-9.0229 1.21463-.17352 2.42925-.34704 3.47035-.69407 1.9087-.34704 3.81739-.52056 5.55256-.52056 1.04111 0 2.08221-.17351 3.29683-.17351 25.16004-2.42925 53.61691 15.26953 60.73113 38.00032 4.33793 13.8814 8.15532 30.53908 2.94979 47.89083-4.68497 15.44306-18.73989 31.58018-34.35646 39.04144-2.60276 1.21462-5.20552 2.42924-7.80829 3.47034-1.73517.86759-3.64386 1.56166-5.37904 2.42925-24.63948 11.45215-51.534692 14.9225-74.265483 16.8312-2.08221.52055-4.684972.52055-7.114217.52055z"/><filter id="b" height="129.6%" width="126.6%" x="-13.3%" y="-13.5%"><feOffset dx="0" dy="2" in="SourceAlpha" result="shadowOffsetOuter1"/><feGaussianBlur in="shadowOffsetOuter1" result="shadowBlurOuter1" stdDeviation="7"/><feColorMatrix in="shadowBlurOuter1" type="matrix" values="0 0 0 0 0   0 0 0 0 0   0 0 0 0 0  0 0 0 0.166072237 0"/></filter></defs><g fill="none" fill-rule="evenodd" opacity=".984375" transform="matrix(-1 0 0 1 1096.11026 -2646)"><use fill="#000" filter="url(#b)" xlink:href="#a"/><use fill="#fff" fill-rule="evenodd" xlink:href="#a"/></g></svg>