<svg height="108" viewBox="0 0 183 108" width="183" xmlns="http://www.w3.org/2000/svg" xmlns:xlink="http://www.w3.org/1999/xlink"><defs><path id="a" d="m39.0161071 115.100293c-5.9429937 0-12.4519867-.990499-18.6779801-4.103495-9.7634895-4.810995-16.41398242-14.1499852-16.97998181-23.9134747-.8489991-15.7064832 4.24499546-31.837466 14.00848501-44.2894527 13.5839855-17.1214817 34.9504627-25.8944723 49.8079468-30.9884669 12.4519867-4.38649531 22.2154763-6.50899304 31.5544663-7.07499244 12.0274867-.70749924 22.9229757 1.69799819 31.6959657 6.79199274 2.688498 1.5564983 5.093995 3.2544965 7.074993 5.3769943 3.15943 3.1594302 5.432685 7.1583953 6.76296 11.5992685.41595 1.3885703 2.86739 5.0371958 5.770482 6.0167133 3.396166 1.1458831 8.300262-.8982266 8.309249.8785729.019281 3.8121098-18.599855 13.7073905-19.817062 17.5393379-3.112996 9.6219897-25.529129 27.5337849-35.858618 36.3067755-8.6270291 7.3065657-42.991928 23.0302296-52.7554176 24.8697276-3.2544965.566-6.9334925.990499-10.8954883.990499z"/><filter id="b" height="128.1%" width="119.9%" y="-13.1%"><feOffset dx="0" dy="1" in="SourceAlpha" result="shadowOffsetOuter1"/><feGaussianBlur in="shadowOffsetOuter1" result="shadowBlurOuter1" stdDeviation="5"/><feColorMatrix in="shadowBlurOuter1" type="matrix" values="0 0 0 0 0   0 0 0 0 0   0 0 0 0 0  0 0 0 0.110195879 0"/></filter></defs><g fill="none" fill-rule="evenodd" transform="matrix(.89100651817 .45399049431 -.45399049431 .89100651817 48.5838799559 -30.24893081407)"><use fill="#000" filter="url(#b)" xlink:href="#a"/><use fill="#fff" fill-rule="evenodd" xlink:href="#a"/></g></svg>