<svg height="154" viewBox="0 0 179 154" width="179" xmlns="http://www.w3.org/2000/svg" xmlns:xlink="http://www.w3.org/1999/xlink"><defs><path id="a" d="m261.23742 2693.7847c-1.322708 0-2.480077-.49601-3.472108-1.32271-.826693-.82669-1.15737-1.81872-1.322708-2.97609-.330677-3.47211 2.645416-5.62151 4.464139-7.10955.496016-.33068.826693-.66136 1.15737-.8267 1.984061-1.65338 4.2988-3.63744 7.274893-5.78684 3.141432-2.48008 6.61354-5.1255 10.416325-8.10159.496016-.33068.992031-.66135 1.322708-1.15737l.165339-.16534c1.157369-.82669 2.1494-1.81872 3.472108-2.48008-.661354 0-1.157369 0-1.818723 0-1.322708 0-2.645416 0-3.968124-.16533-.826693 0-1.653385-.16534-2.314739-.16534h-.165339c-1.984062-.16534-4.133462-.33068-6.282862-.66136-3.968124-.66135-6.778878-2.31473-8.597602-4.96015-1.984062-2.97609-2.480077-6.94422-1.488046-12.06971.661354-3.30677 1.322708-6.77888 1.984062-10.08565 2.645415-13.06174 5.290831-26.78483 7.440232-40.17725 1.488046-8.92828 3.802785-15.54182 7.60557-21.65934 3.968124-6.28287 9.754971-6.44821 14.384449-6.11753 3.30677.33068 6.944217.66136 10.581664.66136 12.06971-.16534 25.13145-.33068 41.334623-.66136 2.645416 0 5.290831-.16534 7.770909-.33068 3.802785-.16533 7.936247-.33067 12.06971-.33067h6.613539c7.440233 0 15.045803 0 22.320697 1.48804 11.904371 2.48008 17.360541 9.58964 16.037834 21.49401-.496016 5.12549-2.149401 9.92031-3.637447 14.71512-.496016 1.65339-.992031 3.30677-1.488047 4.96016-1.818723 5.95218-3.637447 11.90437-5.45617 17.85656v.16533c-.826692 2.81076-1.653385 5.45617-2.480077 8.26693-.661354 2.1494-1.322708 4.46414-1.984062 6.61354-1.488047 5.12549-2.976093 10.41632-4.960155 15.54182-1.653385 4.62947-5.45617 7.77091-11.077679 9.42429-5.290832 1.48805-10.91234 1.48805-16.203172 1.48805h-1.15737c-2.645415 0-5.45617 0-8.101586 0h-.330677c-3.141431 0-6.448201 0-9.754971 0-4.960154 0-10.250986 0-16.037833-.16534-1.322708 0-2.645416-.16534-3.968124-.33068-3.637447-.33068-7.440232-.66135-10.250987.33068-3.30677 1.15737-6.613539 3.30677-9.754971 5.29083-1.322708.82669-2.645416 1.65338-3.802785 2.48008-3.968124 2.31474-9.258956 5.45617-15.045803 8.26692-.992031.49602-1.984062.99203-2.810754 1.48805-1.15737.66135-2.314739 1.32271-3.472109 1.81872l-1.488046.66136c-2.976093 1.3227-5.786847 2.64541-8.76294 3.63744-.165339 0-.496016.16534-.661354.33068-1.322708.16534-2.810754.82669-4.298801.82669z"/><filter id="b" height="134.7%" width="128.9%" x="-14.5%" y="-15.8%"><feOffset dx="0" dy="2" in="SourceAlpha" result="shadowOffsetOuter1"/><feGaussianBlur in="shadowOffsetOuter1" result="shadowBlurOuter1" stdDeviation="7"/><feColorMatrix in="shadowBlurOuter1" type="matrix" values="0 0 0 0 0   0 0 0 0 0   0 0 0 0 0  0 0 0 0.129132699 0"/></filter></defs><g fill="none" fill-rule="evenodd" transform="translate(-243 -2555)"><use fill="#000" filter="url(#b)" xlink:href="#a"/><use fill="#fff" fill-rule="evenodd" xlink:href="#a"/></g></svg>