<svg height="46.06" viewBox="0 0 25.75 46.06" width="25.75" xmlns="http://www.w3.org/2000/svg"><g fill="#eb2929" fill-rule="evenodd" transform="translate(-230.313 -1799.97)"><path d="m254.459 1800.6a2.125 2.125 0 0 0 -3-.01 25.666 25.666 0 0 0 -5.236 3.84c-2.351 2.15-5.15 5.61-7.642 8.08a106.562 106.562 0 0 0 -7.644 8.43 2.122 2.122 0 1 0 2.992 3.01 107.4 107.4 0 0 1 7.658-8.43c3.21-3.19 6.657-6.03 9.032-8.62a23.263 23.263 0 0 1 3.832-3.3 2.118 2.118 0 0 0 .008-3z"/><path d="m255.459 1845.4a2.125 2.125 0 0 1 -3 .01 25.666 25.666 0 0 1 -5.236-3.84c-2.351-2.15-5.15-5.61-7.642-8.08a106.562 106.562 0 0 1 -7.644-8.43 2.122 2.122 0 1 1 2.992-3.01 107.4 107.4 0 0 0 7.658 8.43c3.21 3.19 6.657 6.03 9.032 8.62a23.263 23.263 0 0 0 3.832 3.3 2.118 2.118 0 0 1 .008 3z"/></g></svg>