<svg height="57.75" viewBox="0 0 97.313 57.75" width="97.313" xmlns="http://www.w3.org/2000/svg"><path d="m745.263 1585.38c10.016 0 5.5-3.58 19.428 1.26 4.774 1.66 6.085 7.53 9.723 10.25 6.822 5.11 8.789 8.3 10.586 18.11 1.286 7.02-1.274 11.32-7.5 16.17a55.06 55.06 0 0 1 -9.426 5.29c-3.79 1.79-5.748 4.49-10.676 4.49-12.208 0-9.734.05-10.4.05-.1 0-15.022 2.07-28.687-.87-12.214-2.63-13.669 3.51-20.79-5.47-3.715-4.68-2.785-1.45-7.27-9.84-1.924-3.6-2.253-9.96-2.253-13.82 0-5.99 2.5-9.54 7.659-13.33 3.543-2.6 2.82-8.11 11.884-10.12 10.913-2.41 6.7.06 12.457-.55 2.062-.22 5.466-1.14 12.707-2.55 7.729-1.5 10.027.93 12.558.93z" fill="#fff" fill-rule="evenodd" transform="translate(-688 -1583.97)"/></svg>