<svg height="56.09" viewBox="0 0 94.687 56.09" width="94.687" xmlns="http://www.w3.org/2000/svg"><path d="m635.263 1647.38c10.016 0 8.5-3.58 22.428 1.26 4.774 1.66 7.671 6.64 11.309 9.36 6.822 5.1 2.966 6.83 4.763 16.64 1.286 7.02-2.541 14.52-8.763 19.36a30.619 30.619 0 0 1 -6.922 4.46 20.343 20.343 0 0 1 -10.676 2.49c-12.208 0-19.734.05-20.4.05-.1 0-6.033.48-20 1-11.464.42-13.729-2.07-19-9-3.619-4.76-3.262.21-7.747-8.18-1.924-3.6-.253-9.96-.253-13.82 0-5.99.5-9.54 5.659-13.33 3.543-2.6 2.82-8.11 11.884-10.12 10.913-2.41 10.094-.1 15.849-.71 2.063-.22 2.074 1.02 9.315-.39 7.725-1.5 10.023.93 12.554.93z" fill="#fff" fill-rule="evenodd" transform="translate(-579.344 -1645.97)"/></svg>