<svg height="59.22" viewBox="0 0 95.844 59.22" width="95.844" xmlns="http://www.w3.org/2000/svg"><path d="m635.263 1585.38c10.016 0 5.5-3.58 19.428 1.26 4.774 1.66 6.085 7.53 9.723 10.25 6.822 5.11 7.552 7.94 9.349 17.75a20.021 20.021 0 0 1 -7.259 19.53c-2.393 1.86-5.21 2.78-8.426 4.29a20.343 20.343 0 0 1 -10.676 2.49c-12.208 0-19.734.05-20.4.05-.1 0-4.72 1.61-18.687 2.13-11.464.42-15.519-1.54-20.79-8.47-3.619-4.76-2.785-1.45-7.27-9.84-1.924-3.6-1.97-7.86-1.97-11.72 0-5.99 2.222-11.64 7.376-15.43 3.543-2.6 2.82-8.11 11.884-10.12 10.913-2.41 10.094-.1 15.849-.71 2.063-.22 2.074-.98 9.315-2.39 7.725-1.5 10.023.93 12.554.93z" fill="#fff" fill-rule="evenodd" transform="translate(-578.281 -1583.97)"/></svg>