<svg height="59.93" viewBox="0 0 96.062 59.93" width="96.062" xmlns="http://www.w3.org/2000/svg"><path d="m746.263 1646.38c10.016 0 4.5-4.58 18.428.26 4.774 1.66 6.085 7.53 9.723 10.25 6.822 5.11 7.552 7.94 9.349 17.75 1.286 7.02.459 14.52-5.763 19.36-2.393 1.86-6.706 2.95-9.922 4.46-3.79 1.79-5.866 1.42-10.676 2.49a48.276 48.276 0 0 1 -20.4.05c-.1 0-5.188 5.75-18.687 2.13-11.464-3.08-15.519-1.54-20.79-8.47-3.619-4.76-2.785-1.45-7.27-9.84-1.924-3.6-1.97-7.86-1.97-11.72 0-5.99-1.278-11.64 7.376-15.43 4.028-1.76 2.82-8.11 11.884-10.12 10.913-2.41 10.094-.1 15.849-.71a59 59 0 0 0 9.315-1.39c7.725-1.5 11.023.93 13.554.93z" fill="#fff" fill-rule="evenodd" transform="translate(-688.219 -1644.41)"/></svg>