<svg height="178.78" viewBox="0 0 274.63 178.78" width="274.63" xmlns="http://www.w3.org/2000/svg"><path d="m1283.39 1697.05s15.52-3.05 20.86-16.92c5.69-14.77-.25-19.13-.25-19.13s14-11.29 12.79-27.44c-1.21-16.37-21.17-20.24-21.17-20.24s-6.14-13.36-17.62-20.32c-5.74-3.48-26.6-10.55-52.36-8.39-23.34 1.96-19.51 6.43-28.26 6.53-13.24.16-26.07-3.4-36.73-2.72a89.161 89.161 0 0 0 -27.38 5.93c.03-.12-25.9-10.89-53.99 5.59a45.656 45.656 0 0 0 -22.58 36.43s-17.4 13.68-14.06 32.04c3.68 20.21 23.32 26.5 23.32 26.5s3.39 12.83 18.64 17.63c14.35 4.51 40.03 4.93 40.03 4.93s3.26 19.39 16.37 33.53c11.91 12.85 44 12 44 12s-23.06-.68-36-17c-9.86-12.44-5.17-29.66-5.17-29.66a87.633 87.633 0 0 0 30.17 4.66c11.59-.46 22.7-6.18 36.41-7.43 9.12-.84 18.12 3.58 26.21 3.11 16.01-.91 28.48-6.35 31.33-7.22 9.76-3.02 15.44-12.41 15.44-12.41z" fill="#fff" fill-rule="evenodd" transform="translate(-1042.25 -1584.22)"/></svg>