<svg height="336" preserveAspectRatio="xMidYMid" viewBox="0 0 432 336" width="432" xmlns="http://www.w3.org/2000/svg" xmlns:xlink="http://www.w3.org/1999/xlink"><filter id="a" filterUnits="userSpaceOnUse"><feOffset dx="2.789" dy="31.878" in="SourceAlpha"/><feGaussianBlur result="dropBlur" stdDeviation="8.888"/><feFlood flood-color="#94c1ca" flood-opacity=".34"/><feComposite in2="dropBlur" operator="in" result="dropShadowComp"/><feComposite in="SourceGraphic" result="shadowed"/></filter><path d="m319.821 191.443s15.525-3.055 20.865-16.925c5.685-14.77-.251-19.128-.251-19.128s13.997-11.288 12.795-27.438c-1.219-16.373-21.18-20.243-21.18-20.243s-6.131-13.36-17.615-20.319c-5.737-3.476-26.6-10.548-52.364-8.388-23.335 1.957-19.509 6.43-28.26 6.532-13.232.153-26.066-3.403-36.731-2.721-16.184 1.036-27.372 5.93-27.372 5.93.025-.125-25.899-10.897-53.991 5.585-22.317 13.093-22.58 36.43-22.58 36.43s-17.401 13.683-14.06 32.046c3.676 20.209 23.315 26.495 23.315 26.495s3.395 12.828 18.646 17.628c14.346 4.515 40.031 4.932 40.031 4.932s3.253 19.389 16.366 33.531c11.915 12.849 44 12 44 12s-23.062-.682-36-17c-9.863-12.44-5.174-29.656-5.174-29.656s14.27 5.289 30.174 4.656c11.591-.462 22.702-6.184 36.414-7.434 9.116-.831 18.111 3.581 26.202 3.118 16.016-.918 28.486-6.35 31.33-7.228 9.759-3.014 15.44-12.403 15.44-12.403z" fill="#fff" fill-rule="evenodd" filter="url(#a)"/></svg>