<svg height="134.25" preserveAspectRatio="xMidYMid" viewBox="0 0 186.844 134.25" width="186.844" xmlns="http://www.w3.org/2000/svg"><path d="m90.844 10.03c10.15 0 19.384.29 28 5 .825.451.762 2.192 11 4 1.033.182 10.391-9.25 15.9-12.765 5.923-3.781 13.021-6.656 14.1-6.235 3.182 1.243-1.638 5.587-5.267 10.135-2.825 3.541-6.534 14.599-5.733 14.865 3.367 1.116 14.359 2.236 17 4 18.829 12.575 21 21.173 21 43 0 11.94-6.143 27.961-14 36-3.946 4.036-4.92 3.414-15.819 11.988-14.088 11.082-26.82 13.012-49.181 13.012-22.242 0-66.561 7.572-76-15-.477-1.14-11.392.61-20-13-4.238-6.7-6.691-7.446-7-8-6.615-11.854.869-22.996 0-24-6.265-7.232-9.593-23.516 10-39 1.241-.981 1.237-9.245 20-16 16.711-6.016 29.781-2.854 30-3 8.733-5.851 18.984-5 26-5z" fill="#fff" fill-rule="evenodd"/></svg>