<svg height="26.87" preserveAspectRatio="xMidYMid" viewBox="0 0 104.688 26.87" width="104.688" xmlns="http://www.w3.org/2000/svg"><path d="m103.591 13.555c-.436.267-2.165 1.387-3.975 3.34-2.315 2.497-4.752 6.128-4.752 6.128-.564.608-1.513.644-2.12.08-.608-.563-.644-1.512-.081-2.119 0 0 2.287-3.468 4.534-5.892.819-.884 1.631-1.618 2.327-2.191-1.7-.279-3.957-.603-6.68-.904v-3.128c2.211.27 4.119.557 5.646.821-.419-.387-.853-.807-1.293-1.282-2.247-2.425-4.534-5.892-4.534-5.892-.563-.608-.527-1.556.081-2.12.607-.563 1.556-.527 2.12.081 0 0 2.437 3.63 4.752 6.128 2.093 2.257 4.084 3.406 4.084 3.406.241.26.366.583.39.911.328.25.557.63.591 1.074.056.726-.415 1.37-1.09 1.559zm-12.747-1.765c-2.445-.238-5.192-.45-8.232-.594l-.292-3.21c3.162.151 6.005.387 8.524.656zm-20-.763v-3.165c3.371-.087 6.532-.059 9.469.042l.291 3.209c-3.02-.108-6.281-.149-9.76-.086zm-11.515-2.461c3.31-.324 6.487-.53 9.515-.645v3.153c-2.956.087-6.043.244-9.265.502zm-10.023 1.266c2.59-.399 5.257-.754 7.995-1.057l.27 2.968c-2.711.25-5.383.576-8.004.964zm-9.414 1.68c2.375-.487 4.853-.936 7.393-1.355l.286 2.859c-2.442.394-4.837.835-7.167 1.316zm-9.595 2.219c2.376-.613 4.887-1.206 7.494-1.77l.514 2.824c-2.673.587-5.268 1.213-7.742 1.87zm-10.012 2.873c2.455-.777 5.119-1.565 7.97-2.334l.267 2.938c-2.823.782-5.489 1.59-7.964 2.391zm-8.672 2.99c1.971-.738 4.212-1.532 6.681-2.345l.299 2.994c-2.335.782-4.479 1.548-6.397 2.266zm-11.606 5.909c-.063-.826.555-1.547 1.381-1.61 0 0 2.877-1.444 8.051-3.468l.641 2.888c-5.34 2.071-8.462 3.571-8.462 3.571-.826.064-1.547-.555-1.611-1.381z" fill="#ed1d1d" fill-rule="evenodd"/></svg>