<svg enable-background="new 0 0 32 49" viewBox="0 0 32 49" xmlns="http://www.w3.org/2000/svg" xmlns:xlink="http://www.w3.org/1999/xlink"><linearGradient id="a" gradientUnits="userSpaceOnUse" x1="26.0274" x2="4.0384" y1="26.102" y2="4.113"><stop offset="0" stop-color="#f15d22"/><stop offset=".1624" stop-color="#f26225"/><stop offset=".3737" stop-color="#f4732e"/><stop offset=".6119" stop-color="#f78d3c"/><stop offset=".8682" stop-color="#fbb250"/><stop offset=".9325" stop-color="#fcbd56"/></linearGradient><linearGradient id="b" gradientUnits="userSpaceOnUse" x1="15.7887" x2="15.7887" y1="25.3779" y2="23.0249"><stop offset="0" stop-color="#fff"/><stop offset="1" stop-color="#fff" stop-opacity="0"/></linearGradient><path d="m16 0c8.8 0 16 7.2 16 16s-15.6 33-16 33c-.6 0-16-24.2-16-33s7.2-16 16-16z" fill="#fd7319"/><circle cx="16" cy="16" fill="#fff" r="13"/><circle cx="16" cy="16" fill="#e19d3e" r="10"/><path d="m22.9 21.6h-3.9v-2.5h-6.4v2.5h-3.5v-4.9s2.2-.2 2.4-1.5c.1-.8 0-4.9 0-4.9s0-.4 0-.5c-.1-.3-.5-.5-.5-.5h9.8v7.4h1.5v3.9c.1.5.6 1 .6 1zm-5.4-9.8h-2.9c.1 0 .2 4.7-.4 4.9h3.4v-4.9z" fill="#fff"/><path d="m25.9 15.9c0 5.6-4.5 10.1-10.1 10.1s-10.1-4.5-10.1-10.1 4.5-10.1 10.1-10.1c5.6-.1 10.1 4.5 10.1 10.1z" fill="url(#a)"/><path d="m25.1 15.9c0 5.1-4.2 9.3-9.3 9.3s-9.3-4.2-9.3-9.3 4.2-9.3 9.3-9.3 9.3 4.2 9.3 9.3z" fill="url(#b)" opacity=".4"/><g fill="#fff"><path d="m21.2 20.5c-.2-.1-.2-.5-.2-.5v-2.6c0-.3 0-.6-.3-.6h-.2c-.5 0-.5-.3-.5-.6v-4.8c0-.3-.3-.6-.6-.6h-2.1-4.2-.7-.2c-.1 0-.2.1-.2.2 0 .1.1.2.2.2.2.1.2.5.2.8v1.4c0 1.9-.4 2.5-1 3.3h-.4c-.3 0-.6.3-.6.6v.8 2.8h1.9c.3 0 .6-.3.6-.6v-.7c0-.3.2-.6.4-.6h.4 4 .4c.2 0 .4.3.4.6v.7c0 .3.3.6.6.6h1.9.2c.1 0 .2-.1.2-.2v-.1s0-.1-.2-.1zm-4-4.3c0 .3 0 .6-.5.6h-2.4c.5-.7.8-1.6.8-3v-.7h1.6c.3 0 .6 0 .6.5v2.6z"/><path d="m17.2 16.2c0 .3 0 .6-.5.6h-2.4c.5-.7.8-1.6.8-3v-.7h1.6c.3 0 .6 0 .6.5v2.6zm4 4.3c-.2-.1-.2-.5-.2-.5v-2.6c0-.3 0-.6-.3-.6h-.2c-.5 0-.5-.3-.5-.6v-4.8c0-.3-.3-.6-.6-.6h-2.1-4.2-.7-.2c-.1 0-.2.1-.2.2v.1c0 .1.1.2.2.2.2.1.2.5.2.8v1.4c0 1.9-.4 2.5-1 3.3h-.4c-.3 0-.6.3-.6.6v.8 2.8h1.9c.3 0 .6-.3.6-.6v-.7c0-.3.2-.6.4-.6h.4 4 .4c.2 0 .4.3.4.6v.7c0 .3.3.6.6.6h1.9.2c.1 0 .2-.1.2-.2v-.1c0-.1 0-.2-.2-.2z"/></g></svg>