<svg height="33.188" preserveAspectRatio="xMidYMid" viewBox="0 0 33.18 33.188" width="33.18" xmlns="http://www.w3.org/2000/svg"><path d="m32.146 5.987s-4.482 5.459-10.392 11.39c5.147 4.559 9.392 7.823 9.392 7.823 1.367 1.367 1.367 3.583 0 4.95s-3.583 1.367-4.949 0c0 0-4.364-3.215-9.526-7.821-5.56 5.289-10.688 9.821-10.688 9.821-1.366 1.367-3.583 1.367-4.949 0-1.367-1.367-1.367-3.583 0-4.95 0 0 4.929-4.419 10.507-9.705-5.967-5.959-10.507-9.508-10.507-9.508-1.367-1.367-1.367-3.583 0-4.95 1.366-1.367 3.583-1.367 4.949 0 0 0 4.047 3.047 8.957 7.957.548.548 1.103 1.089 1.658 1.626.555-.545 1.104-1.088 1.642-1.626 4.91-4.91 8.957-9.957 8.957-9.957 1.366-1.367 3.582-1.367 4.949 0s1.367 3.583 0 4.95z" fill="#fff" fill-rule="evenodd"/></svg>