<svg enable-background="new 0 0 138.2 45.5" viewBox="0 0 138.2 45.5" xmlns="http://www.w3.org/2000/svg" xmlns:xlink="http://www.w3.org/1999/xlink"><linearGradient id="a" gradientTransform="matrix(.9998 -.01960137 -.01960137 -.9998 3.2723 191.8556)" gradientUnits="userSpaceOnUse" x1="22.188" x2="5.4056" y1="177.5687" y2="160.7863"><stop offset="0" stop-color="#00a0ff"/><stop offset=".00657445" stop-color="#00a1ff"/><stop offset=".2601" stop-color="#00beff"/><stop offset=".5122" stop-color="#00d2ff"/><stop offset=".7604" stop-color="#00dfff"/><stop offset="1" stop-color="#00e3ff"/></linearGradient><linearGradient id="b" gradientTransform="matrix(.9998 -.01960137 -.01960137 -.9998 3.2723 191.8556)" gradientUnits="userSpaceOnUse" x1="34.2226" x2="10.0257" y1="166.277" y2="166.277"><stop offset="0" stop-color="#ffe000"/><stop offset=".4087" stop-color="#ffbd00"/><stop offset=".7754" stop-color="#ffa500"/><stop offset="1" stop-color="#ff9c00"/></linearGradient><linearGradient id="c" gradientTransform="matrix(.9998 -.01960137 -.01960137 -.9998 3.2723 191.8556)" gradientUnits="userSpaceOnUse" x1="25.2152" x2="2.4569" y1="163.9823" y2="141.2241"><stop offset="0" stop-color="#ff3a44"/><stop offset="1" stop-color="#c31162"/></linearGradient><linearGradient id="d" gradientTransform="matrix(.9998 -.01960137 -.01960137 -.9998 3.2723 191.8556)" gradientUnits="userSpaceOnUse" x1="7.6856" x2="17.8481" y1="186.1022" y2="175.9397"><stop offset="0" stop-color="#32a071"/><stop offset=".0685" stop-color="#2da771"/><stop offset=".4762" stop-color="#15cf74"/><stop offset=".8009" stop-color="#06e775"/><stop offset="1" stop-color="#00f076"/></linearGradient><path d="m146 52.8-155 3 1.8-63 155-3z" fill="none"/><path d="m130.8 43-125 2.5c-2.7.1-5-2.2-5.1-4.9l-.6-30c0-2.7 2.2-5 4.9-5.1l128-5.5c2.7-.1 5 2.2 5.1 4.9l-2.4 33c0 2.8-2.2 5.1-4.9 5.1z"/><path d="m68.6 26c-2.4 0-4.2 1.9-4.2 4.3s2 4.2 4.4 4.2 4.2-1.9 4.2-4.3c-.1-2.5-2.1-4.2-4.4-4.2zm.1 6.8c-1.3 0-2.4-1-2.5-2.5 0-1.5 1.1-2.6 2.3-2.6 1.3 0 2.4 1 2.5 2.5s-1 2.6-2.3 2.6zm-9.5-6.6c-2.4 0-4.2 1.9-4.2 4.3s2 4.2 4.4 4.2 4.2-1.9 4.2-4.3c0-2.5-2-4.2-4.4-4.2zm.2 6.8c-1.3 0-2.4-1-2.5-2.5 0-1.5 1.1-2.6 2.3-2.6 1.3 0 2.4 1 2.5 2.5s-1 2.6-2.3 2.6zm-11.2-5.3v1.8l4.3-.1c-.1 1-.4 1.8-.9 2.3-.6.6-1.6 1.4-3.3 1.4-2.7.1-4.8-2-4.8-4.7s2-4.8 4.6-4.9c1.4 0 2.5.5 3.3 1.2l1.2-1.3c-1.1-1-2.5-1.8-4.6-1.7-3.6.1-6.6 3.1-6.6 6.7.1 3.6 3.2 6.5 6.8 6.5 2 0 3.4-.7 4.6-1.9s1.5-2.9 1.5-4.3c0-.4 0-.8-.1-1.1zm45.3.5c-.4-.9-1.5-2.7-3.7-2.6-2.2 0-4 1.8-3.9 4.3 0 2.4 1.9 4.2 4.3 4.2 1.9 0 3.1-1.3 3.5-2l-1.5-.9c-.5.7-1.1 1.2-2.1 1.2s-1.6-.4-2.1-1.2l5.6-2.5zm-5.7 1.6c-.1-1.6 1.2-2.5 2.2-2.5.7 0 1.4.3 1.6.9zm-4.6 4.2h1.9l-.2-12.5h-1.9zm-3.2-7.3c-.5-.5-1.3-.9-2.3-.9-2.1 0-4 1.9-4 4.3s2 4.2 4.2 4.2c1 0 1.8-.5 2.2-1h.1v.6c0 1.6-.8 2.5-2.2 2.5-1.1 0-1.9-.8-2.2-1.5l-1.6.7c.5 1.1 1.8 2.5 3.8 2.4 2.2 0 4-1.4 4-4.5l-.2-7.5h-1.8zm-2 6c-1.3 0-2.4-1-2.4-2.5s1-2.6 2.3-2.6 2.3 1.1 2.3 2.5-.9 2.5-2.2 2.6zm24.1-11.6-4.5.1.2 12.5h1.9l-.1-4.7 2.6-.1c2.1 0 4.1-1.6 4-4s-2-3.8-4.1-3.8zm.2 6-2.7.1-.1-4.3 2.7-.1c1.4 0 2.2 1.1 2.2 2.1.1 1-.7 2.2-2.1 2.2zm11.5-2c-1.4 0-2.7.6-3.3 2l1.7.7c.3-.7 1-.9 1.7-1 1 0 2 .5 2 1.6v.1c-.3-.2-1.1-.5-2-.4-1.8 0-3.6 1.1-3.5 2.9 0 1.7 1.5 2.7 3.2 2.7 1.3 0 1.9-.6 2.4-1.3h.1v1h1.8l-.1-4.8c-.2-2.3-1.9-3.5-4-3.5zm-.1 6.9c-.6 0-1.5-.3-1.5-1 0-1 1-1.4 2-1.4.8 0 1.2.2 1.7.4-.1 1.1-1.1 1.9-2.2 2zm10.5-6.8-2 5.5h-.1l-2.3-5.4h-2l3.5 7.5-1.8 4.3h1.9l4.9-11.9zm-16.7 8.3h1.9l-.3-12.5h-1.9z" fill="#fff"/><path d="m10.6 12.9c-.3.3-.4.8-.4 1.4l.4 22.1c0 .6.2 1.1.5 1.4l.1.1 12.1-12.6v-.1-.1z" fill="url(#a)"/><path d="m27.5 29.3-4.2-4v-.1-.1l4-4.2.1.1 4.9 2.7c1.4.8 1.4 2.1.1 2.9z" fill="url(#b)"/><path d="m27.6 29.3-4.3-4.1-12.2 12.7c.5.5 1.2.5 2.1 0z" fill="url(#c)"/><path d="m27.4 20.8-14.8-8c-.9-.5-1.6-.4-2.1.1l12.7 12.2z" fill="url(#d)"/><path d="m27.5 29.2-14.4 8.5c-.8.5-1.5.5-2 0l-.1.1.1.1c.5.4 1.2.4 2 0z" opacity=".2"/><path d="m11.1 37.7c-.3-.3-.5-.8-.5-1.4v.1c0 .6.2 1.1.5 1.4z" opacity=".12"/><path d="m32.4 26.3-4.9 2.9.1.1 4.8-2.9c.7-.4 1-.9 1-1.5 0 .5-.3 1-1 1.4z" opacity=".12"/><g fill="#fff"><path d="m12.7 13 19.7 10.7c.6.3 1 .8 1.1 1.3 0-.5-.4-1-1.1-1.4l-19.7-10.8c-1.4-.8-2.5-.1-2.5 1.5v.1c-.1-1.5 1.1-2.2 2.5-1.4z" opacity=".25"/><path d="m42.4 19.1h-.7v-2h.6c.5-.5.7-1.2.7-2.3l-.1-3 4-.1.1 5.3h.7v2h-.7v-1.3l-4.5.1zm1.3-4.4c0 .9-.1 1.7-.5 2.3l3-.1-.1-4.5h-2.5z" stroke="#fff" stroke-miterlimit="10" stroke-width=".2"/><path d="m53.7 16.8c-.6.6-1.3.9-2.2 1-.9 0-1.6-.3-2.2-.9s-.9-1.3-.9-2.2.3-1.6.8-2.2c.6-.6 1.3-.9 2.2-1 .9 0 1.6.3 2.2.9s.9 1.3.9 2.2c0 .8-.3 1.6-.8 2.2zm-3.9-.4c.5.4 1 .7 1.6.6.6 0 1.2-.2 1.6-.7s.6-1 .6-1.7-.2-1.3-.7-1.7-1-.7-1.6-.6c-.6 0-1.2.2-1.6.7s-.6 1-.6 1.7c0 .6.3 1.2.7 1.7z" stroke="#fff" stroke-miterlimit="10" stroke-width=".2"/><path d="m58.4 17.6c-.9 0-1.6-.3-2.2-.9s-.9-1.3-.9-2.2.3-1.6.9-2.3c.6-.6 1.3-.9 2.2-.9s1.6.3 2.2.9l-.6.6c-.4-.5-1-.7-1.7-.7s-1.2.2-1.6.7-.7 1-.6 1.7.2 1.3.7 1.7 1 .6 1.7.6 1.3-.3 1.8-.9l.5.5c-.3.3-.6.6-1 .8-.4.3-.9.4-1.4.4z" stroke="#fff" stroke-miterlimit="10" stroke-width=".2"/><path d="m63.9 17.4h-.8l-.1-5.3h-1.7v-.7l4.1-.1v.7h-1.7z" stroke="#fff" stroke-miterlimit="10" stroke-width=".2"/><path d="m70.8 11.2-2.2 5.1c-.3.7-.8 1.1-1.4 1.1-.2 0-.4 0-.6-.1l.2-.7c.1.1.3.1.4.1.2 0 .3 0 .4-.1s.2-.2.3-.4l.2-.5-2.1-4.4h.9l1.6 3.4 1.4-3.5z" stroke="#fff" stroke-miterlimit="10" stroke-width=".2"/><path d="m71.8 17.2-.1-6 4.3-.1.1 6h-.8l-.1-5.3-2.8.1.1 5.3z" stroke="#fff" stroke-miterlimit="10" stroke-width=".2"/><path d="m77.5 17.1-.1-6h.8l.1 2.6 3-.1-.2-2.6h.8l.1 6h-.8l-.1-2.7-3 .1.1 2.7z" stroke="#fff" stroke-miterlimit="10" stroke-width=".2"/><path d="m88.3 16.1c-.6.6-1.3.9-2.2 1-.9 0-1.6-.3-2.2-.9s-.9-1.3-.9-2.2.3-1.6.8-2.2c.6-.6 1.3-.9 2.2-1 .9 0 1.6.3 2.2.9s.9 1.3.9 2.2c0 .8-.2 1.6-.8 2.2zm-3.8-.4c.5.4 1 .7 1.6.6.6 0 1.2-.2 1.6-.7s.6-1 .6-1.7-.2-1.3-.7-1.7-1-.7-1.6-.6c-.6 0-1.2.2-1.6.7s-.6 1-.6 1.7.2 1.2.7 1.7z" stroke="#fff" stroke-miterlimit="10" stroke-width=".2"/><path d="m92.3 16.8-.1-6h2.2c.5 0 .9.1 1.2.4s.5.7.5 1.2c0 .3-.1.5-.2.8-.1.2-.3.4-.6.5.3.1.5.3.7.5s.3.5.3.8c0 .5-.2.9-.5 1.2-.4.3-.8.5-1.3.5zm.7-3.4h1.4c.3 0 .5-.1.7-.3s.3-.4.3-.6-.1-.4-.3-.6-.4-.3-.7-.3h-1.4zm.1 2.6h1.6c.3 0 .5-.1.7-.3s.3-.4.3-.7c0-.2-.1-.5-.3-.7s-.4-.3-.8-.3h-1.5z" stroke="#fff" stroke-miterlimit="10" stroke-width=".2"/></g></svg>