<svg height="90" viewBox="0 0 83 90" width="83" xmlns="http://www.w3.org/2000/svg"><g fill="none" fill-rule="evenodd" transform="translate(-15.038732 -12.433273)"><g fill="#fff"><path d="m19.7513514 59.6324324c-3.1783784 0-6.6594595-.5297297-9.98918924-2.1945946-5.22162162-2.5729729-8.77837838-7.5675675-9.08108108-12.7891892-.45405405-8.4 2.27027027-17.027027 7.49189189-23.6864864 7.26486483-9.1567568 18.69189193-13.84864869 26.63783783-16.57297301 6.6594595-2.34594595 11.8810811-3.48108108 16.8756757-3.78378379 6.4324324-.37837837 12.2594594.90810811 16.9513513 3.63243244 1.4378379.83243243 2.7243244 1.74054054 3.7837838 2.87567567 4.1621622 4.16216219 5.4486487 11.04864869 3.4054054 17.48108109-1.6648648 5.1459459-5.1459459 9.9135135-10.6702702 14.6054054-7.4162163 6.2810811-16.2702703 10.7459459-24.745946 14.6054054-4.6918919 2.1189189-9.6108108 4.3135135-14.8324324 5.2972973-1.7405406.3027027-3.7081081.5297297-5.827027.5297297z" transform="matrix(.8660254 .5 -.5 .8660254 38.448523 1.004754)"/><path d="m54.1329951 86.071284c-.9081081 0-1.8918919-.3027027-2.6486487-.8324324-.9837837-.7567568-1.5135135-1.7405406-1.3621621-2.6486487.0756757-.454054.3027027-.8324324.454054-1.2108108 1.1351352-1.9675676 2.6486487-3.7081081 4.5405406-5.1459459.6810811-.5297298 1.5135135-.9837838 2.4972973-1.5891892.6054054-.3027027 1.5891892-.9081081 2.6486486-.6054054.6810811.1513513 1.2108108.681081 1.5891892 1.2108108 1.3621622 1.6648648 1.8918919 3.254054 1.5135135 4.6918919-.3027027 1.0594594-1.0594594 1.8918919-1.6648648 2.4216216-1.4378379 1.3621622-3.1783784 2.4216216-5.0702703 3.1783784-.6810811.227027-1.4378378.5297297-2.345946.5297297-.1513513 0-.1513513 0-.1513513 0z" transform="matrix(.68199836 .7313537 -.7313537 .68199836 76.577874 -16.089418)"/><path d="m55.9887945 101.887474c-.5297298 0-1.2108109-.075676-1.8918919-.454054-1.2108108-.756757-1.8162163-2.421622-1.2864865-3.9351355.7567567-2.1189189 3.1783784-3.1027027 5.2216216-2.9513514 1.0594595.0756757 1.8162162.4540541 2.3459459 1.0594595.5297298.6054054.6810811 1.3621622.5297298 2.1945946-.3027027 1.4378378-1.5891892 2.9513518-2.7243244 3.5567568-.6054054.378378-1.3621621.52973-2.1189189.605405 0-.075675 0-.075675-.0756756-.075675z" transform="matrix(.8571673 .51503807 -.51503807 .8571673 58.71273 -15.216318)"/></g><rect fill="#e63f39" height="21.06" rx="10.53" width="21.06" x="44.001407" y="12.485167"/><path d="m0 0v10.1088l7.94262857-5.0544z" fill="#fff" transform="translate(51.733172 18.224367)"/></g></svg>