<svg height="181" viewBox="0 0 160 181" width="160" xmlns="http://www.w3.org/2000/svg"><path d="m44.4066459 180.491396c-.2267606 0-.4535212 0-.6802817 0-1.1338028-.226761-2.2676056-1.133803-2.4943662-2.494366-.6802817-1.814085.4535211-3.628169 1.1338028-4.535212l.2267606-.22676c5.2154929-9.070423 10.4309859-17.914085 15.6464788-26.984507l4.5352113-7.709859c.2267606-.680282.9070423-1.360564 1.587324-2.267606.9070422-1.133803 2.4943662-3.628169 2.7211267-4.535211 0-.226761-1.1338028-1.133803-1.5873239-1.360564l-.2267606-.22676c-1.3605634-.907043-2.7211268-1.814085-4.3084507-2.494367-1.1338028-.680281-2.4943662-1.133802-3.628169-1.814084-4.0816902-2.494366-7.9366197-5.215493-11.7915493-7.709859l-2.2676056-1.360564c-.9070423-.680281-2.0408451-1.587324-2.4943662-2.721126-.9070423-2.721127 1.3605633-5.215493 2.040845-6.122536.6802817-.680281 1.587324-1.587323 2.4943662-2.494366 1.1338028-1.133803 2.2676057-2.267605 3.1746479-3.401408-2.0408451 0-3.8549296.22676-5.4422535.22676h-5.215493c-2.4943662 0-4.9887324 0-7.4830986 0-8.8436619 0-18.8211267-.680281-24.71690136-7.4830982-4.76197183-5.6690141-4.9887324-13.6056338-4.76197183-21.0887324l1.13380281-44.2183099c.22676057-8.1633803.90704226-17.4605634 7.70985916-22.90281688 4.98873242-3.85492958 11.56478872-4.08169014 16.78028172-4.08169014l87.7563376-2.26760564c5.669014-.22676056 12.245071-.45352112 18.367606.90704226 7.029577 1.58732394 12.698592 4.98873239 16.326761 9.7507042 2.267605 3.1746479 3.628169 6.8028169 4.761971 9.9774648 5.895775 18.1408451 5.895775 37.1887324 5.895775 55.7830986 0 3.8549296 0 9.9774648-3.401408 14.0591549-3.174648 3.628169-7.93662 4.7619719-12.245071 5.6690141-19.728169 3.8549293-40.13662 5.6690143-60.3183097 5.2154933-4.0816901 0-9.2971831 2.721126-9.7507042 6.802817h.2267606c4.0816901 2.494366 8.843662 5.442253 13.6056338 8.843662 1.5873239 1.133802 3.628169 2.494366 4.9887324 4.761971 1.5873239 2.721127 1.3605634 6.122536-.4535212 8.163381l-34.9211267 37.869014c-1.587324 1.814084-3.1746479 3.854929-4.7619718 5.895774-1.587324 2.040845-2.9478874 4.081691-4.7619719 5.895775-1.3605634.226761-2.4943662.680282-3.4014084.680282z" fill="#fff" fill-rule="evenodd" transform="matrix(-1 0 0 1 160.331147 0)"/></svg>