<svg height="59" viewBox="0 0 113 59" width="113" xmlns="http://www.w3.org/2000/svg"><g fill="none" fill-rule="evenodd" transform="translate(-7 -11)"><path d="m19.7513514 59.6324324c-3.1783784 0-6.6594595-.5297297-9.98918924-2.1945946-5.22162162-2.5729729-8.77837838-7.5675675-9.08108108-12.7891892-.45405405-8.4 2.27027027-17.027027 7.49189189-23.6864864 7.26486483-9.1567568 18.69189193-13.84864869 26.63783783-16.57297301 6.6594595-2.34594595 11.8810811-3.48108108 16.8756757-3.78378379 6.4324324-.37837837 12.2594594.90810811 16.9513513 3.63243244 1.4378379.83243243 2.7243244 1.74054054 3.7837838 2.87567567 4.1621622 4.16216219 5.4486487 11.04864869 3.4054054 17.48108109-1.6648648 5.1459459-5.1459459 9.9135135-10.6702702 14.6054054-7.4162163 6.2810811-16.2702703 10.7459459-24.745946 14.6054054-4.6918919 2.1189189-9.6108108 4.3135135-14.8324324 5.2972973-1.7405406.3027027-3.7081081.5297297-5.827027.5297297z" fill="#fff" transform="matrix(.8660254 .5 -.5 .8660254 31.009696 1.752824)"/><rect fill="#e63f39" height="21.06" rx="10.53" width="21.06" x="37.56258" y="11.233237"/><g fill="#fff"><path d="m0 0v10.1088l7.94262857-5.0544z" transform="translate(45.294345 16.972437)"/><path d="m95.5189323 64.5086977c-.9081081 0-1.8918919-.3027027-2.6486486-.8324324-.9837838-.7567568-1.5135135-1.7405405-1.3621622-2.6486486.0756757-.4540541.3027027-.8324325.4540541-1.2108109 1.1351351-1.9675675 2.6486486-3.7081081 4.5405405-5.1459459.6810811-.5297297 1.5135135-.9837838 2.4972973-1.5891892.6054054-.3027027 1.5891896-.9081081 2.6486486-.6054054.681081.1513514 1.210811.6810811 1.589189 1.2108108 1.362162 1.6648649 1.891892 3.2540541 1.513514 4.6918919-.302703 1.0594595-1.05946 1.8918919-1.664865 2.4216216-1.437838 1.3621622-3.1783785 2.4216216-5.0702704 3.1783784-.6810811.227027-1.4378378.5297297-2.3459459.5297297-.1513514 0-.1513514 0-.1513514 0z"/><path d="m114.586628 68.1486977c-.52973 0-1.210811-.0756756-1.891892-.454054-1.210811-.7567568-1.816216-2.4216216-1.286487-3.9351352.756757-2.1189189 3.178379-3.1027027 5.221622-2.9513513 1.05946.0756757 1.816216.454054 2.345946 1.0594595.52973.6054054.681081 1.3621621.52973 2.1945945-.302703 1.4378379-1.589189 2.9513514-2.724325 3.5567568-.605405.3783784-1.362162.5297297-2.118918.6054054 0-.0756757 0-.0756757-.075676-.0756757z"/></g></g></svg>