<svg height="167" viewBox="0 0 229 167" width="229" xmlns="http://www.w3.org/2000/svg"><g fill="#fff" fill-rule="evenodd" transform="matrix(-.92718385 .37460659 .37460659 .92718385 188.721357 -55.622678)"><path d="m185.201653 164.380165c-.365289 0-.547934 0-.913223-.182644-2.191736-.547934-3.470248-2.374381-4.383471-3.287604-2.73967-3.652892-4.931405-7.853719-6.757852-12.419834-2.37438-6.027273-4.200826-12.785124-5.661983-21.369422-.365289-2.009091-.547934-3.835537-.913223-5.844628 0-.365289-.547934-4.566116-.913223-4.383471-1.826447 1.095868-3.652893 2.922314-5.296695 4.200826-1.826446 1.461157-3.835537 3.104959-5.661983 4.566116-8.949587 6.940496-18.264463 13.333058-28.309917 18.447108-2.557025 1.278512-5.11405 2.37438-7.48843 3.470248-7.671074 3.104958-15.342149 5.114049-22.8305786 5.844628-4.0181818.365289-8.0363637.547933-11.8719008.365289-.5479339 0-.9132232 0-1.4611571 0-1.6438016 0-3.2876033-.182645-4.9314049-.547934-1.6438017-.365289-2.7396695-.913223-3.8355372-2.009091-.1826446-.182645-.5479339-.547934-.7305785-.547934-.3652893 0-.7305785.365289-.9132232.547934l-.1826446.182645c-1.461157 1.095867-3.4702479 2.191735-5.4793388 3.104958-2.009091.913224-4.2008265 1.643802-7.1231405 2.374381-4.7487604 1.095867-9.86281 1.278512-14.9768595.547933-12.6024794-1.826446-24.109091-8.766942-30.6842976-18.812396-11.14132228-16.438017-10.04545451-40.5471077 2.3743802-57.1677689 7.853719-10.4107438 19.7256198-17.8991735 33.4239669-20.8214876 3.470248-.7305785 7.1231405-1.2785124 10.5933885-1.461157h5.2966942c.3652892 0 .9132231.1826446 1.2785124.1826446h.3652892c0-.1826446-.1826446-.5479339-.1826446-.7305785-.7305785-4.0181818-.3652892-8.4016529.7305785-12.4198347 3.470248-12.4198347 15.707438-22.2826446 29.953719-24.1090909 6.757851-.9132231 13.698347-.1826446 21.004132 2.0090909 3.287604.9132231 6.575207 2.3743802 9.86281 4.0181818 1.643802.7305785 3.104959 1.6438017 4.566116 2.3743802.182645.1826446.365289.1826446.547934.3652892.182644-.3652892.365289-.7305785.365289-1.0958677 1.461157-2.5570248 3.287603-4.7487604 5.661983-6.9404959 4.018182-3.4702479 8.949587-6.392562 15.524794-8.7669421 15.707438-5.66198351 37.624793-7.12314053 52.053719 6.2099173 8.584297 7.853719 13.150413 20.0909091 12.602479 32.6933884-.547934 11.1413224-5.114049 22.4652893-12.967768 32.6933885-15.890083 20.6388434-22.46529 48.0355374-17.899174 73.6057854.182645 1.095867-.182645 2.191735-1.095868 3.104958-.547934 1.461157-1.643801 2.009091-2.739669 2.009091z"/><path d="m2.92231405 100.271901c-.18264463 0-.54793388 0-.73057851-.182645-.73057852-.1826444-1.46115703-.9132229-1.82644628-1.4611568-.54793389-1.0958678-.36528926-2.3743802-.18264463-3.2876033.36528925-3.2876033.91322314-7.1231405 2.00909091-10.9586777 1.82644628-5.8446281 5.47933884-10.9586777 10.22809916-14.7942149 2.3743802-2.0090909 4.931405-3.4702479 7.853719-4.7487603.1826446 0 .3652893-.1826447.7305785-.3652893 1.2785124-.5479339 2.7396695-1.2785124 3.8355372-1.0958677.7305785.1826446 1.461157.5479338 1.6438017 1.2785123.3652892.7305786.1826446 1.6438017-.3652893 2.3743802-.7305785.9132232-2.0090909 1.461157-3.1049587 1.8264463l-.3652892.1826446c-10.7760331 4.0181818-18.44710745 15.707438-17.53388431 27.2140496 0 1.0958678.18264462 2.7396694-1.2785124 3.6528926-.18264463.1826444-.54793388.3652894-.91322314.3652894z"/><path d="m137.896694 22.2826446c-.182644 0-.365289 0-.547934 0-.730578-.1826446-1.278512-.9132231-1.461157-1.461157-.182644-.9132231 0-1.8264463.913223-2.922314 4.383472-6.392562 11.871901-9.86280996 19.177686-12.60247939 7.305786-2.73966942 15.890083-5.29669421 23.561157-2.37438016 1.461157.54793388 2.191736 1.2785124 2.374381 2.37438016.182644 1.2785124-.913224 2.19173554-1.826447 2.5570248-.913223.18264463-1.643801.18264463-2.37438 0h-.365289c-13.880992-1.82644628-28.857851 3.65289259-38.172727 14.24628099-.36529 0-.730579.1826446-1.278513.1826446z"/><path d="m117.257851 156.161157c-.547934 0-1.278512-.182645-1.643801-.365289-.547934-.365289-.913224-.730579-.913224-1.461157-.182644-1.278513.913224-2.37438 2.922314-2.922314 16.620662-4.383471 31.597521-13.333058 43.652067-25.570248 1.095867-1.095868 2.009091-1.278513 2.739669-.913223.730579.365289.913223 1.095867.913223 1.461157.730579 2.191735 1.095868 4.383471 1.278513 6.575206v.182645c.182644 1.461157.182644 3.287603-.730579 3.835537-.365289.182645-.913223.365289-1.826446-.365289-.913223-.730579-1.095868-2.191736-1.278513-2.37438 0-.547934-.365289-1.095868-.730578-1.643802 0-.182645-.182645-.182645-.182645-.182645-.547934 0-1.095868.730579-1.461157 1.095868-.547934.365289-1.095868.913223-1.461157 1.278513-1.095868.913223-2.009091 1.643801-3.104958 2.37438-2.191736 1.643801-4.383472 3.104958-6.575207 4.566115-4.566116 3.104959-9.497521 5.661984-14.428926 8.036364s-10.045454 4.200826-15.342148 5.844628c-.730579.365289-1.278513.547934-1.826447.547934z"/></g></svg>