<svg height="140" viewBox="0 0 156 140" width="156" xmlns="http://www.w3.org/2000/svg"><path d="m31.9482752 149.061505c-4.8867727 0-9.610653-.325785-13.8458559-.65157-.3257849 0-.9773546 0-1.7918167 0-7.98172865-.162892-15.80056491-.65157-15.96345733-5.049665-.16289243-1.791817 1.95470906-2.932064 4.88677266-4.72388.32578484-.162893.65156969-.325785.81446211-.488677 2.44338633-1.628925 4.88677266-3.257849 7.33015896-4.886773 4.5609879-3.094956 9.2848681-6.02702 13.8458559-9.121976.4886773-.325785 1.140247-.651569 1.7918167-.977354 1.1402469-.65157 2.4433863-1.30314 2.2804939-1.791817 0-.162892 0-.488677-.3257849-.977354-.9773545-1.466032-2.6062787-2.769172-4.235203-4.072311-.4886772-.325785-.8144621-.65157-1.3031393-.977355-2.9320636-2.280493-4.8867727-6.027019-6.5156969-9.284868l-.6515697-1.303139c-4.3980954-8.4704059-3.4207409-18.8955209-2.1176015-28.180389 1.4660318-9.9364377 4.5609878-19.2213058 9.1219756-27.3659269 7.330159-12.8685013 19.0584134-21.8275845 30.6237754-29.4835284 8.1446211-5.3754499 17.1037043-7.0043741 25.7370027-8.4704059 1.1402469-.1628924 2.2804939-.3257849 3.2578484-.6515697 1.7918167-.3257849 3.5836333-.4886773 5.2125575-.4886773.9773546 0 1.9547091-.1628924 3.0949561-.1628924 23.6194011-2.28049391 50.3337581 14.3345331 57.0123481 35.6734404 4.07231 13.0313938 7.655943 28.6690663 2.769171 44.9583085-4.398096 14.4974257-17.592382 29.6464207-32.2527 36.6507947-2.443386 1.140247-4.886772 2.280494-7.330159 3.257849-1.628924.814462-3.420741 1.466032-5.049665 2.280494-23.1307238 10.7509-48.3790492 14.008748-69.7179565 15.800565-1.9547091.488677-4.3980954.488677-6.6785893.488677z" fill="#fff" fill-rule="evenodd" opacity=".984375" transform="translate(-.274824 -9.467125)"/></svg>